<svg width="102" height="112" fill="none" xmlns="http://www.w3.org/2000/svg"><path d="M21 48.5C21 31.103 35.103 17 52.5 17S84 31.103 84 48.5 69.897 80 52.5 80 21 65.897 21 48.5Z" fill="#fff"/><path fill-rule="evenodd" clip-rule="evenodd" d="M52.5 81.286c-18.106 0-32.785-14.678-32.785-32.785 0-18.107 14.679-32.786 32.786-32.786S85.286 30.393 85.286 48.5c0 18.107-14.678 32.785-32.785 32.785Zm0-64.285C35.105 17 21 31.104 21 48.5 21 65.897 35.105 80 52.5 80 69.898 80 84 65.897 84 48.5 84 31.104 69.898 17 52.5 17Z" fill="#571AFF"/><path d="M69.858 75.144a32.57 32.57 0 0 1-16.639 4.85 32.62 32.62 0 0 1-16.79-4.336 18.747 18.747 0 0 1 3.356-4.368 19.175 19.175 0 0 1 7.316-4.432A19.682 19.682 0 0 1 55.688 66a19.478 19.478 0 0 1 8.098 2.891 18.728 18.728 0 0 1 5.95 6.049c.04.066.083.135.122.204Z" fill="#571AFF"/><path d="M51.763 60.843c9.267 0 16.78-7.512 16.78-16.779s-7.513-16.779-16.78-16.779c-9.267 0-16.779 7.512-16.779 16.779s7.512 16.779 16.78 16.779Z" fill="#000A2C"/><path d="M64.8 55.995c3.353-6.077 1.098-13.696-5.036-17.018-6.134-3.322-13.824-1.088-17.177 4.989-3.353 6.076-1.099 13.696 5.035 17.018 6.134 3.322 13.824 1.088 17.177-4.989Z" fill="#FFB8B8"/><path d="M40.574 42.604a17.526 17.526 0 0 0 10.033 3.108 10.746 10.746 0 0 1-4.264 1.759 35.315 35.315 0 0 0 14.46.081 9.343 9.343 0 0 0 3.026-1.042 3.833 3.833 0 0 0 1.869-2.505c.317-1.816-1.095-3.467-2.563-4.58a18.858 18.858 0 0 0-15.884-3.182c-1.774.461-3.551 1.238-4.704 2.666-1.152 1.428-1.494 3.63-.396 5.101l-1.577-1.406Z" fill="#000A2C"/><path fill="#F5E30F" d="M19 86h68v11H19z"/></svg>