<svg width="168" height="161" fill="none" xmlns="http://www.w3.org/2000/svg"><g clip-path="url(#a)"><path d="M78.32 161c36.601 0 66.272-1.503 66.272-3.357 0-1.855-29.671-3.358-66.272-3.358-36.602 0-66.273 1.503-66.273 3.358 0 1.854 29.671 3.357 66.273 3.357Z" fill="#F2F2F2"/><path d="M117.042 54.26h-.753V33.826c0-3.136-1.258-6.144-3.496-8.362A11.995 11.995 0 0 0 104.352 22H60.656a11.994 11.994 0 0 0-8.441 3.464 11.771 11.771 0 0 0-3.496 8.362v112.099a11.77 11.77 0 0 0 3.496 8.363 11.997 11.997 0 0 0 8.44 3.463h43.697c3.166 0 6.202-1.246 8.44-3.463a11.77 11.77 0 0 0 3.497-8.363v-77.12h.753V54.26Z" fill="#3F3D56"/><path d="M113.747 33.906V145.84a8.788 8.788 0 0 1-2.611 6.245 8.954 8.954 0 0 1-6.304 2.587H60.927a8.955 8.955 0 0 1-6.304-2.587 8.79 8.79 0 0 1-2.611-6.245V33.906c0-2.342.939-4.588 2.61-6.245a8.958 8.958 0 0 1 6.304-2.587h5.327a4.162 4.162 0 0 0 .408 3.924c.387.572.91 1.04 1.523 1.363a4.269 4.269 0 0 0 1.99.494h25.034c.694 0 1.377-.17 1.99-.494a4.225 4.225 0 0 0 1.523-1.363 4.175 4.175 0 0 0 .408-3.924h5.703c2.365 0 4.632.93 6.304 2.587a8.79 8.79 0 0 1 2.611 6.245Z" fill="#fff"/><path d="M99.601 82.176a17.412 17.412 0 0 1-2.043.893 16.973 16.973 0 0 1-4.978.985 17.067 17.067 0 0 1-4.756-.444 16.815 16.815 0 0 1-3.703-1.354c-.105-.052-.21-.108-.316-.162a11.186 11.186 0 0 1-.461-.258 9.967 9.967 0 0 1 3.465-2.896A10.059 10.059 0 0 1 99.6 82.177Z" fill="#F4ED0F"/><path d="M92.158 73.982c4.566 0 8.267-3.667 8.267-8.19s-3.701-8.19-8.267-8.19c-4.566 0-8.267 3.667-8.267 8.19s3.7 8.19 8.267 8.19Z" fill="#2F2E41"/><path d="M94.356 73.993c2.982-1.615 4.078-5.32 2.448-8.273-1.63-2.954-5.369-4.04-8.35-2.425-2.982 1.615-4.078 5.319-2.448 8.273 1.63 2.954 5.369 4.04 8.35 2.425Z" fill="#A0616A"/><path d="M97.873 64.807a8.423 8.423 0 0 1-4.783 1.465c.61.418 1.303.7 2.033.828a17.03 17.03 0 0 1-6.893.038 4.492 4.492 0 0 1-1.443-.49 1.822 1.822 0 0 1-.89-1.18c-.152-.856.521-1.634 1.221-2.158a9.053 9.053 0 0 1 3.616-1.594 9.093 9.093 0 0 1 3.956.095c.846.216 1.693.582 2.242 1.255.55.673.712 1.71.189 2.404l.752-.663Z" fill="#2F2E41"/><path d="M91.78 50.496c-3.695 0-7.29 1.196-10.234 3.407a16.781 16.781 0 0 0-6.08 8.841 16.638 16.638 0 0 0 .547 10.683 16.825 16.825 0 0 0 6.949 8.188l.11.063c.09.054.18.106.27.157.153.09.305.175.461.257.106.054.211.11.317.162a16.811 16.811 0 0 0 4.505 1.524 17.066 17.066 0 0 0 5.061.187 16.987 16.987 0 0 0 3.87-.897l.315-.118a16.637 16.637 0 0 0 1.728-.776 17.018 17.018 0 0 0 6.974-6.71l.025-.044a16.59 16.59 0 0 0 1.817-4.926 16.64 16.64 0 0 0-.212-7.336 16.728 16.728 0 0 0-3.348-6.547 16.938 16.938 0 0 0-5.846-4.508 17.087 17.087 0 0 0-7.228-1.607Zm14.509 24.706c-.015.026-.028.052-.043.076a16.536 16.536 0 0 1-7.748 7.008 14.882 14.882 0 0 1-1.079.431 16.39 16.39 0 0 1-3.893.89 16.861 16.861 0 0 1-1.745.091 16.48 16.48 0 0 1-3.054-.282 16.244 16.244 0 0 1-1.813-.44 16.742 16.742 0 0 1-2.634-1.057c-.098-.05-.196-.101-.292-.153a9.941 9.941 0 0 1-.412-.228 9.841 9.841 0 0 1-.303-.175c-.059-.034-.117-.07-.176-.105a16.48 16.48 0 0 1-6.347-7.049 16.291 16.291 0 0 1-1.379-9.347 16.362 16.362 0 0 1 4.045-8.554 16.608 16.608 0 0 1 8.132-4.933 16.73 16.73 0 0 1 9.53.32 16.574 16.574 0 0 1 7.775 5.468 16.3 16.3 0 0 1 1.436 18.04Z" fill="#3F3D56"/><path d="M87.973 57.71c-.089-.926-1.235-1.497-2.13-1.217-.897.28-1.485 1.174-1.663 2.088a2.968 2.968 0 0 0 .408 2.261c.453.646 1.285 1.05 2.061.885.887-.187 1.5-1.044 1.676-1.925.176-.88.001-1.789-.173-2.67l-.179.579Zm12.606 1.329c-.089-.927-1.235-1.497-2.131-1.218-.896.28-1.485 1.174-1.662 2.088a2.969 2.969 0 0 0 .407 2.261c.453.646 1.286 1.05 2.062.885.886-.187 1.5-1.044 1.676-1.925.175-.88.001-1.788-.173-2.67l-.179.579Z" fill="#2F2E41"/><path d="M62.494 73.995a.848.848 0 0 1-.623-.273l-9.343-10.097a1.134 1.134 0 0 0-.833-.364H2.325a2.84 2.84 0 0 1-1.996-.82A2.79 2.79 0 0 1-.5 60.46V42.824c0-.742.299-1.454.829-1.979a2.843 2.843 0 0 1 1.997-.82h63.961c.75 0 1.468.295 1.998.82a2.79 2.79 0 0 1 .828 1.98v17.638a2.79 2.79 0 0 1-.828 1.978c-.53.525-1.248.82-1.998.821h-1.813c-.3 0-.587.119-.799.329-.212.21-.331.495-.331.791v8.773a.83.83 0 0 1-.54.783.858.858 0 0 1-.31.058Z" fill="#fff"/><path d="M2.324 40.395c-.65 0-1.272.256-1.73.711a2.418 2.418 0 0 0-.719 1.715V60.46c0 .643.259 1.26.718 1.715.46.455 1.082.71 1.731.711h49.37a1.523 1.523 0 0 1 1.11.484l9.343 10.098a.473.473 0 0 0 .819-.316V64.38c0-.395.159-.775.441-1.055a1.52 1.52 0 0 1 1.066-.438h1.813c.65 0 1.272-.256 1.731-.711.46-.455.718-1.072.718-1.715V42.82c0-.643-.259-1.26-.718-1.715a2.464 2.464 0 0 0-1.731-.712H2.324Z" fill="#571AFF"/><path d="M104.005 133.812a.83.83 0 0 1-.54-.783v-8.773c0-.297-.12-.581-.331-.791-.212-.21-.5-.328-.799-.329h-1.814a2.838 2.838 0 0 1-1.997-.821 2.787 2.787 0 0 1-.829-1.978v-17.639c.001-.742.3-1.454.829-1.979a2.842 2.842 0 0 1 1.997-.82h63.962c.749 0 1.467.295 1.997.82.53.525.828 1.237.829 1.979v17.639a2.787 2.787 0 0 1-.829 1.978 2.839 2.839 0 0 1-1.997.821h-49.369a1.136 1.136 0 0 0-.834.364l-9.342 10.097a.838.838 0 0 1-.623.273.865.865 0 0 1-.31-.058Z" fill="#fff"/><path d="M100.52 100.27a2.46 2.46 0 0 0-1.731.711 2.418 2.418 0 0 0-.719 1.715v17.639c.001.643.26 1.26.719 1.715a2.46 2.46 0 0 0 1.731.711h1.813c.4.001.783.158 1.065.438.283.28.442.66.442 1.055v8.774a.467.467 0 0 0 .578.454.475.475 0 0 0 .241-.139l9.342-10.097c.141-.153.313-.275.504-.358.192-.083.398-.126.607-.127h49.369c.65 0 1.272-.256 1.731-.711.46-.455.718-1.072.719-1.715v-17.639a2.417 2.417 0 0 0-.719-1.715 2.458 2.458 0 0 0-1.731-.711H100.52Z" fill="#571AFF"/><path d="M84.07 139.272a16.881 16.881 0 0 1-8.777 2.62 16.887 16.887 0 0 1-8.856-2.343 10.123 10.123 0 0 1 1.77-2.359 10.064 10.064 0 0 1 3.86-2.394 10.146 10.146 0 0 1 8.8 1.098 10.009 10.009 0 0 1 3.138 3.267c.021.036.044.073.065.111Z" fill="#F4ED0F"/><path d="M74.517 130.353c4.597 0 8.322-3.691 8.322-8.245 0-4.553-3.725-8.245-8.322-8.245-4.596 0-8.322 3.692-8.322 8.245 0 4.554 3.726 8.245 8.322 8.245Z" fill="#2F2E41"/><path d="M80.708 127.924c1.64-2.974.538-6.702-2.464-8.328-3.002-1.625-6.765-.532-8.406 2.441-1.64 2.974-.537 6.703 2.464 8.328 3.002 1.626 6.765.533 8.406-2.441Z" fill="#FFB8B8"/><path d="M68.766 121.118a8.474 8.474 0 0 0 4.814 1.474 5.19 5.19 0 0 1-2.046.834c2.285.486 4.647.499 6.938.039a4.5 4.5 0 0 0 1.453-.495 1.82 1.82 0 0 0 .897-1.187c.152-.862-.526-1.645-1.23-2.172a9.105 9.105 0 0 0-3.64-1.605 9.149 9.149 0 0 0-3.982.096c-.852.218-1.705.586-2.258 1.264-.553.677-.716 1.721-.19 2.419l-.756-.667Z" fill="#2F2E41"/><path d="M75.024 142.084a17.029 17.029 0 0 1-11.093-4.104 16.737 16.737 0 0 1-5.67-10.299 16.656 16.656 0 0 1 2.524-11.462 16.924 16.924 0 0 1 9.485-7.023 17.082 17.082 0 0 1 11.81.847 16.861 16.861 0 0 1 8.365 8.304 16.637 16.637 0 0 1 .832 11.702 16.8 16.8 0 0 1-7.108 9.383 17.034 17.034 0 0 1-9.145 2.652Zm0-33.202a16.68 16.68 0 0 0-9.206 2.766 16.455 16.455 0 0 0-6.104 7.367 16.274 16.274 0 0 0-.943 9.485 16.369 16.369 0 0 0 4.535 8.406 16.616 16.616 0 0 0 8.484 4.493c3.215.633 6.546.308 9.574-.935a16.537 16.537 0 0 0 7.436-6.046 16.308 16.308 0 0 0 2.792-9.121 16.359 16.359 0 0 0-4.858-11.602 16.667 16.667 0 0 0-11.71-4.813Z" fill="#3F3D56"/><path d="M103.926 135.483c2.548 0 4.613-.227 4.613-.507s-2.065-.507-4.613-.507c-2.548 0-4.614.227-4.614.507s2.066.507 4.614.507Zm-41.23-59.691c2.547 0 4.613-.227 4.613-.507s-2.066-.508-4.613-.508c-2.548 0-4.614.227-4.614.508 0 .28 2.066.507 4.614.507Z" fill="#F2F2F2"/><path fill="#fff" d="M7.215 45.699h54.007v4.484H7.215zm98.371 60.215h54.007v4.484h-54.007zM7.215 52.105h27.004v4.484H7.215zm98.371 60.215h27.004v4.484h-27.004z"/></g><defs><clipPath id="a"><path fill="#fff" d="M0 0h168v161H0z"/></clipPath></defs></svg>