<svg width="230" height="160" fill="none" xmlns="http://www.w3.org/2000/svg"><g clip-path="url(#a)"><path opacity=".1" d="M3.02 81.79c3.621 14.113 11.289 26.314 23.407 32.227 25.194 12.291 81.979 5.952 124.365-1.324 21.931-3.764 41.194-14.144 55.195-28.771L3.02 81.789Zm222.279-66.435h-23.257c-1.106 0-2.012-.825-2.012-1.833s.904-1.833 2.012-1.833h4.024c-1.106 0-2.012-.825-2.012-1.833s.904-1.83 2.012-1.83h-2.871c-1.106 0-2.012-.826-2.012-1.834s.904-1.833 2.012-1.833h12.139c-2.695-1.143-5.835-1.953-9.469-2.378-33.099-3.877-44.918-1.314-49.092 1.324a48.714 48.714 0 0 1-17.012 6.798c-20.422 3.841-58.613 8.463-93.23-1.48-17.204-4.94-29.99 3.42-37.656 17.365h220.462c-.288-4.056-1.149-7.802-2.73-11.08a2.11 2.11 0 0 1-1.308.447ZM1.046 52.328a85.297 85.297 0 0 0 .904 24.625l204.193 6.808a87.146 87.146 0 0 0 14.186-19.717L1.046 52.328Zm80.756 17.567h-4.024c1.104 0 2.012.825 2.012 1.833s-.906 1.83-2.012 1.83H54.53c-1.104 0-2.012-.822-2.012-1.83s.906-1.833 2.012-1.833h4.024c-1.104 0-2.012-.825-2.012-1.833s.906-1.833 2.012-1.833H55.68c-1.105 0-2.012-.823-2.012-1.83 0-1.009.906-1.834 2.012-1.834h23.257c1.106 0 2.012.825 2.012 1.833s-.904 1.831-2.012 1.831h2.865c1.106 0 2.012.825 2.012 1.833s-.9 1.833-2.012 1.833Zm147.547-43.778L6.42 31.061C3.704 37.416 1.907 44.6 1.078 52.05h224.363a80.275 80.275 0 0 0 3.24-13.378c.668-4.378.935-8.611.668-12.555ZM46.342 42.316h-4.024c1.105 0 2.012.825 2.012 1.833s-.905 1.833-2.012 1.833H19.063c-1.104 0-2.012-.825-2.012-1.833s.906-1.833 2.012-1.833h4.024c-1.104 0-2.012-.823-2.012-1.831s.906-1.833 2.012-1.833h-2.875c-1.104 0-2.012-.825-2.012-1.833s.906-1.833 2.012-1.833H43.47c1.106 0 2.012.825 2.012 1.833s-.904 1.833-2.012 1.833h2.873c1.105 0 2.012.825 2.012 1.833s-.907 1.83-2.012 1.83Zm87.872 111.969c8.36 0 15.137-1.522 15.137-3.398 0-1.877-6.777-3.399-15.137-3.399-8.359 0-15.136 1.522-15.136 3.399 0 1.876 6.777 3.398 15.136 3.398Zm35.175 9.635c15.081 0 27.307-1.003 27.307-2.241 0-1.238-12.226-2.241-27.307-2.241-15.081 0-27.307 1.003-27.307 2.241 0 1.238 12.226 2.241 27.307 2.241Zm-109.641-2.241c15.081 0 27.307-1.521 27.307-3.398 0-1.877-12.226-3.398-27.307-3.398-15.08 0-27.307 1.521-27.307 3.398 0 1.877 12.226 3.398 27.307 3.398Zm41.634-17.011c11.348 0 20.547-1.522 20.547-3.399 0-1.876-9.199-3.398-20.547-3.398-11.347 0-20.546 1.522-20.546 3.398 0 1.877 9.199 3.399 20.546 3.399Z" fill="#F4ED0F"/><path d="M116.736 60.425c-.435-2.925-3.093-9.752-3.093-9.752a10.308 10.308 0 0 0-.157-.604c-1.885-6.479-4.495-7.042-4.495-7.042l-9.347-2.012a.725.725 0 0 1 .2.187 1.516 1.516 0 0 0-.146.022 3.661 3.661 0 0 1-.819-1.77 4.92 4.92 0 0 1-.046-.3 6.578 6.578 0 0 0 1.242-7.746 6.578 6.578 0 0 0-2.077-2.36c.44-.469.455-1.12.125-1.773-.737-1.529-2.338-2.497-3.984-2.97-1.258-.36-2.616-.476-3.867-.082-.71.226-1.358.604-2.024.94-1.242.62-2.616 1.11-3.543 2.13-.218.238-.419.542-.354.855.048.234.233.415.352.622.267.465.2 1.05.018 1.558-.183.506-.45.977-.578 1.496-.126.52-.078 1.131.312 1.503.187.145.382.28.584.403.213.182.4.392.557.626.37.496.74.994 1.107 1.494.519.663.982 1.368 1.386 2.107.276.543.489 1.123.857 1.61a2.4 2.4 0 0 0 .368.386l-.108-.042a1.676 1.676 0 0 0 1.229.5h.056a.338.338 0 0 0 .225-.092v.201c.023.718.019 1.483-.032 2.201l-.086-.044a.755.755 0 0 0-.805.085l-8.605 6.905s-1.871 2.559-1.61 6.977L78.07 63.27s-1.885 5.621-.434 9.635c1.45 4.014 2.291 6.31 2.291 6.31s.58 4.561 1.45 4.933c.872.373 1.248.574 1.248.574l.173 1.09s.059.107.161.286c.634 1.103 2.982 4.994 4.346 4.577.172 1.057.246 2.127.221 3.197l1.35 9.064s.942 2.465.884 3.757c-.058 1.291 1.098 3.132 1.098 3.132a5.986 5.986 0 0 0-.58 4.215c.552 2.415 1.248 13.537 1.248 13.537l1.006 2.696-.028 3.161a3.011 3.011 0 0 1-.624 1.408c-.651.709-.603 1.528-2.175 2.495-1.57.968-2.567 1.334-2.567 2.616a3.36 3.36 0 0 1-.048.533c-.145.942-.427 1.453 2.463 1.726 3.394.322 5.657-1.891 5.657-1.891s.5-.905 2.85-1.271c0 0 .804-.043.846-.753a17.55 17.55 0 0 0 0-1.231c-.038-.984-.133-2.133-.257-2.189-.157-.071-.43-1.061-.525-1.419h.654s.603-4.561 0-7.515c-.604-2.953-.059-5.048-.059-5.048l-.117-7.8s-.804-.861-.172-2.382c.631-1.521 0-9.034 0-9.034s.233-2.696.899-3.328c.666-.632.032-3.95 0-4.123l1.187 3.982s.521 7.915 1.626 9.348l.317 3.585s2.262 3.3 1.827 5.076c-.434 1.777.465 8.203.465 8.203v6.569s-1.016 2.638.403 3.586l.603-.024c-.201.187-.356.469-.591.712-.272.28-.427 1.344-.513 2.259-.073.775-.097 1.441-.097 1.441s.604.966 1.74 1.032c1.137.067 4.883 2.916 4.883 2.916s3.701 0 4.658-.202l.057-.014c.307-.096.566-.307.722-.589.192-.327.253-.714.173-1.085-.119-.565-.567-1.185-1.561-1.712-2.473-1.304-2.841-2.525-2.841-2.525l-1.624-2.436h.231s-.142-2.582 1.624-5.479l-.115-12.762s.725-4.388-.521-6.771c0 0-.102-2.523.731-3.297.833-.775-1.109-8.603-1.109-8.603s-.402-4.204-.875-8.038c1.957 1.857 3.988-4.83 4.33-6.018h.05l-.022-.087a3 3 0 0 1 .022-.084s-.435-1.546-.117-1.232c.318.314 1.103-.86 1.103-.86s-.117-6.397 1.247-9.62c1.364-3.223-.605-11.074-.605-11.074Zm-5.835 4.07.01-.018c.201 3.905-.038 12.239-.038 12.239s-.27 1.068-.558 2.326l-.201-7.917-.201-7.459.988.83ZM85.93 61.803s.986 12.332 0 14.11c-.28.507-.515 1.409-.71 2.437-.326-.855-1.016-2.863-.769-3.928.32-1.376-.638-4.991-.638-5.076 0-.084-.086-2.012.604-3.485.69-1.473.237-2.11.237-2.11s.58-2.415 1.276-1.948Z" fill="url(#b)"/><path d="M88.332 89.578c-.859 3.776-4.275-1.934-5.054-3.304l-.157-.284.37-1.736 1.958-.805c.31.162.604.353.877.572 1.073.843 2.668 2.631 2.006 5.557Zm26.505-6.181s0 .029-.022.085c0 .024-.016.056-.026.09-.336 1.18-2.328 7.817-4.251 5.974-2.105-2.012-1.083-6.664-1.083-6.664h.014l4.427-.452.877.901.064.066Z" fill="#D38884"/><path d="m112.275 116.063.112 12.675c-1.736 2.878-1.593 5.433-1.593 5.433l-5.722.225c-1.397-.94-.403-3.557-.403-3.557v-6.527s-.883-6.376-.456-8.143c.426-1.766-1.793-5.03-1.793-5.03l-.314-3.559c-1.082-1.422-1.596-9.279-1.596-9.279l-1.16-3.968c.032.171.635 3.483 0 4.093-.636.61-.884 3.301-.884 3.301s.626 7.461 0 8.968c-.625 1.507.17 2.364.17 2.364l.114 7.744s-.541 2.078.056 5.01c.598 2.931 0 7.46 0 7.46h-6.138l.028-3.16-.994-2.676s-.684-11.046-1.225-13.438a6.003 6.003 0 0 1 .567-4.185s-1.137-1.821-1.08-3.103c.056-1.282-.878-3.726-.878-3.726l-1.323-8.996a17.475 17.475 0 0 0-.656-5.124c-.769-2.564-1.908-5.924-1.908-5.924l1.286.115 6.487.578s15.772-1.06 16.478-.18c.149.289.249.6.298.92.708 3.18 1.643 13.146 1.643 13.146s1.908 7.773 1.089 8.541c-.819.769-.718 3.272-.718 3.272 1.227 2.364.513 6.73.513 6.73Z" fill="#4D26B9"/><path d="M98.942 138.081c-.044.706-.83.748-.83.748-2.306.362-2.797 1.26-2.797 1.26s-2.213 2.199-5.551 1.879c-2.837-.274-2.561-.779-2.415-1.714.029-.175.044-.351.047-.528 0-1.281.981-1.645 2.519-2.615 1.537-.97 1.495-1.773 2.134-2.477.64-.704.707-2.07.707-2.07.724-1.262 2.56.201 2.56.201.087.447 2.818.384 2.818.384s.362 1.453.549 1.537c.123.057.215 1.195.251 2.173.02.513.025.978.008 1.222Z" fill="#B07473"/><path opacity=".1" d="M98.942 138.081c-.044.706-.83.748-.83.748-2.306.362-2.797 1.259-2.797 1.259s-2.213 2.2-5.551 1.88c-2.837-.274-2.561-.779-2.415-1.715 1.268.314 3.69.753 5.105-.016 1.966-1.066 3.376-1.81 3.376-1.81l3.106-1.564c.018.509.023.974.006 1.218Z" fill="#571AFF"/><path d="M116.321 141.883a1.232 1.232 0 0 1-.709.585l-.054.015c-.94.201-4.571.201-4.571.201s-3.672-2.839-4.783-2.904c-1.11-.064-1.708-1.026-1.708-1.026s.022-.66.093-1.428c.086-.91.237-1.966.505-2.244.491-.513.603-1.207 1.708-.768 0 0 1.577-2.781 3.436-.632l1.924 2.917s.362 1.208 2.798 2.517c.974.524 1.409 1.139 1.532 1.701.077.364.016.744-.171 1.066Z" fill="#B07473"/><path opacity=".1" d="M116.321 141.881c-.218.183-.457.381-.709.586l-.054.014c-.94.201-4.571.201-4.571.201s-3.672-2.839-4.783-2.903c-1.11-.065-1.708-1.026-1.708-1.026s.022-.66.093-1.429c1.13.338 2.843.936 3.301 1.58.705.979 2.843 2.348 2.843 2.348s3.988-.385 5.759-.437c.077.364.016.745-.171 1.066Z" fill="#571AFF"/><path d="m100.799 42.533-5.252 5.551s-6.363-.468-5.253-2.348c.566-.957.654-2.961.604-4.704-.046-1.68-.22-3.11-.22-3.11s8.926-4.443 8.25-.3a6.817 6.817 0 0 0-.025 2.364c.38 2.093 1.896 2.547 1.896 2.547Z" fill="#D38884"/><path opacity=".1" d="M98.92 37.622a6.82 6.82 0 0 0-.023 2.364 6.55 6.55 0 0 1-4.672 1.95c-1.207 0-2.513-.992-3.489-1.566a192.646 192.646 0 0 1-.056-2.448s8.925-4.443 8.24-.3Z" fill="#571AFF"/><path d="M100.799 35.016a6.58 6.58 0 0 1-5.113 6.415 6.577 6.577 0 1 1 5.113-6.415Z" fill="#D38884"/><path opacity=".1" d="M109.748 84.377c-1.638 3.897-12.173 3.977-12.173 3.977v-4.25l-.638-.041c.276 1.217-.386 4.185-.386 4.185-8.326 1.175-10.356-3.57-10.356-3.57l.29-1.623 6.487.577s15.772-1.06 16.478-.179c.149.29.25.601.298.924Z" fill="#571AFF"/><path d="M97.575 87.841v-4.25l-.638-.04c.276 1.208-.386 4.185-.386 4.185-6.265.884-8.965-1.583-9.917-2.859a3.899 3.899 0 0 1-.439-.708l2.544-14.305.603-21.054.912-3.694.21-1.772v-.02h.023l.648.277 3.877 1.676 4.404-3.325.065-.047.219-.167.364.292.905.726 2.904 18.75s5.03 14.436 5.971 20.263c.039.233.069.45.093.654.622 5.32-12.362 5.418-12.362 5.418Z" fill="#F4ED0F"/><path d="M95.484 46.065a.374.374 0 1 0 0-.749.374.374 0 0 0 0 .749Zm.172 3.418a.374.374 0 1 0 0-.749.374.374 0 0 0 0 .749Zm.374 5.527a.374.374 0 1 0 0-.748.374.374 0 0 0 0 .748Zm.618 5.961a.374.374 0 1 0 0-.748.374.374 0 0 0 0 .748Zm.375 5.594a.374.374 0 1 0 0-.749.374.374 0 0 0 0 .749Zm.375 5.957a.374.374 0 1 0 0-.749.374.374 0 0 0 0 .749Zm-.153 5.89a.374.374 0 1 0 0-.748.374.374 0 0 0 0 .748Z" fill="#571AFF"/><path opacity=".1" d="M90.712 71.941s-.418 5.479-1.187 7.072c-.768 1.594-1.11 6.065-1.11 6.065l-1.785-.202a3.899 3.899 0 0 1-.439-.708l2.544-14.305.603-21.054.914-3.696.21-1.772.025-.01a.72.72 0 0 1 .636.01l.084.044c-.025.073-.05.147-.072.223-.696 2.18-.956 6.195-.956 6.195s1.006 7.346 1.11 10.763c.105 3.416-.577 11.375-.577 11.375Z" fill="#571AFF"/><path opacity=".1" d="M86.326 84.027c-.02.046-.042.09-.068.132-.692 1.17-2.447 1.912-2.98 2.115l-.157-.284.37-1.736 1.958-.805c.31.164.604.358.877.578Z" fill="#571AFF"/><path d="m81.584 56.066-1.624.968-1.478 6.577s-1.851 5.58-.429 9.565c1.423 3.986 2.25 6.268 2.25 6.268s.569 4.527 1.424 4.897c.855.37 1.223.57 1.223.57l.171 1.082s2.318-.787 3.137-2.173c.819-1.386-.604-4.829-.604-4.829s-1.223-2.933-.909-4.3c.314-1.366-.628-4.953-.628-5.03 0-.076-.084-1.993.604-3.46.688-1.467.23-2.093.23-2.093l-.43-4.185-2.937-3.857Z" fill="#571AFF"/><path opacity=".1" d="M109.883 83.143s-4.299 1.621-5.665.201c-1.366-1.42-1.226-8.086-1.226-8.086s-1.307-12.3-2.134-14.32c-.827-2.02-.403-16.598-.403-16.598s-.555-1.886-1.04-2.379a.526.526 0 0 0-.103-.082l.168.036.583.125.905.726 2.904 18.75s5.03 14.436 5.971 20.263l.04 1.364Z" fill="#571AFF"/><path opacity=".1" d="M114.835 83.569h-.048c-.541.07-5.318.647-5.338-.347 0-.114.006-.23.018-.343l4.427-.453.877.901c.016.058.028.109.04.149l.024.093Z" fill="#571AFF"/><path d="m110.252 49.48 3.139 1.638s2.616 6.773 3.034 9.676c0 0 1.938 7.778.604 10.977-1.334 3.2-1.224 9.55-1.224 9.55s-.768 1.166-1.082.854c-.314-.311.115 1.224.115 1.224s-5.366.712-5.388-.342c-.023-1.055 1.231-6.093 1.231-6.093s.342-11.985-.143-13.864c-.485-1.88-.286-13.62-.286-13.62Z" fill="#571AFF"/><path opacity=".1" d="M100.887 62.246s-1.767 4.326-2.336 4.612c-.57.285.114 1.422.114 1.422s3.217-4.497 2.222-6.034Zm-1.053-15.173c.02-.083-2.107 2.086-2.676 2.414-.57.328 2.078-.02 2.676-2.414ZM93.91 61.906s-3.245 2.099-2.816 2.93c.428.83 2.817-2.93 2.817-2.93Zm5.895 30.634s2.762 1.776 7.06 2.212l-7.06-2.213Zm-6.633 4.269s2.561 3.219 3.73 3.301c1.17.083-3.73-3.301-3.73-3.301Zm3.586 12.617c-.114.056-1.452 2.903-2.816 2.99-1.365.086 2.816-2.99 2.816-2.99Zm11.871 6.236s2.539-.569 3.104 1.252c0-.006-.171-.576-3.104-1.252Zm-1.707 10.412s3.076-.628 3.73.227c.654.855-3.73-.227-3.73-.227Zm-8.702 1.457c0 .028-3.13.628-3.018 1.026.113.399 3.34.342 3.455-.285a.604.604 0 0 0-.437-.741Zm7.678 2.701s5.145-.628 4.829.455c-.316 1.082-4.829-.455-4.829-.455ZM78.965 66.86c.028.084 3.388.54 3.843 1.623 0 0-3.302-1.54-3.823-1.54m4.707 8.713S80.9 76.54 81.1 77.87c.2 1.33-.284-.615 2.592-2.213Zm-1.302 6.776s1.017-1.395 1.984-1.139c.968.255-1.983 1.139-1.983 1.139Zm15.937-52.557a1.582 1.582 0 0 1-.326.243c-.805.47-1.026 1.192-1.409 2.024-.356.763-.748 1.57-1.466 2.002-.928.56-2.15.355-3.113.841a2.414 2.414 0 0 0-1.288 2.38c.062.37.153.736.274 1.091.22.77.318 1.568.294 2.368a.414.414 0 0 1 0 .07 6.575 6.575 0 1 1 7.042-11.02h-.008Z" fill="#571AFF"/><path d="M98.154 27.898c-.722-1.517-2.293-2.479-3.91-2.947-1.232-.356-2.572-.473-3.796-.08-.698.22-1.332.603-1.985.93-1.22.617-2.56 1.103-3.477 2.115-.216.236-.403.538-.348.85.046.23.227.402.344.615.263.463.2 1.044.018 1.547-.183.503-.443.97-.568 1.487-.124.517-.076 1.123.306 1.491.171.163.39.266.576.403.209.18.392.389.545.62l1.086 1.484c.51.658.966 1.357 1.36 2.09.27.54.48 1.115.841 1.596.363.48.926.867 1.526.815a.297.297 0 0 0 .241-.115.32.32 0 0 0 .03-.15 7.721 7.721 0 0 0-.287-2.36 6.811 6.811 0 0 1-.274-1.091 2.424 2.424 0 0 1 1.288-2.38c.965-.487 2.187-.282 3.112-.84.72-.434 1.113-1.24 1.467-2.012.388-.832.604-1.555 1.408-2.024.805-.468.898-1.245.497-2.044Z" fill="#000A2C"/><path opacity=".1" d="M95.207 135.391s1.006 1.281.745 2.012c-.262.73-.745-2.012-.745-2.012Zm13.613 3.206s.224-1.718 1.119-1.734c.895-.017.94-.093 1.624.171.684.263 1.326.672 1.12.732-.205.06-1.177-.982-2.175-.449a7.21 7.21 0 0 0-1.688 1.28ZM92.206 47.431l2.816-1.974s-4.12-2.434-4.611-2.092c-.491.342-.829 3.42-.829 3.42l2.624.646Z" fill="#571AFF"/><path d="m92.194 47.305 2.817-2.012s-4.12-2.434-4.612-2.092c-.49.342-.829 3.59-.829 3.59l2.624.514Z" fill="#E1E7EF"/><path d="m92.194 47.305 2.817-2.012s-4.12-2.434-4.612-2.092c-.49.342-.829 3.59-.829 3.59l2.624.514Z" fill="#F4ED0F"/><path d="m90.869 43.216-.085-.043a.73.73 0 0 0-.79.083l-8.45 6.855s-1.838 2.541-1.582 6.925l4.984 7.06s.569-2.39 1.251-1.935c0 0 .968 12.243 0 14.007-.968 1.765-1.394 8.37-1.394 8.37l3.273.37s.342-4.47 1.11-6.064c.77-1.593 1.188-7.072 1.188-7.072s.692-7.96.577-11.376c-.114-3.416-1.11-10.762-1.11-10.762s.28-4.306 1.028-6.418Z" fill="#571AFF"/><path opacity=".1" d="m99.284 46.184-3.51-1.3s4.47-4.897 5.029-2.18l-1.519 3.48Z" fill="#571AFF"/><path d="m99.284 46.012-3.51-1.3s4.47-4.897 5.029-2.18l-1.519 3.48Z" fill="#E1E7EF"/><path d="m99.284 46.012-3.51-1.3s4.47-4.897 5.029-2.18l-1.519 3.48Z" fill="#F4ED0F"/><path opacity=".1" d="M99.172 41.846a.201.201 0 0 1 .145.033l-.145-.033Z" fill="#571AFF"/><path d="m99.508 41.504 9.315 2.012s2.564.569 4.415 7.003c1.851 6.435-2.535 14.318-2.535 14.318l-.968-.823.485 18.79s-4.3 1.621-5.666.2c-1.366-1.42-1.223-8.091-1.223-8.091s-1.31-12.298-2.137-14.32c-.827-2.022-.403-16.597-.403-16.597s-.76-2.605-1.283-2.492Z" fill="#571AFF"/><path opacity=".1" d="M108.032 53.479c-.13.12-.283 5.806.286 10.134a55.152 55.152 0 0 0 1.61 7.8l-.845-17.336s-.652-.968-1.051-.598Zm-1.141-4.897c.227.143 1.225 2.505.768 3.473-.457.968-.768-3.473-.768-3.473ZM98.1 27.895a5.143 5.143 0 0 0-2.048-2.145 4.87 4.87 0 0 1 1.535 1.81c.402.806.284 1.61-.499 2.051-.783.44-1.026 1.191-1.408 2.024-.357.763-.749 1.57-1.47 2.012-.925.56-2.146.352-3.112.84a2.43 2.43 0 0 0-1.287 2.381c.062.37.154.734.275 1.089.22.77.319 1.568.294 2.368a.319.319 0 0 1-.032.15.29.29 0 0 1-.24.115 1.387 1.387 0 0 1-.702-.13 1.636 1.636 0 0 0 1.207.472.237.237 0 0 0 .27-.265 7.721 7.721 0 0 0-.292-2.368 6.606 6.606 0 0 1-.275-1.09 2.425 2.425 0 0 1 1.287-2.38c.966-.488 2.187-.283 3.113-.84.72-.434 1.113-1.241 1.467-2.012.388-.833.603-1.555 1.408-2.024.805-.469.912-1.26.51-2.058Z" fill="#571AFF"/><path d="M155.415 53.161c-2.772-.054-5.219-2.012-6.605-4.404a4.422 4.422 0 0 1-.668-1.886 2.15 2.15 0 0 1 .076-.45c.085-.225.152-.455.201-.69a1.206 1.206 0 0 0 0-.282v-.016c.067-.51-.233-1.006-.603-1.354-.37-.348-.835-.604-1.221-.95-1.192-1.046-1.554-2.724-1.576-4.322v-.084c.014-.684.069-1.37.062-2.054a8.523 8.523 0 0 0-.05-1.163c-.114-.968-.483-1.954-1.243-2.572-1.984-1.61-5.32.067-7.374-1.454-.499-.372-.904-.922-1.509-1.067-.457-.11-.932.039-1.378.188-1.513.498-3.201 1.154-3.793 2.615-.338.84-.243 1.797-.553 2.646-.201.57-.586 1.058-.865 1.597a2.49 2.49 0 0 0-.322 1.334 1.51 1.51 0 0 0 .098.71c.105.272.274.514.493.707a2.312 2.312 0 0 1-.294.47c-.386.473-.979.805-1.382 1.276-.744.863-.716 2.036-.35 3.05.366 1.014 1.028 1.938 1.485 2.926.201.428.354.907.151 1.334-.143.296-.439.52-.668.776a2.437 2.437 0 0 0-.604 1.348c-4.529 1.035-4.533 4.674-4.533 4.674l-2.446 6.153s-.393 1.036-.853 2.404l-2.896-.519 2.012 3.368c-.38 1.373-.65 2.644-.561 3.284 0 0-.899 4.225.7 4.963l3.529 1.588c.153.094.317.167.489.22l.143.064a.378.378 0 0 0 .33 0h.048a.472.472 0 0 0 .201-.03.4.4 0 0 0 .177-.192.068.068 0 0 1 0-.02l1.057-.306.895 1.06c.402.284.805.53 1.185.751l-1.386 13.766s-.223 18.309-.899 22.482c-.25 1.545-.252 2.6-.157 3.316l-.027.044c.167 1.177.604 1.409.604 1.409v-.016a.226.226 0 0 0 .026.016c.204-.535.446-1.054.724-1.554v.302c-.014 1.553-.062 3.728-.223 5.143-.273 2.414.7 10.372.7 10.372l.336 7.243a6.684 6.684 0 0 1-.825 3.529c-.804 1.446-1.832 3.483-1.907 4.386a.902.902 0 0 0 0 .147l-1.726 2.076s-.674 1.042.849 1.463c.819.227 2.231 0 3.366-.268a2.247 2.247 0 0 0 1.744-2.189 7.76 7.76 0 0 1 1.425-2.734l.283 1.668 1.9.471.243-4.572c.098-.256.143-.53.131-.804.374-3.252-.881-2.96-.881-2.96a.178.178 0 0 1 .06.113l-.06-.111c-.771-1.521-.403-4.024-.403-4.024s1.006-7.243 1.35-9.156c.248-1.353.145-5.779.063-8.25 0-.102 0-.201-.01-.299 2.945-.039 6.555-.137 9.088-.383v.298l-.467 17.112a9.391 9.391 0 0 1-.656 3.183c0 .02-.014.038-.022.058a13.875 13.875 0 0 0-.927 4.485l-.218 5.432v.151c-.378.145-.976.566-.992 1.785-.026 1.787 3.123 1.191 3.123 1.191 3.147 0 3.173-3.275 3.173-3.275s.098-3.004.249-5.014c.151-2.01-.474-1.568-.474-1.568l-.049 5.718v.045-5.012l.049-.727v-.175l.396-5.897s2.899-9.826 3.348-11.712c.32-1.339.187-5.376.082-7.607 0-.102 0-.201-.016-.296.9-.08 1.694-.088 2.012-.088h.147s-.149-15.782-.525-21.73c-.376-5.947-.974-11.39-2.473-13.027-.905-.99-2.167-4.046-3.018-6.31a31.555 31.555 0 0 0 5.547 1.81c4.747.995 4.097-3.126 4.097-3.126l-.481-7.792h.032a39.731 39.731 0 0 0-.523-6.093c-.252-1.545-.636-3.142-1.223-4.426a36.766 36.766 0 0 0 1.523-.638c1.289-.57 2.742-1.376 2.927-2.766h-.062c.025-.1.041-.203.048-.306Zm-29.421 11.267c.01.805-.02 2.201-.069 3.745l-1.507-2.013 1.511-2.45.065.718Zm20.82 7.13-2.511-.804c.445-.695.965-1.339 1.551-1.92l.217-.2-.078.015.121-.11.072-.016-.115.11.137-.028a4.29 4.29 0 0 0 .855 1.72c.902.984-.247 1.234-.247 1.234h-.002Z" fill="url(#c)"/><path d="m131.561 143.988-.293 5.569-1.874-.468-.394-2.316 2.561-2.785Z" fill="#A27772"/><path opacity=".1" d="m131.561 143.988-.293 5.569-1.874-.468-.394-2.316 2.561-2.785Z" fill="#571AFF"/><path d="m138.438 150.297 2.857.592 2.118-1.871v-5.274l.048-.72v-.175l.395-5.861s2.859-9.756 3.303-11.629c.314-1.328.184-5.336.079-7.551a114.64 114.64 0 0 0-.079-1.515l-6.307-1.527-.133 4.849-.461 16.989a9.41 9.41 0 0 1-.645 3.161l-.023.058a13.851 13.851 0 0 0-.915 4.451l-.213 5.402v.149l-.024.472Z" fill="#CC818C"/><path opacity=".1" d="m138.438 150.299 2.857.591 2.118-1.871v-.449a.603.603 0 0 1-.304.483l-.03.018a5.693 5.693 0 0 1-3.207.634l-1.115-.094a1.004 1.004 0 0 0-.295.072v.149l-.024.467Z" fill="#571AFF"/><path d="m143.08 149.217.03-.016a.601.601 0 0 0 .308-.523l.046-5.676s.616-.44.467 1.556c-.149 1.995-.245 4.977-.245 4.977s-.024 3.252-3.129 3.252c0 0-3.104.591-3.08-1.183.024-1.775 1.281-1.847 1.281-1.847l1.115.096a5.678 5.678 0 0 0 3.207-.636Z" fill="#B07473"/><path d="M123.555 149.091c.072 1.281 3.843.541 3.843.541l2.537-4.926s2.118-1.627 1.058-3.056a2.378 2.378 0 0 1-.155-.243l-.01-.012a1.787 1.787 0 0 1-.062-.115c-.761-1.509-.387-3.984-.387-3.984s.984-7.195 1.33-9.092c.244-1.34.143-5.736.063-8.195-.032-1.022-.063-1.708-.063-1.708l-6.259-1.676v1.867c-.014 1.543-.062 3.702-.221 5.107-.27 2.388.69 10.297.69 10.297l.332 7.197a6.671 6.671 0 0 1-.805 3.503c-.785 1.436-1.811 3.46-1.881 4.356a.806.806 0 0 0-.01.139Z" fill="#CC818C"/><path opacity=".1" d="M123.556 149.09c.073 1.282 3.843.541 3.843.541l2.537-4.925s2.119-1.628 1.059-3.056a2.139 2.139 0 0 1-.155-.244c-.034.747-.853 2.616-.853 2.616s-2.095 4.191-2.761 5.151c-.666.959-3.559-.18-3.668-.22a1.044 1.044 0 0 0-.002.137Z" fill="#571AFF"/><path d="M130.766 141.272s1.239-.288.869 2.94a2.08 2.08 0 0 1-.98 1.845c-.887.557-2.255 1.756-2.947 4.088a2.228 2.228 0 0 1-1.721 2.173c-1.118.262-2.513.491-3.319.266-1.503-.419-.837-1.453-.837-1.453l1.724-2.046s3.006 1.183 3.67.221c.664-.962 2.76-5.149 2.76-5.149s1.149-2.613.781-2.885Z" fill="#B07473"/><path opacity=".1" d="m140.852 115.363-.133 4.849c1.68-.163 2.883-.39 3.088-.71.445-.688 2.058-.978 3.431-1.097-.043-.907-.079-1.515-.079-1.515l-6.307-1.527Zm-15.403 3.719c.161-.329.397-.614.69-.833.664-.368.592 2.366.592 2.366s2.213.02 5.04-.016c-.032-1.022-.062-1.71-.062-1.71l-6.26-1.674s.012.776 0 1.867Z" fill="#571AFF"/><path d="M124.738 119.729s.74-2.012 1.408-2.37c.668-.358.592 2.364.592 2.364s16.261.149 17.074-1.109c.813-1.257 5.543-1.183 5.543-1.183s-.147-15.669-.517-21.58c-.371-5.911-.96-11.31-2.439-12.935-.956-1.052-2.316-4.457-3.157-6.726a90.16 90.16 0 0 1-.76-2.143l-15.521.885-.126 1.258-1.648 16.482s-.222 18.182-.888 22.321c-.666 4.139.439 4.736.439 4.736Z" fill="#4D26B9"/><path opacity=".1" d="M142.545 118.615c.805-1.256 5.543-1.184 5.543-1.184s-.147-15.669-.517-21.58c-.37-5.911-.959-11.31-2.438-12.935-.96-1.057-2.316-4.457-3.157-6.726a79.888 79.888 0 0 1-.736-2.075l1.207-.068s.304.903.762 2.143c.841 2.27 2.199 5.674 3.155 6.726 1.479 1.625 2.07 7.022 2.439 12.935.368 5.913.519 21.58.519 21.58s-4.73-.072-5.545 1.184c-.694 1.072-12.66 1.122-16.132 1.112 4.456-.01 14.273-.143 14.9-1.112Zm-17.665-1.256c.3-.167.449.296.523.857-.268.487-.502.992-.698 1.513 0 0-.428-.231-.603-1.408.245-.421.517-.817.778-.962Z" fill="#571AFF"/><path d="M129.533 36.133c-1.075 1.465.012 3.547-1.141 4.972-.38.47-.966.805-1.362 1.268-.735.857-.706 2.022-.346 3.028.36 1.006 1.006 1.923 1.464 2.905.202.425.351.901.149 1.324-.14.294-.432.517-.66.77-.74.827-.76 1.976-.362 2.95.399.974 1.159 1.81 1.91 2.636.295.324.67.682 1.163.672a1.61 1.61 0 0 0 .73-.24 7.444 7.444 0 0 0 3.388-9.716c-.624-1.494-1.664-2.927-1.674-4.506 0-1.254.644-2.451.759-3.698.138-1.517-.759-3.926-2.59-4.588.121.974-.883 1.47-1.428 2.223Z" fill="#4D26B9"/><path opacity=".1" d="M129.533 36.133c-1.075 1.465.012 3.547-1.141 4.972-.38.47-.966.805-1.362 1.268-.735.857-.706 2.022-.346 3.028.36 1.006 1.006 1.923 1.464 2.905.202.425.351.901.149 1.324-.14.294-.432.517-.66.77-.74.827-.76 1.976-.362 2.95.399.974 1.159 1.81 1.91 2.636.295.324.67.682 1.163.672a1.61 1.61 0 0 0 .73-.24 7.444 7.444 0 0 0 3.388-9.716c-.624-1.494-1.664-2.927-1.674-4.506 0-1.254.644-2.451.759-3.698.138-1.517-.759-3.926-2.59-4.588.121.974-.883 1.47-1.428 2.223Zm11.914 53.281c-2.151.113-4.175 1.038-6.059 2.085-1.883 1.046-3.706 2.23-5.732 2.973m10.456.012a8.863 8.863 0 0 0-5.583 2.717c-.524.553-.974 1.173-1.52 1.704a6.745 6.745 0 0 1-2.993 1.696m10.537-2.261a9.766 9.766 0 0 0-4.49 2.708c-.33.356-.63.736-.96 1.093-1.781 1.911-4.296 2.925-6.724 3.885" fill="#571AFF"/><path d="M140.369 44.85c.047 1.719.195 3.433.443 5.135.201 1.207.482 2.293.887 2.774 1.183 1.409-5.765 3.29-5.765 3.29l-4.102-3.18s3.251-2.993 1.736-5.912c-1.515-2.92 6.801-2.107 6.801-2.107Z" fill="#BE707B"/><path opacity=".1" d="M126.828 76.19h16.408c-.457-1.24-.761-2.143-.761-2.143l-15.52.885-.127 1.258Z" fill="#571AFF"/><path d="M125.773 75.895h17.543c-.493-1.765 0-3.396.702-4.652a10.269 10.269 0 0 1 1.837-2.382l.121-.11 6.124-1.357.33-.072s.051-11.137-3.893-12.666c-3.943-1.529-6.307-3.595-6.307-3.595l-5.419 1.674-3.992-2.012c-1.281 1.378-4.682.837-4.682.837-5.567.64-5.567 4.828-5.567 4.828s3.252 7.588 3.499 7.588c.248 0-.296 11.919-.296 11.919Z" fill="#F4ED0F"/><path opacity=".1" d="M131.83 68.816s-3.578-.793-4.795-2.18l4.795 2.18Zm18.037-4.156-4.148 3.4c.03.271.075.54.137.805l.12-.11 6.125-1.356-2.234-2.739Zm-11.234 10.052s.907.51 2.298 1.183h2.384c-.493-1.765 0-3.397.702-4.652l-4.203-1.36c1.43 1.33-1.181 4.829-1.181 4.829Z" fill="#571AFF"/><path d="m125.033 55.05-2.463 1.33-2.414 6.111s-2.513 6.7-2.267 8.475c0 0-.886 4.189.69 4.927l4.104 1.86a.383.383 0 0 0 .493-.528c-.585-1.109-1.229-2.843-.201-3.797l-1.183-2.462 4.275-6.998 1.429-2.415-2.463-6.502Z" fill="#F4ED0F"/><path opacity=".1" d="M130.512 67.416c.214.87.934 2.213 3.318 2.714l2.616 2.143 2.782 1.262 1.135.513.481-3.475-1.092-.603-1.274-.697s-2.873-5.205-7.422-3.018a1.004 1.004 0 0 0-.544 1.161Z" fill="#571AFF"/><path d="M130.661 67.12c.213.87.931 2.213 3.315 2.714l2.616 2.142 2.785 1.262 1.132.513.481-3.475-1.092-.603-1.264-.69s-2.875-5.206-7.424-3.008a1.007 1.007 0 0 0-.549 1.144Z" fill="#BE707B"/><path opacity=".1" d="M135.786 49.356A6.355 6.355 0 0 0 142.141 43a6.355 6.355 0 1 0-12.711 0 6.355 6.355 0 0 0 6.356 6.356Z" fill="#571AFF"/><path d="M135.786 49.212a6.355 6.355 0 0 0 6.355-6.356 6.355 6.355 0 1 0-12.711 0 6.356 6.356 0 0 0 6.356 6.356Z" fill="#BE707B"/><path opacity=".1" d="m139.724 56.435-1.912-3.714s2.797-1.131 3-2.44c.204-1.31 2.68 1.534 2.145 2.478-.535.944-3.233 3.676-3.233 3.676Z" fill="#571AFF"/><path d="m139.724 56.142-1.912-3.714s2.797-1.131 3-2.44c.204-1.31 2.68 1.536 2.145 2.478-.535.941-3.233 3.676-3.233 3.676Z" fill="#F4ED0F"/><path d="m124.082 65.736 10.561 14.198s-3.893 2.119-9.255-1.674l-2.316-2.76-6.611-11.144 7.621 1.38Z" fill="#F6F8FB"/><path d="m122.001 73.455.962-.026s5.875-5.702 7.318-2.817c1.442 2.885-3.66 5.581-3.66 5.581l-1.551.837-2.022.604-1.294-1.737.247-2.442Z" fill="#BE707B"/><path opacity=".1" d="M123.422 76.537c.089.328.173.69.024.994a.398.398 0 0 1-.175.19.448.448 0 0 1-.201.029 2.021 2.021 0 0 1-1.326-.656 6.05 6.05 0 0 1-.859-1.243c-.262-.457-.533-.962-.441-1.481.105-.566.604-.958 1.093-1.276.974-.644 1.006.107 1.219.936.213.829.443 1.67.666 2.507Z" fill="#571AFF"/><path d="M123.274 76.537c.087.328.173.69.024.994a.398.398 0 0 1-.175.19.45.45 0 0 1-.201.029 2.013 2.013 0 0 1-1.326-.656 5.991 5.991 0 0 1-.861-1.243c-.261-.457-.533-.962-.438-1.481.102-.566.603-.958 1.09-1.276.976-.644 1.006.107 1.221.936.216.829.441 1.67.666 2.507Z" fill="#F4ED0F"/><path opacity=".1" d="m126.07 63.968.491-.831-.428 1.543-.063-.712Zm13.313 9.269 1.133.513.48-3.475-1.092-.603c.754.865.094 2.465-.521 3.565Zm4.547-4.033s-3.658.224-5.211-.774l5.211.774Z" fill="#571AFF"/><path opacity=".1" d="M143.473 71.538a10.339 10.339 0 0 1 1.837-2.384 4.85 4.85 0 0 1 .542-.294l5.702-1.171.33-.073s.05-11.136-3.892-12.665a23.68 23.68 0 0 1-6.148-3.463l.432-.133s2.364 2.069 6.308 3.596c3.943 1.527 3.891 12.665 3.891 12.665h-.591l-5.835 1.117s-.252.243-.328.314a11.306 11.306 0 0 0-1.865 2.467 6.185 6.185 0 0 0-.489 4.675h-.604c-.487-1.764.016-3.396.71-4.651Zm-15.571-19.656c.095-.014.185-.028.284-.038.4.056.803.09 1.207.098-.498.014-.996-.006-1.491-.06Zm8.364 1.148-3.61-1.827c.072-.059.139-.123.201-.191l3.767 1.905-.358.113Z" fill="#571AFF"/><path d="m150.01 64.356 2.415 2.957.492 8.032s.64 4.088-4.04 3.103c-4.679-.986-10.096-4.033-10.096-4.033s2.616-3.498 1.183-4.828l6.702 2.169s1.133-.248.246-1.232c-.888-.984-1.045-2.76-1.045-2.76l4.143-3.408Z" fill="#F4ED0F"/><path opacity=".1" d="m151.102 72.84 1.329 1.527a1.922 1.922 0 0 1-1.329-1.527Zm-2.27-.246 2.07 2.66-1.034.247-1.036-2.907Zm-20.638-32.656c-.227-.558-.052-1.208.222-1.733.273-.525.65-1.022.855-1.587.304-.841.211-1.793.543-2.616.586-1.458 2.25-2.11 3.74-2.615.441-.147.91-.294 1.36-.185.604.142.996.69 1.489 1.058 2.024 1.509 5.316-.153 7.274 1.445.748.603 1.112 1.591 1.225 2.55.113.96 0 1.934-.012 2.902-.032 1.694.286 3.547 1.553 4.67.383.338.833.592 1.207.942.375.35.668.839.604 1.346a4.65 4.65 0 0 1-.201.684c-.252.883.125 1.81.583 2.615 1.368 2.368 3.781 4.32 6.515 4.374-.183 1.38-1.609 2.181-2.887 2.747-1.61.722-3.324 1.43-5.096 1.34-1.773-.09-3.622-1.226-3.932-2.972-.107-.604-.092-1.33-.603-1.644-.314-.191-.721-.143-1.059-.286-.489-.2-.73-.75-.891-1.255a11.278 11.278 0 0 1-.525-3.22c-.022-1.295.149-2.71-.586-3.776-.68-.988-1.887-1.489-2.672-2.396-.724-.841-1.511-1.855-2.698-2.012-1.642-.231-5.038 2-6.008-.376Z" fill="#571AFF"/><path d="M128.194 39.64c-.227-.556-.052-1.206.222-1.732.273-.525.65-1.022.855-1.587.304-.84.211-1.793.543-2.615.586-1.461 2.249-2.113 3.74-2.616.441-.147.91-.294 1.36-.185.604.143.996.69 1.489 1.058 2.024 1.51 5.316-.153 7.274 1.445.748.603 1.112 1.591 1.225 2.553.113.962 0 1.931-.012 2.9-.032 1.693.286 3.546 1.553 4.669.383.338.833.592 1.207.942.375.35.668.839.604 1.346-.05.233-.117.461-.201.684-.252.883.125 1.81.583 2.615 1.372 2.36 3.775 4.318 6.509 4.372-.183 1.38-1.61 2.181-2.887 2.749-1.61.72-3.324 1.428-5.097 1.338-1.772-.09-3.621-1.226-3.931-2.972-.107-.604-.092-1.33-.604-1.644-.313-.19-.72-.143-1.058-.285-.489-.202-.73-.75-.891-1.256a11.278 11.278 0 0 1-.525-3.22c-.022-1.295.149-2.71-.586-3.776-.68-.988-1.887-1.489-2.672-2.396-.724-.84-1.511-1.855-2.698-2.012-1.636-.23-5.032 2.006-6.002-.374Z" fill="#4D26B9"/><path opacity=".1" d="m132.707 55.977 3.644-2.957s-2.495-1.352-2.793-2.505c-.298-1.153-2.294.547-2.09 1.581.203 1.034 1.239 3.881 1.239 3.881Z" fill="#571AFF"/><path d="m132.851 55.53 3.644-2.956s-2.495-1.352-2.781-2.505c-.285-1.153-2.293.548-2.09 1.582.203 1.034 1.227 3.879 1.227 3.879Z" fill="#F4ED0F"/><path opacity=".1" d="M136.637 55.341a.29.29 0 1 0 0-.58.29.29 0 0 0 0 .58Zm0 1.609a.29.29 0 1 0 0-.58.29.29 0 0 0 0 .58Zm0 1.606a.29.29 0 1 0 0-.58.29.29 0 0 0 0 .58ZM129.667 35.533c.288-.79.226-1.678.495-2.474a2.719 2.719 0 0 0-.308.567c-.334.83-.239 1.783-.545 2.616l-.02.048a4.56 4.56 0 0 0 .378-.757Zm22.986 19.918c-1.609.72-3.323 1.429-5.096 1.338-1.773-.09-3.622-1.225-3.931-2.97-.107-.603-.093-1.331-.604-1.645-.314-.191-.72-.143-1.058-.286-.489-.201-.731-.75-.892-1.255a11.277 11.277 0 0 1-.525-3.22c-.022-1.293.151-2.708-.583-3.776-.682-.988-1.89-1.487-2.674-2.396-.725-.84-1.511-1.855-2.698-2.012-1.628-.222-5.03 2.012-5.992-.367a1.876 1.876 0 0 1 .062-1.374c-.07.119-.139.238-.201.358-.274.536-.447 1.177-.219 1.735.968 2.374 4.364.143 5.992.366 1.187.16 1.973 1.177 2.698 2.012.784.91 1.991 1.408 2.672 2.398.736 1.067.563 2.481.585 3.775.018 1.093.195 2.177.525 3.219.161.507.403 1.05.891 1.255.338.143.745.097 1.059.286.519.314.505 1.048.603 1.646.314 1.744 2.161 2.879 3.932 2.97 1.77.09 3.477-.616 5.096-1.338 1.167-.52 2.467-1.238 2.817-2.415-.559.765-1.549 1.292-2.459 1.696Z" fill="#571AFF"/><path d="M188.21 66.806c-4.26-2.45-5.869-3.054-5.877-3.054l-.089-.062a3.542 3.542 0 0 1-1.072-1.356 2.84 2.84 0 0 1 0-.264c.066-1.298.99-2.479 1.865-3.509l2.239-2.634c.255-.26.451-.571.578-.913.045-.184.065-.372.06-.561v-.23c-.012-.654-.03-1.31-.054-1.963-.02-.572-.167-1.292-.739-1.409-.297-.06-.692.046-.849-.201a.488.488 0 0 1-.038-.34.133.133 0 0 0 0 .028v-.032c.111-.441.181-.892.211-1.346a1.836 1.836 0 0 0-.092-.682c-.33-.948-1.471-1.338-2.479-1.517-1.008-.18-2.139-.332-2.771-1.12a8.176 8.176 0 0 0-.551-.76 2.171 2.171 0 0 0-1.03-.508 5.834 5.834 0 0 0-3.748.326c-.487.217-.976.51-1.511.478-.536-.032-1.03-.418-1.578-.51-.885-.152-1.732.498-2.169 1.269a3.106 3.106 0 0 0-.402 1.497v.088a2.187 2.187 0 0 0 .575 1.53c.383.402.95.667 1.109 1.188.064.212.048.441.107.656a.542.542 0 0 0 .024.079l-.028.038a6.635 6.635 0 0 0-1.409 4.093 6.792 6.792 0 0 0 4.773 6.438v.201c0 .805-.232 1.644-.926 2.254l-6.034 2.41s-3.638-.433-4.949 4.883a9.056 9.056 0 0 0-.226 2.696c.049.805-.062 2.213-1.006 4.038-1.491 2.921-1.151 9.627 1.9 10.291 2.879.628 4.006.367 4.124.336v.117c-.048 1.26-.505 12.112-2.165 13.424-.458.364-.374.604 0 .775 0 0 0 .07-.01.201-.05.805-.306 3.823-1.408 5.537-1.29 1.992-1.155 13.48-1.155 13.48l-.879 6.773s.541 4.183 0 4.913c-.485.65-1.129 16.124-1.264 19.48h-.056a1.63 1.63 0 0 0-1.304.805c-.712 1.157-3.207 3.296-3.207 3.296-.541.768-2.543 1.504-3.601 1.851-.14.045-.275.105-.403.177-.396.215-.714.55-.909.957a1.025 1.025 0 0 0-.097.805c.27.662 5.897 1.129 7.322.463 1.118-.521 5.553-1.207 7.394-1.477a1.517 1.517 0 0 0 1.316-1.316.878.878 0 0 0-.169-.658c-.352-.436-.531-1.629-.604-2.414.15-.061.289-.144.415-.246a17.665 17.665 0 0 1 1.006-7.104c1.356-3.585 1.762-10.225 1.424-14.541 0 0 4.135-17.794 7.39-19.454.05.065 1.63 2.091 1.831 8.366.201 6.374 2.507 10.557 2.507 10.557s-1.018 10.823 0 14.873l-1.33 6.388a2.332 2.332 0 0 1-.161-.147s.04.177.095.461l-.029.137.059.012c.151.805.374 2.191.281 3.018-.052.465-.183 1.102-.271 1.728-.141.984-.179 1.938.338 2.147.849.342 5.835.805 6.68-.29a1.565 1.565 0 0 0 .245-1.64 1.674 1.674 0 0 0-.245-.418s-1.324-2.163-.95-3.688a1.12 1.12 0 0 0-.159-.875c.058-.749.36-4.213 1.141-7.155.849-3.195 2.638-10.201 1.322-14.806a6.99 6.99 0 0 0-.169-.531 19.892 19.892 0 0 1-.747-7.769 15.846 15.846 0 0 1 0-6.772c.815-3.718 1.385-7.37 1.385-7.37s.448-4.913.056-7.925c0-.065-.018-.129-.026-.201l.213-.049s-1.153-5.112-1.559-8.366a615.32 615.32 0 0 0-.358-2.778 7.079 7.079 0 0 0 1.104-.276c3.66-1.261 4.813-12.675 4.813-12.675V74.83s1.231-5.567-3.04-8.024Zm-27.275 88.174a4.071 4.071 0 0 1-.179-.095l.179.095Z" fill="url(#d)"/><path d="M186.003 132.705c1.588 4.566-.265 11.976-1.127 15.292-.861 3.315-1.124 7.279-1.124 7.279-3.374.529-5.823-.133-5.823-.133l1.39-6.814c-.994-4.037 0-14.823 0-14.823s-2.249-4.169-2.448-10.52c-.201-6.252-1.737-8.274-1.785-8.336-3.175 1.654-7.211 19.387-7.211 19.387.33 4.3-.068 10.917-1.39 14.487a17.91 17.91 0 0 0-.992 7.078c-.463.402-1.107.459-1.811.346-1.889-.306-4.155-1.934-4.155-1.934s.727-19.315 1.258-20.047c.531-.732 0-4.897 0-4.897l.859-6.748s-.133-11.449 1.125-13.433c1.086-1.714 1.336-4.728 1.384-5.518v-.202l1.915-2.293s18.527-1.39 19.919 0c.34.34.551 1.116.676 2.092.382 3.002-.056 7.897-.056 7.897s-.556 3.64-1.35 7.344a16.099 16.099 0 0 0 0 6.75 20.201 20.201 0 0 0 .746 7.746Z" fill="#571AFF"/><path d="M184.845 161.717c-.827 1.093-5.69.63-6.519.29-.505-.201-.467-1.161-.33-2.141.087-.622.213-1.257.266-1.72.131-1.191-.403-3.608-.403-3.608s1.091 1.159 1.354 0c.117-.507.524-.766.946-.897a2.464 2.464 0 0 1 1.718.107c.859.374 2.292 1.169 2.036 2.243-.364 1.519.926 3.676.926 3.676.1.126.181.265.241.414a1.581 1.581 0 0 1-.235 1.636Z" fill="#A27772"/><path opacity=".1" d="M184.844 161.718c-.827 1.093-5.69.63-6.519.29-.505-.201-.467-1.161-.33-2.141.523.246 1.409.449 2.891.312a8.036 8.036 0 0 1 1.041-.032 24.12 24.12 0 0 0 3.158-.065 1.585 1.585 0 0 1-.241 1.636Zm-16.971-27.69c.33 4.3-.069 10.917-1.391 14.487a17.912 17.912 0 0 0-.992 7.078c-.462.402-1.106.459-1.81.346.402-2.791 2.1-14.814 3.189-24.315 1.241-10.818 7.042-18.261 7.042-18.261l1.157 1.274c-3.159 1.658-7.195 19.391-7.195 19.391Z" fill="#571AFF"/><path d="m182.856 64.486-.805 3.97-3.958 6.65-4.879-2.085s-6.639-6.947-2.464-7.94a3.68 3.68 0 0 0 1.384-.615c.819-.618 1.076-1.515 1.08-2.394a7.331 7.331 0 0 0-.672-2.845l8.535-2.68a13.76 13.76 0 0 0-.604 3.457c-.066 2.325.805 3.47 1.507 4.024.26.208.557.363.876.458Z" fill="#FBBEBE"/><path opacity=".1" d="M181.07 56.547a13.67 13.67 0 0 0-.604 3.457 6.75 6.75 0 0 1-7.245 2.068 7.334 7.334 0 0 0-.678-2.845l8.527-2.68Z" fill="#571AFF"/><path d="M182.051 55.455a6.749 6.749 0 0 1-11.522 4.776 6.754 6.754 0 0 1-1.465-7.357 6.747 6.747 0 0 1 6.237-4.167 6.717 6.717 0 0 1 6.75 6.748Z" fill="#FBBEBE"/><path opacity=".1" d="m182.856 64.488-.805 3.97-3.958 6.65-4.879-2.085s-6.639-6.947-2.464-7.94a3.68 3.68 0 0 0 1.384-.615c-.753 2.068 2.354 6.372 2.354 6.372.362.533 1.191.201 1.191.201 2.002-.303 5.686-6.06 6.287-7.018.263.212.566.37.89.465Zm3.822 38.484c-1.175.268-7.675 1.706-10.14 1.346-2.712-.402-7.986-.66-7.986-.66s-3.358.181-4.392-.291v-.202l1.916-2.293s18.526-1.39 19.918 0c.348.348.56 1.124.684 2.1Z" fill="#571AFF"/><path d="M174.489 71.035s-3.491-4.828-2.175-6.72l-5.897 2.415s-3.55-.43-4.829 4.867a9.204 9.204 0 0 0-.22 2.688c.049.805-.06 2.213-.971 4.024-1.455 2.911-1.125 9.595 1.853 10.261 2.977.666 4.034.33 4.034.33s-.403 12.108-2.117 13.498c-1.714 1.391 4.386 1.059 4.386 1.059s5.274.265 7.988.662c2.714.396 10.321-1.391 10.321-1.391s-1.124-5.094-1.523-8.335a1296.706 1296.706 0 0 0-1.326-10.147l6.749-9.142s1.191-5.525-2.978-7.974c-4.169-2.448-5.736-3.048-5.736-3.048s-4.189 6.82-6.372 7.15c.004 0-.825.335-1.187-.197Z" fill="#F4ED0F"/><path opacity=".1" d="M166.746 72.953s-.065 2.185.332 3.044c.396.86 1.853 5.634 1.853 5.634h-3.31s1.787-1.92 1.656-2.847c-.131-.928-.531-5.83-.531-5.83Z" fill="#571AFF"/><path d="M176.541 89.43s-7.308-1.787-7.988-3.308c-.68-1.521-2.557-4.928-2.557-4.928l.771-1.038 3.553 2.789s4.225 3.374 6.221 3.706c1.996.332 0 2.779 0 2.779Z" fill="#FBBEBE"/><path opacity=".05" d="M176.541 89.43s-7.308-1.787-7.988-3.308c-.68-1.521-2.557-4.928-2.557-4.928l.771-1.038 3.553 2.789s4.225 3.374 6.221 3.706c1.996.332 0 2.779 0 2.779Z" fill="#571AFF"/><path d="M182.857 80.83v3.963h-.636c-3.148 0-6.245.801-8.997 2.33l-1.196.662-.32.179-2.052-4.628 1.92-1.72h.098c.469.046 2.499.215 3.36-.075.817-.277 1.831-1.156 4.238-.543 1.185.304 2.199 1.632 3.348 1.218l.237-1.387Z" fill="#FBBEBE"/><path opacity=".1" d="m189.244 73.61 1.322 1.49v3.607s-1.125 11.38-4.696 12.638c-3.572 1.257-9.952-.729-9.952-.729s-1.647-4.366-.877-4.627c.771-.262 6.811-1.86 6.811-1.86s-.085-6.675 1.237-8.661c0 0-.859-6.22 2.119-6.352 2.978-.133 4.036 4.495 4.036 4.495Z" fill="#571AFF"/><path d="m189.446 73.61 1.324 1.49v3.607s-1.125 11.38-4.698 12.638c-3.574 1.257-9.952-.729-9.952-.729s-1.647-4.366-.875-4.627c.773-.262 6.811-1.86 6.811-1.86s-.087-6.675 1.237-8.661c0 0-.861-6.22 2.117-6.352 2.978-.133 4.036 4.495 4.036 4.495Z" fill="#F4ED0F"/><path opacity=".1" d="M180.199 58.32a2.66 2.66 0 0 0-.151-1.289c-.187-.402-.624-.706-1.05-.603-.566.132-.805.869-1.364 1.046-.469.149-.98-.183-1.208-.62-.227-.437-.229-.95-.229-1.44v-1.658c0-.604-.02-1.252-.39-1.725-.461-.587-1.545-.845-2.27-.82a1.927 1.927 0 0 0-1.296.52c-.386.33-.835.572-1.362.486a1.17 1.17 0 0 1-.949-.82v-.022a6.742 6.742 0 0 1 4.729-2.659 6.752 6.752 0 0 1 6.803 3.914 6.752 6.752 0 0 1-1.5 7.703 18.37 18.37 0 0 0 .237-2.012Z" fill="#571AFF"/><path d="M170.879 52.018a1.18 1.18 0 0 1-.952-.822c-.054-.214-.04-.441-.102-.652-.155-.521-.711-.791-1.083-1.188-.744-.79-.696-2.09-.169-3.042.427-.766 1.252-1.408 2.117-1.263.535.092 1.006.473 1.541.509.535.036 1.006-.26 1.475-.477a5.557 5.557 0 0 1 3.666-.326c.375.076.723.251 1.006.51.192.241.371.493.537.754.615.784 1.72.94 2.704 1.116.984.177 2.096.568 2.414 1.513.216.628 0 1.308-.116 1.96a.587.587 0 0 0 .026.402c.155.254.539.147.829.202.557.118.7.837.722 1.408.023.652.04 1.304.052 1.958.016.243-.003.487-.058.724-.121.34-.312.65-.561.911l-2.185 2.626c-.97 1.163-1.998 2.52-1.811 4.024-.459.201-1.006-.191-1.155-.672-.149-.48-.03-1.006.072-1.49a18.3 18.3 0 0 0 .35-2.586 2.652 2.652 0 0 0-.15-1.288c-.188-.402-.624-.706-1.051-.604-.567.133-.805.87-1.364 1.047-.469.149-.98-.183-1.207-.62-.227-.437-.229-.948-.229-1.439v-1.66c0-.603-.021-1.25-.391-1.724-.461-.587-1.545-.845-2.269-.82a1.924 1.924 0 0 0-1.294.52c-.388.332-.837.576-1.364.49Z" fill="#7C5C5C"/><path opacity=".1" d="m172.402 72.79 2.073 8.512s1.633-.01-2.073-8.513Zm7.083-1.423s-2.712 4.443-1.654 9.038l.505.036s-.901-2.126 1.149-9.074Zm1.71 25.143s3.332-1.103 3.574 1.454c.008 0-.62-1.752-3.574-1.454Zm-9.62-14.69s-.662 4.628.529 6.485c0 0-2.414.992-5.823.795l-.402-7.28h5.696Z" fill="#571AFF"/><path opacity=".1" d="m172.028 87.786-.32.179-2.052-4.628 1.92-1.72h.098c-.03.23-.565 4.207.354 6.169Z" fill="#571AFF"/><path d="M171.574 81.625s-.662 4.628.529 6.483c0 0-2.414.994-5.822.794l-2.316-7.277h7.609Z" fill="#F4ED0F"/><path d="M165.854 158.902c-.039.33-.186.638-.418.876-.233.237-.538.39-.868.436-1.796.267-6.124.951-7.217 1.472-1.39.662-6.881.202-7.146-.462a1.043 1.043 0 0 1 .094-.805c.189-.403.499-.737.888-.954a2.36 2.36 0 0 1 .402-.177c1.034-.344 2.988-1.076 3.515-1.845 0 0 2.436-2.131 3.131-3.282a1.583 1.583 0 0 1 1.271-.792c.58-.026 1.225.265 1.491 1.535 0 0 3.173 1.811 4.024.223 0 0 .133 2.439.66 3.107a.886.886 0 0 1 .173.668Z" fill="#A27772"/><path opacity=".1" d="M165.854 158.902a1.497 1.497 0 0 1-1.286 1.312c-1.796.268-6.124.952-7.217 1.473-1.39.662-6.881.201-7.146-.463a1.043 1.043 0 0 1 .094-.805c.189-.403.499-.736.888-.953.895.603 2.883 1.175 7.255.493 4.171-.652 6.237-1.29 7.243-1.725a.903.903 0 0 1 .169.668ZM183.909 50.703v-.032c.095-.495.238-1.006.201-1.503-.042.406-.109.81-.201 1.207a.726.726 0 0 0 0 .328Zm-3.862 6.193c.106.238.161.495.163.756.03-.36-.026-.72-.163-1.054-.185-.403-.621-.706-1.048-.604-.567.133-.805.87-1.366 1.046-.467.15-.978-.183-1.207-.62-.229-.436-.229-.949-.229-1.44v-1.658c0-.603-.021-1.251-.391-1.724-.463-.59-1.545-.845-2.269-.823a1.928 1.928 0 0 0-1.296.523c-.388.33-.835.572-1.364.485a1.176 1.176 0 0 1-.95-.82c-.054-.214-.04-.443-.102-.655-.155-.519-.711-.79-1.083-1.185a2.166 2.166 0 0 1-.557-1.408 2.26 2.26 0 0 0 .557 1.696c.372.402.928.666 1.083 1.185.062.201.048.44.102.654a1.181 1.181 0 0 0 .95.82c.529.087.976-.154 1.364-.484.351-.33.814-.517 1.296-.523.724-.022 1.81.233 2.269.823.37.472.389 1.122.391 1.724v1.658c0 .49 0 1.006.229 1.438.229.433.734.771 1.207.622.555-.177.805-.913 1.366-1.046.427-.093.863.225 1.048.614Zm5.439-1.823c-.121.34-.313.65-.564.91l-2.185 2.625c-.919 1.105-1.891 2.384-1.81 3.795.066-1.294.967-2.471 1.81-3.497l2.185-2.626c.251-.26.443-.57.564-.91.054-.237.074-.482.058-.725a1.936 1.936 0 0 1-.058.428Zm-5.699 6.891a1.58 1.58 0 0 1-.066-.355c-.018.22.004.44.066.652.149.48.694.875 1.155.67a2.81 2.81 0 0 1-.024-.29c-.459.184-.99-.207-1.131-.677ZM157.793 154.766s.692 1.207 3.199.144l-3.199-.144Zm21.187.293s2.161 2.545 4.886.835l-4.886-.835Zm6.293-30.094s-1.527.954-1.576 1.499c-.048.545.789-.403.789-.403l.787-1.096Zm.601 7.312c-.531.442-1.191.7-1.881.735-1.143.05-1.046 1.539-.3 1.092.747-.446 2.181-1.827 2.181-1.827Zm.29.957s-.733 3.6-1.328 2.906l1.328-2.906Z" fill="#571AFF"/><path d="M44.677 160.211s4.597 1.262 6.81-.416c2.214-1.678 3.173-1.139 3.173-1.139s5.278-.292 5.712-1.539c.435-1.247-2.024-5.778-2.024-5.778-.175-.403-.43-.914-.545-.914l.024-1.911.765-7.998c1.764-4.525.032-10.372.032-10.372l-.316-1.45a3.672 3.672 0 0 1 .3-2.415l3.205-6.438c.171-.426.373-.839.604-1.236a32.036 32.036 0 0 1 1.118-1.859c.389-.603.86-1.287 1.429-2.076 1.418-1.966 2.165-4.426 2.55-6.237l.172.567h.038l.046.01h.077l.082.014h.03l.986 12.547c.06 4.893 1.858 7.601 1.858 7.601l-.248 10.803c.338 2.601-.402 6.07-.742 7.454l-.777 1.753a2.105 2.105 0 0 0-1.145 1.593c-.153 1.294-1.515 4.083-1.515 4.083-.527.668-1.672 2.472-1.672 2.472s-.539 1.743-.205 2.395c.334.651 3.127.585 3.127.585 3.189.706 5.633-1.006 5.478-2.185-.155-1.179.497-1.479.497-1.479 1.268-.402 1.145-1.261 1.145-1.261a7.896 7.896 0 0 0-.96-5.139l-.2.465a7.08 7.08 0 0 1 .381-2.743l-.116.081-.037.022h-.012c.202-1.764 2.055-5.03 2.055-5.03 3.404-5.971 2.167-14.064 2.167-14.064l-.528-2.523-.03-.951a31.77 31.77 0 0 1 .513-6.781c.183-.99.373-2.185.517-3.503.306-2.784 1.292-5.657 1.747-6.875l.135-.024h.016c.185-.032.372-.064.561-.1h.036s.109-.588.201-1.588c.055-.638.099-1.447.099-2.376a26.731 26.731 0 0 0-1.27-8.271l.103-.147s.244-.33.688-.902a103.347 103.347 0 0 1 3.656-4.394c2.807-3.2 1.982-6.438 1.982-6.438s-2.032-7.447-2.938-11.917c-.517-2.547-1.487-4.28-2.229-5.302.167-.705.262-1.425.282-2.149.06-1.324.014-2.704-.582-3.893-.595-1.189-1.863-2.129-3.187-1.97a1.22 1.22 0 0 1-.571 0 .869.869 0 0 1-.376-.328c-.775-1.068-.825-2.504-.584-3.8.242-1.296.736-2.535.958-3.835.221-1.3.12-2.742-.706-3.772-.972-1.208-2.666-1.548-3.93-2.455-.887-.638-1.553-1.553-2.489-2.119-.935-.565-1.81-.35-2.826-.137-1.709.36-3.332.526-4.948 1.26a13.179 13.179 0 0 0-4.312 3.137 4.093 4.093 0 0 0-.961 1.517c-.403 1.33.384 2.746.219 4.122-.117.976-.692 1.825-1.149 2.696-.457.872-.805 1.906-.447 2.817.564 1.425 2.4 1.726 3.737 2.485.178.087.33.22.442.384.33.576-.344 1.173-.768 1.684a2.536 2.536 0 0 0-.503 1.022 3.646 3.646 0 0 0-2.187 2.64c-.453 2.026.243 4.583.857 6.273-.67 3.765.201 5.25.843 5.82a3.23 3.23 0 0 1 1.119 2.2v.07a26.038 26.038 0 0 0 .154 1.644c-.525.972-1.525 3.455-2.088 7.632a22.916 22.916 0 0 1-.51 2.658 14.534 14.534 0 0 0-.426 4.752l.101 1.354a.427.427 0 0 1-.274-.09l.706 1.293v2.183c0 .985-.182 1.961-.535 2.88-.05.132-.104.265-.163.402a2.34 2.34 0 0 0-.237 1.185c-1.52 2.328-5.002 15.374-5.002 15.374-1.89 4.277.155 7.042.155 7.042s.99 11.909 1.175 12.524c.185.616.596 7.875.596 7.875v.578a1.373 1.373 0 0 0-.344-.099c-1.656-.093-2.105 2.523-2.105 2.523l-3.388 3.235s-1.547-.261-3.823 1.447c-2.276 1.708 1.47 3.265 1.47 3.265Zm33.831-68.828-.01-.036-.092.054-.038.023-.018.011-1.562-5.51a9.15 9.15 0 0 1-.114-4.533l1.207-5.288v-1.271l3.837 10.225c.245 1.378-2.035 4.716-3.21 6.325Z" fill="url(#e)"/><path d="M80.195 108.016s-1.55 3.768-1.943 7.384a47.701 47.701 0 0 1-.51 3.46 31.633 31.633 0 0 0-.494 6.694l.03.94.503 2.489s1.207 7.993-2.127 13.882c0 0-1.976 3.527-2.036 5.197l-1.338.517-2.704-.758s1.306-4.682.881-7.964l.244-10.663s-1.757-2.668-1.817-7.497l-1.032-13.251 12.343-.43Zm-12.345-1.887s-.332 5.167-2.887 8.728-3.099 5.106-3.099 5.106l-3.146 6.362a3.644 3.644 0 0 0-.296 2.38l.31 1.433s1.702 5.774-.03 10.243l-.822 8.632h-4.8s-.402-7.173-.578-7.781c-.175-.607-1.154-12.37-1.154-12.37s-2.012-2.736-.153-6.959c0 0 4.195-15.804 5.317-15.531 1.123.274 11.338-.243 11.338-.243Z" fill="#FDC2CC"/><path opacity=".1" d="m58.246 130.148-.308-1.432a3.624 3.624 0 0 1 .293-2.391l3.147-6.368s.545-1.549 3.099-5.106c2.452-3.42 2.857-8.322 2.885-8.698l.489-.024s-.332 5.167-2.887 8.728c-2.556 3.561-3.099 5.106-3.099 5.106l-3.147 6.362a3.644 3.644 0 0 0-.295 2.38l.31 1.433s1.702 5.774-.03 10.243l-.822 8.632h-.486l.82-8.632c1.733-4.469.03-10.233.03-10.233Zm14.891 17.92c.06-1.67 2.036-5.197 2.036-5.197 3.344-5.895 2.127-13.882 2.127-13.882l-.515-2.491-.03-.94a31.626 31.626 0 0 1 .494-6.694c.18-.978.365-2.157.507-3.46.38-3.481 1.831-7.103 1.938-7.368l.499-.02s-1.55 3.768-1.944 7.384a47.701 47.701 0 0 1-.509 3.46 31.633 31.633 0 0 0-.495 6.694l.03.94.504 2.489s1.207 7.993-2.127 13.882c0 0-1.976 3.527-2.036 5.197l-1.338.517-.282-.078 1.14-.433Z" fill="#571AFF"/><path d="M71.59 148.009a2.317 2.317 0 0 0 2.213-.273 7.14 7.14 0 0 0-.18 4.011c.546 2.189-5.107-1.762-5.107-1.762l1.207-2.758s.469.873 1.867.782Z" fill="#D39999"/><path opacity=".1" d="M72.01 148.13a2.26 2.26 0 0 0 1.797-.402 7.143 7.143 0 0 0-.181 4.012c.547 2.189-5.107-1.763-5.107-1.763l1.208-2.758s.35.672 1.378.776c.312.037.61.079.905.135Z" fill="#571AFF"/><path d="M58.762 96.876h2.362V83.474l-1.773-.318-.59 13.72Z" fill="#FDC2CC"/><path opacity=".05" d="M58.762 96.876h2.362V83.474l-1.773-.318-.59 13.72Z" fill="#571AFF"/><path d="M70.249 149.041s1.489-.092 2.157 1.246l.82.637.403-.941a7.847 7.847 0 0 1 .93 5.076s.12.849-1.125 1.245c0 0-.638.304-.487 1.459.15 1.155-2.247 2.857-5.378 2.157 0 0-2.736.062-3.07-.577-.334-.64.213-2.34.213-2.34s1.125-1.783 1.64-2.441c0 0 1.338-2.756 1.49-4.024.154-1.267 1.616-2.197 2.407-1.497Z" fill="#7E5659"/><path d="m57.925 150.168.024-1.89s-2.718.783-4.92-.102c0 0 .186 1.899-.12 2.159-.306.259 1.018 2.704 1.018 2.704l1.479 1.549 2.543-.926.69-2.172s-.533-1.322-.714-1.322Z" fill="#D39999"/><path opacity=".1" d="m57.925 150.168.024-1.89s-2.718.783-4.92-.102c0 0 .186 1.899-.12 2.159-.306.259 1.018 2.704 1.018 2.704l1.479 1.549 2.543-.926.69-2.172s-.533-1.322-.714-1.322Z" fill="#571AFF"/><path d="M52.742 149.483s1.445.167 1.262 2.012c-.183 1.845.076 0 .076 0s1.535.622 2.083 1.489c.547.867 1.535-.775 1.61-1.246.074-.47.69-.666.69-.666s2.414 4.477 1.987 5.708c-.426 1.232-5.61 1.515-5.61 1.515s-.943-.531-3.116 1.125c-2.173 1.656-6.686.403-6.686.403s-3.678-1.536-1.442-3.22c2.235-1.684 3.752-1.428 3.752-1.428l3.328-3.207s.44-2.578 2.066-2.485Z" fill="#7E5659"/><path d="M69.997 43.65c.92.558 1.573 1.463 2.444 2.093 1.24.895 2.903 1.23 3.857 2.425.805 1.018.91 2.44.692 3.724-.217 1.283-.704 2.509-.94 3.788-.235 1.28-.186 2.699.574 3.753a.851.851 0 0 0 .368.324c.185.044.377.044.562 0 1.3-.157 2.547.772 3.13 1.945.584 1.173.63 2.537.57 3.845-.05 1.073-.171 2.167-.642 3.133-.805 1.642-2.479 2.656-4.13 3.432-1.074.505-2.175.95-3.298 1.332-.773.262-1.588.497-2.39.36-1.375-.237-2.349-1.486-3.652-1.975-1.069-.403-2.254-.258-3.39-.157-.97.084-2.079.082-2.747-.626-.857-.91-.47-2.376-.032-3.547a2.525 2.525 0 0 1-1.787-4.129c.415-.505 1.077-1.094.753-1.664a1.103 1.103 0 0 0-.435-.378c-1.31-.748-3.114-1.048-3.666-2.453-.354-.903-.012-1.925.437-2.784.449-.86 1.006-1.7 1.129-2.662.16-1.36-.604-2.758-.216-4.07a4.08 4.08 0 0 1 .944-1.501 12.95 12.95 0 0 1 4.225-3.097c1.587-.726 3.179-.889 4.857-1.243 1.006-.213 1.839-.439 2.783.133Z" fill="#865A61"/><path d="M61.122 63.905s-3.85-.202-4.578 3.08c-.728 3.282 1.58 7.982 1.58 7.982l2.998-11.062Z" fill="#FDC2CC"/><path opacity=".05" d="M61.122 63.905s-3.85-.202-4.578 3.08c-.728 3.282 1.58 7.982 1.58 7.982l2.998-11.062Z" fill="#571AFF"/><path d="m58.664 73.67 1.459 1.155 6.806.304 4.25-2.918 4.321-7.416c-2.641-.674-3.71-2.499-4.108-4.205a9.209 9.209 0 0 1-.085-3.513s-6.929-3.587-6.078 2.012a7.59 7.59 0 0 1 .065 2.08c-.403 3.28-3.586 2.662-3.586 2.662l-1.221 1.883-1.398 4.628-.425 3.328Z" fill="#FDC2CC"/><path opacity=".1" d="M65.237 59.082c.116.688.138 1.388.064 2.08a6.142 6.142 0 0 0 6.098-.57 9.209 9.209 0 0 1-.084-3.514s-6.93-3.587-6.078 2.004Z" fill="#571AFF"/><path d="M67.853 61.472a6.139 6.139 0 1 0 0-12.277 6.139 6.139 0 0 0 0 12.277Z" fill="#FDC2CC"/><path d="M63.51 72.5c.15 0 .297.021.443.035.805.08 4.167.262 6.083-2.026 2.142-2.559 4.995-5.72 5.112-5.849l2.903.878s-2.297-.817-3.822 3.456a4.426 4.426 0 0 0 1.495 5.093 4.598 4.598 0 0 0 1.899.804.01.01 0 0 1 0 .01v1.876l-1.187 5.23a9.068 9.068 0 0 0 .112 4.477l1.811 6.4c-.273.19-11.508 7.831-19.013 2.554.028-.23.956-7.74.312-11.416a25.362 25.362 0 0 1-.336-2.841v-.07a3.203 3.203 0 0 0-1.1-2.174c-.677-.603-1.592-2.213-.687-6.466.229-1.053.566-2.08 1.006-3.064l2.517-5.688 2.32.046v.016c-.201.25-2.891 3.61-3.183 5.774-.286 2.059-.638 2.69 3.316 2.944Z" fill="#F4ED0F"/><path d="M80.005 66.539s2.27 1.945 3.161 6.362c.892 4.416 2.877 11.752 2.877 11.752s.805 3.2-1.945 6.362c-2.75 3.16-4.58 5.633-4.58 5.633l-1.81 2.668a2.275 2.275 0 0 1-1.304.922c-.825.217-2.093.374-3.191-.228a1.857 1.857 0 0 1-.805-2.348l.403-.931s-3.729 2.35-4.053 1.052c-.324-1.298 4.336-2.593 4.336-2.593s3.85-.648 4.628-2.471c0 0 4.132-5.31 3.809-7.133L77.538 74.89s-4.992-.66-3.29-6.268c1.702-5.607 5.756-2.082 5.756-2.082Z" fill="#FDC2CC"/><path d="M56.14 106.898s9.118 1.823 11.267 1.579l.231.771s3.46.775 11.285-.467c.512-.08 1.042-.171 1.592-.271l.183-.033s.107-.579.191-1.567c.187-2.243.254-6.587-1.326-11.034l-1.316-4.052s-8.132 4.875-13.516 4.427c-.48-.04-.958-.079-1.439-.095-1.104-.042-2.816 0-3.93-.891l-2.333.402v6.64c0 .971-.18 1.934-.527 2.841-.05.132-.103.263-.161.402a2.113 2.113 0 0 0-.201 1.348Z" fill="#571AFF"/><path opacity=".1" d="M67.633 107.182v2.066s3.984.891 13.06-.77c0 0 .106-.58.19-1.568-2.784.447-10.464 1.521-13.25.272Z" fill="#571AFF"/><path opacity=".1" d="M56.139 106.899s9.118 1.823 11.267 1.579l.231.771v-2.067c-1.038.431-8.45-1.356-11.136-2.026-.05.133-.103.264-.161.403a2.113 2.113 0 0 0-.201 1.34Z" fill="#571AFF"/><path d="m78.242 104.597.676 4.193a71.248 71.248 0 0 0 1.592-.272c-.212-1.225-.672-4.024-.546-4.489l-.85-.728-.872 1.296Z" fill="#571AFF"/><path opacity=".1" d="m78.34 104.507.676 4.195a85.124 85.124 0 0 0 1.591-.272c-.21-1.225-.672-4.024-.545-4.489l-.851-.73-.871 1.296Z" fill="#571AFF"/><path opacity=".05" d="M64.24 96.251c-.479-.04-.957-.078-1.438-.094-1.075-.04-2.715 0-3.833-.823l.39-.068c1.119.887 2.817.849 3.93.89.48.017.957.055 1.438.095.157.015.318.023.48.027-.322.008-.645 0-.967-.027Zm14.191 12.532c.511-.08 1.041-.17 1.591-.269l.185-.034s.107-.58.19-1.568c.189-2.243.255-6.587-1.326-11.034l-1.24-3.822c.264-.15.403-.236.403-.236l1.316 4.053c1.579 4.446 1.513 8.79 1.326 11.033-.085.988-.192 1.568-.192 1.568l-.183.034c-.548.099-1.079.189-1.591.269-3.656.58-6.356.721-8.2.705a51.752 51.752 0 0 0 7.721-.699Zm-11.517-.303v.023h-.262c.1-.007.187-.014.262-.023Z" fill="#571AFF"/><path d="M79.375 105.377c.19 0 .344-.317.344-.708 0-.391-.154-.708-.344-.708-.19 0-.344.317-.344.708 0 .391.154.708.344.708Z" fill="#D39999"/><path d="M57.419 90.328c.555-4.125 1.535-6.575 2.052-7.535.02.13.073.555.097.686.104.604.012 1.364.044 2.13l-.515 9.328.69 2.918c.648 2.31-1.752.485-1.752.485-.497 1.094-1.409.973-1.409.973l-.125-1.674a14.462 14.462 0 0 1 .419-4.694 22.32 22.32 0 0 0 .499-2.617Z" fill="#FDC2CC"/><path opacity=".05" d="M57.419 90.328c.555-4.125 1.535-6.575 2.052-7.535.02.13.073.555.097.686.104.604.012 1.364.044 2.13l-.515 9.328.69 2.918c.648 2.31-1.752.485-1.752.485-.497 1.094-1.409.973-1.409.973l-.125-1.674a14.462 14.462 0 0 1 .419-4.694 22.32 22.32 0 0 0 .499-2.617Z" fill="#571AFF"/><path d="M80.51 95.36c-.436.565-.675.889-.675.889l-1.81 2.665a2.261 2.261 0 0 1-1.305.922c-.825.217-2.092.376-3.19-.227a1.855 1.855 0 0 1-.805-2.346l.402-.934s-3.728 2.35-4.052 1.054c-.324-1.295 4.336-2.593 4.336-2.593s3.849-.648 4.627-2.473c0 0 .336-.43.805-1.09" fill="#FDC2CC"/><path d="M78.245 99.829s-4.408-.43-5.804-2.95l-.64 2.082s4.627 3.195 5.684 2.781l.76-1.913Z" fill="#571AFF"/><path opacity=".1" d="M78.087 99.807s-4.406-.428-5.805-2.951l-.638 2.076s4.628 3.195 5.682 2.78l.76-1.905Z" fill="#571AFF"/><path d="M58.179 98.652s-1.543.548-1.847.244l.694 1.277 1.312-1.006-.159-.515Z" fill="#571AFF"/><path opacity=".1" d="M58.179 98.652s-1.543.548-1.847.244l.694 1.277 1.312-1.006-.159-.515Zm9.455 8.53v-2.666l-.634 2.73.634-.064Zm6.253-55.089c-.373.523-1.018.79-1.654.872-.636.082-1.28.012-1.922 0-1.006-.017-2.076.138-2.899.73-.525.376-.92.905-1.33 1.408-1.243 1.52-2.97 2.942-4.93 2.783a1.277 1.277 0 0 1-.915-.386 1.468 1.468 0 0 1-.233-.833 19.04 19.04 0 0 1 .119-3.755c.078-.77.27-1.524.567-2.24.35-.715.81-1.373 1.364-1.947a8.345 8.345 0 0 1 2.38-1.907 4.27 4.27 0 0 1 2.978-.384c1.173.32 2.087 1.237 3.205 1.71 1.278.537 4.67 1.972 3.27 3.95Z" fill="#571AFF"/><path d="M73.887 51.85c-.373.522-1.018.788-1.654.87-.636.083-1.28.013-1.922 0-1.006-.018-2.076.137-2.899.729-.525.376-.92.905-1.33 1.408-1.243 1.52-2.97 2.942-4.93 2.783a1.27 1.27 0 0 1-.915-.386 1.462 1.462 0 0 1-.233-.833 19.04 19.04 0 0 1 .119-3.755c.078-.77.27-1.524.567-2.24.35-.715.81-1.372 1.364-1.945a8.314 8.314 0 0 1 2.38-1.91 4.27 4.27 0 0 1 2.978-.383c1.173.32 2.087 1.237 3.205 1.71 1.278.539 4.67 1.97 3.27 3.951Z" fill="#865A61"/><path d="m59.36 95.262-.015.734-.165-.702.18-.032Z" fill="#FDC2CC"/><path opacity=".05" d="m59.36 95.262-.015.734-.165-.702.18-.032Zm15.519-27.025c-1.705 5.607 3.263 6.265 3.263 6.265L82.134 85.2c.324 1.823-3.81 7.132-3.81 7.132-.288.68-1.007 1.198-1.791 1.58.458-.28.827-.684 1.062-1.167 0 0 4.133-5.308 3.809-7.13l-3.992-10.7s-4.966-.658-3.264-6.266c.57-1.873 1.409-2.726 2.258-3.032-.586.471-1.123 1.286-1.527 2.62Z" fill="#571AFF"/><g opacity=".1" fill="#571AFF"><path opacity=".1" d="M74.96 73.332c.234.289.505.545.806.763a4.57 4.57 0 0 0 1.9.804v.212a4.559 4.559 0 0 1-1.723-.763 4.176 4.176 0 0 1-.982-1.016Zm-15.433 8.022v.07c.063.957.178 1.909.346 2.852.604 3.469-.187 10.356-.3 11.307l-.201-.129c.03-.229.958-7.74.314-11.414a25.505 25.505 0 0 1-.336-2.84v-.071a3.105 3.105 0 0 0-.541-1.54c.417.5.668 1.117.718 1.765Zm3.703-17.36-1.967-.038a.01.01 0 0 0-.01 0l-2.515 5.686c-.44.984-.777 2.011-1.006 3.064-.733 3.44-.272 5.155.287 6.002-.63-.742-1.28-2.434-.468-6.237.224-1.054.558-2.082.996-3.066l2.533-5.686 2.32.046v.014c-.019.024-.081.1-.17.215Zm14.829 1.546.034.01-.034-.01Z"/><path opacity=".1" d="m77.338 65.505-1.971-.594h-.01c-.117.13-2.968 3.29-5.11 5.85-1.916 2.287-5.274 2.108-6.083 2.027a10.826 10.826 0 0 0-.443-.038c-2.199-.14-3.064-.402-3.354-.958.413.403 1.32.604 3.171.717.149 0 .296.022.443.036.804.08 4.167.26 6.082-2.026 2.143-2.561 4.996-5.722 5.112-5.851l2.87.87a1.792 1.792 0 0 0-.707-.033Z"/></g><path opacity=".1" d="M53.99 152.405s-2.777.759-3.314-.432l3.313.432Zm17.63-.567s-3.22.831-3.964-.455l3.964.455Z" fill="#571AFF"/><path opacity=".1" d="M39.301 144.987c2.992 0 5.418-.41 5.418-.915 0-.506-2.425-.916-5.418-.916-2.992 0-5.418.41-5.418.916 0 .505 2.426.915 5.418.915Zm-21.344 12.981c2.993 0 5.419-.41 5.419-.916 0-.505-2.426-.915-5.419-.915-2.992 0-5.418.41-5.418.915 0 .506 2.426.916 5.418.916Z" fill="#F4ED0F"/><path d="M12.317 146.807c4.468 0 8.09-.613 8.09-1.369 0-.755-3.622-1.368-8.09-1.368s-8.09.613-8.09 1.368c0 .756 3.622 1.369 8.09 1.369Z" fill="#F4ED0F"/><path d="M8.97 143.201a2.34 2.34 0 0 1-.773-1.163c-.099-.463.098-1.016.539-1.185.495-.189 1.024.153 1.425.499.4.346.86.742 1.386.67a2.113 2.113 0 0 1-.652-1.976.802.802 0 0 1 .18-.402c.275-.294.774-.167 1.104.064 1.044.736 1.338 2.157 1.341 3.437.107-.463.019-.942.02-1.409.003-.467.133-1.006.532-1.251.246-.137.523-.206.805-.201.47-.017.993.03 1.315.374.403.426.296 1.145-.052 1.609-.348.465-.875.765-1.36 1.091-.39.231-.723.549-.974.927a.966.966 0 0 0-.072.165h-2.94a8.104 8.104 0 0 1-1.825-1.249Z" fill="#F4ED0F"/><path opacity=".1" d="M207.75 152.643c2.993 0 5.419-.409 5.419-.915s-2.426-.916-5.419-.916c-2.992 0-5.418.41-5.418.916s2.426.915 5.418.915Z" fill="#F4ED0F"/><path d="M204.113 147.474s3.091-.094 4.024-.758c.934-.664 4.753-1.455 4.984-.39.231 1.064 4.646 5.289 1.155 5.317-3.491.028-8.106-.543-9.036-1.11-.93-.568-1.127-3.059-1.127-3.059Z" fill="#A8A8A8"/><path opacity=".2" d="M214.336 151.275c-3.489.029-8.106-.543-9.036-1.11-.708-.431-.99-1.978-1.084-2.692h-.103s.201 2.493 1.125 3.058c.923.565 5.547 1.139 9.036 1.111 1.006 0 1.356-.367 1.336-.898-.139.33-.523.531-1.274.531Z" fill="#571AFF"/></g><defs><linearGradient id="b" x1="97.455" y1="142.913" x2="97.455" y2="23.986" gradientUnits="userSpaceOnUse"><stop stop-color="gray" stop-opacity=".25"/><stop offset=".54" stop-color="gray" stop-opacity=".12"/><stop offset="1" stop-color="gray" stop-opacity=".1"/></linearGradient><linearGradient id="c" x1="27712.9" y1="96124.4" x2="27712.9" y2="21059.9" gradientUnits="userSpaceOnUse"><stop stop-color="gray" stop-opacity=".25"/><stop offset=".54" stop-color="gray" stop-opacity=".12"/><stop offset="1" stop-color="gray" stop-opacity=".1"/></linearGradient><linearGradient id="d" x1="36738.8" y1="97855.8" x2="36738.8" y2="28388.3" gradientUnits="userSpaceOnUse"><stop stop-color="gray" stop-opacity=".25"/><stop offset=".54" stop-color="gray" stop-opacity=".12"/><stop offset="1" stop-color="gray" stop-opacity=".1"/></linearGradient><linearGradient id="e" x1="-21041.6" y1="97025.8" x2="-21041.6" y2="27274.6" gradientUnits="userSpaceOnUse"><stop stop-color="gray" stop-opacity=".25"/><stop offset=".54" stop-color="gray" stop-opacity=".12"/><stop offset="1" stop-color="gray" stop-opacity=".1"/></linearGradient><clipPath id="a"><path fill="#fff" transform="translate(.406)" d="M0 0h229.189v160H0z"/></clipPath></defs></svg>