<svg width="52" height="52" fill="none" xmlns="http://www.w3.org/2000/svg">
    <rect width="52" height="52" rx="11.056" fill="#F4ED0F" />
    <g clip-path="url(#a)">
        <path
            d="m29.419 42.449-8.052-8.024c-4.447-4.432-4.482-11.582-.078-15.971 4.404-4.39 11.58-4.354 16.026.077 4.447 4.432 4.482 11.582.078 15.971L29.42 42.45Z"
            fill="#fff" />
        <path fill-rule="evenodd" clip-rule="evenodd"
            d="m17.36 28.663 6.354 6.333 6.355-6.333a8.934 8.934 0 0 0 0-12.666c-3.51-3.497-9.2-3.497-12.71 0a8.934 8.934 0 0 0 0 12.666Zm6.354 10.16 8.276-8.246a11.634 11.634 0 0 0 0-16.494c-4.57-4.554-11.98-4.554-16.551 0a11.634 11.634 0 0 0 0 16.494l8.275 8.247Z"
            fill="#000A2C" />
    </g>
    <defs>
        <clipPath id="a">
            <path fill="#fff" transform="translate(11.939 10.612)" d="M0 0h28.918v31.837H0z" />
        </clipPath>
    </defs>
</svg>