<svg width="211" height="197" fill="none" xmlns="http://www.w3.org/2000/svg"><path d="M52.517 126.447H41.578l-1.753 5.157H32.35l10.605-29.193h8.267l10.604 29.193H54.27l-1.754-5.157Zm-1.837-5.489-3.632-10.687-3.59 10.687h7.222Zm12.955-.956c0-2.412.488-4.519 1.462-6.321 1.002-1.802 2.38-3.189 4.133-4.159 1.781-.97 3.813-1.455 6.096-1.455 2.922 0 5.358.762 7.306 2.287 1.976 1.525 3.27 3.673 3.883 6.445h-7.599c-.64-1.774-1.879-2.661-3.716-2.661-1.308 0-2.352.513-3.13 1.539-.78.998-1.17 2.439-1.17 4.325 0 1.885.39 3.34 1.17 4.366.778.998 1.822 1.497 3.13 1.497 1.837 0 3.076-.887 3.716-2.661h7.599c-.612 2.716-1.907 4.851-3.883 6.404-1.976 1.552-4.412 2.328-7.306 2.328-2.283 0-4.315-.485-6.096-1.455-1.754-.97-3.131-2.357-4.133-4.159-.974-1.802-1.462-3.909-1.462-6.32Zm39.683 5.572v6.03h-3.632c-2.589 0-4.607-.624-6.054-1.872-1.447-1.275-2.171-3.34-2.171-6.196v-9.232h-2.84v-5.905h2.84v-5.655h7.14v5.655h4.675v5.905H98.6v9.315c0 .693.167 1.192.501 1.497.334.305.891.458 1.67.458h2.547Zm7.567-19.587c-1.252 0-2.282-.36-3.089-1.081-.779-.748-1.169-1.663-1.169-2.744 0-1.109.39-2.024 1.169-2.745.807-.748 1.837-1.123 3.089-1.123 1.225 0 2.227.375 3.007 1.123.807.721 1.21 1.636 1.21 2.745 0 1.081-.403 1.996-1.21 2.744-.78.721-1.782 1.081-3.007 1.081Zm3.549 2.412v23.205h-7.139v-23.205h7.139Zm15.779 23.537c-2.283 0-4.342-.485-6.179-1.455-1.809-.97-3.243-2.357-4.301-4.159-1.029-1.802-1.544-3.909-1.544-6.32 0-2.385.528-4.478 1.586-6.28 1.058-1.83 2.505-3.23 4.342-4.2 1.837-.97 3.897-1.455 6.179-1.455 2.283 0 4.342.485 6.179 1.455 1.837.97 3.285 2.37 4.342 4.2 1.058 1.802 1.587 3.895 1.587 6.28 0 2.384-.543 4.491-1.628 6.32a10.72 10.72 0 0 1-4.384 4.159c-1.837.97-3.897 1.455-6.179 1.455Zm0-6.154c1.364 0 2.519-.499 3.465-1.497.974-.998 1.461-2.426 1.461-4.283 0-1.858-.473-3.286-1.419-4.284-.919-.998-2.06-1.497-3.424-1.497-1.391 0-2.546.499-3.465 1.497-.919.971-1.378 2.398-1.378 4.284 0 1.857.446 3.285 1.336 4.283.919.998 2.06 1.497 3.424 1.497Zm30.174-17.632c2.728 0 4.899.887 6.513 2.661 1.642 1.747 2.463 4.159 2.463 7.236v13.557h-7.097v-12.601c0-1.552-.404-2.758-1.211-3.617-.807-.86-1.893-1.29-3.257-1.29s-2.449.43-3.256 1.29c-.807.859-1.211 2.065-1.211 3.617v12.601h-7.139v-23.205h7.139v3.078c.724-1.026 1.698-1.83 2.923-2.412 1.224-.61 2.602-.915 4.133-.915ZM26.879 152.114c0 1.691-.39 3.244-1.17 4.658-.779 1.386-1.976 2.509-3.59 3.368-1.614.859-3.618 1.289-6.012 1.289H11.68v10.479H4.542v-29.192h11.565c2.338 0 4.314.402 5.928 1.206 1.615.804 2.826 1.913 3.633 3.327.807 1.414 1.21 3.035 1.21 4.865Zm-11.315 3.66c1.364 0 2.38-.319 3.048-.957.668-.637 1.002-1.538 1.002-2.703 0-1.164-.334-2.065-1.002-2.703-.668-.637-1.684-.956-3.048-.956h-3.883v7.319h3.883ZM41.2 172.241c-2.282 0-4.342-.485-6.179-1.455-1.81-.971-3.243-2.357-4.3-4.159-1.03-1.802-1.545-3.909-1.545-6.321 0-2.384.529-4.477 1.586-6.279 1.058-1.83 2.505-3.23 4.343-4.2 1.837-.97 3.896-1.455 6.179-1.455 2.282 0 4.342.485 6.179 1.455 1.837.97 3.284 2.37 4.342 4.2 1.057 1.802 1.586 3.895 1.586 6.279s-.542 4.491-1.628 6.321a10.724 10.724 0 0 1-4.384 4.159c-1.837.97-3.896 1.455-6.179 1.455Zm0-6.154c1.364 0 2.52-.499 3.465-1.497.975-.999 1.462-2.426 1.462-4.284 0-1.857-.474-3.285-1.42-4.283-.918-.998-2.06-1.497-3.423-1.497-1.392 0-2.547.499-3.466 1.497-.918.97-1.377 2.398-1.377 4.283 0 1.858.445 3.285 1.336 4.284.918.998 2.06 1.497 3.423 1.497Zm23.118-14.098c.696-1.081 1.656-1.954 2.881-2.619 1.225-.666 2.658-.998 4.3-.998 1.92 0 3.66.485 5.22 1.455 1.558.97 2.783 2.356 3.673 4.158.919 1.802 1.378 3.896 1.378 6.28 0 2.384-.46 4.491-1.378 6.321-.89 1.802-2.115 3.202-3.674 4.2-1.559.97-3.298 1.455-5.219 1.455-1.614 0-3.047-.333-4.3-.998-1.225-.665-2.185-1.525-2.88-2.578v14.305h-7.14v-34.266h7.14v3.285Zm10.187 8.276c0-1.775-.5-3.161-1.503-4.159-.974-1.025-2.184-1.538-3.632-1.538-1.42 0-2.63.513-3.632 1.538-.974 1.026-1.462 2.426-1.462 4.2 0 1.775.488 3.175 1.462 4.2 1.002 1.026 2.213 1.539 3.632 1.539 1.42 0 2.63-.513 3.632-1.539 1.002-1.053 1.503-2.467 1.503-4.241Zm34.015-11.561v23.204h-7.139v-3.16c-.724 1.026-1.712 1.857-2.965 2.495-1.224.61-2.588.915-4.091.915-1.781 0-3.354-.388-4.718-1.164-1.364-.804-2.421-1.955-3.173-3.452-.751-1.497-1.127-3.257-1.127-5.281v-13.557h7.097v12.6c0 1.553.404 2.759 1.211 3.618.807.86 1.893 1.289 3.257 1.289 1.391 0 2.49-.429 3.298-1.289.807-.859 1.211-2.065 1.211-3.618v-12.6h7.139Zm12.268-7.568v30.772h-7.14v-30.772h7.14Zm3.754 19.129c0-2.384.445-4.478 1.336-6.28.919-1.802 2.157-3.188 3.716-4.158 1.559-.97 3.298-1.455 5.219-1.455 1.642 0 3.075.332 4.3.998 1.253.665 2.213 1.538 2.881 2.619v-3.285h7.139v23.204h-7.139v-3.285c-.696 1.081-1.67 1.955-2.923 2.62-1.224.665-2.658.998-4.3.998-1.893 0-3.618-.485-5.177-1.455-1.559-.998-2.797-2.398-3.716-4.2-.891-1.83-1.336-3.937-1.336-6.321Zm17.452.041c0-1.774-.501-3.174-1.503-4.2-.974-1.025-2.171-1.538-3.591-1.538-1.419 0-2.63.513-3.632 1.538-.974.998-1.461 2.384-1.461 4.159 0 1.774.487 3.188 1.461 4.241 1.002 1.026 2.213 1.539 3.632 1.539 1.42 0 2.617-.513 3.591-1.539 1.002-1.025 1.503-2.425 1.503-4.2Zm15.895-14.014c-1.253 0-2.283-.36-3.09-1.081-.779-.748-1.169-1.663-1.169-2.745 0-1.108.39-2.023 1.169-2.744.807-.749 1.837-1.123 3.09-1.123 1.224 0 2.227.374 3.006 1.123.807.721 1.211 1.636 1.211 2.744 0 1.082-.404 1.997-1.211 2.745-.779.721-1.782 1.081-3.006 1.081Zm3.549 2.412v23.204h-7.14v-23.204h7.14Zm12.313 3.868c.835-1.276 1.879-2.274 3.131-2.995 1.253-.748 2.644-1.122 4.175-1.122v7.527h-1.962c-1.781 0-3.117.388-4.008 1.164-.891.748-1.336 2.079-1.336 3.992v10.77h-7.14v-23.204h7.14v3.868Zm32.68 7.36c0 .665-.042 1.358-.126 2.079h-16.157c.111 1.442.57 2.551 1.378 3.327.835.749 1.85 1.123 3.047 1.123 1.782 0 3.02-.749 3.716-2.246h7.599a10.24 10.24 0 0 1-2.13 4.117c-1.002 1.22-2.268 2.176-3.799 2.869-1.531.694-3.242 1.04-5.135 1.04-2.283 0-4.314-.485-6.096-1.455-1.781-.971-3.173-2.357-4.175-4.159-1.002-1.802-1.503-3.909-1.503-6.321s.487-4.519 1.461-6.321c1.002-1.802 2.394-3.188 4.175-4.158 1.782-.97 3.828-1.455 6.138-1.455 2.254 0 4.258.471 6.012 1.413a10.054 10.054 0 0 1 4.092 4.034c1.002 1.747 1.503 3.784 1.503 6.113Zm-7.307-1.871c0-1.22-.417-2.19-1.252-2.911-.835-.721-1.879-1.081-3.132-1.081-1.197 0-2.212.346-3.047 1.039-.808.693-1.309 1.677-1.504 2.953h8.935Z" fill="#000A2C"/><path d="M112.996 88.565 92.422 68.073c-11.363-11.318-11.452-29.579-.2-40.787 11.253-11.208 29.587-11.12 40.95.198 11.363 11.318 11.452 29.579.199 40.787l-20.375 20.294Z" fill="#fff"/><path fill-rule="evenodd" clip-rule="evenodd" d="m82.622 53.358 16.237 16.173 16.237-16.173c8.968-8.932 8.968-23.413 0-32.345-8.967-8.932-23.507-8.932-32.474 0-8.968 8.932-8.968 23.413 0 32.345Zm16.237 25.949 21.144-21.06c11.678-11.632 11.678-30.49 0-42.122-11.677-11.631-30.61-11.631-42.289 0-11.678 11.632-11.678 30.49 0 42.121l21.145 21.06Z" fill="#000A2C"/></svg>