<svg width="183" height="36" fill="none" xmlns="http://www.w3.org/2000/svg">
    <path
        d="M38.968 22.5h-4.696l-.752 2.215h-3.208l4.552-12.547h3.548l4.552 12.547h-3.243l-.753-2.216Zm-.789-2.36-1.559-4.594-1.541 4.594h3.1Zm5.561-.411c0-1.037.21-1.942.628-2.717a4.487 4.487 0 0 1 1.774-1.787c.765-.417 1.637-.626 2.616-.626 1.255 0 2.3.328 3.137.983.848.656 1.403 1.58 1.666 2.77H50.3c-.275-.762-.807-1.143-1.595-1.143-.562 0-1.01.22-1.344.661-.335.429-.502 1.049-.502 1.859s.167 1.436.502 1.877c.334.428.782.643 1.344.643.788 0 1.32-.381 1.595-1.144h3.261c-.263 1.168-.818 2.085-1.666 2.753-.849.667-1.894 1-3.137 1-.98 0-1.851-.208-2.616-.625a4.487 4.487 0 0 1-1.774-1.787c-.418-.775-.628-1.68-.628-2.717Zm17.034 2.395v2.591h-1.559c-1.111 0-1.977-.268-2.599-.804-.62-.548-.931-1.436-.931-2.663V17.28h-1.22v-2.538h1.22v-2.43h3.064v2.43h2.007v2.538H58.75v4.004c0 .298.072.512.215.643.144.131.383.197.717.197h1.093Zm3.248-8.418c-.537 0-.98-.155-1.326-.465a1.574 1.574 0 0 1-.502-1.18c0-.476.168-.87.502-1.18.347-.321.789-.482 1.326-.482.526 0 .956.16 1.29.483.347.31.52.703.52 1.18 0 .464-.173.857-.52 1.179-.334.31-.764.465-1.29.465Zm1.524 1.036v9.973H62.48v-9.973h3.065Zm6.773 10.116c-.98 0-1.864-.208-2.653-.625a4.663 4.663 0 0 1-1.846-1.787c-.442-.775-.663-1.68-.663-2.717 0-1.025.227-1.924.681-2.699a4.6 4.6 0 0 1 1.864-1.805c.789-.417 1.673-.626 2.653-.626s1.863.209 2.652.626a4.6 4.6 0 0 1 1.864 1.805c.454.774.68 1.674.68 2.699s-.232 1.93-.698 2.717a4.603 4.603 0 0 1-1.882 1.787c-.788.417-1.673.625-2.652.625Zm0-2.645a1.97 1.97 0 0 0 1.487-.643c.418-.43.627-1.043.627-1.841 0-.799-.203-1.412-.609-1.841a1.914 1.914 0 0 0-1.47-.644c-.597 0-1.093.215-1.487.644-.394.417-.591 1.03-.591 1.84 0 .8.19 1.413.573 1.842.394.429.884.643 1.47.643Zm12.951-7.578c1.172 0 2.104.381 2.797 1.144.704.75 1.057 1.787 1.057 3.11v5.826h-3.047V19.3c0-.667-.173-1.186-.52-1.555-.346-.37-.812-.554-1.397-.554-.586 0-1.052.184-1.398.554-.347.37-.52.888-.52 1.555v5.415h-3.065v-9.973h3.065v1.323a3.16 3.16 0 0 1 1.255-1.037c.525-.262 1.117-.393 1.774-.393Z"
        fill="#000A2C" />
    <path
        d="m14.239 33.13-6.355-6.34c-3.51-3.5-3.537-9.148-.061-12.614 3.475-3.466 9.138-3.439 12.648.062 3.51 3.5 3.537 9.147.061 12.614l-6.293 6.276Z"
        fill="#F4ED0F" />
    <path fill-rule="evenodd" clip-rule="evenodd"
        d="m4.721 22.24 5.016 5.002 5.015-5.001a7.06 7.06 0 0 0 0-10.004 7.106 7.106 0 0 0-10.03 0 7.06 7.06 0 0 0 0 10.004Zm5.016 8.026 6.53-6.514a9.194 9.194 0 0 0 0-13.026c-3.606-3.598-9.454-3.598-13.061 0a9.194 9.194 0 0 0 0 13.026l6.53 6.514Z"
        fill="#000A2C" />
    <path
        d="M105.519 16.385c0 .726-.167 1.394-.502 2.001-.334.596-.848 1.079-1.541 1.448-.693.37-1.553.554-2.581.554h-1.9v4.504h-3.064V12.345h4.964c1.004 0 1.852.173 2.545.518.693.346 1.213.823 1.559 1.43.347.608.52 1.305.52 2.092Zm-4.857 1.572c.586 0 1.022-.137 1.309-.41.286-.275.43-.662.43-1.162 0-.5-.144-.888-.43-1.162-.287-.274-.723-.411-1.309-.411h-1.666v3.145h1.666Zm11.005 7.078c-.98 0-1.864-.208-2.653-.625a4.667 4.667 0 0 1-1.846-1.788c-.442-.774-.663-1.68-.663-2.716 0-1.025.227-1.925.681-2.7a4.597 4.597 0 0 1 1.864-1.804c.789-.417 1.673-.626 2.652-.626.98 0 1.864.209 2.653.626a4.603 4.603 0 0 1 1.864 1.805c.454.774.681 1.674.681 2.699 0 1.024-.233 1.93-.699 2.716a4.607 4.607 0 0 1-1.882 1.788c-.789.417-1.673.625-2.652.625Zm0-2.645a1.97 1.97 0 0 0 1.487-.643c.418-.43.627-1.043.627-1.841 0-.799-.203-1.412-.609-1.841a1.914 1.914 0 0 0-1.47-.644c-.597 0-1.093.215-1.487.644-.394.417-.591 1.03-.591 1.84 0 .799.191 1.413.573 1.842.394.428.884.643 1.47.643Zm9.923-6.059c.299-.465.711-.84 1.237-1.126.525-.286 1.141-.429 1.845-.429a4.15 4.15 0 0 1 2.241.626c.669.417 1.194 1.012 1.577 1.787.394.774.591 1.674.591 2.699 0 1.024-.197 1.93-.591 2.716-.383.775-.908 1.377-1.577 1.806a4.15 4.15 0 0 1-2.241.625c-.693 0-1.308-.143-1.845-.429a3.385 3.385 0 0 1-1.237-1.108v6.149h-3.065V14.919h3.065v1.412Zm4.373 3.557c0-.763-.215-1.359-.645-1.788a2.063 2.063 0 0 0-1.56-.66 2.1 2.1 0 0 0-1.559.66c-.418.441-.627 1.043-.627 1.806 0 .762.209 1.364.627 1.805.43.44.95.661 1.559.661.61 0 1.13-.22 1.56-.661.43-.453.645-1.06.645-1.823Zm14.601-4.969v9.973h-3.065v-1.358c-.311.44-.735.798-1.272 1.072a3.886 3.886 0 0 1-1.757.393c-.764 0-1.439-.166-2.025-.5a3.501 3.501 0 0 1-1.362-1.483c-.322-.644-.484-1.4-.484-2.27v-5.827h3.047v5.416c0 .667.173 1.185.52 1.555.346.369.812.554 1.397.554.598 0 1.07-.185 1.416-.554.347-.37.52-.888.52-1.555v-5.416h3.065Zm5.265-3.253v13.226h-3.064V11.666h3.064Zm1.612 8.222c0-1.025.191-1.925.573-2.7.395-.774.926-1.37 1.595-1.786a4.15 4.15 0 0 1 2.241-.626c.704 0 1.32.143 1.845.429.538.286.95.661 1.237 1.126v-1.412h3.065v9.973h-3.065V23.48c-.299.465-.717.84-1.254 1.126-.526.286-1.141.43-1.846.43a4.119 4.119 0 0 1-2.223-.626c-.669-.43-1.2-1.031-1.595-1.805-.382-.787-.573-1.692-.573-2.717Zm7.491.018c0-.763-.215-1.365-.645-1.806a2.04 2.04 0 0 0-1.541-.66 2.1 2.1 0 0 0-1.56.66c-.418.43-.627 1.025-.627 1.788 0 .762.209 1.37.627 1.823a2.1 2.1 0 0 0 1.56.661 2.04 2.04 0 0 0 1.541-.661c.43-.441.645-1.043.645-1.805Zm6.823-6.024c-.538 0-.98-.155-1.326-.464a1.572 1.572 0 0 1-.502-1.18c0-.477.167-.87.502-1.18.346-.321.788-.482 1.326-.482.526 0 .956.16 1.29.482.347.31.52.703.52 1.18 0 .465-.173.858-.52 1.18-.334.31-.764.464-1.29.464Zm1.523 1.037v9.973h-3.064V14.92h3.064Zm5.286 1.662a3.946 3.946 0 0 1 1.344-1.287 3.422 3.422 0 0 1 1.792-.482v3.235h-.842c-.765 0-1.339.167-1.721.5-.382.322-.573.894-.573 1.716v4.63h-3.065v-9.974h3.065v1.662Zm14.027 3.164c0 .286-.018.584-.053.893h-6.936c.048.62.245 1.097.591 1.43.359.322.795.483 1.309.483.764 0 1.296-.322 1.595-.965h3.261a4.4 4.4 0 0 1-.914 1.77c-.43.523-.973.934-1.63 1.232-.658.298-1.392.447-2.205.447-.98 0-1.852-.208-2.616-.625a4.452 4.452 0 0 1-1.792-1.788c-.431-.774-.646-1.68-.646-2.716 0-1.037.209-1.943.628-2.717a4.453 4.453 0 0 1 1.792-1.787c.764-.417 1.643-.626 2.634-.626.968 0 1.828.203 2.581.608a4.308 4.308 0 0 1 1.756 1.733c.43.751.645 1.627.645 2.628Zm-3.136-.805c0-.524-.179-.94-.538-1.25-.358-.31-.806-.465-1.344-.465-.513 0-.949.149-1.308.447-.346.297-.561.72-.645 1.268h3.835Z"
        fill="#000A2C" />
</svg>