<svg width="127" height="48" fill="none" xmlns="http://www.w3.org/2000/svg"><path d="M50.675 19.945h-3.651l-.586 1.73h-2.495l3.54-9.793h2.76l3.54 9.792h-2.522l-.586-1.73Zm-.613-1.841-1.212-3.585-1.2 3.585h2.412Zm4.325-.321c0-.81.163-1.516.488-2.12a3.497 3.497 0 0 1 1.38-1.395c.595-.326 1.273-.489 2.035-.489.976 0 1.789.256 2.44.768.659.511 1.091 1.232 1.295 2.162H59.49c-.214-.595-.627-.893-1.24-.893-.438 0-.786.172-1.046.516-.26.335-.39.818-.39 1.45 0 .633.13 1.121.39 1.465.26.335.608.503 1.045.503.614 0 1.027-.298 1.24-.893h2.537c-.204.911-.636 1.627-1.296 2.148-.66.52-1.473.781-2.439.781-.762 0-1.44-.163-2.035-.488a3.497 3.497 0 0 1-1.38-1.395c-.325-.604-.488-1.311-.488-2.12Zm13.248 1.869v2.022h-1.213c-.864 0-1.537-.209-2.02-.627-.484-.428-.725-1.12-.725-2.079v-3.096h-.948v-1.98h.948v-1.898h2.383v1.897h1.561v1.98h-1.56v3.125c0 .233.055.4.166.502.112.103.298.154.558.154h.85Zm2.526-6.57c-.418 0-.761-.12-1.031-.363a1.23 1.23 0 0 1-.39-.92c0-.372.13-.679.39-.92.27-.252.613-.377 1.031-.377.41 0 .744.125 1.004.376.27.242.404.549.404.92 0 .364-.135.67-.404.921-.26.242-.595.363-1.004.363Zm1.185.81v7.782h-2.383v-7.783h2.383Zm5.268 7.894c-.762 0-1.45-.163-2.063-.488a3.633 3.633 0 0 1-1.436-1.395c-.344-.604-.515-1.311-.515-2.12 0-.8.176-1.502.53-2.107a3.583 3.583 0 0 1 1.449-1.408c.613-.326 1.3-.489 2.063-.489.761 0 1.45.163 2.062.489a3.583 3.583 0 0 1 1.45 1.409c.353.604.53 1.306.53 2.106 0 .8-.181 1.506-.544 2.12a3.587 3.587 0 0 1-1.463 1.395c-.614.325-1.301.488-2.063.488Zm0-2.064c.455 0 .84-.168 1.157-.503.325-.334.487-.813.487-1.436s-.158-1.102-.474-1.437a1.487 1.487 0 0 0-1.142-.502c-.465 0-.85.167-1.157.502-.307.326-.46.804-.46 1.437 0 .623.148 1.102.446 1.436.306.335.687.503 1.143.503Zm10.073-5.915c.91 0 1.636.298 2.175.893.548.586.822 1.395.822 2.427v4.547h-2.37v-4.226c0-.52-.134-.925-.404-1.214-.27-.288-.632-.432-1.087-.432-.455 0-.818.144-1.087.432-.27.289-.404.693-.404 1.214v4.226h-2.384v-7.783h2.384v1.032a2.46 2.46 0 0 1 .975-.809 3.04 3.04 0 0 1 1.38-.307ZM52.041 28.554c0 .567-.13 1.088-.39 1.562-.26.465-.66.842-1.199 1.13-.538.288-1.207.433-2.007.433h-1.477v3.515h-2.384v-9.792h3.861c.78 0 1.44.135 1.98.404.539.27.943.642 1.212 1.116.27.474.404 1.018.404 1.632Zm-3.777 1.228c.455 0 .795-.107 1.018-.321.223-.214.334-.516.334-.907 0-.39-.111-.693-.334-.907-.223-.213-.563-.32-1.018-.32h-1.296v2.454h1.296Zm8.559 5.523c-.762 0-1.45-.163-2.063-.488a3.633 3.633 0 0 1-1.436-1.395c-.344-.604-.516-1.311-.516-2.12 0-.8.177-1.502.53-2.106a3.583 3.583 0 0 1 1.45-1.41c.613-.325 1.3-.487 2.062-.487.762 0 1.45.162 2.063.488a3.583 3.583 0 0 1 1.45 1.409c.353.604.53 1.306.53 2.106 0 .8-.182 1.506-.544 2.12a3.586 3.586 0 0 1-1.464 1.395c-.613.325-1.3.488-2.062.488Zm0-2.064c.455 0 .84-.168 1.156-.502.326-.335.488-.814.488-1.437 0-.623-.158-1.102-.474-1.437a1.487 1.487 0 0 0-1.143-.502c-.464 0-.85.168-1.156.502-.307.326-.46.805-.46 1.437 0 .623.148 1.102.446 1.437.306.334.687.502 1.143.502Zm7.717-4.729c.233-.362.553-.655.962-.878.409-.224.888-.335 1.436-.335.64 0 1.222.162 1.742.488.52.325.93.79 1.227 1.395.306.604.46 1.306.46 2.106 0 .8-.154 1.506-.46 2.12-.298.605-.707 1.074-1.227 1.409a3.219 3.219 0 0 1-1.742.488c-.54 0-1.018-.111-1.436-.335a2.635 2.635 0 0 1-.962-.864v4.798h-2.383V27.41h2.383v1.102Zm3.401 2.776c0-.595-.167-1.06-.502-1.395a1.6 1.6 0 0 0-1.212-.516 1.63 1.63 0 0 0-1.213.516c-.325.344-.487.814-.487 1.409 0 .595.162 1.065.487 1.409a1.63 1.63 0 0 0 1.213.516 1.63 1.63 0 0 0 1.212-.516c.335-.354.502-.828.502-1.423Zm11.356-3.878v7.784h-2.383v-1.06a2.663 2.663 0 0 1-.99.836 3.01 3.01 0 0 1-1.366.307c-.595 0-1.12-.13-1.575-.39a2.725 2.725 0 0 1-1.06-1.158c-.25-.502-.376-1.093-.376-1.771V27.41h2.37v4.227c0 .52.135.925.404 1.213.27.288.632.433 1.087.433.465 0 .832-.145 1.101-.433.27-.288.404-.693.404-1.213V27.41h2.384Zm4.095-2.538v10.322H81.01V24.872h2.383Zm1.254 6.416c0-.8.148-1.502.446-2.106.306-.605.72-1.07 1.24-1.395a3.218 3.218 0 0 1 1.743-.488c.548 0 1.026.111 1.435.335.418.223.739.516.962.878V27.41h2.383v7.784h-2.383v-1.102a2.563 2.563 0 0 1-.976.878c-.409.224-.887.335-1.435.335a3.195 3.195 0 0 1-1.729-.488c-.52-.335-.934-.804-1.24-1.409-.298-.614-.446-1.32-.446-2.12Zm5.826.014c0-.595-.167-1.065-.502-1.409a1.585 1.585 0 0 0-1.199-.516 1.63 1.63 0 0 0-1.212.516c-.325.335-.488.8-.488 1.395s.163 1.07.488 1.423a1.63 1.63 0 0 0 1.212.516c.474 0 .874-.172 1.2-.516.334-.344.5-.814.5-1.41Zm5.306-4.701c-.418 0-.762-.12-1.031-.362a1.23 1.23 0 0 1-.39-.921c0-.372.13-.679.39-.92.27-.252.613-.377 1.031-.377.41 0 .744.125 1.004.376.27.242.404.55.404.921 0 .363-.135.67-.404.92-.26.242-.595.363-1.004.363Zm1.185.81v7.783H94.58V27.41h2.383Zm4.111 1.296a3.073 3.073 0 0 1 1.045-1.004 2.656 2.656 0 0 1 1.394-.376v2.524h-.655c-.595 0-1.041.13-1.338.39-.298.252-.446.698-.446 1.34v3.613H98.69V27.41h2.384v1.297Zm10.91 2.469c0 .224-.014.456-.042.698h-5.394c.037.483.19.855.46 1.116.278.25.618.376 1.017.376.595 0 1.008-.25 1.241-.753h2.536c-.13.511-.367.972-.71 1.381-.335.41-.758.73-1.269.962a4.091 4.091 0 0 1-1.714.35c-.762 0-1.441-.164-2.035-.489a3.467 3.467 0 0 1-1.394-1.395c-.335-.604-.502-1.311-.502-2.12 0-.81.163-1.516.488-2.12a3.473 3.473 0 0 1 1.394-1.395c.595-.326 1.278-.488 2.049-.488.752 0 1.421.158 2.007.474a3.36 3.36 0 0 1 1.366 1.353c.334.586.502 1.27.502 2.05Zm-2.44-.627c0-.41-.139-.735-.418-.977-.279-.241-.627-.362-1.045-.362-.4 0-.739.116-1.018.348-.269.233-.436.563-.501.99h2.982Z" fill="#000A2C"/><path d="m27.522 36.88-6.868-6.873c-3.794-3.797-3.824-9.922-.067-13.681 3.757-3.76 9.877-3.73 13.67.066 3.794 3.797 3.824 9.922.067 13.681l-6.802 6.807Z" fill="#F4ED0F"/><path fill-rule="evenodd" clip-rule="evenodd" d="m17.382 25.071 5.42 5.425 5.421-5.425a7.676 7.676 0 0 0 0-10.85 7.662 7.662 0 0 0-10.841 0 7.676 7.676 0 0 0 0 10.85Zm5.42 8.704 7.06-7.064c3.898-3.902 3.898-10.227 0-14.129a9.978 9.978 0 0 0-14.119 0c-3.898 3.902-3.898 10.227 0 14.129l7.06 7.064Z" fill="#000A2C"/></svg>
