<svg width="918" height="348" viewBox="0 0 918 348" fill="none" xmlns="http://www.w3.org/2000/svg">
<path d="M367.615 144.579H341.124L336.877 157.116H318.778L344.461 86.1359H364.481L390.163 157.116H371.862L367.615 144.579ZM363.166 131.232L354.37 105.246L345.674 131.232H363.166Z" fill="#000A2C"/>
<path d="M394.542 128.906C394.542 123.042 395.722 117.919 398.081 113.537C400.508 109.156 403.844 105.785 408.091 103.426C412.405 101.067 417.326 99.8871 422.853 99.8871C429.931 99.8871 435.829 101.741 440.548 105.448C445.334 109.156 448.468 114.38 449.951 121.121H431.549C429.999 116.807 426.999 114.649 422.55 114.649C419.382 114.649 416.854 115.896 414.967 118.391C413.079 120.817 412.135 124.322 412.135 128.906C412.135 133.49 413.079 137.029 414.967 139.523C416.854 141.95 419.382 143.163 422.55 143.163C426.999 143.163 429.999 141.006 431.549 136.692H449.951C448.468 143.298 445.334 148.488 440.548 152.263C435.762 156.038 429.864 157.925 422.853 157.925C417.326 157.925 412.405 156.746 408.091 154.386C403.844 152.027 400.508 148.657 398.081 144.275C395.722 139.894 394.542 134.771 394.542 128.906Z" fill="#000A2C"/>
<path d="M490.646 142.455V157.116H481.849C475.58 157.116 470.693 155.6 467.188 152.566C463.683 149.466 461.93 144.444 461.93 137.501V115.054H455.054V100.696H461.93V86.9448H479.22V100.696H490.545V115.054H479.22V137.703C479.22 139.388 479.624 140.602 480.433 141.343C481.242 142.084 482.59 142.455 484.478 142.455H490.646Z" fill="#000A2C"/>
<path d="M508.972 94.8315C505.939 94.8315 503.445 93.9552 501.49 92.2026C499.603 90.3826 498.659 88.1581 498.659 85.5292C498.659 82.8329 499.603 80.6084 501.49 78.8558C503.445 77.0358 505.939 76.1258 508.972 76.1258C511.938 76.1258 514.365 77.0358 516.252 78.8558C518.207 80.6084 519.185 82.8329 519.185 85.5292C519.185 88.1581 518.207 90.3826 516.252 92.2026C514.365 93.9552 511.938 94.8315 508.972 94.8315ZM517.567 100.696V157.116H500.277V100.696H517.567Z" fill="#000A2C"/>
<path d="M555.779 157.925C550.252 157.925 545.264 156.746 540.815 154.386C536.433 152.027 532.962 148.657 530.4 144.275C527.906 139.894 526.659 134.771 526.659 128.906C526.659 123.109 527.94 118.02 530.501 113.638C533.063 109.189 536.568 105.785 541.017 103.426C545.466 101.067 550.454 99.8871 555.981 99.8871C561.509 99.8871 566.497 101.067 570.946 103.426C575.395 105.785 578.9 109.189 581.462 113.638C584.023 118.02 585.304 123.109 585.304 128.906C585.304 134.703 583.989 139.826 581.36 144.275C578.799 148.657 575.26 152.027 570.744 154.386C566.295 156.746 561.307 157.925 555.779 157.925ZM555.779 142.961C559.082 142.961 561.88 141.747 564.171 139.321C566.531 136.894 567.71 133.423 567.71 128.906C567.71 124.39 566.564 120.918 564.273 118.492C562.048 116.065 559.284 114.852 555.981 114.852C552.611 114.852 549.814 116.065 547.589 118.492C545.365 120.851 544.252 124.322 544.252 128.906C544.252 133.423 545.331 136.894 547.488 139.321C549.712 141.747 552.476 142.961 555.779 142.961Z" fill="#000A2C"/>
<path d="M628.855 100.089C635.461 100.089 640.718 102.246 644.628 106.56C648.605 110.807 650.594 116.672 650.594 124.154V157.116H633.405V126.48C633.405 122.705 632.427 119.772 630.472 117.683C628.518 115.593 625.889 114.548 622.586 114.548C619.283 114.548 616.654 115.593 614.699 117.683C612.744 119.772 611.767 122.705 611.767 126.48V157.116H594.477V100.696H611.767V108.178C613.519 105.684 615.879 103.729 618.845 102.314C621.811 100.831 625.147 100.089 628.855 100.089Z" fill="#000A2C"/>
<path d="M377.524 206.987C377.524 211.099 376.581 214.874 374.693 218.312C372.806 221.682 369.907 224.412 365.998 226.502C362.088 228.591 357.235 229.636 351.437 229.636H340.72V255.116H323.429V184.136H351.437C357.1 184.136 361.886 185.113 365.795 187.068C369.705 189.023 372.637 191.719 374.592 195.157C376.547 198.595 377.524 202.538 377.524 206.987ZM350.123 215.885C353.426 215.885 355.886 215.11 357.504 213.559C359.122 212.009 359.931 209.818 359.931 206.987C359.931 204.156 359.122 201.965 357.504 200.415C355.886 198.865 353.426 198.089 350.123 198.089H340.72V215.885H350.123Z" fill="#000A2C"/>
<path d="M412.208 255.925C406.681 255.925 401.692 254.746 397.244 252.386C392.862 250.027 389.391 246.657 386.829 242.275C384.335 237.894 383.088 232.771 383.088 226.906C383.088 221.109 384.369 216.02 386.93 211.638C389.492 207.189 392.997 203.785 397.446 201.426C401.895 199.067 406.883 197.887 412.41 197.887C417.938 197.887 422.926 199.067 427.375 201.426C431.824 203.785 435.329 207.189 437.891 211.638C440.452 216.02 441.733 221.109 441.733 226.906C441.733 232.703 440.418 237.826 437.789 242.275C435.228 246.657 431.689 250.027 427.173 252.386C422.724 254.746 417.736 255.925 412.208 255.925ZM412.208 240.961C415.511 240.961 418.309 239.747 420.6 237.321C422.96 234.894 424.139 231.423 424.139 226.906C424.139 222.39 422.993 218.918 420.702 216.492C418.477 214.065 415.713 212.852 412.41 212.852C409.04 212.852 406.243 214.065 404.018 216.492C401.794 218.851 400.681 222.322 400.681 226.906C400.681 231.423 401.76 234.894 403.917 237.321C406.141 239.747 408.905 240.961 412.208 240.961Z" fill="#000A2C"/>
<path d="M468.196 206.684C469.881 204.055 472.206 201.932 475.172 200.314C478.138 198.696 481.61 197.887 485.587 197.887C490.238 197.887 494.451 199.067 498.226 201.426C502.001 203.785 504.967 207.156 507.124 211.537C509.348 215.919 510.46 221.008 510.46 226.805C510.46 232.602 509.348 237.725 507.124 242.174C504.967 246.556 502.001 249.96 498.226 252.386C494.451 254.746 490.238 255.925 485.587 255.925C481.677 255.925 478.206 255.116 475.172 253.499C472.206 251.881 469.881 249.791 468.196 247.23V282.012H450.906V198.696H468.196V206.684ZM492.867 226.805C492.867 222.491 491.654 219.121 489.227 216.694C486.868 214.2 483.935 212.953 480.43 212.953C476.992 212.953 474.06 214.2 471.633 216.694C469.274 219.188 468.095 222.592 468.095 226.906C468.095 231.22 469.274 234.624 471.633 237.119C474.06 239.613 476.992 240.86 480.43 240.86C483.868 240.86 486.8 239.613 489.227 237.119C491.654 234.557 492.867 231.119 492.867 226.805Z" fill="#000A2C"/>
<path d="M575.244 198.696V255.116H557.954V247.432C556.201 249.926 553.808 251.948 550.775 253.499C547.809 254.982 544.506 255.723 540.866 255.723C536.552 255.723 532.743 254.779 529.44 252.892C526.137 250.937 523.576 248.14 521.756 244.5C519.936 240.86 519.026 236.579 519.026 231.658V198.696H536.215V229.333C536.215 233.108 537.192 236.04 539.147 238.13C541.102 240.219 543.731 241.264 547.034 241.264C550.404 241.264 553.067 240.219 555.022 238.13C556.976 236.04 557.954 233.108 557.954 229.333V198.696H575.244Z" fill="#000A2C"/>
<path d="M604.954 180.294V255.116H587.663V180.294H604.954Z" fill="#000A2C"/>
<path d="M614.046 226.805C614.046 221.008 615.124 215.919 617.281 211.537C619.506 207.156 622.505 203.785 626.28 201.426C630.055 199.067 634.268 197.887 638.919 197.887C642.896 197.887 646.368 198.696 649.334 200.314C652.367 201.932 654.693 204.055 656.31 206.684V198.696H673.601V255.116H656.31V247.129C654.625 249.758 652.266 251.881 649.233 253.499C646.267 255.116 642.795 255.925 638.818 255.925C634.234 255.925 630.055 254.746 626.28 252.386C622.505 249.96 619.506 246.556 617.281 242.174C615.124 237.725 614.046 232.602 614.046 226.805ZM656.31 226.906C656.31 222.592 655.097 219.188 652.67 216.694C650.311 214.2 647.413 212.953 643.975 212.953C640.537 212.953 637.605 214.2 635.178 216.694C632.819 219.121 631.639 222.491 631.639 226.805C631.639 231.119 632.819 234.557 635.178 237.119C637.605 239.613 640.537 240.86 643.975 240.86C647.413 240.86 650.311 239.613 652.67 237.119C655.097 234.624 656.31 231.22 656.31 226.906Z" fill="#000A2C"/>
<path d="M694.805 192.832C691.772 192.832 689.277 191.955 687.323 190.203C685.435 188.383 684.492 186.158 684.492 183.529C684.492 180.833 685.435 178.608 687.323 176.856C689.277 175.036 691.772 174.126 694.805 174.126C697.771 174.126 700.198 175.036 702.085 176.856C704.04 178.608 705.017 180.833 705.017 183.529C705.017 186.158 704.04 188.383 702.085 190.203C700.198 191.955 697.771 192.832 694.805 192.832ZM703.399 198.696V255.116H686.109V198.696H703.399Z" fill="#000A2C"/>
<path d="M733.22 208.099C735.242 204.999 737.77 202.572 740.803 200.819C743.836 198.999 747.207 198.089 750.914 198.089V216.391H746.162C741.848 216.391 738.612 217.334 736.455 219.222C734.298 221.042 733.22 224.277 733.22 228.928V255.116H715.929V198.696H733.22V208.099Z" fill="#000A2C"/>
<path d="M812.363 225.996C812.363 227.614 812.262 229.299 812.06 231.052H772.93C773.199 234.557 774.312 237.253 776.266 239.141C778.289 240.961 780.749 241.871 783.648 241.871C787.962 241.871 790.961 240.051 792.647 236.411H811.049C810.105 240.118 808.386 243.455 805.892 246.421C803.465 249.387 800.398 251.712 796.691 253.398C792.984 255.083 788.838 255.925 784.254 255.925C778.727 255.925 773.806 254.746 769.492 252.386C765.178 250.027 761.807 246.657 759.381 242.275C756.954 237.894 755.741 232.771 755.741 226.906C755.741 221.042 756.92 215.919 759.28 211.537C761.706 207.156 765.077 203.785 769.391 201.426C773.705 199.067 778.659 197.887 784.254 197.887C789.714 197.887 794.568 199.033 798.814 201.325C803.061 203.617 806.364 206.886 808.723 211.133C811.15 215.379 812.363 220.334 812.363 225.996ZM794.669 221.446C794.669 218.48 793.658 216.121 791.635 214.368C789.613 212.616 787.085 211.739 784.052 211.739C781.153 211.739 778.693 212.582 776.671 214.267C774.716 215.952 773.503 218.345 773.031 221.446H794.669Z" fill="#000A2C"/>
<path d="M199.654 267.344L149.827 217.517C122.308 189.998 122.093 145.597 149.345 118.345C176.597 91.0925 220.998 91.3084 248.517 118.827C276.035 146.346 276.251 190.747 248.999 217.999L199.654 267.344Z" fill="#F4ED0F"/>
<path fill-rule="evenodd" clip-rule="evenodd" d="M126.092 181.739L165.416 221.063L204.739 181.739C226.457 160.022 226.457 124.81 204.739 103.092C183.022 81.3747 147.81 81.3747 126.092 103.092C104.375 124.81 104.375 160.022 126.092 181.739ZM165.416 244.832L216.624 193.624C244.905 165.343 244.905 119.489 216.624 91.208C188.343 62.9266 142.489 62.9266 114.208 91.208C85.9266 119.489 85.9266 165.343 114.208 193.624L165.416 244.832Z" fill="#000A2C"/>
<path d="M175.055 155.897H152.918L146.901 166H131.375L164.729 114H179.215L191.769 166H177.135L175.055 155.897ZM172.826 145.051L169.335 128.188L159.381 145.051H172.826Z" fill="#000A2C"/>
</svg>
