<svg width="70" height="67" fill="none" xmlns="http://www.w3.org/2000/svg"><path d="M40.376 67 25.768 52.316c-8.068-8.11-8.131-21.196-.142-29.227 7.99-8.032 21.008-7.968 29.076.142 8.068 8.11 8.131 21.195.141 29.227L40.376 67Z" fill="#F4ED0F"/><path fill-rule="evenodd" clip-rule="evenodd" d="M18.498 41.772 30.027 53.36l11.529-11.59c6.367-6.4 6.367-16.777 0-23.177-6.368-6.4-16.691-6.4-23.058 0-6.368 6.4-6.368 16.777 0 23.178Zm11.529 18.594L45.04 45.274c8.291-8.335 8.291-21.848 0-30.183-8.292-8.334-21.735-8.334-30.027 0-8.291 8.335-8.291 21.848 0 30.183l15.014 15.092Z" fill="#000A2C"/></svg>