<svg width="211" height="80" viewBox="0 0 211 80" fill="none" xmlns="http://www.w3.org/2000/svg">
<path d="M80.5037 25.1517C78.6243 17.7754 75.136 12.5618 70.0901 10.6051C62.9976 7.86318 55.8535 10.4764 50.9879 17.5952C46.6886 23.8772 43.6636 34.9738 42.8784 47.2933C42.8141 48.2073 42.7755 48.941 42.7368 49.4817C42.0417 49.1341 41.0892 48.6192 40.4713 48.2073C36.2879 45.4911 33.2887 41.3073 32.0144 36.4156C31.4995 34.4202 31.3064 30.8415 31.6153 28.7561C32.4906 22.7573 35.8502 17.6982 41.0635 14.4928C40.9219 15.4711 41.1021 16.501 41.6041 17.4407C42.4408 18.9597 43.9983 19.9123 45.6846 19.9252H45.7103C47.6926 19.9252 48.8511 18.9726 51.0909 16.295C53.1375 13.8491 54.3861 11.6092 54.7852 9.65253C55.2099 7.54135 54.7079 5.73913 53.2791 4.2716C51.5156 2.46938 48.9412 2.00595 45.1568 2.82982C39.6089 4.02702 34.563 6.76897 30.5727 10.7339C26.5823 14.7116 23.8277 19.7321 22.592 25.2675C22.3989 26.1429 22.1414 27.958 22.0256 29.3097C20.88 42.3758 29.1567 54.9656 41.6942 59.2652L42.8656 59.6643L42.9428 60.6426C43.2646 64.8907 44.2043 70.336 45.1053 73.2839C45.7103 75.2664 46.7787 76.4636 48.3491 76.9656C48.7996 77.1072 49.263 77.1716 49.7393 77.1716C50.5245 77.1716 51.3097 76.9785 52.0176 76.6052C53.1375 76.013 53.9485 75.0475 54.296 73.889C54.6564 72.6918 54.5663 71.9838 54.0514 70.1687C53.4851 68.1218 52.9959 65.5601 52.6741 62.934C52.6355 62.6508 52.6098 62.3933 52.5711 62.1616C52.5068 61.6467 52.4424 61.1447 52.4296 60.8615C52.5454 60.8486 52.687 60.8486 52.8157 60.8357C52.9573 60.8228 53.1118 60.8228 53.2791 60.81C59.1102 60.4238 64.6709 58.2868 69.3435 54.6309C74.0161 50.975 77.4787 46.0575 79.358 40.3933C80.6195 36.6087 81.0829 34.9867 81.0829 30.7772C81.1215 28.4987 80.9285 26.7994 80.5037 25.1517ZM52.1721 51.4126C52.185 49.6233 52.5583 44.3325 52.9831 41.2687C54.5535 29.9276 58.1448 21.5987 62.354 19.5261C63.1005 19.1657 63.2936 18.9597 64.6066 18.9597C65.9195 18.9597 66.1126 19.1528 66.8463 19.5133C68.0048 20.0797 68.9574 21.2125 69.8713 23.0662C70.7852 24.9071 71.2357 26.5033 71.4803 28.769C72.0081 33.6092 70.4634 39.0159 67.3484 43.2383C64.3234 47.3319 59.9726 50.0996 55.0941 51.0136C53.9485 51.2453 52.8286 51.374 52.1721 51.4126ZM89.9904 21.8304H99.0782V25.9755H94.5086V30.4811H97.7909V34.5876H94.5086V46.6368H90.0033L89.9904 21.8304ZM99.9277 41.7707V21.8304H108.089C110.019 21.8304 110.727 22.8989 110.727 25.6408V31.9358C110.727 33.9568 110.328 35.0896 109.312 35.5273L110.972 41.7836H106.467L104.999 36.0294H104.446V41.7707H99.9277ZM106.312 31.9229V25.9755H104.446V31.9229H106.312ZM118.528 38.2435H116.224L115.954 41.7707H111.41L113.469 21.8304H121.386L123.355 41.7707H118.811L118.528 38.2435ZM116.533 34.2271H118.219L117.601 25.9755H117.176L116.533 34.2271ZM130.486 41.7707L129.173 36.8018C128.684 34.9609 128.066 31.4594 127.577 28.1768C127.706 31.1505 127.822 34.1242 127.822 35.6046V41.7707H124.14V21.8304H129.328L131.04 28.666C131.658 31.1247 132.327 34.7678 132.88 37.7415C132.662 35.1926 132.481 32.4378 132.481 30.4682V21.8175H136.163V41.7579L130.486 41.7707ZM148.185 33.5191V37.6642C148.185 39.7239 147.516 41.7707 144.568 41.7707H141.131C138.956 41.7707 137.54 40.6379 137.54 37.9088V25.2032C137.54 22.8088 138.982 21.8304 141.093 21.8304H144.44C147.413 21.8304 148.185 23.491 148.185 26.1815V29.2453H143.744V25.9627H142.058V37.6514H143.744V33.5191H148.185ZM149.447 21.8304H158.522V25.9755H153.952V29.786H157.234V33.8925H153.952V37.6642H158.522V41.7707H149.447V21.8304ZM101.575 6.92345H96.3364L95.2551 17.3892H92.9639V6.92345H89.9776V20.1054H97.9712L98.1514 17.7754H99.6703L99.8505 20.1054H102.85L101.575 6.92345ZM98.3702 15.1236L98.795 9.6654H99.0782L99.4772 15.1236H98.3702ZM89.9904 47.9627H94.4957V63.4747H89.9904V47.9627ZM102.232 63.4747L100.919 58.5057C100.43 56.6648 99.8119 53.1634 99.3227 49.8808C99.4515 52.8544 99.5673 55.8281 99.5673 57.3085V63.4747H95.8859V43.5344H101.073L102.785 50.3699C103.403 52.8287 104.073 56.4718 104.626 59.4454C104.407 56.8966 104.227 54.1417 104.227 52.1722V43.5215H107.908V63.4618L102.232 63.4747ZM119.777 59.3553C119.777 61.9042 118.605 63.4618 116.275 63.4618H112.774C110.56 63.4618 109.157 62.02 109.157 59.2909V56.4975H113.611V59.3553H115.361V56.7163L111.281 54.013C109.685 52.9703 109.17 52.3266 109.17 50.2412V47.2933C109.17 44.4998 110.612 43.5215 112.877 43.5215H115.941C118.695 43.5215 119.777 44.8345 119.777 47.8726V50.2669H115.361V47.6795H113.611V50.0095L117.666 52.5583C119.287 53.5367 119.777 54.2447 119.777 56.3301V59.3553ZM121.064 59.3553V47.8468C121.064 45.1821 122.48 43.5215 124.616 43.5215H128.324C130.808 43.5215 132.069 45.1821 132.069 47.8726V59.3424C132.069 61.9557 130.808 63.4489 128.452 63.4489H124.642C122.48 63.4747 121.064 62.0586 121.064 59.3553ZM127.577 59.3553V47.6666H125.582V59.3553H127.577ZM144.44 43.5344V59.3682C144.44 61.9814 143.178 63.4747 140.822 63.4747H137.077C134.901 63.4747 133.485 62.0586 133.485 59.3682V43.5344H137.991V59.3682H139.921V43.5344H144.44ZM158.277 54.6309C158.277 53.8971 158.277 52.3009 158.303 50.5244C158.174 51.8761 158.058 53.0733 157.968 53.7169L156.591 63.4747H151.596L150.026 53.7169C149.897 53.0475 149.781 51.8117 149.627 50.4343C149.691 52.3009 149.717 53.9358 149.717 54.6438V63.4747H145.817V43.5344H151.828L153.978 57.7719H154.132L156.037 43.5344H162.087V63.4747H158.277V54.6309ZM163.465 43.5344H167.97V63.4747H163.465V43.5344ZM179.877 59.3553C179.877 61.9042 178.705 63.4618 176.375 63.4618H172.874C170.66 63.4618 169.257 62.02 169.257 59.2909V56.4975H173.711V59.3553H175.461V56.7163L171.381 54.013C169.785 52.9703 169.27 52.3266 169.27 50.2412V47.2933C169.27 44.4998 170.712 43.5215 172.977 43.5215H176.041C178.795 43.5215 179.877 44.8345 179.877 47.8726V50.2669H175.461V47.6795H173.711V50.0095L177.765 52.5583C179.387 53.5367 179.877 54.2447 179.877 56.3301V59.3553ZM181.138 43.5344H190.213V47.6795H185.643V51.4899H188.926V55.5964H185.643V59.3682H190.213V63.4747H181.138V43.5344Z" fill="url(#paint0_linear_394_900)"/>
<defs>
<linearGradient id="paint0_linear_394_900" x1="163.2" y1="83.9553" x2="35.2611" y2="10.0942" gradientUnits="userSpaceOnUse">
<stop offset="0.46" stop-color="#502582"/>
<stop offset="0.61" stop-color="#522580"/>
<stop offset="0.69" stop-color="#5A267D"/>
<stop offset="0.76" stop-color="#682877"/>
<stop offset="0.82" stop-color="#7C2A6E"/>
<stop offset="0.88" stop-color="#952E63"/>
<stop offset="0.93" stop-color="#B53256"/>
<stop offset="0.97" stop-color="#D93746"/>
<stop offset="1" stop-color="#F53B3B"/>
</linearGradient>
</defs>
</svg>
