<svg width="105" height="87" viewBox="0 0 105 87" fill="none" xmlns="http://www.w3.org/2000/svg">
<mask id="mask0_101_46" style="mask-type:luminance" maskUnits="userSpaceOnUse" x="0" y="0" width="105" height="87">
<path d="M89.2597 7.95516L89.2447 7.99275L81.1708 33.5241L81.1633 33.5482C80.0191 37.495 78.1051 43.4955 76.0783 49.8479C74.5974 54.4938 72.3345 60.5425 71.0986 64.5615L71.0821 64.3795L67.3609 48.4301C67.2646 48.0196 66.7083 47.952 66.5159 48.3264C65.6108 50.093 63.6697 53.276 62.4323 54.8577C61.0852 56.5807 59.3621 58.3038 58.4374 59.4705C58.2074 59.7592 58.1307 60.1396 58.2284 60.4959L63.0728 77.6226C63.4743 79.069 64.3132 80.4808 65.4965 81.7032C67.1323 83.3931 69.2764 84.5358 71.6955 85.0064L73.1043 85.2801L73.1495 85.2876C73.4066 85.3252 73.6621 85.3342 73.9117 85.3161C74.647 85.2605 75.1747 85.0891 75.6829 84.6185C75.7641 84.5373 75.8257 84.4396 75.8648 84.3313L93.3072 34.9014L95.9144 27.5115L103.975 4.66996C104.227 3.94676 104.139 3.14538 103.733 2.4733C103.274 1.71703 102.485 1.20282 101.565 1.066C100.95 0.974286 100.341 0.930684 99.7408 0.930684C95.104 0.930684 91.0234 3.59944 89.2567 7.95516M35.8214 44.8397C37.6361 31.7515 41.7799 22.1394 46.6378 19.7533C47.4918 19.3339 47.7143 19.1053 49.2313 19.1053C50.7484 19.1053 50.9709 19.3339 51.8204 19.7518C53.1525 20.4059 54.2636 21.7064 55.3176 23.8459C56.3656 25.9719 56.8858 27.8168 57.173 30.4254C57.7879 36.0035 56.0062 42.2416 52.4083 47.1145C48.9156 51.8431 43.8938 55.0306 38.2691 56.0906C36.9355 56.3417 35.6365 56.489 34.8832 56.5371C34.9012 54.4713 35.3312 48.3685 35.8199 44.8382M26.8062 0.454066C20.4057 1.84032 14.5871 4.99622 9.98178 9.57897C5.37497 14.1617 2.192 19.9623 0.775681 26.3538C0.553159 27.3597 0.259973 29.4526 0.121649 31.0178C-1.19845 46.0906 8.34744 60.6252 22.8189 65.5763L24.1766 66.0409L24.2623 67.1701C24.6351 72.0791 25.7102 78.3518 26.7626 81.7618C27.4663 84.0442 28.6887 85.4334 30.5004 86.0047C31.0191 86.1686 31.5604 86.2498 32.1047 86.2498C33.0053 86.2498 33.9149 86.0288 34.7343 85.5943C36.0304 84.9087 36.9656 83.7931 37.367 82.4549C37.7805 81.0762 37.6737 80.2568 37.0919 78.1578C36.4393 75.8018 35.8725 72.8354 35.4966 69.8057C35.456 69.4765 35.4184 69.1803 35.3824 68.9112C35.3057 68.3143 35.2305 67.7429 35.2185 67.4136C35.3508 67.4031 35.5162 67.3941 35.668 67.3866C35.8304 67.3776 36.0108 67.3685 36.2108 67.3565C42.9436 66.9145 49.3516 64.4472 54.7463 60.2238C60.1364 56.0034 64.1328 50.323 66.3054 43.7992C67.7608 39.427 68.2886 37.5596 68.2916 32.6972C68.2931 30.0931 68.069 28.1205 67.5834 26.2185C65.4138 17.7085 61.3934 11.6914 55.5597 9.44065C47.3715 6.28174 39.1322 9.29631 33.521 17.5026C28.5669 24.7466 25.0712 37.5596 24.1676 51.7755C24.0999 52.8324 24.0428 53.6789 23.9992 54.2969C23.1993 53.8924 22.1047 53.297 21.38 52.8264C16.5522 49.6976 13.0851 44.8637 11.6176 39.215C11.0177 36.9086 10.8012 32.7799 11.1515 30.3818C12.1634 23.4565 16.032 17.6228 22.0566 13.9166C21.8882 15.0473 22.0957 16.2306 22.6851 17.3131C23.6443 19.0722 25.4501 20.1713 27.4001 20.1803H27.4332C29.7246 20.1803 31.0597 19.0752 33.6488 15.984C36.0168 13.1574 37.4512 10.5758 37.9128 8.3145C38.409 5.88481 37.8241 3.79791 36.1777 2.11246C34.7945 0.696133 32.9707 0 30.5681 0C29.4464 0 28.2 0.151857 26.8123 0.452562" fill="white"/>
</mask>
<g mask="url(#mask0_101_46)">
<g filter="url(#filter0_d_101_46)">
<path d="M1.65689 -17.0867L-15.1736 83.9214L101.385 103.343L118.215 2.33478L1.65689 -17.0867Z" fill="white"/>
</g>
</g>
<defs>
<filter id="filter0_d_101_46" x="-19.1736" y="-17.0869" width="141.389" height="128.43" filterUnits="userSpaceOnUse" color-interpolation-filters="sRGB">
<feFlood flood-opacity="0" result="BackgroundImageFix"/>
<feColorMatrix in="SourceAlpha" type="matrix" values="0 0 0 0 0 0 0 0 0 0 0 0 0 0 0 0 0 0 127 0" result="hardAlpha"/>
<feOffset dy="4"/>
<feGaussianBlur stdDeviation="2"/>
<feComposite in2="hardAlpha" operator="out"/>
<feColorMatrix type="matrix" values="0 0 0 0 0.313726 0 0 0 0 0.145098 0 0 0 0 0.509804 0 0 0 1 0"/>
<feBlend mode="normal" in2="BackgroundImageFix" result="effect1_dropShadow_101_46"/>
<feBlend mode="normal" in="SourceGraphic" in2="effect1_dropShadow_101_46" result="shape"/>
</filter>
</defs>
</svg>
