<svg width="918" height="348" viewBox="-18 -7 964 362" fill="none" xmlns="http://www.w3.org/2000/svg"><path d="M434.81 128.677V109.28c-2.598-3.464-7.966-5.715-12.296-5.715-8.14 0-14.028 5.888-14.028 15.414 0 9.525 5.888 15.586 14.028 15.586 4.33 0 9.698-2.424 12.296-5.888Zm0 22.341v-7.447c-5.369 6.062-11.777 9.006-18.877 9.006-15.76 0-28.229-11.95-28.229-33.772 0-20.955 12.296-33.598 28.229-33.424 7.1 0 13.855 2.77 18.877 9.178v-7.62h20.436v64.079H434.81ZM336.267 62.52v68.582h42.085v19.916H313.58l-.173-88.325 22.86-.173Zm168.337 88.498V62.693h64.771V82.61h-41.911l-.173 13.681 41.218.174v19.743h-41.218v34.81h-22.687Zm76.548.173V87.112h20.436v7.794c4.33-5.196 12.469-9.525 20.089-9.525v19.57c-1.212-.347-2.944-.52-5.022-.52-5.369 0-12.296 2.251-14.894 5.888v40.872h-20.609Zm92.654-22.168v-19.396c-2.597-3.464-7.966-5.716-12.296-5.716-8.14 0-14.028 5.889-14.028 15.414 0 9.525 5.888 15.587 14.028 15.587 4.503-.173 9.699-2.425 12.296-5.889Zm0 22.168v-7.447c-5.368 6.062-11.776 9.006-18.877 9.006-15.76 0-28.229-11.95-28.229-33.771 0-20.956 12.296-33.598 28.229-33.425 7.101 0 13.855 2.77 18.877 9.179v-7.62h20.436v64.078h-20.436Zm78.627.173v-36.888c0-7.794-4.157-10.565-10.391-10.565-6.062 0-10.045 3.291-12.47 6.235v41.392h-20.436v-64.08h20.436v7.794c3.81-4.503 11.43-9.352 22.341-9.352 14.375 0 21.129 8.486 21.129 20.263v45.375l-20.609-.174Zm31.173-32.039c0-20.09 14.894-33.598 34.81-33.425 13.855 0 22.341 6.062 26.151 11.777l-13.335 12.296c-2.598-3.637-6.581-6.062-12.123-6.062-8.486 0-14.894 5.889-15.067 15.414 0 9.698 6.408 15.587 14.894 15.587 5.369 0 9.525-2.598 12.123-6.235l13.162 12.469c-3.81 5.542-12.296 11.777-26.324 11.777-19.397 0-34.291-13.682-34.291-33.598Zm100.275-16.972c-8.833 0-12.297 5.369-13.162 9.871h26.324c-.52-4.502-3.81-9.871-13.162-9.871Zm-33.945 16.972c0-18.531 14.028-33.598 33.945-33.425 18.877 0 32.732 14.028 32.732 35.676v4.676h-45.548c1.385 5.716 6.754 10.565 16.106 10.565 4.503 0 11.95-1.905 15.587-5.369l8.832 13.335c-6.407 5.715-16.972 8.486-26.843 8.486-19.744-.173-34.984-13.162-34.811-33.944Z" fill="#0098B6"/><path d="M315.139 260.125v-63.213h20.089v63.213h-20.089Zm-1.386-80.358c0-6.408 5.196-11.43 11.604-11.43 6.408 0 11.603 5.195 11.603 11.603 0 6.408-5.195 11.603-11.603 11.603-6.408 0-11.604-5.368-11.604-11.776Zm78.973 80.531v-36.542c0-7.793-3.983-10.391-10.391-10.391-6.062 0-9.872 3.29-12.296 6.061v40.872h-20.09v-63.213h20.09v7.794c3.81-4.503 11.257-9.352 21.994-9.352 14.201 0 20.782 8.313 20.782 20.089v44.682h-20.089Zm29.441-8.139 8.313-14.375c4.676 4.157 14.721 8.486 22.168 8.486 6.062 0 8.486-1.732 8.486-4.503 0-7.793-36.715.174-36.715-25.458 0-11.084 9.698-20.782 27.19-20.782 10.738 0 19.57 3.463 26.497 8.486l-7.793 14.201c-3.81-3.637-10.911-6.927-18.531-6.927-4.676 0-7.793 1.905-7.793 4.329 0 6.928 36.715-.173 36.542 25.632 0 12.123-10.564 20.609-28.749 20.609-11.43 0-23.033-3.81-29.615-9.698Zm112.744-23.381c0-8.312-5.022-15.24-13.854-15.24-8.66 0-13.682 6.928-13.682 15.24 0 8.487 5.022 15.414 13.508 15.414 9.006 0 14.028-6.927 14.028-15.414Zm-48.145 0c0-17.838 12.816-33.078 34.291-33.078 21.648 0 34.464 15.413 34.464 33.078 0 17.839-12.816 33.252-34.638 33.252-21.301 0-34.117-15.413-34.117-33.252Zm122.096 31.693v-7.62c-3.983 4.503-11.084 9.179-21.822 9.179-14.201 0-20.782-8.313-20.782-19.743v-45.028h20.09v36.715c0 7.793 3.983 10.391 10.391 10.391 5.715 0 9.698-3.117 12.123-6.061v-40.872h20.089v63.213l-20.089-.174Zm114.476.174v-38.448c0-4.849-2.425-8.486-8.313-8.486-5.542 0-9.352 3.464-11.431 6.062v40.872h-20.089v-38.448c0-4.849-2.252-8.486-8.313-8.486-5.542 0-9.352 3.464-11.43 6.062v40.872h-20.09v-63.213h20.09v7.793c2.771-3.637 10.91-9.352 20.782-9.352 9.179 0 15.24 3.81 17.838 11.257 3.637-5.542 11.95-11.257 21.822-11.257 11.603 0 18.877 6.062 18.877 19.051v45.721h-19.743Zm34.637 0v-63.213h20.089v63.213h-20.089Zm-1.213-80.359c0-6.407 5.196-11.43 11.604-11.43 6.408 0 11.603 5.196 11.603 11.604 0 6.407-5.195 11.603-11.603 11.603-6.408 0-11.604-5.369-11.604-11.777Zm30.654 72.219 8.313-14.375c4.676 4.157 14.721 8.487 22.168 8.487 6.061 0 8.486-1.732 8.486-4.503 0-7.794-36.715.173-36.715-25.459 0-11.083 9.698-20.782 27.017-20.782 10.737 0 19.57 3.464 26.497 8.486l-7.793 14.201c-3.81-3.636-10.911-6.927-18.531-6.927-4.676 0-7.794 1.905-7.794 4.33 0 6.927 36.716-.174 36.543 25.631 0 11.95-10.565 20.609-28.749 20.609-11.084.173-22.687-3.637-29.442-9.698Zm98.197-40.179c-8.833 0-12.123 5.195-12.989 9.871h25.978c-.347-4.502-3.637-9.871-12.989-9.871Zm-33.425 16.799c0-18.358 13.855-33.079 33.598-33.079 18.704 0 32.386 13.855 32.212 35.157v4.503H872.97c1.386 5.715 6.581 10.391 15.76 10.391 4.503 0 11.777-1.905 15.413-5.369l8.833 13.162c-6.235 5.542-16.799 8.313-26.497 8.313-19.397.173-34.291-12.469-34.291-33.078Zm-716.123 3.983c22.341 0 44.855-7.62 63.212-23.207 30.135-25.458 43.816-68.581 33.079-104.431l-.173-.693c-1.732-6.58-9.699-26.67-22.514-31.173-14.721-5.196-35.677-2.425-52.822 40.179-12.123 30.308-19.57 70.313-20.609 112.744 0 2.078-.173 4.33-.173 6.581Zm-.693 113.61c-.347.173-.693.173-1.039.346-9.872 3.118-20.263-2.251-23.554-12.123-5.888-18.704-9.871-42.95-11.43-69.447-25.458-6.928-49.011-21.475-67.196-42.95C8.773 194.834-2.484 159.677.46 123.655c2.944-36.196 19.916-68.928 47.453-92.308 18.53-15.76 41.045-26.151 64.945-30.308C114.59.693 118.053 0 122.037 0c14.547 0 21.301 7.62 24.072 12.296 10.392 17.665-5.022 38.274-23.207 57.671-7.1 7.62-18.877 7.967-26.324.866-7.274-6.754-7.966-18.184-1.558-25.805-8.14 3.81-15.933 8.66-22.861 14.548-20.09 16.972-32.213 40.699-34.464 67.023-2.251 26.151 6.062 51.609 23.034 71.699 10.564 12.642 23.726 21.821 38.1 27.536v-.692c.867-33.079 5.716-81.744 23.381-125.56 10.737-26.67 25.112-45.548 42.95-56.112 17.492-10.392 37.235-12.297 56.978-5.37 33.078 11.604 44.682 50.744 46.241 56.806 7.273 24.419 6.754 51.09-1.213 76.894-8.139 26.151-23.207 49.012-43.643 66.504-12.123 10.218-25.458 18.011-39.486 23.207a136.454 136.454 0 0 1-46.76 8.832c1.559 20.609 4.849 39.14 9.352 53.168 2.944 9.525-1.905 19.743-11.257 23.207Z" fill="#C9462C"/></svg>