<svg width="473" height="62" fill="none" xmlns="http://www.w3.org/2000/svg"><g clip-path="url(#a)"><path d="M10.68.68H5.004L1.017 33h6.896l2.298-19.373 7.6 15.667h5.3l7.553-15.668L32.915 33h6.896L35.87.68H30.1l-9.663 20.827L10.68.68ZM67.444 33v-6.051H53.42v-6.896h11.915v-5.957H53.419V6.73h13.603V.68H46.57V33h20.874Zm26.09 0v-6.051H81.43V.679h-6.895V33h18.998Zm26.773 0v-6.051h-14.026v-6.896h11.915v-5.957h-11.915V6.73h13.604V.68H99.432V33h20.875ZM144.755.68v19.326L133.684.68h-6.286V33h6.849V13.439L145.505 33h6.145V.68h-6.895Zm37.842 21.86c-1.83 2.673-4.738 4.456-8.069 4.456-2.673 0-4.878-.985-6.661-2.909-1.782-1.97-2.674-4.362-2.674-7.177 0-2.861.892-5.254 2.674-7.177 1.783-1.97 3.988-2.955 6.661-2.955 3.331 0 5.958 1.407 7.881 4.222l5.582-3.847C185.13 2.978 180.157.304 174.528.304c-4.597 0-8.443 1.595-11.586 4.832-3.096 3.237-4.644 7.13-4.644 11.774 0 4.597 1.548 8.49 4.644 11.727 3.143 3.237 6.989 4.832 11.586 4.832 5.77 0 10.743-2.72 13.604-7.083l-5.535-3.847Zm29.656-8.679h-11.492V.68h-6.849V33h6.849V20.006h11.492V33h6.943V.68h-6.943v13.18Zm39.553 3.049c0 2.674-.938 4.973-2.815 6.896-1.829 1.923-4.081 2.861-6.755 2.861-2.673 0-4.925-.938-6.754-2.814-1.83-1.924-2.768-4.222-2.768-6.943 0-2.72.938-5.02 2.768-6.942 1.829-1.924 4.081-2.862 6.754-2.862 2.674 0 4.926.938 6.755 2.862 1.877 1.923 2.815 4.222 2.815 6.942Zm-25.941 0c0 4.55 1.595 8.49 4.738 11.727 3.19 3.237 7.083 4.832 11.633 4.832 4.551 0 8.444-1.595 11.634-4.832 3.19-3.236 4.785-7.177 4.785-11.727 0-4.597-1.595-8.49-4.785-11.727-3.143-3.237-7.036-4.879-11.634-4.879-4.55 0-8.443 1.642-11.633 4.879-3.143 3.237-4.738 7.13-4.738 11.727ZM282.684.68v19.326L271.613.68h-6.286V33h6.849V13.439L283.434 33h6.145V.68h-6.895Zm33.995 26.128h-9.475l7.083-8.021c2.158-2.44 3.237-5.02 3.237-7.787 0-2.721-.985-4.973-2.956-6.708-1.923-1.736-4.315-2.627-7.083-2.627-5.77 0-9.804 3.659-10.742 9.522l6.004 1.032c.376-2.486 2.064-4.268 4.363-4.268 2.392 0 3.846 1.36 3.846 3.049 0 1.079-.562 2.204-1.641 3.47l-12.619 14.965V33h19.983v-6.192Zm6.983-9.194c0 10.554 3.846 15.855 11.493 15.855 4.315 0 7.411-1.689 9.053-4.69 1.689-3.003 2.345-6.474 2.345-11.165 0-4.691-.656-8.256-2.345-11.258-1.642-3.003-4.738-4.691-9.053-4.691-7.647 0-11.493 5.3-11.493 15.949Zm6.567 0c0-6.38 1.642-9.57 4.926-9.57 3.236 0 4.831 3.19 4.831 9.57 0 6.332-1.595 9.476-4.831 9.476-3.284 0-4.926-3.143-4.926-9.476Zm42.336 9.194h-9.475l7.083-8.021c2.158-2.44 3.237-5.02 3.237-7.787 0-2.721-.985-4.973-2.956-6.708-1.923-1.736-4.315-2.627-7.083-2.627-5.77 0-9.804 3.659-10.742 9.522l6.004 1.032c.376-2.486 2.064-4.268 4.363-4.268 2.392 0 3.846 1.36 3.846 3.049 0 1.079-.562 2.204-1.641 3.47l-12.619 14.965V33h19.983v-6.192Zm26.638 0h-9.476l7.083-8.021c2.158-2.44 3.237-5.02 3.237-7.787 0-2.721-.985-4.973-2.955-6.708-1.923-1.736-4.316-2.627-7.083-2.627-5.77 0-9.804 3.659-10.743 9.522l6.005 1.032c.375-2.486 2.064-4.268 4.362-4.268 2.393 0 3.847 1.36 3.847 3.049 0 1.079-.563 2.204-1.642 3.47l-12.619 14.965V33h19.984v-6.192Zm14.863 2.721c0-2.205-1.83-3.894-4.081-3.894-2.252 0-4.034 1.642-4.034 3.894 0 2.251 1.782 3.94 4.034 3.94 2.251 0 4.081-1.689 4.081-3.94ZM428.199 33V20.1h10.555v-6.004h-10.555V6.73h13.323V.68h-20.218V33h6.895Zm32.184-26.27c2.393 0 3.894 2.3 3.894 4.551 0 2.299-1.595 4.55-4.081 4.55h-5.817v-9.1h6.004Zm3.002 14.824c5.254-1.126 8.069-5.348 8.069-10.273 0-2.908-.938-5.394-2.815-7.458C466.81 1.712 464.136.68 460.712.68h-13.229V33h6.896V21.836h1.548L463.151 33h8.256l-8.022-11.446Z" fill="#3F2682"/><path fill="#F53B3B" d="M0 54h473v7.818H0z"/></g><defs><clipPath id="a"><path fill="#fff" transform="translate(0 .304)" d="M0 0h473v61.514H0z"/></clipPath></defs></svg>