<svg width="220" height="30" viewBox="0 0 220 30" fill="none" xmlns="http://www.w3.org/2000/svg">
<path d="M215.799 21.4849L215.29 21.4617C215.198 21.4575 215.108 21.4331 215.026 21.3901C214.944 21.3471 214.872 21.2866 214.816 21.2128C214.76 21.139 214.72 21.0536 214.7 20.9628C214.68 20.8719 214.68 20.7777 214.7 20.6867L215.843 9.57568C215.853 9.53426 215.858 9.49197 215.859 9.44948L216.353 4.89081C216.355 4.80668 216.373 4.72377 216.407 4.64684C216.441 4.5699 216.489 4.50044 216.55 4.44245C216.61 4.38445 216.681 4.33906 216.759 4.30886C216.837 4.27866 216.92 4.26425 217.004 4.26646L218.64 4.31074C218.725 4.31313 218.808 4.33256 218.885 4.36789C218.962 4.40321 219.031 4.45372 219.089 4.51643C219.146 4.57915 219.19 4.65281 219.219 4.73307C219.248 4.81333 219.26 4.89858 219.256 4.9838L218.514 9.60335C218.512 9.65708 218.502 9.71028 218.487 9.76166L216.428 21.0332C216.388 21.168 216.304 21.2854 216.19 21.3671C216.076 21.4489 215.939 21.4903 215.799 21.4849Z" fill="#E93A55"/>
<path d="M215.46 22.9151C215.309 22.9085 215.158 22.9397 215.021 23.0059C214.657 23.183 213.932 23.6336 213.761 24.4638C213.728 24.6101 213.726 24.762 213.756 24.909C213.786 25.0561 213.847 25.1949 213.935 25.3162C214.03 25.4472 214.151 25.557 214.291 25.6389C214.43 25.7208 214.585 25.7731 214.745 25.7925C214.905 25.8119 215.067 25.798 215.222 25.7517C215.376 25.7054 215.52 25.6276 215.644 25.5232C215.963 25.269 216.227 24.9523 216.422 24.5922C216.508 24.4233 216.552 24.2355 216.548 24.0455C216.545 23.8555 216.495 23.6693 216.403 23.5034C216.311 23.3376 216.18 23.1973 216.021 23.095C215.863 22.9928 215.681 22.9317 215.493 22.9173L215.46 22.9151Z" fill="#E93A55"/>
<path d="M193.73 7.1713H193.609V18.2912C193.261 19.5986 192.211 20.1322 191.146 20.1322C189.819 20.1322 188.538 19.334 188.538 17.2905V7.1713H184.883V10.9838C185.603 12.2185 185.998 13.6177 186.032 15.0494C186.066 16.4811 185.737 17.8978 185.077 19.1658C185.785 21.9554 188.34 23.6303 191.146 23.6303C191.988 23.6325 192.823 23.4775 193.609 23.1731C195.54 22.4171 197.023 20.7599 197.328 18.4606C197.354 18.2613 197.371 18.0576 197.38 17.8495C197.38 17.7576 197.38 17.6658 197.38 17.5728V7.16687L193.73 7.1713Z" fill="#571AFF"/>
<path d="M170.338 10.4403C169.712 8.41779 168.003 6.77167 165.033 6.77167H158.199V23.4875H161.983V17.8119H165.038C166.744 17.8119 168.034 17.2772 168.941 16.4403C168.886 16.0453 168.858 15.6469 168.858 15.2481C168.854 13.5308 169.37 11.8533 170.338 10.4403ZM164.865 14.4875H161.983V10.096H164.894C166.289 10.096 166.818 11.2362 166.818 12.3034C166.818 13.3706 166.284 14.4875 164.865 14.4875Z" fill="#571AFF"/>
<path d="M184.476 10.9836C183.049 8.54158 180.442 6.8877 177.451 6.8877C176.13 6.88579 174.829 7.20813 173.66 7.82687C172.491 8.44561 171.489 9.34214 170.74 10.439C169.771 11.8513 169.253 13.5289 169.255 15.2467C169.256 15.6456 169.284 16.044 169.339 16.439C169.901 20.4674 173.269 23.6346 177.451 23.6346C180.578 23.6346 183.291 21.8113 184.666 19.17C185.326 17.9021 185.654 16.4853 185.62 15.0536C185.586 13.622 185.191 12.2227 184.471 10.9881L184.476 10.9836ZM177.432 20.1552C174.732 20.1552 172.939 17.9479 172.939 15.2479C172.939 12.5479 174.732 10.3637 177.432 10.3637C180.109 10.3637 181.949 12.5479 181.949 15.2479C181.949 17.9479 180.109 20.1552 177.432 20.1552Z" fill="#571AFF"/>
<path d="M206.255 23.8881L202.454 18.0209H201.685V23.8881H197.908V7.17218H204.693C208.543 7.17218 210.275 9.93971 210.275 12.7072C210.275 15.0607 208.543 17.3168 206.401 17.7995L210.66 23.8881H206.255ZM201.683 10.4932V15.0065H204.089C205.75 15.0065 206.471 13.915 206.471 12.7991C206.471 11.6833 205.726 10.4932 204.186 10.4932H201.683Z" fill="#571AFF"/>
<path d="M12.7746 10.2598V6.67969H8.98974V16.1878L3.68133 6.67969H0.212646V23.4343H3.99856V13.8033L9.44748 23.4343H12.7746V19.8376C11.8547 18.4127 11.365 16.749 11.365 15.0487C11.365 13.3484 11.8547 11.6847 12.7746 10.2598Z" fill="#571AFF"/>
<path d="M42.342 18.5345H46.128C46.128 19.6038 47.1894 20.4308 48.4913 20.4308C49.7207 20.4308 50.6614 19.7987 50.6614 18.7049C50.6614 18.0474 50.2992 17.4396 48.8283 16.9536L46.8524 16.3459C43.1873 15.3496 42.488 13.0869 42.488 11.5072C42.488 8.49166 45.0445 6.37616 48.3475 6.37616C51.5308 6.37616 53.9654 8.29682 53.9654 11.5548H50.1784C50.1784 10.5584 49.5758 9.70716 48.2739 9.70716C47.0928 9.70716 46.3212 10.5097 46.3212 11.4341C46.3212 11.7739 46.4178 12.5278 47.9611 12.9662L49.6965 13.5252C52.0599 14.2548 54.4704 15.4703 54.4704 18.5068C54.4704 22.1057 51.3848 23.7097 48.3464 23.7097C44.802 23.7142 42.342 21.6219 42.342 18.5345Z" fill="#571AFF"/>
<path d="M27.9216 10.7591C26.4452 8.23182 23.7504 6.52148 20.656 6.52148C15.9096 6.52148 12.1742 10.4337 12.1742 15.1728C12.1742 19.9119 15.9063 23.8473 20.656 23.8473C23.892 23.8473 26.6999 21.9654 28.1203 19.2266C28.8031 17.9144 29.143 16.4482 29.1079 14.9666C29.0727 13.4851 28.6637 12.037 27.9194 10.7591H27.9216ZM20.6319 20.2506C17.8372 20.2506 15.981 17.9669 15.981 15.1728C15.981 12.3787 17.8415 10.1182 20.6319 10.1182C23.4024 10.1182 25.3058 12.3776 25.3058 15.1728C25.3058 17.968 23.4024 20.2506 20.6319 20.2506Z" fill="#571AFF"/>
<path d="M37.8536 6.8136H37.7284V18.3265C37.3673 19.6749 36.2828 20.2261 35.1851 20.2261C33.8119 20.2261 32.487 19.4003 32.487 17.2859V6.8136H28.6978V10.759C29.4425 12.0366 29.8519 13.4847 29.8873 14.9663C29.9226 16.448 29.5827 17.9142 28.8997 19.2265C29.6319 22.1136 32.2751 23.8472 35.1796 23.8472C36.0509 23.8494 36.9151 23.6887 37.7284 23.3734C39.7273 22.5918 41.2619 20.876 41.5769 18.5025C41.6047 18.2966 41.6226 18.0856 41.6307 17.8693C41.6307 17.7752 41.6373 17.68 41.6373 17.5837V6.8136H37.8536Z" fill="#571AFF"/>
<path d="M131.652 19.9264H138.512V23.1522H127.988V6.93781H138.306V10.1625H131.655V13.5057H137.488V16.8267H131.655L131.652 19.9264Z" fill="#571AFF"/>
<path d="M139.566 18.4215H143.229C143.229 19.4577 144.257 20.2569 145.517 20.2569C146.707 20.2569 147.617 19.6459 147.617 18.5865C147.617 17.9521 147.266 17.3632 145.844 16.8916L143.929 16.3038C140.383 15.3396 139.707 13.1499 139.707 11.62C139.707 8.70195 142.18 6.65509 145.376 6.65509C148.456 6.65509 150.813 8.51376 150.813 11.6676H147.15C147.15 10.7023 146.567 9.87871 145.307 9.87871C144.163 9.87871 143.417 10.6536 143.417 11.5492C143.417 11.8813 143.509 12.6086 145.003 13.0326L146.684 13.575C148.97 14.2802 151.304 15.4569 151.304 18.3983C151.304 21.882 148.317 23.4341 145.376 23.4341C141.943 23.4341 139.566 21.4104 139.566 18.4215Z" fill="#571AFF"/>
<path d="M125.317 6.97852H122.188L117.563 17.1298L112.869 6.97852H109.809L108.817 15.0962L108.403 18.477L108.38 18.6619L108.93 23.2062H109.797H111.584L112.659 13.997L116.161 21.3453H118.964L122.467 13.9726L123.518 23.2062H127.279L125.317 6.97852Z" fill="#571AFF"/>
<path d="M107.716 18.6619L106.304 6.97412H103.175L98.5501 17.1243L93.8564 6.97412H90.796L90.0276 13.3062C90.3967 15.1545 90.1618 17.0737 89.358 18.776L88.8147 23.1531L88.8081 23.2062H92.5677L93.6445 13.997L97.1472 21.3453H99.9507L103.453 13.9738L104.504 23.2062H108.266L107.716 18.6619Z" fill="#571AFF"/>
<path d="M71.7468 16.2732C71.7183 16.0629 71.6963 15.8503 71.6809 15.6356C70.7874 14.6204 69.423 14.037 68.0685 13.6164L66.3868 13.075C64.8917 12.6511 64.7984 11.9215 64.7984 11.5916C64.7984 10.6961 65.546 9.91895 66.6909 9.91895C67.951 9.91895 68.535 10.7437 68.535 11.709H72.2067C72.2067 8.5529 69.8478 6.69202 66.7644 6.69202C63.5657 6.69202 61.0894 8.74109 61.0894 11.6614C61.0894 13.1924 61.7666 15.3832 65.3165 16.3485L67.232 16.9374C68.659 17.409 69.007 17.9979 69.007 18.6333C69.007 19.6939 68.0959 20.306 66.9049 20.306C65.6437 20.306 64.6162 19.5046 64.6162 18.4684H60.95C60.95 21.4573 63.3319 23.4854 66.7677 23.4854C69.5119 23.4854 72.3044 22.1293 72.6612 19.1105C72.5274 18.8552 72.4065 18.5932 72.2989 18.3256C72.0328 17.6667 71.8474 16.9774 71.7468 16.2732Z" fill="#571AFF"/>
<path d="M89.2252 13.3108C89.0353 12.3627 88.6899 11.4531 88.2032 10.6197C86.7279 8.09235 84.032 6.38202 80.9376 6.38202C76.1912 6.38202 72.4591 10.2953 72.4591 15.0333C72.4591 15.2348 72.4668 15.4341 72.48 15.6322C72.4931 15.8304 72.5173 16.0595 72.5469 16.2698C72.6454 16.9763 72.8298 17.6678 73.0958 18.3289C73.2033 18.5965 73.3242 18.8585 73.458 19.1138C74.8751 21.8326 77.6665 23.7079 80.9409 23.7079C84.1769 23.7079 86.9859 21.8259 88.4052 19.0872C88.4579 18.9864 88.5084 18.8835 88.5567 18.7805C89.3604 17.0783 89.5954 15.1591 89.2263 13.3108H89.2252ZM80.9113 20.1112C78.1166 20.1112 76.2615 17.8274 76.2615 15.0333C76.2615 12.2392 78.1188 9.9787 80.9113 9.9787C83.683 9.9787 85.5864 12.2381 85.5864 15.0333C85.5864 17.8285 83.6852 20.1112 80.9113 20.1112Z" fill="#571AFF"/>
</svg>
