<svg width="24" height="24" fill="none" xmlns="http://www.w3.org/2000/svg"><path d="M12 24c6.627 0 12-5.373 12-12S18.627 0 12 0 0 5.373 0 12s5.373 12 12 12Z" fill="url(#a)"/><path d="M4.47 12.587c1.402-.772 2.968-1.417 4.43-2.066 2.518-1.061 5.045-2.105 7.598-3.076.496-.165 1.389-.327 1.476.409-.048 1.042-.245 2.077-.38 3.113-.343 2.278-.74 4.547-1.127 6.818-.133.756-1.08 1.147-1.686.663-1.457-.984-2.925-1.958-4.363-2.965-.47-.478-.034-1.166.387-1.508 1.2-1.182 2.472-2.186 3.609-3.43.307-.74-.6-.116-.899.075-1.642 1.132-3.244 2.333-4.976 3.328-.884.486-1.915.07-2.8-.201-.792-.329-1.954-.66-1.27-1.16Z" fill="#fff"/><defs><linearGradient id="a" x1="16.001" y1="4.001" x2="10.001" y2="18" gradientUnits="userSpaceOnUse"><stop stop-color="#37AEE2"/><stop offset="1" stop-color="#1E96C8"/></linearGradient></defs></svg>