<svg width="24" height="20" fill="none" xmlns="http://www.w3.org/2000/svg"><path d="M7.548 19.985c9.057 0 14.01-7.682 14.01-14.343 0-.219-.005-.436-.014-.652A10.15 10.15 0 0 0 24 2.38a9.642 9.642 0 0 1-2.828.793A5.04 5.04 0 0 0 23.338.385a9.736 9.736 0 0 1-3.127 1.223A4.866 4.866 0 0 0 16.617.016c-2.72 0-4.925 2.257-4.925 5.04 0 .396.043.78.128 1.15C7.727 5.995 4.099 3.989 1.67.939a5.12 5.12 0 0 0-.667 2.533A5.07 5.07 0 0 0 3.195 7.67a4.802 4.802 0 0 1-2.23-.63l-.001.064c0 2.441 1.697 4.48 3.95 4.941a4.822 4.822 0 0 1-2.224.087c.627 2.003 2.445 3.46 4.6 3.501A9.733 9.733 0 0 1 0 17.721a13.704 13.704 0 0 0 7.548 2.264" fill="#1DA1F2"/></svg>