<svg width="24" height="25" fill="none" xmlns="http://www.w3.org/2000/svg"><path d="M20.033 3.907a11.392 11.392 0 0 0-8.23-3.503C5.295.404.063 5.788.128 12.34c0 2.076.574 4.087 1.53 5.903L0 24.404l6.188-1.621c1.723.973 3.637 1.427 5.55 1.427 6.444 0 11.676-5.384 11.676-11.935 0-3.179-1.212-6.163-3.381-8.368Zm-8.23 18.292c-1.723 0-3.445-.454-4.913-1.362l-.383-.195-3.7.973.957-3.697-.255-.39C.702 12.924 2.042 6.827 6.635 3.973 11.229 1.118 17.162 2.48 19.969 7.15c2.807 4.67 1.467 10.703-3.126 13.557-1.468.973-3.254 1.492-5.04 1.492Zm5.614-7.2-.702-.324s-1.02-.455-1.659-.779c-.063 0-.127-.065-.191-.065a.91.91 0 0 0-.447.13s-.063.065-.957 1.103a.35.35 0 0 1-.319.194h-.063a.48.48 0 0 1-.256-.13l-.319-.13c-.701-.323-1.34-.713-1.85-1.231-.127-.13-.319-.26-.446-.39-.447-.454-.893-.973-1.212-1.557l-.064-.13c-.064-.064-.064-.129-.128-.259 0-.13 0-.26.064-.324 0 0 .255-.324.447-.519.127-.13.19-.324.319-.454.127-.195.19-.454.127-.649-.064-.324-.83-2.075-1.02-2.464-.128-.195-.256-.26-.447-.325h-.702c-.128 0-.255.065-.383.065l-.064.065c-.127.065-.255.195-.382.26-.128.13-.192.259-.32.389a3.343 3.343 0 0 0-.701 2.01c0 .52.127 1.038.319 1.492l.064.195a10.802 10.802 0 0 0 2.36 3.308l.255.26c.192.194.383.324.51.518 1.34 1.168 2.872 2.011 4.594 2.465.192.065.447.065.638.13h.638c.32 0 .702-.13.957-.26.191-.13.32-.13.447-.259l.127-.13c.128-.13.256-.194.383-.324.128-.13.255-.26.32-.39.127-.259.19-.583.254-.907v-.454s-.064-.065-.191-.13Z" fill="#00E676"/></svg>