<svg fill="none" height="36" width="36" view-box="0 0 36 36" xmlns="http://www.w3.org/2000/svg">
    <filter id='shadow' color-interpolation-filters="sRGB">
        <feDropShadow dx="0.2" dy="0.2" stdDeviation="1" flood-color="#c4c4c4" />
    </filter>
    <path fill="#fff" filter="url(#shadow)"
        d="M1.177 34.72l2.389-8.684a16.736 16.736 0 01-2.235-8.377C1.314 8.394 8.838.87 18.085.87c4.488 0 8.702 1.74 11.875 4.914a16.673 16.673 0 014.914 11.875c0 9.247-7.524 16.771-16.772 16.771-2.815 0-5.562-.7-8.019-2.047L1.177 34.72zm9.299-5.357l.512.307a13.955 13.955 0 007.097 1.945c7.678 0 13.94-6.261 13.94-13.94 0-3.719-1.45-7.233-4.078-9.86a13.89 13.89 0 00-9.862-4.096C10.39 3.72 4.13 9.981 4.13 17.66c0 2.627.734 5.204 2.133 7.422l.324.529-1.416 5.152 5.306-1.399z">
    </path>
    <path fill="#24cc63" transform="scale(0.85)" transform-origin="center center"
        d="M1.757 34.14l2.304-8.394a16.177 16.177 0 01-2.167-8.087c0-8.923 7.268-16.192 16.191-16.192 4.334 0 8.395 1.69 11.466 4.743a16.109 16.109 0 014.743 11.449c0 8.923-7.268 16.191-16.192 16.191-2.712 0-5.374-.682-7.746-1.979l-8.599 2.27z">
    </path>
    <path fill="#fff"
        d="M13.905 10.63c-.307-.7-.648-.717-.938-.717-.256-.017-.53-.017-.82-.017-.272 0-.733.102-1.125.529-.393.426-1.467 1.433-1.467 3.497 0 2.065 1.501 4.061 1.706 4.334.204.273 2.9 4.64 7.166 6.33 3.548 1.399 4.265 1.126 5.033 1.04.767-.085 2.474-1.006 2.832-1.996.341-.972.341-1.825.239-1.996-.102-.17-.393-.273-.802-.495-.427-.204-2.474-1.228-2.866-1.365-.393-.136-.666-.204-.939.205-.273.427-1.075 1.365-1.33 1.638-.24.273-.495.307-.905.102-.426-.204-1.774-.648-3.378-2.081-1.246-1.11-2.082-2.491-2.338-2.9-.238-.427-.034-.649.188-.854.188-.187.427-.494.632-.733.204-.24.272-.427.426-.7.136-.273.068-.529-.034-.733-.103-.188-.904-2.253-1.28-3.089z"
        clip-rule="evenodd" fill-rule="evenodd"></path>
</svg>