<svg width="50" height="51" viewBox="0 0 50 51" fill="none" xmlns="http://www.w3.org/2000/svg">
<circle cx="32.6273" cy="28.2084" r="12.3759" fill="#F4ED0F"/>
<path d="M24.9999 40.4823C22.1022 40.4823 19.2695 39.623 16.8601 38.0131C14.4507 36.4032 12.5728 34.115 11.4639 31.4378C10.355 28.7606 10.0648 25.8147 10.6302 22.9727C11.1955 20.1306 12.5909 17.52 14.6399 15.471C16.6889 13.4219 19.2995 12.0265 22.1416 11.4612C24.9837 10.8959 27.9296 11.186 30.6067 12.295C33.2839 13.4039 35.5721 15.2818 37.182 17.6912C38.792 20.1006 39.6512 22.9332 39.6512 25.831C39.6469 29.7154 38.1019 33.4395 35.3552 36.1862C32.6085 38.9329 28.8844 40.478 24.9999 40.4823ZM24.9999 13.4351C22.5483 13.4351 20.1516 14.1621 18.1131 15.5242C16.0747 16.8863 14.4858 18.8222 13.5476 21.0873C12.6094 23.3523 12.3639 25.8447 12.8422 28.2493C13.3205 30.6539 14.5011 32.8626 16.2347 34.5962C17.9683 36.3298 20.177 37.5104 22.5816 37.9887C24.9862 38.467 27.4786 38.2215 29.7436 37.2833C32.0087 36.3451 33.9447 34.7563 35.3067 32.7178C36.6688 30.6793 37.3958 28.2827 37.3958 25.831C37.3921 22.5445 36.0849 19.3938 33.761 17.0699C31.4372 14.746 28.2864 13.4388 24.9999 13.4351Z" fill="black"/>
<path d="M16.2327 26.9586C15.9336 26.9586 15.6468 26.8398 15.4353 26.6283C15.2238 26.4169 15.105 26.13 15.105 25.8309C15.1079 23.2075 16.1513 20.6924 18.0063 18.8374C19.8614 16.9824 22.3765 15.9389 24.9999 15.936C25.299 15.936 25.5858 16.0548 25.7973 16.2663C26.0088 16.4778 26.1276 16.7647 26.1276 17.0637C26.1276 17.3628 26.0088 17.6497 25.7973 17.8611C25.5858 18.0726 25.299 18.1914 24.9999 18.1914C22.9745 18.1938 21.0327 18.9994 19.6005 20.4316C18.1683 21.8637 17.3627 23.8055 17.3604 25.8309C17.3604 26.13 17.2416 26.4168 17.0301 26.6283C16.8186 26.8398 16.5318 26.9586 16.2327 26.9586Z" fill="black"/>
<path d="M24.9998 8.91661C24.7007 8.9166 24.4139 8.79778 24.2024 8.5863C23.9909 8.37482 23.8721 8.08799 23.8721 7.78891V1.95876C23.8721 1.65967 23.9909 1.37284 24.2024 1.16135C24.4139 0.949866 24.7007 0.831055 24.9998 0.831055C25.2989 0.831055 25.5857 0.949866 25.7972 1.16135C26.0087 1.37284 26.1275 1.65967 26.1275 1.95876V7.78891C26.1275 8.08799 26.0086 8.37482 25.7972 8.5863C25.5857 8.79778 25.2989 8.9166 24.9998 8.91661Z" fill="black"/>
<path d="M24.9998 50.8307C24.7007 50.8307 24.4139 50.7119 24.2024 50.5004C23.9909 50.2889 23.8721 50.0021 23.8721 49.703V43.8728C23.8721 43.5737 23.9909 43.2869 24.2024 43.0754C24.4139 42.8639 24.7007 42.7451 24.9998 42.7451C25.2989 42.7451 25.5857 42.8639 25.7972 43.0754C26.0087 43.2869 26.1275 43.5737 26.1275 43.8728V49.703C26.1275 50.0021 26.0086 50.2889 25.7972 50.5004C25.5857 50.7119 25.2989 50.8307 24.9998 50.8307Z" fill="black"/>
<path d="M6.95786 26.9585H1.1277C0.828616 26.9585 0.541781 26.8397 0.330296 26.6282C0.118811 26.4167 0 26.1299 0 25.8308C0 25.5317 0.118811 25.2449 0.330296 25.0334C0.541781 24.8219 0.828616 24.7031 1.1277 24.7031H6.95786C7.25694 24.7031 7.54378 24.8219 7.75526 25.0334C7.96675 25.2449 8.08556 25.5317 8.08556 25.8308C8.08556 26.1299 7.96675 26.4167 7.75526 26.6282C7.54378 26.8397 7.25694 26.9585 6.95786 26.9585Z" fill="black"/>
<path d="M48.872 26.9585H43.0418C42.7427 26.9585 42.4558 26.8397 42.2444 26.6282C42.0329 26.4167 41.9141 26.1299 41.9141 25.8308C41.9141 25.5317 42.0329 25.2449 42.2444 25.0334C42.4558 24.8219 42.7427 24.7031 43.0418 24.7031H48.872C49.1711 24.7031 49.4579 24.8219 49.6694 25.0334C49.8809 25.2449 49.9997 25.5317 49.9997 25.8308C49.9997 26.1299 49.8809 26.4167 49.6694 26.6282C49.4579 26.8397 49.1711 26.9585 48.872 26.9585Z" fill="black"/>
<path d="M8.11965 43.8387C7.89664 43.8387 7.67866 43.7725 7.49326 43.6486C7.30785 43.5247 7.16335 43.3486 7.07802 43.1425C6.99268 42.9365 6.97035 42.7098 7.01384 42.4911C7.05734 42.2723 7.1647 42.0714 7.32236 41.9137L11.445 37.7911C11.5493 37.6849 11.6737 37.6003 11.8109 37.5424C11.9481 37.4845 12.0954 37.4543 12.2444 37.4536C12.3933 37.453 12.5409 37.4818 12.6786 37.5385C12.8163 37.5952 12.9415 37.6786 13.0468 37.7839C13.1521 37.8892 13.2355 38.0143 13.2922 38.152C13.3489 38.2898 13.3777 38.4374 13.377 38.5863C13.3764 38.7352 13.3462 38.8826 13.2883 39.0198C13.2303 39.157 13.1458 39.2813 13.0395 39.3857L8.91697 43.5083C8.81239 43.6132 8.68811 43.6964 8.55128 43.7531C8.41445 43.8098 8.26776 43.8389 8.11965 43.8387Z" fill="black"/>
<path d="M37.7573 14.2006C37.5343 14.2006 37.3164 14.1344 37.131 14.0105C36.9455 13.8866 36.801 13.7104 36.7157 13.5044C36.6304 13.2984 36.608 13.0717 36.6515 12.853C36.695 12.6342 36.8024 12.4333 36.9601 12.2756L41.0827 8.15301C41.1874 8.04831 41.3117 7.96525 41.4485 7.90859C41.5853 7.85192 41.7319 7.82275 41.88 7.82275C42.0281 7.82275 42.1747 7.85192 42.3115 7.90859C42.4483 7.96525 42.5726 8.04831 42.6773 8.15301C42.782 8.25772 42.8651 8.38202 42.9217 8.51883C42.9784 8.65563 43.0076 8.80226 43.0076 8.95033C43.0076 9.09841 42.9784 9.24503 42.9217 9.38184C42.8651 9.51864 42.782 9.64294 42.6773 9.74765L38.5546 13.8702C38.4501 13.9751 38.3258 14.0583 38.189 14.115C38.0521 14.1717 37.9055 14.2008 37.7573 14.2006Z" fill="black"/>
<path d="M41.8799 43.8387C41.7318 43.8389 41.5852 43.8098 41.4483 43.7531C41.3115 43.6964 41.1872 43.6132 41.0827 43.5083L36.9601 39.3857C36.8538 39.2813 36.7693 39.157 36.7113 39.0198C36.6534 38.8826 36.6232 38.7352 36.6226 38.5863C36.6219 38.4374 36.6507 38.2898 36.7074 38.152C36.7641 38.0143 36.8475 37.8892 36.9528 37.7839C37.0581 37.6786 37.1833 37.5952 37.321 37.5385C37.4587 37.4818 37.6063 37.453 37.7552 37.4536C37.9042 37.4543 38.0515 37.4845 38.1887 37.5424C38.3259 37.6003 38.4503 37.6849 38.5546 37.7911L42.6772 41.9137C42.8349 42.0714 42.9423 42.2724 42.9858 42.4911C43.0293 42.7098 43.0069 42.9365 42.9216 43.1425C42.8363 43.3486 42.6918 43.5247 42.5064 43.6486C42.3209 43.7725 42.103 43.8387 41.88 43.8387L41.8799 43.8387Z" fill="black"/>
<path d="M12.2424 14.2006C12.0942 14.2008 11.9476 14.1717 11.8107 14.115C11.6739 14.0583 11.5496 13.9751 11.4451 13.8702L7.32245 9.74765C7.11099 9.53619 6.99219 9.24938 6.99219 8.95033C6.99219 8.65128 7.11099 8.36448 7.32245 8.15301C7.53391 7.94155 7.82071 7.82275 8.11977 7.82275C8.41882 7.82275 8.70562 7.94155 8.91708 8.15301L13.0396 12.2756C13.1973 12.4333 13.3047 12.6343 13.3482 12.853C13.3917 13.0717 13.3693 13.2984 13.284 13.5044C13.1987 13.7105 13.0542 13.8866 12.8687 14.0105C12.6833 14.1344 12.4654 14.2006 12.2424 14.2006Z" fill="black"/>
</svg>
