<svg width="680" height="158" fill="none" xmlns="http://www.w3.org/2000/svg"><path fill="#fff" d="M0 0h680v158H0z"/><path d="M181.756 43.885h8.405v32.991h9.22v7.7h-17.625V43.885Zm15.576 0h8.217v7.7l-8.217 6.887V43.885Zm31.654 0V76.5c0 5.196-2.384 8.075-6.962 8.075h-7.402c-4.14 0-6.836-2.691-6.836-7.95V43.884h8.342v32.991h4.453v-32.99h8.405Zm14.28 40.691-3.011-12.082c-1.003-3.631-2.132-10.517-3.136-16.839.251 5.822.501 11.831.501 14.773v14.148h-6.899V43.885h9.786l3.638 15.213c1.192 4.632 2.508 11.894 3.575 17.778-.377-5.195-.753-10.893-.753-14.71V43.884h6.899v40.691h-10.6Zm12.754-40.691h8.403v40.691h-8.403V43.885Zm10.266 32.739V52.087c0-5.135 2.571-8.202 6.836-8.202h7.214c4.955 0 7.213 3.065 7.213 8.326V76.5c0 5.196-2.383 8.075-6.962 8.075h-7.457c-4.147 0-6.844-2.691-6.844-7.952Zm12.921.25V51.648h-4.578v25.23l4.578-.002Zm22.978 7.702-3.011-12.082c-1.005-3.631-2.134-10.517-3.137-16.839.25 5.822.502 11.831.502 14.773v14.148h-6.899V43.885h9.784l3.638 15.213c1.192 4.632 2.509 11.894 3.575 17.778-.376-5.195-.753-10.893-.753-14.71V43.884h6.901v40.691h-10.6Zm18.841-40.691h15.555c4.387 0 5.265 2.693 5.265 7.576v16.345c0 3.82-1.442 7.136-6.083 7.136h-6.336v9.641h-8.405l.004-40.698Zm12.416 23.413v-15.65h-4.014v15.65h4.014Zm9.642 9.326V52.087c0-5.135 2.571-8.202 6.836-8.202h7.21c4.956 0 7.214 3.065 7.214 8.326V76.5c0 5.196-2.384 8.075-6.962 8.075h-7.458c-4.144 0-6.84-2.691-6.84-7.952Zm12.92.25V51.648h-4.576v25.23l4.576-.002Zm10.58-32.989h15.551c4.387 0 5.264 2.693 5.264 7.576v16.345c0 3.82-1.443 7.136-6.084 7.136h-6.335v9.641h-8.405l.009-40.698Zm12.419 23.413v-15.65h-4.014v15.65h4.014Zm30.985-23.413V76.5c0 5.196-2.383 8.075-6.963 8.075h-7.401c-4.139 0-6.837-2.691-6.837-7.95V43.884h8.335v32.991h4.461v-32.99h8.405Zm37.133 0H432.38l-3.51 32.991h-8.596V43.885h-8.405v40.691h24.649l.627-7.512h5.019l.627 7.512h8.468l-4.138-40.691Zm-9.347 25.666 1.443-17.84h.94l1.444 17.84h-3.827Zm14.301-25.666h8.405v40.691h-8.405V43.885Zm10.35 40.691V43.885h15.5c3.888 0 5.394 2.13 5.394 7.45v13.333c0 3.82-.816 5.949-2.822 6.824l3.449 13.084h-8.405l-3.137-12.144h-1.567v12.144h-8.412Zm12.607-19.782V51.647h-4.202v13.147h4.202Zm10.058-20.909h17.498v7.762h-9.095v8.89h6.58v7.638h-6.58v8.701h9.095v7.7H485.09V43.885Z" fill="#3F2682"/><path d="M511.802 93.376H172V35h339.802v58.376Zm-337.024-2.304h334.246v-53.77H174.778v53.77Z" fill="#3F2682"/><path fill="#FE142D" d="M334.931 93.376h176.871V123H334.931z"/><path d="M349.751 102.074h-2.15l-1.315 10.659h2.661l.665-5.74 2.166 4.502h1.949l2.15-4.502.65 5.74h2.661l-1.299-10.659h-2.182l-2.954 6.482-3.002-6.482Zm18.303 8.4h-4.471v-1.887h3.805v-2.212h-3.805v-2.043h4.331v-2.258h-6.915v10.659h7.055v-2.259Zm8.385 0h-3.836v-8.4h-2.615v10.659h6.451v-2.259Zm8.61 0h-4.47v-1.887h3.805v-2.212h-3.805v-2.043h4.331v-2.258h-6.915v10.659h7.054v-2.259Zm7.458-2.661-3.187-5.739h-2.336v10.659h2.584v-5.817l3.264 5.817h2.258v-10.659h-2.583v5.739Zm12.202 1.13a2.827 2.827 0 0 1-2.414 1.33c-.789 0-1.454-.278-1.995-.835a2.814 2.814 0 0 1-.82-2.027c0-.789.278-1.47.82-2.027.541-.572 1.206-.85 1.995-.85.99 0 1.903.526 2.398 1.345 0 0 .712-.495 2.15-1.5a5.433 5.433 0 0 0-4.548-2.444c-1.5 0-2.784.541-3.852 1.609-1.052 1.067-1.578 2.351-1.578 3.867 0 1.501.526 2.8 1.594 3.868 1.067 1.067 2.336 1.593 3.836 1.593a5.43 5.43 0 0 0 4.533-2.444l-2.119-1.485Zm6.281-2.661v-4.208h-2.584v10.659h2.584v-4.146h3.249v4.146h2.629v-10.659h-2.629v4.208h-3.249Zm7.66 1.129c0 1.501.526 2.8 1.594 3.868 1.067 1.067 2.336 1.593 3.836 1.593 1.516 0 2.8-.526 3.852-1.593 1.068-1.068 1.594-2.367 1.594-3.868 0-1.516-.526-2.8-1.594-3.867-1.052-1.068-2.336-1.609-3.852-1.609-1.5 0-2.785.541-3.852 1.609-1.052 1.067-1.578 2.351-1.578 3.867Zm5.43 2.862c-.789 0-1.454-.278-1.996-.835a2.817 2.817 0 0 1-.819-2.027c0-.789.278-1.47.819-2.027.542-.572 1.207-.85 1.996-.85a2.69 2.69 0 0 1 2.011.85 2.77 2.77 0 0 1 .836 2.027 2.77 2.77 0 0 1-.836 2.027c-.541.557-1.222.835-2.011.835Zm12.752-2.46-3.187-5.739h-2.336v10.659h2.584v-5.817l3.264 5.817h2.258v-10.659h-2.583v5.739Zm8.35 2.692 2.243-2.413c.696-.774 1.052-1.625 1.052-2.537 0-.913-.325-1.656-.99-2.244-.666-.587-1.455-.881-2.367-.881-2.042 0-3.373 1.253-3.698 3.341l2.228.341c.139-.867.464-1.377 1.284-1.377.743 0 1.068.386 1.068.82 0 .263-.155.572-.465.928l-4.192 4.857v1.393h7.132v-2.228h-3.295Zm7.539-2.831c0-1.686.433-2.846 1.377-2.846.882 0 1.315.943 1.315 2.846 0 1.872-.433 2.816-1.315 2.816-.944 0-1.377-1.145-1.377-2.816Zm-2.475 0c0 3.465 1.284 5.198 3.852 5.198 2.521 0 3.79-1.733 3.79-5.198 0-1.547-.232-2.723-.789-3.713-.541-.99-1.578-1.531-3.001-1.531-2.568 0-3.852 1.748-3.852 5.244Zm13.064 2.831 2.244-2.413c.696-.774 1.052-1.625 1.052-2.537 0-.913-.325-1.656-.99-2.244-.666-.587-1.455-.881-2.367-.881-2.042 0-3.373 1.253-3.698 3.341l2.228.341c.139-.867.464-1.377 1.284-1.377.743 0 1.067.386 1.067.82 0 .263-.154.572-.464.928l-4.192 4.857v1.393h7.132v-2.228h-3.296Zm8.793 0 2.243-2.413c.696-.774 1.052-1.625 1.052-2.537 0-.913-.325-1.656-.99-2.244-.665-.587-1.454-.881-2.367-.881-2.042 0-3.372 1.253-3.697 3.341l2.227.341c.14-.867.465-1.377 1.284-1.377.743 0 1.068.386 1.068.82 0 .263-.155.572-.464.928l-4.193 4.857v1.393h7.132v-2.228h-3.295Zm4.971.928c0 .82.65 1.439 1.455 1.439.819 0 1.485-.619 1.485-1.439 0-.804-.666-1.408-1.485-1.408-.805 0-1.455.604-1.455 1.408Zm7.505-2.831h3.357v-2.227h-3.357v-2.043h4.238v-2.258h-6.853v10.659h2.615v-4.131Zm8.399.573h.232l2.289 3.558h3.001l-2.599-3.682c.82-.201 1.455-.619 1.888-1.253.448-.635.665-1.362.665-2.166 0-.975-.309-1.81-.944-2.506-.634-.696-1.531-1.052-2.707-1.052h-4.409v10.659h2.584v-3.558Zm1.701-4.843c1.547-.092 1.547 2.692 0 2.615h-1.701v-2.615h1.701Z" fill="#fff"/></svg>