<svg version="1.0" xmlns="http://www.w3.org/2000/svg" width="682.667" height="682.667" viewBox="0 0 512 512"><path d="M234.5 67.6c-13.2 1.9-17.4 2.8-28.2 6.3-26.3 8.5-49.7 24-69.3 45.7-4.7 5.2-12.4 15.3-14 18.4-.7 1.4-1.6 2.7-1.9 3-.3.3-1.6 2.3-2.8 4.5-1.1 2.2-3 5.6-4.1 7.5-3.2 5.8-9.1 21.3-11.3 29.7-4.7 17.9-6.5 41.1-4.5 58.8 3.1 28.2 13.9 55.1 31.5 78.5 6.6 8.7 124.7 127.3 126.1 126.5.4-.3 9.5-9.3 20.2-20l19.3-19.4 13.7 13.6 13.6 13.6 48.9-48.9c33.9-34 50.4-51.3 54-56.5 8.6-12.6 17.3-31.6 19.7-43.4 5.3-25.3 4.1-47.8-3.6-71-3-9-8.6-20.1-15.1-29.8-5.7-8.6-20.4-24.5-27.2-29.4-1.6-1.2-3.9-3.9-5-6-2.1-4.1-12-19.4-15.1-23.4-4.3-5.4-24.3-24.8-28.9-27.9-2.7-1.8-5.2-3.7-5.5-4-1-1.3-15.7-9.8-22.3-12.8-6.3-2.9-22.2-8.9-25.7-9.7-.8-.2-3.5-.8-6-1.3-2.5-.6-6.5-1.4-9-1.7-2.4-.4-4.8-.9-5.3-1.2-1.9-1.1-33.8-1-42.2.3zm30 35.8c11 .7 20.8 2.5 26 4.6 1.1.5 3.8 1.4 6 2.1 4.8 1.4 21.3 9.5 23.6 11.5.8.8 1.9 1.4 2.3 1.4.5 0 2.1 1.1 3.8 2.5 1.6 1.4 2.4 2.5 1.6 2.5-10.9.1-25 1.2-31.4 2.4-37.4 7.4-70 31.9-87.4 65.7-4.1 8.1-10.4 25.6-11.4 31.9-.3 1.9-1 5.7-1.5 8.4-1.4 7.7-.6 32.9 1.3 42.1 2.3 10.4 5.6 20.4 10.2 30.1 7.5 16.1 13.5 23.6 39.3 49.7 11.9 11.9 21.7 22.1 21.9 22.6.3.9-12.3 14.1-13.4 14.1-.4 0-21.7-21-47.3-46.8-37.5-37.6-47.8-48.5-52.6-55.7-10.5-15.6-16-29-20-49-1.4-6.9-1.3-29.2.2-38.5 8.7-54.9 54.7-97.6 109.3-101.7 4.1-.3 7.6-.6 7.8-.8.2-.2 1.1-.1 2 .1.9.1 5.3.5 9.7.8z"/></svg>