<?xml version="1.0" standalone="no"?>
<!DOCTYPE svg PUBLIC "-//W3C//DTD SVG 20010904//EN"
 "http://www.w3.org/TR/2001/REC-SVG-20010904/DTD/svg10.dtd">
<svg version="1.0" xmlns="http://www.w3.org/2000/svg"
 width="512.000000pt" height="512.000000pt" viewBox="0 0 512.000000 512.000000"
 preserveAspectRatio="xMidYMid meet">
<metadata>
Created by potrace 1.11, written by Peter Selinger 2001-2013
</metadata>
<g transform="translate(0.000000,512.000000) scale(0.100000,-0.100000)"
fill="#000000" stroke="none">
<path d="M2345 4444 c-132 -19 -174 -28 -282 -63 -263 -85 -497 -240 -693
-457 -47 -52 -124 -153 -140 -184 -7 -14 -16 -27 -19 -30 -3 -3 -16 -23 -28
-45 -11 -22 -30 -56 -41 -75 -32 -58 -91 -213 -113 -297 -47 -179 -65 -411
-45 -588 31 -282 139 -551 315 -785 66 -87 1247 -1273 1261 -1265 4 3 95 93
202 200 l193 194 137 -136 136 -136 489 489 c339 340 504 513 540 565 86 126
173 316 197 434 53 253 41 478 -36 710 -30 90 -86 201 -151 298 -57 86 -204
245 -272 294 -16 12 -39 39 -50 60 -21 41 -120 194 -151 234 -43 54 -243 248
-289 279 -27 18 -52 37 -55 40 -10 13 -157 98 -223 128 -63 29 -222 89 -257
97 -8 2 -35 8 -60 13 -25 6 -65 14 -90 17 -24 4 -48 9 -53 12 -19 11 -338 10
-422 -3z m300 -358 c110 -7 208 -25 260 -46 11 -5 38 -14 60 -21 48 -14 213
-95 236 -115 8 -8 19 -14 23 -14 5 0 21 -11 38 -25 16 -14 24 -25 16 -25 -109
-1 -250 -12 -314 -24 -374 -74 -700 -319 -874 -657 -41 -81 -104 -256 -114
-319 -3 -19 -10 -57 -15 -84 -14 -77 -6 -329 13 -421 23 -104 56 -204 102
-301 75 -161 135 -236 393 -497 119 -119 217 -221 219 -226 3 -9 -123 -141
-134 -141 -4 0 -217 210 -473 468 -375 376 -478 485 -526 557 -105 156 -160
290 -200 490 -14 69 -13 292 2 385 87 549 547 976 1093 1017 41 3 76 6 78 8 2
2 11 1 20 -1 9 -1 53 -5 97 -8z"/>
</g>
</svg>
