<svg width="202" height="160" fill="none" xmlns="http://www.w3.org/2000/svg"><g clip-path="url(#a)"><path d="M28.12 94.436c0-29.82 26.226-54.956 62.012-62.673a108.82 108.82 0 0 1 18.522-2.347c1.545-.064 3.102-.096 4.67-.097 2.728 0 5.423.097 8.085.291 1.478.106 2.942.24 4.395.403 14.125 1.585 27.125 5.818 38.104 12.02a84.695 84.695 0 0 1 4.019 2.415 80.12 80.12 0 0 1 6.924 4.945c14.666 11.694 2.438 36.655-5.206 52.37-20.63 42.413-9.265 57.789-56.321 57.789s-85.203-29.153-85.203-65.116Z" fill="#F2F2F2"/><path d="M27.913 156.378h3.674l1.747-14.171-5.422.001v14.17Z" fill="#FFB8B8"/><path d="m38.673 159.789-11.547.001v-4.461l7.085-.001a4.464 4.464 0 0 1 4.462 4.461Z" fill="#2F2E41"/><path d="M57.48 156.378h3.673l1.747-14.171-5.422.001.001 14.17Z" fill="#FFB8B8"/><path d="m68.239 159.789-11.547.001v-4.461l7.085-.001a4.464 4.464 0 0 1 4.462 4.461Zm-41.121-8.63a1.446 1.446 0 0 1-1.419-1.168l-2.359-29.645c-2.54-25.105 1.808-33.949 1.852-34.035l.047-.094.105.007 20.392 1.173 4.329 14.16 11.442 15.374a13.922 13.922 0 0 1 2.738 8.447l-.29 22.416a1.453 1.453 0 0 1-1.345 1.424l-5.974.415a1.444 1.444 0 0 1-1.538-1.288l-1.48-24.336a.13.13 0 0 0-.034-.067l-16.97-15.816a.479.479 0 0 0-.445-.143.487.487 0 0 0-.357.301L34.1 149.482a1.433 1.433 0 0 1-.832 1.443c-.182.084-.38.129-.58.133l-5.543.101h-.027ZM41.454 55.64c4.99-2.729 6.824-8.985 4.096-13.975-2.728-4.99-8.984-6.824-13.974-4.096-4.99 2.727-6.824 8.984-4.096 13.974 2.727 4.99 8.984 6.824 13.974 4.096Z" fill="#2F2E41"/><path d="M80.746 66.816a3.014 3.014 0 0 0-4.325 1.628l-6.875.385-.785 4.236 9.702-.681a3.03 3.03 0 0 0 2.283-5.568Zm-56.815 34.947a3.012 3.012 0 0 0-1.911-4.207l-.843-6.834-4.278-.501 1.325 9.635a3.03 3.03 0 0 0 5.707 1.907Zm12.133-44.114a7.893 7.893 0 1 0 0-15.786 7.893 7.893 0 0 0 0 15.786Z" fill="#FFB8B8"/><path d="M37.62 90.186c-4.197 0-7.714-.34-11.202-1.586-1.436-.514-1.59-1.15-1.791-1.946-.317-1.25-.491-16.026 1.145-20.93a7.36 7.36 0 0 1 6.098-4.958c1.558-.183 6.218-.842 8.858-1.219a4.987 4.987 0 0 1 3.678.902c.7.525 1.063 1.09 1.08 1.677l.717 24.983a2.784 2.784 0 0 1-2.6 2.869 89.984 89.984 0 0 1-5.983.208Z" fill="#F4ED0F"/><path d="M16.743 96.305a1.448 1.448 0 0 1-1.445-1.502l.25-11.458a8.16 8.16 0 0 1 1.227-3.997l9.727-15.602a3.385 3.385 0 0 1 2.87-1.587 3.346 3.346 0 0 1 2.86 1.608 3.375 3.375 0 0 1 .079 3.384l-9.435 17.147.65 10.525a1.446 1.446 0 0 1-1.443 1.472l-5.337.01h-.003Zm57.643-21.534a1.432 1.432 0 0 1-1.024.482l-11.45.607a8.157 8.157 0 0 1-4.074-.924L41.55 66.403a3.367 3.367 0 0 1-.407-5.715l.094.13-.094-.13a3.375 3.375 0 0 1 3.369-.332l17.805 8.126 10.454-1.436a1.445 1.445 0 0 1 1.568 1.33l.41 5.321.003.08c.01.366-.122.722-.367.994Z" fill="#F4ED0F"/><path d="m30.218 48.638-2.048-5.53 9.208-2.665 6.581 2.022v6.173H30.217Z" fill="#2F2E41"/><path d="M39.897 36.17a11.217 11.217 0 0 0-19.837-6.14c-1.936 2.352-2.83 5.38-3.485 8.355-.655 2.975-1.129 6.03-2.4 8.798-1.271 2.77-3.512 5.285-6.471 6.012-2.959.726-6.553-.91-7.236-3.88A15.055 15.055 0 0 0 5.577 59.84c2.563 2.223 6.749 1.437 9.273-.831 2.523-2.269 3.772-5.598 4.853-8.814 1.08-3.217 2.146-6.571 4.438-9.073 2.292-2.502 8.788-5.162 11.733-3.474 2.308 1.323 3.137.482 4.023-1.477Z" fill="#2F2E41"/><path d="M196.23 101.992H84.393a5.307 5.307 0 0 1-5.303-5.302V39.807a5.309 5.309 0 0 1 5.302-5.303H196.23a5.309 5.309 0 0 1 5.303 5.303V96.69a5.31 5.31 0 0 1-5.303 5.302Z" fill="#E6E6E6"/><path d="M194.945 98.136H85.678a2.735 2.735 0 0 1-2.732-2.732V41.092a2.735 2.735 0 0 1 2.732-2.732h109.267a2.733 2.733 0 0 1 2.731 2.732v54.312a2.736 2.736 0 0 1-2.731 2.732Z" fill="#fff"/><path d="M183.054 90.262H97.569a2.571 2.571 0 0 1 0-5.142h85.485a2.57 2.57 0 1 1 0 5.142Zm0-10.926H97.569a2.571 2.571 0 0 1 0-5.142h85.485a2.57 2.57 0 1 1 0 5.142Z" fill="#E6E6E6"/><path d="M116.208 66.682h-18.64a2.735 2.735 0 0 1-2.731-2.732V50.37a2.735 2.735 0 0 1 2.732-2.73h18.639a2.735 2.735 0 0 1 2.732 2.73v13.58a2.736 2.736 0 0 1-2.732 2.732Z" fill="#F4ED0F"/><path d="M183.149 65.195h-43.386a2.572 2.572 0 0 1 0-5.142h43.386a2.572 2.572 0 0 1 0 5.142Zm-17.997-10.926h-25.389a2.572 2.572 0 0 1 0-5.142h25.389a2.57 2.57 0 1 1 0 5.142ZM80.913 160H17.28a.323.323 0 0 1-.321-.321.323.323 0 0 1 .321-.322h63.632a.322.322 0 0 1 .227.549.322.322 0 0 1-.227.094Z" fill="#CCC"/></g><defs><clipPath id="a"><path fill="#fff" transform="translate(.477)" d="M0 0h201.047v160H0z"/></clipPath></defs></svg>