<svg width="48" height="49" viewBox="0 0 48 49" fill="none" xmlns="http://www.w3.org/2000/svg">
<circle cx="24" cy="24.6243" r="24" fill="#571AFF"/>
<path d="M28.1377 24.93H28.0632V31.9418C27.8497 32.7484 27.2074 33.0754 26.5548 33.0754C25.7425 33.0754 24.9585 32.5849 24.9585 31.3258V24.93H22.7224V27.2782C23.1845 28.0739 23.4279 28.9808 23.4271 29.9043C23.4271 30.7718 23.2152 31.7579 22.8413 32.4798C23.2748 34.1968 24.838 35.229 26.556 35.229C27.0712 35.2304 27.5822 35.1349 28.0632 34.9474C29.2457 34.4821 30.153 33.4614 30.3395 32.0449C30.3556 31.9222 30.3663 31.7967 30.3714 31.6683C30.3738 31.6119 30.375 31.5551 30.375 31.4979V24.93H28.1377Z" fill="white"/>
<path d="M13.8197 27.1887C13.4362 25.943 12.3899 24.9292 10.5724 24.9292H6.38998V35.2249H8.70218V31.7284H10.5724C11.6163 31.7284 12.406 31.3994 12.9616 30.8838C12.9275 30.6401 12.9104 30.3942 12.9104 30.148C12.9087 29.0905 13.226 28.0578 13.8197 27.1887ZM10.4693 29.6824H8.70218V26.9765H10.4838C11.3379 26.9765 11.6618 27.6788 11.6618 28.3366C11.6618 28.9944 11.3379 29.6824 10.4693 29.6824Z" fill="white"/>
<path d="M22.4731 27.4009C21.5992 25.8969 20.0037 24.8794 18.1746 24.8794C17.3661 24.8779 16.5693 25.0762 15.8533 25.4573C15.1373 25.8384 14.5235 26.3907 14.0651 27.0665C13.4714 27.9361 13.1543 28.9692 13.1562 30.027C13.1562 30.2732 13.1732 30.5191 13.2069 30.7629C13.555 33.2419 15.6166 35.189 18.1746 35.189C20.0883 35.189 21.7495 34.0664 22.5903 32.4398C22.9946 31.659 23.1958 30.7864 23.175 29.9047C23.1542 29.0229 22.9121 28.1612 22.4714 27.4009H22.4731ZM18.1621 33.0493C16.5102 33.0493 15.412 31.6901 15.412 30.027C15.412 28.364 16.509 27.0195 18.1621 27.0195C19.8011 27.0195 20.9268 28.364 20.9268 30.027C20.9268 31.6901 19.8007 33.0493 18.1617 33.0493H18.1621Z" fill="white"/>
<path d="M35.8035 35.2254L33.4768 31.6095H33.0055V35.2254H30.6937V24.93H34.8463C37.2024 24.93 38.2628 26.6335 38.2628 28.337C38.2628 29.7866 37.2024 31.1761 35.8918 31.475L38.4985 35.2254H35.8035ZM33.0055 26.9773V29.7572H34.478C35.4941 29.7572 35.9361 29.0847 35.9361 28.3971C35.9361 27.7095 35.4796 26.9777 34.5373 26.9777L33.0055 26.9773Z" fill="white"/>
<path d="M18.1617 13.5088V12.4222H17.0195V15.3088L15.4188 12.4222H14.3713V17.5086H15.5155V14.5852L17.1597 17.5086H18.1637V16.4167C17.8861 15.9841 17.7383 15.479 17.7383 14.9627C17.7383 14.4465 17.8861 13.9414 18.1637 13.5088H18.1617Z" fill="white"/>
<path d="M27.0829 16.0209H28.2251C28.2251 16.348 28.545 16.5969 28.9379 16.5969C29.3089 16.5969 29.593 16.4048 29.593 16.0728C29.593 15.8733 29.4838 15.689 29.0398 15.5414L28.4435 15.357C27.3376 15.0545 27.1265 14.3677 27.1265 13.8882C27.1265 12.9729 27.8976 12.3306 28.8944 12.3306C29.8548 12.3306 30.5893 12.9136 30.5893 13.9029H29.4471C29.4471 13.6 29.2654 13.3416 28.8726 13.3416C28.516 13.3416 28.2832 13.5869 28.2832 13.8657C28.2832 13.9691 28.3122 14.1981 28.7779 14.3309L29.3017 14.5006C30.0148 14.7222 30.7424 15.0913 30.7424 16.0132C30.7424 17.1059 29.8109 17.5928 28.8944 17.5928C27.8251 17.5932 27.0829 16.9583 27.0829 16.0209Z" fill="white"/>
<path d="M22.7317 13.6609C22.5086 13.2712 22.1889 12.9474 21.8044 12.7217C21.4198 12.496 20.9838 12.3763 20.5396 12.3744C19.1073 12.3744 17.9804 13.562 17.9804 15.0002C17.9804 16.4384 19.1085 17.6337 20.5396 17.6337C21.5158 17.6337 22.3631 17.0614 22.7922 16.2311C22.9983 15.8328 23.1009 15.3878 23.0903 14.9381C23.0798 14.4883 22.9563 14.0488 22.7317 13.6609ZM20.5323 16.5422C19.6891 16.5422 19.1291 15.8472 19.1291 15.0002C19.1291 14.1531 19.6891 13.4659 20.5323 13.4659C21.3683 13.4659 21.9425 14.1519 21.9425 15.0002C21.9425 15.8484 21.3683 16.5422 20.5323 16.5422Z" fill="white"/>
<path d="M25.7284 12.4627H25.6905V15.9563C25.5818 16.3651 25.2542 16.5348 24.9218 16.5348C24.5073 16.5348 24.1076 16.2838 24.1076 15.642V12.4627H22.9662V13.6609C23.1908 14.0487 23.3142 14.4883 23.3248 14.938C23.3354 15.3878 23.2327 15.8328 23.0266 16.2311C23.2478 17.1075 24.0455 17.6337 24.9202 17.6337C25.183 17.6345 25.4437 17.5857 25.6889 17.4898C26.2933 17.2527 26.755 16.7318 26.8501 16.0095C26.8585 15.9469 26.8638 15.8832 26.8666 15.8173C26.8666 15.7887 26.8666 15.7597 26.8666 15.7307V12.4627H25.7284Z" fill="white"/>
<path d="M30.2171 22.6755H32.2867V23.6542H29.1111V18.7317H32.2235V19.7129H30.2171V20.7255H31.9769V21.7324H30.2171V22.6755Z" fill="white"/>
<path d="M32.6046 22.218H33.7101C33.7101 22.5328 34.0199 22.7752 34.4003 22.7752C34.7593 22.7752 35.034 22.5896 35.034 22.2679C35.034 22.0753 34.9285 21.8971 34.499 21.7536L33.9212 21.5754C32.8512 21.2827 32.6473 20.6175 32.6473 20.1536C32.6473 19.2677 33.3934 18.6463 34.358 18.6463C35.2874 18.6463 35.9986 19.2104 35.9986 20.1679H34.8946C34.8946 19.8747 34.719 19.6246 34.3386 19.6246C33.9934 19.6246 33.7681 19.8608 33.7681 20.1319C33.7681 20.232 33.7963 20.4536 34.2468 20.5816L34.754 20.7451C35.4442 20.9593 36.148 21.3174 36.148 22.2094C36.148 23.267 35.2468 23.7384 34.3596 23.7384C33.3233 23.74 32.6046 23.1256 32.6046 22.218Z" fill="white"/>
<path d="M28.3053 18.7444H27.3613L25.9661 21.8256L24.5496 18.7444H23.6265L23.3272 21.2087L23.2023 22.2348L23.1954 22.2912L23.361 23.6705H23.6229H24.1624L24.4863 20.8747L25.5431 23.1055H26.3888L27.446 20.8677L27.763 23.6705H28.8976L28.3053 18.7444Z" fill="white"/>
<path d="M22.9948 22.2912L22.5689 18.744H21.6246L20.2293 21.826L18.8132 18.744H17.8901L17.6561 20.6654C17.7679 21.2264 17.6972 21.8092 17.4546 22.326L17.2935 23.6529L17.2914 23.6693H18.426L18.7483 20.8735L19.8055 23.1043H20.6516L21.7084 20.8665L22.0254 23.6693H23.16L22.9948 22.2912Z" fill="white"/>
<path d="M12.1425 21.5648C12.1336 21.501 12.1268 21.4364 12.1223 21.3714C11.8528 21.0644 11.441 20.887 11.0345 20.7606L10.5273 20.5971C10.076 20.4688 10.0478 20.2468 10.0478 20.1474C10.0478 19.876 10.2735 19.6401 10.6187 19.6401C10.9991 19.6401 11.1755 19.8903 11.1755 20.1834H12.2815C12.2815 19.2252 11.57 18.6606 10.6397 18.6606C9.67274 18.6606 8.92739 19.2824 8.92739 20.1691C8.92739 20.6339 9.13206 21.2986 10.2029 21.5917L10.7807 21.7708C11.2106 21.9135 11.3161 22.0925 11.3161 22.2855C11.3161 22.6072 11.0414 22.7932 10.682 22.7932C10.3017 22.7932 9.99143 22.55 9.99143 22.2352H8.88428C8.88428 23.1415 9.60304 23.7547 10.6405 23.7547C11.4696 23.7547 12.3109 23.3431 12.4185 22.4265C12.3782 22.3493 12.3419 22.27 12.3093 22.1882C12.2288 21.9881 12.1728 21.7787 12.1425 21.5648Z" fill="white"/>
<path d="M17.4155 20.6666C17.3586 20.3785 17.2546 20.1022 17.1077 19.849C16.8845 19.4593 16.5648 19.1356 16.1803 18.91C15.7958 18.6844 15.3598 18.5647 14.9156 18.5629C13.4833 18.5629 12.3564 19.7505 12.3564 21.1891C12.3564 21.25 12.3588 21.3117 12.3629 21.371C12.3669 21.4303 12.3741 21.5006 12.383 21.5643C12.4127 21.7788 12.4682 21.9887 12.5482 22.1894C12.5808 22.2712 12.6175 22.3505 12.6574 22.4277C12.8719 22.8476 13.196 23.1997 13.5942 23.4456C13.9924 23.6915 14.4494 23.8217 14.9156 23.8222C15.8918 23.8222 16.7391 23.2498 17.1682 22.4196C17.1839 22.3889 17.1992 22.3578 17.2137 22.3268C17.4563 21.81 17.527 21.2273 17.4151 20.6662L17.4155 20.6666ZM14.9083 22.7327C14.0651 22.7327 13.5051 22.0377 13.5051 21.1911C13.5051 20.3445 14.0651 19.6569 14.9083 19.6569C15.7443 19.6569 16.3185 20.3428 16.3185 21.1911C16.3185 22.0394 15.7443 22.7327 14.9083 22.7327Z" fill="white"/>
<path d="M40.7297 32.5894L40.382 32.5735C40.3187 32.5706 40.2569 32.5536 40.2007 32.5238C40.1446 32.494 40.0956 32.4521 40.0572 32.401C40.0188 32.3499 39.9919 32.2909 39.9784 32.2281C39.9649 32.1653 39.9652 32.1002 39.9791 32.0375L40.7607 24.3974C40.767 24.3688 40.7705 24.3396 40.7712 24.3103L41.1084 21.176C41.1112 21.0595 41.1594 20.9488 41.2425 20.8683C41.3256 20.7878 41.4368 20.7441 41.5516 20.7467L42.6709 20.7774C42.7286 20.779 42.7855 20.7922 42.8381 20.8164C42.8908 20.8406 42.9381 20.8753 42.9773 20.9183C43.0166 20.9614 43.0469 21.012 43.0666 21.0671C43.0862 21.1222 43.0949 21.1808 43.0919 21.2394L42.5854 24.4194C42.5835 24.4564 42.577 24.4929 42.5661 24.5282L41.1624 32.2816C41.1339 32.3742 41.076 32.4546 40.9978 32.5103C40.9195 32.566 40.8252 32.5938 40.7297 32.5894Z" fill="#E93A55"/>
<path d="M40.4981 33.5705C40.3936 33.5651 40.2895 33.5866 40.1955 33.6331C39.9465 33.7557 39.451 34.0644 39.3345 34.6355C39.3115 34.736 39.3101 34.8403 39.3304 34.9414C39.3507 35.0425 39.3922 35.1379 39.4522 35.2213C39.7221 35.6047 40.2612 35.6624 40.6205 35.364C40.8387 35.1892 41.0196 34.9715 41.1524 34.7238C41.4066 34.2214 41.0718 33.6102 40.5182 33.5718L40.4981 33.5705Z" fill="#E93A55"/>
</svg>
