<svg width="48" height="49" viewBox="0 0 48 49" fill="none" xmlns="http://www.w3.org/2000/svg">
<circle cx="24" cy="24.6243" r="24" fill="#BE4726"/>
<path d="M23.9446 30.4278C25.7417 30.4278 27.5526 29.7926 29.0293 28.4936C31.4532 26.3717 32.5537 22.7776 31.69 19.7897L31.6761 19.732C31.5368 19.1835 30.896 17.5091 29.8651 17.1338C28.681 16.7008 26.9954 16.9317 25.6163 20.4826C24.6412 23.0086 24.0421 26.3429 23.9586 29.8793C23.9586 30.0525 23.9446 30.2401 23.9446 30.4278ZM23.8889 39.8966C23.861 39.911 23.8332 39.911 23.8053 39.9255C23.0113 40.1853 22.1754 39.7378 21.9108 38.9151C21.4371 37.3562 21.1167 35.3354 20.9914 33.127C18.9436 32.5496 17.049 31.3371 15.5863 29.5473C13.7057 27.2378 12.8002 24.3076 13.037 21.3053C13.2738 18.2886 14.639 15.5605 16.854 13.6119C18.3445 12.2983 20.1555 11.4323 22.0779 11.0859C22.2172 11.057 22.4959 10.9993 22.8163 10.9993C23.9864 10.9993 24.5297 11.6344 24.7526 12.0241C25.5884 13.4964 24.3486 15.2141 22.8859 16.8307C22.3148 17.4658 21.3675 17.4947 20.7685 16.9029C20.1834 16.3399 20.1277 15.3873 20.6431 14.7522C19.9884 15.0697 19.3615 15.4739 18.8043 15.9646C17.1883 17.3792 16.2132 19.3567 16.0321 21.5507C15.851 23.7303 16.5196 25.8521 17.8848 27.5265C18.7346 28.5802 19.7933 29.3452 20.9496 29.8215C20.9496 29.8071 20.9496 29.7926 20.9496 29.7638C21.0192 27.0068 21.4093 22.9508 22.8302 19.299C23.6939 17.0761 24.8501 15.5027 26.285 14.6223C27.6919 13.7562 29.28 13.5974 30.8681 14.1748C33.5288 15.1419 34.4622 18.404 34.5876 18.9092C35.1726 20.9445 35.1309 23.1673 34.4901 25.318C33.8353 27.4976 32.6234 29.4029 30.9796 30.8608C30.0044 31.7124 28.9318 32.3619 27.8034 32.795C26.5914 33.2713 25.3098 33.5167 24.0421 33.5311C24.1675 35.2488 24.4322 36.7933 24.7944 37.9624C25.0312 38.7563 24.6412 39.6079 23.8889 39.8966Z" fill="white"/>
</svg>
