<svg width="16" height="16" viewBox="0 0 16 16" fill="none" xmlns="http://www.w3.org/2000/svg">
<g clip-path="url(#clip0)">
<path d="M16 8.18417C16 7.64035 15.955 7.09359 15.859 6.55859H8.1604V9.63925H12.569C12.3861 10.6328 11.7983 11.5117 10.9375 12.0703V14.0692H13.5677C15.1122 12.6758 16 10.6181 16 8.18417Z" fill="#4285F4"/>
<path d="M8.16042 16.0002C10.3617 16.0002 12.2182 15.2918 13.5707 14.0689L10.9406 12.07C10.2088 12.558 9.26408 12.8343 8.16342 12.8343C6.03408 12.8343 4.22865 11.4263 3.58085 9.5332H0.866699V11.5938C2.25227 14.2953 5.07438 16.0002 8.16042 16.0002Z" fill="#34A853"/>
<path d="M3.57767 9.53283C3.23578 8.53926 3.23578 7.46338 3.57767 6.46981V4.40918H0.86652C-0.291119 6.6697 -0.291119 9.33294 0.86652 11.5935L3.57767 9.53283Z" fill="#FBBC04"/>
<path d="M8.16041 3.16546C9.32404 3.14783 10.4487 3.577 11.2914 4.3648L13.6217 2.08077C12.1462 0.722693 10.1878 -0.0239539 8.16041 -0.000437452C5.07438 -0.000437452 2.25226 1.7045 0.866699 4.4089L3.57785 6.46952C4.22265 4.57351 6.03108 3.16546 8.16041 3.16546Z" fill="#EA4335"/>
</g>
<defs>
<clipPath id="clip0">
<rect width="16" height="16" fill="white"/>
</clipPath>
</defs>
</svg>
