<svg width="255" height="145" viewBox="0 0 255 145" fill="none" xmlns="http://www.w3.org/2000/svg">
<g clip-path="url(#clip0_4_1883)">
<rect width="255" height="145" fill="white"/>
<path d="M153.71 123.287H10.0039V156.398H153.71V123.287Z" fill="#CBBFEC"/>
<path d="M223.411 124.614H155.981V267.19H223.411V124.614Z" fill="#EFEFF0"/>
<path d="M218.016 128.574H161.376V238.171H218.016V128.574Z" fill="#565661"/>
<path opacity="0.1" d="M218.016 128.574H161.376V238.171H218.016V128.574Z" fill="#4D26B9"/>
<path d="M218.016 130.819H161.376V155.142H218.016V130.819Z" fill="#565661"/>
<path d="M151.433 124.614V279.264H155.981V125.85L151.433 124.614Z" fill="#EFEFF0"/>
<path d="M22.6439 114.216H197.79L223.243 122.601V127.464L4.77637 125.789V120.84L22.6439 114.216Z" fill="#F1ECFF"/>
<path d="M4.77637 120.84L223.243 122.601V127.464L4.77637 125.789V120.84Z" fill="#B09AEC"/>
<path d="M119.485 115.411H65.9893C65.0401 115.411 64.2705 116.176 64.2705 117.119C64.2705 118.062 65.0401 118.827 65.9893 118.827H119.485C120.435 118.827 121.204 118.062 121.204 117.119C121.204 116.176 120.435 115.411 119.485 115.411Z" fill="#DDD0FF"/>
<path opacity="0.1" d="M109.878 116.239V117.389H75.5977V116.456C76.5375 116.105 77.4273 115.633 78.2443 115.053H107.773C108.431 115.52 109.137 115.918 109.878 116.239Z" fill="#4D26B9"/>
<path d="M109.878 116.239V117.389H75.5977V116.456C76.5375 116.105 77.4273 115.633 78.2443 115.053C79.7001 114.016 80.8863 112.648 81.7046 111.064C82.5229 109.479 82.9497 107.723 82.9495 105.941C82.9501 105.011 82.8325 104.083 82.5997 103.182C82.1851 101.559 81.4107 100.049 80.3333 98.7635C79.2559 97.4776 77.9028 96.4479 76.3734 95.7502H109.644C108.115 96.4479 106.762 97.4776 105.684 98.7635C104.607 100.049 103.833 101.559 103.418 103.182C103.187 104.084 103.071 105.011 103.073 105.941C103.072 107.723 103.498 109.478 104.315 111.063C105.133 112.648 106.318 114.016 107.773 115.053C108.431 115.52 109.137 115.918 109.878 116.239Z" fill="#F1ECFF"/>
<path d="M144.487 148.306C143.691 150.021 142.353 151.424 141.364 153.038C139.71 155.696 139.164 158.891 139.843 161.943C140.199 163.452 140.899 164.859 141.888 166.056C142.877 167.254 144.128 168.209 145.547 168.85C146.813 169.352 148.145 169.671 149.502 169.798C151.286 170.015 153.188 170.061 154.764 169.203C155.945 168.498 156.913 167.491 157.568 166.287C158.932 164.017 159.708 161.459 160.418 158.911C161.731 154.209 162.852 149.385 162.689 144.507C162.633 142.827 162.299 140.935 160.899 139.966C160.177 139.551 159.376 139.29 158.547 139.199L151.859 138.009C150.566 137.777 148.31 136.833 147.19 137.761C146.069 138.69 145.983 141.434 145.79 142.721C145.486 144.623 145.298 146.555 144.487 148.306Z" fill="#FF948D"/>
<path d="M111.409 114.337C116.479 111.31 123.662 112.739 126.62 113.832C127.211 115.934 128.039 120.29 126.62 120.895C125.2 121.501 113.014 120.307 107.099 119.634C106.423 119.13 106.339 117.364 111.409 114.337Z" fill="#C9CFDD"/>
<path d="M153.68 153.059C153.296 151.209 153.535 149.289 153.366 147.406C153.109 144.29 136.687 116.806 134.318 114.752C133.13 113.75 131.727 113.032 130.217 112.654C128.706 112.275 127.129 112.247 125.605 112.571C124.287 112.916 123.026 113.447 121.858 114.147C120.293 115.028 118.737 116.115 117.981 117.738C117.453 119.002 117.276 120.385 117.468 121.741C117.727 124.374 118.631 126.889 119.582 129.358C121.334 133.917 138.266 163.051 141.31 166.878C142.358 168.196 143.758 169.52 145.462 169.472C146.29 169.378 147.091 169.115 147.812 168.697L153.901 165.7C155.08 165.122 157.458 164.546 157.804 163.137C158.151 161.728 156.581 159.47 155.968 158.321C155.076 156.612 154.073 154.947 153.68 153.059Z" fill="#FF948D"/>
<path d="M225.778 128.791L224.029 143.382C223.667 145.984 223.458 148.605 223.405 151.232C223.405 152.695 223.451 154.32 222.477 155.414C222.001 155.913 221.399 156.273 220.733 156.459C218.609 157.115 216.292 156.529 214.264 155.626C213.077 155.122 211.865 154.39 211.328 153.215C211.016 152.4 210.886 151.527 210.948 150.657C210.948 141.954 211.774 132.878 216.342 125.461C216.732 124.733 217.281 124.102 217.95 123.615C219.217 122.807 220.875 123.034 222.31 123.473C223.192 123.741 225.575 124.038 226.138 124.82C226.701 125.602 225.9 127.787 225.778 128.791Z" fill="#A1616A"/>
<path d="M179.37 76.0286C189.451 76.0286 197.623 67.8969 197.623 57.8659C197.623 47.8349 189.451 39.7032 179.37 39.7032C169.289 39.7032 161.117 47.8349 161.117 57.8659C161.117 67.8969 169.289 76.0286 179.37 76.0286Z" fill="#FF948D"/>
<path d="M174.488 84.9332C174.422 86.3463 174.035 87.7262 173.357 88.9694C182.676 87.5567 191.972 85.9826 201.243 84.2471C198.167 82.6736 195.841 79.9531 194.774 76.6793C194.27 74.9239 193.994 73.1113 193.952 71.286C193.805 68.3914 193.861 65.4901 194.12 62.6033C190.875 62.9413 187.802 64.1521 184.709 65.1914C181.6 66.2372 178.436 67.1179 175.233 67.8301C173.687 68.1731 172.13 68.4658 170.568 68.7382C168.743 69.0611 167.866 69.056 169.133 70.6503C172.536 74.9085 174.964 79.2372 174.488 84.9332Z" fill="#FF948D"/>
<path d="M180.095 82.5066C177.687 82.8648 175.162 83.2684 173.24 84.7517C172.509 85.3768 171.813 86.0421 171.157 86.7445C167.339 90.4325 161.949 91.9158 157.315 94.5191C156.559 94.8909 155.889 95.4149 155.348 96.0579C154.841 96.7592 154.582 97.6522 154.05 98.3484C153.431 99.1557 152.452 99.6602 151.971 100.553C151.489 101.446 151.596 102.395 151.545 103.343C151.428 105.427 150.637 107.405 150.024 109.397C147.21 118.938 148.751 129.578 144.492 138.589C144.688 139.108 144.988 139.582 145.373 139.983C145.758 140.383 146.221 140.702 146.733 140.92C147.805 141.304 148.924 141.543 150.059 141.631L159.495 142.796C160.844 142.963 162.274 143.119 163.506 142.559C162.379 145.651 161.582 148.852 161.128 152.11C160.898 154.101 160.543 156.076 160.063 158.023C158.765 162.463 155.5 166.161 151.631 168.688C151.144 168.942 150.733 169.32 150.44 169.783C149.933 170.792 150.683 171.922 151.215 172.911C152.762 175.777 152.549 179.218 152.529 182.467C152.508 185.716 152.838 189.283 155.119 191.614C156.468 192.991 158.314 193.738 160.109 194.449L174.868 200.317C177.304 201.349 179.816 202.192 182.382 202.839C186.271 203.722 190.312 203.687 194.302 203.515C196.939 203.404 199.572 203.236 202.202 203.011C203.248 203.007 204.276 202.738 205.188 202.229C205.973 201.612 206.578 200.796 206.937 199.868C208.991 195.423 209.68 190.236 212.864 186.513C215.05 183.955 218.442 181.912 218.69 178.567C218.807 176.902 218.061 175.282 218.051 173.612C218.051 171.559 219.131 169.607 219.065 167.558C218.928 164.223 215.77 161.681 215.268 158.381C213.99 150.016 218.259 141.661 220.88 133.614C221.352 132.176 221.96 130.587 223.35 129.972C224.739 129.356 226.696 129.679 227.193 128.317C228.445 124.896 228.744 120.885 228.582 117.248C228.491 115.144 227.741 113.085 227.827 110.977C227.888 109.493 228.364 108.05 228.491 106.572C228.684 104.337 228.09 102.117 227.477 99.9578C227.3 99.1869 227.034 98.4387 226.686 97.7279C226.311 97.0831 225.869 96.4794 225.368 95.9268L222.898 93.0056C221.742 91.6383 220.52 90.2207 218.842 89.5295C218.3 88.1925 216.566 87.2692 215.323 86.5326C214.071 85.8256 212.778 85.1938 211.45 84.6407L197.486 78.5057C196.964 78.2442 196.405 78.0639 195.828 77.971C194.978 77.9426 194.134 78.1155 193.364 78.4755C189.105 80.1555 184.659 81.8305 180.095 82.5066Z" fill="#8F70E6"/>
<path d="M165.305 61.0241C164.768 59.1423 163.394 57.5177 163.186 55.5703C162.998 53.8398 163.764 52.1648 164.2 50.4797C164.636 48.7946 164.621 46.7362 163.277 45.6162C163.054 45.4244 162.77 45.2529 162.689 44.9704C162.527 44.4659 163.039 44.0067 163.196 43.4972C163.485 42.4881 162.233 41.3732 162.689 40.4045C162.948 39.8748 163.597 39.6881 164.165 39.5216C166.335 38.8809 168.535 37.4581 169.007 35.2534C170.705 35.9597 172.515 34.6328 173.818 33.3463C175.121 32.0598 176.723 30.5916 178.518 30.9801L178.118 31.7924C180.885 30.7926 183.912 30.7588 186.702 31.6965H185.85C188.297 31.7377 190.67 32.5366 192.639 33.982C192.421 33.982 192.401 34.3049 192.487 34.4865C193.197 36.1363 195.022 37.0091 196.781 37.4177C197.841 37.67 198.992 37.8516 199.768 38.6084C200.543 39.3652 200.559 40.9443 199.535 41.3076C201.623 42.1167 203.601 43.1846 205.421 44.486C205.928 44.8543 206.501 45.3538 206.435 45.9996C206.363 46.3238 206.257 46.6399 206.121 46.943C206.02 47.4816 206.056 48.0368 206.227 48.5575L206.79 50.8682C207.409 53.4362 207.895 56.5289 206.014 58.3906C206.718 59.6997 206.98 61.1998 206.76 62.6683C206.54 64.1369 205.85 65.4958 204.792 66.5436C204.942 66.9943 204.993 67.4714 204.944 67.9434C204.894 68.4154 204.745 68.8716 204.505 69.282C204.266 69.6924 203.942 70.0476 203.554 70.3244C203.167 70.6011 202.725 70.793 202.257 70.8875C202.881 71.8561 202.308 73.2385 201.324 73.8439C200.341 74.4494 199.104 74.4544 197.958 74.3485C196.812 74.2425 195.651 73.9852 194.505 74.1567C192.837 74.4141 191.204 75.5442 189.597 75.0397C188.998 74.7848 188.423 74.4775 187.878 74.1214C186.752 73.5211 185.444 73.3848 184.197 73.1124C182.071 72.6577 180.052 71.8014 178.25 70.5898C177.055 69.8753 176.103 68.8209 175.517 67.5627C174.401 64.7576 176.277 61.0796 174.305 58.7942C173.149 57.4622 170.857 57.4421 169.564 58.5823C168.92 59.1524 168.834 60.3531 168.165 60.782C167.231 61.017 166.265 61.0988 165.305 61.0241Z" fill="#4D26B9"/>
<path d="M240.801 124.538C240.801 124.538 229.992 118.302 215.724 126.052C201.456 133.801 199.078 179.404 199.078 179.404C199.078 179.404 204.914 225.865 182.412 215.528C182.412 215.528 141.343 202.839 137.231 205.634C137.231 205.634 133.337 205.634 141.12 207.355C148.903 209.075 178.97 218.555 178.97 218.555C178.97 218.555 188.689 221.935 192.806 218.555C196.923 215.175 208.59 218.989 210.106 195.751C211.109 181.107 212.914 166.528 215.511 152.08L219.521 140.249L240.801 124.538Z" fill="#4D26B9"/>
<path d="M242.099 196.391C242.099 196.391 237.343 149.28 245.141 132.282C251.925 117.47 225.692 124.397 218.847 126.415C217.788 126.73 216.864 127.387 216.22 128.282C212.164 133.957 197.613 156.706 201.902 187.144C201.902 187.144 203.631 214.251 192.821 218.55L226.128 207.874C228.83 207.007 231.573 206.285 234.341 205.659C237.87 204.862 243.62 202.597 242.099 196.391Z" fill="#CBBFEC"/>
<path opacity="0.1" d="M109.644 95.7502C108.115 96.4479 106.761 97.4776 105.684 98.7635C104.607 100.049 103.832 101.559 103.418 103.182H82.5993C82.1847 101.559 81.4104 100.049 80.333 98.7635C79.2556 97.4776 77.9025 96.4479 76.373 95.7502H109.644Z" fill="#4D26B9"/>
<path d="M36.3486 89.8726V96.3506C36.3486 99.9226 38.975 102.824 42.22 102.824H143.072C146.317 102.824 148.949 99.9226 148.949 96.3506V89.8726H36.3486Z" fill="#F1ECFF"/>
<path d="M148.949 18.9222C148.949 18.1545 148.797 17.3944 148.501 16.6852C148.206 15.9761 147.773 15.3318 147.227 14.7892C146.681 14.2467 146.034 13.8164 145.321 13.5231C144.608 13.2298 143.844 13.0792 143.072 13.0798H42.22C41.4487 13.0792 40.685 13.2298 39.9723 13.5232C39.2597 13.8166 38.6122 14.2469 38.0668 14.7895C37.5215 15.3322 37.089 15.9765 36.7942 16.6856C36.4994 17.3947 36.348 18.1547 36.3486 18.9222V91.1338H148.949V18.9222Z" fill="#4D26B9"/>
<path d="M145.876 21.5305V83.5862C145.877 83.9643 145.803 84.3388 145.658 84.6883C145.513 85.0377 145.3 85.3554 145.032 85.6229C144.763 85.8905 144.444 86.1028 144.093 86.2476C143.742 86.3924 143.366 86.467 142.986 86.467H42.3115C41.9315 86.467 41.5553 86.3924 41.2043 86.2476C40.8533 86.1028 40.5345 85.8905 40.2661 85.6229C39.9977 85.3554 39.7849 85.0377 39.6399 84.6883C39.495 84.3388 39.4208 83.9643 39.4214 83.5862V21.5305C39.4189 21.0256 39.5519 20.5292 39.8067 20.0926C40.0606 19.6552 40.4257 19.292 40.8654 19.0395C41.3051 18.7871 41.8038 18.6544 42.3115 18.6547H142.986C143.753 18.6547 144.488 18.9577 145.03 19.497C145.572 20.0363 145.876 20.7678 145.876 21.5305Z" fill="white"/>
<path d="M113.17 23.5497C113.12 23.5497 113.071 23.5696 113.035 23.6049C113 23.6402 112.98 23.6881 112.979 23.738V39.021C112.98 39.071 113 39.1188 113.035 39.1541C113.071 39.1894 113.12 39.2093 113.17 39.2094H133.957C134.007 39.2093 134.056 39.1894 134.092 39.1541C134.127 39.1188 134.147 39.071 134.148 39.021V23.738C134.147 23.6881 134.127 23.6402 134.092 23.6049C134.056 23.5696 134.007 23.5497 133.957 23.5497H113.17Z" fill="#CBBFEC"/>
<path d="M113.59 24.1523V38.6067H133.537V24.1523H113.59Z" fill="white"/>
<path d="M113.17 45.0812C113.12 45.0812 113.071 45.1011 113.035 45.1364C113 45.1717 112.98 45.2196 112.979 45.2695V60.5525C112.98 60.6025 113 60.6503 113.035 60.6856C113.071 60.7209 113.12 60.7408 113.17 60.7409H133.957C134.007 60.7408 134.056 60.7209 134.092 60.6856C134.127 60.6503 134.147 60.6025 134.148 60.5525V45.2695C134.147 45.2196 134.127 45.1717 134.092 45.1364C134.056 45.1011 134.007 45.0812 133.957 45.0812H113.17Z" fill="#CBBFEC"/>
<path d="M113.59 45.6838V60.1381H133.537V45.6838H113.59Z" fill="white"/>
<path d="M113.17 66.6127C113.12 66.6127 113.071 66.6326 113.035 66.6679C113 66.7032 112.98 66.7511 112.979 66.801V82.084C112.98 82.1339 113 82.1818 113.035 82.2171C113.071 82.2524 113.12 82.2723 113.17 82.2723H133.957C134.007 82.2723 134.056 82.2524 134.092 82.2171C134.127 82.1818 134.147 82.1339 134.148 82.084V66.801C134.147 66.7511 134.127 66.7032 134.092 66.6679C134.056 66.6326 134.007 66.6127 133.957 66.6127H113.17Z" fill="#CBBFEC"/>
<path d="M113.59 67.2153V81.6697H133.537V67.2153H113.59Z" fill="white"/>
<path d="M129.795 35.8201L125.82 33.0742H125.819L125.818 33.0747C125.683 32.6546 125.59 32.2225 125.54 31.7845C125.913 31.4489 126.178 31.0122 126.302 30.5289C126.318 30.5383 126.333 30.5486 126.348 30.5598C126.696 30.8349 127.358 27.9122 126.243 27.3621C126.243 27.3621 125.408 25.5741 123.806 25.9867C122.205 26.3993 121.299 27.0182 121.23 27.6371C121.16 28.256 121.265 29.1844 121.265 29.1844C121.265 29.1844 121.361 28.4824 121.868 28.2343C121.617 28.5164 121.433 28.8498 121.329 29.2105C121.224 29.5713 121.202 29.9504 121.264 30.3206C121.326 30.6908 121.47 31.0428 121.686 31.3514C121.902 31.66 122.185 31.9174 122.514 32.1052C122.393 32.5151 122.231 33.0464 122.096 33.4364H122.096L120.881 34.033L118.235 35.6833C118.235 35.6833 117.191 36.9891 116.842 38.5027C116.816 38.6217 116.787 38.7408 116.758 38.8598H130.872C130.401 37.4552 129.795 35.8201 129.795 35.8201Z" fill="#CBBFEC"/>
<path d="M128.921 80.0356C129.193 79.8643 129.481 79.7192 129.78 79.6025L126.823 76.1346L124.868 75.6406C124.525 75.4504 124.255 75.1546 124.098 74.7984L125.144 74.7883L125.543 72.5578C125.785 71.9094 125.687 71.3407 125.144 70.8721C125.242 70.2717 124.966 69.8297 124.235 69.5802C123.508 68.957 122.433 68.8075 121.788 69.8056C121.527 69.7903 121.271 69.8749 121.072 70.0417C120.873 70.2086 120.748 70.4448 120.721 70.7011C120.128 71.3812 120.786 73.8776 120.981 74.8288L122.021 74.8187C121.961 75.1705 121.787 75.4934 121.524 75.7382L121.51 75.7242L119.431 76.7286L116.473 80.1053C116.765 80.2182 117.045 80.3582 117.311 80.5232L117.005 81.6695H119.122L119.685 80.8614H119.713C119.713 80.8475 119.714 80.8335 119.714 80.8196L120.109 80.2522C120.118 80.7107 120.105 81.1831 120.073 81.6695H126.655C126.645 81.2654 126.642 80.8639 126.642 80.465L127.378 81.52C127.433 81.4402 127.492 81.3655 127.551 81.2895L127.696 81.6695H129.382L128.978 80.1521C128.966 80.1102 128.947 80.0707 128.921 80.0356Z" fill="#CBBFEC"/>
<path d="M127.45 55.8608L124.656 54.7323C124.589 54.4714 124.532 54.2257 124.497 54.0091C124.784 53.848 125.035 53.6317 125.236 53.3731C125.437 53.1144 125.583 52.8186 125.666 52.5032L125.961 52.1903C126.118 52.0288 126.238 51.8361 126.313 51.6251C126.388 51.4141 126.417 51.1897 126.397 50.9668C126.346 50.5385 126.126 50.1473 125.785 49.8776C125.9 49.1645 125.573 48.6402 124.706 48.3438C123.844 47.6054 122.568 47.4268 121.803 48.611C121.494 48.5928 121.19 48.6932 120.954 48.8912C120.718 49.0891 120.568 49.3695 120.536 49.6737C119.908 50.3956 120.555 51.8357 120.864 52.9389C120.888 53.0205 120.936 53.0935 121.001 53.1485C121.067 53.2035 121.147 53.2381 121.233 53.2479C121.438 53.5479 121.708 53.7992 122.024 53.9838C122.032 54.3024 121.994 54.6206 121.911 54.9286L121.914 54.8324L119.829 55.7582L119.828 55.7329L119.627 55.8482L119.308 55.99C119.31 56.0027 119.313 56.0141 119.315 56.0267L119.286 56.0432C118.837 56.3 118.493 56.7037 118.314 57.1844L117.243 60.2798H126.831C126.928 59.9571 127.048 59.6414 127.19 59.335L127.192 59.3008L128.044 60.2798H130.645L127.45 55.8608Z" fill="#CBBFEC"/>
<path d="M80.0066 81.5294C83.1071 81.5294 85.6206 79.0471 85.6206 75.9852C85.6206 72.9232 83.1071 70.441 80.0066 70.441C76.9061 70.441 74.3926 72.9232 74.3926 75.9852C74.3926 79.0471 76.9061 81.5294 80.0066 81.5294Z" fill="#CBBFEC"/>
<path d="M80.0067 80.2357C82.3838 80.2357 84.3108 78.3327 84.3108 75.9852C84.3108 73.6376 82.3838 71.7346 80.0067 71.7346C77.6296 71.7346 75.7026 73.6376 75.7026 75.9852C75.7026 78.3327 77.6296 80.2357 80.0067 80.2357Z" fill="white"/>
<path d="M82.1627 78.3067C82.1369 78.3067 82.1114 78.3017 82.0877 78.292C82.0639 78.2822 82.0423 78.2679 82.0241 78.2499L77.7112 73.9906C77.6759 73.954 77.6566 73.9053 77.6572 73.8548C77.6579 73.8043 77.6785 73.756 77.7146 73.7203C77.7508 73.6846 77.7996 73.6643 77.8508 73.6637C77.9019 73.663 77.9512 73.6821 77.9883 73.7169L82.3013 77.9762C82.3287 78.0033 82.3473 78.0378 82.3549 78.0753C82.3624 78.1129 82.3586 78.1518 82.3437 78.1871C82.3289 78.2225 82.3038 78.2527 82.2716 78.274C82.2393 78.2953 82.2015 78.3067 82.1627 78.3067H82.1627Z" fill="#571AFF"/>
<path d="M79.9083 76.7076L79.2737 76.0809C79.2701 76.0774 79.2654 76.075 79.2603 76.0742C79.2553 76.0734 79.2501 76.0742 79.2455 76.0765C79.2409 76.0787 79.2372 76.0823 79.2348 76.0868C79.2324 76.0913 79.2315 76.0964 79.2322 76.1014C79.2578 76.264 79.3351 76.4143 79.4529 76.5307C79.5707 76.647 79.7229 76.7233 79.8875 76.7486C79.8926 76.7493 79.8978 76.7484 79.9023 76.7461C79.9068 76.7437 79.9105 76.74 79.9128 76.7355C79.9151 76.7309 79.9159 76.7258 79.915 76.7208C79.9142 76.7158 79.9119 76.7112 79.9083 76.7076L79.9083 76.7076Z" fill="#571AFF"/>
<path d="M80.1043 75.2592L80.7399 75.8866C80.7435 75.8902 80.7482 75.8926 80.7533 75.8934C80.7584 75.8942 80.7636 75.8935 80.7682 75.8912C80.7728 75.889 80.7766 75.8853 80.779 75.8808C80.7814 75.8763 80.7823 75.8712 80.7815 75.8661C80.756 75.7033 80.6786 75.5528 80.5607 75.4363C80.4427 75.3198 80.2903 75.2434 80.1254 75.2182C80.1203 75.2174 80.1151 75.2182 80.1105 75.2206C80.1059 75.2229 80.1022 75.2266 80.0998 75.2311C80.0975 75.2357 80.0967 75.2409 80.0975 75.2459C80.0983 75.2509 80.1007 75.2556 80.1043 75.2592Z" fill="#571AFF"/>
<path d="M82.8857 76.1935C82.9263 76.1306 82.9477 76.0575 82.9475 75.983C82.9473 75.9084 82.9254 75.8355 82.8845 75.7729C82.5701 75.2875 82.1556 74.873 81.6682 74.5564C81.1741 74.2319 80.5957 74.0552 80.0024 74.0474C79.7032 74.0478 79.406 74.0959 79.1224 74.19C79.1145 74.1926 79.1073 74.1972 79.1017 74.2033C79.0961 74.2094 79.0921 74.2168 79.0902 74.2249C79.0883 74.2329 79.0885 74.2413 79.0908 74.2492C79.093 74.2572 79.0974 74.2644 79.1033 74.2702L79.6821 74.8419C79.6881 74.8478 79.6956 74.8521 79.7038 74.8543C79.712 74.8566 79.7207 74.8567 79.7289 74.8546C79.9251 74.8074 80.1303 74.8108 80.3248 74.8646C80.5192 74.9184 80.6964 75.0208 80.8392 75.1618C80.9819 75.3028 81.0856 75.4777 81.1401 75.6698C81.1945 75.8618 81.198 76.0644 81.1502 76.2582C81.1481 76.2663 81.1482 76.2749 81.1505 76.2829C81.1528 76.291 81.1571 76.2984 81.1631 76.3043L81.9957 77.1271C82.0043 77.1357 82.0159 77.1407 82.0282 77.1413C82.0404 77.1418 82.0524 77.1378 82.0618 77.13C82.3823 76.8603 82.66 76.5446 82.8857 76.1935Z" fill="#571AFF"/>
<path d="M80.0061 77.145C79.828 77.145 79.6523 77.1051 79.4921 77.0283C79.3319 76.9515 79.1915 76.8397 79.0814 76.7015C78.9714 76.5633 78.8945 76.4022 78.8566 76.2304C78.8188 76.0586 78.8209 75.8805 78.8629 75.7096C78.865 75.7015 78.8649 75.6929 78.8626 75.6849C78.8604 75.6768 78.856 75.6694 78.85 75.6635L78.0311 74.8543C78.0224 74.8458 78.0107 74.8407 77.9985 74.8402C77.9862 74.8397 77.9742 74.8437 77.9648 74.8516C77.6501 75.1209 77.3715 75.4288 77.1356 75.7678C77.0913 75.8306 77.0669 75.9051 77.0655 75.9816C77.0641 76.0582 77.0858 76.1335 77.1278 76.1978C77.4371 76.6836 77.8476 77.0988 78.332 77.4157C78.8267 77.7415 79.4075 77.9167 80.0022 77.9195C80.3044 77.9187 80.6046 77.8715 80.8922 77.7797C80.9002 77.7772 80.9074 77.7727 80.9131 77.7666C80.9189 77.7605 80.9229 77.7531 80.9249 77.745C80.9269 77.7369 80.9267 77.7285 80.9245 77.7205C80.9222 77.7125 80.9179 77.7052 80.9119 77.6994L80.3303 77.1251C80.3243 77.1191 80.3168 77.1149 80.3086 77.1126C80.3005 77.1104 80.2918 77.1103 80.2836 77.1124C80.1927 77.1341 80.0996 77.1451 80.0061 77.145Z" fill="#571AFF"/>
<path d="M58.7063 81.5294C61.8069 81.5294 64.3203 79.0471 64.3203 75.9852C64.3203 72.9232 61.8069 70.441 58.7063 70.441C55.6058 70.441 53.0923 72.9232 53.0923 75.9852C53.0923 79.0471 55.6058 81.5294 58.7063 81.5294Z" fill="#CBBFEC"/>
<path d="M58.7059 80.2357C61.083 80.2357 63.01 78.3327 63.01 75.9852C63.01 73.6376 61.083 71.7346 58.7059 71.7346C56.3289 71.7346 54.4019 73.6376 54.4019 75.9852C54.4019 78.3327 56.3289 80.2357 58.7059 80.2357Z" fill="white"/>
<path d="M57.0512 78.6955C57.2904 78.6955 57.6264 78.6101 58.1295 78.3325C58.7547 78.0025 59.3257 77.5807 59.8229 77.0816C60.3375 76.5976 60.7672 76.0326 61.0946 75.4097C61.546 74.599 61.469 74.174 61.383 73.9924C61.2837 73.7938 61.1276 73.6284 60.934 73.5166C60.823 73.4448 60.7055 73.3832 60.5831 73.3327C60.5708 73.3275 60.5594 73.3225 60.5492 73.318C60.5087 73.2954 60.4638 73.2815 60.4174 73.2773C60.371 73.2732 60.3243 73.2788 60.2803 73.2938C60.1825 73.3403 60.0955 73.4062 60.0247 73.4874C59.7699 73.7699 59.5549 74.085 59.3856 74.4244C59.316 74.5417 59.2732 74.6727 59.2602 74.8081C59.2704 74.9421 59.3254 75.069 59.4165 75.1688C59.4325 75.1904 59.4485 75.2111 59.4639 75.2312C59.5571 75.3522 59.5776 75.3872 59.5641 75.4496C59.5368 75.5751 59.333 75.9487 58.9982 76.2786C58.6633 76.6086 58.296 76.7971 58.1684 76.824C58.1025 76.8379 58.0663 76.8168 57.9399 76.7215C57.9218 76.7078 57.9031 76.6937 57.8837 76.6795C57.7823 76.5852 57.6517 76.5274 57.5129 76.5157H57.5122C57.3731 76.5298 57.2393 76.5761 57.1218 76.6509C56.9012 76.7608 56.3975 77.0574 56.1766 77.2775C56.0942 77.3472 56.0273 77.4329 55.98 77.5293C55.9648 77.5729 55.9591 77.6191 55.9634 77.665C55.9676 77.7109 55.9816 77.7554 56.0045 77.7955C56.009 77.8055 56.014 77.8166 56.0193 77.8288C56.0709 77.9495 56.1336 78.0653 56.2066 78.1746C56.3202 78.3656 56.4879 78.5195 56.6892 78.6172C56.8023 78.6701 56.9261 78.6968 57.0512 78.6955Z" fill="#571AFF"/>
<path d="M101.472 81.5294C104.572 81.5294 107.086 79.0471 107.086 75.9852C107.086 72.9232 104.572 70.441 101.472 70.441C98.3714 70.441 95.8579 72.9232 95.8579 75.9852C95.8579 79.0471 98.3714 81.5294 101.472 81.5294Z" fill="#CBBFEC"/>
<path d="M101.472 80.2357C103.849 80.2357 105.776 78.3327 105.776 75.9852C105.776 73.6376 103.849 71.7346 101.472 71.7346C99.095 71.7346 97.168 73.6376 97.168 75.9852C97.168 78.3327 99.095 80.2357 101.472 80.2357Z" fill="white"/>
<path d="M102.256 78.502H100.688C100.636 78.502 100.586 78.4816 100.549 78.4453C100.512 78.409 100.492 78.3598 100.492 78.3084C100.492 78.2571 100.512 78.2078 100.549 78.1715C100.586 78.1352 100.636 78.1148 100.688 78.1148H102.256C102.308 78.1148 102.358 78.1352 102.395 78.1715C102.431 78.2078 102.452 78.2571 102.452 78.3084C102.452 78.3598 102.431 78.409 102.395 78.4453C102.358 78.4816 102.308 78.502 102.256 78.502Z" fill="#571AFF"/>
<path d="M101.472 77.534C101.004 77.5335 100.556 77.3497 100.225 77.0231C99.8941 76.6964 99.708 76.2535 99.7075 75.7916V75.4044C99.7075 75.353 99.7282 75.3038 99.7649 75.2675C99.8017 75.2312 99.8516 75.2108 99.9036 75.2108C99.9556 75.2108 100.005 75.2312 100.042 75.2675C100.079 75.3038 100.1 75.353 100.1 75.4044V75.7916C100.1 76.1508 100.245 76.4952 100.502 76.7491C100.759 77.003 101.108 77.1456 101.472 77.1456C101.836 77.1456 102.185 77.003 102.442 76.7491C102.699 76.4952 102.844 76.1508 102.844 75.7916V75.4044C102.844 75.353 102.865 75.3038 102.902 75.2675C102.938 75.2312 102.988 75.2108 103.04 75.2108C103.092 75.2108 103.142 75.2312 103.179 75.2675C103.216 75.3038 103.236 75.353 103.236 75.4044V75.7916C103.236 76.2535 103.05 76.6964 102.719 77.0231C102.388 77.3497 101.94 77.5335 101.472 77.534Z" fill="#571AFF"/>
<path d="M101.472 78.502C101.446 78.502 101.421 78.497 101.397 78.4873C101.373 78.4776 101.352 78.4633 101.333 78.4453C101.315 78.4273 101.301 78.406 101.291 78.3825C101.281 78.359 101.276 78.3338 101.276 78.3084V77.3404C101.276 77.289 101.297 77.2398 101.333 77.2035C101.37 77.1672 101.42 77.1468 101.472 77.1468C101.524 77.1468 101.574 77.1672 101.611 77.2035C101.647 77.2398 101.668 77.289 101.668 77.3404V78.3084C101.668 78.3338 101.663 78.359 101.653 78.3825C101.643 78.406 101.629 78.4273 101.611 78.4453C101.592 78.4633 101.571 78.4776 101.547 78.4873C101.523 78.497 101.498 78.502 101.472 78.502Z" fill="#571AFF"/>
<path d="M101.472 76.7596C101.343 76.7593 101.215 76.7333 101.095 76.6832C100.976 76.6332 100.869 76.56 100.779 76.468C100.595 76.2848 100.492 76.0374 100.492 75.7795V74.4363C100.491 74.3097 100.516 74.1842 100.565 74.067C100.613 73.9499 100.685 73.8433 100.775 73.7534C100.865 73.6635 100.973 73.5921 101.091 73.5432C101.209 73.4942 101.336 73.4688 101.464 73.4683C101.467 73.4683 101.469 73.4683 101.472 73.4683C101.601 73.4669 101.729 73.491 101.849 73.5392C101.968 73.5874 102.077 73.6586 102.168 73.7488C102.259 73.8389 102.332 73.9462 102.38 74.0643C102.429 74.1823 102.454 74.3088 102.452 74.4363V75.7795C102.453 76.0377 102.351 76.2859 102.167 76.4697C101.983 76.6534 101.733 76.7577 101.472 76.7596Z" fill="#571AFF"/>
<path d="M52.4785 25.1993V64.041H106.081V25.1993H52.4785Z" fill="white"/>
<path d="M103.684 45.8901L98.0874 48.506L103.041 44.8482C102.236 43.6072 101.331 42.4319 100.336 41.3336L76.0637 47.2916L97.9886 39.032C96.9867 38.159 95.9227 37.3581 94.8048 36.6354L57.8192 42.5187C53.8923 47.3683 51.7516 53.3922 51.7485 59.6017H107.422C107.42 54.786 106.13 50.0561 103.684 45.8901Z" fill="#F2F2F2"/>
<path d="M86.7317 35.4678C85.7789 38.2537 84.3179 40.7921 81.3404 40.7921C78.3629 40.7921 76.1169 38.4037 75.9491 35.4678C75.7347 31.7164 78.2942 30.1281 81.3404 30.1436C84.939 30.162 87.8624 32.1617 86.7317 35.4678Z" fill="#000A2C"/>
<path d="M85.7105 34.7596H76.8921V47.4512H85.7105V34.7596Z" fill="#000A2C"/>
<path d="M79.986 42.0467C79.986 42.0467 80.268 46.0393 79.6099 46.6892C78.9518 47.3392 85.4391 47.8963 85.3451 47.1535C85.2511 46.4107 84.0288 41.5825 84.4049 40.5611C84.781 39.5398 79.986 42.0467 79.986 42.0467Z" fill="#FF685F"/>
<path opacity="0.1" d="M79.986 42.0467C79.986 42.0467 80.268 46.0393 79.6099 46.6892C78.9518 47.3392 85.4391 47.8963 85.3451 47.1535C85.2511 46.4107 84.0288 41.5825 84.4049 40.5611C84.781 39.5398 79.986 42.0467 79.986 42.0467Z" fill="#000A2C"/>
<path d="M73.7813 52.2607L70.4031 63.542L70.2677 63.9964H64.583C66.8449 57.0818 72.4368 46.8852 72.4368 46.8852L73.3098 46.6898L73.7813 52.2607Z" fill="#571AFF"/>
<path opacity="0.1" d="M73.7813 52.2607L70.4031 63.542L70.2677 63.9964H64.583C66.8449 57.0818 72.4368 46.8852 72.4368 46.8852L73.3098 46.6898L73.7813 52.2607Z" fill="#000A2C"/>
<path d="M81.1142 43.4395C83.4509 43.4395 85.3451 41.5688 85.3451 39.2612C85.3451 36.9536 83.4509 35.0829 81.1142 35.0829C78.7775 35.0829 76.8833 36.9536 76.8833 39.2612C76.8833 41.5688 78.7775 43.4395 81.1142 43.4395Z" fill="#FF685F"/>
<path d="M85.6274 45.9464C85.6274 45.9464 84.1231 47.3392 82.4307 47.0607C80.7384 46.7821 80.0279 44.7497 80.0279 44.7497L78.3879 45.9464C78.3879 45.9464 77.9178 49.2891 80.0802 49.6605C82.2427 50.0319 85.3454 50.1247 86.0035 49.6605C86.6616 49.1962 85.6274 45.9464 85.6274 45.9464Z" fill="#000A2C"/>
<path d="M90.7987 50.8666L90.5289 51.7324L86.7198 63.9964H70.3267C70.3615 63.8466 70.3871 63.6948 70.4034 63.542C70.6154 61.7963 70.4905 57.3922 70.4905 57.0893C70.4905 56.7171 72.0877 47.5257 72.4655 46.8749C72.5241 46.7962 72.6011 46.7326 72.6899 46.6898C73.1283 46.441 74.0978 46.1624 75.1431 45.9165C75.1441 45.9155 75.1441 45.9155 75.145 45.9155C75.7292 45.7753 76.3389 45.6463 76.8919 45.5369H76.8928C77.4354 45.4293 77.922 45.3414 78.278 45.2835C78.47 45.2471 78.6637 45.2206 78.8584 45.204C78.9455 45.204 79.009 45.3059 79.0516 45.4621C79.1946 45.9707 79.1396 47.06 79.1396 47.06C79.2666 47.2041 79.4081 47.3351 79.5619 47.4509C79.9234 47.7314 80.3199 47.9649 80.7416 48.1456C81.1033 48.3022 81.4776 48.4282 81.8608 48.5224H81.8617C82.2644 48.6232 82.6743 48.6936 83.0879 48.7328C83.4249 48.7712 83.7657 48.7646 84.1009 48.7132H84.1028C85.0998 48.5505 85.4653 47.939 85.6357 47.4509C85.666 47.3621 85.6897 47.277 85.7105 47.1994C85.7105 47.1984 85.7115 47.1965 85.7115 47.1956C85.774 46.9572 85.8005 46.7898 85.8668 46.7926H85.8677C86.0391 46.8085 88.2007 48.6384 89.6048 49.8399C90.2714 50.4093 90.7666 50.8395 90.7968 50.8656L90.7987 50.8666Z" fill="#571AFF"/>
<path opacity="0.1" d="M90.5286 51.7324L86.7196 63.9964H85.1753C85.3141 63.7954 85.3744 63.5515 85.3448 63.3101C85.2955 62.9678 86.3683 59.4811 87.4013 56.2365C88.3405 53.2883 89.2466 50.543 89.2466 50.543L90.1395 50.9601C90.1395 50.9601 90.2995 51.2583 90.5286 51.7324Z" fill="#000A2C"/>
<path d="M93.2433 62.8444C93.0577 62.8902 93.0776 63.4344 93.0672 63.9964H85.771C85.8598 63.8879 85.926 63.7632 85.966 63.6294C86.006 63.4956 86.0189 63.3553 86.0039 63.2166C85.9556 62.8884 86.6752 59.5045 87.4014 56.2365C87.9723 53.6521 88.548 51.1396 88.7478 50.2653C88.797 50.054 88.8235 49.9399 88.8235 49.9399L88.9097 49.9801L88.9116 49.9811L90.7967 50.8656L90.7986 50.8666C90.7986 50.8666 93.7129 56.3459 92.7736 57.6456C91.8325 58.9453 91.8325 58.9453 92.2084 59.5961C92.5843 60.245 93.6182 62.7519 93.2433 62.8444Z" fill="#571AFF"/>
<path d="M81.3401 31.2645C82.5154 31.2645 83.4682 30.3236 83.4682 29.1628C83.4682 28.0021 82.5154 27.0612 81.3401 27.0612C80.1647 27.0612 79.2119 28.0021 79.2119 29.1628C79.2119 30.3236 80.1647 31.2645 81.3401 31.2645Z" fill="#000A2C"/>
<path d="M78.7865 28.042C78.7865 27.521 78.9825 27.0186 79.3364 26.6322C79.6903 26.2458 80.1769 26.003 80.7018 25.9509C80.6318 25.9441 80.5608 25.9403 80.489 25.9403C79.9246 25.9403 79.3833 26.1617 78.9842 26.5559C78.5851 26.95 78.3608 27.4846 78.3608 28.042C78.3608 28.5994 78.5851 29.134 78.9842 29.5281C79.3833 29.9222 79.9246 30.1437 80.489 30.1437C80.5608 30.1437 80.6318 30.1399 80.7018 30.133C80.1769 30.0809 79.6903 29.8381 79.3364 29.4518C78.9825 29.0654 78.7865 28.563 78.7865 28.042Z" fill="#000A2C"/>
<path d="M79.7746 33.9969C79.7746 33.9969 79.7302 33.7526 77.9922 34.3963C76.2543 35.0399 75.2125 39.7896 76.0815 42.5786C76.4317 43.7026 76.1468 44.513 75.6818 45.08C73.937 47.2077 74.6239 50.4036 77.1653 51.4977C77.2371 51.5286 77.3103 51.5592 77.3849 51.5893L78.4712 52.233C78.4712 52.233 77.0865 50.4337 77.7794 48.132C78.3812 46.1709 78.4555 44.0889 77.9951 42.0908C77.9156 41.7538 77.8252 41.4063 77.7227 41.0517C76.8537 38.0482 77.2763 38.395 80.3177 35.3915C80.3177 35.3915 82.0557 36.6787 83.5764 37.3223C85.0971 37.966 86.4006 38.6096 85.3143 40.755C84.2281 42.9004 81.6212 44.8313 83.3591 47.6203C85.0971 50.4094 85.3143 49.3366 85.0971 50.4094L84.8798 51.4821L86.1833 50.1948L85.3143 51.9111C85.3143 51.9111 88.1385 51.9111 89.0075 49.7657L89.442 50.1948C89.442 50.1948 91.1799 47.1912 87.9213 44.4022C87.9213 44.4022 86.835 43.7586 88.3557 41.6132C89.8765 39.4678 88.7085 34.8551 86.7533 33.9969C84.7982 33.1388 79.7746 33.9969 79.7746 33.9969Z" fill="#000A2C"/>
<path d="M81.1144 47.5078L77.4946 53.6994H78.3408V54.5351L82.4547 47.5078H81.1144Z" fill="#000A2C"/>
<path fill-rule="evenodd" clip-rule="evenodd" d="M50.8389 24.0859C50.839 23.9517 50.8931 23.8231 50.9891 23.7282C51.0852 23.6334 51.2155 23.58 51.3513 23.5798H107.209C107.345 23.58 107.475 23.6334 107.571 23.7282C107.667 23.8231 107.721 23.9517 107.721 24.0859V65.1542C107.721 65.2884 107.667 65.417 107.571 65.5119C107.475 65.6068 107.345 65.6602 107.209 65.6603H51.3513C51.2155 65.6602 51.0852 65.6068 50.9891 65.5119C50.8931 65.417 50.839 65.2884 50.8389 65.1542V24.0859ZM56.2043 60.3452V28.8949H102.356V60.3452H56.2043Z" fill="#CBBFEC"/>
<path d="M92.6487 17.2118C93.3963 17.2118 94.0024 16.6087 94.0024 15.8648C94.0024 15.1208 93.3963 14.5177 92.6487 14.5177C91.901 14.5177 91.2949 15.1208 91.2949 15.8648C91.2949 16.6087 91.901 17.2118 92.6487 17.2118Z" fill="white"/>
<path d="M92.6489 99.9428C94.4943 99.9428 95.9902 98.4542 95.9902 96.618C95.9902 94.7818 94.4943 93.2932 92.6489 93.2932C90.8036 93.2932 89.3076 94.7818 89.3076 96.618C89.3076 98.4542 90.8036 99.9428 92.6489 99.9428Z" fill="#B09AEC"/>
</g>
<defs>
<clipPath id="clip0_4_1883">
<rect width="255" height="145" fill="white"/>
</clipPath>
</defs>
</svg>
