<svg width="255" height="145" fill="none" xmlns="http://www.w3.org/2000/svg"><g clip-path="url(#a)"><path fill="#fff" d="M0 0h255v145H0z"/><path d="M153.71 123.287H10.004v33.111H153.71v-33.111Z" fill="#CBBFEC"/><path d="M223.411 124.614h-67.43V267.19h67.43V124.614Z" fill="#EFEFF0"/><path d="M218.016 128.574h-56.64v109.597h56.64V128.574Z" fill="#565661"/><path opacity=".1" d="M218.016 128.574h-56.64v109.597h56.64V128.574Z" fill="#4D26B9"/><path d="M218.016 130.819h-56.64v24.323h56.64v-24.323Z" fill="#565661"/><path d="M151.433 124.614v154.65h4.548V125.85l-4.548-1.236Z" fill="#EFEFF0"/><path d="M22.644 114.216H197.79l25.453 8.385v4.863L4.776 125.789v-4.949l17.868-6.624Z" fill="#F1ECFF"/><path d="m4.776 120.84 218.467 1.761v4.863L4.776 125.789v-4.949Z" fill="#B09AEC"/><path d="M119.485 115.411H65.989c-.949 0-1.719.765-1.719 1.708s.77 1.708 1.72 1.708h53.495c.95 0 1.719-.765 1.719-1.708s-.769-1.708-1.719-1.708Z" fill="#DDD0FF"/><path opacity=".1" d="M109.878 116.239v1.15h-34.28v-.933a11.56 11.56 0 0 0 2.646-1.403h29.529c.658.467 1.364.865 2.105 1.186Z" fill="#4D26B9"/><path d="M109.878 116.239v1.15h-34.28v-.933a11.56 11.56 0 0 0 2.646-1.403 11.223 11.223 0 0 0 3.46-3.989 11.163 11.163 0 0 0 1.246-5.123 11.191 11.191 0 0 0-2.616-7.178 11.265 11.265 0 0 0-3.96-3.013h33.27a11.275 11.275 0 0 0-3.96 3.013 11.2 11.2 0 0 0-2.266 4.419 11.025 11.025 0 0 0-.345 2.759 11.162 11.162 0 0 0 1.242 5.122 11.217 11.217 0 0 0 3.458 3.99c.658.467 1.364.865 2.105 1.186Z" fill="#F1ECFF"/><path d="M144.487 148.306c-.796 1.715-2.134 3.118-3.123 4.732a11.941 11.941 0 0 0-1.521 8.905 10.098 10.098 0 0 0 2.045 4.113 10.172 10.172 0 0 0 3.659 2.794 14.36 14.36 0 0 0 3.955.948c1.784.217 3.686.263 5.262-.595a7.66 7.66 0 0 0 2.804-2.916c1.364-2.27 2.14-4.828 2.85-7.376 1.313-4.702 2.434-9.526 2.271-14.404-.056-1.68-.39-3.572-1.79-4.541a6.043 6.043 0 0 0-2.352-.767l-6.688-1.19c-1.293-.232-3.549-1.176-4.669-.248-1.121.929-1.207 3.673-1.4 4.96-.304 1.902-.492 3.834-1.303 5.585Z" fill="#FF948D"/><path d="M111.409 114.337c5.07-3.027 12.253-1.598 15.211-.505.591 2.102 1.419 6.458 0 7.063-1.42.606-13.606-.588-19.521-1.261-.676-.504-.76-2.27 4.31-5.297Z" fill="#C9CFDD"/><path d="M153.68 153.059c-.384-1.85-.145-3.77-.314-5.653-.257-3.116-16.679-30.6-19.048-32.654a10.219 10.219 0 0 0-8.713-2.181 14.364 14.364 0 0 0-3.747 1.576c-1.565.881-3.121 1.968-3.877 3.591a7.616 7.616 0 0 0-.513 4.003c.259 2.633 1.163 5.148 2.114 7.617 1.752 4.559 18.684 33.693 21.728 37.52 1.048 1.318 2.448 2.642 4.152 2.594a6.046 6.046 0 0 0 2.35-.775l6.089-2.997c1.179-.578 3.557-1.154 3.903-2.563.347-1.409-1.223-3.667-1.836-4.816-.892-1.709-1.895-3.374-2.288-5.262Z" fill="#FF948D"/><path d="m225.778 128.791-1.749 14.591a66.736 66.736 0 0 0-.624 7.85c0 1.463.046 3.088-.928 4.182a3.832 3.832 0 0 1-1.744 1.045c-2.124.656-4.441.07-6.469-.833-1.187-.504-2.399-1.236-2.936-2.411a5.968 5.968 0 0 1-.38-2.558c0-8.703.826-17.779 5.394-25.196a5.488 5.488 0 0 1 1.608-1.846c1.267-.808 2.925-.581 4.36-.142.882.268 3.265.565 3.828 1.347.563.782-.238 2.967-.36 3.971Z" fill="#A1616A"/><path d="M179.37 76.029c10.081 0 18.253-8.132 18.253-18.163s-8.172-18.163-18.253-18.163-18.253 8.132-18.253 18.163c0 10.03 8.172 18.163 18.253 18.163Z" fill="#FF948D"/><path d="M174.488 84.933a9.34 9.34 0 0 1-1.131 4.036 817.275 817.275 0 0 0 27.886-4.722 13.047 13.047 0 0 1-6.469-7.568 21.32 21.32 0 0 1-.822-5.393 61.984 61.984 0 0 1 .168-8.683c-3.245.338-6.318 1.55-9.411 2.588a93.122 93.122 0 0 1-9.476 2.64c-1.546.342-3.103.635-4.665.907-1.825.323-2.702.318-1.435 1.912 3.403 4.258 5.831 8.587 5.355 14.283Z" fill="#FF948D"/><path d="M180.095 82.507c-2.408.358-4.933.761-6.855 2.245a25.74 25.74 0 0 0-2.083 1.993c-3.818 3.688-9.208 5.17-13.842 7.774a6.072 6.072 0 0 0-1.967 1.539c-.507.701-.766 1.594-1.298 2.29-.619.808-1.598 1.312-2.079 2.205-.482.893-.375 1.842-.426 2.79-.117 2.084-.908 4.062-1.521 6.054-2.814 9.541-1.273 20.181-5.532 29.192a4.11 4.11 0 0 0 2.241 2.331c1.072.384 2.191.623 3.326.711l9.436 1.165c1.349.167 2.779.323 4.011-.237a46.716 46.716 0 0 0-2.378 9.551 47.45 47.45 0 0 1-1.065 5.913c-1.298 4.44-4.563 8.138-8.432 10.665a3.113 3.113 0 0 0-1.191 1.095c-.507 1.009.243 2.139.775 3.128 1.547 2.866 1.334 6.307 1.314 9.556-.021 3.249.309 6.816 2.59 9.147 1.349 1.377 3.195 2.124 4.99 2.835l14.759 5.868a51.608 51.608 0 0 0 7.514 2.522c3.889.883 7.93.848 11.92.676 2.637-.111 5.27-.279 7.9-.504a6.177 6.177 0 0 0 2.986-.782 5.555 5.555 0 0 0 1.749-2.361c2.054-4.445 2.743-9.632 5.927-13.355 2.186-2.558 5.578-4.601 5.826-7.946.117-1.665-.629-3.285-.639-4.955 0-2.053 1.08-4.005 1.014-6.054-.137-3.335-3.295-5.877-3.797-9.177-1.278-8.365 2.991-16.72 5.612-24.767.472-1.438 1.08-3.027 2.47-3.642 1.389-.616 3.346-.293 3.843-1.655 1.252-3.421 1.551-7.432 1.389-11.069-.091-2.104-.841-4.163-.755-6.271.061-1.484.537-2.927.664-4.405.193-2.235-.401-4.455-1.014-6.614a10.33 10.33 0 0 0-.791-2.23 10.664 10.664 0 0 0-1.318-1.801l-2.47-2.921c-1.156-1.368-2.378-2.785-4.056-3.477-.542-1.337-2.276-2.26-3.519-2.996a36.114 36.114 0 0 0-3.873-1.892l-13.964-6.135a5.738 5.738 0 0 0-1.658-.535 5.392 5.392 0 0 0-2.464.504c-4.259 1.68-8.705 3.356-13.269 4.032Z" fill="#8F70E6"/><path d="M165.305 61.024c-.537-1.882-1.911-3.506-2.119-5.454-.188-1.73.578-3.405 1.014-5.09.436-1.685.421-3.744-.923-4.864-.223-.192-.507-.363-.588-.646-.162-.504.35-.963.507-1.473.289-1.009-.963-2.124-.507-3.093.259-.53.908-.716 1.476-.882 2.17-.641 4.37-2.064 4.842-4.269 1.698.707 3.508-.62 4.811-1.907 1.303-1.286 2.905-2.754 4.7-2.366l-.4.812c2.767-1 5.794-1.033 8.584-.096h-.852c2.447.042 4.82.84 6.789 2.286-.218 0-.238.323-.152.505.71 1.65 2.535 2.522 4.294 2.93 1.06.253 2.211.435 2.987 1.191.775.757.791 2.336-.233 2.7a26.716 26.716 0 0 1 5.886 3.178c.507.368 1.08.868 1.014 1.514-.072.324-.178.64-.314.943a3.252 3.252 0 0 0 .106 1.614l.563 2.311c.619 2.568 1.105 5.66-.776 7.523a6.879 6.879 0 0 1-1.222 8.153 3.34 3.34 0 0 1-.287 2.738 3.38 3.38 0 0 1-2.248 1.606c.624.968.051 2.35-.933 2.956-.983.605-2.22.61-3.366.505-1.146-.106-2.307-.364-3.453-.192-1.668.257-3.301 1.387-4.908.883a11.06 11.06 0 0 1-1.719-.919c-1.126-.6-2.434-.736-3.681-1.009a17.05 17.05 0 0 1-5.947-2.522 6.944 6.944 0 0 1-2.733-3.027c-1.116-2.805.76-6.483-1.212-8.769-1.156-1.332-3.448-1.352-4.741-.212-.644.57-.73 1.771-1.399 2.2-.934.235-1.9.317-2.86.242Zm75.496 63.514s-10.809-6.236-25.077 1.514c-14.268 7.749-16.646 53.352-16.646 53.352s5.836 46.461-16.666 36.124c0 0-41.069-12.689-45.181-9.894 0 0-3.894 0 3.889 1.721 7.783 1.72 37.85 11.2 37.85 11.2s9.719 3.38 13.836 0c4.117-3.38 15.784.434 17.3-22.804a402.203 402.203 0 0 1 5.405-43.671l4.01-11.831 21.28-15.711Z" fill="#4D26B9"/><path d="M242.099 196.391s-4.756-47.111 3.042-64.109c6.784-14.812-19.449-7.885-26.294-5.867a4.988 4.988 0 0 0-2.627 1.867c-4.056 5.675-18.607 28.424-14.318 58.862 0 0 1.729 27.107-9.081 31.406l33.307-10.676a96.576 96.576 0 0 1 8.213-2.215c3.529-.797 9.279-3.062 7.758-9.268Z" fill="#CBBFEC"/><path opacity=".1" d="M109.644 95.75a11.266 11.266 0 0 0-3.96 3.013 11.188 11.188 0 0 0-2.266 4.419H82.599a11.19 11.19 0 0 0-2.266-4.419 11.265 11.265 0 0 0-3.96-3.013h33.271Z" fill="#4D26B9"/><path d="M36.349 89.873v6.478c0 3.572 2.626 6.473 5.871 6.473h100.852c3.245 0 5.877-2.901 5.877-6.473v-6.478h-112.6Z" fill="#F1ECFF"/><path d="M148.949 18.922a5.831 5.831 0 0 0-1.722-4.133 5.874 5.874 0 0 0-4.155-1.71H42.22a5.892 5.892 0 0 0-4.153 1.71 5.836 5.836 0 0 0-1.718 4.133v72.212h112.6V18.922Z" fill="#4D26B9"/><path d="M145.876 21.53v62.056a2.856 2.856 0 0 1-.844 2.037 2.9 2.9 0 0 1-2.046.844H42.312a2.903 2.903 0 0 1-2.046-.844 2.876 2.876 0 0 1-.845-2.037V21.531a2.825 2.825 0 0 1 .386-1.438 2.885 2.885 0 0 1 2.505-1.438h100.674c.767 0 1.502.303 2.044.842.542.54.846 1.27.846 2.034Z" fill="#fff"/><path d="M113.17 23.55c-.05 0-.099.02-.135.055a.195.195 0 0 0-.056.133v15.283c.001.05.021.098.056.133a.194.194 0 0 0 .135.055h20.787c.05 0 .099-.02.135-.055a.195.195 0 0 0 .056-.133V23.738a.195.195 0 0 0-.056-.133.194.194 0 0 0-.135-.055H113.17Z" fill="#CBBFEC"/><path d="M113.59 24.152v14.455h19.947V24.152H113.59Z" fill="#fff"/><path d="M113.17 45.081c-.05 0-.099.02-.135.055a.195.195 0 0 0-.056.133v15.284c.001.05.021.097.056.133a.194.194 0 0 0 .135.055h20.787c.05 0 .099-.02.135-.055a.195.195 0 0 0 .056-.133V45.27a.195.195 0 0 0-.056-.134.194.194 0 0 0-.135-.055H113.17Z" fill="#CBBFEC"/><path d="M113.59 45.684v14.454h19.947V45.684H113.59Z" fill="#fff"/><path d="M113.17 66.613c-.05 0-.099.02-.135.055a.195.195 0 0 0-.056.133v15.283c.001.05.021.098.056.133a.194.194 0 0 0 .135.055h20.787c.05 0 .099-.02.135-.055a.195.195 0 0 0 .056-.133V66.801a.195.195 0 0 0-.056-.133.194.194 0 0 0-.135-.055H113.17Z" fill="#CBBFEC"/><path d="M113.59 67.215V81.67h19.947V67.215H113.59Z" fill="#fff"/><path d="m129.795 35.82-3.975-2.746h-.002a6.7 6.7 0 0 1-.278-1.29c.373-.335.638-.772.762-1.255a.5.5 0 0 1 .046.03c.348.276 1.01-2.647-.105-3.197 0 0-.835-1.788-2.437-1.375-1.601.412-2.507 1.031-2.576 1.65-.07.619.035 1.547.035 1.547s.096-.702.603-.95a2.518 2.518 0 0 0 .646 3.871c-.121.41-.283.941-.418 1.331l-1.215.597-2.646 1.65s-1.044 1.306-1.393 2.82c-.026.119-.055.238-.084.357h14.114c-.471-1.405-1.077-3.04-1.077-3.04Zm-.874 44.216c.272-.172.56-.317.859-.433l-2.957-3.468-1.955-.494a1.788 1.788 0 0 1-.77-.843l1.046-.01.399-2.23c.242-.649.144-1.217-.399-1.686.098-.6-.178-1.042-.909-1.292-.727-.623-1.802-.772-2.447.226a1.021 1.021 0 0 0-.716.236.996.996 0 0 0-.351.66c-.593.68.065 3.176.26 4.127l1.04-.01a1.63 1.63 0 0 1-.497.92l-.014-.015-2.079 1.005-2.958 3.376c.292.113.572.253.838.418l-.306 1.147h2.117l.563-.809h.028l.001-.041.395-.568c.009.459-.004.931-.036 1.418h6.582c-.01-.405-.013-.806-.013-1.205l.736 1.055c.055-.08.114-.154.173-.23l.145.38h1.686l-.404-1.518a.363.363 0 0 0-.057-.116ZM127.45 55.86l-2.794-1.128a8.389 8.389 0 0 1-.159-.723 2.455 2.455 0 0 0 1.169-1.506l.295-.313a1.561 1.561 0 0 0 .436-1.223 1.636 1.636 0 0 0-.612-1.09c.115-.713-.212-1.237-1.079-1.533-.862-.739-2.138-.917-2.903.267a1.21 1.21 0 0 0-.849.28 1.184 1.184 0 0 0-.418.783c-.628.722.019 2.162.328 3.265a.437.437 0 0 0 .369.309c.205.3.475.551.791.736.008.318-.03.637-.113.945l.003-.097-2.085.926-.001-.025-.201.115-.319.142.007.037-.029.016a2.2 2.2 0 0 0-.972 1.141l-1.071 3.096h9.588a7.09 7.09 0 0 1 .359-.945l.002-.034.852.979h2.601l-3.195-4.42ZM80.007 81.53c3.1 0 5.614-2.483 5.614-5.545s-2.514-5.544-5.614-5.544-5.614 2.482-5.614 5.544c0 3.062 2.513 5.544 5.614 5.544Z" fill="#CBBFEC"/><path d="M80.007 80.236c2.377 0 4.304-1.903 4.304-4.25 0-2.348-1.927-4.251-4.304-4.251-2.377 0-4.304 1.903-4.304 4.25 0 2.348 1.927 4.25 4.304 4.25Z" fill="#fff"/><path d="M82.163 78.307a.198.198 0 0 1-.139-.057l-4.313-4.26a.192.192 0 0 1 .004-.27.197.197 0 0 1 .273-.003l4.313 4.26a.193.193 0 0 1 .043.21.194.194 0 0 1-.181.12Zm-2.255-1.599-.634-.627a.025.025 0 0 0-.028-.005.024.024 0 0 0-.013.025.773.773 0 0 0 .22.43.79.79 0 0 0 .434.218c.006 0 .01 0 .015-.003a.025.025 0 0 0 .01-.01.023.023 0 0 0 .003-.015.024.024 0 0 0-.007-.013Zm.196-1.448.636.627a.025.025 0 0 0 .04-.006.023.023 0 0 0 .001-.015.772.772 0 0 0-.22-.43.79.79 0 0 0-.436-.218c-.005 0-.01 0-.014.003a.025.025 0 0 0-.011.01.025.025 0 0 0 .004.028Z" fill="#571AFF"/><path d="M82.886 76.194a.386.386 0 0 0-.001-.421 4.127 4.127 0 0 0-1.217-1.217 3.11 3.11 0 0 0-1.666-.509c-.299 0-.596.049-.88.143a.049.049 0 0 0-.032.035.048.048 0 0 0 .013.045l.58.572a.05.05 0 0 0 .046.013 1.191 1.191 0 0 1 1.11.307 1.16 1.16 0 0 1 .311 1.096.049.049 0 0 0 .013.046l.833.823a.05.05 0 0 0 .066.003 4.2 4.2 0 0 0 .824-.936Zm-2.88.951a1.19 1.19 0 0 1-.925-.444 1.157 1.157 0 0 1-.218-.991.048.048 0 0 0-.013-.046l-.819-.81a.05.05 0 0 0-.066-.002 4.845 4.845 0 0 0-.83.916.383.383 0 0 0-.007.43c.31.486.72.9 1.204 1.218a3.064 3.064 0 0 0 1.67.504c.302-.001.603-.049.89-.14a.048.048 0 0 0 .02-.08l-.582-.575a.05.05 0 0 0-.046-.013 1.19 1.19 0 0 1-.278.033Z" fill="#571AFF"/><path d="M58.706 81.53c3.1 0 5.614-2.483 5.614-5.545s-2.513-5.544-5.614-5.544c-3.1 0-5.614 2.482-5.614 5.544 0 3.062 2.514 5.544 5.614 5.544Z" fill="#CBBFEC"/><path d="M58.706 80.236c2.377 0 4.304-1.903 4.304-4.25 0-2.348-1.927-4.251-4.304-4.251-2.377 0-4.304 1.903-4.304 4.25 0 2.348 1.927 4.25 4.304 4.25Z" fill="#fff"/><path d="M57.051 78.695c.24 0 .575-.085 1.078-.362a7.007 7.007 0 0 0 1.694-1.251 6.354 6.354 0 0 0 1.272-1.672c.451-.811.374-1.236.288-1.418a1.137 1.137 0 0 0-.449-.475 2.17 2.17 0 0 0-.385-.199.332.332 0 0 0-.269-.024.788.788 0 0 0-.255.193c-.255.283-.47.598-.64.937a.925.925 0 0 0-.125.384c.01.134.065.261.157.36.015.022.032.043.047.063.093.121.114.156.1.219-.027.125-.231.499-.566.829-.335.33-.702.518-.83.545-.066.014-.102-.007-.228-.102a4.343 4.343 0 0 0-.056-.042.621.621 0 0 0-.371-.164.895.895 0 0 0-.391.135c-.22.11-.724.406-.945.627a.78.78 0 0 0-.197.251.321.321 0 0 0 .025.267l.014.033c.052.12.115.236.188.346.113.19.28.344.482.442.113.053.237.08.362.078Z" fill="#571AFF"/><path d="M101.472 81.53c3.1 0 5.614-2.483 5.614-5.545s-2.514-5.544-5.614-5.544-5.614 2.482-5.614 5.544c0 3.062 2.513 5.544 5.614 5.544Z" fill="#CBBFEC"/><path d="M101.472 80.236c2.377 0 4.304-1.903 4.304-4.25 0-2.348-1.927-4.251-4.304-4.251-2.377 0-4.304 1.903-4.304 4.25 0 2.348 1.927 4.25 4.304 4.25Z" fill="#fff"/><path d="M102.256 78.502h-1.568a.199.199 0 0 1-.139-.057.19.19 0 0 1-.057-.137c0-.05.02-.1.057-.137a.199.199 0 0 1 .139-.056h1.568a.2.2 0 0 1 .139.056.195.195 0 0 1 .057.137.195.195 0 0 1-.196.194Zm-.784-.968c-.468 0-.916-.184-1.247-.51a1.733 1.733 0 0 1-.517-1.232v-.388c0-.051.02-.1.057-.136a.198.198 0 0 1 .335.136v.388c0 .359.145.703.402.957a1.38 1.38 0 0 0 1.94 0c.257-.254.402-.598.402-.957v-.388a.195.195 0 0 1 .196-.194c.052 0 .102.021.139.058a.19.19 0 0 1 .057.136v.388c0 .462-.186.904-.517 1.231-.331.327-.779.51-1.247.511Z" fill="#571AFF"/><path d="M101.472 78.502a.198.198 0 0 1-.139-.057.198.198 0 0 1-.057-.137v-.968a.195.195 0 0 1 .196-.193.2.2 0 0 1 .139.056.195.195 0 0 1 .057.137v.968a.19.19 0 0 1-.057.137.204.204 0 0 1-.139.057Zm0-1.742a.984.984 0 0 1-.98-.98v-1.344a.958.958 0 0 1 .599-.893.984.984 0 0 1 .373-.075h.008a.983.983 0 0 1 .696.28.948.948 0 0 1 .284.688v1.343a.97.97 0 0 1-.285.69.994.994 0 0 1-.695.29Z" fill="#571AFF"/><path d="M52.478 25.2v38.84h53.603V25.199H52.478Z" fill="#fff"/><path d="m103.684 45.89-5.597 2.616 4.954-3.658a27.639 27.639 0 0 0-2.705-3.514l-24.272 5.958 21.925-8.26a27.919 27.919 0 0 0-3.184-2.397L57.819 42.52a27.162 27.162 0 0 0-6.07 17.083h55.673a27.098 27.098 0 0 0-3.738-13.712Z" fill="#F2F2F2"/><path d="M86.732 35.468c-.953 2.786-2.414 5.324-5.392 5.324-2.977 0-5.223-2.388-5.39-5.324-.215-3.752 2.344-5.34 5.39-5.324 3.599.018 6.522 2.018 5.392 5.324Z" fill="#000A2C"/><path d="M85.71 34.76h-8.818v12.69h8.819V34.76Z" fill="#000A2C"/><path d="M79.986 42.047s.282 3.992-.376 4.642c-.658.65 5.83 1.207 5.735.465-.094-.743-1.316-5.572-.94-6.593.376-1.021-4.419 1.486-4.419 1.486Z" fill="#FF685F"/><path opacity=".1" d="M79.986 42.047s.282 3.992-.376 4.642c-.658.65 5.83 1.207 5.735.465-.094-.743-1.316-5.572-.94-6.593.376-1.021-4.419 1.486-4.419 1.486Z" fill="#000A2C"/><path d="m73.781 52.26-3.378 11.282-.135.454h-5.685c2.262-6.914 7.854-17.11 7.854-17.11l.873-.196.471 5.57Z" fill="#571AFF"/><path opacity=".1" d="m73.781 52.26-3.378 11.282-.135.454h-5.685c2.262-6.914 7.854-17.11 7.854-17.11l.873-.196.471 5.57Z" fill="#000A2C"/><path d="M81.114 43.44c2.337 0 4.231-1.871 4.231-4.179 0-2.307-1.894-4.178-4.23-4.178-2.337 0-4.232 1.87-4.232 4.178s1.895 4.178 4.231 4.178Z" fill="#FF685F"/><path d="M85.627 45.946s-1.504 1.393-3.196 1.115c-1.693-.279-2.403-2.311-2.403-2.311l-1.64 1.196s-.47 3.343 1.692 3.715c2.163.37 5.265.464 5.924 0 .658-.465-.377-3.715-.377-3.715Z" fill="#000A2C"/><path d="m90.799 50.867-.27.865-3.81 12.264H70.328c.035-.15.06-.301.076-.454.212-1.746.087-6.15.087-6.453 0-.372 1.598-9.563 1.976-10.214a.61.61 0 0 1 .224-.185c.438-.249 1.408-.528 2.453-.773l.002-.002c.584-.14 1.194-.269 1.747-.378.543-.108 1.03-.196 1.386-.254.192-.036.386-.062.58-.079.087 0 .151.102.194.258.143.509.088 1.598.088 1.598.127.144.268.275.422.39.361.281.758.515 1.18.696.361.156.736.282 1.119.376.403.101.813.172 1.227.21.337.04.678.033 1.013-.019h.002c.997-.163 1.362-.774 1.533-1.262.03-.089.054-.174.075-.252v-.003c.063-.239.09-.406.156-.403.172.016 2.334 1.845 3.738 3.047.666.57 1.162 1 1.192 1.026h.002Z" fill="#571AFF"/><path opacity=".1" d="m90.529 51.732-3.81 12.264h-1.544a.994.994 0 0 0 .17-.686c-.05-.342 1.023-3.829 2.056-7.074.94-2.948 1.846-5.693 1.846-5.693l.892.417s.16.298.39.772Z" fill="#000A2C"/><path d="M93.243 62.844c-.185.046-.165.59-.176 1.152h-7.296a1.058 1.058 0 0 0 .233-.78c-.048-.328.671-3.712 1.397-6.98.571-2.584 1.147-5.096 1.347-5.97l.075-.326.087.04.002.001 1.885.885h.002s2.914 5.48 1.975 6.78c-.942 1.3-.942 1.3-.566 1.95.376.649 1.41 3.156 1.035 3.248Z" fill="#571AFF"/><path d="M81.34 31.265c1.175 0 2.128-.941 2.128-2.102 0-1.16-.953-2.102-2.128-2.102-1.175 0-2.128.941-2.128 2.102 0 1.16.953 2.102 2.128 2.102Z" fill="#000A2C"/><path d="M78.787 28.042c0-.521.195-1.023.55-1.41.353-.386.84-.629 1.365-.681a2.142 2.142 0 0 0-1.718.605 2.089 2.089 0 0 0-.623 1.486c0 .557.224 1.092.623 1.486a2.142 2.142 0 0 0 1.718.605 2.138 2.138 0 0 1-1.366-.681 2.087 2.087 0 0 1-.55-1.41Zm.988 5.955s-.045-.244-1.783.4c-1.738.643-2.78 5.393-1.91 8.182.35 1.124.065 1.934-.4 2.501-1.745 2.128-1.058 5.324 1.483 6.418l.22.091 1.086.644s-1.385-1.8-.692-4.101a11.66 11.66 0 0 0 .216-6.041c-.08-.337-.17-.685-.272-1.04-.87-3.003-.447-2.656 2.595-5.66 0 0 1.738 1.288 3.258 1.931 1.521.644 2.825 1.288 1.738 3.433-1.086 2.145-3.693 4.076-1.955 6.865 1.738 2.79 1.955 1.717 1.738 2.79l-.217 1.072 1.303-1.287-.869 1.716s2.825 0 3.694-2.145l.434.429s1.738-3.004-1.52-5.793c0 0-1.087-.643.434-2.789 1.52-2.145.353-6.758-1.603-7.616-1.955-.858-6.978 0-6.978 0Z" fill="#000A2C"/><path d="m81.114 47.508-3.62 6.191h.847v.836l4.114-7.027h-1.34Z" fill="#000A2C"/><path fill-rule="evenodd" clip-rule="evenodd" d="M50.839 24.086c0-.134.054-.263.15-.358a.517.517 0 0 1 .362-.148h55.858c.136 0 .266.053.362.148.096.095.15.224.15.358v41.068a.503.503 0 0 1-.15.358.515.515 0 0 1-.362.148H51.351a.516.516 0 0 1-.362-.148.504.504 0 0 1-.15-.358V24.086Zm5.365 36.26V28.894h46.152v31.45H56.204Z" fill="#CBBFEC"/><path d="M92.649 17.212a1.35 1.35 0 0 0 1.353-1.347 1.35 1.35 0 0 0-1.353-1.347 1.35 1.35 0 0 0-1.354 1.347 1.35 1.35 0 0 0 1.354 1.347Z" fill="#fff"/><path d="M92.649 99.943a3.333 3.333 0 0 0 3.341-3.325 3.333 3.333 0 0 0-3.341-3.325 3.333 3.333 0 0 0-3.341 3.325 3.333 3.333 0 0 0 3.34 3.325Z" fill="#B09AEC"/></g><defs><clipPath id="a"><path fill="#fff" d="M0 0h255v145H0z"/></clipPath></defs></svg>