<svg width="16" height="16" fill="none" xmlns="http://www.w3.org/2000/svg"><g clip-path="url(#a)"><path d="M15.998 8.144a.23.23 0 0 1-.009.065.133.133 0 0 1-.008.03c.002.002 0 .003 0 .005a.258.258 0 0 1-.029.065.315.315 0 0 1-.134.132l-.584.332-.05.03-.622.352-.144.08-2.709 1.541-.052.03-1.033.587-.128.072-.127.072-.064.037-.067.037-.006.004a.588.588 0 0 1-.147.054h-.002a.75.75 0 0 1-.53-.054l-.053-.03-.02-.01-.808-.46-.11-.063-.078-.044-.016-.009-.06-.034-.008-.005-.026-.015-.02-.012-.02-.011-.025-.014-.03-.017-.015-.008-.004-.003-.04-.023-.035-.02-.01-.005-.046-.026L5.848 9.51l-.481-.273-.144-.081-.622-.353-.066-.038-.567-.323a.322.322 0 0 1-.153-.172l-.026-.125a.337.337 0 0 1 .167-.292l.004-.004.008-.002.567-.322.067-.038L7.287 5.96l.174-.098.669-.38.045-.026.01-.005.035-.02.04-.023.004-.002.015-.01.03-.016.026-.014.02-.011.019-.01.026-.015.009-.006.06-.034.016-.009.078-.044.11-.063.807-.459.073-.04a.761.761 0 0 1 .752.04l1.351.768.841.477 2.687 1.527.05.03.584.33.009.002.002.004a.332.332 0 0 1 .169.292Z" fill="#123B6D"/><path d="M11.716 2.567H8.19v3.294l3.527 3.294h3.528V5.861l-3.527-3.294Z" fill="#28A8EA"/><path d="M11.716 9.155v3.294H8.19l-.063-.053-.009-.008v-.001l-.011-.01-.023-.02-.043-.036-.003-.002-.056-.049H7.98l-.014-.012-.006-.005-.007-.007-.074-.063h-.001l-.015-.014-.01-.009-.007-.005-.015-.012-.038-.032-.075-.062L4.66 9.534l-.126-.104V5.861H8.19l.076.071.018.018.056.052.039.035.035.033.06.056.016.015.078.074 3.15 2.94Z" fill="#0364B8"/><path d="M8.189 9.155H4.66v3.294h3.53V9.155Z" fill="#14447D"/><path d="M15.244 9.155h-3.527v3.294h3.527V9.155Z" fill="#0078D4"/><path d="M15.244 2.567h-3.527v3.294h3.527V2.567Z" fill="#50D9FF"/><path d="M8.189 2.567H4.535v3.294H8.19V2.567Zm3.527 3.294H8.19v3.294h3.527V5.861Z" fill="#0078D4"/><path d="M5.213.667h9.353a.674.674 0 0 1 .627.42.686.686 0 0 1 .051.262v1.218H4.535V1.35a.685.685 0 0 1 .419-.63.675.675 0 0 1 .26-.052Z" fill="#0358A7"/><path opacity=".1" d="m15.244 8.246-5.173 2.823-.024.014a.234.234 0 0 1-.054.025l-.168-.095-.021-.011a.348.348 0 0 1-.03-.017l-.013-.008-1.024-.572-.084-.048-.069-.038-.15-.085-3.899-2.18v4.088h10.71V8.245Z" fill="#0A2767"/><path opacity=".1" d="m15.244 8.373-5.173 2.823-.024.014a.235.235 0 0 1-.054.025l-.168-.095-.021-.011a.321.321 0 0 1-.03-.017l-.013-.008-1.024-.572-.084-.048-.069-.038-.15-.085-3.899-2.18v4.088h10.71V8.372Z" fill="#0A2767"/><path opacity=".1" d="m15.244 8.5-5.173 2.822-.024.015a.234.234 0 0 1-.054.025l-.168-.095-.021-.011a.348.348 0 0 1-.03-.017l-.013-.008-1.024-.572-.084-.048-.069-.038-.15-.085-3.899-2.18v4.087h10.71V8.5Z" fill="#0A2767"/><path opacity=".1" d="m15.244 8.626-5.173 2.822-.024.014a.218.218 0 0 1-.054.026l-.168-.095-.021-.011a.348.348 0 0 1-.03-.017l-.013-.008-1.024-.572-.084-.048-.069-.038-.15-.085-3.899-2.18v4.087h10.71V8.626Z" fill="#0A2767"/><path d="m15.829 8.426-.007.003-.002.001-5.518 3.011a.793.793 0 0 1-.753.04.772.772 0 0 1-.074-.04l.26 1.877 5.5 1.653a.782.782 0 0 0 .45-.139.718.718 0 0 0 .314-.592V8.145a.323.323 0 0 1-.17.28Z" fill="#1490DF"/><path opacity=".05" d="m10.517 11.33-.205.111a.794.794 0 0 1-.753.04.798.798 0 0 1-.074-.04l.26 1.877 5.5 1.653a.79.79 0 0 0 .45-.14.73.73 0 0 0 .294-.424l-5.472-3.078Z" fill="#000"/><path opacity=".05" d="M15.947 14.528 10.386 11.4l-.074.04a.794.794 0 0 1-.753.04v.001a.775.775 0 0 1-.074-.04l.26 1.877 5.5 1.653a.79.79 0 0 0 .45-.14.74.74 0 0 0 .252-.303Z" fill="#000"/><path opacity=".05" d="m15.885 14.638-5.63-3.165-.017.009a.794.794 0 0 1-.679 0 .775.775 0 0 1-.074-.04l.26 1.877 5.5 1.653a.79.79 0 0 0 .45-.14.75.75 0 0 0 .19-.194Z" fill="#000"/><path opacity=".05" d="M15.804 14.737 10.15 11.56l-.028-.016-.022-.012a.794.794 0 0 1-.542-.05.775.775 0 0 1-.074-.04l.26 1.877 5.5 1.653a.783.783 0 0 0 .559-.234Z" fill="#000"/><path d="M15.702 14.825a1.025 1.025 0 0 1-.05.033c-.016.01-.034.019-.051.028l-.06.028-.004.001a1.13 1.13 0 0 1-.164.046.59.59 0 0 1-.125.01H4.555a.753.753 0 0 1-.705-.462.765.765 0 0 1-.061-.29V8.143l.173.097.003.001.002.002.569.318 1.06.593 2.593 1.449.076.043.019.01.055.032.04.021.034.02.06.034.016.008.078.043.937.525c.024.015.05.029.075.042l.312.176.198.111h.001l.84.473.226.127.226.126.094.053.131.074 4.095 2.303Z" fill="#28A8EA"/><path opacity=".05" d="M8.567 4.34v7.553a.68.68 0 0 1-.678.682H3.78v-.507h.01V8.143a.336.336 0 0 1 .167-.291l.004-.004.007-.002.568-.322V3.58H7.89a.57.57 0 0 1 .3.087.806.806 0 0 1 .378.673Z" fill="#000"/><path opacity=".075" d="M8.472 4.353v7.414a.69.69 0 0 1-.283.559.47.47 0 0 1-.083.05c-.013.008-.025.013-.038.02a.661.661 0 0 1-.262.053H3.78v-.38h.008V8.144a.336.336 0 0 1 .168-.291l.004-.004.007-.003.568-.322V3.612h3.26a.62.62 0 0 1 .394.149.778.778 0 0 1 .283.592Z" fill="#000"/><path opacity=".1" d="M8.378 4.364v7.276a.693.693 0 0 1-.208.502.618.618 0 0 1-.185.127H7.98a.662.662 0 0 1-.257.053H3.78v-.254h.008V8.144a.336.336 0 0 1 .168-.292l.004-.004.007-.002.568-.322v-3.88H7.7a.653.653 0 0 1 .489.23c.12.135.188.31.189.49Z" fill="#000"/><path opacity=".125" d="M8.283 4.376v7.138a.73.73 0 0 1-.094.364.63.63 0 0 1-.336.282.636.636 0 0 1-.21.036H3.78v-.127h.008V8.144a.336.336 0 0 1 .168-.291l.004-.004.007-.003.568-.321v-3.85h3.07a.674.674 0 0 1 .584.35.7.7 0 0 1 .094.351Z" fill="#000"/><path opacity=".2" d="M8.19 4.389v6.998a.656.656 0 0 1-.472.661.595.595 0 0 1-.159.02H3.79V8.145a.336.336 0 0 1 .167-.292l.004-.004.007-.002.569-.322V3.707H7.51a.676.676 0 0 1 .678.682Z" fill="#000"/><path d="M7.511 3.707H.678A.68.68 0 0 0 0 4.389v6.871a.68.68 0 0 0 .678.682H7.51a.68.68 0 0 0 .678-.682V4.39a.68.68 0 0 0-.678-.682Z" fill="url(#b)"/><path d="M2.273 6.703a1.85 1.85 0 0 1 .724-.804 2.184 2.184 0 0 1 1.15-.29c.372-.008.74.087 1.063.275.304.182.549.449.705.768.17.352.254.739.246 1.13.008.408-.079.813-.254 1.182-.16.33-.411.606-.725.794a2.106 2.106 0 0 1-1.104.283 2.074 2.074 0 0 1-1.087-.278 1.859 1.859 0 0 1-.714-.77 2.43 2.43 0 0 1-.249-1.116 2.697 2.697 0 0 1 .245-1.174Zm.771 1.887c.083.211.224.394.407.529.186.13.409.198.636.192.242.01.48-.06.68-.198a1.16 1.16 0 0 0 .394-.53 2.06 2.06 0 0 0 .126-.739 2.257 2.257 0 0 0-.119-.747 1.184 1.184 0 0 0-.38-.55 1.048 1.048 0 0 0-.674-.209 1.094 1.094 0 0 0-.651.194c-.186.135-.33.32-.416.534a2.13 2.13 0 0 0-.003 1.524Z" fill="#fff"/></g><defs><linearGradient id="b" x1="1.422" y1="3.169" x2="6.812" y2="12.453" gradientUnits="userSpaceOnUse"><stop stop-color="#1784D9"/><stop offset=".5" stop-color="#107AD5"/><stop offset="1" stop-color="#0A63C9"/></linearGradient><clipPath id="a"><path fill="#fff" d="M0 0h16v16H0z"/></clipPath></defs></svg>