<svg width="168" height="49" viewBox="0 0 168 49" fill="none" xmlns="http://www.w3.org/2000/svg">
<g filter="url(#filter0_dd_33_1905)">
<path d="M73.9877 13.5639V17.5578H68.5045V34.0289H63.4636V17.5578H57.9805V13.5639H73.9877Z" fill="white"/>
<path d="M84.0053 34.2622C82.3938 34.2622 80.9395 33.922 79.6424 33.2418C78.3649 32.5616 77.3528 31.5898 76.606 30.3266C75.8789 29.0633 75.5153 27.5862 75.5153 25.8954C75.5153 24.224 75.8887 22.7566 76.6355 21.4933C77.3823 20.2106 78.4042 19.2292 79.7013 18.5489C80.9984 17.8687 82.4527 17.5286 84.0642 17.5286C85.6758 17.5286 87.1301 17.8687 88.4272 18.5489C89.7242 19.2292 90.7462 20.2106 91.493 21.4933C92.2398 22.7566 92.6132 24.224 92.6132 25.8954C92.6132 27.5668 92.23 29.0439 91.4635 30.3266C90.7167 31.5898 89.6849 32.5616 88.3682 33.2418C87.0711 33.922 85.6168 34.2622 84.0053 34.2622ZM84.0053 29.9476C84.9683 29.9476 85.7839 29.5978 86.4521 28.8981C87.1399 28.1984 87.4838 27.1975 87.4838 25.8954C87.4838 24.5932 87.1497 23.5923 86.4815 22.8927C85.833 22.193 85.0272 21.8432 84.0642 21.8432C83.0816 21.8432 82.266 22.193 81.6175 22.8927C80.9689 23.5729 80.6447 24.5738 80.6447 25.8954C80.6447 27.1975 80.9591 28.1984 81.588 28.8981C82.2365 29.5978 83.0423 29.9476 84.0053 29.9476Z" fill="white"/>
<path d="M105.34 34.0289L100.328 27.2072V34.0289H95.2875V12.4561H100.328V24.3794L105.31 17.7618H111.531L104.691 25.9245L111.59 34.0289H105.34Z" fill="white"/>
<path d="M128.397 13.5639V17.5578H122.914V34.0289H117.873V17.5578H112.39V13.5639H128.397Z" fill="white"/>
<path d="M138.415 34.2622C136.804 34.2622 135.349 33.922 134.052 33.2418C132.775 32.5616 131.763 31.5898 131.016 30.3266C130.289 29.0633 129.925 27.5862 129.925 25.8954C129.925 24.224 130.299 22.7566 131.045 21.4933C131.792 20.2106 132.814 19.2292 134.111 18.5489C135.408 17.8687 136.863 17.5286 138.474 17.5286C140.086 17.5286 141.54 17.8687 142.837 18.5489C144.134 19.2292 145.156 20.2106 145.903 21.4933C146.65 22.7566 147.023 24.224 147.023 25.8954C147.023 27.5668 146.64 29.0439 145.873 30.3266C145.127 31.5898 144.095 32.5616 142.778 33.2418C141.481 33.922 140.027 34.2622 138.415 34.2622ZM138.415 29.9476C139.378 29.9476 140.194 29.5978 140.862 28.8981C141.55 28.1984 141.894 27.1975 141.894 25.8954C141.894 24.5932 141.56 23.5923 140.891 22.8927C140.243 22.193 139.437 21.8432 138.474 21.8432C137.491 21.8432 136.676 22.193 136.027 22.8927C135.379 23.5729 135.054 24.5738 135.054 25.8954C135.054 27.1975 135.369 28.1984 135.998 28.8981C136.646 29.5978 137.452 29.9476 138.415 29.9476Z" fill="white"/>
<path d="M159.75 34.0289L154.738 27.2072V34.0289H149.697V12.4561H154.738V24.3794L159.72 17.7618H165.94L159.101 25.9245L165.999 34.0289H159.75Z" fill="white"/>
<g clip-path="url(#clip0_33_1905)">
<path d="M45.4869 2H2V45.005H45.4869V2Z" fill="#3F2A8C"/>
<path d="M31.786 12.75H20.0459C19.0853 12.75 18.3066 13.5201 18.3066 14.47V36.83C18.3066 37.7799 19.0853 38.55 20.0459 38.55H31.786C32.7466 38.55 33.5253 37.7799 33.5253 36.83V14.47C33.5253 13.5201 32.7466 12.75 31.786 12.75Z" fill="white"/>
<path d="M31.5689 28.6599C32.0491 28.6599 32.4385 28.2749 32.4385 27.7999C32.4385 27.325 32.0491 26.9399 31.5689 26.9399C31.0886 26.9399 30.6992 27.325 30.6992 27.7999C30.6992 28.2749 31.0886 28.6599 31.5689 28.6599Z" fill="#3F2A8C"/>
<path d="M27.4364 9.95495C27.494 9.95495 27.5493 9.9776 27.5901 10.0179C27.6309 10.0582 27.6538 10.1129 27.6538 10.17V32.53C27.6538 32.587 27.6309 32.6417 27.5901 32.682C27.5493 32.7223 27.494 32.745 27.4364 32.745H15.6963C15.6386 32.745 15.5833 32.7223 15.5426 32.682C15.5018 32.6417 15.4789 32.587 15.4789 32.53V10.17C15.4789 10.1129 15.5018 10.0582 15.5426 10.0179C15.5833 9.9776 15.6386 9.95495 15.6963 9.95495H27.4364ZM27.4364 8.44995H15.6963C15.235 8.44995 14.7926 8.63117 14.4665 8.95373C14.1403 9.27629 13.957 9.71378 13.957 10.17V32.53C13.957 32.9861 14.1403 33.4236 14.4665 33.7462C14.7926 34.0687 15.235 34.25 15.6963 34.25H27.4364C27.8977 34.25 28.3401 34.0687 28.6662 33.7462C28.9924 33.4236 29.1757 32.9861 29.1757 32.53V10.17C29.1757 9.71378 28.9924 9.27629 28.6662 8.95373C28.3401 8.63117 27.8977 8.44995 27.4364 8.44995Z" fill="#F23D3D"/>
<path d="M25.9146 24.3599C26.3948 24.3599 26.7842 23.9749 26.7842 23.4999C26.7842 23.0249 26.3948 22.6399 25.9146 22.6399C25.4343 22.6399 25.0449 23.0249 25.0449 23.4999C25.0449 23.9749 25.4343 24.3599 25.9146 24.3599Z" fill="#F23D3D"/>
</g>
</g>
<defs>
<filter id="filter0_dd_33_1905" x="0.1157" y="0.7438" width="167.769" height="48.0248" filterUnits="userSpaceOnUse" color-interpolation-filters="sRGB">
<feFlood flood-opacity="0" result="BackgroundImageFix"/>
<feColorMatrix in="SourceAlpha" type="matrix" values="0 0 0 0 0 0 0 0 0 0 0 0 0 0 0 0 0 0 127 0" result="hardAlpha"/>
<feOffset dy="1.8843"/>
<feGaussianBlur stdDeviation="0.94215"/>
<feColorMatrix type="matrix" values="0 0 0 0 0 0 0 0 0 0.137255 0 0 0 0 0.172549 0 0 0 0.1 0"/>
<feBlend mode="normal" in2="BackgroundImageFix" result="effect1_dropShadow_33_1905"/>
<feColorMatrix in="SourceAlpha" type="matrix" values="0 0 0 0 0 0 0 0 0 0 0 0 0 0 0 0 0 0 127 0" result="hardAlpha"/>
<feOffset/>
<feGaussianBlur stdDeviation="0.6281"/>
<feColorMatrix type="matrix" values="0 0 0 0 0 0 0 0 0 0 0 0 0 0 0 0 0 0 0.5 0"/>
<feBlend mode="normal" in2="effect1_dropShadow_33_1905" result="effect2_dropShadow_33_1905"/>
<feBlend mode="normal" in="SourceGraphic" in2="effect2_dropShadow_33_1905" result="shape"/>
</filter>
<clipPath id="clip0_33_1905">
<rect x="2" y="2" width="43.4818" height="43" rx="5.0248" fill="white"/>
</clipPath>
</defs>
</svg>
