<svg width="80" height="80" fill="none" xmlns="http://www.w3.org/2000/svg"><circle cx="40" cy="40" r="40" fill="#fff"/><path d="M46.538 62.69a4.718 4.718 0 0 0 4.932-4.493l-9.423-.44a4.718 4.718 0 0 0 4.491 4.934Zm16.379-10.284c-1.352-1.596-3.907-4.02-3.555-11.555.268-5.723-3.53-10.491-8.889-11.868l.072-1.535a2.359 2.359 0 1 0-4.711-.22l-.072 1.535c-5.463.871-9.69 5.265-9.956 10.988-.352 7.534-3.122 9.71-4.617 11.172a2.304 2.304 0 0 0-.709 1.57c-.048 1.208.846 2.401 2.254 2.467l28.268 1.32c1.408.066 2.41-1.038 2.474-2.246a2.302 2.302 0 0 0-.559-1.628Z" fill="#F4ED0F"/><path d="M42.104 57.864a4.718 4.718 0 0 0 3.738-5.527l-9.263 1.786a4.718 4.718 0 0 0 5.525 3.74Zm13.504-13.846c-1.689-1.233-4.742-2.99-6.17-10.396-1.085-5.626-5.898-9.368-11.43-9.447l-.29-1.51a2.359 2.359 0 1 0-4.63.894l.29 1.509c-5.105 2.13-8.181 7.394-7.096 13.02 1.428 7.406-.753 10.171-1.862 11.944a2.304 2.304 0 0 0-.32 1.692c.236 1.186 1.386 2.136 2.77 1.869l27.787-5.359c1.384-.267 2.099-1.576 1.877-2.765a2.303 2.303 0 0 0-.926-1.451Z" fill="#571AFF"/></svg>