<svg width="50" height="51" fill="none" xmlns="http://www.w3.org/2000/svg"><circle cx="32.627" cy="28.208" r="12.376" fill="#F4ED0F"/><path d="M25 40.482a14.651 14.651 0 1 1 14.65-14.651A14.667 14.667 0 0 1 25 40.482Zm0-27.047a12.396 12.396 0 1 0 12.396 12.396A12.41 12.41 0 0 0 25 13.435Z" fill="#000"/><path d="M16.233 26.959a1.128 1.128 0 0 1-1.128-1.128A9.906 9.906 0 0 1 25 15.936a1.128 1.128 0 1 1 0 2.255 7.649 7.649 0 0 0-7.64 7.64 1.128 1.128 0 0 1-1.127 1.128ZM25 8.917a1.128 1.128 0 0 1-1.128-1.128v-5.83a1.128 1.128 0 1 1 2.256 0v5.83A1.128 1.128 0 0 1 25 8.917Zm0 41.913a1.128 1.128 0 0 1-1.128-1.127v-5.83a1.128 1.128 0 1 1 2.256 0v5.83A1.128 1.128 0 0 1 25 50.831ZM6.958 26.959h-5.83a1.128 1.128 0 1 1 0-2.256h5.83a1.128 1.128 0 1 1 0 2.256Zm41.914 0h-5.83a1.127 1.127 0 1 1 0-2.256h5.83a1.128 1.128 0 1 1 0 2.256ZM8.12 43.839a1.127 1.127 0 0 1-.798-1.925l4.123-4.123a1.127 1.127 0 1 1 1.595 1.595l-4.123 4.122a1.124 1.124 0 0 1-.797.33ZM37.757 14.2a1.127 1.127 0 0 1-.797-1.924l4.123-4.123a1.127 1.127 0 1 1 1.594 1.595l-4.122 4.122a1.123 1.123 0 0 1-.798.33Zm4.123 29.639a1.124 1.124 0 0 1-.797-.33l-4.123-4.123a1.129 1.129 0 1 1 1.595-1.595l4.122 4.123a1.128 1.128 0 0 1-.797 1.925ZM12.242 14.2a1.124 1.124 0 0 1-.797-.33L7.322 9.748a1.128 1.128 0 0 1 1.595-1.595l4.123 4.123a1.128 1.128 0 0 1-.798 1.925Z" fill="#000"/></svg>