<svg width="60" height="61" viewBox="0 0 60 61" fill="none" xmlns="http://www.w3.org/2000/svg">
<g id="icon/vote">
<path id="Vector" d="M49.3853 48.3441H46.3335V27.305C46.3335 26.8865 46.1634 26.4851 45.8606 26.1892C45.5578 25.8933 45.1471 25.7271 44.7188 25.7271H42.3022V23.6231C42.303 22.327 41.8077 21.0775 40.9136 20.1201L31.3976 9.92141C31.102 9.65329 30.7145 9.50297 30.3112 9.50004C29.9079 9.49712 29.518 9.64179 29.2184 9.90559C28.9188 10.1694 28.731 10.5332 28.692 10.9255C28.6531 11.3178 28.7657 11.7101 29.0079 12.0253L38.5238 22.2661C38.8723 22.6441 39.0642 23.1354 39.062 23.6442V25.7481H25.4448L24.6159 24.1228C24.4232 23.749 24.0864 23.4652 23.6797 23.334C23.2729 23.2029 22.8294 23.235 22.4469 23.4233C22.0643 23.6116 21.774 23.9407 21.6397 24.3382C21.5055 24.7358 21.5383 25.1691 21.731 25.543L27.7807 37.2618C27.9721 37.6324 28.0439 38.0511 27.9866 38.4625C27.9294 38.8739 27.7457 39.2586 27.4599 39.5658C27.1741 39.873 26.7997 40.0882 26.3861 40.183C25.9725 40.2778 25.5392 40.2478 25.1434 40.0968L24.9927 40.0337C24.5417 39.8698 24.1617 39.5597 23.9162 39.1553L19.901 32.428C19.7457 32.155 19.5656 31.8963 19.3628 31.6548L14.5456 26.2057C13.9416 25.5186 13.606 24.6447 13.5983 23.7389L13.5015 11.1943C13.5015 10.7758 13.3313 10.3744 13.0285 10.0785C12.7257 9.78259 12.315 9.61634 11.8868 9.61634C11.4585 9.61634 11.0478 9.78259 10.745 10.0785C10.4422 10.3744 10.2721 10.7758 10.2721 11.1943L10.369 23.7389C10.3708 25.3967 10.9755 26.9999 12.0752 28.2623L14.5133 31.0342V48.3441H11.3647C10.9364 48.3441 10.5257 48.5104 10.2229 48.8063C9.92012 49.1022 9.75 49.5036 9.75 49.9221C9.75 50.3406 9.92012 50.7419 10.2229 51.0378C10.5257 51.3338 10.9364 51.5 11.3647 51.5H49.3853C49.8136 51.5 50.2243 51.3338 50.5271 51.0378C50.8299 50.7419 51 50.3406 51 49.9221C51 49.5036 50.8299 49.1022 50.5271 48.8063C50.2243 48.5104 49.8136 48.3441 49.3853 48.3441ZM17.7589 35.1053L21.1228 40.7437C21.736 41.7631 22.6847 42.5493 23.814 42.9739L23.9916 43.0423C24.6111 43.2777 25.2699 43.399 25.9346 43.3999C26.8434 43.3964 27.7362 43.166 28.5283 42.7305C29.3204 42.2951 29.9856 41.6691 30.4606 40.9119C30.9356 40.1548 31.2048 39.2915 31.2425 38.4042C31.2803 37.5168 31.0854 36.6347 30.6764 35.8416L27.0756 28.8829H43.1042V48.3441H17.7589V35.1053Z" fill="#571AFF"/>
</g>
</svg>
