<svg width="88" height="81" viewBox="0 0 88 81" fill="none" xmlns="http://www.w3.org/2000/svg">
<g clip-path="url(#clip0_417_1451)">
<path opacity="0.4" d="M79.6076 34.7598C81.1976 34.7598 82.4866 33.4694 82.4866 31.8775C82.4866 30.2856 81.1976 28.9951 79.6076 28.9951C78.0175 28.9951 76.7285 30.2856 76.7285 31.8775C76.7285 33.4694 78.0175 34.7598 79.6076 34.7598Z" fill="#3F2682"/>
<path opacity="0.4" d="M18.905 18.9019C21.1717 18.9019 23.0092 17.0623 23.0092 14.793C23.0092 12.5237 21.1717 10.6841 18.905 10.6841C16.6383 10.6841 14.8008 12.5237 14.8008 14.793C14.8008 17.0623 16.6383 18.9019 18.905 18.9019Z" fill="#3F2682"/>
<path opacity="0.4" d="M11.3088 19.6378C12.8988 19.6378 14.1878 18.3473 14.1878 16.7554C14.1878 15.1635 12.8988 13.873 11.3088 13.873C9.71869 13.873 8.42969 15.1635 8.42969 16.7554C8.42969 18.3473 9.71869 19.6378 11.3088 19.6378Z" fill="#3F2682"/>
<path d="M82.0176 64.1094C79.7428 66.6029 79.6602 70.235 79.6602 70.235C79.6602 70.235 83.2659 69.8245 85.5407 67.3311C87.8156 64.8377 87.8982 61.2056 87.8982 61.2056C87.8982 61.2056 84.2925 61.616 82.0176 64.1094Z" fill="#3F3D56"/>
<path d="M83.3042 64.8268C82.6158 68.1327 79.7222 70.3253 79.7222 70.3253C79.7222 70.3253 77.9447 67.1579 78.6331 63.852C79.3214 60.5461 82.215 58.3535 82.215 58.3535C82.215 58.3535 83.9926 61.5209 83.3042 64.8268Z" fill="#3F2682"/>
<path d="M80.3484 30.7144V70.124L67.2268 80.976H0.0976562V39.6625L19.6849 30.7144H80.3484Z" fill="#F53B3B"/>
<path opacity="0.1" d="M80.3484 30.7144V30.8723L75.6379 34.0289L67.2268 39.6625H0.0976562L19.6849 30.7144H80.3484Z" fill="black"/>
<path opacity="0.1" d="M80.3481 30.7144V70.124L67.2266 80.976L67.3217 39.5673L75.6377 34.0289L80.2721 30.7144H80.3481Z" fill="black"/>
<path d="M62.6633 36.1402H21.7773L24.82 34.4268H63.9946L62.6633 36.1402Z" fill="#2F2E41"/>
<path d="M50.6964 11.7874C50.6964 11.7874 49.6287 8.75878 48.8576 9.70893C48.0865 10.6591 50.044 12.2625 50.044 12.2625L50.6964 11.7874Z" fill="#EECF9F"/>
<path d="M55.7385 8.81787L55.0962 9.05618C55.0962 9.05618 54.7894 10.4212 54.9081 10.6588C55.0267 10.8963 55.086 10.7182 54.9081 11.1932C54.7301 11.6683 54.1963 12.9154 54.137 13.0935C54.0776 13.2717 50.6966 11.9652 50.6966 11.312C50.6966 11.312 49.9848 12.1434 49.6289 12.3215C49.6289 12.3215 53.5438 15.172 54.0776 15.5283C54.6115 15.8846 54.9081 15.7064 55.3826 15.2908C55.8571 14.8751 57.8739 11.4308 57.8739 11.4308L55.7385 8.81787Z" fill="#F4ED0F"/>
<path d="M54.0171 29.8993C54.0171 29.8993 54.0764 30.5525 54.195 30.6119C54.3137 30.6713 55.2034 32.1559 54.195 32.4528C53.1866 32.7497 52.5935 32.6309 52.3562 32.7497C52.119 32.8685 47.9668 33.106 47.9075 32.4528C47.8482 31.7996 49.9243 31.6808 49.9243 31.6808C49.9243 31.6808 51.8224 30.4337 52.119 29.7805C52.4155 29.1273 54.0171 29.8993 54.0171 29.8993Z" fill="#2F2E41"/>
<path d="M66.0589 31.0869C66.0589 31.0869 67.4825 33.5217 67.1266 33.8186C66.7707 34.1155 63.3046 35.1976 62.7965 35.2438C62.144 35.3032 61.6694 34.7687 62.2033 34.4718C62.7371 34.1749 63.8642 32.9278 63.8642 32.5121V31.4432L66.0589 31.0869Z" fill="#2F2E41"/>
<path d="M67.4232 15.1724C67.4232 15.1724 68.6689 16.7164 66.7114 19.2105L63.449 23.3674C63.449 23.3674 65.4658 26.5741 65.5251 28.2369C65.5844 29.8997 65.9996 29.5434 66.1182 30.256C66.2369 30.9686 66.7707 30.6123 66.3555 31.1467C65.9403 31.6812 64.3981 32.1563 63.9235 31.7406C63.7603 31.5911 63.6329 31.4067 63.5507 31.201C63.4685 30.9954 63.4338 30.7738 63.449 30.5529C63.449 30.3154 62.6186 28.9495 62.5593 28.5338C62.5 28.1181 60.3052 24.7332 60.3052 24.7332C60.3052 24.7332 59.5934 22.7142 60.4239 21.5859C61.2543 20.4576 61.8031 18.8573 61.8031 18.8573C61.8031 18.8573 59.3562 21.8234 57.636 22.536C57.636 22.536 56.9835 22.6548 57.1021 22.9517C57.2208 23.2486 57.1022 23.4268 56.9242 23.7237C56.7463 24.0206 55.5006 27.4649 55.0854 28.3557C54.6702 29.2464 54.8481 29.7809 54.3736 30.0778C53.8991 30.3747 51.7637 30.1372 51.7637 29.8403C51.7637 29.5434 52.0603 28.7714 52.2382 28.3557C52.4162 27.94 53.8397 23.1299 53.7211 22.2985C53.6025 21.4671 53.7804 20.3388 54.6702 19.8637C55.5599 19.3886 60.068 15.5287 60.3052 15.5287C60.5425 15.5287 67.4232 15.1724 67.4232 15.1724Z" fill="#2F2E41"/>
<path d="M55.5011 5.84863C56.877 5.84863 57.9924 4.73197 57.9924 3.35449C57.9924 1.97702 56.877 0.860352 55.5011 0.860352C54.1252 0.860352 53.0098 1.97702 53.0098 3.35449C53.0098 4.73197 54.1252 5.84863 55.5011 5.84863Z" fill="#EECF9F"/>
<path d="M57.5175 3.59229C57.5175 3.59229 58.2886 4.95812 59.2377 5.13628C60.1867 5.31444 56.7464 8.04611 56.7464 8.04611C56.7464 8.04611 55.916 5.4332 55.2041 5.31444C54.4923 5.19567 57.5175 3.59229 57.5175 3.59229Z" fill="#EECF9F"/>
<path d="M55.0859 9.17434C55.0859 9.94634 57.3993 12.1436 57.3993 12.1436L59.594 13.9845C59.594 13.9845 59.6533 14.6377 59.8906 14.6971C60.1278 14.7565 60.4244 14.7565 60.1871 15.1128C59.9499 15.4691 59.3567 16.2411 59.8906 16.3598C60.0515 16.3843 60.2137 16.3998 60.3764 16.4062C60.5187 16.4145 60.686 16.4222 60.874 16.4293C61.313 16.4448 61.8622 16.4549 62.4572 16.4507C62.6262 16.4501 62.7983 16.4481 62.9732 16.4448C65.216 16.4002 67.8141 16.1419 67.6017 15.2909C67.2458 13.8657 67.4831 13.3906 66.712 12.6186C65.9408 11.8466 64.6952 9.17434 64.6952 9.17434C64.6952 9.17434 62.2039 4.95805 60.1278 4.95805L59.6966 4.84463C59.4962 4.79178 59.2843 4.80338 59.0909 4.87777C58.8975 4.95216 58.7323 5.08558 58.6188 5.25913C58.2024 5.89395 57.5458 6.84766 57.162 7.15527C56.5688 7.63035 56.4763 7.28948 56.4763 7.28948C56.4763 7.28948 55.0859 8.40235 55.0859 9.17434Z" fill="#F4ED0F"/>
<path d="M60.3651 18.2007C60.3651 18.2007 58.645 20.873 59.7126 21.3481C60.7803 21.8231 61.3735 18.557 61.3735 18.557L60.3651 18.2007Z" fill="#EECF9F"/>
<path d="M57.1294 3.07296C57.0337 3.06088 57.0035 2.9401 56.9874 2.84498C56.9012 2.33556 56.522 1.8525 56.0125 1.77027C55.8178 1.74433 55.6198 1.76031 55.4317 1.81713C55.1623 1.89115 54.9093 2.01578 54.6864 2.18439C54.5773 2.28421 54.4512 2.36353 54.314 2.41853C54.2205 2.44601 53.8236 2.62268 53.7308 2.65257C53.5269 2.71829 53.3582 2.93196 53.1482 2.88965C52.9473 2.84918 52.871 2.60629 52.8387 2.40369C52.7651 1.9421 53.029 1.25338 53.2914 0.866751C53.4905 0.573354 53.8274 0.404501 54.1643 0.29465C54.559 0.174712 54.9645 0.0940422 55.375 0.0538105C55.9291 -0.0117087 56.5031 -0.0464702 57.0341 0.125012C57.5652 0.296494 58.0487 0.715977 58.1479 1.26572C58.1685 1.38023 58.1724 1.49753 58.1977 1.6111C58.2594 1.88817 58.4425 2.12106 58.5493 2.38402C58.6264 2.57715 58.6622 2.7843 58.6544 2.99212C58.6466 3.19993 58.5953 3.4038 58.504 3.59059C58.3561 3.88837 58.0989 4.17454 58.1544 4.50243L57.6966 4.14109C57.6305 4.10346 57.5792 4.04426 57.5514 3.97337C57.5236 3.90247 57.521 3.82418 57.5439 3.75154L57.6104 3.17774C57.6334 3.07378 57.623 2.96519 57.5807 2.8675C57.3773 2.5117 57.2888 3.0931 57.1294 3.07296Z" fill="#2F2E41"/>
<path opacity="0.1" d="M61.4325 14.1032L60.8738 16.4292C61.4373 16.4494 62.1829 16.4601 62.973 16.4447C63.1723 15.8461 63.3627 15.222 63.5086 14.6376C64.0425 12.4998 63.1527 9.23365 62.6782 7.68966C62.2037 6.14567 61.0173 5.72998 61.0173 5.72998C60.531 5.90122 60.0716 6.14118 59.6531 6.44259C58.8819 6.97705 61.4325 14.1032 61.4325 14.1032Z" fill="black"/>
<path opacity="0.1" d="M60.9569 13.9846L60.375 16.4063C60.5174 16.4146 60.6846 16.4224 60.8727 16.4295C61.3116 16.4449 61.8609 16.455 62.4558 16.4509C62.6699 15.8149 62.877 15.1438 63.033 14.5191C63.5668 12.3813 62.6771 9.11512 62.2025 7.57112C61.728 6.02713 60.69 7.71958 60.69 7.71958C60.69 7.71958 61.1052 6.71005 60.3341 7.2445C59.563 7.77896 60.9569 13.9846 60.9569 13.9846Z" fill="black"/>
<path d="M60.7791 5.61133C60.7791 5.61133 61.9654 6.02702 62.4399 7.57101C62.9144 9.115 63.8042 12.3811 63.2703 14.519C62.7365 16.6568 61.6095 19.3291 61.6095 19.3291C61.6095 19.3291 60.4825 18.4977 60.0672 18.6759L61.1943 13.9845C61.1943 13.9845 58.6437 6.8584 59.4148 6.32394C59.8333 6.02253 60.2927 5.78256 60.7791 5.61133Z" fill="#F4ED0F"/>
<path d="M61.6638 35.3977L45.2529 1.16064L17.8125 14.3438L27.9044 35.3977H61.6638Z" fill="white"/>
<path d="M39.6996 14.5995L25.125 21.6016L25.5591 22.5072L40.1337 15.5052L39.6996 14.5995Z" fill="#3F3D56"/>
<path d="M43.5589 22.6498L28.9844 29.6519L29.4185 30.5575L43.993 23.5555L43.5589 22.6498Z" fill="#3F3D56"/>
<path d="M46.2084 9.86313L42.5898 11.6016L44.3263 15.2242L47.9448 13.4858L46.2084 9.86313Z" fill="#3F3D56" fill-opacity="0.2"/>
<path d="M50.0677 17.9134L46.4492 19.6519L48.1857 23.2745L51.8042 21.5361L50.0677 17.9134Z" fill="#3F3D56" fill-opacity="0.2"/>
<path d="M46.4576 7.35352L44.9674 11.5984L42.9585 10.8915L42.6836 11.6745L45.472 12.6556L47.2396 7.62873L46.4576 7.35352Z" fill="#57B894"/>
<path d="M50.3169 15.4038L48.8266 19.6487L46.8179 18.9419L46.543 19.7248L49.3313 20.7059L51.099 15.679L50.3169 15.4038Z" fill="#57B894"/>
</g>
<defs>
<clipPath id="clip0_417_1451">
<rect width="88" height="81" fill="white"/>
</clipPath>
</defs>
</svg>
