<svg width="88" height="81" viewBox="0 0 88 81" fill="none" xmlns="http://www.w3.org/2000/svg">
<path d="M25.7715 66.7607L27.0225 67.1527L35.4172 40.2922C35.0739 40.2046 34.7102 40.2521 34.4008 40.4248C34.0913 40.5975 33.8597 40.8822 33.7535 41.2206L25.7715 66.7607Z" fill="#3F3D56"/>
<path d="M53.3603 31.7227H47.8262V15.4346H53.3603C54.4191 15.4358 55.4341 15.8574 56.1828 16.6071C56.9315 17.3567 57.3526 18.3732 57.3538 19.4333V27.724C57.3526 28.7841 56.9315 29.8005 56.1828 30.5502C55.4341 31.2998 54.4191 31.7215 53.3603 31.7227Z" fill="#2F2E41"/>
<path d="M52.5897 22.997C52.4049 22.9968 52.2277 22.9232 52.097 22.7923C51.9663 22.6614 51.8928 22.484 51.8926 22.2989V16.249H53.2869V22.2989C53.2867 22.484 53.2131 22.6614 53.0825 22.7923C52.9518 22.9232 52.7746 22.9968 52.5897 22.997Z" fill="#3F3D56"/>
<path d="M54.2673 30.4428H50.218C49.9847 30.4425 49.7609 30.3496 49.596 30.1843C49.431 30.0191 49.3382 29.7951 49.3379 29.5614V27.1357C49.3382 26.9021 49.431 26.6781 49.596 26.5128C49.7609 26.3476 49.9847 26.2547 50.218 26.2544H54.2673C54.5006 26.2547 54.7243 26.3476 54.8893 26.5128C55.0543 26.6781 55.1471 26.9021 55.1474 27.1357V29.5614C55.1471 29.7951 55.0543 30.0191 54.8893 30.1843C54.7243 30.3496 54.5006 30.4425 54.2673 30.4428Z" fill="#3F3D56"/>
<path d="M42.4591 13.7399C42.3639 13.7399 42.2717 13.707 42.198 13.6466C42.1524 13.6094 42.115 13.5632 42.0881 13.5108C42.0612 13.4584 42.0454 13.401 42.0417 13.3422C41.9111 11.2548 42.2732 9.16602 43.0987 7.24486C43.6581 5.94798 44.3016 5.11237 45.1239 4.61501C46.2208 3.9516 47.726 3.89859 49.2535 4.46964C50.1264 4.79597 50.7559 5.22253 51.178 5.77363C51.7413 6.50895 51.9179 7.45236 52.025 8.36226C52.1864 9.73896 52.2243 11.1274 52.1383 12.5109C52.1344 12.5823 52.1116 12.6515 52.0723 12.7113C52.0329 12.7711 51.9784 12.8193 51.9144 12.8511C51.8451 12.885 51.7682 12.9002 51.6912 12.8951C51.6142 12.8901 51.5399 12.8649 51.4757 12.8222C51.4498 12.8052 51.4231 12.7896 51.3957 12.7753C51.2565 12.7054 51.1027 12.67 50.947 12.672C50.7914 12.674 50.6385 12.7133 50.5011 12.7866C50.4004 12.8464 50.305 12.9149 50.2163 12.9914L49.6671 13.4366C49.5993 13.4904 49.5167 13.5222 49.4303 13.5277C49.344 13.5332 49.258 13.512 49.184 13.4672C48.7857 13.2406 48.3406 13.1089 47.8833 13.0826C47.2761 13.0599 46.6682 13.1041 46.0706 13.2143L42.5211 13.7353C42.5006 13.7383 42.4799 13.7399 42.4591 13.7399Z" fill="#2F2E41"/>
<path d="M41.9867 73.0187H40.0912L39.1895 65.6978H41.9871L41.9867 73.0187Z" fill="#FFB6B6"/>
<path d="M43.0049 76.6226H41.6599L41.4198 75.3511L40.8049 76.6226H37.2375C37.0665 76.6227 36.9 76.5679 36.7622 76.4665C36.6245 76.365 36.5228 76.2221 36.4719 76.0586C36.421 75.8952 36.4236 75.7197 36.4794 75.5578C36.5351 75.396 36.6411 75.2562 36.7818 75.1589L39.6306 73.1888V71.9033L42.6271 72.0824L43.0049 76.6226Z" fill="#2F2E41"/>
<path d="M63.8013 71.3949L62.0539 72.1305L58.3887 65.7318L60.9677 64.6462L63.8013 71.3949Z" fill="#FFB6B6"/>
<path d="M66.1363 74.3214L64.8964 74.8434L64.1829 73.7644L64.1083 75.1752L60.8198 76.5598C60.6622 76.6262 60.4875 76.6404 60.3213 76.6003C60.155 76.5602 60.0059 76.468 59.8957 76.3371C59.7855 76.2061 59.72 76.0433 59.7088 75.8725C59.6975 75.7016 59.7411 75.5317 59.8332 75.3874L61.6966 72.4656L61.199 71.2806L64.0305 70.2827L66.1363 74.3214Z" fill="#2F2E41"/>
<path d="M41.1004 23.1584L40.5572 30.4452L36.9547 41.3274L35.5078 40.4853L37.4707 29.418L38.1373 23.0334L41.1004 23.1584Z" fill="#FFB6B6"/>
<path d="M36.1139 42.9146C36.9513 42.9146 37.6301 42.2349 37.6301 41.3964C37.6301 40.5579 36.9513 39.8782 36.1139 39.8782C35.2765 39.8782 34.5977 40.5579 34.5977 41.3964C34.5977 42.2349 35.2765 42.9146 36.1139 42.9146Z" fill="#FFB6B6"/>
<path d="M50.3445 31.551V33.561C50.3445 33.561 53.4516 39.0436 52.1864 41.3964L56.8512 54.1736C56.8512 54.1736 63.1772 60.5079 62.635 65.0324L62.9965 66.4802L58.8394 68.2901L57.9357 67.0232L50.8868 54.8975L44.9223 43.8577L43.8378 56.8883C43.8378 56.8883 44.5608 67.0232 42.5726 68.1091L42.3919 69.7379H38.1729V68.1896C38.1729 68.1896 36.6082 62.6797 37.5119 58.5171L37.1504 40.962C37.1504 40.962 38.7771 33.5418 40.7652 32.2749L41.4882 30.4651L50.3445 31.551Z" fill="#2F2E41"/>
<path d="M53.6643 17.6183L49.7246 15.7712L48.5874 13.7869L44.7635 14.004L43.6063 15.8953L40.2027 16.5858L40.7029 28.9041C40.48 29.2904 40.4006 29.7431 40.4786 30.1823C40.598 30.9543 41.2045 30.347 40.598 30.9543C39.9915 31.5616 39.5344 31.2564 39.8388 31.7886C40.1432 32.3207 39.3945 33.1504 39.3945 33.1504C39.3945 33.1504 49.0768 38.0884 51.8121 31.7886C51.8121 31.7886 52.3514 29.9458 51.4403 26.0851C50.5293 22.2245 53.6643 17.6183 53.6643 17.6183Z" fill="#F4ED0F"/>
<path d="M41.3216 17.3702L40.203 16.5857C40.203 16.5857 38.6558 17.2217 38.6036 18.5084C38.5515 19.7952 37.6621 23.6458 37.6621 23.6458L41.1941 25.5471L41.3216 17.3702Z" fill="#F4ED0F"/>
<path d="M54.5945 23.7658L54.0514 31.0525L48.0228 40.1129L46.5762 39.2708L50.9649 30.0255L51.6315 23.6409L54.5945 23.7658Z" fill="#FFB6B6"/>
<path d="M51.8208 18.0301L53.6636 17.6182C53.6636 17.6182 54.774 17.9733 54.9256 19.6433C55.0773 21.3134 55.2044 24.22 55.2044 24.22L51.3371 27.0677L50.377 22.9835L51.8208 18.0301Z" fill="#F4ED0F"/>
<path d="M47.0319 41.7C47.8692 41.7 48.5481 41.0203 48.5481 40.1818C48.5481 39.3433 47.8692 38.6636 47.0319 38.6636C46.1945 38.6636 45.5156 39.3433 45.5156 40.1818C45.5156 41.0203 46.1945 41.7 47.0319 41.7Z" fill="#FFB6B6"/>
<path d="M46.3297 13.1365C48.2808 13.1365 49.8625 11.5527 49.8625 9.59903C49.8625 7.64532 48.2808 6.06152 46.3297 6.06152C44.3786 6.06152 42.7969 7.64532 42.7969 9.59903C42.7969 11.5527 44.3786 13.1365 46.3297 13.1365Z" fill="#FFB7B7"/>
<path d="M43.4519 9.06572H43.4517C43.0017 9.06549 42.5511 9.0649 42.0999 9.06394C42.0461 9.06368 41.993 9.05267 41.9435 9.03155C41.8941 9.01043 41.8493 8.97962 41.8119 8.94095C41.7751 8.90311 41.7463 8.85819 41.7273 8.80891C41.7084 8.75962 41.6995 8.707 41.7014 8.65421C41.7347 7.90458 41.9486 7.17415 42.3249 6.52526C42.7012 5.87636 43.2288 5.32828 43.8625 4.92779C44.5288 4.5209 45.2891 4.29404 46.0692 4.26935C46.8492 4.24465 47.6224 4.42298 48.313 4.7869C49.0037 5.15083 49.5882 5.68791 50.0096 6.34568C50.431 7.00345 50.6748 7.75942 50.7172 8.53974C50.7202 8.59246 50.7127 8.64523 50.6951 8.695C50.6775 8.74477 50.6502 8.79054 50.6148 8.82965C50.5793 8.86876 50.5365 8.90042 50.4888 8.9228C50.441 8.94518 50.3893 8.95782 50.3366 8.96C48.7731 9.0262 47.0388 9.05837 44.7131 9.06438H44.712C44.6329 9.06461 44.5555 9.04113 44.4897 8.99695C44.424 8.95277 44.373 8.88992 44.3433 8.81648L44.3059 8.72478C44.2862 8.6765 44.2517 8.63572 44.2074 8.6083C44.1631 8.58089 44.1112 8.56825 44.0593 8.5722C44.0074 8.57616 43.958 8.5965 43.9183 8.63031C43.8787 8.66412 43.8508 8.70966 43.8386 8.76037C43.8179 8.84744 43.7685 8.92496 43.6983 8.98039C43.6281 9.03581 43.5413 9.06588 43.4519 9.06572Z" fill="#2F2E41"/>
<path d="M51.359 26.9059C50.4095 26.0113 50.0014 24.7131 49.9949 23.4312C49.9874 21.9671 50.5167 20.5765 51.2012 19.3035C51.6151 18.5336 52.0868 17.7968 52.5587 17.0618C52.7175 16.8145 52.3239 16.5859 52.166 16.8319C50.5691 19.3189 48.8107 22.2646 49.8404 25.3209C50.0767 26.0455 50.4879 26.7005 51.0374 27.228C51.2505 27.4288 51.5727 27.1073 51.359 26.9059Z" fill="#3F3D56"/>
<path d="M25.7958 54.0847C25.0135 53.8376 24.1774 53.8166 23.3836 54.0241C23.3818 54.0251 23.3804 54.0246 23.3786 54.0256C22.7634 54.1856 22.19 54.4766 21.6973 54.8787C21.6687 54.9018 21.6415 54.9254 21.6142 54.9489C20.99 55.4851 20.5291 56.1864 20.2843 56.9726L16.9089 67.7732C16.6578 68.5727 16.6406 69.4275 16.8594 70.2364C16.8726 70.2818 16.8859 70.3272 16.8992 70.3726C17.063 70.9086 17.3267 71.4086 17.6763 71.8463C17.6785 71.8485 17.6803 71.8512 17.6815 71.854C18.2273 72.5325 18.9623 73.033 19.793 73.292L26.1592 75.2868L32.162 56.0796L25.7958 54.0847Z" fill="#E93A55"/>
<path d="M35.8345 40.4229L27.6355 66.6571C27.6098 66.7394 27.6004 66.8259 27.608 66.9118C27.6157 66.9977 27.6401 67.0813 27.68 67.1577C27.7199 67.2341 27.7745 67.3019 27.8406 67.3572C27.9066 67.4125 27.9829 67.4542 28.0651 67.48C28.1473 67.5057 28.2338 67.515 28.3195 67.5073C28.4053 67.4996 28.4887 67.475 28.565 67.435C28.6413 67.395 28.7089 67.3403 28.7641 67.2741C28.8193 67.2079 28.8609 67.1314 28.8865 67.0491L36.6728 42.1353C36.7782 41.7967 36.75 41.4305 36.5941 41.112C36.4382 40.7935 36.1664 40.5469 35.8345 40.4229Z" fill="#3F3D56"/>
<path d="M25.6074 76.726C26.2557 76.726 26.7812 76.1998 26.7812 75.5506C26.7812 74.9015 26.2557 74.3752 25.6074 74.3752C24.9591 74.3752 24.4336 74.9015 24.4336 75.5506C24.4336 76.1998 24.9591 76.726 25.6074 76.726Z" fill="#3F3D56"/>
<path d="M17.9629 74.3305C18.6112 74.3305 19.1367 73.8042 19.1367 73.1551C19.1367 72.506 18.6112 71.9797 17.9629 71.9797C17.3146 71.9797 16.7891 72.506 16.7891 73.1551C16.7891 73.8042 17.3146 74.3305 17.9629 74.3305Z" fill="#3F3D56"/>
<path d="M23.3836 54.0242C22.1678 57.841 18.9831 67.8212 17.6815 71.8541C17.6803 71.8512 17.6785 71.8486 17.6763 71.8464C17.3267 71.4086 17.063 70.9086 16.8991 70.3727C16.8859 70.3273 16.8727 70.2819 16.8594 70.2364C18.2549 65.854 20.5923 58.4628 21.6142 54.949C21.6415 54.9254 21.6686 54.9018 21.6972 54.8787C22.1899 54.4767 22.7634 54.1857 23.3786 54.0257C23.3804 54.0247 23.3817 54.0251 23.3836 54.0242Z" fill="#3F3D56"/>
<path d="M76.9691 76.8649H6.56468C6.5304 76.8647 6.49755 76.837 6.47335 76.788C6.44914 76.739 6.43555 76.6727 6.43555 76.6035C6.43555 76.5343 6.44914 76.4679 6.47335 76.4189C6.49755 76.3699 6.5304 76.3422 6.56468 76.342H76.9691C77.0034 76.3422 77.0362 76.3699 77.0604 76.4189C77.0846 76.4679 77.0982 76.5343 77.0982 76.6035C77.0982 76.6727 77.0846 76.739 77.0604 76.788C77.0362 76.837 77.0034 76.8647 76.9691 76.8649Z" fill="#CACACA"/>
</svg>
