<svg width="260" height="182" viewBox="0 0 260 182" fill="none" xmlns="http://www.w3.org/2000/svg">
<g clip-path="url(#clip0)">
<path opacity="0.1" d="M2.96667 93.0355C7.07512 109.09 15.7736 122.969 29.521 129.695C58.1021 143.676 122.52 136.465 170.605 128.189C195.484 123.907 217.336 112.1 233.22 95.4615L2.96667 93.0355Z" fill="#F4ED0F"/>
<path opacity="0.1" d="M255.127 17.4669H228.744C227.489 17.4669 226.462 16.5286 226.462 15.382C226.462 14.2353 227.487 13.297 228.744 13.297H233.309C232.054 13.297 231.027 12.3587 231.027 11.212C231.027 10.0654 232.052 9.12939 233.309 9.12939H230.052C228.797 9.12939 227.77 8.19104 227.77 7.04444C227.77 5.89783 228.795 4.95948 230.052 4.95948H243.822C240.766 3.65954 237.203 2.73721 233.081 2.25431C195.532 -2.1559 182.125 0.759827 177.389 3.76024C171.502 7.5386 164.953 10.1628 158.09 11.4936C134.923 15.8626 91.5975 21.1196 52.3275 9.80911C32.8101 4.1905 18.305 13.6998 9.60876 29.5624H259.708C259.382 24.9485 258.405 20.687 256.611 16.9588C256.187 17.2905 255.665 17.4695 255.127 17.4669Z" fill="#F4ED0F"/>
<path opacity="0.1" d="M0.727618 59.5251C-0.284699 68.8625 0.0605124 78.2978 1.75245 87.5358L233.396 95.2805C239.778 88.5943 245.196 81.0448 249.49 72.8519L0.727618 59.5251ZM92.3392 79.5072H87.7743C89.0273 79.5072 90.0567 80.4456 90.0567 81.5922C90.0567 82.7388 89.0296 83.6748 87.7743 83.6748H61.4026C60.1495 83.6748 59.1201 82.7388 59.1201 81.5922C59.1201 80.4456 60.1472 79.5072 61.4026 79.5072H65.9675C64.7144 79.5072 63.685 78.5689 63.685 77.4223C63.685 76.2757 64.7122 75.3373 65.9675 75.3373H62.7059C61.4528 75.3373 60.4234 74.4013 60.4234 73.2547C60.4234 72.1081 61.4505 71.1697 62.7059 71.1697H89.089C90.3443 71.1697 91.3714 72.1081 91.3714 73.2547C91.3714 74.4013 90.3466 75.3373 89.089 75.3373H92.3392C93.5946 75.3373 94.6217 76.2757 94.6217 77.4223C94.6217 78.5689 93.6014 79.5072 92.3392 79.5072Z" fill="#F4ED0F"/>
<path opacity="0.1" d="M259.72 29.7066L6.82181 35.3298C3.74047 42.5596 1.70222 50.7323 0.761841 59.2049H255.287C256.944 54.2473 258.174 49.1562 258.962 43.9877C259.72 39.0076 260.023 34.1923 259.72 29.7066ZM52.1106 48.1324H47.5457C48.7988 48.1324 49.8281 49.0708 49.8281 50.2174C49.8281 51.364 48.801 52.3023 47.5457 52.3023H21.1649C19.9118 52.3023 18.8824 51.364 18.8824 50.2174C18.8824 49.0708 19.9095 48.1324 21.1649 48.1324H25.7298C24.4767 48.1324 23.4473 47.1964 23.4473 46.0498C23.4473 44.9031 24.4744 43.9648 25.7298 43.9648H22.4682C21.2151 43.9648 20.1857 43.0265 20.1857 41.8799C20.1857 40.7332 21.2128 39.7949 22.4682 39.7949H48.8512C50.1066 39.7949 51.1337 40.7332 51.1337 41.8799C51.1337 43.0265 50.1089 43.9648 48.8512 43.9648H52.1106C53.3637 43.9648 54.3931 44.9031 54.3931 46.0498C54.3931 47.1964 53.3637 48.1324 52.1106 48.1324Z" fill="#F4ED0F"/>
<path opacity="0.1" d="M151.798 175.5C161.281 175.5 168.969 173.769 168.969 171.634C168.969 169.499 161.281 167.769 151.798 167.769C142.314 167.769 134.627 169.499 134.627 171.634C134.627 173.769 142.314 175.5 151.798 175.5Z" fill="#F4ED0F"/>
<path opacity="0.1" d="M191.697 186.46C208.806 186.46 222.675 185.319 222.675 183.911C222.675 182.503 208.806 181.361 191.697 181.361C174.589 181.361 160.72 182.503 160.72 183.911C160.72 185.319 174.589 186.46 191.697 186.46Z" fill="#F4ED0F"/>
<path opacity="0.1" d="M67.3188 183.911C84.4273 183.911 98.2965 182.18 98.2965 180.045C98.2965 177.91 84.4273 176.18 67.3188 176.18C50.2103 176.18 36.3411 177.91 36.3411 180.045C36.3411 182.18 50.2103 183.911 67.3188 183.911Z" fill="#F4ED0F"/>
<path opacity="0.1" d="M114.55 164.56C127.423 164.56 137.858 162.829 137.858 160.694C137.858 158.56 127.423 156.829 114.55 156.829C101.677 156.829 91.2412 158.56 91.2412 160.694C91.2412 162.829 101.677 164.56 114.55 164.56Z" fill="#F4ED0F"/>
<path d="M131.967 68.7347C131.474 65.407 128.459 57.6416 128.459 57.6416C128.407 57.4128 128.347 57.1839 128.281 56.9551C126.143 49.5856 123.182 48.9448 123.182 48.9448L112.578 46.6562C112.667 46.7119 112.744 46.7841 112.806 46.869C112.75 46.8742 112.695 46.8826 112.639 46.8942C112.154 46.3194 111.833 45.6234 111.711 44.8802C111.69 44.7703 111.672 44.6513 111.658 44.5392C112.42 43.7948 113.014 42.8957 113.4 41.9022C113.787 40.9087 113.957 39.8438 113.9 38.7789C113.842 37.7141 113.558 36.6738 113.067 35.728C112.576 34.7822 111.888 33.9527 111.051 33.2951C110.939 33.2081 110.823 33.1234 110.711 33.0433C111.211 32.5101 111.227 31.7686 110.852 31.027C110.017 29.2877 108.2 28.1868 106.333 27.649C104.906 27.2393 103.366 27.1066 101.946 27.5552C101.14 27.8115 100.405 28.2418 99.6499 28.624C98.2416 29.3289 96.6827 29.8873 95.6305 31.0476C95.384 31.3177 95.1557 31.6633 95.2288 32.0203C95.2836 32.2858 95.4935 32.4918 95.6282 32.7275C95.9318 33.2562 95.8565 33.9222 95.6488 34.4989C95.4411 35.0756 95.1375 35.6112 94.9937 36.2017C94.8499 36.7921 94.9047 37.4879 95.3475 37.9113C95.5598 38.0756 95.7808 38.2284 96.0094 38.369C96.2517 38.5761 96.4644 38.8156 96.6416 39.0808C97.0616 39.6453 97.4801 40.2121 97.897 40.7812C98.4857 41.5355 99.0116 42.3369 99.4696 43.1774C99.7823 43.7954 100.024 44.4545 100.442 45.0083C100.564 45.17 100.704 45.3174 100.86 45.4478L100.736 45.3997C100.918 45.5849 101.135 45.731 101.375 45.829C101.615 45.927 101.872 45.9748 102.131 45.9696C102.154 45.9696 102.174 45.9696 102.195 45.9696C102.29 45.9676 102.381 45.93 102.451 45.8643C102.451 45.9421 102.451 46.0199 102.451 46.0932C102.476 46.9102 102.471 47.7799 102.414 48.5969L102.316 48.5466C102.17 48.474 102.007 48.4445 101.845 48.4615C101.684 48.4786 101.53 48.5414 101.403 48.6427L91.6407 56.4973C91.6407 56.4973 89.518 59.4085 89.8148 64.4343L88.1029 71.9708C88.1029 71.9708 85.9642 78.3653 87.6099 82.9311C89.2555 87.497 90.2096 90.1083 90.2096 90.1083C90.2096 90.1083 90.867 95.2967 91.8553 95.7201C92.8436 96.1435 93.2704 96.3723 93.2704 96.3723L93.4667 97.6128C93.4667 97.6128 93.5329 97.7341 93.6493 97.9378C94.3683 99.1919 97.0319 103.618 98.5795 103.144C98.7743 104.346 98.8583 105.564 98.8305 106.781L100.362 117.091C100.362 117.091 101.43 119.895 101.364 121.364C101.298 122.834 102.61 124.928 102.61 124.928C101.813 126.391 101.579 128.097 101.953 129.722C102.578 132.469 103.368 145.12 103.368 145.12L104.509 148.187L104.477 151.783C104.384 152.369 104.14 152.921 103.77 153.385C103.03 154.19 103.085 155.122 101.302 156.223C99.5198 157.323 98.39 157.74 98.39 159.198C98.3878 159.401 98.3695 159.604 98.3352 159.804C98.1709 160.875 97.8513 161.457 101.129 161.768C104.98 162.134 107.547 159.617 107.547 159.617C107.547 159.617 108.113 158.587 110.779 158.17C110.779 158.17 111.692 158.122 111.74 157.314C111.758 157.035 111.754 156.502 111.74 155.914C111.697 154.794 111.59 153.488 111.448 153.424C111.27 153.343 110.96 152.217 110.852 151.81H111.594C111.594 151.81 112.279 146.622 111.594 143.262C110.909 139.902 111.528 137.52 111.528 137.52L111.396 128.647C111.396 128.647 110.483 127.667 111.199 125.937C111.916 124.207 111.199 115.661 111.199 115.661C111.199 115.661 111.464 112.594 112.22 111.876C112.975 111.157 112.256 107.383 112.22 107.186L113.566 111.715C113.566 111.715 114.157 120.719 115.41 122.348L115.771 126.427C115.771 126.427 118.337 130.18 117.844 132.201C117.351 134.222 118.371 141.532 118.371 141.532V149.004C118.371 149.004 117.218 152.005 118.827 153.083L119.512 153.055C119.284 153.268 119.108 153.588 118.841 153.865C118.533 154.183 118.357 155.394 118.259 156.435C118.177 157.317 118.149 158.074 118.149 158.074C118.149 158.074 118.834 159.173 120.124 159.248C121.413 159.324 125.663 162.564 125.663 162.564C125.663 162.564 129.861 162.564 130.947 162.336L131.011 162.32C131.36 162.21 131.653 161.969 131.831 161.649C132.048 161.277 132.118 160.837 132.027 160.415C131.892 159.772 131.383 159.067 130.256 158.468C127.45 156.985 127.033 155.595 127.033 155.595L125.191 152.824H125.453C125.453 152.824 125.291 149.888 127.295 146.592L127.165 132.075C127.165 132.075 127.987 127.084 126.574 124.374C126.574 124.374 126.458 121.504 127.403 120.623C128.347 119.742 126.145 110.837 126.145 110.837C126.145 110.837 125.688 106.056 125.152 101.693C127.373 103.806 129.676 96.2007 130.064 94.8481H130.121L130.096 94.7497C130.112 94.6856 130.121 94.6536 130.121 94.6536C130.121 94.6536 129.628 92.8959 129.989 93.2529C130.349 93.6099 131.239 92.2734 131.239 92.2734C131.239 92.2734 131.107 84.9978 132.655 81.3314C134.202 77.665 131.967 68.7347 131.967 68.7347ZM125.348 73.3646L125.36 73.344C125.588 77.7863 125.316 87.2658 125.316 87.2658C125.316 87.2658 125.011 88.4811 124.684 89.9115L124.456 80.9057L124.228 72.4217L125.348 73.3646ZM97.0205 70.3024C97.0205 70.3024 98.1389 84.3295 97.0205 86.3527C96.7033 86.9294 96.4362 87.9547 96.2148 89.1242C95.8451 88.1515 95.0622 85.8675 95.3429 84.6568C95.7058 83.0913 94.6194 78.9786 94.6194 78.8825C94.6194 78.7864 94.5212 76.5939 95.3041 74.9186C96.087 73.2433 95.5734 72.5178 95.5734 72.5178C95.5734 72.5178 96.2308 69.7714 97.0205 70.3024Z" fill="url(#paint0_linear)"/>
<path d="M99.7459 101.895C98.7712 106.191 94.8956 99.6955 94.0123 98.1369C93.8981 97.9332 93.8342 97.8142 93.8342 97.8142L94.2542 95.8391L96.4751 94.9237C96.8268 95.1079 97.16 95.3256 97.4702 95.5736C98.6868 96.5326 100.497 98.5672 99.7459 101.895Z" fill="#D38884"/>
<path d="M129.813 94.8665C129.813 94.8665 129.813 94.8986 129.788 94.9626C129.788 94.9901 129.77 95.0267 129.758 95.0656C129.377 96.4068 127.117 103.957 124.935 101.861C122.548 99.572 123.707 94.2806 123.707 94.2806H123.723L128.745 93.7657L129.74 94.791L129.813 94.8665Z" fill="#D38884"/>
<path d="M126.907 132.023L127.035 146.441C125.065 149.714 125.227 152.62 125.227 152.62L118.736 152.877C117.152 151.808 118.28 148.83 118.28 148.83V141.406C118.28 141.406 117.278 134.153 117.761 132.144C118.245 130.134 115.728 126.422 115.728 126.422L115.372 122.374C114.144 120.756 113.562 111.818 113.562 111.818L112.245 107.305C112.281 107.5 112.966 111.267 112.245 111.96C111.523 112.654 111.243 115.716 111.243 115.716C111.243 115.716 111.953 124.202 111.243 125.916C110.533 127.631 111.434 128.606 111.434 128.606L111.564 137.415C111.564 137.415 110.95 139.779 111.628 143.113C112.306 146.448 111.628 151.6 111.628 151.6H104.665L104.697 148.004L103.569 144.96C103.569 144.96 102.793 132.396 102.179 129.674C101.811 128.062 102.04 126.37 102.823 124.914C102.823 124.914 101.533 122.843 101.597 121.385C101.661 119.927 100.602 117.146 100.602 117.146L99.0999 106.914C99.1412 104.945 98.8905 102.98 98.3558 101.085C97.4839 98.169 96.192 94.3469 96.192 94.3469L97.6505 94.4774L105.009 95.1342C105.009 95.1342 122.902 93.9281 123.703 94.9305C123.872 95.2583 123.986 95.6116 124.04 95.9764C124.844 99.5948 125.905 110.93 125.905 110.93C125.905 110.93 128.069 119.771 127.14 120.646C126.211 121.52 126.325 124.367 126.325 124.367C127.718 127.056 126.907 132.023 126.907 132.023Z" fill="#4D26B9"/>
<path d="M111.781 157.067C111.731 157.871 110.839 157.919 110.839 157.919C108.223 158.331 107.666 159.351 107.666 159.351C107.666 159.351 105.155 161.853 101.369 161.489C98.1503 161.178 98.463 160.603 98.6297 159.539C98.662 159.341 98.6796 159.14 98.6822 158.939C98.6822 157.481 99.796 157.067 101.54 155.964C103.284 154.861 103.236 153.948 103.962 153.147C104.687 152.346 104.763 150.792 104.763 150.792C105.584 149.357 107.668 151.021 107.668 151.021C107.766 151.529 110.864 151.458 110.864 151.458C110.864 151.458 111.275 153.11 111.487 153.206C111.626 153.27 111.731 154.566 111.772 155.678C111.795 156.262 111.8 156.79 111.781 157.067Z" fill="#B07473"/>
<path opacity="0.1" d="M111.781 157.067C111.731 157.87 110.839 157.918 110.839 157.918C108.223 158.33 107.666 159.351 107.666 159.351C107.666 159.351 105.155 161.853 101.369 161.489C98.1503 161.177 98.463 160.603 98.6297 159.539C100.068 159.896 102.816 160.395 104.42 159.52C106.65 158.307 108.25 157.461 108.25 157.461L111.774 155.682C111.795 156.261 111.8 156.79 111.781 157.067Z" fill="#571AFF"/>
<path d="M131.495 161.391C131.323 161.709 131.035 161.947 130.692 162.057L130.63 162.073C129.564 162.301 125.444 162.301 125.444 162.301C125.444 162.301 121.279 159.072 120.019 158.999C118.759 158.926 118.081 157.832 118.081 157.832C118.081 157.832 118.106 157.081 118.186 156.207C118.284 155.172 118.455 153.971 118.759 153.655C119.316 153.071 119.444 152.282 120.697 152.781C120.697 152.781 122.486 149.618 124.595 152.062L126.777 155.381C126.777 155.381 127.188 156.754 129.952 158.244C131.057 158.839 131.55 159.539 131.689 160.178C131.777 160.592 131.708 161.024 131.495 161.391Z" fill="#B07473"/>
<path opacity="0.1" d="M131.495 161.39C131.248 161.599 130.977 161.823 130.692 162.056L130.63 162.072C129.564 162.301 125.444 162.301 125.444 162.301C125.444 162.301 121.279 159.072 120.019 158.999C118.759 158.925 118.081 157.832 118.081 157.832C118.081 157.832 118.106 157.081 118.186 156.207C119.469 156.591 121.411 157.271 121.931 158.003C122.73 159.118 125.157 160.674 125.157 160.674C125.157 160.674 129.68 160.237 131.689 160.177C131.777 160.592 131.708 161.024 131.495 161.39Z" fill="#571AFF"/>
<path d="M113.89 48.3798L107.933 54.6941C107.933 54.6941 100.714 54.1609 101.974 52.0233C102.615 50.9339 102.715 48.6544 102.658 46.6724C102.606 44.7614 102.409 43.1342 102.409 43.1342C102.409 43.1342 112.535 38.0809 111.768 42.7932C111.602 43.6811 111.593 44.5912 111.74 45.4823C112.172 47.8625 113.89 48.3798 113.89 48.3798Z" fill="#D38884"/>
<path opacity="0.1" d="M111.759 42.7932C111.593 43.6811 111.584 44.5912 111.731 45.4823C111.039 46.186 110.213 46.7445 109.303 47.1253C108.394 47.506 107.417 47.7014 106.431 47.7C105.062 47.7 103.58 46.5717 102.473 45.9195C102.421 44.0062 102.41 43.1342 102.41 43.1342C102.41 43.1342 112.535 38.0809 111.759 42.7932Z" fill="#571AFF"/>
<path d="M113.89 39.8293C113.891 41.5244 113.317 43.1695 112.264 44.495C111.21 45.8206 109.739 46.7481 108.091 47.1256C106.443 47.5031 104.715 47.3083 103.192 46.5729C101.669 45.8376 100.44 44.6054 99.7065 43.0782C98.973 41.551 98.7784 39.8192 99.1547 38.1667C99.531 36.5141 100.456 35.0386 101.778 33.9819C103.1 32.9252 104.74 32.35 106.431 32.3504C108.121 32.3508 109.762 32.9268 111.083 33.9841C111.958 34.6846 112.665 35.5738 113.151 36.5857C113.637 37.5976 113.89 38.7062 113.89 39.8293Z" fill="#D38884"/>
<path opacity="0.1" d="M124.041 95.9764C122.183 100.409 110.232 100.501 110.232 100.501V95.6674L109.508 95.6193C109.821 97.004 109.07 100.38 109.07 100.38C99.6249 101.716 97.3219 96.3197 97.3219 96.3197L97.6506 94.4727L105.009 95.1296C105.009 95.1296 122.902 93.9235 123.703 94.9259C123.872 95.255 123.986 95.61 124.041 95.9764Z" fill="#571AFF"/>
<path d="M110.232 99.9174V95.0838L109.508 95.038C109.821 96.4112 109.07 99.7984 109.07 99.7984C101.962 100.803 98.8991 97.9972 97.8195 96.5462C97.6254 96.2963 97.4585 96.0262 97.3219 95.7406L100.207 79.4684L100.892 55.5201L101.926 51.3181L102.165 49.3018V49.279H102.19L102.925 49.5948L107.324 51.5012L112.32 47.7181L112.393 47.6655L112.642 47.4755L113.055 47.8074L114.082 48.6336L117.376 69.9614C117.376 69.9614 123.082 86.3824 124.15 93.0103C124.193 93.2758 124.228 93.5229 124.255 93.7541C124.96 99.8053 110.232 99.9174 110.232 99.9174Z" fill="#F4ED0F"/>
<path d="M107.858 52.3986C108.092 52.3986 108.282 52.208 108.282 51.9729C108.282 51.7378 108.092 51.5472 107.858 51.5472C107.623 51.5472 107.433 51.7378 107.433 51.9729C107.433 52.208 107.623 52.3986 107.858 52.3986Z" fill="#571AFF"/>
<path d="M108.054 56.2847C108.289 56.2847 108.479 56.0941 108.479 55.859C108.479 55.6239 108.289 55.4333 108.054 55.4333C107.82 55.4333 107.63 55.6239 107.63 55.859C107.63 56.0941 107.82 56.2847 108.054 56.2847Z" fill="#571AFF"/>
<path d="M108.479 62.576C108.713 62.576 108.903 62.3854 108.903 62.1503C108.903 61.9152 108.713 61.7246 108.479 61.7246C108.244 61.7246 108.054 61.9152 108.054 62.1503C108.054 62.3854 108.244 62.576 108.479 62.576Z" fill="#571AFF"/>
<path d="M109.179 69.3527C109.414 69.3527 109.604 69.1621 109.604 68.927C109.604 68.6919 109.414 68.5013 109.179 68.5013C108.945 68.5013 108.755 68.6919 108.755 68.927C108.755 69.1621 108.945 69.3527 109.179 69.3527Z" fill="#571AFF"/>
<path d="M109.604 75.7154C109.838 75.7154 110.028 75.5248 110.028 75.2897C110.028 75.0546 109.838 74.864 109.604 74.864C109.369 74.864 109.179 75.0546 109.179 75.2897C109.179 75.5248 109.369 75.7154 109.604 75.7154Z" fill="#571AFF"/>
<path d="M110.028 82.4918C110.263 82.4918 110.453 82.3012 110.453 82.0661C110.453 81.831 110.263 81.6404 110.028 81.6404C109.794 81.6404 109.604 81.831 109.604 82.0661C109.604 82.3012 109.794 82.4918 110.028 82.4918Z" fill="#571AFF"/>
<path d="M109.859 89.1953C110.094 89.1953 110.284 89.0047 110.284 88.7696C110.284 88.5345 110.094 88.3439 109.859 88.3439C109.625 88.3439 109.435 88.5345 109.435 88.7696C109.435 89.0047 109.625 89.1953 109.859 89.1953Z" fill="#571AFF"/>
<path opacity="0.1" d="M102.448 81.835C102.448 81.835 101.974 88.067 101.102 89.8796C100.23 91.6922 99.8417 96.7775 99.8417 96.7775L97.8172 96.5487C97.623 96.2987 97.4562 96.0287 97.3196 95.7431L100.205 79.4708L100.889 55.5225L101.926 51.3182L102.165 49.3019L102.193 49.2905C102.306 49.2369 102.43 49.2101 102.555 49.2121C102.68 49.2141 102.803 49.2448 102.914 49.3019L103.01 49.3523C102.981 49.4347 102.953 49.5194 102.928 49.6063C102.138 52.0849 101.843 56.6531 101.843 56.6531C101.843 56.6531 102.985 65.0089 103.103 68.895C103.222 72.7811 102.448 81.835 102.448 81.835Z" fill="#571AFF"/>
<path opacity="0.1" d="M97.4702 95.5805C97.448 95.6327 97.4221 95.6832 97.3926 95.7316C96.6075 97.0613 94.6171 97.9058 94.0123 98.1369C93.8981 97.9332 93.8342 97.8142 93.8342 97.8142L94.2542 95.8391L96.4751 94.9237C96.827 95.1101 97.1603 95.3301 97.4702 95.5805Z" fill="#571AFF"/>
<path d="M92.0905 63.7775L90.2485 64.8783L88.5709 72.3599C88.5709 72.3599 86.471 78.7063 88.0847 83.2401C89.6984 87.7739 90.6365 90.3692 90.6365 90.3692C90.6365 90.3692 91.2825 95.5187 92.2525 95.9398C93.2226 96.3609 93.6403 96.5875 93.6403 96.5875L93.8343 97.8187C93.8343 97.8187 96.4637 96.9239 97.3926 95.347C98.3216 93.7701 96.7079 89.8543 96.7079 89.8543C96.7079 89.8543 95.3201 86.5174 95.6762 84.9635C96.0323 83.4095 94.9641 79.3288 94.9641 79.2419C94.9641 79.1549 94.8682 76.9738 95.6488 75.3054C96.4294 73.637 95.909 72.9252 95.909 72.9252L95.4229 68.1648L92.0905 63.7775Z" fill="#571AFF"/>
<path opacity="0.1" d="M124.193 94.5759C124.193 94.5759 119.316 96.4206 117.766 94.8048C116.216 93.189 116.376 85.6068 116.376 85.6068C116.376 85.6068 114.892 71.6163 113.954 69.3185C113.016 67.0207 113.498 50.4372 113.498 50.4372C113.498 50.4372 112.868 48.2928 112.318 47.732C112.283 47.696 112.244 47.6645 112.201 47.6382L112.391 47.6794L113.053 47.8213L114.08 48.6475L117.373 69.9753C117.373 69.9753 123.08 86.3963 124.148 93.0242L124.193 94.5759Z" fill="#571AFF"/>
<path opacity="0.1" d="M129.813 95.0611H129.758C129.144 95.1412 123.726 95.7981 123.703 94.6675C123.702 94.5367 123.709 94.4061 123.723 94.2761L128.745 93.7612L129.74 94.7865C129.758 94.8529 129.772 94.9101 129.786 94.9559L129.813 95.0611Z" fill="#571AFF"/>
<path d="M124.613 56.2848L128.174 58.1477C128.174 58.1477 131.141 65.8513 131.616 69.1538C131.616 69.1538 133.814 78.0017 132.301 81.6406C130.788 85.2796 130.913 92.5025 130.913 92.5025C130.913 92.5025 130.041 93.8299 129.685 93.4752C129.329 93.1204 129.815 94.8667 129.815 94.8667C129.815 94.8667 123.728 95.6769 123.703 94.4776C123.678 93.2784 125.1 87.5476 125.1 87.5476C125.1 87.5476 125.488 73.9142 124.938 71.7766C124.387 69.639 124.613 56.2848 124.613 56.2848Z" fill="#571AFF"/>
<path opacity="0.1" d="M113.988 70.8061C113.988 70.8061 111.984 75.7267 111.339 76.0517C110.693 76.3767 111.469 77.6698 111.469 77.6698C111.469 77.6698 115.118 72.5546 113.988 70.8061Z" fill="#571AFF"/>
<path opacity="0.1" d="M112.792 53.5451C112.815 53.4513 110.403 55.9184 109.757 56.2914C109.111 56.6645 112.114 56.2685 112.792 53.5451Z" fill="#571AFF"/>
<path opacity="0.1" d="M106.075 70.417C106.075 70.417 102.393 72.8041 102.88 73.7493C103.366 74.6945 106.075 70.417 106.075 70.417Z" fill="#571AFF"/>
<path opacity="0.1" d="M112.76 105.261C112.76 105.261 115.894 107.282 120.77 107.779L112.76 105.261Z" fill="#571AFF"/>
<path opacity="0.1" d="M105.235 110.12C105.235 110.12 108.141 113.782 109.467 113.876C110.793 113.97 105.235 110.12 105.235 110.12Z" fill="#571AFF"/>
<path opacity="0.1" d="M109.305 124.47C109.175 124.534 107.657 127.773 106.109 127.871C104.562 127.97 109.305 124.47 109.305 124.47Z" fill="#571AFF"/>
<path opacity="0.1" d="M122.771 131.565C122.771 131.565 125.652 130.917 126.293 132.988C126.293 132.982 126.099 132.334 122.771 131.565Z" fill="#571AFF"/>
<path opacity="0.1" d="M120.834 143.411C120.834 143.411 124.324 142.697 125.065 143.669C125.807 144.642 120.834 143.411 120.834 143.411Z" fill="#571AFF"/>
<path opacity="0.1" d="M110.962 145.068C110.962 145.1 107.41 145.782 107.538 146.235C107.666 146.688 111.327 146.624 111.457 145.91C111.48 145.822 111.486 145.73 111.474 145.64C111.461 145.55 111.431 145.463 111.385 145.385C111.339 145.307 111.278 145.238 111.205 145.184C111.133 145.129 111.05 145.09 110.962 145.068Z" fill="#571AFF"/>
<path opacity="0.1" d="M119.672 148.139C119.672 148.139 125.508 147.425 125.15 148.656C124.791 149.888 119.672 148.139 119.672 148.139Z" fill="#571AFF"/>
<path opacity="0.1" d="M89.1187 76.0514C89.1506 76.1475 92.9623 76.667 93.4782 77.8983C93.4782 77.8983 89.7326 76.1475 89.1415 76.1475" fill="#571AFF"/>
<path opacity="0.1" d="M94.4802 86.0574C94.4802 86.0574 91.3144 87.0621 91.5404 88.5749C91.7663 90.0877 91.2185 87.8746 94.4802 86.0574Z" fill="#571AFF"/>
<path opacity="0.1" d="M93.0057 93.7657C93.0057 93.7657 94.1584 92.1797 95.2563 92.4703C96.3542 92.761 93.0057 93.7657 93.0057 93.7657Z" fill="#571AFF"/>
<path opacity="0.1" d="M111.083 33.9839C110.972 34.0918 110.848 34.1849 110.713 34.2608C109.8 34.7941 109.549 35.6157 109.115 36.5632C108.711 37.4306 108.266 38.3484 107.452 38.8404C106.399 39.4767 105.014 39.2432 103.921 39.7971C103.435 40.0504 103.037 40.4437 102.776 40.9263C102.516 41.4089 102.406 41.9586 102.46 42.5045C102.529 42.9258 102.633 43.3407 102.77 43.745C103.019 44.6203 103.131 45.5289 103.103 46.4387C103.106 46.4654 103.106 46.4922 103.103 46.5188C102.168 46.0502 101.341 45.3896 100.677 44.5799C100.013 43.7702 99.5255 42.8295 99.2472 41.8188C98.9689 40.8082 98.9056 39.7501 99.0615 38.7133C99.2173 37.6765 99.5888 36.6842 100.152 35.8007C100.715 34.9172 101.457 34.1623 102.33 33.5849C103.203 33.0076 104.187 32.6207 105.218 32.4494C106.25 32.278 107.306 32.3261 108.318 32.5905C109.33 32.8549 110.275 33.3296 111.092 33.9839H111.083Z" fill="#571AFF"/>
<path d="M110.889 31.7321C110.069 30.0065 108.287 28.9125 106.454 28.3793C105.055 27.9742 103.535 27.8414 102.147 28.2877C101.355 28.5395 100.636 28.9743 99.8942 29.3473C98.511 30.0477 96.9909 30.6015 95.9501 31.7527C95.7059 32.0205 95.4936 32.3638 95.5552 32.7185C95.6077 32.9817 95.8131 33.1762 95.9455 33.4188C96.2445 33.9452 96.1738 34.6066 95.9661 35.1788C95.7584 35.751 95.4639 36.2819 95.3224 36.8701C95.1809 37.4583 95.2357 38.1472 95.6693 38.566C95.8633 38.7514 96.1121 38.8681 96.3221 39.0237C96.5594 39.2293 96.7675 39.4665 96.9407 39.7286L98.1732 41.4176C98.7522 42.1661 99.2683 42.9615 99.7162 43.7955C100.022 44.4089 100.259 45.0635 100.67 45.6104C101.081 46.1574 101.72 46.5968 102.4 46.5373C102.453 46.5387 102.505 46.5276 102.553 46.5049C102.6 46.4822 102.642 46.4487 102.674 46.4069C102.7 46.3533 102.711 46.2944 102.708 46.2352C102.739 45.3289 102.628 44.4233 102.382 43.5507C102.245 43.1465 102.141 42.7316 102.072 42.3102C102.019 41.7644 102.13 41.2154 102.39 40.7331C102.65 40.2508 103.048 39.8573 103.532 39.6028C104.628 39.0489 106.014 39.2823 107.063 38.6484C107.881 38.154 108.326 37.2363 108.727 36.3597C109.168 35.4122 109.412 34.5906 110.325 34.0574C111.238 33.5241 111.343 32.6407 110.889 31.7321Z" fill="#000A2C"/>
<path opacity="0.1" d="M107.547 154.007C107.547 154.007 108.689 155.465 108.392 156.296C108.095 157.127 107.547 154.007 107.547 154.007Z" fill="#571AFF"/>
<path opacity="0.1" d="M122.988 157.655C122.988 157.655 123.242 155.701 124.257 155.682C125.273 155.664 125.323 155.577 126.099 155.877C126.875 156.177 127.603 156.641 127.371 156.71C127.138 156.779 126.035 155.593 124.903 156.2C124.197 156.587 123.551 157.078 122.988 157.655Z" fill="#571AFF"/>
<path opacity="0.1" d="M104.142 53.9526L107.337 51.7074C107.337 51.7074 102.663 48.9381 102.106 49.3272C101.549 49.7163 101.166 53.2179 101.166 53.2179L104.142 53.9526Z" fill="#571AFF"/>
<path d="M104.128 53.8081L107.324 51.5195C107.324 51.5195 102.649 48.7502 102.092 49.1393C101.535 49.5284 101.152 53.2222 101.152 53.2222L104.128 53.8081Z" fill="#E1E7EF"/>
<path d="M104.128 53.8081L107.324 51.5195C107.324 51.5195 102.649 48.7502 102.092 49.1393C101.535 49.5284 101.152 53.2222 101.152 53.2222L104.128 53.8081Z" fill="#F4ED0F"/>
<path d="M102.622 49.1577L102.526 49.1096C102.383 49.0367 102.223 49.0068 102.064 49.0234C101.904 49.0401 101.753 49.1026 101.629 49.2035L92.0425 57.0009C92.0425 57.0009 89.9586 59.8914 90.2485 64.8784L95.9022 72.9092C95.9022 72.9092 96.5481 70.1903 97.3219 70.7075C97.3219 70.7075 98.4197 84.6339 97.3219 86.6411C96.224 88.6482 95.7401 96.1618 95.7401 96.1618L99.4537 96.5829C99.4537 96.5829 99.8417 91.4976 100.714 89.685C101.586 87.8723 102.06 81.6404 102.06 81.6404C102.06 81.6404 102.845 72.5865 102.715 68.7004C102.585 64.8143 101.455 56.4584 101.455 56.4584C101.455 56.4584 101.773 51.5608 102.622 49.1577Z" fill="#571AFF"/>
<path opacity="0.1" d="M112.172 52.5336L108.189 51.0552C108.189 51.0552 113.26 45.4846 113.895 48.5743L112.172 52.5336Z" fill="#571AFF"/>
<path d="M112.172 52.3388L108.189 50.8604C108.189 50.8604 113.26 45.2898 113.895 48.3795L112.172 52.3388Z" fill="#E1E7EF"/>
<path d="M112.172 52.3388L108.189 50.8604C108.189 50.8604 113.26 45.2898 113.895 48.3795L112.172 52.3388Z" fill="#F4ED0F"/>
<path opacity="0.1" d="M112.042 47.5994C112.099 47.5901 112.158 47.6032 112.206 47.636L112.042 47.5994Z" fill="#571AFF"/>
<path d="M112.425 47.2123L122.993 49.501C122.993 49.501 125.901 50.1486 128.001 57.4677C130.101 64.7868 125.125 73.7537 125.125 73.7537L124.027 72.8176L124.577 94.1913C124.577 94.1913 119.699 96.0359 118.149 94.4201C116.6 92.8043 116.762 85.2152 116.762 85.2152C116.762 85.2152 115.276 71.227 114.338 68.927C113.4 66.6269 113.881 50.048 113.881 50.048C113.881 50.048 113.018 47.0842 112.425 47.2123Z" fill="#571AFF"/>
<path opacity="0.1" d="M122.094 60.8319C121.945 60.9692 121.772 67.4369 122.418 72.3598C122.813 75.3577 123.423 78.3231 124.244 81.2329L123.285 61.5116C123.285 61.5116 122.545 60.4108 122.094 60.8319Z" fill="#571AFF"/>
<path opacity="0.1" d="M120.802 55.2616C121.06 55.4241 122.192 58.1109 121.674 59.2117C121.155 60.3126 120.802 55.2616 120.802 55.2616Z" fill="#571AFF"/>
<path opacity="0.1" d="M110.827 31.7319C110.308 30.7076 109.5 29.859 108.504 29.2923C109.245 29.8243 109.843 30.5319 110.245 31.352C110.702 32.2675 110.567 33.1829 109.679 33.6842C108.791 34.1854 108.515 35.039 108.081 35.9865C107.677 36.8539 107.232 37.7717 106.415 38.2752C105.365 38.9114 103.98 38.6757 102.884 39.2295C102.4 39.485 102.003 39.879 101.743 40.3615C101.482 40.8441 101.371 41.3933 101.423 41.9393C101.494 42.3599 101.598 42.774 101.736 43.1774C101.985 44.0528 102.097 44.9614 102.069 45.8712C102.071 45.9305 102.059 45.9895 102.033 46.0428C102.001 46.0848 101.96 46.1186 101.913 46.1413C101.866 46.164 101.814 46.175 101.761 46.1733C101.487 46.1943 101.213 46.143 100.965 46.0245C101.144 46.2031 101.358 46.343 101.594 46.4355C101.829 46.528 102.081 46.5711 102.334 46.5623C102.375 46.5683 102.417 46.5647 102.457 46.5517C102.496 46.5387 102.532 46.5167 102.562 46.4875C102.591 46.4582 102.614 46.4225 102.628 46.3831C102.641 46.3436 102.645 46.3016 102.64 46.2602C102.67 45.3506 102.558 44.4418 102.309 43.5665C102.17 43.1627 102.065 42.7477 101.996 42.3261C101.944 41.7803 102.055 41.2312 102.315 40.749C102.575 40.2667 102.973 39.8732 103.457 39.6186C104.553 39.0648 105.938 39.2982 106.988 38.6642C107.805 38.1699 108.25 37.2521 108.652 36.3756C109.093 35.4281 109.337 34.6065 110.25 34.0732C111.163 33.54 111.284 32.6405 110.827 31.7319Z" fill="#571AFF"/>
<path d="M175.848 60.4728C172.703 60.411 169.927 58.1842 168.355 55.463C167.942 54.8155 167.683 54.082 167.597 53.3185C167.608 53.1451 167.637 52.9732 167.684 52.8059C167.78 52.5505 167.856 52.288 167.912 52.0209C167.924 51.9144 167.924 51.8069 167.912 51.7005C167.912 51.7005 167.912 51.7005 167.912 51.6821C167.987 51.1031 167.647 50.5378 167.227 50.1419C166.807 49.746 166.28 49.4553 165.842 49.0617C164.49 47.8716 164.08 45.9628 164.054 44.1457V44.0495C164.07 43.2714 164.132 42.491 164.125 41.7128C164.136 41.2711 164.117 40.8291 164.068 40.39C163.938 39.2892 163.52 38.1677 162.658 37.4651C160.407 35.6342 156.623 37.5406 154.292 35.8104C153.726 35.387 153.267 34.7622 152.58 34.5974C152.062 34.4716 151.524 34.6409 151.017 34.8103C149.301 35.3779 147.386 36.124 146.714 37.7855C146.331 38.7399 146.438 39.8293 146.087 40.7951C145.859 41.4428 145.423 41.9989 145.105 42.6123C144.845 43.074 144.718 43.5996 144.74 44.1296C144.712 44.404 144.75 44.6812 144.852 44.9375C144.971 45.2465 145.163 45.5221 145.411 45.7408C145.322 45.9319 145.21 46.1117 145.078 46.2764C144.64 46.8142 143.966 47.1918 143.51 47.7274C142.665 48.7092 142.697 50.0435 143.113 51.197C143.528 52.3504 144.279 53.4009 144.797 54.5246C145.025 55.0121 145.199 55.5568 144.968 56.042C144.806 56.3784 144.471 56.6348 144.211 56.9254C143.83 57.3534 143.591 57.889 143.526 58.4588C138.388 59.6352 138.383 63.7753 138.383 63.7753L135.608 70.774C135.608 70.774 135.163 71.9526 134.64 73.5089L131.356 72.9184L133.638 76.7496C133.207 78.3105 132.901 79.7569 133.001 80.4847C133.001 80.4847 131.981 85.2908 133.796 86.1308L137.799 87.9365C137.973 88.0432 138.159 88.127 138.354 88.186L138.516 88.2592C138.574 88.2876 138.638 88.3023 138.703 88.3023C138.768 88.3023 138.832 88.2876 138.89 88.2592H138.902H138.945C139.023 88.2644 139.1 88.2527 139.173 88.2249C139.262 88.1767 139.333 88.1003 139.374 88.0075C139.373 87.9999 139.373 87.9921 139.374 87.9846L140.572 87.6367L141.588 88.8428C142.045 89.1655 142.501 89.4447 142.932 89.6965L141.36 105.355C141.36 105.355 141.106 126.182 140.34 130.929C140.056 132.686 140.054 133.886 140.161 134.7L140.132 134.751C140.321 136.09 140.817 136.353 140.817 136.353V136.334C140.826 136.342 140.836 136.348 140.846 136.353C141.077 135.745 141.352 135.154 141.668 134.586C141.668 134.698 141.668 134.815 141.668 134.929C141.652 136.696 141.597 139.17 141.415 140.779C141.104 143.525 142.209 152.577 142.209 152.577L142.59 160.816C142.652 162.215 142.328 163.604 141.654 164.83C140.741 166.476 139.575 168.792 139.49 169.82C139.486 169.875 139.486 169.931 139.49 169.987L137.532 172.348C137.532 172.348 136.767 173.534 138.495 174.012C139.424 174.271 141.027 174.012 142.314 173.708C142.876 173.578 143.377 173.261 143.737 172.809C144.096 172.357 144.292 171.796 144.293 171.218C144.618 170.083 145.168 169.025 145.909 168.108L146.231 170.005L148.385 170.54L148.661 165.341C148.773 165.049 148.823 164.737 148.81 164.425C149.234 160.727 147.81 161.059 147.81 161.059C147.848 161.091 147.873 161.137 147.879 161.187L147.81 161.061C146.936 159.331 147.354 156.484 147.354 156.484C147.354 156.484 148.495 148.244 148.885 146.068C149.166 144.53 149.049 139.495 148.956 136.685C148.956 136.568 148.956 136.456 148.944 136.344C152.286 136.3 156.381 136.188 159.254 135.909V136.247L158.725 155.712C158.688 156.953 158.437 158.179 157.981 159.333C157.981 159.356 157.965 159.376 157.956 159.399C157.326 161.03 156.97 162.754 156.903 164.501L156.657 170.68V170.852C156.228 171.016 155.55 171.495 155.532 172.882C155.502 174.914 159.074 174.237 159.074 174.237C162.644 174.237 162.674 170.511 162.674 170.511C162.674 170.511 162.785 167.094 162.957 164.807C163.128 162.521 162.418 163.025 162.418 163.025L162.363 169.529C162.363 169.545 162.363 169.561 162.363 169.579V163.878L162.418 163.052V163.029V162.853L162.868 156.145C162.868 156.145 166.157 144.967 166.666 142.823C167.028 141.298 166.878 136.707 166.759 134.169C166.759 134.053 166.759 133.94 166.741 133.833C167.761 133.741 168.663 133.732 169.023 133.732H169.19C169.19 133.732 169.021 115.78 168.594 109.015C168.167 102.25 167.49 96.0589 165.789 94.1959C164.762 93.0699 163.331 89.5935 162.365 87.0188C164.395 87.8987 166.502 88.5882 168.658 89.0785C174.043 90.2091 173.305 85.522 173.305 85.522L172.76 76.6581H172.796C172.776 74.3362 172.578 72.0194 172.203 69.7281C171.918 67.9704 171.482 66.1532 170.815 64.6931C171.399 64.4642 171.977 64.2193 172.543 63.9676C174.006 63.3199 175.654 62.4021 175.864 60.8207H175.793C175.821 60.7065 175.84 60.5901 175.848 60.4728ZM142.471 73.2892C142.483 74.2047 142.449 75.793 142.394 77.5484L140.684 75.2597L142.398 72.4722L142.471 73.2892ZM166.09 81.4001L163.242 80.4847C163.747 79.6945 164.337 78.9623 165.002 78.3013L165.248 78.0725L165.159 78.0908L165.296 77.9649L165.378 77.9466L165.248 78.0725L165.403 78.0404C165.575 78.7579 165.906 79.427 166.373 79.9972C167.396 81.1164 166.093 81.4001 166.093 81.4001H166.09Z" fill="url(#paint1_linear)"/>
<path d="M148.787 163.789L148.454 170.124L146.329 169.591L145.881 166.956L148.787 163.789Z" fill="#A27772"/>
<path opacity="0.1" d="M148.787 163.789L148.454 170.124L146.329 169.591L145.881 166.956L148.787 163.789Z" fill="#571AFF"/>
<path d="M156.586 170.964L159.827 171.637L162.231 169.508V163.51L162.286 162.69V162.665V162.491L162.733 155.825C162.733 155.825 165.976 144.727 166.481 142.596C166.837 141.086 166.689 136.527 166.57 134.007C166.522 132.975 166.481 132.284 166.481 132.284L159.325 130.546L159.175 136.062L158.652 155.387C158.616 156.619 158.368 157.836 157.919 158.983L157.894 159.049C157.272 160.668 156.921 162.378 156.856 164.112L156.614 170.257V170.426L156.586 170.964Z" fill="#CC818C"/>
<path opacity="0.1" d="M156.586 170.964L159.827 171.637L162.231 169.508V168.998C162.223 169.111 162.187 169.22 162.127 169.316C162.067 169.412 161.984 169.491 161.886 169.547L161.852 169.568C160.736 170.159 159.471 170.41 158.214 170.289L156.949 170.181C156.834 170.192 156.721 170.22 156.614 170.263V170.433L156.586 170.964Z" fill="#571AFF"/>
<path d="M161.852 169.735L161.886 169.717C161.991 169.657 162.079 169.571 162.141 169.466C162.202 169.362 162.235 169.243 162.235 169.122L162.288 162.665C162.288 162.665 162.986 162.164 162.817 164.434C162.648 166.705 162.539 170.097 162.539 170.097C162.539 170.097 162.511 173.795 158.99 173.795C158.99 173.795 155.468 174.468 155.495 172.449C155.523 170.431 156.949 170.348 156.949 170.348L158.214 170.458C159.471 170.58 160.736 170.328 161.852 169.735Z" fill="#B07473"/>
<path d="M139.705 169.591C139.787 171.048 144.065 170.206 144.065 170.206L146.943 164.604C146.943 164.604 149.346 162.752 148.143 161.127C148.079 161.039 148.02 160.946 147.968 160.85C147.968 160.85 147.968 160.85 147.956 160.836C147.931 160.795 147.908 160.752 147.886 160.706C147.023 158.99 147.447 156.175 147.447 156.175C147.447 156.175 148.563 147.99 148.956 145.832C149.232 144.308 149.118 139.307 149.027 136.51C148.99 135.348 148.956 134.567 148.956 134.567L141.855 132.661C141.855 132.661 141.855 133.549 141.855 134.785C141.839 136.54 141.784 138.996 141.604 140.593C141.298 143.31 142.387 152.307 142.387 152.307L142.764 160.493C142.829 161.88 142.513 163.258 141.851 164.478C140.96 166.112 139.796 168.414 139.717 169.433C139.709 169.485 139.705 169.538 139.705 169.591Z" fill="#CC818C"/>
<path opacity="0.1" d="M139.705 169.591C139.787 171.048 144.065 170.206 144.065 170.206L146.943 164.604C146.943 164.604 149.346 162.752 148.143 161.127C148.079 161.039 148.02 160.946 147.968 160.85C147.929 161.699 147 163.825 147 163.825C147 163.825 144.624 168.593 143.868 169.684C143.113 170.776 139.831 169.481 139.707 169.435C139.703 169.487 139.702 169.539 139.705 169.591Z" fill="#571AFF"/>
<path d="M147.885 160.699C147.885 160.699 149.291 160.372 148.872 164.043C148.887 164.46 148.793 164.874 148.598 165.242C148.403 165.611 148.113 165.921 147.76 166.142C146.753 166.776 145.201 168.14 144.416 170.792C144.417 171.364 144.224 171.92 143.87 172.369C143.516 172.818 143.02 173.133 142.465 173.264C141.196 173.561 139.614 173.822 138.699 173.566C136.994 173.09 137.749 171.914 137.749 171.914L139.705 169.586C139.705 169.586 143.115 170.932 143.868 169.838C144.622 168.744 147 163.981 147 163.981C147 163.981 148.303 161.008 147.885 160.699Z" fill="#B07473"/>
<path opacity="0.1" d="M159.325 131.226L159.175 136.742C161.08 136.556 162.445 136.298 162.678 135.934C163.183 135.151 165.013 134.822 166.57 134.687C166.522 133.654 166.481 132.963 166.481 132.963L159.325 131.226Z" fill="#571AFF"/>
<path opacity="0.1" d="M141.855 135.455C142.037 135.082 142.306 134.757 142.638 134.508C143.391 134.089 143.309 137.199 143.309 137.199C143.309 137.199 145.82 137.222 149.027 137.181C148.99 136.018 148.956 135.236 148.956 135.236L141.855 133.331C141.855 133.331 141.869 134.215 141.855 135.455Z" fill="#571AFF"/>
<path d="M141.045 136.192C141.045 136.192 141.885 133.904 142.643 133.496C143.4 133.089 143.314 136.185 143.314 136.185C143.314 136.185 161.761 136.355 162.683 134.924C163.605 133.494 168.971 133.579 168.971 133.579C168.971 133.579 168.804 115.755 168.384 109.031C167.964 102.307 167.296 96.1662 165.618 94.317C164.534 93.12 162.991 89.2477 162.037 86.6661C161.519 85.2563 161.174 84.2287 161.174 84.2287L143.567 85.2357L143.423 86.6661L141.554 105.415C141.554 105.415 141.303 126.097 140.547 130.805C139.792 135.512 141.045 136.192 141.045 136.192Z" fill="#4D26B9"/>
<g opacity="0.1">
<path opacity="0.1" d="M161.249 134.924C162.162 133.496 167.538 133.579 167.538 133.579C167.538 133.579 167.371 115.755 166.951 109.031C166.531 102.307 165.862 96.1662 164.185 94.317C163.096 93.1155 161.557 89.2477 160.603 86.6661C160.167 85.4806 159.855 84.5674 159.768 84.3065L161.137 84.2287C161.137 84.2287 161.482 85.2563 162.003 86.6661C162.957 89.2477 164.497 93.12 165.581 94.317C167.259 96.1662 167.93 102.304 168.348 109.031C168.766 115.757 168.937 133.579 168.937 133.579C168.937 133.579 163.571 133.496 162.646 134.924C161.859 136.144 148.285 136.201 144.345 136.19C149.401 136.179 160.537 136.027 161.249 134.924Z" fill="#571AFF"/>
<path opacity="0.1" d="M141.209 133.496C141.549 133.306 141.718 133.833 141.803 134.471C141.498 135.025 141.233 135.6 141.011 136.192C141.011 136.192 140.525 135.929 140.326 134.59C140.604 134.112 140.913 133.661 141.209 133.496Z" fill="#571AFF"/>
</g>
<path d="M146.486 41.1039C145.267 42.77 146.5 45.1388 145.192 46.7591C144.761 47.2947 144.097 47.6746 143.647 48.201C142.814 49.1759 142.846 50.5011 143.254 51.6454C143.663 52.7897 144.396 53.8333 144.916 54.9502C145.144 55.4331 145.313 55.9755 145.085 56.4561C144.925 56.7903 144.594 57.0443 144.336 57.3327C143.496 58.2733 143.473 59.5801 143.925 60.6878C144.377 61.7955 145.24 62.7476 146.091 63.6859C146.427 64.0544 146.852 64.4618 147.411 64.4503C147.705 64.428 147.989 64.3345 148.239 64.178C150.176 63.1862 151.656 61.4838 152.372 59.4251C153.088 57.3664 152.984 55.1102 152.083 53.1261C151.375 51.4257 150.195 49.7962 150.184 47.9996C150.184 46.5738 150.914 45.212 151.044 43.7931C151.202 42.0674 150.184 39.3279 148.107 38.575C148.244 39.6827 147.105 40.248 146.486 41.1039Z" fill="#4D26B9"/>
<path opacity="0.1" d="M146.486 41.1039C145.267 42.77 146.5 45.1388 145.192 46.7591C144.761 47.2947 144.097 47.6746 143.647 48.201C142.814 49.1759 142.846 50.5011 143.254 51.6454C143.663 52.7897 144.396 53.8333 144.916 54.9502C145.144 55.4331 145.313 55.9755 145.085 56.4561C144.925 56.7903 144.594 57.0443 144.336 57.3327C143.496 58.2733 143.473 59.5801 143.925 60.6878C144.377 61.7955 145.24 62.7476 146.091 63.6859C146.427 64.0544 146.852 64.4618 147.411 64.4503C147.705 64.428 147.989 64.3345 148.239 64.178C150.176 63.1862 151.656 61.4838 152.372 59.4251C153.088 57.3664 152.984 55.1102 152.083 53.1261C151.375 51.4257 150.195 49.7962 150.184 47.9996C150.184 46.5738 150.914 45.212 151.044 43.7931C151.202 42.0674 150.184 39.3279 148.107 38.575C148.244 39.6827 147.105 40.248 146.486 41.1039Z" fill="#571AFF"/>
<path opacity="0.1" d="M160.003 101.71C157.563 101.838 155.267 102.891 153.131 104.081C150.994 105.271 148.926 106.619 146.628 107.463" fill="#571AFF"/>
<path opacity="0.1" d="M158.488 107.474C156.074 107.705 153.825 108.802 152.154 110.564C151.56 111.193 151.049 111.898 150.43 112.502C149.484 113.429 148.314 114.094 147.034 114.432" fill="#571AFF"/>
<path opacity="0.1" d="M158.987 111.862C157.041 112.404 155.279 113.469 153.893 114.942C153.519 115.347 153.178 115.78 152.804 116.185C150.784 118.359 147.931 119.513 145.176 120.605" fill="#571AFF"/>
<path d="M158.78 51.0185C158.834 52.9735 159.001 54.9237 159.282 56.8591C159.51 58.2322 159.83 59.4681 160.288 60.0151C161.631 61.6171 153.749 63.757 153.749 63.757L149.095 60.141C149.095 60.141 152.784 56.7355 151.065 53.4147C149.346 50.0939 158.78 51.0185 158.78 51.0185Z" fill="#BE707B"/>
<path opacity="0.1" d="M143.419 86.6661H162.032C161.514 85.2563 161.169 84.2287 161.169 84.2287L143.562 85.2357L143.419 86.6661Z" fill="#571AFF"/>
<path d="M142.22 86.3296H162.121C161.562 84.3225 162.121 82.4664 162.918 81.0383C163.476 80.0375 164.178 79.1244 165.002 78.3285L165.139 78.2026L172.087 76.6601L172.461 76.5777C172.461 76.5777 172.518 63.9101 168.044 62.1707C163.571 60.4314 160.889 58.0809 160.889 58.0809L154.742 59.9851L150.214 57.6964C148.76 59.2641 144.902 58.6485 144.902 58.6485C138.587 59.3763 138.587 64.1412 138.587 64.1412C138.587 64.1412 142.275 72.7717 142.556 72.7717C142.837 72.7717 142.22 86.3296 142.22 86.3296Z" fill="#F4ED0F"/>
<path opacity="0.1" d="M149.091 78.276C149.091 78.276 145.032 77.3743 143.651 75.7974L149.091 78.276Z" fill="#571AFF"/>
<path opacity="0.1" d="M169.553 73.5499L164.847 77.4177C164.881 77.7256 164.932 78.0313 165.002 78.3332L165.139 78.2073L172.087 76.6647L169.553 73.5499Z" fill="#571AFF"/>
<path opacity="0.1" d="M156.81 84.9841C156.81 84.9841 157.839 85.5655 159.417 86.3299H162.121C161.562 84.3227 162.121 82.4666 162.918 81.0385L158.15 79.4914C159.773 81.0042 156.81 84.9841 156.81 84.9841Z" fill="#571AFF"/>
<path d="M141.38 62.6216L138.587 64.1344L135.848 71.085C135.848 71.085 132.997 78.7062 133.275 80.7248C133.275 80.7248 132.271 85.4897 134.058 86.3297L138.714 88.4444C138.797 88.4808 138.888 88.4906 138.976 88.4726C139.065 88.4545 139.145 88.4094 139.206 88.3435C139.268 88.2777 139.307 88.1943 139.319 88.1049C139.331 88.0155 139.315 87.9246 139.274 87.8447C138.609 86.5837 137.879 84.6109 139.045 83.5261L137.703 80.7248L142.554 72.7649L144.174 70.0185L141.38 62.6216Z" fill="#F4ED0F"/>
<path opacity="0.1" d="M147.596 76.6853C147.838 77.674 148.655 79.2028 151.359 79.7727L154.327 82.2101L157.483 83.6451L158.771 84.2287L159.316 80.2762L158.077 79.5896L156.632 78.7978C156.632 78.7978 153.373 72.877 148.212 75.3648C147.972 75.4787 147.779 75.6729 147.667 75.9139C147.554 76.1549 147.529 76.4277 147.596 76.6853Z" fill="#571AFF"/>
<path d="M147.764 76.349C148.006 77.3399 148.821 78.8665 151.526 79.4363L154.493 81.8737L157.652 83.3087L158.937 83.8923L159.483 79.9398L158.243 79.2532L156.81 78.4682C156.81 78.4682 153.548 72.5475 148.388 75.0467C148.15 75.1589 147.959 75.3496 147.845 75.5868C147.732 75.824 147.703 76.0932 147.764 76.349Z" fill="#BE707B"/>
<path opacity="0.1" d="M153.58 56.145C157.562 56.145 160.791 52.9081 160.791 48.9151C160.791 44.9222 157.562 41.6853 153.58 41.6853C149.598 41.6853 146.37 44.9222 146.37 48.9151C146.37 52.9081 149.598 56.145 153.58 56.145Z" fill="#571AFF"/>
<path d="M153.58 55.978C157.562 55.978 160.791 52.7411 160.791 48.7482C160.791 44.7553 157.562 41.5184 153.58 41.5184C149.598 41.5184 146.37 44.7553 146.37 48.7482C146.37 52.7411 149.598 55.978 153.58 55.978Z" fill="#BE707B"/>
<path opacity="0.1" d="M158.047 64.1965L155.879 59.9717C155.879 59.9717 159.051 58.6854 159.282 57.1955C159.512 55.7056 162.322 58.9418 161.715 60.0151C161.108 61.0885 158.047 64.1965 158.047 64.1965Z" fill="#571AFF"/>
<path d="M158.047 63.8601L155.879 59.6352C155.879 59.6352 159.051 58.349 159.282 56.8591C159.512 55.3692 162.322 58.6076 161.715 59.6787C161.108 60.7498 158.047 63.8601 158.047 63.8601Z" fill="#F4ED0F"/>
<path d="M140.301 74.7746L152.281 90.9256C152.281 90.9256 147.865 93.3355 141.782 89.0214L139.155 85.8814L131.655 73.2046L140.301 74.7746Z" fill="#F6F8FB"/>
<path d="M137.943 83.556L139.034 83.5262C139.034 83.5262 145.699 77.0402 147.335 80.3221C148.972 83.604 143.184 86.6708 143.184 86.6708L141.424 87.6229L139.13 88.3095L137.662 86.3344L137.943 83.556Z" fill="#BE707B"/>
<path opacity="0.1" d="M139.552 87.0599C139.653 87.4329 139.748 87.8449 139.58 88.1905C139.539 88.2829 139.469 88.3594 139.381 88.4079C139.308 88.4359 139.23 88.4469 139.153 88.4399C138.575 88.3907 138.038 88.1241 137.649 87.6938C137.266 87.265 136.939 86.7899 136.674 86.2795C136.377 85.7599 136.069 85.1855 136.174 84.595C136.293 83.9519 136.859 83.5056 137.413 83.144C138.518 82.4116 138.555 83.2653 138.797 84.2082C139.039 85.1511 139.299 86.1078 139.552 87.0599Z" fill="#571AFF"/>
<path d="M139.386 87.0599C139.484 87.4329 139.582 87.8449 139.413 88.1905C139.372 88.2829 139.303 88.3594 139.214 88.4079C139.142 88.4358 139.064 88.4467 138.986 88.4399C138.408 88.3918 137.871 88.125 137.482 87.6938C137.098 87.2657 136.77 86.7904 136.505 86.2795C136.208 85.7599 135.9 85.1855 136.008 84.595C136.124 83.9519 136.692 83.5056 137.245 83.144C138.352 82.4116 138.386 83.2653 138.63 84.2082C138.874 85.1512 139.13 86.1078 139.386 87.0599Z" fill="#F4ED0F"/>
<path opacity="0.1" d="M142.556 72.7649L143.113 71.8197L142.627 73.5751L142.556 72.7649Z" fill="#571AFF"/>
<path opacity="0.1" d="M157.661 83.3088L158.946 83.8924L159.492 79.9399L158.252 79.2533C159.108 80.2374 158.36 82.0569 157.661 83.3088Z" fill="#571AFF"/>
<path opacity="0.1" d="M162.82 78.7201C162.82 78.7201 158.67 78.9741 156.908 77.839L162.82 78.7201Z" fill="#571AFF"/>
<g opacity="0.1">
<path opacity="0.1" d="M162.304 81.3748C162.862 80.3734 163.564 79.4596 164.388 78.6628C164.585 78.5386 164.79 78.427 165.002 78.3287L171.47 76.9967L171.845 76.9143C171.845 76.9143 171.902 64.2466 167.43 62.5073C164.922 61.551 162.571 60.2233 160.455 58.5685L160.946 58.4175C160.946 58.4175 163.628 60.7702 168.101 62.5073C172.575 64.2444 172.516 76.9143 172.516 76.9143H171.845L165.225 78.1845C165.225 78.1845 164.94 78.4614 164.853 78.5415C164.023 79.3752 163.311 80.3193 162.737 81.3474C161.862 82.978 161.662 84.8892 162.183 86.6662H161.498C160.946 84.659 161.516 82.803 162.304 81.3748Z" fill="#571AFF"/>
<path opacity="0.1" d="M144.637 59.0149C144.745 58.9989 144.847 58.9828 144.959 58.9714C145.413 59.0359 145.87 59.0734 146.329 59.0835C145.764 59.0991 145.199 59.0762 144.637 59.0149Z" fill="#571AFF"/>
<path opacity="0.1" d="M154.126 60.3216L150.031 58.2435C150.112 58.1767 150.188 58.104 150.259 58.0261L154.532 60.1934L154.126 60.3216Z" fill="#571AFF"/>
</g>
<path d="M169.715 73.2046L172.454 76.5689L173.013 85.7052C173.013 85.7052 173.739 90.3557 168.43 89.2343C163.121 88.1129 156.977 84.6479 156.977 84.6479C156.977 84.6479 159.944 80.6679 158.319 79.1551L165.922 81.6223C165.922 81.6223 167.207 81.3408 166.2 80.2216C165.193 79.1025 165.015 77.0816 165.015 77.0816L169.715 73.2046Z" fill="#F4ED0F"/>
<path opacity="0.1" d="M170.952 82.8558L172.461 84.5928C172.073 84.4733 171.726 84.2473 171.459 83.9403C171.193 83.6333 171.017 83.2576 170.952 82.8558Z" fill="#571AFF"/>
<path opacity="0.1" d="M168.38 82.5741L170.728 85.5997L169.555 85.8812L168.38 82.5741Z" fill="#571AFF"/>
<path opacity="0.1" d="M144.968 45.4297C144.71 44.7957 144.909 44.0565 145.219 43.4592C145.53 42.8618 145.957 42.2965 146.19 41.6534C146.534 40.6968 146.429 39.6142 146.806 38.6782C147.47 37.0189 149.358 36.2774 151.049 35.7029C151.549 35.5359 152.081 35.3688 152.592 35.4924C153.277 35.6549 153.722 36.2774 154.281 36.6962C156.577 38.4127 160.311 36.5223 162.532 38.3395C163.381 39.0261 163.794 40.1498 163.922 41.2415C164.05 42.3331 163.922 43.4408 163.908 44.5417C163.872 46.4687 164.232 48.5766 165.67 49.8536C166.104 50.2381 166.615 50.5265 167.04 50.9247C167.464 51.3229 167.798 51.8791 167.725 52.4558C167.668 52.7206 167.592 52.9808 167.496 53.2339C167.211 54.2387 167.638 55.2937 168.158 56.2092C169.71 58.9029 172.447 61.1229 175.549 61.1847C175.341 62.7547 173.723 63.6656 172.274 64.3087C170.448 65.1303 168.503 65.9359 166.492 65.8329C164.481 65.7299 162.384 64.4391 162.032 62.4526C161.911 61.766 161.927 60.9398 161.347 60.5828C160.991 60.3654 160.53 60.4203 160.147 60.2578C159.592 60.0289 159.318 59.4041 159.136 58.8297C158.762 57.6444 158.561 56.4109 158.54 55.1679C158.515 53.694 158.709 52.0851 157.876 50.8721C157.104 49.7483 155.735 49.1785 154.845 48.1463C154.023 47.1896 153.131 46.0362 151.784 45.8577C149.921 45.5945 146.069 48.1326 144.968 45.4297Z" fill="#571AFF"/>
<path d="M144.968 45.0931C144.71 44.4591 144.909 43.7199 145.219 43.1226C145.53 42.5252 145.957 41.96 146.19 41.3168C146.534 40.3602 146.429 39.2777 146.806 38.3416C147.47 36.6801 149.358 35.9385 151.049 35.3664C151.549 35.1993 152.081 35.0322 152.592 35.1558C153.277 35.3183 153.722 35.9408 154.281 36.3597C156.577 38.0761 160.311 36.1857 162.532 38.0029C163.381 38.6895 163.794 39.8132 163.922 40.9072C164.05 42.0012 163.922 43.1043 163.908 44.2051C163.872 46.1321 164.232 48.24 165.67 49.517C166.104 49.9015 166.615 50.1899 167.04 50.5881C167.464 50.9863 167.798 51.5425 167.725 52.1192C167.668 52.3841 167.592 52.6442 167.496 52.8974C167.211 53.9021 167.638 54.9571 168.158 55.8726C169.715 58.5572 172.44 60.784 175.542 60.8458C175.334 62.4158 173.716 63.3267 172.267 63.9721C170.441 64.7914 168.496 65.597 166.485 65.494C164.474 65.391 162.377 64.1003 162.025 62.1137C161.904 61.4271 161.92 60.6009 161.341 60.2439C160.985 60.0265 160.523 60.0814 160.14 59.9189C159.585 59.69 159.311 59.0652 159.129 58.4908C158.755 57.3055 158.554 56.0721 158.533 54.829C158.508 53.3551 158.702 51.7462 157.869 50.5332C157.097 49.4095 155.728 48.8396 154.838 47.8074C154.016 46.8508 153.124 45.6973 151.777 45.5188C149.921 45.2579 146.069 47.8006 144.968 45.0931Z" fill="#4D26B9"/>
<path opacity="0.1" d="M150.086 63.6722L154.219 60.3079C154.219 60.3079 151.389 58.7699 151.051 57.4585C150.713 56.1472 148.449 58.0811 148.68 59.2574C148.91 60.4338 150.086 63.6722 150.086 63.6722Z" fill="#571AFF"/>
<path d="M150.248 63.1664L154.381 59.8044C154.381 59.8044 151.551 58.2664 151.227 56.9551C150.903 55.6437 148.625 57.5776 148.855 58.7539C149.086 59.9303 150.248 63.1664 150.248 63.1664Z" fill="#F4ED0F"/>
<path opacity="0.1" d="M154.543 62.949C154.725 62.949 154.872 62.8015 154.872 62.6194C154.872 62.4374 154.725 62.2899 154.543 62.2899C154.362 62.2899 154.215 62.4374 154.215 62.6194C154.215 62.8015 154.362 62.949 154.543 62.949Z" fill="#571AFF"/>
<path opacity="0.1" d="M154.543 64.7801C154.725 64.7801 154.872 64.6326 154.872 64.4505C154.872 64.2685 154.725 64.121 154.543 64.121C154.362 64.121 154.215 64.2685 154.215 64.4505C154.215 64.6326 154.362 64.7801 154.543 64.7801Z" fill="#571AFF"/>
<path opacity="0.1" d="M154.543 66.6088C154.725 66.6088 154.872 66.4613 154.872 66.2792C154.872 66.0972 154.725 65.9497 154.543 65.9497C154.362 65.9497 154.215 66.0972 154.215 66.2792C154.215 66.4613 154.362 66.6088 154.543 66.6088Z" fill="#571AFF"/>
<g opacity="0.1">
<path opacity="0.1" d="M146.637 40.4197C146.963 39.5202 146.893 38.5109 147.198 37.6046C147.057 37.805 146.94 38.0217 146.849 38.25C146.47 39.1953 146.578 40.2778 146.231 41.2253L146.208 41.2802C146.377 41.0072 146.521 40.7191 146.637 40.4197Z" fill="#571AFF"/>
<path opacity="0.1" d="M172.714 63.0749C170.888 63.8942 168.944 64.6999 166.933 64.5969C164.922 64.4939 162.824 63.2031 162.473 61.2188C162.352 60.5322 162.368 59.7038 161.788 59.3467C161.432 59.1293 160.971 59.1842 160.587 59.0217C160.033 58.7929 159.759 58.1681 159.576 57.5936C159.202 56.4084 159.001 55.1749 158.981 53.9318C158.955 52.4602 159.152 50.8513 158.319 49.636C157.545 48.5123 156.175 47.9447 155.285 46.9103C154.464 45.9559 153.571 44.8001 152.224 44.6216C150.378 44.3699 146.518 46.9103 145.427 44.2051C145.252 43.6939 145.277 43.1351 145.498 42.642C145.418 42.777 145.341 42.912 145.27 43.0493C144.959 43.6581 144.763 44.3882 145.021 45.0221C146.119 47.7227 149.972 45.1846 151.818 45.4387C153.165 45.6218 154.057 46.7775 154.879 47.7273C155.769 48.7618 157.139 49.3294 157.91 50.4554C158.745 51.6683 158.549 53.2773 158.574 54.7488C158.595 55.9919 158.796 57.2254 159.17 58.4107C159.353 58.9874 159.626 59.6053 160.181 59.8388C160.565 60.0013 161.026 59.9486 161.382 60.1638C161.971 60.5208 161.955 61.3562 162.066 62.0359C162.423 64.0201 164.518 65.3109 166.526 65.4139C168.535 65.5169 170.471 64.7136 172.308 63.892C173.632 63.3015 175.106 62.4844 175.503 61.1456C174.869 62.0153 173.746 62.6149 172.714 63.0749Z" fill="#571AFF"/>
</g>
<path d="M213.052 75.9921C208.22 73.2046 206.394 72.518 206.385 72.518L206.285 72.447C205.758 72.0415 205.341 71.5115 205.068 70.9045C205.063 70.794 205.063 70.6832 205.068 70.5726C205.067 70.5833 205.067 70.594 205.068 70.6047C205.144 69.1285 206.191 67.7851 207.184 66.6133L209.725 63.6175C210.013 63.321 210.236 62.967 210.38 62.5784C210.431 62.3696 210.454 62.1548 210.448 61.9399C210.448 61.8529 210.448 61.766 210.448 61.679C210.434 60.9352 210.414 60.1891 210.386 59.4453C210.364 58.7953 210.197 57.976 209.549 57.8432C209.211 57.7746 208.764 57.8959 208.586 57.6144C208.525 57.4949 208.51 57.3575 208.542 57.2276C208.541 57.2382 208.541 57.249 208.542 57.2596V57.223C208.668 56.7209 208.748 56.2084 208.782 55.6919C208.796 55.429 208.76 55.1657 208.677 54.916C208.303 53.8381 207.008 53.3941 205.865 53.1904C204.721 52.9867 203.439 52.8128 202.722 51.9156C202.53 51.6163 202.321 51.3282 202.096 51.0528C201.766 50.7583 201.362 50.5583 200.928 50.4738C199.509 50.1232 198.013 50.2536 196.676 50.8446C196.123 51.0917 195.569 51.4259 194.961 51.3892C194.354 51.3526 193.793 50.9132 193.172 50.8079C192.168 50.6363 191.207 51.3755 190.712 52.2521C190.418 52.7718 190.261 53.3577 190.255 53.9548V54.0555C190.241 54.6981 190.475 55.3213 190.908 55.7949C191.341 56.2526 191.985 56.5547 192.165 57.1475C192.238 57.3878 192.22 57.6487 192.286 57.8936C192.293 57.9239 192.303 57.9538 192.314 57.9828L192.282 58.0263C191.246 59.3555 190.683 60.9943 190.684 62.6814C190.695 64.3201 191.226 65.9127 192.199 67.2292C193.172 68.5456 194.538 69.5178 196.098 70.0051C196.098 70.0806 196.098 70.1561 196.098 70.2339C196.098 71.1494 195.836 72.1037 195.048 72.7972L188.203 75.539C188.203 75.539 184.076 75.0469 182.588 81.0935C182.35 82.0972 182.264 83.131 182.333 84.1603C182.387 85.0758 182.262 86.6778 181.191 88.7536C179.5 92.0767 179.886 99.7048 183.346 100.46C186.612 101.174 187.89 100.877 188.025 100.842V100.975C187.97 102.408 187.452 114.753 185.569 116.245C185.049 116.659 185.145 116.931 185.569 117.126C185.569 117.126 185.569 117.206 185.558 117.355C185.501 118.27 185.211 121.703 183.96 123.653C182.497 125.919 182.65 138.987 182.65 138.987L181.652 146.691C181.652 146.691 182.266 151.449 181.652 152.279C181.102 153.019 180.372 170.621 180.219 174.438H180.155C179.853 174.458 179.56 174.552 179.302 174.711C179.044 174.871 178.829 175.091 178.676 175.354C177.868 176.669 175.038 179.102 175.038 179.102C174.424 179.977 172.153 180.814 170.952 181.208C170.794 181.26 170.641 181.327 170.496 181.409C170.046 181.655 169.685 182.036 169.464 182.499C169.385 182.636 169.334 182.788 169.315 182.945C169.297 183.102 169.31 183.262 169.354 183.414C169.66 184.167 176.044 184.698 177.66 183.94C178.929 183.348 183.96 182.567 186.048 182.261C186.428 182.213 186.78 182.04 187.051 181.769C187.321 181.498 187.493 181.144 187.541 180.764C187.561 180.633 187.554 180.499 187.521 180.37C187.488 180.241 187.43 180.121 187.349 180.015C186.95 179.519 186.747 178.162 186.665 177.269C186.834 177.2 186.993 177.106 187.135 176.99C186.96 174.246 187.349 171.496 188.276 168.909C189.815 164.83 190.276 157.278 189.892 152.369C189.892 152.369 194.583 132.128 198.276 130.24C198.333 130.313 200.124 132.618 200.353 139.756C200.581 147.006 203.197 151.764 203.197 151.764C203.197 151.764 202.042 164.075 203.197 168.682L201.688 175.949C201.576 175.855 201.505 175.781 201.505 175.781C201.505 175.781 201.551 175.983 201.613 176.306L201.581 176.461L201.647 176.475C201.818 177.39 202.071 178.967 201.966 179.908C201.907 180.437 201.759 181.162 201.658 181.874C201.498 182.993 201.455 184.078 202.042 184.316C203.005 184.705 208.661 185.231 209.62 183.986C209.835 183.733 209.976 183.423 210.025 183.094C210.074 182.764 210.03 182.427 209.898 182.121C209.829 181.95 209.735 181.789 209.62 181.645C209.62 181.645 208.118 179.185 208.542 177.45C208.581 177.28 208.586 177.105 208.555 176.933C208.524 176.762 208.458 176.599 208.362 176.454C208.428 175.603 208.77 171.662 209.656 168.316C210.619 164.682 212.648 156.713 211.156 151.474C211.099 151.268 211.035 151.066 210.964 150.87C210.102 148.009 209.815 145.006 210.117 142.033C209.563 139.495 209.563 136.867 210.117 134.33C211.042 130.1 211.687 125.946 211.687 125.946C211.687 125.946 212.196 120.357 211.751 116.931C211.751 116.858 211.731 116.785 211.722 116.702L211.964 116.648C211.964 116.648 210.656 110.832 210.195 107.131C210.085 106.257 209.944 105.152 209.788 103.971C210.214 103.9 210.633 103.795 211.042 103.657C215.193 102.222 216.501 89.2388 216.501 89.2388V85.1192C216.501 85.1192 217.898 78.7866 213.052 75.9921ZM182.111 176.29C181.983 176.225 181.908 176.182 181.908 176.182L182.111 176.29Z" fill="url(#paint2_linear)"/>
<path d="M210.546 150.952C212.347 156.145 210.245 164.574 209.268 168.346C208.291 172.117 207.992 176.626 207.992 176.626C204.164 177.228 201.387 176.475 201.387 176.475L202.964 168.723C201.836 164.132 202.964 151.863 202.964 151.863C202.964 151.863 200.412 147.121 200.186 139.895C199.958 132.785 198.216 130.485 198.161 130.414C194.56 132.295 189.981 152.467 189.981 152.467C190.355 157.358 189.903 164.885 188.404 168.945C187.493 171.526 187.11 174.264 187.279 176.997C186.754 177.454 186.023 177.518 185.224 177.39C183.081 177.042 180.511 175.191 180.511 175.191C180.511 175.191 181.335 153.22 181.938 152.387C182.54 151.554 181.938 146.816 181.938 146.816L182.912 139.14C182.912 139.14 182.762 126.118 184.188 123.861C185.421 121.911 185.704 118.483 185.759 117.583C185.759 117.442 185.759 117.355 185.759 117.355L187.931 114.746C187.931 114.746 208.948 113.164 210.528 114.746C210.914 115.132 211.153 116.016 211.295 117.126C211.728 120.54 211.231 126.109 211.231 126.109C211.231 126.109 210.601 130.249 209.699 134.462C209.159 136.993 209.159 139.61 209.699 142.141C209.41 145.105 209.697 148.098 210.546 150.952Z" fill="#571AFF"/>
<path d="M209.232 183.954C208.293 185.197 202.777 184.67 201.836 184.283C201.263 184.055 201.307 182.963 201.462 181.848C201.56 181.141 201.704 180.418 201.763 179.892C201.912 178.537 201.307 175.788 201.307 175.788C201.307 175.788 202.544 177.106 202.843 175.788C202.975 175.211 203.436 174.916 203.916 174.767C204.559 174.572 205.251 174.615 205.865 174.889C206.839 175.314 208.465 176.218 208.175 177.44C207.762 179.168 209.225 181.622 209.225 181.622C209.338 181.765 209.43 181.924 209.499 182.093C209.629 182.398 209.673 182.733 209.626 183.061C209.578 183.389 209.442 183.698 209.232 183.954Z" fill="#A27772"/>
<path opacity="0.1" d="M209.231 183.954C208.293 185.197 202.777 184.67 201.836 184.283C201.263 184.055 201.307 182.963 201.462 181.848C202.055 182.128 203.06 182.359 204.742 182.203C205.134 182.166 205.528 182.154 205.922 182.166C207.117 182.22 208.314 182.196 209.505 182.093C209.635 182.399 209.677 182.734 209.629 183.062C209.581 183.39 209.443 183.699 209.231 183.954Z" fill="#571AFF"/>
<path opacity="0.1" d="M189.979 152.458C190.353 157.349 189.901 164.876 188.402 168.936C187.491 171.517 187.108 174.255 187.276 176.987C186.751 177.445 186.021 177.509 185.222 177.381C185.679 174.207 187.605 160.53 188.84 149.723C190.248 137.417 196.829 128.951 196.829 128.951L198.141 130.4C194.557 132.286 189.979 152.458 189.979 152.458Z" fill="#571AFF"/>
<path d="M206.979 73.3531L206.066 77.8686L201.576 85.4325L196.041 83.0615C196.041 83.0615 188.509 75.1588 193.245 74.0305C193.811 73.9084 194.346 73.6699 194.815 73.3302C195.744 72.6276 196.037 71.6069 196.041 70.6067C196.006 69.4877 195.747 68.3871 195.279 67.3706L204.961 64.3221C204.566 65.5979 204.335 66.9194 204.276 68.254C204.201 70.8997 205.189 72.2019 205.986 72.8313C206.28 73.0681 206.617 73.2454 206.979 73.3531Z" fill="#FBBEBE"/>
<path opacity="0.1" d="M204.952 64.3221C204.557 65.5979 204.326 66.9194 204.267 68.254C204.091 68.465 203.902 68.666 203.703 68.8559C202.704 69.8132 201.464 70.4814 200.116 70.7897C198.769 71.0979 197.363 71.0347 196.048 70.6067C196.011 69.4872 195.749 68.3866 195.279 67.3706L204.952 64.3221Z" fill="#571AFF"/>
<path d="M206.063 63.0795C206.064 64.5982 205.615 66.083 204.774 67.346C203.933 68.609 202.737 69.5935 201.338 70.175C199.938 70.7565 198.399 70.9089 196.913 70.6129C195.427 70.3169 194.063 69.5858 192.992 68.512C191.92 67.4383 191.191 66.0701 190.895 64.5806C190.6 63.0911 190.751 61.5471 191.331 60.1439C191.91 58.7407 192.892 57.5414 194.151 56.6976C195.41 55.8538 196.891 55.4034 198.406 55.4034C199.412 55.3985 200.41 55.5938 201.341 55.9778C202.272 56.3618 203.118 56.927 203.83 57.6407C204.542 58.3544 205.106 59.2026 205.49 60.1361C205.873 61.0696 206.068 62.07 206.063 63.0795Z" fill="#FBBEBE"/>
<path opacity="0.1" d="M206.979 73.3532L206.066 77.8687L201.576 85.4327L196.041 83.0616C196.041 83.0616 188.509 75.159 193.245 74.0307C193.811 73.9085 194.346 73.6701 194.815 73.3303C193.962 75.6831 197.486 80.5785 197.486 80.5785C197.897 81.185 198.837 80.8073 198.837 80.8073C201.108 80.4617 205.287 73.9139 205.97 72.8246C206.268 73.0657 206.611 73.2454 206.979 73.3532Z" fill="#571AFF"/>
<path opacity="0.1" d="M211.313 117.13C209.98 117.435 202.605 119.071 199.809 118.661C196.733 118.204 190.75 117.911 190.75 117.911C190.75 117.911 186.941 118.117 185.768 117.579C185.768 117.437 185.768 117.35 185.768 117.35L187.94 114.741C187.94 114.741 208.958 113.16 210.537 114.741C210.932 115.137 211.172 116.02 211.313 117.13Z" fill="#571AFF"/>
<path d="M197.484 80.805C197.484 80.805 193.524 75.3122 195.016 73.1609L188.326 75.9073C188.326 75.9073 184.3 75.4175 182.848 81.4435C182.616 82.445 182.533 83.4752 182.6 84.5011C182.654 85.4166 182.531 87.0186 181.497 89.0784C179.847 92.3901 180.221 99.9929 183.599 100.75C186.977 101.508 188.176 101.126 188.176 101.126C188.176 101.126 187.719 114.899 185.775 116.48C183.83 118.062 190.75 117.684 190.75 117.684C190.75 117.684 196.733 117.986 199.812 118.437C202.891 118.888 211.521 116.856 211.521 116.856C211.521 116.856 210.245 111.061 209.793 107.374C209.341 103.687 208.289 95.8322 208.289 95.8322L215.944 85.4326C215.944 85.4326 217.295 79.148 212.566 76.3627C207.837 73.5774 206.059 72.8954 206.059 72.8954C206.059 72.8954 201.307 80.6539 198.83 81.0293C198.835 81.0293 197.894 81.4092 197.484 80.805Z" fill="#F4ED0F"/>
<path opacity="0.1" d="M188.701 82.9861C188.701 82.9861 188.628 85.4715 189.077 86.4488C189.527 87.426 191.179 92.857 191.179 92.857H187.425C187.425 92.857 189.452 90.6736 189.303 89.6185C189.155 88.5635 188.701 82.9861 188.701 82.9861Z" fill="#571AFF"/>
<path d="M199.812 101.728C199.812 101.728 191.522 99.6956 190.75 97.9654C189.979 96.2351 187.849 92.3605 187.849 92.3605L188.723 91.1795L192.754 94.3516C192.754 94.3516 197.547 98.1897 199.812 98.5673C202.076 98.9449 199.812 101.728 199.812 101.728Z" fill="#FBBEBE"/>
<path opacity="0.05" d="M199.812 101.728C199.812 101.728 191.522 99.6956 190.75 97.9654C189.979 96.2351 187.849 92.3605 187.849 92.3605L188.723 91.1795L192.754 94.3516C192.754 94.3516 197.547 98.1897 199.812 98.5673C202.076 98.9449 199.812 101.728 199.812 101.728Z" fill="#571AFF"/>
<path d="M206.979 91.9439V96.4525H206.257C202.686 96.4518 199.173 97.3639 196.05 99.1028L194.694 99.8557L194.332 100.059L192.003 94.7955L194.181 92.8387H194.293C194.825 92.8914 197.128 93.0836 198.104 92.7541C199.031 92.4382 200.182 91.4381 202.911 92.1361C204.256 92.4817 205.406 93.9922 206.709 93.5207L206.979 91.9439Z" fill="#FBBEBE"/>
<path opacity="0.1" d="M214.223 83.7323L215.723 85.4259V89.5294C215.723 89.5294 214.447 102.474 210.395 103.904C206.344 105.335 199.106 103.076 199.106 103.076C199.106 103.076 197.237 98.1095 198.111 97.812C198.985 97.5145 205.837 95.6973 205.837 95.6973C205.837 95.6973 205.742 88.1036 207.241 85.8447C207.241 85.8447 206.267 78.7705 209.645 78.6194C213.023 78.4684 214.223 83.7323 214.223 83.7323Z" fill="#571AFF"/>
<path d="M214.451 83.7323L215.953 85.4259V89.5294C215.953 89.5294 214.677 102.474 210.624 103.904C206.57 105.335 199.335 103.076 199.335 103.076C199.335 103.076 197.465 98.1095 198.342 97.812C199.218 97.5145 206.068 95.6973 206.068 95.6973C206.068 95.6973 205.97 88.1036 207.472 85.8447C207.472 85.8447 206.495 78.7705 209.873 78.6194C213.251 78.4684 214.451 83.7323 214.451 83.7323Z" fill="#F4ED0F"/>
<path opacity="0.1" d="M203.964 66.3383C204.028 65.8427 203.969 65.3386 203.792 64.8713C203.58 64.4136 203.085 64.068 202.601 64.1847C201.96 64.3358 201.688 65.1734 201.053 65.3748C200.522 65.5442 199.942 65.1666 199.684 64.6699C199.426 64.1733 199.424 63.5897 199.424 63.0312C199.424 62.4042 199.424 61.7748 199.424 61.1454C199.424 60.4588 199.401 59.7219 198.981 59.184C198.458 58.5158 197.228 58.2228 196.406 58.2503C195.86 58.2565 195.335 58.468 194.936 58.843C194.498 59.2184 193.989 59.493 193.391 59.3946C193.142 59.3573 192.908 59.2497 192.717 59.0844C192.527 58.9191 192.387 58.7028 192.314 58.4608V58.438C192.951 57.589 193.756 56.8818 194.68 56.3611C195.603 55.8405 196.624 55.5177 197.679 55.4132C198.733 55.3087 199.798 55.4248 200.805 55.7541C201.812 56.0834 202.74 56.6187 203.531 57.3263C204.321 58.0338 204.956 58.8982 205.396 59.8646C205.836 60.831 206.071 61.8784 206.086 62.9406C206.102 64.0028 205.897 65.0567 205.485 66.0355C205.074 67.0143 204.464 67.8967 203.694 68.627C203.826 67.8697 203.916 67.1056 203.964 66.3383Z" fill="#571AFF"/>
<path d="M193.391 59.1729C193.142 59.1345 192.908 59.0263 192.717 58.8607C192.526 58.6952 192.385 58.4789 192.312 58.2369C192.25 57.9943 192.266 57.7357 192.195 57.4954C192.019 56.9026 191.389 56.5959 190.967 56.1451C190.123 55.2456 190.177 53.7672 190.775 52.6846C191.259 51.8127 192.195 51.0826 193.177 51.2474C193.784 51.3526 194.318 51.7852 194.925 51.8264C195.532 51.8676 196.066 51.5312 196.598 51.284C197.902 50.6904 199.369 50.5596 200.757 50.9132C201.182 50.999 201.577 51.1991 201.898 51.4922C202.116 51.7674 202.319 52.0539 202.507 52.3505C203.206 53.2431 204.459 53.4193 205.575 53.6207C206.691 53.8221 207.953 54.2661 208.314 55.3417C208.558 56.0558 208.314 56.8294 208.182 57.5709C208.138 57.7222 208.148 57.8842 208.211 58.0286C208.387 58.317 208.823 58.1957 209.152 58.2575C209.784 58.3925 209.946 59.2096 209.971 59.8595C209.997 60.601 210.017 61.3433 210.03 62.0864C210.049 62.3628 210.026 62.6404 209.964 62.9103C209.827 63.297 209.61 63.6504 209.327 63.947L206.849 66.9337C205.748 68.2566 204.582 69.7991 204.794 71.511C204.274 71.7399 203.653 71.2936 203.484 70.7466C203.315 70.1996 203.45 69.6023 203.566 69.0507C203.768 68.0812 203.901 67.0984 203.964 66.1098C204.028 65.6149 203.969 65.1116 203.792 64.6451C203.58 64.1874 203.085 63.8418 202.601 63.9585C201.957 64.1095 201.688 64.9472 201.053 65.1486C200.522 65.3179 199.942 64.9403 199.684 64.4437C199.426 63.947 199.424 63.3657 199.424 62.8073V60.9192C199.424 60.2326 199.401 59.4956 198.981 58.9578C198.458 58.2895 197.228 57.9966 196.406 58.024C195.86 58.0308 195.337 58.2423 194.939 58.6168C194.498 58.9944 193.989 59.2713 193.391 59.1729Z" fill="#7C5C5C"/>
<path opacity="0.1" d="M195.119 82.7984L197.47 92.4816C197.47 92.4816 199.323 92.4702 195.119 82.7984Z" fill="#571AFF"/>
<path opacity="0.1" d="M203.151 81.1805C203.151 81.1805 200.074 86.2338 201.275 91.4611L201.848 91.5023C201.848 91.5023 200.825 89.0832 203.151 81.1805Z" fill="#571AFF"/>
<path opacity="0.1" d="M205.093 109.782C205.093 109.782 208.873 108.527 209.147 111.436C209.156 111.436 208.444 109.443 205.093 109.782Z" fill="#571AFF"/>
<path opacity="0.1" d="M194.181 93.0722C194.181 93.0722 193.43 98.3361 194.781 100.448C194.781 100.448 192.042 101.577 188.176 101.353L187.719 93.0722H194.181Z" fill="#571AFF"/>
<path opacity="0.1" d="M194.694 99.8559L194.332 100.06L192.003 94.7957L194.181 92.8389H194.293C194.259 93.0998 193.651 97.6245 194.694 99.8559Z" fill="#571AFF"/>
<path d="M194.181 92.8479C194.181 92.8479 193.43 98.1118 194.781 100.222C194.781 100.222 192.042 101.352 188.176 101.126L185.549 92.8479H194.181Z" fill="#F4ED0F"/>
<path d="M187.689 180.75C187.646 181.126 187.479 181.476 187.215 181.746C186.951 182.016 186.605 182.191 186.231 182.242C184.193 182.546 179.283 183.325 178.044 183.917C176.467 184.67 170.238 184.146 169.936 183.391C169.893 183.239 169.88 183.08 169.899 182.922C169.917 182.765 169.966 182.613 170.044 182.476C170.257 182.017 170.61 181.637 171.05 181.391C171.196 181.309 171.349 181.242 171.507 181.189C172.68 180.798 174.896 179.965 175.494 179.091C175.494 179.091 178.258 176.667 179.046 175.358C179.194 175.1 179.403 174.883 179.654 174.726C179.906 174.569 180.192 174.476 180.488 174.456C181.146 174.426 181.878 174.758 182.18 176.202C182.18 176.202 185.779 178.262 186.745 176.456C186.745 176.456 186.895 179.23 187.493 179.99C187.575 180.097 187.634 180.22 187.668 180.35C187.702 180.481 187.709 180.617 187.689 180.75Z" fill="#A27772"/>
<path opacity="0.1" d="M187.69 180.75C187.646 181.126 187.479 181.476 187.215 181.746C186.951 182.017 186.605 182.191 186.231 182.242C184.193 182.547 179.283 183.325 178.044 183.918C176.467 184.671 170.238 184.146 169.936 183.391C169.893 183.239 169.88 183.08 169.899 182.923C169.917 182.765 169.966 182.614 170.044 182.476C170.257 182.017 170.61 181.638 171.05 181.391C172.066 182.078 174.321 182.727 179.281 181.952C184.012 181.21 186.357 180.485 187.498 179.99C187.579 180.098 187.638 180.22 187.67 180.351C187.703 180.481 187.71 180.617 187.69 180.75Z" fill="#571AFF"/>
<g opacity="0.1">
<path opacity="0.1" d="M208.17 57.6761V57.6395C208.277 57.0765 208.439 56.4951 208.398 55.9298C208.351 56.3918 208.274 56.8505 208.17 57.303C208.142 57.4258 208.142 57.5533 208.17 57.6761Z" fill="#571AFF"/>
<path opacity="0.1" d="M203.79 64.7205C203.909 64.9917 203.972 65.2846 203.975 65.581C204.009 65.1723 203.945 64.7613 203.79 64.3818C203.58 63.9241 203.085 63.5785 202.601 63.6952C201.957 63.8462 201.688 64.6839 201.051 64.8853C200.522 65.0546 199.942 64.677 199.682 64.1804C199.421 63.6838 199.421 63.1001 199.421 62.5417C199.421 61.9123 199.421 61.2853 199.421 60.6559C199.421 59.9693 199.399 59.2323 198.979 58.6945C198.454 58.0239 197.226 57.7333 196.404 57.7585C195.857 57.7655 195.333 57.9778 194.934 58.3535C194.494 58.7288 193.987 59.0035 193.387 58.9051C193.138 58.8669 192.904 58.7591 192.714 58.5939C192.523 58.4287 192.383 58.2129 192.309 57.9713C192.248 57.7287 192.264 57.4678 192.193 57.2275C192.017 56.637 191.387 56.328 190.965 55.8795C190.569 55.4391 190.344 54.8703 190.333 54.2774C190.302 54.6252 190.342 54.9757 190.45 55.3075C190.559 55.6392 190.734 55.9452 190.965 56.2068C191.387 56.6645 192.017 56.9643 192.193 57.5548C192.264 57.7836 192.248 58.056 192.309 58.2986C192.383 58.5402 192.523 58.756 192.714 58.9212C192.904 59.0864 193.138 59.1942 193.387 59.2323C193.987 59.3308 194.494 59.0561 194.934 58.6808C195.333 58.3051 195.857 58.0927 196.404 58.0857C197.226 58.0606 198.458 58.3512 198.979 59.0218C199.399 59.5596 199.419 60.2988 199.421 60.9832C199.421 61.6125 199.421 62.2396 199.421 62.869C199.421 63.4274 199.421 64.0133 199.682 64.5054C199.942 64.9974 200.515 65.3819 201.051 65.2126C201.681 65.0112 201.964 64.1735 202.601 64.0225C203.085 63.9172 203.58 64.2788 203.79 64.7205Z" fill="#571AFF"/>
<path opacity="0.1" d="M209.96 62.6493C209.822 63.0357 209.604 63.3883 209.321 63.6838L206.842 66.6705C205.799 67.927 204.696 69.3825 204.788 70.9869C204.863 69.5153 205.885 68.1764 206.842 67.0092L209.321 64.0225C209.604 63.727 209.822 63.3744 209.96 62.9881C210.022 62.7174 210.044 62.439 210.026 62.1619C210.022 62.3263 210 62.4899 209.96 62.6493Z" fill="#571AFF"/>
<path opacity="0.1" d="M203.496 70.4833C203.455 70.3524 203.43 70.2172 203.42 70.0805C203.4 70.3302 203.425 70.5816 203.496 70.822C203.665 71.3667 204.283 71.8176 204.806 71.5841C204.791 71.4748 204.782 71.3648 204.778 71.2545C204.258 71.4628 203.655 71.0188 203.496 70.4833Z" fill="#571AFF"/>
</g>
<path opacity="0.1" d="M178.546 176.047C178.546 176.047 179.331 177.42 182.175 176.212L178.546 176.047Z" fill="#571AFF"/>
<path opacity="0.1" d="M202.583 176.381C202.583 176.381 205.034 179.276 208.124 177.331L202.583 176.381Z" fill="#571AFF"/>
<path opacity="0.1" d="M209.718 142.145C209.718 142.145 207.985 143.23 207.931 143.851C207.876 144.471 208.825 143.393 208.825 143.393L209.718 142.145Z" fill="#571AFF"/>
<path opacity="0.1" d="M210.402 150.467C209.8 150.969 209.051 151.263 208.268 151.302C206.972 151.359 207.081 153.053 207.928 152.545C208.775 152.037 210.402 150.467 210.402 150.467Z" fill="#571AFF"/>
<path opacity="0.1" d="M210.731 151.554C210.731 151.554 209.9 155.648 209.225 154.859L210.731 151.554Z" fill="#571AFF"/>
<path d="M50.2232 182.24C50.2232 182.24 55.4386 183.675 57.9493 181.766C60.46 179.857 61.5488 180.471 61.5488 180.471C61.5488 180.471 67.5357 180.139 68.0287 178.72C68.5217 177.301 65.7325 172.147 65.7325 172.147C65.534 171.689 65.2441 171.108 65.114 171.108L65.1414 168.934L66.0087 159.836C68.0105 154.689 66.0452 148.038 66.0452 148.038L65.6869 146.388C65.4855 145.461 65.6055 144.492 66.027 143.642L69.663 136.318C69.8575 135.834 70.0864 135.365 70.3477 134.913C70.5759 134.494 70.8795 133.977 71.2607 133.357C71.3725 133.178 71.4889 132.993 71.6168 132.798C72.0573 132.112 72.5914 131.334 73.2373 130.437C74.8465 128.201 75.6932 125.402 76.1315 123.342L76.3255 123.987H76.3369H76.3689L76.4214 123.999H76.4944H76.5081L76.6017 124.015H76.6359L77.7543 138.287C77.8228 143.853 79.861 146.933 79.861 146.933L79.5803 159.221C79.9638 162.18 79.1238 166.126 78.7381 167.7L77.857 169.694C77.5101 169.867 77.2106 170.123 76.9843 170.439C76.7581 170.755 76.6119 171.121 76.5583 171.506C76.3848 172.978 74.8396 176.15 74.8396 176.15C74.2416 176.91 72.9429 178.963 72.9429 178.963C72.9429 178.963 72.3312 180.945 72.7101 181.686C73.0889 182.428 76.257 182.352 76.257 182.352C79.8747 183.155 82.6479 181.208 82.4722 179.867C82.2964 178.525 83.036 178.184 83.036 178.184C84.4739 177.727 84.3347 176.749 84.3347 176.749C84.6443 174.734 84.2603 172.672 83.2459 170.904L83.0177 171.433C82.956 170.375 83.1034 169.315 83.4514 168.314L83.319 168.405L83.2779 168.43H83.2642C83.4924 166.423 85.5946 162.709 85.5946 162.709C89.4566 155.916 88.0528 146.711 88.0528 146.711L87.4548 143.841L87.4206 142.759C87.3388 140.174 87.5339 137.588 88.0026 135.046C88.2103 133.92 88.4249 132.56 88.5892 131.061C88.9361 127.894 90.0546 124.626 90.5704 123.241L90.7233 123.214H90.7416C90.9516 123.177 91.1638 123.14 91.3784 123.099H91.4195C91.4195 123.099 91.5427 122.431 91.6477 121.293C91.7093 120.568 91.7596 119.648 91.7596 118.59C91.775 115.398 91.289 112.223 90.3193 109.182L90.4357 109.015C90.4357 109.015 90.7119 108.639 91.2163 107.99C92.143 106.809 93.5855 105.014 95.3636 102.991C98.5476 99.3499 97.6118 95.6675 97.6118 95.6675C97.6118 95.6675 95.3065 87.1972 94.2794 82.1119C93.6928 79.2144 92.5927 77.2439 91.7504 76.0813C91.9403 75.2797 92.0474 74.4606 92.07 73.637C92.1385 72.1311 92.086 70.5611 91.4103 69.2085C90.7347 67.8559 89.2968 66.7871 87.7949 66.9679C87.5819 67.0194 87.3597 67.0194 87.1467 66.9679C86.9711 66.8881 86.8227 66.7584 86.7199 66.5949C85.8411 65.3796 85.7841 63.7455 86.0579 62.2716C86.3318 60.7977 86.8933 59.3879 87.1444 57.9095C87.3955 56.431 87.2814 54.79 86.3433 53.6183C85.2408 52.2451 83.319 51.8583 81.8856 50.8261C80.879 50.1006 80.1235 49.0593 79.0622 48.4162C78.0008 47.7731 77.008 48.018 75.8553 48.2606C73.9175 48.6702 72.0755 48.8579 70.2427 49.6932C68.3868 50.5359 66.7223 51.7501 65.3514 53.2612C64.8647 53.7483 64.4921 54.3377 64.2604 54.9869C63.8039 56.4997 64.6963 58.1109 64.5091 59.6763C64.3768 60.7863 63.724 61.7521 63.2058 62.7431C62.6877 63.7341 62.2929 64.9104 62.6991 65.9472C63.3382 67.5675 65.4221 67.9108 66.9377 68.7737C67.1402 68.873 67.3133 69.0237 67.4398 69.2108C67.8142 69.8653 67.0495 70.5451 66.5679 71.1264C66.2923 71.4655 66.0972 71.8631 65.9973 72.289C65.3699 72.5472 64.8155 72.9561 64.3829 73.4797C63.9502 74.0033 63.6526 74.6256 63.5163 75.2917C63.0027 77.5964 63.7924 80.5052 64.4886 82.4277C63.7285 86.7097 64.7168 88.3987 65.445 89.0464C66.182 89.6795 66.6385 90.58 66.714 91.5502V91.6303C66.7619 92.4084 66.8441 93.1843 66.9537 93.9579C66.9286 93.7771 66.9035 93.5848 66.8898 93.5001C66.294 94.6055 65.1596 97.4297 64.5205 102.181C64.3876 103.199 64.1947 104.209 63.9431 105.204C63.4859 106.967 63.3224 108.794 63.4592 110.61L63.5733 112.15C63.4611 112.153 63.3513 112.117 63.2629 112.047L64.0641 113.519V116.002C64.0631 117.122 63.8573 118.232 63.4569 119.277C63.3999 119.428 63.3382 119.579 63.272 119.735C63.0662 120.153 62.9733 120.618 63.0027 121.083C61.2794 123.731 57.3285 138.57 57.3285 138.57C55.1852 143.436 57.5042 146.581 57.5042 146.581C57.5042 146.581 58.6272 160.127 58.8372 160.827C59.0472 161.528 59.5128 169.785 59.5128 169.785C59.5128 170.003 59.5128 170.229 59.5128 170.442C59.3882 170.387 59.257 170.35 59.1225 170.33C57.244 170.225 56.735 173.2 56.735 173.2L52.8914 176.88C52.8914 176.88 51.1361 176.582 48.5547 178.525C45.9732 180.468 50.2232 182.24 50.2232 182.24ZM88.6029 103.948L88.5915 103.907L88.4865 103.968L88.4431 103.994L88.4226 104.007L86.6514 97.7387C86.1773 96.0581 86.1325 94.2849 86.5213 92.5824L87.8908 86.5678V85.1214L92.2434 96.7523C92.5219 98.32 89.9359 102.117 88.6029 103.948Z" fill="url(#paint3_linear)"/>
<path d="M90.5133 122.868C90.5133 122.868 88.7557 127.155 88.3084 131.268C88.1463 132.751 87.9363 134.092 87.7309 135.204C87.2749 137.715 87.0867 140.267 87.1694 142.818L87.2037 143.887L87.7743 146.718C87.7743 146.718 89.1438 155.811 85.3617 162.51C85.3617 162.51 83.1203 166.522 83.0518 168.421L81.534 169.009L78.4663 168.147C78.4663 168.147 79.9477 162.821 79.4661 159.088L79.7422 146.958C79.7422 146.958 77.7496 143.924 77.6812 138.431L76.5103 123.358L90.5133 122.868Z" fill="#FDC2CC"/>
<path d="M76.5103 120.721C76.5103 120.721 76.1337 126.599 73.2349 130.649C70.3362 134.7 69.7199 136.458 69.7199 136.458L66.1501 143.695C65.7368 144.533 65.6185 145.488 65.8146 146.402L66.1661 148.032C66.1661 148.032 68.0971 154.6 66.1319 159.683L65.2006 169.501H59.7546C59.7546 169.501 59.2981 161.342 59.0996 160.651C58.901 159.96 57.7894 146.581 57.7894 146.581C57.7894 146.581 55.5069 143.468 57.6159 138.664C57.6159 138.664 62.3749 120.687 63.6485 120.998C64.9221 121.309 76.5103 120.721 76.5103 120.721Z" fill="#FDC2CC"/>
<g opacity="0.1">
<path opacity="0.1" d="M65.6138 148.043L65.2646 146.414C65.0631 145.496 65.1807 144.536 65.5978 143.695L69.1676 136.451C69.1676 136.451 69.7862 134.689 72.6826 130.643C75.4649 126.752 75.9237 121.177 75.9557 120.749L76.5103 120.721C76.5103 120.721 76.1337 126.599 73.235 130.649C70.3362 134.7 69.72 136.458 69.72 136.458L66.1502 143.695C65.7368 144.533 65.6186 145.488 65.8147 146.402L66.1662 148.032C66.1662 148.032 68.0971 154.6 66.1319 159.683L65.2007 169.501H64.6483L65.5796 159.683C67.5448 154.6 65.6138 148.043 65.6138 148.043Z" fill="#571AFF"/>
</g>
<path opacity="0.1" d="M82.5086 168.428C82.5771 166.529 84.8185 162.517 84.8185 162.517C88.612 155.811 87.2311 146.725 87.2311 146.725L86.6468 143.892L86.6125 142.823C86.5298 140.272 86.718 137.719 87.174 135.209C87.3772 134.096 87.5871 132.755 87.7492 131.272C88.1806 127.313 89.8262 123.193 89.9472 122.891L90.5133 122.868C90.5133 122.868 88.7558 127.155 88.3084 131.268C88.1463 132.751 87.9364 134.092 87.7309 135.204C87.2749 137.715 87.0867 140.267 87.1695 142.818L87.2037 143.887L87.7743 146.718C87.7743 146.718 89.1438 155.811 85.3617 162.51C85.3617 162.51 83.1203 166.522 83.0519 168.421L81.534 169.009L81.2145 168.92L82.5086 168.428Z" fill="#571AFF"/>
<path d="M80.751 168.359C81.162 168.522 81.6073 168.579 82.046 168.525C82.4847 168.471 82.9028 168.307 83.2618 168.048C82.7594 169.518 82.6881 171.102 83.0563 172.612C83.6772 175.102 77.2634 170.607 77.2634 170.607L78.6329 167.469C78.6329 167.469 79.1647 168.462 80.751 168.359Z" fill="#D39999"/>
<path opacity="0.1" d="M81.2282 168.499C81.5809 168.57 81.9447 168.566 82.2959 168.488C82.6471 168.409 82.9777 168.257 83.2664 168.041C82.7641 169.511 82.6928 171.095 83.061 172.605C83.6818 175.095 77.2681 170.6 77.2681 170.6L78.6375 167.462C78.6375 167.462 79.0347 168.227 80.201 168.346C80.5548 168.387 80.8926 168.435 81.2282 168.499Z" fill="#571AFF"/>
<path d="M66.2004 110.198H68.8801V94.9532L66.8692 94.5916L66.2004 110.198Z" fill="#FDC2CC"/>
<path opacity="0.05" d="M66.2004 110.198H68.8801V94.9532L66.8692 94.5916L66.2004 110.198Z" fill="#571AFF"/>
<path d="M79.2332 169.535C79.2332 169.535 80.9223 169.43 81.68 170.952L82.6113 171.678L83.0678 170.607C84.0585 172.357 84.4301 174.392 84.1223 176.381C84.1223 176.381 84.2592 177.347 82.8464 177.797C82.8464 177.797 82.1228 178.143 82.294 179.457C82.4652 180.77 79.7445 182.707 76.193 181.91C76.193 181.91 73.0888 181.981 72.7099 181.253C72.331 180.525 72.9519 178.592 72.9519 178.592C72.9519 178.592 74.2278 176.564 74.8121 175.815C74.8121 175.815 76.3299 172.68 76.5034 171.238C76.6769 169.796 78.3362 168.739 79.2332 169.535Z" fill="#7E5659"/>
<path d="M65.2531 170.815L65.2805 168.666C65.2805 168.666 62.1969 169.556 59.6998 168.549C59.6998 168.549 59.9098 170.71 59.5629 171.005C59.216 171.3 60.7178 174.081 60.7178 174.081L62.3954 175.843L65.2805 174.79L66.0634 172.319C66.0634 172.319 65.4585 170.815 65.2531 170.815Z" fill="#D39999"/>
<path opacity="0.1" d="M65.2531 170.815L65.2805 168.666C65.2805 168.666 62.1969 169.556 59.6998 168.549C59.6998 168.549 59.9098 170.71 59.5629 171.005C59.216 171.3 60.7178 174.081 60.7178 174.081L62.3954 175.843L65.2805 174.79L66.0634 172.319C66.0634 172.319 65.4585 170.815 65.2531 170.815Z" fill="#571AFF"/>
<path d="M59.3734 170.037C59.3734 170.037 61.0123 170.227 60.8046 172.326C60.5968 174.424 60.8913 172.326 60.8913 172.326C60.8913 172.326 62.6328 173.033 63.2537 174.019C63.8745 175.006 64.9952 173.138 65.0796 172.602C65.1641 172.067 65.8625 171.845 65.8625 171.845C65.8625 171.845 68.6015 176.937 68.1176 178.338C67.6337 179.738 61.7541 180.061 61.7541 180.061C61.7541 180.061 60.6836 179.457 58.2185 181.341C55.7534 183.224 50.6339 181.798 50.6339 181.798C50.6339 181.798 46.4615 180.052 48.9973 178.136C51.5331 176.221 53.2541 176.511 53.2541 176.511L57.0293 172.863C57.0293 172.863 57.5292 169.932 59.3734 170.037Z" fill="#7E5659"/>
<path d="M78.9457 49.6519C79.9888 50.2859 80.7306 51.3157 81.7189 52.0321C83.1249 53.0505 85.0125 53.4305 86.0944 54.7899C87.0074 55.948 87.1261 57.566 86.8796 59.0262C86.6331 60.4863 86.0807 61.8801 85.8137 63.3357C85.5466 64.7913 85.6014 66.4048 86.4642 67.604C86.5644 67.7653 86.7096 67.8934 86.8819 67.9725C87.0912 68.0227 87.3094 68.0227 87.5187 67.9725C88.9932 67.794 90.4083 68.8513 91.0702 70.1856C91.7321 71.5199 91.7846 73.0716 91.7162 74.5592C91.6591 75.779 91.5222 77.0241 90.9881 78.1226C90.0751 79.9901 88.1761 81.1436 86.3021 82.027C85.0841 82.6012 83.8352 83.107 82.5612 83.5421C81.6847 83.8396 80.7603 84.1074 79.8496 83.9518C78.2907 83.6817 77.1859 82.2605 75.7069 81.7043C74.4949 81.2466 73.1505 81.4114 71.8609 81.5258C70.7608 81.6219 69.5031 81.6197 68.7454 80.8141C67.773 79.7796 68.2113 78.1112 68.7088 76.7792C68.1818 76.7457 67.6743 76.5668 67.2424 76.2622C66.8104 75.9577 66.4708 75.5393 66.2611 75.0534C66.0514 74.5675 65.9797 74.0329 66.054 73.5087C66.1282 72.9844 66.3456 72.491 66.682 72.0829C67.1522 71.5084 67.9031 70.8379 67.5356 70.1902C67.4122 70.0055 67.2421 69.857 67.0426 69.7599C65.5567 68.9085 63.5094 68.5675 62.884 66.9701C62.4822 65.9425 62.8703 64.7798 63.3793 63.8026C63.8882 62.8253 64.5205 61.8687 64.6597 60.7747C64.8423 59.2276 63.975 57.637 64.4155 56.1448C64.6432 55.5039 65.0087 54.921 65.486 54.4375C66.8277 52.9482 68.4588 51.7496 70.2792 50.9152C72.08 50.089 73.8855 49.9037 75.7891 49.5009C76.9303 49.2583 77.8752 49.0019 78.9457 49.6519Z" fill="#865A61"/>
<path d="M68.8778 72.6916C68.8778 72.6916 64.5114 72.4627 63.6852 76.1955C62.8589 79.9283 65.4769 85.2745 65.4769 85.2745L68.8778 72.6916Z" fill="#FDC2CC"/>
<path opacity="0.05" d="M68.8778 72.6916C68.8778 72.6916 64.5114 72.4627 63.6852 76.1955C62.8589 79.9283 65.4769 85.2745 65.4769 85.2745L68.8778 72.6916Z" fill="#571AFF"/>
<path d="M66.0908 83.8008L67.7456 85.1145L75.4672 85.4601L80.2878 82.1416L85.1906 73.7057C82.1937 72.939 80.9817 70.8632 80.5297 68.9224C80.2422 67.6089 80.2097 66.2522 80.4339 64.9264C80.4339 64.9264 72.573 60.8458 73.5385 67.2151C73.6709 67.9968 73.6955 68.7931 73.6116 69.5815C73.1551 73.312 69.5442 72.6094 69.5442 72.6094L68.1587 74.7516L66.5724 80.0154L66.0908 83.8008Z" fill="#FDC2CC"/>
<path opacity="0.1" d="M73.5453 67.206C73.6777 67.9878 73.7023 68.784 73.6184 69.5725C74.7274 70.0805 75.95 70.2878 77.164 70.1738C78.378 70.0597 79.5409 69.6283 80.5365 68.9225C80.249 67.609 80.2164 66.2523 80.4406 64.9265C80.4406 64.9265 72.5798 60.8459 73.5453 67.206Z" fill="#571AFF"/>
<path d="M76.5148 69.927C80.3609 69.927 83.4787 66.8008 83.4787 62.9444C83.4787 59.0879 80.3609 55.9617 76.5148 55.9617C72.6688 55.9617 69.551 59.0879 69.551 62.9444C69.551 66.8008 72.6688 69.927 76.5148 69.927Z" fill="#FDC2CC"/>
<path d="M71.5892 82.4691C71.7581 82.4691 71.9247 82.4942 72.0914 82.5102C73.0044 82.6018 76.8184 82.8078 78.9913 80.2056C81.4221 77.2944 84.6587 73.699 84.791 73.5525L88.0847 74.5503C88.0847 74.5503 85.4781 73.6212 83.748 78.4822C83.3683 79.5018 83.3283 80.6173 83.6341 81.6616C83.9398 82.7059 84.5748 83.6228 85.4438 84.2748C86.0837 84.7396 86.8204 85.0526 87.5985 85.1902C87.5995 85.192 87.6 85.194 87.6 85.196C87.6 85.198 87.5995 85.2 87.5985 85.2017V87.3347L86.2518 93.2852C85.8692 94.9666 85.9132 96.7174 86.3797 98.3774L88.4339 105.658C88.1235 105.873 75.3781 114.565 66.8645 108.562C66.8965 108.301 67.9487 99.7575 67.2183 95.5761C67.0307 94.507 66.9035 93.4281 66.8371 92.3445C66.8371 92.3171 66.8371 92.2919 66.8371 92.2644C66.7618 91.3078 66.3131 90.4196 65.5886 89.7927C64.8217 89.1061 63.7832 87.2752 64.8103 82.437C65.0698 81.2388 65.4522 80.0707 65.9515 78.9514L68.8069 72.4814L71.4386 72.5341V72.5524C71.2103 72.8362 68.1587 76.6582 67.8277 79.1208C67.5036 81.462 67.1042 82.1807 71.5892 82.4691Z" fill="#F4ED0F"/>
<path d="M90.301 75.6876C90.301 75.6876 92.8756 77.9008 93.8868 82.9243C94.8979 87.9479 97.1507 96.2923 97.1507 96.2923C97.1507 96.2923 98.0637 99.9335 94.9436 103.529C91.8234 107.124 89.7487 109.937 89.7487 109.937L87.6944 112.972C87.3441 113.489 86.8187 113.862 86.2154 114.02C85.2796 114.267 83.8416 114.446 82.5954 113.761C82.1418 113.507 81.7977 113.094 81.6293 112.601C81.4608 112.108 81.4797 111.57 81.6824 111.091L82.1389 110.031C82.1389 110.031 77.9095 112.704 77.542 111.228C77.1745 109.752 82.4607 108.278 82.4607 108.278C82.4607 108.278 86.8271 107.541 87.7104 105.467C87.7104 105.467 92.3986 99.4277 92.0311 97.3542L87.5027 85.1855C87.5027 85.1855 81.8399 84.4348 83.7709 78.0564C85.7018 71.6779 90.301 75.6876 90.301 75.6876Z" fill="#FDC2CC"/>
<path d="M63.224 121.598C63.224 121.598 73.5682 123.671 76.0059 123.394L76.2684 124.271C76.2684 124.271 80.1942 125.152 89.0707 123.74C89.6505 123.648 90.2523 123.545 90.8762 123.431L91.0839 123.394C91.0839 123.394 91.2049 122.735 91.3007 121.612C91.513 119.06 91.5883 114.119 89.7966 109.061L88.3038 104.451C88.3038 104.451 79.0781 109.997 72.9702 109.486C72.4247 109.441 71.8837 109.397 71.3382 109.379C70.0851 109.331 68.1428 109.379 66.8805 108.365L64.2329 108.823V116.375C64.2319 117.48 64.0293 118.575 63.6349 119.607C63.5778 119.758 63.5185 119.907 63.4523 120.064C63.2093 120.536 63.1291 121.075 63.224 121.598Z" fill="#571AFF"/>
<path opacity="0.1" d="M76.2661 121.92V124.271C76.2661 124.271 80.7854 125.285 91.0816 123.394C91.0816 123.394 91.2026 122.735 91.2985 121.611C88.1395 122.12 79.4273 123.342 76.2661 121.92Z" fill="#571AFF"/>
<path opacity="0.1" d="M63.224 121.598C63.224 121.598 73.5682 123.671 76.0059 123.394L76.2684 124.271V121.92C75.0906 122.41 66.682 120.378 63.6349 119.616C63.5778 119.767 63.5185 119.916 63.4523 120.074C63.2113 120.543 63.1311 121.078 63.224 121.598Z" fill="#571AFF"/>
<path d="M88.3015 118.977L89.0684 123.747C89.6482 123.655 90.25 123.552 90.8739 123.438C90.6342 122.044 90.1115 118.861 90.2553 118.332L89.2898 117.503L88.3015 118.977Z" fill="#571AFF"/>
<path opacity="0.1" d="M88.4088 118.874L89.1757 123.646C89.7555 123.553 90.3573 123.45 90.9811 123.337C90.7415 121.943 90.2188 118.76 90.3626 118.231L89.3971 117.4L88.4088 118.874Z" fill="#571AFF"/>
<g opacity="0.05">
<path opacity="0.05" d="M72.4155 109.484C71.8723 109.438 71.3291 109.395 70.7835 109.376C69.5647 109.331 67.7045 109.376 66.4354 108.44L66.8782 108.362C68.1473 109.372 70.0737 109.328 71.3359 109.376C71.8814 109.395 72.4224 109.438 72.9679 109.484C73.1459 109.5 73.3285 109.509 73.5134 109.514C73.1472 109.523 72.7807 109.513 72.4155 109.484Z" fill="#571AFF"/>
<path opacity="0.05" d="M88.5161 123.74C89.0959 123.648 89.6977 123.546 90.3216 123.433L90.5316 123.394C90.5316 123.394 90.6525 122.735 90.7461 121.612C90.9607 119.06 91.036 114.119 89.242 109.061L87.836 104.712C88.135 104.543 88.2925 104.444 88.2925 104.444L89.7852 109.054C91.5769 114.112 91.5016 119.053 91.2893 121.605C91.1935 122.728 91.0725 123.388 91.0725 123.388L90.8648 123.426C90.2425 123.539 89.6406 123.642 89.0594 123.733C84.9121 124.392 81.849 124.552 79.7583 124.534C82.6933 124.489 85.6208 124.224 88.5161 123.74Z" fill="#571AFF"/>
<path opacity="0.05" d="M75.4489 123.394V123.419H75.1522C75.2648 123.412 75.3637 123.403 75.4489 123.394Z" fill="#571AFF"/>
</g>
<path d="M89.5865 119.868C89.802 119.868 89.9768 119.507 89.9768 119.062C89.9768 118.617 89.802 118.256 89.5865 118.256C89.3709 118.256 89.1962 118.617 89.1962 119.062C89.1962 119.507 89.3709 119.868 89.5865 119.868Z" fill="#D39999"/>
<path d="M64.6756 102.749C65.3056 98.0568 66.4172 95.2693 67.0038 94.1776C67.0266 94.3264 67.0859 94.8093 67.1133 94.958C67.232 95.6446 67.127 96.5097 67.1635 97.3817L66.5792 107.992L67.3621 111.31C68.0971 113.938 65.3741 111.862 65.3741 111.862C64.8103 113.107 63.7763 112.97 63.7763 112.97L63.6348 111.065C63.5008 109.272 63.6612 107.468 64.1096 105.726C64.3571 104.746 64.5461 103.751 64.6756 102.749Z" fill="#FDC2CC"/>
<path opacity="0.05" d="M64.6756 102.749C65.3056 98.0568 66.4172 95.2693 67.0038 94.1776C67.0266 94.3264 67.0859 94.8093 67.1133 94.958C67.232 95.6446 67.127 96.5097 67.1635 97.3817L66.5792 107.992L67.3621 111.31C68.0971 113.938 65.3741 111.862 65.3741 111.862C64.8103 113.107 63.7763 112.97 63.7763 112.97L63.6348 111.065C63.5008 109.272 63.6612 107.468 64.1096 105.726C64.3571 104.746 64.5461 103.751 64.6756 102.749Z" fill="#571AFF"/>
<path d="M90.8739 108.473C90.3786 109.116 90.1069 109.484 90.1069 109.484L88.0527 112.517C87.7032 113.035 87.1774 113.407 86.5737 113.565C85.6379 113.812 84.1999 113.993 82.9537 113.306C82.4999 113.053 82.1556 112.64 81.987 112.147C81.8185 111.655 81.8376 111.117 82.0407 110.638L82.4972 109.576C82.4972 109.576 78.2677 112.249 77.9003 110.775C77.5328 109.301 82.819 107.825 82.819 107.825C82.819 107.825 87.1854 107.088 88.0687 105.012C88.0687 105.012 88.4499 104.522 88.9817 103.772" fill="#FDC2CC"/>
<path d="M88.3015 113.556C88.3015 113.556 83.3006 113.068 81.7165 110.2L80.9907 112.569C80.9907 112.569 86.2404 116.203 87.4387 115.732L88.3015 113.556Z" fill="#571AFF"/>
<path opacity="0.1" d="M88.1236 113.533C88.1236 113.533 83.1249 113.045 81.5386 110.175L80.8151 112.537C80.8151 112.537 86.0648 116.171 87.2608 115.7L88.1236 113.533Z" fill="#571AFF"/>
<path d="M65.5384 112.216C65.5384 112.216 63.7878 112.839 63.4431 112.493L64.2306 113.947L65.7187 112.802L65.5384 112.216Z" fill="#571AFF"/>
<path opacity="0.1" d="M65.5384 112.216C65.5384 112.216 63.7878 112.839 63.4431 112.493L64.2306 113.947L65.7187 112.802L65.5384 112.216Z" fill="#571AFF"/>
<path opacity="0.1" d="M76.2661 121.921V118.888L75.5471 121.994L76.2661 121.921Z" fill="#571AFF"/>
<path opacity="0.1" d="M83.3576 59.2573C82.9354 59.8524 82.2027 60.1545 81.4814 60.2483C80.7602 60.3421 80.0298 60.262 79.3017 60.2483C78.1604 60.23 76.9461 60.4062 76.0126 61.0791C75.4169 61.5071 74.9695 62.109 74.5039 62.6811C73.0933 64.409 71.135 66.0271 68.9118 65.8463C68.7182 65.8463 68.5266 65.8074 68.3482 65.732C68.1699 65.6565 68.0084 65.546 67.8733 65.4069C67.6922 65.1249 67.5999 64.7947 67.6086 64.4594C67.513 63.0349 67.5581 61.6044 67.7432 60.1888C67.8324 59.3127 68.0492 58.4545 68.3869 57.6415C68.7843 56.8267 69.3065 56.0792 69.9344 55.4261C70.6938 54.5427 71.6092 53.8072 72.6346 53.2565C73.6707 52.7055 74.871 52.5502 76.0126 52.8194C77.3433 53.1833 78.3795 54.2269 79.6486 54.7647C81.098 55.3758 84.9462 57.0076 83.3576 59.2573Z" fill="#571AFF"/>
<path d="M83.3576 58.9804C82.9354 59.5754 82.2027 59.8775 81.4814 59.9714C80.7602 60.0652 80.0298 59.9851 79.3017 59.9714C78.1604 59.9508 76.9461 60.127 76.0126 60.7999C75.4169 61.2278 74.9695 61.8297 74.5039 62.4019C73.0933 64.1298 71.135 65.7479 68.9118 65.5671C68.7182 65.5676 68.5264 65.529 68.3479 65.4535C68.1695 65.378 68.0081 65.2672 67.8733 65.1277C67.6918 64.8458 67.5995 64.5156 67.6086 64.1802C67.513 62.7557 67.5581 61.3252 67.7432 59.9096C67.8324 59.0335 68.0492 58.1753 68.3869 57.3623C68.7837 56.5478 69.3059 55.8009 69.9344 55.1492C70.6931 54.2644 71.6086 53.5281 72.6346 52.9773C73.6707 52.4263 74.871 52.271 76.0126 52.5402C77.3433 52.9041 78.3795 53.9477 79.6486 54.4855C81.098 55.0989 84.9462 56.7261 83.3576 58.9804Z" fill="#865A61"/>
<path d="M66.8805 108.36L66.8622 109.196L66.675 108.397L66.8805 108.36Z" fill="#FDC2CC"/>
<path opacity="0.05" d="M66.8805 108.36L66.8622 109.196L66.675 108.397L66.8805 108.36Z" fill="#571AFF"/>
<g opacity="0.05">
<path opacity="0.05" d="M84.483 77.6192C82.5497 83.9977 88.1852 84.7461 88.1852 84.7461L92.7136 96.9148C93.0811 98.9883 88.3906 105.028 88.3906 105.028C88.0642 105.802 87.2494 106.39 86.3592 106.825C86.8793 106.507 87.2976 106.046 87.5643 105.497C87.5643 105.497 92.2525 99.4597 91.8851 97.3862L87.3566 85.2152C87.3566 85.2152 81.7235 84.4669 83.6545 78.0884C84.3004 75.9577 85.2522 74.9873 86.2154 74.6394C85.5512 75.175 84.9418 76.1019 84.483 77.6192Z" fill="#571AFF"/>
</g>
<g opacity="0.1">
<path opacity="0.1" d="M84.5789 83.4141C84.8436 83.7425 85.1506 84.0342 85.4919 84.2815C86.1312 84.7472 86.8681 85.0603 87.6465 85.1969C87.6465 85.1969 87.6465 85.1969 87.6465 85.2084V85.4373C86.9421 85.2876 86.2767 84.9922 85.6927 84.5699C85.2586 84.2509 84.882 83.86 84.5789 83.4141Z" fill="#571AFF"/>
<path opacity="0.1" d="M67.0678 92.539C67.0678 92.5642 67.0678 92.5917 67.0678 92.6191C67.1389 93.7066 67.27 94.7892 67.4603 95.8622C68.1451 99.8078 67.2481 107.642 67.1203 108.724C67.0472 108.676 66.9742 108.63 66.892 108.578C66.9262 108.317 67.9784 99.7734 67.2481 95.5944C67.0608 94.5252 66.9335 93.4463 66.8669 92.3628C66.8669 92.3354 66.8669 92.3079 66.8669 92.2827C66.8216 91.6547 66.6096 91.0502 66.2529 90.5319C66.726 91.0997 67.0108 91.8013 67.0678 92.539Z" fill="#571AFF"/>
<path opacity="0.1" d="M71.2697 72.7925L69.0375 72.7491C69.0357 72.748 69.0338 72.7475 69.0318 72.7475C69.0298 72.7475 69.0278 72.748 69.0261 72.7491L66.173 79.2167C65.674 80.3362 65.2916 81.5042 65.0317 82.7024C64.2009 86.6159 64.7236 88.5658 65.3581 89.5294C64.6437 88.6849 63.9065 86.7601 64.8263 82.4346C65.0811 81.2358 65.4597 80.0668 65.9561 78.9467L68.8298 72.479L71.4615 72.5316V72.5477C71.4409 72.5751 71.3702 72.6621 71.2697 72.7925Z" fill="#571AFF"/>
<path opacity="0.1" d="M88.0916 74.5479L88.1304 74.5593L88.0916 74.5479Z" fill="#571AFF"/>
<path opacity="0.1" d="M87.2722 74.5113L85.0354 73.8362H85.0239C84.8916 73.9827 81.6573 77.5781 79.2265 80.4893C77.0535 83.0915 73.2441 82.8878 72.3266 82.7962C72.1599 82.7779 71.991 82.7642 71.8244 82.7528C69.3297 82.5926 68.3482 82.295 68.0195 81.6634C68.4874 82.1211 69.5168 82.35 71.6167 82.4781C71.7856 82.4781 71.9522 82.5033 72.1188 82.5193C73.0318 82.6109 76.8459 82.8146 79.0188 80.2146C81.4496 77.3012 84.6861 73.7057 84.8185 73.5593L88.0733 74.548C87.8113 74.4826 87.539 74.4701 87.2722 74.5113Z" fill="#571AFF"/>
</g>
<path opacity="0.1" d="M60.7885 173.362C60.7885 173.362 57.6387 174.225 57.0293 172.87L60.7885 173.362Z" fill="#571AFF"/>
<path opacity="0.1" d="M80.7854 172.715C80.7854 172.715 77.1334 173.66 76.2889 172.197L80.7854 172.715Z" fill="#571AFF"/>
<path opacity="0.1" d="M44.1242 164.922C47.519 164.922 50.2709 164.456 50.2709 163.881C50.2709 163.305 47.519 162.839 44.1242 162.839C40.7295 162.839 37.9775 163.305 37.9775 163.881C37.9775 164.456 40.7295 164.922 44.1242 164.922Z" fill="#F4ED0F"/>
<path opacity="0.1" d="M19.9095 179.69C23.3042 179.69 26.0562 179.224 26.0562 178.649C26.0562 178.074 23.3042 177.608 19.9095 177.608C16.5148 177.608 13.7628 178.074 13.7628 178.649C13.7628 179.224 16.5148 179.69 19.9095 179.69Z" fill="#F4ED0F"/>
<path d="M13.5095 166.993C18.5783 166.993 22.6873 166.296 22.6873 165.437C22.6873 164.577 18.5783 163.88 13.5095 163.88C8.44071 163.88 4.33167 164.577 4.33167 165.437C4.33167 166.296 8.44071 166.993 13.5095 166.993Z" fill="#F4ED0F"/>
<path d="M9.71379 162.892C9.29419 162.55 8.98842 162.089 8.83732 161.569C8.72548 161.042 8.94916 160.413 9.44902 160.221C10.0105 160.006 10.6108 160.395 11.065 160.788C11.5192 161.182 12.0419 161.633 12.6376 161.55C12.3313 161.272 12.1021 160.918 11.9725 160.524C11.8429 160.131 11.8173 159.71 11.8981 159.303C11.9227 159.134 11.9939 158.976 12.1035 158.845C12.414 158.511 12.98 158.655 13.3543 158.919C14.5389 159.756 14.8722 161.372 14.8767 162.828C14.9977 162.301 14.8973 161.756 14.8996 161.225C14.9019 160.695 15.0502 160.081 15.5021 159.802C15.7813 159.647 16.0961 159.568 16.4151 159.573C16.9492 159.555 17.5427 159.607 17.9079 159.999C18.3644 160.484 18.2434 161.301 17.8485 161.83C17.4537 162.358 16.8556 162.699 16.3056 163.07C15.8625 163.334 15.4848 163.694 15.2009 164.125C15.1676 164.185 15.1401 164.248 15.1187 164.313H11.784C11.0326 163.936 10.3361 163.458 9.71379 162.892Z" fill="#F4ED0F"/>
<path opacity="0.1" d="M235.22 173.632C238.614 173.632 241.366 173.166 241.366 172.591C241.366 172.016 238.614 171.55 235.22 171.55C231.825 171.55 229.073 172.016 229.073 172.591C229.073 173.166 231.825 173.632 235.22 173.632Z" fill="#F4ED0F"/>
<path d="M231.093 167.75C231.093 167.75 234.599 167.643 235.658 166.888C236.717 166.132 241.049 165.233 241.312 166.444C241.574 167.654 246.582 172.46 242.622 172.492C238.662 172.524 233.426 171.874 232.371 171.229C231.317 170.584 231.093 167.75 231.093 167.75Z" fill="#A8A8A8"/>
<path opacity="0.2" d="M242.69 172.074C238.732 172.106 233.494 171.456 232.44 170.81C231.636 170.321 231.317 168.561 231.209 167.748H231.093C231.093 167.748 231.321 170.584 232.369 171.227C233.417 171.87 238.662 172.522 242.619 172.49C243.761 172.49 244.158 172.074 244.135 171.47C243.978 171.845 243.542 172.074 242.69 172.074Z" fill="#571AFF"/>
</g>
<defs>
<linearGradient id="paint0_linear" x1="110.095" y1="162.564" x2="110.095" y2="27.2851" gradientUnits="userSpaceOnUse">
<stop stop-color="#808080" stop-opacity="0.25"/>
<stop offset="0.54" stop-color="#808080" stop-opacity="0.12"/>
<stop offset="1" stop-color="#808080" stop-opacity="0.1"/>
</linearGradient>
<linearGradient id="paint1_linear" x1="31438" y1="109342" x2="31438" y2="23955.6" gradientUnits="userSpaceOnUse">
<stop stop-color="#808080" stop-opacity="0.25"/>
<stop offset="0.54" stop-color="#808080" stop-opacity="0.12"/>
<stop offset="1" stop-color="#808080" stop-opacity="0.1"/>
</linearGradient>
<linearGradient id="paint2_linear" x1="41677.3" y1="111311" x2="41677.3" y2="32291.7" gradientUnits="userSpaceOnUse">
<stop stop-color="#808080" stop-opacity="0.25"/>
<stop offset="0.54" stop-color="#808080" stop-opacity="0.12"/>
<stop offset="1" stop-color="#808080" stop-opacity="0.1"/>
</linearGradient>
<linearGradient id="paint3_linear" x1="-23870.8" y1="110367" x2="-23870.8" y2="31024.8" gradientUnits="userSpaceOnUse">
<stop stop-color="#808080" stop-opacity="0.25"/>
<stop offset="0.54" stop-color="#808080" stop-opacity="0.12"/>
<stop offset="1" stop-color="#808080" stop-opacity="0.1"/>
</linearGradient>
<clipPath id="clip0">
<rect width="260" height="182" fill="white"/>
</clipPath>
</defs>
</svg>
