<svg width="260" height="182" fill="none" xmlns="http://www.w3.org/2000/svg"><g clip-path="url(#a)"><path opacity=".1" d="M2.967 93.035c4.108 16.055 12.807 29.934 26.554 36.66 28.581 13.981 92.999 6.77 141.084-1.506 24.879-4.282 46.731-16.089 62.615-32.727L2.967 93.034Zm252.16-75.568h-26.383c-1.255 0-2.282-.938-2.282-2.085s1.025-2.085 2.282-2.085h4.565c-1.255 0-2.282-.938-2.282-2.085s1.025-2.083 2.282-2.083h-3.257c-1.255 0-2.282-.938-2.282-2.085 0-1.146 1.025-2.085 2.282-2.085h13.77c-3.056-1.3-6.619-2.222-10.741-2.705-37.549-4.41-50.956-1.494-55.692 1.506a55.176 55.176 0 0 1-19.299 7.734c-23.167 4.369-66.493 9.626-105.763-1.685C32.81 4.191 18.306 13.7 9.61 29.562h250.099c-.326-4.614-1.303-8.875-3.097-12.603a2.39 2.39 0 0 1-1.484.508ZM.728 59.525a97.283 97.283 0 0 0 1.024 28.01l231.644 7.746a99.137 99.137 0 0 0 16.094-22.43L.728 59.526Zm91.611 19.982h-4.565c1.253 0 2.283.939 2.283 2.085 0 1.147-1.027 2.083-2.283 2.083H61.403c-1.253 0-2.283-.936-2.283-2.083 0-1.146 1.027-2.085 2.283-2.085h4.565c-1.254 0-2.283-.938-2.283-2.085 0-1.146 1.027-2.085 2.282-2.085h-3.261c-1.253 0-2.283-.936-2.283-2.082 0-1.147 1.027-2.085 2.283-2.085h26.383c1.255 0 2.282.938 2.282 2.085 0 1.146-1.024 2.082-2.282 2.082h3.25c1.256 0 2.283.939 2.283 2.085 0 1.147-1.02 2.085-2.283 2.085Zm167.381-49.8L6.822 35.33C3.74 42.56 1.702 50.732.762 59.205h254.525a91.52 91.52 0 0 0 3.675-15.217c.758-4.98 1.061-9.796.758-14.281ZM52.11 48.132h-4.564c1.253 0 2.282.939 2.282 2.085 0 1.147-1.027 2.085-2.282 2.085H21.165c-1.253 0-2.283-.938-2.283-2.085 0-1.146 1.027-2.085 2.283-2.085h4.565c-1.253 0-2.283-.936-2.283-2.082 0-1.147 1.027-2.085 2.283-2.085h-3.262c-1.253 0-2.282-.939-2.282-2.085 0-1.147 1.027-2.085 2.282-2.085h26.383c1.256 0 2.283.938 2.283 2.085 0 1.146-1.025 2.085-2.283 2.085h3.26c1.253 0 2.282.938 2.282 2.085 0 1.146-1.03 2.082-2.282 2.082ZM151.798 175.5c9.483 0 17.171-1.731 17.171-3.866s-7.688-3.865-17.171-3.865c-9.484 0-17.171 1.73-17.171 3.865 0 2.135 7.687 3.866 17.171 3.866Zm39.899 10.96c17.109 0 30.978-1.141 30.978-2.549s-13.869-2.55-30.978-2.55c-17.108 0-30.977 1.142-30.977 2.55s13.869 2.549 30.977 2.549Zm-124.378-2.549c17.108 0 30.977-1.731 30.977-3.866s-13.869-3.865-30.977-3.865c-17.109 0-30.978 1.73-30.978 3.865 0 2.135 13.87 3.866 30.978 3.866Zm47.231-19.351c12.873 0 23.308-1.731 23.308-3.866 0-2.134-10.435-3.865-23.308-3.865s-23.309 1.731-23.309 3.865c0 2.135 10.436 3.866 23.309 3.866Z" fill="#F4ED0F"/><path d="M131.967 68.735c-.493-3.328-3.508-11.093-3.508-11.093a12.374 12.374 0 0 0-.178-.687c-2.138-7.37-5.099-8.01-5.099-8.01l-10.604-2.289a.823.823 0 0 1 .228.213 1.504 1.504 0 0 0-.167.025 4.171 4.171 0 0 1-.928-2.014 5.473 5.473 0 0 1-.053-.34 7.5 7.5 0 0 0 1.409-8.811 7.474 7.474 0 0 0-2.356-2.686c.5-.533.516-1.274.141-2.016-.835-1.74-2.652-2.84-4.519-3.378-1.427-.41-2.967-.542-4.387-.094-.806.256-1.541.687-2.296 1.069-1.408.705-2.967 1.263-4.02 2.424-.246.27-.474.615-.401.972.055.266.264.472.4.707.303.53.227 1.195.02 1.772-.208.577-.511 1.112-.655 1.703-.144.59-.09 1.286.353 1.71.213.164.434.316.662.457.243.207.455.447.633.712.42.564.838 1.131 1.255 1.7a17.519 17.519 0 0 1 1.573 2.396c.312.618.554 1.278.972 1.831.122.162.262.31.418.44l-.124-.048a1.906 1.906 0 0 0 1.395.57h.064a.386.386 0 0 0 .256-.106v.23c.025.816.02 1.686-.037 2.503l-.098-.05a.856.856 0 0 0-.913.096l-9.762 7.854s-2.123 2.911-1.826 7.937l-1.712 7.537s-2.139 6.394-.493 10.96c1.645 4.566 2.6 7.177 2.6 7.177s.657 5.189 1.645 5.612c.989.424 1.415.652 1.415.652l.197 1.24s.066.122.182.326c.72 1.254 3.383 5.68 4.93 5.206a19.9 19.9 0 0 1 .252 3.637l1.531 10.31s1.068 2.804 1.002 4.273c-.066 1.47 1.246 3.564 1.246 3.564a6.824 6.824 0 0 0-.657 4.794c.625 2.747 1.415 15.398 1.415 15.398l1.141 3.067-.032 3.596a3.434 3.434 0 0 1-.707 1.602c-.74.805-.685 1.737-2.468 2.838-1.782 1.1-2.912 1.517-2.912 2.975a3.73 3.73 0 0 1-.055.606c-.164 1.071-.484 1.653 2.794 1.964 3.851.366 6.418-2.151 6.418-2.151s.566-1.03 3.232-1.447c0 0 .913-.048.961-.856.018-.279.014-.812 0-1.4-.043-1.12-.15-2.426-.292-2.49-.178-.081-.488-1.207-.596-1.614h.742s.685-5.188 0-8.548c-.685-3.36-.066-5.742-.066-5.742l-.132-8.873s-.913-.98-.197-2.71c.717-1.73 0-10.276 0-10.276s.265-3.067 1.021-3.785c.755-.719.036-4.493 0-4.69l1.346 4.529s.591 9.004 1.844 10.633l.361 4.079s2.566 3.753 2.073 5.774c-.493 2.021.527 9.331.527 9.331v7.472s-1.153 3.001.456 4.079l.685-.028c-.228.213-.404.533-.671.81-.308.318-.484 1.529-.582 2.57-.082.882-.11 1.639-.11 1.639s.685 1.099 1.975 1.174c1.289.076 5.539 3.316 5.539 3.316s4.198 0 5.284-.228l.064-.016c.349-.11.642-.351.82-.671.217-.372.287-.812.196-1.234-.135-.643-.644-1.348-1.771-1.947-2.806-1.483-3.223-2.873-3.223-2.873l-1.842-2.771h.262s-.162-2.936 1.842-6.232l-.13-14.517s.822-4.991-.591-7.701c0 0-.116-2.87.829-3.751.944-.881-1.258-9.786-1.258-9.786s-.457-4.781-.993-9.144c2.221 2.113 4.524-5.492 4.912-6.845h.057l-.025-.098.025-.096s-.493-1.758-.132-1.401c.36.357 1.25-.98 1.25-.98s-.132-7.275 1.416-10.942c1.547-3.666-.688-12.596-.688-12.596Zm-6.619 4.63.012-.021c.228 4.442-.044 13.922-.044 13.922s-.305 1.215-.632 2.645l-.228-9.005-.228-8.484 1.12.943ZM97.02 70.302s1.119 14.027 0 16.05c-.317.577-.584 1.603-.805 2.772-.37-.972-1.153-3.256-.872-4.467.363-1.566-.724-5.678-.724-5.775 0-.096-.098-2.288.685-3.963.783-1.676.27-2.401.27-2.401s.657-2.747 1.447-2.216Z" fill="url(#b)"/><path d="M99.746 101.895c-.975 4.296-4.85-2.2-5.734-3.758a25.381 25.381 0 0 1-.178-.323l.42-1.975 2.221-.915a6.2 6.2 0 0 1 .995.65c1.217.959 3.027 2.993 2.276 6.321Zm30.067-7.028s0 .032-.025.096c0 .027-.018.064-.03.103-.381 1.34-2.641 8.891-4.823 6.795-2.387-2.289-1.228-7.58-1.228-7.58h.016l5.022-.515.995 1.025.073.076Z" fill="#D38884"/><path d="m126.907 132.023.128 14.418c-1.97 3.273-1.808 6.179-1.808 6.179l-6.491.257c-1.584-1.069-.456-4.047-.456-4.047v-7.424s-1.002-7.253-.519-9.262c.484-2.01-2.033-5.722-2.033-5.722l-.356-4.048c-1.228-1.618-1.81-10.556-1.81-10.556l-1.317-4.513c.036.195.721 3.962 0 4.655-.722.694-1.002 3.756-1.002 3.756s.71 8.486 0 10.2c-.71 1.715.191 2.69.191 2.69l.13 8.809s-.614 2.364.064 5.698c.678 3.335 0 8.487 0 8.487h-6.963l.032-3.596-1.128-3.044s-.776-12.564-1.39-15.286a6.84 6.84 0 0 1 .644-4.76s-1.29-2.071-1.226-3.529c.064-1.458-.995-4.239-.995-4.239L99.1 106.914a19.93 19.93 0 0 0-.744-5.829c-.872-2.916-2.164-6.738-2.164-6.738l1.459.13 7.358.657s17.893-1.206 18.694-.204c.169.328.283.682.337 1.046.804 3.619 1.865 14.954 1.865 14.954s2.164 8.841 1.235 9.716c-.929.874-.815 3.721-.815 3.721 1.393 2.689.582 7.656.582 7.656Z" fill="#4D26B9"/><path d="M111.781 157.067c-.05.804-.942.852-.942.852-2.616.412-3.173 1.432-3.173 1.432s-2.511 2.502-6.297 2.138c-3.219-.311-2.906-.886-2.74-1.95.033-.198.05-.399.053-.6 0-1.458 1.114-1.872 2.858-2.975s1.696-2.016 2.422-2.817c.725-.801.801-2.355.801-2.355.821-1.435 2.905.229 2.905.229.098.508 3.196.437 3.196.437s.411 1.652.623 1.748c.139.064.244 1.36.285 2.472.023.584.028 1.112.009 1.389Z" fill="#B07473"/><path opacity=".1" d="M111.781 157.067c-.05.803-.942.851-.942.851-2.616.412-3.173 1.433-3.173 1.433s-2.511 2.502-6.297 2.138c-3.219-.312-2.906-.886-2.74-1.95 1.439.357 4.187.856 5.791-.019 2.23-1.213 3.83-2.059 3.83-2.059l3.524-1.779c.021.579.026 1.108.007 1.385Z" fill="#571AFF"/><path d="M131.495 161.391c-.172.318-.46.556-.803.666l-.062.016c-1.066.228-5.186.228-5.186.228s-4.165-3.229-5.425-3.302c-1.26-.073-1.938-1.167-1.938-1.167s.025-.751.105-1.625c.098-1.035.269-2.236.573-2.552.557-.584.685-1.373 1.938-.874 0 0 1.789-3.163 3.898-.719l2.182 3.319s.411 1.373 3.175 2.863c1.105.595 1.598 1.295 1.737 1.934.088.414.019.846-.194 1.213Z" fill="#B07473"/><path opacity=".1" d="M131.495 161.39a62.64 62.64 0 0 1-.803.666l-.062.016c-1.066.229-5.186.229-5.186.229s-4.165-3.229-5.425-3.302c-1.26-.074-1.938-1.167-1.938-1.167s.025-.751.105-1.625c1.283.384 3.225 1.064 3.745 1.796.799 1.115 3.226 2.671 3.226 2.671s4.523-.437 6.532-.497c.088.415.019.847-.194 1.213Z" fill="#571AFF"/><path d="m113.89 48.38-5.957 6.314s-7.219-.533-5.959-2.67c.641-1.09.741-3.37.684-5.352-.052-1.91-.249-3.538-.249-3.538s10.126-5.053 9.359-.34a7.76 7.76 0 0 0-.028 2.688c.432 2.38 2.15 2.898 2.15 2.898Z" fill="#D38884"/><path opacity=".1" d="M111.759 42.793a7.76 7.76 0 0 0-.028 2.69 7.426 7.426 0 0 1-5.3 2.217c-1.369 0-2.851-1.128-3.958-1.78-.052-1.914-.063-2.786-.063-2.786s10.125-5.053 9.349-.34Z" fill="#571AFF"/><path d="M113.89 39.83a7.495 7.495 0 0 1-1.626 4.665 7.444 7.444 0 0 1-9.072 2.078 7.472 7.472 0 0 1-3.485-3.495 7.5 7.5 0 0 1 2.071-9.096 7.448 7.448 0 0 1 11.373 2.604 7.493 7.493 0 0 1 .739 3.243Z" fill="#D38884"/><path opacity=".1" d="M124.041 95.976c-1.858 4.433-13.809 4.525-13.809 4.525v-4.834l-.724-.048c.313 1.385-.438 4.761-.438 4.761-9.445 1.336-11.748-4.06-11.748-4.06l.329-1.847 7.358.657s17.893-1.206 18.694-.204c.169.329.283.684.338 1.05Z" fill="#571AFF"/><path d="M110.232 99.917v-4.833l-.724-.046c.313 1.373-.438 4.76-.438 4.76-7.108 1.005-10.17-1.8-11.25-3.252a4.428 4.428 0 0 1-.498-.805l2.885-16.273.685-23.948 1.034-4.202.239-2.016v-.023h.025l.735.316 4.399 1.906 4.996-3.783.073-.053.249-.19.413.332 1.027.827 3.294 21.327s5.706 16.421 6.774 23.05c.043.265.078.512.105.743.705 6.051-14.023 6.163-14.023 6.163Z" fill="#F4ED0F"/><path d="M107.858 52.399a.425.425 0 1 0-.002-.85.425.425 0 0 0 .002.85Zm.196 3.886a.425.425 0 1 0 0-.85.425.425 0 0 0 0 .85Zm.425 6.291a.425.425 0 1 0-.002-.85.425.425 0 0 0 .002.85Zm.7 6.777a.425.425 0 1 0 0-.85.425.425 0 0 0 0 .85Zm.425 6.362a.425.425 0 1 0-.002-.85.425.425 0 0 0 .002.85Zm.424 6.777a.425.425 0 1 0 0-.85.425.425 0 0 0 0 .85Zm-.169 6.703a.425.425 0 1 0 0-.85.425.425 0 0 0 0 .85Z" fill="#571AFF"/><path opacity=".1" d="M102.448 81.835s-.474 6.232-1.346 8.045c-.872 1.812-1.26 6.898-1.26 6.898l-2.025-.23a4.426 4.426 0 0 1-.497-.805l2.885-16.272.684-23.949 1.037-4.204.239-2.016.028-.011a.815.815 0 0 1 .721.01l.096.051a4.577 4.577 0 0 0-.082.254c-.79 2.479-1.085 7.047-1.085 7.047s1.142 8.356 1.26 12.242c.119 3.886-.655 12.94-.655 12.94Z" fill="#571AFF"/><path opacity=".1" d="M97.47 95.58a1.17 1.17 0 0 1-.077.152c-.785 1.33-2.776 2.174-3.38 2.405-.115-.204-.179-.323-.179-.323l.42-1.975 2.221-.915a6.2 6.2 0 0 1 .995.656Z" fill="#571AFF"/><path d="m92.09 63.778-1.841 1.1-1.678 7.482s-2.1 6.346-.486 10.88c1.613 4.534 2.552 7.13 2.552 7.13s.645 5.149 1.615 5.57c.97.42 1.388.648 1.388.648l.194 1.23s2.63-.894 3.559-2.471c.929-1.577-.685-5.493-.685-5.493s-1.388-3.337-1.032-4.89c.356-1.555-.712-5.635-.712-5.722 0-.087-.096-2.268.685-3.937.78-1.668.26-2.38.26-2.38l-.486-4.76-3.332-4.388Z" fill="#571AFF"/><path opacity=".1" d="M124.193 94.576s-4.877 1.845-6.427.229c-1.55-1.616-1.39-9.198-1.39-9.198s-1.484-13.99-2.422-16.288c-.938-2.298-.456-18.882-.456-18.882s-.63-2.144-1.18-2.705a.599.599 0 0 0-.117-.094l.19.041.662.142 1.027.827 3.293 21.327s5.707 16.421 6.775 23.05l.045 1.55Z" fill="#571AFF"/><path opacity=".1" d="M129.813 95.061h-.055c-.614.08-6.032.737-6.055-.394-.001-.13.006-.26.02-.39l5.022-.516.995 1.026c.018.066.032.123.046.169l.027.105Z" fill="#571AFF"/><path d="m124.613 56.285 3.561 1.863s2.967 7.703 3.442 11.006c0 0 2.198 8.848.685 12.487-1.513 3.639-1.388 10.861-1.388 10.861s-.872 1.328-1.228.973c-.356-.355.13 1.392.13 1.392s-6.087.81-6.112-.39c-.025-1.199 1.397-6.93 1.397-6.93s.388-13.633-.162-15.77c-.551-2.138-.325-15.492-.325-15.492Z" fill="#571AFF"/><path opacity=".1" d="M113.988 70.806s-2.004 4.92-2.649 5.246c-.646.325.13 1.618.13 1.618s3.649-5.115 2.519-6.864Zm-1.196-17.261c.023-.094-2.389 2.373-3.035 2.746-.646.373 2.357-.022 3.035-2.746Zm-6.717 16.872s-3.682 2.387-3.195 3.332c.486.946 3.195-3.332 3.195-3.332Zm6.685 34.844s3.134 2.021 8.01 2.518l-8.01-2.518Zm-7.525 4.859s2.906 3.662 4.232 3.756c1.326.094-4.232-3.756-4.232-3.756Zm4.07 14.35c-.13.064-1.648 3.303-3.196 3.401-1.547.099 3.196-3.401 3.196-3.401Zm13.466 7.095s2.881-.648 3.522 1.423c0-.006-.194-.654-3.522-1.423Zm-1.937 11.846s3.49-.714 4.231.258c.742.973-4.231-.258-4.231-.258Zm-9.872 1.657c0 .032-3.552.714-3.424 1.167.128.453 3.789.389 3.919-.325a.702.702 0 0 0 .017-.27.7.7 0 0 0-.269-.456.666.666 0 0 0-.243-.116Zm8.71 3.071s5.836-.714 5.478.517c-.359 1.232-5.478-.517-5.478-.517ZM89.119 76.051c.032.096 3.843.616 4.36 1.847 0 0-3.746-1.75-4.338-1.75m5.339 9.909s-3.166 1.005-2.94 2.518c.226 1.513-.322-.7 2.94-2.518Zm-1.474 7.709s1.152-1.586 2.25-1.296c1.098.291-2.25 1.296-2.25 1.296Zm18.077-59.782a1.787 1.787 0 0 1-.37.277c-.913.533-1.164 1.355-1.598 2.302-.404.868-.849 1.785-1.663 2.277-1.053.637-2.438.403-3.531.957a2.744 2.744 0 0 0-1.461 2.708c.069.42.173.836.31 1.24a8.85 8.85 0 0 1 .333 2.694.358.358 0 0 1 0 .08 7.461 7.461 0 0 1-2.426-1.94 7.491 7.491 0 0 1 1.653-10.994 7.45 7.45 0 0 1 5.988-.995 7.45 7.45 0 0 1 2.774 1.394h-.009Z" fill="#571AFF"/><path d="M110.889 31.732c-.82-1.726-2.602-2.82-4.435-3.353-1.399-.405-2.919-.538-4.307-.091-.792.252-1.511.686-2.253 1.06-1.383.7-2.903 1.254-3.944 2.405-.244.267-.456.61-.395.965.053.264.258.458.39.7.3.527.229 1.189.021 1.76-.208.573-.502 1.104-.644 1.692-.141.588-.086 1.277.347 1.696.194.185.443.302.653.458.237.205.445.443.619.705l1.232 1.689a17.142 17.142 0 0 1 1.543 2.377c.306.614.543 1.268.954 1.815.411.547 1.05.987 1.73.927a.336.336 0 0 0 .274-.13.351.351 0 0 0 .034-.172 8.788 8.788 0 0 0-.326-2.684 7.783 7.783 0 0 1-.31-1.24 2.761 2.761 0 0 1 1.46-2.708c1.096-.554 2.482-.32 3.531-.955.818-.494 1.263-1.412 1.664-2.288.441-.948.685-1.77 1.598-2.303.913-.533 1.018-1.416.564-2.325Z" fill="#000A2C"/><path opacity=".1" d="M107.547 154.007s1.142 1.458.845 2.289c-.297.831-.845-2.289-.845-2.289Zm15.441 3.648s.254-1.954 1.269-1.973c1.016-.018 1.066-.105 1.842.195s1.504.764 1.272.833c-.233.069-1.336-1.117-2.468-.51a8.153 8.153 0 0 0-1.915 1.455ZM104.142 53.953l3.195-2.246s-4.674-2.769-5.231-2.38c-.557.39-.94 3.89-.94 3.89l2.976.736Z" fill="#571AFF"/><path d="m104.128 53.808 3.196-2.288s-4.675-2.77-5.232-2.38c-.557.388-.94 4.082-.94 4.082l2.976.586Z" fill="#E1E7EF"/><path d="m104.128 53.808 3.196-2.288s-4.675-2.77-5.232-2.38c-.557.388-.94 4.082-.94 4.082l2.976.586Z" fill="#F4ED0F"/><path d="m102.622 49.158-.096-.048a.827.827 0 0 0-.897.093l-9.587 7.798s-2.083 2.89-1.793 7.877l5.653 8.031s.646-2.719 1.42-2.202c0 0 1.098 13.927 0 15.934-1.098 2.007-1.582 9.52-1.582 9.52l3.714.422s.388-5.085 1.26-6.898c.872-1.813 1.346-8.045 1.346-8.045s.785-9.053.655-12.94c-.13-3.886-1.26-12.242-1.26-12.242s.318-4.897 1.167-7.3Z" fill="#571AFF"/><path opacity=".1" d="m112.172 52.534-3.983-1.479s5.071-5.57 5.706-2.48l-1.723 3.959Z" fill="#571AFF"/><path d="m112.172 52.339-3.983-1.479s5.071-5.57 5.706-2.48l-1.723 3.959Z" fill="#E1E7EF"/><path d="m112.172 52.339-3.983-1.479s5.071-5.57 5.706-2.48l-1.723 3.959Z" fill="#F4ED0F"/><path opacity=".1" d="M112.042 47.6a.227.227 0 0 1 .164.036l-.164-.037Z" fill="#571AFF"/><path d="m112.425 47.212 10.568 2.289s2.908.648 5.008 7.967-2.876 16.286-2.876 16.286l-1.098-.936.55 21.373s-4.878 1.845-6.428.23c-1.549-1.617-1.387-9.206-1.387-9.206s-1.486-13.988-2.424-16.288c-.938-2.3-.457-18.879-.457-18.879s-.863-2.964-1.456-2.836Z" fill="#571AFF"/><path opacity=".1" d="M122.094 60.832c-.149.137-.322 6.605.324 11.528a62.965 62.965 0 0 0 1.826 8.873l-.959-19.721s-.74-1.101-1.191-.68Zm-1.292-5.57c.258.162 1.39 2.849.872 3.95-.519 1.1-.872-3.95-.872-3.95Zm-9.975-23.53a5.847 5.847 0 0 0-2.323-2.44 5.533 5.533 0 0 1 1.741 2.06c.457.915.322 1.83-.566 2.332-.888.501-1.164 1.355-1.598 2.303-.404.867-.849 1.785-1.666 2.288-1.05.636-2.435.4-3.531.955a2.765 2.765 0 0 0-1.461 2.71c.071.42.175.834.313 1.237a8.85 8.85 0 0 1 .333 2.694.363.363 0 0 1-.036.172.333.333 0 0 1-.272.13 1.567 1.567 0 0 1-.796-.148 1.842 1.842 0 0 0 1.369.537.27.27 0 0 0 .294-.179.284.284 0 0 0 .012-.123 8.787 8.787 0 0 0-.331-2.694 7.566 7.566 0 0 1-.313-1.24 2.754 2.754 0 0 1 1.461-2.707c1.096-.554 2.481-.32 3.531-.955.817-.494 1.262-1.412 1.664-2.288.441-.948.685-1.77 1.598-2.303.913-.533 1.034-1.432.577-2.341Z" fill="#571AFF"/><path d="M175.848 60.473c-3.145-.062-5.921-2.289-7.493-5.01a5.035 5.035 0 0 1-.758-2.145 2.47 2.47 0 0 1 .087-.512c.096-.255.172-.518.228-.785a1.43 1.43 0 0 0 0-.32v-.019c.075-.579-.265-1.144-.685-1.54-.42-.396-.947-.687-1.385-1.08-1.352-1.19-1.762-3.1-1.788-4.916v-.096c.016-.779.078-1.559.071-2.337a9.741 9.741 0 0 0-.057-1.323c-.13-1.1-.548-2.222-1.41-2.925-2.251-1.83-6.035.076-8.366-1.655-.566-.423-1.025-1.048-1.712-1.213-.518-.125-1.056.044-1.563.213-1.716.568-3.631 1.314-4.303 2.975-.383.955-.276 2.044-.627 3.01-.228.648-.664 1.204-.982 1.817-.26.462-.387.988-.365 1.518-.028.274.01.551.112.807.119.31.311.585.559.804-.089.19-.201.37-.333.535-.438.538-1.112.916-1.568 1.451-.845.982-.813 2.317-.397 3.47.415 1.153 1.166 2.204 1.684 3.328.228.487.402 1.032.171 1.517-.162.336-.497.593-.757.883a2.78 2.78 0 0 0-.685 1.534c-5.138 1.176-5.143 5.316-5.143 5.316l-2.775 6.999s-.445 1.179-.968 2.735l-3.284-.59 2.282 3.83c-.431 1.562-.737 3.008-.637 3.736 0 0-1.02 4.806.795 5.646l4.003 1.805c.174.107.36.191.555.25l.162.073a.425.425 0 0 0 .374 0h.055a.537.537 0 0 0 .228-.034.458.458 0 0 0 .201-.218.088.088 0 0 1 0-.022l1.198-.348 1.016 1.206c.457.322.913.602 1.344.853l-1.572 15.659s-.254 20.827-1.02 25.574c-.284 1.757-.286 2.957-.179 3.771l-.029.051c.189 1.339.685 1.602.685 1.602v-.019a.132.132 0 0 0 .029.019c.231-.608.506-1.199.822-1.767v.343c-.016 1.767-.071 4.241-.253 5.85-.311 2.746.794 11.798.794 11.798l.381 8.239a7.632 7.632 0 0 1-.936 4.014c-.913 1.646-2.079 3.962-2.164 4.99a1.164 1.164 0 0 0 0 .167l-1.958 2.361s-.765 1.186.963 1.664c.929.259 2.532 0 3.819-.304a2.556 2.556 0 0 0 1.979-2.49 8.806 8.806 0 0 1 1.616-3.11l.322 1.897 2.154.535.276-5.199c.112-.292.162-.604.149-.916.424-3.698-1-3.366-1-3.366a.199.199 0 0 1 .069.128l-.069-.126c-.874-1.73-.456-4.577-.456-4.577s1.141-8.24 1.531-10.416c.281-1.538.164-6.573.071-9.383 0-.117 0-.229-.012-.341 3.342-.044 7.437-.156 10.31-.435v.338l-.529 19.465a10.724 10.724 0 0 1-.744 3.621c0 .023-.016.043-.025.066a15.845 15.845 0 0 0-1.053 5.102l-.246 6.179v.172c-.429.164-1.107.643-1.125 2.03-.03 2.032 3.542 1.355 3.542 1.355 3.57 0 3.6-3.726 3.6-3.726s.111-3.417.283-5.704c.171-2.286-.539-1.782-.539-1.782l-.055 6.504v.05-5.701l.055-.826v-.199l.45-6.708s3.289-11.178 3.798-13.322c.362-1.525.212-6.116.093-8.654 0-.116 0-.229-.018-.336a26.424 26.424 0 0 1 2.282-.101h.167s-.169-17.952-.596-24.717c-.427-6.765-1.104-12.956-2.805-14.82-1.027-1.125-2.458-4.601-3.424-7.176 2.03.88 4.137 1.57 6.293 2.06 5.385 1.13 4.647-3.557 4.647-3.557l-.545-8.864h.036a45.323 45.323 0 0 0-.593-6.93c-.285-1.758-.721-3.575-1.388-5.035a41.833 41.833 0 0 0 1.728-.725c1.463-.648 3.111-1.566 3.321-3.147h-.071c.028-.114.047-.23.055-.348Zm-33.377 12.816c.012.916-.022 2.504-.077 4.26l-1.71-2.29 1.714-2.787.073.817ZM166.09 81.4l-2.848-.915a12.786 12.786 0 0 1 1.76-2.184l.246-.228-.089.018.137-.126.082-.018-.13.126.155-.033a4.88 4.88 0 0 0 .97 1.957c1.023 1.12-.28 1.403-.28 1.403h-.003Z" fill="url(#c)"/><path d="m148.787 163.789-.333 6.335-2.125-.533-.448-2.635 2.906-3.167Z" fill="#A27772"/><path opacity=".1" d="m148.787 163.789-.333 6.335-2.125-.533-.448-2.635 2.906-3.167Z" fill="#571AFF"/><path d="m156.586 170.964 3.241.673 2.404-2.129v-5.998l.055-.82v-.199l.447-6.666s3.243-11.098 3.748-13.229c.356-1.51.208-6.069.089-8.589-.048-1.032-.089-1.723-.089-1.723l-7.156-1.738-.15 5.516-.523 19.325a10.726 10.726 0 0 1-.733 3.596l-.025.066a15.762 15.762 0 0 0-1.038 5.063l-.242 6.145v.169l-.028.538Z" fill="#CC818C"/><path opacity=".1" d="m156.586 170.964 3.241.673 2.404-2.129v-.51a.692.692 0 0 1-.345.549l-.034.021a6.453 6.453 0 0 1-3.638.721l-1.265-.108a1.208 1.208 0 0 0-.335.082v.17l-.028.531Z" fill="#571AFF"/><path d="m161.852 169.735.034-.018a.681.681 0 0 0 .349-.595l.053-6.457s.698-.501.529 1.769c-.169 2.271-.278 5.663-.278 5.663s-.028 3.698-3.549 3.698c0 0-3.522.673-3.495-1.346.028-2.018 1.454-2.101 1.454-2.101l1.265.11a6.43 6.43 0 0 0 3.638-.723Z" fill="#B07473"/><path d="M139.705 169.591c.082 1.457 4.36.615 4.36.615l2.878-5.602s2.403-1.852 1.2-3.477a2.485 2.485 0 0 1-.175-.277l-.012-.014a1.45 1.45 0 0 1-.07-.13c-.863-1.716-.439-4.531-.439-4.531s1.116-8.185 1.509-10.343c.276-1.524.162-6.525.071-9.322-.037-1.162-.071-1.943-.071-1.943l-7.101-1.906v2.124c-.016 1.755-.071 4.211-.251 5.808-.306 2.717.783 11.714.783 11.714l.377 8.186a7.609 7.609 0 0 1-.913 3.985c-.891 1.634-2.055 3.936-2.134 4.955a1.04 1.04 0 0 0-.012.158Z" fill="#CC818C"/><path opacity=".1" d="M139.705 169.591c.082 1.457 4.36.615 4.36.615l2.878-5.602s2.403-1.852 1.2-3.477a2.485 2.485 0 0 1-.175-.277c-.039.849-.968 2.975-.968 2.975s-2.376 4.768-3.132 5.859c-.755 1.092-4.037-.203-4.161-.249a1.16 1.16 0 0 0-.002.156Z" fill="#571AFF"/><path d="M147.885 160.699s1.406-.327.987 3.344a2.369 2.369 0 0 1-1.112 2.099c-1.007.634-2.559 1.998-3.344 4.65a2.53 2.53 0 0 1-1.951 2.472c-1.269.297-2.851.558-3.766.302-1.705-.476-.95-1.652-.95-1.652l1.956-2.328s3.41 1.346 4.163.252c.754-1.094 3.132-5.857 3.132-5.857s1.303-2.973.885-3.282Z" fill="#B07473"/><path opacity=".1" d="m159.325 131.226-.15 5.516c1.905-.186 3.27-.444 3.503-.808.505-.783 2.335-1.112 3.892-1.247a149.017 149.017 0 0 0-.089-1.724l-7.156-1.737Zm-17.47 4.229c.182-.373.451-.698.783-.947.753-.419.671 2.691.671 2.691s2.511.023 5.718-.018a185.096 185.096 0 0 0-.071-1.945l-7.101-1.905s.014.884 0 2.124Z" fill="#571AFF"/><path d="M141.045 136.192s.84-2.288 1.598-2.696c.757-.407.671 2.689.671 2.689s18.447.17 19.369-1.261c.922-1.43 6.288-1.345 6.288-1.345s-.167-17.824-.587-24.548c-.42-6.724-1.088-12.865-2.766-14.714-1.084-1.197-2.627-5.07-3.581-7.65-.518-1.41-.863-2.438-.863-2.438l-17.607 1.007-.144 1.43-1.869 18.749s-.251 20.682-1.007 25.39c-.755 4.707.498 5.387.498 5.387Z" fill="#4D26B9"/><path opacity=".1" d="M161.249 134.924c.913-1.428 6.289-1.345 6.289-1.345s-.167-17.824-.587-24.548c-.42-6.724-1.089-12.865-2.766-14.714-1.089-1.201-2.628-5.07-3.582-7.65a92.677 92.677 0 0 1-.835-2.36l1.369-.078s.345 1.027.866 2.437c.954 2.582 2.494 6.454 3.578 7.651 1.678 1.85 2.349 7.987 2.767 14.714.418 6.726.589 24.548.589 24.548s-5.366-.083-6.291 1.345c-.787 1.22-14.361 1.277-18.301 1.266 5.056-.011 16.192-.163 16.904-1.266Zm-20.04-1.428c.34-.19.509.337.594.975-.305.554-.57 1.129-.792 1.721 0 0-.486-.263-.685-1.602.278-.478.587-.929.883-1.094Z" fill="#571AFF"/><path d="M146.486 41.104c-1.219 1.666.014 4.035-1.294 5.655-.431.536-1.095.916-1.545 1.442-.833.975-.801 2.3-.393 3.444.409 1.145 1.142 2.188 1.662 3.305.228.483.397 1.025.169 1.506-.16.334-.491.588-.749.877-.84.94-.863 2.247-.411 3.355.452 1.107 1.315 2.06 2.166 2.998.336.368.761.776 1.32.764a1.82 1.82 0 0 0 .828-.272 8.46 8.46 0 0 0 4.133-4.753 8.491 8.491 0 0 0-.289-6.299c-.708-1.7-1.888-3.33-1.899-5.126 0-1.426.73-2.788.86-4.207.158-1.726-.86-4.465-2.937-5.218.137 1.108-1.002 1.673-1.621 2.529Z" fill="#4D26B9"/><path opacity=".1" d="M146.486 41.104c-1.219 1.666.014 4.035-1.294 5.655-.431.536-1.095.916-1.545 1.442-.833.975-.801 2.3-.393 3.444.409 1.145 1.142 2.188 1.662 3.305.228.483.397 1.025.169 1.506-.16.334-.491.588-.749.877-.84.94-.863 2.247-.411 3.355.452 1.107 1.315 2.06 2.166 2.998.336.368.761.776 1.32.764a1.82 1.82 0 0 0 .828-.272 8.46 8.46 0 0 0 4.133-4.753 8.491 8.491 0 0 0-.289-6.299c-.708-1.7-1.888-3.33-1.899-5.126 0-1.426.73-2.788.86-4.207.158-1.726-.86-4.465-2.937-5.218.137 1.108-1.002 1.673-1.621 2.529Zm13.517 60.606c-2.44.128-4.736 1.181-6.872 2.371-2.137 1.19-4.205 2.538-6.503 3.382m11.86.011a10.048 10.048 0 0 0-6.334 3.09c-.594.629-1.105 1.334-1.724 1.938a7.638 7.638 0 0 1-3.396 1.93m11.953-2.57a11.076 11.076 0 0 0-5.094 3.08c-.374.405-.715.838-1.089 1.243-2.02 2.174-4.873 3.328-7.628 4.42" fill="#571AFF"/><path d="M158.78 51.019a50.3 50.3 0 0 0 .502 5.84c.228 1.373.548 2.61 1.006 3.156 1.343 1.602-6.539 3.742-6.539 3.742l-4.654-3.616s3.689-3.405 1.97-6.726 7.715-2.396 7.715-2.396Z" fill="#BE707B"/><path opacity=".1" d="M143.419 86.666h18.613c-.518-1.41-.863-2.437-.863-2.437l-17.607 1.007-.143 1.43Z" fill="#571AFF"/><path d="M142.22 86.33h19.901c-.559-2.007 0-3.864.797-5.292.558-1 1.26-1.914 2.084-2.71l.137-.125 6.948-1.543.374-.082s.057-12.668-4.417-14.407c-4.473-1.74-7.155-4.09-7.155-4.09l-6.147 1.904-4.528-2.289c-1.454 1.568-5.312.953-5.312.953-6.315.727-6.315 5.492-6.315 5.492s3.688 8.63 3.969 8.63c.281 0-.336 13.559-.336 13.559Z" fill="#F4ED0F"/><path opacity=".1" d="M149.091 78.276s-4.059-.902-5.44-2.479l5.44 2.479Zm20.462-4.726-4.706 3.868c.034.308.085.613.155.915l.137-.126 6.948-1.542-2.534-3.115ZM156.81 84.984s1.029.582 2.607 1.346h2.704c-.559-2.007 0-3.863.797-5.291l-4.768-1.548c1.623 1.513-1.34 5.493-1.34 5.493Z" fill="#571AFF"/><path d="m141.38 62.622-2.793 1.512-2.739 6.951s-2.851 7.621-2.573 9.64c0 0-1.004 4.765.783 5.605l4.656 2.114a.434.434 0 0 0 .56-.6c-.665-1.26-1.395-3.233-.229-4.318l-1.342-2.801 4.851-7.96 1.62-2.746-2.794-7.397Z" fill="#F4ED0F"/><path opacity=".1" d="M147.596 76.685c.242.989 1.059 2.518 3.763 3.088l2.968 2.437 3.156 1.435 1.288.584.545-3.953-1.239-.686-1.445-.792s-3.259-5.921-8.42-3.433a1.14 1.14 0 0 0-.616 1.32Z" fill="#571AFF"/><path d="M147.764 76.349c.242.99 1.057 2.517 3.762 3.087l2.967 2.438 3.159 1.435 1.285.583.546-3.952-1.24-.687-1.433-.785s-3.262-5.92-8.422-3.421a1.143 1.143 0 0 0-.624 1.302Z" fill="#BE707B"/><path opacity=".1" d="M153.58 56.145c3.982 0 7.211-3.237 7.211-7.23 0-3.993-3.229-7.23-7.211-7.23s-7.21 3.237-7.21 7.23c0 3.993 3.228 7.23 7.21 7.23Z" fill="#571AFF"/><path d="M153.58 55.978c3.982 0 7.211-3.237 7.211-7.23 0-3.993-3.229-7.23-7.211-7.23s-7.21 3.237-7.21 7.23c0 3.993 3.228 7.23 7.21 7.23Z" fill="#BE707B"/><path opacity=".1" d="m158.047 64.197-2.168-4.225s3.172-1.287 3.403-2.776c.23-1.49 3.04 1.746 2.433 2.82-.607 1.073-3.668 4.18-3.668 4.18Z" fill="#571AFF"/><path d="m158.047 63.86-2.168-4.225s3.172-1.286 3.403-2.776c.23-1.49 3.04 1.749 2.433 2.82-.607 1.07-3.668 4.181-3.668 4.181Z" fill="#F4ED0F"/><path d="m140.301 74.775 11.98 16.15s-4.416 2.41-10.499-1.904l-2.627-3.14-7.5-12.676 8.646 1.57Z" fill="#F6F8FB"/><path d="m137.943 83.556 1.091-.03s6.665-6.486 8.301-3.204c1.637 3.282-4.151 6.349-4.151 6.349l-1.76.952-2.294.686-1.468-1.975.281-2.778Z" fill="#BE707B"/><path opacity=".1" d="M139.552 87.06c.101.373.196.785.028 1.13a.462.462 0 0 1-.199.218.508.508 0 0 1-.228.032 2.288 2.288 0 0 1-1.504-.746 6.883 6.883 0 0 1-.975-1.415c-.297-.52-.605-1.093-.5-1.684.119-.643.685-1.09 1.239-1.451 1.105-.732 1.142.121 1.384 1.064.242.943.502 1.9.755 2.852Z" fill="#571AFF"/><path d="M139.386 87.06c.098.373.196.785.027 1.13a.457.457 0 0 1-.199.218.509.509 0 0 1-.228.032 2.28 2.28 0 0 1-1.504-.746 6.821 6.821 0 0 1-.977-1.415c-.297-.52-.605-1.093-.497-1.684.116-.643.684-1.09 1.237-1.451 1.107-.732 1.141.121 1.385 1.064.244.943.5 1.9.756 2.852Z" fill="#F4ED0F"/><path opacity=".1" d="m142.556 72.765.557-.945-.486 1.755-.071-.81Zm15.105 10.544 1.285.583.546-3.952-1.24-.687c.856.984.108 2.804-.591 4.056Zm5.159-4.589s-4.15.254-5.912-.881l5.912.881Z" fill="#571AFF"/><path opacity=".1" d="M162.304 81.375a11.682 11.682 0 0 1 2.084-2.712 5.45 5.45 0 0 1 .614-.334l6.468-1.332.375-.083s.057-12.667-4.415-14.407a26.853 26.853 0 0 1-6.975-3.938l.491-.152s2.682 2.353 7.155 4.09c4.474 1.737 4.415 14.407 4.415 14.407h-.671l-6.62 1.27s-.285.277-.372.358a12.868 12.868 0 0 0-2.116 2.805 7.054 7.054 0 0 0-.554 5.32h-.685c-.552-2.008.018-3.864.806-5.292Zm-17.667-22.36c.108-.016.21-.032.322-.044.454.065.911.102 1.37.113a12.42 12.42 0 0 1-1.692-.07Zm9.489 1.307-4.095-2.079c.081-.066.157-.139.228-.217l4.273 2.167-.406.129Z" fill="#571AFF"/><path d="m169.715 73.205 2.739 3.364.559 9.136s.726 4.65-4.583 3.53c-5.309-1.122-11.453-4.587-11.453-4.587s2.967-3.98 1.342-5.493l7.603 2.467s1.285-.281.278-1.4c-1.007-1.12-1.185-3.14-1.185-3.14l4.7-3.877Z" fill="#F4ED0F"/><path opacity=".1" d="m170.952 82.856 1.509 1.737a2.178 2.178 0 0 1-1.509-1.737Zm-2.572-.282 2.348 3.026-1.173.281-1.175-3.307ZM144.968 45.43c-.258-.634-.059-1.373.251-1.97.311-.598.738-1.163.971-1.807.344-.956.239-2.039.616-2.975.664-1.66 2.552-2.4 4.243-2.975.5-.167 1.032-.334 1.543-.21.685.162 1.13.784 1.689 1.203 2.296 1.717 6.03-.174 8.251 1.644.849.686 1.262 1.81 1.39 2.901.128 1.092 0 2.2-.014 3.3-.036 1.928.324 4.036 1.762 5.313.434.384.945.672 1.37 1.07.424.399.758.955.685 1.532a5.393 5.393 0 0 1-.229.778c-.285 1.005.142 2.06.662 2.975 1.552 2.694 4.289 4.914 7.391 4.976-.208 1.57-1.826 2.48-3.275 3.124-1.826.821-3.771 1.627-5.782 1.524-2.011-.103-4.108-1.394-4.46-3.38-.121-.687-.105-1.513-.685-1.87-.356-.218-.817-.163-1.2-.325-.555-.23-.829-.854-1.011-1.428a12.894 12.894 0 0 1-.596-3.662c-.025-1.474.169-3.083-.664-4.296-.772-1.124-2.141-1.694-3.031-2.726-.822-.956-1.714-2.11-3.061-2.288-1.863-.264-5.715 2.275-6.816-.428Z" fill="#571AFF"/><path d="M144.968 45.093c-.258-.634-.059-1.373.251-1.97.311-.598.738-1.163.971-1.806.344-.957.239-2.04.616-2.975.664-1.662 2.552-2.404 4.243-2.976.5-.167 1.032-.334 1.543-.21.685.162 1.13.785 1.689 1.204 2.296 1.716 6.03-.174 8.251 1.643.849.687 1.262 1.81 1.39 2.904.128 1.094 0 2.197-.014 3.298-.036 1.927.324 4.035 1.762 5.312.434.384.945.673 1.37 1.071.424.398.758.954.685 1.531a5.395 5.395 0 0 1-.229.778c-.285 1.005.142 2.06.662 2.976 1.557 2.684 4.282 4.911 7.384 4.973-.208 1.57-1.826 2.48-3.275 3.126-1.826.82-3.771 1.625-5.782 1.522-2.011-.103-4.108-1.394-4.46-3.38-.121-.687-.105-1.513-.684-1.87-.356-.218-.818-.163-1.201-.325-.555-.229-.829-.854-1.011-1.428a12.893 12.893 0 0 1-.596-3.662c-.025-1.474.169-3.083-.664-4.296-.772-1.123-2.141-1.693-3.031-2.726-.822-.956-1.714-2.11-3.061-2.288-1.856-.261-5.708 2.282-6.809-.426Z" fill="#4D26B9"/><path opacity=".1" d="m150.086 63.672 4.133-3.364s-2.83-1.538-3.168-2.85c-.338-1.31-2.602.623-2.371 1.8.23 1.176 1.406 4.414 1.406 4.414Z" fill="#571AFF"/><path d="m150.248 63.166 4.133-3.362s-2.83-1.538-3.154-2.849c-.324-1.311-2.602.623-2.372 1.799.231 1.176 1.393 4.412 1.393 4.412Z" fill="#F4ED0F"/><path opacity=".1" d="M154.543 62.949a.33.33 0 1 0 0-.658.33.33 0 0 0 0 .658Zm0 1.831a.33.33 0 1 0 0-.658.33.33 0 0 0 0 .658Zm0 1.829a.33.33 0 1 0 0-.658.33.33 0 0 0 0 .658ZM146.637 40.42c.326-.9.256-1.91.561-2.815a3.14 3.14 0 0 0-.349.645c-.379.945-.271 2.028-.618 2.975l-.023.055c.169-.273.313-.56.429-.86Zm26.077 22.655c-1.826.82-3.77 1.625-5.781 1.522-2.011-.103-4.109-1.394-4.46-3.378-.121-.687-.105-1.515-.685-1.872-.356-.218-.817-.163-1.201-.325-.554-.23-.828-.854-1.011-1.428a12.857 12.857 0 0 1-.595-3.662c-.026-1.472.171-3.08-.662-4.296-.774-1.124-2.144-1.691-3.034-2.726-.821-.954-1.714-2.11-3.061-2.288-1.846-.252-5.706 2.288-6.797-.417a2.133 2.133 0 0 1 .071-1.563c-.08.135-.157.27-.228.407-.311.61-.507 1.34-.249 1.973 1.098 2.7 4.951.163 6.797.417 1.347.183 2.239 1.339 3.061 2.288.89 1.035 2.26 1.602 3.031 2.728.835 1.213.639 2.822.664 4.294a12.9 12.9 0 0 0 .596 3.662c.183.576.456 1.194 1.011 1.428.384.162.845.11 1.201.325.589.357.573 1.192.684 1.872.357 1.984 2.452 3.275 4.46 3.378 2.009.103 3.945-.7 5.782-1.522 1.324-.59 2.798-1.408 3.195-2.746-.634.87-1.757 1.469-2.789 1.929Z" fill="#571AFF"/><path d="M213.052 75.992c-4.832-2.787-6.658-3.474-6.667-3.474l-.1-.071a4.03 4.03 0 0 1-1.217-1.543 3.674 3.674 0 0 1 0-.3c.076-1.475 1.123-2.819 2.116-3.99l2.541-2.997c.288-.296.511-.65.655-1.039a2.4 2.4 0 0 0 .068-.638v-.261c-.014-.744-.034-1.49-.062-2.234-.022-.65-.189-1.469-.837-1.602-.338-.068-.785.053-.963-.229a.557.557 0 0 1-.044-.386.171.171 0 0 0 0 .032v-.037a8.615 8.615 0 0 0 .24-1.531 2.106 2.106 0 0 0-.105-.776c-.374-1.078-1.669-1.522-2.812-1.726-1.144-.203-2.426-.377-3.143-1.274a9.304 9.304 0 0 0-.626-.863 2.461 2.461 0 0 0-1.168-.58 6.602 6.602 0 0 0-4.252.372c-.553.247-1.107.58-1.715.544-.607-.036-1.168-.476-1.789-.581-1.004-.172-1.965.568-2.46 1.444a3.53 3.53 0 0 0-.457 1.703v.1c-.014.643.22 1.266.653 1.74.433.458 1.077.76 1.257 1.352.073.24.055.502.121.747.007.03.017.06.028.089l-.032.043a7.566 7.566 0 0 0-1.598 4.655 7.74 7.74 0 0 0 1.515 4.548 7.707 7.707 0 0 0 3.899 2.776v.229c0 .915-.262 1.87-1.05 2.563l-6.845 2.742s-4.127-.492-5.615 5.555a10.305 10.305 0 0 0-.255 3.066c.054.916-.071 2.518-1.142 4.594-1.691 3.323-1.305 10.95 2.155 11.706 3.266.714 4.544.417 4.679.382v.133c-.055 1.433-.573 13.778-2.456 15.27-.52.414-.424.686 0 .881 0 0 0 .08-.011.229-.057.915-.347 4.348-1.598 6.298-1.463 2.266-1.31 15.334-1.31 15.334l-.998 7.704s.614 4.758 0 5.588c-.55.74-1.28 18.342-1.433 22.159h-.064a1.861 1.861 0 0 0-1.479.916c-.808 1.315-3.638 3.748-3.638 3.748-.614.875-2.885 1.712-4.086 2.106a2.538 2.538 0 0 0-.456.201 2.44 2.44 0 0 0-1.032 1.09 1.177 1.177 0 0 0-.11.915c.306.753 6.69 1.284 8.306.526 1.269-.592 6.3-1.373 8.388-1.679a1.723 1.723 0 0 0 1.493-1.497.988.988 0 0 0-.192-.749c-.399-.496-.602-1.853-.684-2.746.169-.069.328-.163.47-.279a20.154 20.154 0 0 1 1.141-8.081c1.539-4.079 2-11.631 1.616-16.54 0 0 4.691-20.241 8.384-22.129.057.073 1.848 2.378 2.077 9.516.228 7.25 2.844 12.008 2.844 12.008s-1.155 12.311 0 16.918l-1.509 7.267a2.552 2.552 0 0 1-.183-.168s.046.202.108.525l-.032.155.066.014c.171.915.424 2.492.319 3.433-.059.529-.207 1.254-.308 1.966-.16 1.119-.203 2.204.384 2.442.963.389 6.619.915 7.578-.33a1.786 1.786 0 0 0 .278-1.865 1.909 1.909 0 0 0-.278-.476s-1.502-2.46-1.078-4.195a1.286 1.286 0 0 0-.18-.996c.066-.851.408-4.792 1.294-8.138.963-3.634 2.992-11.603 1.5-16.842a8.181 8.181 0 0 0-.192-.604 22.684 22.684 0 0 1-.847-8.837 18.059 18.059 0 0 1 0-7.703c.925-4.23 1.57-8.384 1.57-8.384s.509-5.589.064-9.015c0-.073-.02-.146-.029-.229l.242-.054s-1.308-5.816-1.769-9.517c-.11-.874-.251-1.979-.407-3.16a8.072 8.072 0 0 0 1.254-.314c4.151-1.435 5.459-14.418 5.459-14.418v-4.12s1.397-6.332-3.449-9.127ZM182.111 176.29a5.032 5.032 0 0 1-.203-.108l.203.108Z" fill="url(#d)"/><path d="M210.546 150.952c1.801 5.193-.301 13.622-1.278 17.394-.977 3.771-1.276 8.28-1.276 8.28-3.828.602-6.605-.151-6.605-.151l1.577-7.752c-1.128-4.591 0-16.86 0-16.86s-2.552-4.742-2.778-11.968c-.228-7.11-1.97-9.41-2.025-9.481-3.601 1.881-8.18 22.053-8.18 22.053.374 4.891-.078 12.418-1.577 16.478a20.407 20.407 0 0 0-1.125 8.052c-.525.457-1.256.521-2.055.393-2.143-.348-4.713-2.199-4.713-2.199s.824-21.971 1.427-22.804c.602-.833 0-5.571 0-5.571l.974-7.676s-.15-13.022 1.276-15.279c1.233-1.95 1.516-5.378 1.571-6.278v-.228l2.172-2.609s21.017-1.582 22.597 0c.386.386.625 1.27.767 2.38.433 3.414-.064 8.983-.064 8.983s-.63 4.14-1.532 8.353a18.402 18.402 0 0 0 0 7.679 23.058 23.058 0 0 0 .847 8.811Z" fill="#571AFF"/><path d="M209.232 183.954c-.939 1.243-6.455.716-7.396.329-.573-.228-.529-1.32-.374-2.435.098-.707.242-1.43.301-1.956.149-1.355-.456-4.104-.456-4.104s1.237 1.318 1.536 0c.132-.577.593-.872 1.073-1.021a2.793 2.793 0 0 1 1.949.122c.974.425 2.6 1.329 2.31 2.551-.413 1.728 1.05 4.182 1.05 4.182.113.143.205.302.274.471a1.814 1.814 0 0 1-.267 1.861Z" fill="#A27772"/><path opacity=".1" d="M209.231 183.954c-.938 1.243-6.454.716-7.395.329-.573-.228-.529-1.32-.374-2.435.593.28 1.598.511 3.28.355a9.483 9.483 0 0 1 1.18-.037c1.195.054 2.392.03 3.583-.073a1.807 1.807 0 0 1-.274 1.861Zm-19.252-31.496c.374 4.891-.078 12.418-1.577 16.478a20.423 20.423 0 0 0-1.126 8.051c-.525.458-1.255.522-2.054.394.457-3.174 2.383-16.851 3.618-27.658 1.408-12.306 7.989-20.772 7.989-20.772l1.312 1.449c-3.584 1.886-8.162 22.058-8.162 22.058Z" fill="#571AFF"/><path d="m206.979 73.353-.913 4.516-4.49 7.564-5.535-2.372s-7.532-7.902-2.796-9.03a4.18 4.18 0 0 0 1.57-.7c.929-.703 1.222-1.724 1.226-2.724a8.363 8.363 0 0 0-.762-3.236l9.682-3.049a15.63 15.63 0 0 0-.685 3.932c-.075 2.646.913 3.948 1.71 4.577.294.237.631.414.993.522Z" fill="#FBBEBE"/><path opacity=".1" d="M204.952 64.322a15.63 15.63 0 0 0-.685 3.932 7.65 7.65 0 0 1-8.219 2.353 8.367 8.367 0 0 0-.769-3.236l9.673-3.049Z" fill="#571AFF"/><path d="M206.063 63.08a7.69 7.69 0 0 1-1.289 4.266 7.662 7.662 0 0 1-3.436 2.829 7.64 7.64 0 0 1-8.346-1.663 7.682 7.682 0 0 1-2.097-3.931 7.7 7.7 0 0 1 .436-4.437 7.672 7.672 0 0 1 2.82-3.446 7.643 7.643 0 0 1 4.255-1.295 7.602 7.602 0 0 1 5.424 2.238 7.657 7.657 0 0 1 2.233 5.439Z" fill="#FBBEBE"/><path opacity=".1" d="m206.979 73.353-.913 4.516-4.49 7.564-5.535-2.371s-7.532-7.903-2.796-9.031a4.18 4.18 0 0 0 1.57-.7c-.853 2.352 2.671 7.248 2.671 7.248.411.606 1.351.228 1.351.228 2.271-.345 6.45-6.893 7.133-7.982a2.9 2.9 0 0 0 1.009.528Zm4.334 43.777c-1.333.305-8.708 1.941-11.504 1.531-3.076-.457-9.059-.75-9.059-.75s-3.809.206-4.982-.332v-.229l2.172-2.609s21.018-1.581 22.597 0c.395.396.635 1.279.776 2.389Z" fill="#571AFF"/><path d="M197.484 80.805s-3.96-5.493-2.468-7.644l-6.69 2.746s-4.026-.49-5.478 5.537a10.512 10.512 0 0 0-.248 3.057c.054.916-.069 2.518-1.103 4.577-1.65 3.312-1.276 10.915 2.102 11.672 3.378.758 4.577.376 4.577.376s-.457 13.773-2.401 15.354c-1.945 1.582 4.975 1.204 4.975 1.204s5.983.302 9.062.753c3.079.451 11.709-1.581 11.709-1.581s-1.276-5.795-1.728-9.482c-.452-3.687-1.504-11.542-1.504-11.542l7.655-10.4s1.351-6.284-3.378-9.07c-4.729-2.785-6.507-3.467-6.507-3.467s-4.752 7.759-7.229 8.134c.005 0-.936.38-1.346-.224Z" fill="#F4ED0F"/><path opacity=".1" d="M188.701 82.986s-.073 2.486.376 3.463c.45.977 2.102 6.408 2.102 6.408h-3.754s2.027-2.183 1.878-3.239c-.148-1.054-.602-6.632-.602-6.632Z" fill="#571AFF"/><path d="M199.812 101.728s-8.29-2.032-9.062-3.763c-.771-1.73-2.901-5.605-2.901-5.605l.874-1.18 4.031 3.172s4.793 3.838 7.058 4.215c2.264.378 0 3.161 0 3.161Z" fill="#FBBEBE"/><path opacity=".05" d="M199.812 101.728s-8.29-2.032-9.062-3.763c-.771-1.73-2.901-5.605-2.901-5.605l.874-1.18 4.031 3.172s4.793 3.838 7.058 4.215c2.264.378 0 3.161 0 3.161Z" fill="#571AFF"/><path d="M206.979 91.944v4.508h-.722a20.99 20.99 0 0 0-10.207 2.65l-1.356.754-.362.203-2.329-5.263 2.178-1.957h.112c.532.052 2.835.245 3.811-.085.927-.316 2.078-1.316 4.807-.618 1.345.346 2.495 1.856 3.798 1.385l.27-1.577Z" fill="#FBBEBE"/><path opacity=".1" d="m214.223 83.732 1.5 1.694v4.103s-1.276 12.945-5.328 14.375c-4.051 1.431-11.289-.828-11.289-.828s-1.869-4.966-.995-5.264c.874-.297 7.726-2.115 7.726-2.115s-.095-7.593 1.404-9.852c0 0-.974-7.075 2.404-7.226 3.378-.15 4.578 5.113 4.578 5.113Z" fill="#571AFF"/><path d="m214.451 83.732 1.502 1.694v4.103s-1.276 12.945-5.329 14.375c-4.054 1.431-11.289-.828-11.289-.828s-1.87-4.966-.993-5.264c.876-.297 7.726-2.115 7.726-2.115s-.098-7.593 1.404-9.852c0 0-.977-7.075 2.401-7.226 3.378-.15 4.578 5.113 4.578 5.113Z" fill="#F4ED0F"/><path opacity=".1" d="M203.964 66.338c.064-.495.005-1-.172-1.467-.212-.457-.707-.803-1.191-.686-.641.15-.913.988-1.548 1.19-.531.17-1.111-.208-1.369-.705s-.26-1.08-.26-1.639v-1.886c0-.686-.023-1.423-.443-1.961-.523-.668-1.753-.961-2.575-.934a2.184 2.184 0 0 0-1.47.593c-.438.375-.947.65-1.545.552a1.332 1.332 0 0 1-1.077-.934v-.023a7.658 7.658 0 0 1 5.365-3.025 7.636 7.636 0 0 1 5.852 1.913 7.678 7.678 0 0 1 2.555 5.615 7.68 7.68 0 0 1-2.392 5.686 20.92 20.92 0 0 0 .27-2.289Z" fill="#571AFF"/><path d="M193.391 59.173a1.342 1.342 0 0 1-1.079-.936c-.062-.243-.046-.501-.117-.742-.176-.592-.806-.9-1.228-1.35-.844-.9-.79-2.378-.192-3.46.484-.872 1.42-1.602 2.402-1.438.607.106 1.141.538 1.748.58.607.04 1.141-.296 1.673-.543a6.29 6.29 0 0 1 4.159-.37c.425.085.82.285 1.141.578.218.275.421.562.609.858.699.893 1.952 1.07 3.068 1.27 1.116.202 2.378.646 2.739 1.722.244.714 0 1.487-.132 2.229a.674.674 0 0 0 .029.458c.176.288.612.167.941.228.632.136.794.953.819 1.602.026.742.046 1.484.059 2.227.019.277-.004.554-.066.824a2.91 2.91 0 0 1-.637 1.037l-2.478 2.987c-1.101 1.323-2.267 2.865-2.055 4.577-.52.229-1.141-.217-1.31-.764-.169-.547-.034-1.145.082-1.696.202-.97.335-1.953.398-2.941a3.033 3.033 0 0 0-.172-1.465c-.212-.458-.707-.803-1.191-.686-.644.15-.913.988-1.548 1.19-.531.169-1.111-.209-1.369-.705-.258-.497-.26-1.078-.26-1.637V60.92c0-.686-.023-1.423-.443-1.961-.523-.669-1.753-.961-2.575-.934a2.18 2.18 0 0 0-1.467.593c-.441.377-.95.654-1.548.556Z" fill="#7C5C5C"/><path opacity=".1" d="m195.119 82.798 2.351 9.684s1.853-.012-2.351-9.684Zm8.032-1.618s-3.077 5.054-1.876 10.281l.573.041s-1.023-2.419 1.303-10.322Zm1.942 28.602s3.78-1.255 4.054 1.654c.009 0-.703-1.993-4.054-1.654Zm-10.912-16.71s-.751 5.264.6 7.376c0 0-2.739 1.129-6.605.905l-.457-8.28h6.462Z" fill="#571AFF"/><path opacity=".1" d="m194.694 99.856-.362.204-2.329-5.264 2.178-1.957h.112c-.034.26-.642 4.785.401 7.017Z" fill="#571AFF"/><path d="M194.181 92.848s-.751 5.264.6 7.374c0 0-2.739 1.13-6.605.904l-2.627-8.278h8.632Z" fill="#F4ED0F"/><path d="M187.689 180.75a1.7 1.7 0 0 1-1.458 1.492c-2.038.304-6.948 1.083-8.187 1.675-1.577.753-7.806.229-8.108-.526a1.196 1.196 0 0 1 .108-.915 2.403 2.403 0 0 1 1.006-1.085c.146-.082.299-.149.457-.202 1.173-.391 3.389-1.224 3.987-2.098 0 0 2.764-2.424 3.552-3.733a1.804 1.804 0 0 1 1.442-.902c.658-.03 1.39.302 1.692 1.746 0 0 3.599 2.06 4.565.254 0 0 .15 2.774.748 3.534a1.013 1.013 0 0 1 .196.76Z" fill="#A27772"/><path opacity=".1" d="M187.69 180.75a1.708 1.708 0 0 1-1.459 1.492c-2.038.305-6.948 1.083-8.187 1.676-1.577.753-7.806.228-8.108-.527a1.193 1.193 0 0 1 .108-.915 2.408 2.408 0 0 1 1.006-1.085c1.016.687 3.271 1.336 8.231.561 4.731-.742 7.076-1.467 8.217-1.962a1.012 1.012 0 0 1 .192.76ZM208.17 57.676v-.037c.107-.563.269-1.144.228-1.71-.047.463-.124.921-.228 1.374a.84.84 0 0 0 0 .373Zm-4.38 7.044c.119.272.182.565.185.861.034-.409-.03-.82-.185-1.2-.21-.457-.705-.803-1.189-.686-.644.151-.913.989-1.55 1.19-.529.17-1.109-.208-1.369-.705-.261-.496-.261-1.08-.261-1.638v-1.886c0-.687-.022-1.424-.442-1.962-.525-.67-1.753-.96-2.575-.936a2.185 2.185 0 0 0-1.47.595c-.44.376-.947.65-1.547.552a1.335 1.335 0 0 1-1.078-.934c-.061-.242-.045-.503-.116-.743-.176-.591-.806-.9-1.228-1.349a2.465 2.465 0 0 1-.632-1.602 2.57 2.57 0 0 0 .632 1.93c.422.457 1.052.757 1.228 1.348.071.229.055.501.116.744a1.342 1.342 0 0 0 1.078.933c.6.099 1.107-.176 1.547-.551a2.185 2.185 0 0 1 1.47-.595c.822-.025 2.054.265 2.575.936.42.538.44 1.277.442 1.961v1.886c0 .558 0 1.144.261 1.636.26.492.833.877 1.369.708.63-.202.913-1.04 1.55-1.19.484-.106.979.256 1.189.698Zm6.17-2.07a2.912 2.912 0 0 1-.639 1.034l-2.479 2.987c-1.043 1.256-2.146 2.711-2.054 4.316.075-1.472 1.097-2.81 2.054-3.978l2.479-2.987c.283-.295.501-.648.639-1.034.062-.27.084-.549.066-.826a2.225 2.225 0 0 1-.066.487Zm-6.464 7.833a1.782 1.782 0 0 1-.076-.403c-.02.25.005.502.076.742.169.545.787.996 1.31.762a3.304 3.304 0 0 1-.028-.33c-.52.209-1.123-.235-1.282-.77ZM178.546 176.047s.785 1.373 3.629.165l-3.629-.165Zm24.037.334s2.451 2.895 5.541.95l-5.541-.95Zm7.135-34.236s-1.733 1.085-1.787 1.706c-.055.62.894-.458.894-.458l.893-1.248Zm.684 8.322a3.614 3.614 0 0 1-2.134.835c-1.296.057-1.187 1.751-.34 1.243.847-.508 2.474-2.078 2.474-2.078Zm.329 1.087s-.831 4.094-1.506 3.305l1.506-3.305Z" fill="#571AFF"/><path d="M50.223 182.24s5.216 1.435 7.726-.474c2.511-1.909 3.6-1.295 3.6-1.295s5.987-.332 6.48-1.751c.493-1.419-2.296-6.573-2.296-6.573-.199-.458-.489-1.039-.619-1.039l.027-2.174.868-9.098c2.001-5.147.036-11.798.036-11.798l-.358-1.65a4.184 4.184 0 0 1 .34-2.746l3.636-7.324c.195-.484.423-.953.685-1.405a35.492 35.492 0 0 1 1.269-2.115c.44-.686.974-1.464 1.62-2.361 1.61-2.236 2.456-5.035 2.895-7.095l.194.645h.043l.052.012h.087l.094.016h.034l1.118 14.272c.069 5.566 2.107 8.646 2.107 8.646l-.28 12.288c.383 2.959-.457 6.905-.843 8.479l-.881 1.994a2.402 2.402 0 0 0-1.299 1.812c-.173 1.472-1.718 4.644-1.718 4.644-.598.76-1.897 2.813-1.897 2.813s-.612 1.982-.233 2.723c.379.742 3.547.666 3.547.666 3.618.803 6.39-1.144 6.215-2.485-.176-1.342.564-1.683.564-1.683 1.438-.457 1.299-1.435 1.299-1.435a9.001 9.001 0 0 0-1.09-5.845l-.227.529a8.068 8.068 0 0 1 .433-3.119l-.132.091-.041.025h-.014c.228-2.007 2.33-5.721 2.33-5.721 3.863-6.793 2.459-15.998 2.459-15.998l-.598-2.87-.034-1.082a36.22 36.22 0 0 1 .582-7.713 55.37 55.37 0 0 0 .586-3.985c.347-3.167 1.466-6.435 1.981-7.82l.153-.027h.019c.21-.037.422-.074.636-.115h.041s.124-.668.229-1.806c.061-.725.112-1.645.112-2.703a30.485 30.485 0 0 0-1.44-9.408l.116-.167s.276-.376.78-1.025c.927-1.181 2.37-2.976 4.148-4.999 3.184-3.641 2.248-7.323 2.248-7.323s-2.305-8.47-3.333-13.556c-.586-2.898-1.686-4.868-2.529-6.03.19-.802.297-1.621.32-2.445.069-1.506.016-3.076-.66-4.428-.675-1.353-2.113-2.422-3.615-2.241a1.38 1.38 0 0 1-.648 0 .986.986 0 0 1-.427-.373c-.879-1.215-.936-2.85-.662-4.323.274-1.474.835-2.884 1.086-4.362.251-1.479.137-3.12-.8-4.292-1.103-1.373-3.025-1.76-4.458-2.792-1.007-.725-1.762-1.767-2.824-2.41-1.061-.643-2.054-.398-3.207-.155-1.938.41-3.78.597-5.612 1.432a14.95 14.95 0 0 0-4.892 3.568 4.655 4.655 0 0 0-1.09 1.726c-.457 1.513.435 3.124.248 4.69-.132 1.11-.785 2.075-1.303 3.066-.518.991-.913 2.167-.507 3.204.64 1.62 2.723 1.964 4.239 2.827.202.099.375.25.502.437.374.654-.39 1.334-.872 1.915a2.89 2.89 0 0 0-.57 1.163 4.136 4.136 0 0 0-2.482 3.003c-.513 2.304.276 5.213.973 7.136-.76 4.282.228 5.97.956 6.618a3.677 3.677 0 0 1 1.269 2.504v.08c.048.778.13 1.554.24 2.328-.025-.18-.05-.373-.064-.458-.596 1.106-1.73 3.93-2.37 8.681a26.136 26.136 0 0 1-.577 3.023 16.578 16.578 0 0 0-.484 5.406l.114 1.54a.479.479 0 0 1-.31-.103l.801 1.472v2.483a9.176 9.176 0 0 1-.607 3.275 12.21 12.21 0 0 1-.185.458 2.671 2.671 0 0 0-.27 1.348c-1.723 2.648-5.674 17.487-5.674 17.487-2.143 4.866.176 8.011.176 8.011s1.123 13.546 1.333 14.246c.21.701.676 8.958.676 8.958v.657a1.518 1.518 0 0 0-.39-.112c-1.879-.105-2.388 2.87-2.388 2.87l-3.844 3.68s-1.755-.298-4.336 1.645c-2.582 1.943 1.668 3.715 1.668 3.715Zm38.38-78.292-.011-.041-.105.061-.044.026-.02.013-1.772-6.268a10.436 10.436 0 0 1-.13-5.157l1.37-6.014V85.12l4.352 11.631c.279 1.568-2.307 5.365-3.64 7.196Z" fill="url(#e)"/><path d="M90.513 122.868s-1.757 4.287-2.205 8.4a54.319 54.319 0 0 1-.577 3.936 36.07 36.07 0 0 0-.562 7.614l.035 1.069.57 2.831s1.37 9.093-2.412 15.792c0 0-2.242 4.012-2.31 5.911l-1.518.588-3.068-.862s1.482-5.326 1-9.059l.276-12.13s-1.992-3.034-2.06-8.527l-1.172-15.073 14.003-.49Zm-14.003-2.147s-.376 5.878-3.275 9.928c-2.899 4.051-3.515 5.809-3.515 5.809l-3.57 7.237a4.154 4.154 0 0 0-.335 2.707l.351 1.63s1.931 6.568-.034 11.651l-.931 9.818h-5.446s-.457-8.159-.655-8.85c-.199-.691-1.31-14.07-1.31-14.07s-2.283-3.113-.174-7.917c0 0 4.759-17.977 6.032-17.666 1.274.311 12.862-.277 12.862-.277Z" fill="#FDC2CC"/><path opacity=".1" d="m65.614 148.043-.35-1.629a4.13 4.13 0 0 1 .334-2.719l3.57-7.244s.618-1.762 3.515-5.808c2.782-3.891 3.24-9.466 3.273-9.894l.554-.028s-.376 5.878-3.275 9.928c-2.899 4.051-3.515 5.809-3.515 5.809l-3.57 7.237a4.153 4.153 0 0 0-.335 2.707l.351 1.63s1.931 6.568-.034 11.651l-.931 9.818h-.553l.932-9.818c1.965-5.083.034-11.64.034-11.64Zm16.895 20.385c.068-1.899 2.31-5.911 2.31-5.911 3.793-6.706 2.412-15.792 2.412-15.792l-.584-2.833-.035-1.069a36.065 36.065 0 0 1 .562-7.614c.203-1.113.413-2.454.575-3.937.432-3.959 2.077-8.079 2.198-8.381l.566-.023s-1.757 4.287-2.205 8.4a54.263 54.263 0 0 1-.577 3.936 36.063 36.063 0 0 0-.561 7.614l.034 1.069.57 2.831s1.37 9.093-2.412 15.792c0 0-2.242 4.012-2.31 5.911l-1.518.588-.32-.089 1.295-.492Z" fill="#571AFF"/><path d="M80.751 168.359a2.638 2.638 0 0 0 2.51-.311 8.147 8.147 0 0 0-.205 4.564c.621 2.49-5.793-2.005-5.793-2.005l1.37-3.138s.532.993 2.118.89Z" fill="#D39999"/><path opacity=".1" d="M81.228 168.499a2.555 2.555 0 0 0 2.038-.458 8.147 8.147 0 0 0-.205 4.564c.62 2.49-5.793-2.005-5.793-2.005l1.37-3.138s.397.765 1.563.884c.354.041.692.089 1.027.153Z" fill="#571AFF"/><path d="M66.2 110.198h2.68V94.953l-2.01-.361-.67 15.606Z" fill="#FDC2CC"/><path opacity=".05" d="M66.2 110.198h2.68V94.953l-2.01-.361-.67 15.606Z" fill="#571AFF"/><path d="M79.233 169.535s1.69-.105 2.447 1.417l.931.726.457-1.071a8.945 8.945 0 0 1 1.054 5.774s.137.966-1.276 1.416c0 0-.723.346-.552 1.66.171 1.313-2.55 3.25-6.101 2.453 0 0-3.104.071-3.483-.657s.242-2.661.242-2.661 1.276-2.028 1.86-2.777c0 0 1.518-3.135 1.691-4.577.174-1.442 1.833-2.499 2.73-1.703Z" fill="#7E5659"/><path d="m65.253 170.815.028-2.149s-3.084.89-5.581-.117c0 0 .21 2.161-.137 2.456-.347.295 1.155 3.076 1.155 3.076l1.677 1.762 2.886-1.053.782-2.471s-.605-1.504-.81-1.504Z" fill="#D39999"/><path opacity=".1" d="m65.253 170.815.028-2.149s-3.084.89-5.581-.117c0 0 .21 2.161-.137 2.456-.347.295 1.155 3.076 1.155 3.076l1.677 1.762 2.886-1.053.782-2.471s-.605-1.504-.81-1.504Z" fill="#571AFF"/><path d="M59.373 170.037s1.64.19 1.432 2.289c-.208 2.098.086 0 .086 0s1.742.707 2.363 1.693c.62.987 1.741-.881 1.826-1.417.084-.535.782-.757.782-.757s2.74 5.092 2.256 6.493c-.484 1.4-6.364 1.723-6.364 1.723s-1.07-.604-3.535 1.28c-2.466 1.883-7.585.457-7.585.457s-4.172-1.746-1.637-3.662c2.536-1.915 4.257-1.625 4.257-1.625l3.775-3.648s.5-2.931 2.344-2.826Z" fill="#7E5659"/><path d="M78.946 49.652c1.043.634 1.785 1.664 2.773 2.38 1.406 1.019 3.294 1.399 4.375 2.758.913 1.158 1.032 2.776.786 4.236-.247 1.46-.8 2.854-1.066 4.31-.267 1.455-.213 3.069.65 4.268.1.161.246.29.418.368.21.05.427.05.637 0 1.474-.178 2.89.88 3.551 2.214.662 1.334.715 2.886.646 4.373-.057 1.22-.194 2.465-.728 3.564-.913 1.867-2.812 3.02-4.686 3.904a36.24 36.24 0 0 1-3.74 1.515c-.877.298-1.802.565-2.712.41-1.56-.27-2.664-1.692-4.143-2.248-1.212-.457-2.556-.293-3.846-.178-1.1.096-2.358.094-3.116-.712-.972-1.034-.534-2.703-.036-4.035a2.859 2.859 0 0 1-2.448-1.726 2.88 2.88 0 0 1 .421-2.97c.47-.575 1.221-1.245.854-1.893a1.252 1.252 0 0 0-.493-.43c-1.486-.852-3.534-1.193-4.159-2.79-.402-1.028-.014-2.19.495-3.167.51-.978 1.142-1.934 1.28-3.028.183-1.547-.684-3.138-.244-4.63a4.643 4.643 0 0 1 1.071-1.708 14.69 14.69 0 0 1 4.793-3.522c1.801-.826 3.606-1.011 5.51-1.414 1.141-.243 2.086-.5 3.157.15Z" fill="#865A61"/><path d="M68.878 72.692s-4.367-.23-5.193 3.504c-.826 3.732 1.792 9.079 1.792 9.079l3.4-12.583Z" fill="#FDC2CC"/><path opacity=".05" d="M68.878 72.692s-4.367-.23-5.193 3.504c-.826 3.732 1.792 9.079 1.792 9.079l3.4-12.583Z" fill="#571AFF"/><path d="m66.09 83.8 1.656 1.315 7.721.345 4.82-3.318 4.904-8.436c-2.997-.767-4.21-2.843-4.661-4.784a10.5 10.5 0 0 1-.096-3.996s-7.861-4.08-6.895 2.29a8.72 8.72 0 0 1 .073 2.366c-.457 3.73-4.068 3.027-4.068 3.027l-1.385 2.143-1.587 5.263-.481 3.786Z" fill="#FDC2CC"/><path opacity=".1" d="M73.545 67.206a8.65 8.65 0 0 1 .073 2.367 6.952 6.952 0 0 0 6.919-.65 10.5 10.5 0 0 1-.096-3.996s-7.861-4.081-6.896 2.279Z" fill="#571AFF"/><path d="M76.515 69.927c3.846 0 6.964-3.126 6.964-6.983 0-3.856-3.118-6.982-6.964-6.982-3.846 0-6.964 3.126-6.964 6.982 0 3.857 3.118 6.983 6.964 6.983Z" fill="#FDC2CC"/><path d="M71.59 82.47c.168 0 .335.024.501.04.913.092 4.727.298 6.9-2.304 2.431-2.912 5.668-6.507 5.8-6.654l3.294.998s-2.607-.929-4.337 3.932a5.047 5.047 0 0 0 1.696 5.793 5.21 5.21 0 0 0 2.154.915.012.012 0 0 1 0 .012v2.133l-1.346 5.95a10.342 10.342 0 0 0 .128 5.092l2.054 7.281c-.31.215-13.056 8.907-21.57 2.904.032-.261 1.085-8.805.354-12.986a28.938 28.938 0 0 1-.38-3.231v-.08a3.647 3.647 0 0 0-1.25-2.472c-.766-.687-1.805-2.518-.778-7.356a17.81 17.81 0 0 1 1.141-3.486l2.856-6.47 2.632.053v.018c-.229.284-3.28 4.106-3.611 6.569-.324 2.341-.724 3.06 3.761 3.348Z" fill="#F4ED0F"/><path d="M90.301 75.688s2.575 2.213 3.586 7.236c1.01 5.024 3.264 13.368 3.264 13.368s.913 3.641-2.207 7.237c-3.12 3.595-5.195 6.408-5.195 6.408l-2.055 3.035c-.35.517-.875.89-1.479 1.048-.935.247-2.373.426-3.62-.259a2.118 2.118 0 0 1-.913-2.67l.457-1.06s-4.23 2.673-4.597 1.197c-.368-1.476 4.919-2.95 4.919-2.95s4.366-.737 5.25-2.811c0 0 4.688-6.04 4.32-8.113l-4.528-12.168s-5.663-.751-3.732-7.13c1.93-6.378 6.53-2.368 6.53-2.368Z" fill="#FDC2CC"/><path d="M63.224 121.598s10.344 2.073 12.782 1.796l.262.877s3.926.881 12.803-.531c.58-.092 1.181-.195 1.805-.309l.208-.037s.12-.659.217-1.782c.212-2.552.287-7.493-1.504-12.551l-1.493-4.61s-9.226 5.546-15.334 5.035a33.1 33.1 0 0 0-1.632-.107c-1.253-.048-3.195 0-4.457-1.014l-2.648.458v7.552a9.075 9.075 0 0 1-.598 3.232c-.057.151-.116.3-.183.457a2.41 2.41 0 0 0-.228 1.534Z" fill="#571AFF"/><path opacity=".1" d="M76.266 121.92v2.351s4.52 1.014 14.816-.877c0 0 .12-.659.217-1.783-3.16.509-11.872 1.731-15.033.309Z" fill="#571AFF"/><path opacity=".1" d="M63.224 121.598s10.344 2.073 12.782 1.796l.262.877v-2.351c-1.177.49-9.586-1.542-12.633-2.304-.057.151-.116.3-.183.458a2.407 2.407 0 0 0-.228 1.524Z" fill="#571AFF"/><path d="m88.302 118.977.766 4.77c.58-.092 1.182-.195 1.806-.309-.24-1.394-.762-4.577-.619-5.106l-.965-.829-.989 1.474Z" fill="#571AFF"/><path opacity=".1" d="m88.409 118.874.767 4.772c.58-.093 1.181-.196 1.805-.309-.24-1.394-.762-4.577-.618-5.106l-.966-.831-.988 1.474Z" fill="#571AFF"/><path opacity=".05" d="M72.415 109.484a32.91 32.91 0 0 0-1.632-.108c-1.218-.045-3.079 0-4.348-.936l.443-.078c1.27 1.01 3.196.966 4.458 1.014.545.019 1.086.062 1.632.108.178.016.36.025.545.03-.366.009-.732-.001-1.098-.03Zm16.101 14.256c.58-.092 1.182-.194 1.806-.307l.21-.039s.12-.659.214-1.782c.215-2.552.29-7.493-1.504-12.551l-1.406-4.349c.299-.169.457-.268.457-.268l1.492 4.61c1.792 5.058 1.717 9.999 1.504 12.551a20.716 20.716 0 0 1-.216 1.783l-.208.038c-.622.113-1.224.216-1.806.307-4.147.659-7.21.819-9.3.801a58.56 58.56 0 0 0 8.757-.794Zm-13.067-.346v.025h-.297c.113-.007.212-.016.297-.025Z" fill="#571AFF"/><path d="M89.587 119.868c.215 0 .39-.361.39-.806 0-.445-.175-.806-.39-.806-.216 0-.39.361-.39.806 0 .445.174.806.39.806Z" fill="#D39999"/><path d="M64.676 102.749c.63-4.692 1.741-7.48 2.328-8.571.023.148.082.631.11.78.118.687.013 1.552.05 2.424l-.585 10.61.783 3.318c.735 2.628-1.988.552-1.988.552-.564 1.245-1.598 1.108-1.598 1.108l-.141-1.905a16.49 16.49 0 0 1 .475-5.339c.247-.98.436-1.975.566-2.977Z" fill="#FDC2CC"/><path opacity=".05" d="M64.676 102.749c.63-4.692 1.741-7.48 2.328-8.571.023.148.082.631.11.78.118.687.013 1.552.05 2.424l-.585 10.61.783 3.318c.735 2.628-1.988.552-1.988.552-.564 1.245-1.598 1.108-1.598 1.108l-.141-1.905a16.49 16.49 0 0 1 .475-5.339c.247-.98.436-1.975.566-2.977Z" fill="#571AFF"/><path d="M90.874 108.473c-.495.643-.767 1.011-.767 1.011l-2.054 3.033a2.57 2.57 0 0 1-1.48 1.048c-.935.247-2.373.428-3.62-.259a2.114 2.114 0 0 1-.913-2.668l.457-1.062s-4.23 2.673-4.597 1.199 4.919-2.95 4.919-2.95 4.366-.737 5.25-2.813c0 0 .38-.49.913-1.24" fill="#FDC2CC"/><path d="M88.302 113.556s-5.001-.488-6.586-3.356l-.725 2.369s5.25 3.634 6.448 3.163l.863-2.176Z" fill="#571AFF"/><path opacity=".1" d="M88.124 113.533s-5-.488-6.585-3.358l-.724 2.362s5.25 3.634 6.446 3.163l.863-2.167Z" fill="#571AFF"/><path d="M65.538 112.216s-1.75.623-2.095.277l.788 1.454 1.488-1.145-.18-.586Z" fill="#571AFF"/><path opacity=".1" d="M65.538 112.216s-1.75.623-2.095.277l.788 1.454 1.488-1.145-.18-.586Zm10.728 9.705v-3.033l-.719 3.106.72-.073Zm7.092-62.664c-.423.595-1.155.898-1.877.991-.72.094-1.451.014-2.18 0-1.14-.018-2.355.158-3.288.831-.596.428-1.044 1.03-1.51 1.602-1.41 1.728-3.368 3.346-5.591 3.165a1.448 1.448 0 0 1-1.039-.44 1.673 1.673 0 0 1-.264-.947 21.721 21.721 0 0 1 .134-4.27 9.04 9.04 0 0 1 .644-2.547 8.698 8.698 0 0 1 1.547-2.216 9.469 9.469 0 0 1 2.7-2.17 4.832 4.832 0 0 1 3.379-.437c1.33.364 2.366 1.408 3.636 1.946 1.449.61 5.297 2.243 3.709 4.492Z" fill="#571AFF"/><path d="M83.358 58.98c-.423.595-1.155.898-1.877.991-.72.094-1.451.014-2.18 0-1.14-.02-2.355.156-3.288.829-.596.428-1.044 1.03-1.51 1.602-1.41 1.728-3.368 3.346-5.591 3.165a1.438 1.438 0 0 1-1.039-.44 1.667 1.667 0 0 1-.264-.947 21.721 21.721 0 0 1 .134-4.27c.09-.877.306-1.735.644-2.548a8.637 8.637 0 0 1 1.547-2.213 9.437 9.437 0 0 1 2.7-2.172 4.832 4.832 0 0 1 3.379-.437c1.33.364 2.366 1.408 3.636 1.946 1.449.613 5.297 2.24 3.709 4.494Z" fill="#865A61"/><path d="m66.88 108.36-.018.836-.187-.799.206-.037Z" fill="#FDC2CC"/><path opacity=".05" d="m66.88 108.36-.018.836-.187-.799.206-.037Zm17.603-30.74c-1.933 6.378 3.702 7.126 3.702 7.126l4.529 12.169c.367 2.073-4.323 8.113-4.323 8.113-.327.774-1.142 1.362-2.032 1.797a3.19 3.19 0 0 0 1.205-1.328s4.689-6.037 4.321-8.11l-4.528-12.172s-5.633-.748-3.703-7.127c.646-2.13 1.598-3.1 2.561-3.449-.664.536-1.273 1.463-1.732 2.98Z" fill="#571AFF"/><g opacity=".1" fill="#571AFF"><path opacity=".1" d="M84.579 83.414c.265.329.572.62.913.867a5.18 5.18 0 0 0 2.154.916v.241a5.167 5.167 0 0 1-1.953-.868 4.743 4.743 0 0 1-1.114-1.156Zm-17.511 9.125v.08c.07 1.088.202 2.17.392 3.243.685 3.946-.212 11.78-.34 12.862-.073-.048-.146-.094-.228-.146.034-.261 1.086-8.805.356-12.984a29.062 29.062 0 0 1-.381-3.231v-.08a3.537 3.537 0 0 0-.614-1.751c.473.568.758 1.27.815 2.007Zm4.202-19.746-2.233-.044a.01.01 0 0 0-.005-.001.01.01 0 0 0-.006.001l-2.853 6.468a17.862 17.862 0 0 0-1.141 3.485c-.831 3.914-.308 5.864.326 6.827-.714-.844-1.452-2.769-.532-7.094a17.681 17.681 0 0 1 1.13-3.488l2.874-6.468 2.632.053v.016c-.021.027-.092.114-.192.245Zm16.822 1.755.038.011-.038-.011Z"/><path opacity=".1" d="m87.272 74.511-2.237-.675h-.011c-.132.147-3.367 3.742-5.797 6.653-2.174 2.602-5.983 2.399-6.9 2.307a12.337 12.337 0 0 0-.503-.043c-2.494-.16-3.476-.458-3.805-1.09.468.458 1.498.687 3.598.815.169 0 .335.025.502.041.913.092 4.727.296 6.9-2.304 2.43-2.914 5.667-6.51 5.8-6.656l3.254.989a2.029 2.029 0 0 0-.8-.037Z"/></g><path opacity=".1" d="M60.788 173.362s-3.15.863-3.759-.492l3.76.492Zm19.997-.647s-3.652.945-4.496-.518l4.496.518Z" fill="#571AFF"/><path opacity=".1" d="M44.124 164.922c3.395 0 6.147-.466 6.147-1.041 0-.576-2.752-1.042-6.147-1.042-3.395 0-6.147.466-6.147 1.042 0 .575 2.753 1.041 6.147 1.041ZM19.91 179.69c3.394 0 6.146-.466 6.146-1.041s-2.752-1.041-6.146-1.041c-3.395 0-6.147.466-6.147 1.041s2.752 1.041 6.147 1.041Z" fill="#F4ED0F"/><path d="M13.51 166.993c5.068 0 9.177-.697 9.177-1.556 0-.86-4.109-1.557-9.178-1.557-5.068 0-9.177.697-9.177 1.557 0 .859 4.109 1.556 9.177 1.556Z" fill="#F4ED0F"/><path d="M9.714 162.892a2.666 2.666 0 0 1-.877-1.323c-.112-.527.112-1.156.612-1.348.562-.215 1.162.174 1.616.567.454.394.977.845 1.573.762a2.397 2.397 0 0 1-.74-2.247.92.92 0 0 1 .206-.458c.31-.334.876-.19 1.25.074 1.185.837 1.518 2.453 1.523 3.909.12-.527.02-1.072.023-1.603.002-.53.15-1.144.602-1.423.28-.155.594-.234.913-.229.534-.018 1.128.034 1.493.426.456.485.335 1.302-.06 1.831-.394.528-.992.869-1.542 1.24a3.407 3.407 0 0 0-1.105 1.055 1.09 1.09 0 0 0-.082.188h-3.335a9.225 9.225 0 0 1-2.07-1.421Z" fill="#F4ED0F"/><path opacity=".1" d="M235.22 173.632c3.394 0 6.146-.466 6.146-1.041s-2.752-1.041-6.146-1.041c-3.395 0-6.147.466-6.147 1.041s2.752 1.041 6.147 1.041Z" fill="#F4ED0F"/><path d="M231.093 167.75s3.506-.107 4.565-.862c1.059-.756 5.391-1.655 5.654-.444.262 1.21 5.27 6.016 1.31 6.048-3.96.032-9.196-.618-10.251-1.263-1.054-.645-1.278-3.479-1.278-3.479Z" fill="#A8A8A8"/><path opacity=".2" d="M242.69 172.074c-3.958.032-9.196-.618-10.25-1.264-.804-.489-1.123-2.249-1.231-3.062h-.116s.228 2.836 1.276 3.479c1.048.643 6.293 1.295 10.25 1.263 1.142 0 1.539-.416 1.516-1.02-.157.375-.593.604-1.445.604Z" fill="#571AFF"/></g><defs><linearGradient id="b" x1="110.095" y1="162.564" x2="110.095" y2="27.285" gradientUnits="userSpaceOnUse"><stop stop-color="gray" stop-opacity=".25"/><stop offset=".54" stop-color="gray" stop-opacity=".12"/><stop offset="1" stop-color="gray" stop-opacity=".1"/></linearGradient><linearGradient id="c" x1="31438" y1="109342" x2="31438" y2="23955.6" gradientUnits="userSpaceOnUse"><stop stop-color="gray" stop-opacity=".25"/><stop offset=".54" stop-color="gray" stop-opacity=".12"/><stop offset="1" stop-color="gray" stop-opacity=".1"/></linearGradient><linearGradient id="d" x1="41677.3" y1="111311" x2="41677.3" y2="32291.7" gradientUnits="userSpaceOnUse"><stop stop-color="gray" stop-opacity=".25"/><stop offset=".54" stop-color="gray" stop-opacity=".12"/><stop offset="1" stop-color="gray" stop-opacity=".1"/></linearGradient><linearGradient id="e" x1="-23870.8" y1="110367" x2="-23870.8" y2="31024.8" gradientUnits="userSpaceOnUse"><stop stop-color="gray" stop-opacity=".25"/><stop offset=".54" stop-color="gray" stop-opacity=".12"/><stop offset="1" stop-color="gray" stop-opacity=".1"/></linearGradient><clipPath id="a"><path fill="#fff" d="M0 0h260v182H0z"/></clipPath></defs></svg>