<svg width="280" height="192" fill="none" xmlns="http://www.w3.org/2000/svg"><g clip-path="url(#a)"><path d="M183.977 55.482h-.991V28.574c0-4.13-1.656-8.092-4.604-11.013A15.798 15.798 0 0 0 167.266 13H109.72c-4.169 0-8.167 1.64-11.116 4.561A15.5 15.5 0 0 0 94 28.575v147.622a15.5 15.5 0 0 0 4.604 11.012 15.793 15.793 0 0 0 11.116 4.562h57.546c4.169 0 8.167-1.641 11.115-4.562a15.495 15.495 0 0 0 4.605-11.012V74.636h.991V55.482Z" fill="#C4C4C4"/><g clip-path="url(#b)"><path d="M178.96 28.618v147.241c0 3.081-1.232 6.036-3.424 8.215a11.737 11.737 0 0 1-8.267 3.403h-57.578a11.737 11.737 0 0 1-8.267-3.403A11.583 11.583 0 0 1 98 175.859V28.618c0-3.081 1.232-6.036 3.424-8.215A11.73 11.73 0 0 1 109.691 17h6.985a5.498 5.498 0 0 0 .535 5.162 5.548 5.548 0 0 0 1.997 1.792c.804.426 1.7.65 2.611.65h32.828c.911 0 1.807-.224 2.611-.65a5.549 5.549 0 0 0 1.997-1.792A5.497 5.497 0 0 0 159.79 17h7.479a11.73 11.73 0 0 1 8.267 3.403 11.583 11.583 0 0 1 3.424 8.215Z" fill="#EEE"/></g><path d="M211.197 167.905H139V144.2h2.735V138l6.198 6.2h63.264v23.705Z" fill="url(#c)"/><path d="M208.911 146.925h-67.599v18.759h67.599v-18.759Z" fill="#fff"/><path d="M183.976 150.473h-28.029v.99h28.029v-.99Z" fill="#571AFF"/><path d="M204.481 153.278h-48.534v1.073h48.534v-1.073Zm0 3.301h-48.534v1.072h48.534v-1.072Zm-30.344 3.271H156.36v1.073h17.777v-1.073Z" fill="#E6E6E6"/><path d="M151.852 161.167a7.527 7.527 0 0 1-4.232-.258 7.495 7.495 0 0 1-3.41-2.51 4.901 4.901 0 0 1 1.17-.774 4.624 4.624 0 0 1 2.075-.447 4.479 4.479 0 0 1 3.6 1.94 4.72 4.72 0 0 1 .788 1.989l.009.06Z" fill="#F4ED0F"/><path d="M150.325 157.352c1.05 0 1.901-.868 1.901-1.939 0-1.071-.851-1.939-1.901-1.939-1.051 0-1.902.868-1.902 1.939 0 1.071.851 1.939 1.902 1.939Z" fill="#2F2E41"/><path d="M148.504 160.314a4.621 4.621 0 0 1-3.032-1.136 4.658 4.658 0 0 1-.86-6.025 4.632 4.632 0 0 1 2.593-1.944 4.617 4.617 0 0 1 3.228.234 4.639 4.639 0 0 1 2.286 2.299 4.66 4.66 0 0 1 .228 3.24 4.645 4.645 0 0 1-1.943 2.598 4.611 4.611 0 0 1-2.5.734Zm0-9.192a4.533 4.533 0 0 0-4.184 2.805 4.557 4.557 0 0 0 .981 4.954 4.53 4.53 0 0 0 2.319 1.243c.879.176 1.79.086 2.617-.258a4.536 4.536 0 0 0 2.033-1.674 4.566 4.566 0 0 0 .763-2.526 4.562 4.562 0 0 0-1.328-3.212 4.524 4.524 0 0 0-3.201-1.332Z" fill="#3F3D56"/><path d="M251.373 91H166v28.093h3.234v7.348l7.33-7.348h74.809V91Z" fill="url(#d)"/><path d="M248.997 93.867h-80.63v22.474h80.63V93.867Z" fill="#fff"/><path d="M219.255 98.117h-33.432v1.187h33.432v-1.187Z" fill="#571AFF"/><path d="M243.713 101.479h-57.89v1.285h57.89v-1.285Zm0 3.954h-57.89v1.285h57.89v-1.285Zm-36.194 3.92h-21.203v1.285h21.203v-1.285Z" fill="#E6E6E6"/><path d="M178.426 108.678c-.821 1.442-1.773 2.229-2.749 2.272-.975.042-1.936-.661-2.774-2.031a13.68 13.68 0 0 1 .555-2.046c.339-.936.753-1.646 1.208-2.075.456-.43.941-.567 1.419-.402.478.165.935.628 1.338 1.354.402.726.739 1.695.983 2.832l.02.096Z" fill="#F4ED0F"/><path d="M175.714 103.834a1.63 1.63 0 0 0 1.627-1.631 1.63 1.63 0 0 0-1.627-1.631 1.63 1.63 0 0 0-1.628 1.631 1.63 1.63 0 0 0 1.628 1.631Z" fill="#2F2E41"/><path d="M176.945 109.908a5.493 5.493 0 0 1-3.617-1.361 5.573 5.573 0 0 1-1.848-3.416 5.594 5.594 0 0 1 .823-3.802 5.528 5.528 0 0 1 3.092-2.33 5.484 5.484 0 0 1 3.851.281 5.547 5.547 0 0 1 2.727 2.755 5.61 5.61 0 0 1 .271 3.881 5.565 5.565 0 0 1-2.318 3.113 5.479 5.479 0 0 1-2.981.879Zm0-11.013c-1.069 0-2.113.32-3.002.918a5.44 5.44 0 0 0-1.99 2.444 5.496 5.496 0 0 0-.307 3.146 5.461 5.461 0 0 0 1.478 2.788 5.396 5.396 0 0 0 2.767 1.49 5.364 5.364 0 0 0 3.121-.31 5.405 5.405 0 0 0 2.424-2.006 5.472 5.472 0 0 0-.673-6.873 5.388 5.388 0 0 0-3.818-1.597Z" fill="#3F3D56"/><path d="M37.002 48.503h87.248v28.696h-3.305v7.505l-7.491-7.505H37.002V48.503Z" fill="url(#e)"/><path d="M121.797 51.435H39.39V74.43h82.407V51.435Z" fill="#fff"/><path d="M91.4 55.784H57.23v1.214H91.4v-1.214Z" fill="#571AFF"/><path d="M116.396 59.223H57.23v1.315h59.166v-1.315Zm0 4.046H57.23v1.315h59.166v-1.315ZM79.405 67.28h-21.67v1.314h21.67V67.28Z" fill="#E6E6E6"/><path d="M52.238 68.894a9.137 9.137 0 0 1-5.159-.317 9.151 9.151 0 0 1-4.157-3.076c.43-.386.91-.705 1.426-.95a5.611 5.611 0 0 1 2.53-.547 5.434 5.434 0 0 1 2.475.655 5.527 5.527 0 0 1 1.914 1.722c.499.722.827 1.556.96 2.439l.011.074Z" fill="#F4ED0F"/><path d="M50.376 64.217c1.28 0 2.319-1.064 2.319-2.377 0-1.312-1.038-2.376-2.319-2.376-1.28 0-2.318 1.064-2.318 2.376 0 1.313 1.038 2.377 2.318 2.377Z" fill="#2F2E41"/><path d="M48.157 67.848a5.615 5.615 0 0 1-3.696-1.393 5.736 5.736 0 0 1-1.048-7.385 5.65 5.65 0 0 1 3.16-2.383 5.598 5.598 0 0 1 3.936.287 5.67 5.67 0 0 1 2.787 2.818 5.743 5.743 0 0 1 .277 3.972 5.69 5.69 0 0 1-2.369 3.184 5.61 5.61 0 0 1-3.047.9Zm0-11.268c-1.092 0-2.16.327-3.067.939a5.56 5.56 0 0 0-2.034 2.5 5.618 5.618 0 0 0-.314 3.219 5.587 5.587 0 0 0 1.51 2.853 5.506 5.506 0 0 0 2.828 1.524 5.475 5.475 0 0 0 3.19-.317 5.533 5.533 0 0 0 2.478-2.052 5.607 5.607 0 0 0-.689-7.032 5.502 5.502 0 0 0-3.902-1.634Z" fill="#3F3D56"/><path d="M9.42 147.849h108.923v-35.786h-4.126v-9.359l-9.352 9.359H9.42v35.786Z" fill="url(#f)"/><path d="M114.958 116.165H12.851v28.426h102.107v-28.426Z" fill="#fff"/><path d="M77.294 121.542H34.957v1.5h42.337v-1.5Z" fill="#571AFF"/><path d="M108.267 125.793h-73.31v1.625h73.31v-1.625Zm0 5.001h-73.31v1.626h73.31v-1.626Zm-45.835 4.958h-26.85v1.625h26.85v-1.625Z" fill="#E6E6E6"/><path d="M29.397 135.867a10.621 10.621 0 0 1-5.717 1.794 10.6 10.6 0 0 1-5.77-1.604 6.9 6.9 0 0 1 1.154-1.615 6.51 6.51 0 0 1 2.513-1.639 6.303 6.303 0 0 1 2.95-.318c.994.13 1.946.496 2.783 1.069a6.728 6.728 0 0 1 2.045 2.237l.042.076Z" fill="#F4ED0F"/><path d="M23.505 131.533c1.898 0 3.436-1.548 3.436-3.459 0-1.91-1.538-3.459-3.436-3.459-1.897 0-3.436 1.549-3.436 3.459 0 1.911 1.539 3.459 3.436 3.459Z" fill="#2F2E41"/><path d="M21.13 127.659a3.464 3.464 0 0 0 1.988.618 2.123 2.123 0 0 1-.845.35 6.965 6.965 0 0 0 2.865.016 1.86 1.86 0 0 0 .6-.207.766.766 0 0 0 .37-.498c.063-.362-.217-.69-.508-.912a3.749 3.749 0 0 0-1.503-.673 3.74 3.74 0 0 0-1.644.04c-.351.092-.703.246-.932.531-.228.284-.296.722-.078 1.015l-.313-.28Z" fill="#2F2E41"/><path d="M23.714 136.455a6.969 6.969 0 0 1-4.58-1.722 7.054 7.054 0 0 1-2.34-4.321 7.08 7.08 0 0 1 1.041-4.809 7 7 0 0 1 3.916-2.946 6.952 6.952 0 0 1 4.877.355 7.016 7.016 0 0 1 3.453 3.484 7.085 7.085 0 0 1 .344 4.91 7.035 7.035 0 0 1-2.935 3.936 6.945 6.945 0 0 1-3.776 1.113Zm0-13.93a6.808 6.808 0 0 0-3.8 1.161 6.876 6.876 0 0 0-2.52 3.091 6.929 6.929 0 0 0 1.482 7.506 6.822 6.822 0 0 0 3.503 1.884 6.79 6.79 0 0 0 3.953-.392 6.847 6.847 0 0 0 3.07-2.537 6.917 6.917 0 0 0-.853-8.693 6.826 6.826 0 0 0-4.835-2.02Z" fill="#3F3D56"/><path d="M276.009 23H141v44.278h5.114v11.58l11.592-11.58h118.303V23Z" fill="url(#g)"/><path d="M272.252 27.518H144.743v35.423h127.509V27.518Z" fill="#fff"/><path d="M225.218 34.218h-52.87v1.87h52.87v-1.87Z" fill="#571AFF"/><path d="M263.896 39.515h-91.548v2.026h91.548v-2.026Zm0 6.233h-91.548v2.025h91.548v-2.025Zm-57.237 6.178h-33.531v2.025h33.531v-2.025Z" fill="#E6E6E6"/><path d="M165.405 52.068a13.277 13.277 0 0 1-7.139 2.236 13.249 13.249 0 0 1-7.204-1.998 8.57 8.57 0 0 1 1.439-2.013 8.159 8.159 0 0 1 3.139-2.043 7.898 7.898 0 0 1 3.685-.395 7.998 7.998 0 0 1 3.475 1.332 8.374 8.374 0 0 1 2.553 2.788l.052.093Z" fill="#F4ED0F"/><path d="M158.048 46.669c2.37 0 4.291-1.93 4.291-4.31 0-2.381-1.921-4.31-4.291-4.31s-4.291 1.929-4.291 4.31c0 2.38 1.921 4.31 4.291 4.31Z" fill="#2F2E41"/><path d="M155.082 41.84a4.33 4.33 0 0 0 2.482.771c-.316.22-.676.37-1.055.436a8.723 8.723 0 0 0 3.578.02c.262-.042.516-.13.749-.258a.954.954 0 0 0 .462-.62c.078-.451-.271-.86-.634-1.136a4.666 4.666 0 0 0-3.93-.79c-.439.115-.879.307-1.164.662-.285.354-.369.9-.098 1.264l-.39-.348Z" fill="#2F2E41"/><path d="M158.309 52.802a8.709 8.709 0 0 1-5.719-2.146 8.784 8.784 0 0 1-2.924-5.384 8.807 8.807 0 0 1 1.302-5.992 8.735 8.735 0 0 1 4.89-3.672 8.696 8.696 0 0 1 6.089.443 8.753 8.753 0 0 1 4.313 4.34 8.813 8.813 0 0 1 .429 6.119 8.774 8.774 0 0 1-3.665 4.905 8.697 8.697 0 0 1-4.715 1.387Zm0-17.358c-1.69 0-3.341.503-4.746 1.446a8.57 8.57 0 0 0-3.147 3.852 8.603 8.603 0 0 0 1.851 9.353 8.534 8.534 0 0 0 4.375 2.348 8.506 8.506 0 0 0 4.936-.488 8.554 8.554 0 0 0 3.834-3.161 8.61 8.61 0 0 0-1.065-10.833 8.534 8.534 0 0 0-6.038-2.517Z" fill="#3F3D56"/></g><defs><linearGradient id="c" x1="197.197" y1="157.416" x2="197.197" y2="135.421" gradientUnits="userSpaceOnUse"><stop stop-color="#8F00FF"/><stop offset="1" stop-color="#571AFF"/></linearGradient><linearGradient id="d" x1="234.818" y1="103.43" x2="234.818" y2="129.497" gradientUnits="userSpaceOnUse"><stop stop-color="#8F00FF"/><stop offset="1" stop-color="#571AFF"/></linearGradient><linearGradient id="e" x1="53.92" y1="61.2" x2="53.92" y2="87.827" gradientUnits="userSpaceOnUse"><stop stop-color="#8F00FF"/><stop offset="1" stop-color="#571AFF"/></linearGradient><linearGradient id="f" x1="30.542" y1="132.015" x2="30.542" y2="98.811" gradientUnits="userSpaceOnUse"><stop stop-color="#8F00FF"/><stop offset="1" stop-color="#571AFF"/></linearGradient><linearGradient id="g" x1="249.829" y1="42.592" x2="249.829" y2="83.676" gradientUnits="userSpaceOnUse"><stop stop-color="#8F00FF"/><stop offset="1" stop-color="#571AFF"/></linearGradient><clipPath id="a"><path fill="#fff" d="M0 0h280v192H0z"/></clipPath><clipPath id="b"><path fill="#fff" transform="translate(98 17)" d="M0 0h80.96v170.477H0z"/></clipPath></defs></svg>