<svg width="280" height="192" viewBox="0 0 280 192" fill="none" xmlns="http://www.w3.org/2000/svg">
<g clip-path="url(#clip0)">
<path d="M25.7973 29.1338H95.3524C96.2964 29.1349 97.2016 29.5106 97.8692 30.1785C98.5367 30.8465 98.9122 31.7521 98.9133 32.6968V135.895C98.9122 136.839 98.5367 137.745 97.8692 138.413C97.2016 139.081 96.2964 139.457 95.3524 139.458H25.7973C24.8532 139.457 23.9481 139.081 23.2805 138.413C22.6129 137.745 22.2374 136.839 22.2363 135.895V32.6967C22.2374 31.7521 22.6129 30.8465 23.2805 30.1785C23.9481 29.5106 24.8532 29.1349 25.7973 29.1338Z" fill="#C4C4C4"/>
<path d="M26.6572 31.7246H94.4858C94.9721 31.7252 95.4384 31.9187 95.7823 32.2628C96.1262 32.6069 96.3196 33.0734 96.3202 33.5601V135.031C96.3196 135.517 96.1262 135.984 95.7823 136.328C95.4384 136.672 94.9721 136.866 94.4858 136.866H26.6572C26.1708 136.866 25.7045 136.672 25.3606 136.328C25.0167 135.984 24.8233 135.517 24.8228 135.031V33.5601C24.8233 33.0734 25.0167 32.6069 25.3606 32.2628C25.7045 31.9187 26.1708 31.7252 26.6572 31.7246Z" fill="#EEEEEE"/>
<path d="M73.7941 69.6243C73.7941 76.1475 67.7657 75.1609 60.3294 75.1609C52.8931 75.1609 46.8647 76.1475 46.8647 69.6243C46.8647 63.101 49.8094 51.5381 60.3294 51.5381C71.2118 51.5381 73.7941 63.101 73.7941 69.6243Z" fill="#2F2E41"/>
<path d="M89.6324 124.842C89.9021 124.329 90.0562 123.763 90.0837 123.184C90.1112 122.605 90.0114 122.027 89.7915 121.491C89.5716 120.954 89.2368 120.473 88.8108 120.08C88.3848 119.687 87.8778 119.392 87.3257 119.217L71.8999 86.5662L64.8438 91.517L82.2256 122.055C81.9922 123.002 82.1144 124.003 82.5689 124.866C83.0234 125.73 83.7788 126.397 84.6917 126.74C85.6047 127.084 86.6119 127.08 87.5225 126.73C88.4331 126.38 89.1838 125.709 89.6324 124.842V124.842Z" fill="#A0616A"/>
<path d="M76.2121 89.4342L75.3304 88.0538L74.8805 87.3451L71.4165 81.9118C70.8831 80.7191 69.8989 79.7867 68.6796 79.3188C67.4603 78.8509 66.1053 78.8858 64.9116 79.4158C63.718 79.9458 62.783 80.9277 62.3116 82.1462C61.8403 83.3648 61.8709 84.7207 62.397 85.9166L63.1902 88.7477L64.8095 94.5352C64.9078 94.8915 65.1172 95.207 65.4072 95.4359C65.517 95.5279 65.6386 95.6048 65.7687 95.6647C65.9953 95.7718 66.2421 95.8296 66.4926 95.834C66.7432 95.8385 66.9919 95.7896 67.2221 95.6905C67.2295 95.6868 67.2407 95.6832 67.2481 95.6795L71.4387 93.8044L71.446 93.8007L74.6443 92.3686L75.4412 92.0143C75.6697 91.9126 75.8736 91.7628 76.0389 91.575C76.2139 91.3814 76.3426 91.1504 76.415 90.8996C76.4898 90.6553 76.5104 90.3976 76.4754 90.1445C76.4403 89.8914 76.3505 89.649 76.2121 89.4342Z" fill="#CCCCCC"/>
<path d="M54.1027 135.727C53.9459 135.467 53.7253 135.251 53.4616 135.101C53.198 134.95 52.9002 134.869 52.5966 134.866C52.293 134.863 51.9936 134.938 51.7271 135.084C51.4606 135.229 51.2358 135.441 51.074 135.698C51.0041 135.803 50.9484 135.917 50.9081 136.037L50.6978 136.617H54.6376L54.1027 135.727Z" fill="#2F2E41"/>
<path d="M60.2445 74.7865C65.2485 74.7865 69.305 70.7277 69.305 65.7209C69.305 60.7141 65.2485 56.6553 60.2445 56.6553C55.2406 56.6553 51.1841 60.7141 51.1841 65.7209C51.1841 70.7277 55.2406 74.7865 60.2445 74.7865Z" fill="#A0616A"/>
<path d="M76.1263 92.5348C76.1042 92.21 76.0746 91.8889 76.0379 91.5752C75.907 90.3827 75.6699 89.2042 75.3295 88.0539C75.2594 87.8029 75.1819 87.5593 75.0971 87.3194C74.0184 84.1388 72.144 81.2874 69.6523 79.0366C68.6658 78.1521 67.3876 77.6632 66.0629 77.6636H53.2991C52.5154 77.6637 51.7411 77.8351 51.0305 78.1659C50.3198 78.4967 49.69 78.9788 49.1851 79.5786C48.6802 80.1784 48.3123 80.8813 48.1073 81.6382C47.9022 82.3951 47.865 83.1877 47.9981 83.9605C47.9943 83.9642 47.9943 83.9642 47.9981 83.9679C48.0881 84.4839 48.2535 84.9838 48.4887 85.4517L49.0051 86.4815L52.4653 93.4059L56.7703 102.021L57.0212 102.523L73.0646 106.937L73.1308 106.786C73.1899 106.653 73.2526 106.517 73.3079 106.384C73.3965 106.184 73.4814 105.985 73.5662 105.789C74.9951 102.537 75.8632 99.0667 76.1337 95.5246V95.5209C76.1941 94.5264 76.1916 93.529 76.1263 92.5348Z" fill="#F5E30F"/>
<path d="M73.5673 105.789C73.5128 105.601 73.4267 105.424 73.3128 105.265C72.8997 104.712 72.406 104.224 71.8482 103.818L71.8446 103.814C69.9005 102.338 66.0419 100.618 58.5866 100.574H58.5754C58.2337 100.574 57.8994 100.673 57.6122 100.858C57.3251 101.043 57.0972 101.307 56.9559 101.618L56.7714 102.021L55.5837 104.634C55.4824 104.857 55.3232 105.05 55.1226 105.191C53.2376 106.527 44.1074 114.02 49.4674 130.471C49.9912 132.077 50.5298 133.83 51.0757 135.698C51.1644 136 51.2529 136.307 51.3414 136.617H67.4105L67.0674 134.033C67.0445 133.864 67.0533 133.693 67.0933 133.527L73.5599 106.826L73.5895 106.712C73.6634 106.408 73.6558 106.089 73.5673 105.789Z" fill="#4D26B9"/>
<path d="M78.6101 75.8992H85.6191C85.9126 75.8992 86.1941 76.0158 86.4016 76.2235C86.6092 76.4312 86.7258 76.7128 86.7258 77.0065V78.852C86.8235 78.8523 86.9172 78.8913 86.9863 78.9604C87.0554 79.0296 87.0944 79.1233 87.0947 79.2211V79.9593C87.0944 80.0571 87.0554 80.1508 86.9863 80.22C86.9172 80.2892 86.8235 80.3281 86.7258 80.3284V81.0667C86.8235 81.067 86.9172 81.1059 86.9863 81.1751C87.0554 81.2442 87.0944 81.338 87.0947 81.4358V82.174C87.0944 82.2718 87.0554 82.3655 86.9863 82.4346C86.9172 82.5038 86.8235 82.5428 86.7258 82.5431V92.5089C86.7258 92.8026 86.6092 93.0843 86.4016 93.2919C86.1941 93.4996 85.9126 93.6162 85.6191 93.6163H78.6101C78.3166 93.6162 78.0351 93.4996 77.8276 93.2919C77.62 93.0843 77.5034 92.8026 77.5034 92.5089V77.0065C77.5034 76.7128 77.62 76.4312 77.8276 76.2235C78.0351 76.0158 78.3166 75.8992 78.6101 75.8992Z" fill="#3F3D56"/>
<path d="M78.2412 92.5089V77.0065C78.2412 76.7128 78.3578 76.4312 78.5654 76.2235C78.7729 76.0158 79.0544 75.8992 79.3479 75.8992H78.6101C78.3166 75.8992 78.0351 76.0158 77.8276 76.2235C77.62 76.4312 77.5034 76.7128 77.5034 77.0065V92.5089C77.5034 92.8026 77.62 93.0843 77.8276 93.2919C78.0351 93.4996 78.3166 93.6162 78.6101 93.6163H79.3479C79.0544 93.6162 78.7729 93.4996 78.5654 93.2919C78.3578 93.0843 78.2412 92.8026 78.2412 92.5089Z" fill="#6C63FF"/>
<path d="M81.9307 82.5429C82.7456 82.5429 83.4063 81.8819 83.4063 81.0665C83.4063 80.2511 82.7456 79.5901 81.9307 79.5901C81.1157 79.5901 80.4551 80.2511 80.4551 81.0665C80.4551 81.8819 81.1157 82.5429 81.9307 82.5429Z" fill="white"/>
<path d="M80.0556 86.239C79.9357 86.4044 79.8291 86.5789 79.7367 86.761L61.5726 88.9443L58.9015 85.39L53.0137 88.7224L57.1312 95.4743C57.4638 96.0198 57.9643 96.4426 58.5576 96.6792C59.1508 96.9158 59.8047 96.9535 60.4212 96.7866L80.5124 91.3476C81.0834 91.8886 81.8054 92.2429 82.5825 92.3633C83.3596 92.4837 84.1549 92.3646 84.8627 92.0217C85.5704 91.6789 86.1571 91.1285 86.5446 90.4439C86.9321 89.7593 87.1022 88.9728 87.0321 88.1891C86.962 87.4055 86.6551 86.6617 86.1523 86.0568C85.6494 85.4519 84.9744 85.0145 84.2171 84.8028C83.4597 84.5911 82.6559 84.6151 81.9125 84.8717C81.1692 85.1282 80.5215 85.6051 80.0556 86.239V86.239Z" fill="#A0616A"/>
<path d="M61.4197 86.6695L56.3288 80.0699C55.7607 79.0529 54.829 78.2886 53.7209 77.9306C52.6128 77.5727 51.4104 77.6475 50.3552 78.1401C49.3 78.6328 48.4702 79.5067 48.0325 80.5863C47.5948 81.6659 47.5815 82.8713 47.9955 83.9602C47.9917 83.9639 47.9917 83.9639 47.9955 83.9676C48.0714 84.1687 48.1626 84.3637 48.2684 84.5508L49.0026 86.4812L51.2343 92.3685C51.3187 92.5919 51.4504 92.7943 51.6205 92.9619C51.7906 93.1295 51.9949 93.2582 52.2194 93.3392C52.2985 93.3682 52.3799 93.3904 52.4628 93.4057C52.8493 93.4846 53.2514 93.4217 53.5954 93.2285L55.2111 92.3242L60.9142 89.1351C61.1217 89.0173 61.3018 88.8567 61.4423 88.6638C61.5829 88.471 61.6808 88.2504 61.7295 88.0167C61.7774 87.7831 61.7745 87.5418 61.721 87.3094C61.6676 87.0769 61.5648 86.8587 61.4197 86.6695Z" fill="#F5E30F"/>
<path d="M49.8159 67.4098H53.3995L54.9804 61.9583L55.2966 67.4098H57.0094L57.9316 64.2298L58.1161 67.4098H70.8429C70.8429 60.8865 66.5488 55.5984 61.2517 55.5984H59.4072C54.1101 55.5984 49.8159 60.8865 49.8159 67.4098Z" fill="#2F2E41"/>
<path d="M185.773 67.5464H255.328C256.272 67.5474 257.177 67.9232 257.845 68.5911C258.512 69.2591 258.888 70.1647 258.889 71.1093V174.307C258.888 175.252 258.512 176.158 257.845 176.826C257.177 177.494 256.272 177.869 255.328 177.87H185.773C184.829 177.869 183.924 177.494 183.256 176.826C182.588 176.158 182.213 175.252 182.212 174.307V71.1093C182.213 70.1647 182.588 69.2591 183.256 68.5911C183.924 67.9232 184.829 67.5474 185.773 67.5464Z" fill="#C4C4C4"/>
<path d="M186.637 70.1377H254.465C254.952 70.1382 255.418 70.3318 255.762 70.6759C256.106 71.02 256.299 71.4865 256.3 71.9732V173.444C256.299 173.93 256.106 174.397 255.762 174.741C255.418 175.085 254.952 175.279 254.465 175.279H186.637C186.15 175.279 185.684 175.085 185.34 174.741C184.996 174.397 184.803 173.93 184.802 173.444V71.9732C184.803 71.4865 184.996 71.02 185.34 70.6759C185.684 70.3318 186.15 70.1382 186.637 70.1377Z" fill="#EEEEEE"/>
<path d="M189.52 142.929C189.819 142.476 190.213 142.094 190.675 141.811C191.138 141.527 191.656 141.348 192.195 141.287C192.734 141.225 193.28 141.283 193.794 141.455C194.308 141.628 194.778 141.911 195.171 142.285L206.885 136.235L206.157 143.051L195.145 147.751C194.473 148.37 193.598 148.721 192.685 148.737C191.772 148.753 190.885 148.434 190.192 147.84C189.498 147.245 189.047 146.417 188.923 145.512C188.799 144.607 189.012 143.688 189.52 142.929Z" fill="#FFB8B8"/>
<path d="M225.991 112.629C225.082 111.917 223.968 111.519 222.814 111.493C221.661 111.467 220.53 111.815 219.59 112.485C219.166 112.789 218.788 113.152 218.465 113.562L208.18 132.649L198.689 139.824C198.374 140.061 198.155 140.403 198.069 140.788C198.005 141.07 198.016 141.364 198.102 141.64L199.036 144.652C199.135 144.976 199.331 145.262 199.596 145.472C199.7 145.549 199.811 145.616 199.928 145.671C199.942 145.679 199.957 145.685 199.973 145.689C200.18 145.778 200.403 145.824 200.628 145.823C200.853 145.823 201.076 145.776 201.282 145.686L212.408 140.858L212.53 140.802C216.28 139.142 219.308 136.188 221.062 132.479L226.913 120.125C227.78 119.007 228.17 117.591 227.997 116.187C227.824 114.782 227.103 113.503 225.991 112.629Z" fill="#571AFF"/>
<path d="M227.172 105.595C232.176 105.595 236.232 101.537 236.232 96.5297C236.232 91.5229 232.176 87.4641 227.172 87.4641C222.168 87.4641 218.111 91.5229 218.111 96.5297C218.111 101.537 222.168 105.595 227.172 105.595Z" fill="#FFB8B8"/>
<path d="M233.306 157.154L233.214 156.449L232.786 153.234L232.317 149.724L230.653 150.008L230.011 150.115L229.362 150.226L229.148 150.263L212.644 153.068L210.589 151.831L210.545 151.806L210.563 151.994L210.951 156.013L212.799 175.214H235.715L233.306 157.154Z" fill="#2F2E41"/>
<path d="M239.649 120.269C239.355 116.981 237.802 113.934 235.315 111.765C232.921 109.644 229.783 108.56 226.59 108.753C223.547 108.956 221.208 110.207 219.592 112.485C218.761 113.704 218.147 115.057 217.777 116.486C215.94 123.1 214.004 132.789 212.532 140.803C211.705 145.276 211.027 149.229 210.588 151.831C210.58 151.887 210.573 151.939 210.562 151.994C210.392 153.009 210.263 153.803 210.178 154.33C210.125 154.656 210.169 154.99 210.307 155.29C210.444 155.59 210.668 155.842 210.949 156.013C210.953 156.017 210.96 156.021 210.964 156.025C212.826 157.139 214.951 157.737 217.121 157.756C219.748 157.756 222.898 156.84 226.214 153.884C226.439 153.679 226.729 153.56 227.033 153.547C227.337 153.534 227.636 153.629 227.878 153.814L228.239 154.094L231.81 156.873C232.089 157.092 232.43 157.214 232.784 157.224C232.96 157.232 233.137 157.208 233.304 157.154C233.319 157.152 233.334 157.148 233.349 157.143C233.606 157.059 233.839 156.913 234.027 156.718C234.215 156.523 234.352 156.285 234.426 156.025C234.625 155.331 234.846 154.53 235.09 153.636C235.189 153.264 235.293 152.872 235.4 152.466C235.868 150.672 236.388 148.591 236.897 146.324C238.676 138.403 240.365 128.227 239.649 120.269Z" fill="#571AFF"/>
<path d="M224.731 158.101C224.687 157.56 224.762 157.016 224.951 156.508C225.14 155.999 225.437 155.538 225.824 155.157C226.21 154.776 226.675 154.484 227.186 154.302C227.697 154.121 228.241 154.053 228.781 154.105L234.267 142.111L237.898 147.924L232.131 158.422C231.985 159.323 231.512 160.14 230.804 160.717C230.096 161.293 229.201 161.59 228.289 161.55C227.377 161.511 226.511 161.138 225.855 160.502C225.199 159.866 224.799 159.012 224.731 158.101Z" fill="#FFB8B8"/>
<path d="M243.108 130.401L240.09 117.065C240.083 115.75 239.592 114.483 238.712 113.506C237.832 112.529 236.624 111.909 235.317 111.765C235.129 111.747 234.937 111.736 234.741 111.736C234.037 111.737 233.339 111.878 232.689 112.15C232.039 112.422 231.449 112.819 230.953 113.319C230.456 113.819 230.063 114.413 229.796 115.065C229.529 115.717 229.393 116.416 229.396 117.121L233.078 138.488L233.067 138.533L231.115 145.904L230.034 149.997C230.023 150.036 230.016 150.075 230.012 150.115C229.943 150.459 229.988 150.815 230.141 151.13C230.264 151.395 230.455 151.622 230.695 151.787L232.786 153.234L233.284 153.581C233.561 153.774 233.891 153.877 234.229 153.876C234.359 153.876 234.489 153.861 234.616 153.832C234.631 153.828 234.642 153.825 234.656 153.821C234.81 153.781 234.956 153.719 235.092 153.636C235.343 153.484 235.549 153.267 235.689 153.009L241.466 142.338C243.439 138.689 244.023 134.448 243.108 130.401Z" fill="#571AFF"/>
<path opacity="0.2" d="M230.128 126.131L233.448 140.157L228.653 151.968L231.973 140.526L230.128 126.131Z" fill="black"/>
<path d="M234.507 101.978C235.266 101.708 235.964 101.289 236.561 100.746C236.825 100.511 237.108 100.292 237.371 100.057C239.694 97.9776 240.392 94.4021 239.356 91.4609C238.319 88.5196 235.741 86.2588 232.795 85.2399C229.849 84.221 226.584 84.3601 223.593 85.237C220.371 86.1816 217.144 88.3087 216.379 91.5797C216.175 92.4504 216.167 93.4163 216.76 94.1508C216.938 94.3726 217.171 94.5438 217.436 94.6471C218.48 95.0476 219.062 94.2301 219.841 93.8829C220.913 93.4056 222.231 93.921 222.977 94.8264C223.722 95.7319 223.998 96.9346 224.113 98.1022C224.136 98.8221 224.249 99.5362 224.449 100.228C224.553 100.574 224.743 100.887 225.002 101.138C225.261 101.389 225.58 101.57 225.928 101.663C226.769 101.819 227.577 101.24 228.106 100.568C228.635 99.896 229.009 99.0979 229.634 98.5144C230.259 97.9309 231.278 97.623 231.963 98.1346C232.193 98.3282 232.386 98.5608 232.535 98.8215C233.585 100.435 233.457 100.365 234.507 101.978H234.507Z" fill="#2F2E41"/>
<path d="M191.114 135.167L184.722 138.044C184.454 138.165 184.245 138.387 184.141 138.662C184.037 138.936 184.046 139.241 184.167 139.509L184.924 141.192C184.835 141.232 184.765 141.306 184.73 141.397C184.696 141.489 184.699 141.59 184.738 141.68L185.041 142.353C185.082 142.442 185.156 142.511 185.247 142.546C185.338 142.581 185.44 142.578 185.529 142.538L185.832 143.211C185.743 143.252 185.673 143.326 185.639 143.417C185.604 143.509 185.607 143.61 185.647 143.699L185.949 144.373C185.99 144.462 186.064 144.531 186.155 144.566C186.246 144.6 186.348 144.598 186.437 144.558L190.524 153.646C190.644 153.914 190.866 154.123 191.14 154.227C191.415 154.331 191.719 154.322 191.987 154.202L198.379 151.324C198.647 151.204 198.855 150.982 198.96 150.707C199.064 150.433 199.054 150.128 198.934 149.86L192.577 135.723C192.457 135.455 192.235 135.246 191.96 135.142C191.686 135.037 191.382 135.047 191.114 135.167Z" fill="#3F3D56"/>
<path d="M197.751 149.026L196.851 147.022L194.49 141.773L192.417 137.163C192.302 136.906 192.09 136.706 191.827 136.605C191.564 136.505 191.272 136.513 191.015 136.628L187.496 138.211L185.884 138.939C185.628 139.055 185.429 139.268 185.329 139.53C185.23 139.793 185.238 140.085 185.353 140.341L187.496 145.11L188.319 146.937L190.687 152.208C190.804 152.464 191.017 152.664 191.28 152.763C191.543 152.863 191.835 152.854 192.092 152.739L197.22 150.429C197.476 150.313 197.676 150.1 197.775 149.837C197.875 149.574 197.866 149.283 197.751 149.026Z" fill="#6C63FF"/>
<path d="M193.84 12.1965H85.0488V47.9289H89.1697V57.2745L98.5103 47.9289H193.84V12.1965Z" fill="url(#paint0_linear)"/>
<path d="M190.812 15.843H88.0649V44.429H190.812V15.843Z" fill="white"/>
<path d="M147.759 21.6653H96.1079V23.2472H147.759V21.6653Z" fill="#571AFF"/>
<path d="M182.822 26.3176H96.1079V28.0779H182.822V26.3176Z" fill="#E6E6E6"/>
<path d="M182.822 31.3469H96.1079V33.233H182.822V31.3469Z" fill="#E6E6E6"/>
<path d="M125.138 36.5803H96.1079V38.3882H125.138V36.5803Z" fill="#E6E6E6"/>
<path d="M111.69 77.7053H202.51V113.438H199.07V122.783L191.272 113.438H111.69V77.7053Z" fill="url(#paint1_linear)"/>
<path d="M199.536 81.3516H115.712V109.894H199.536V81.3516Z" fill="white"/>
<path d="M164.413 87.1648H122.274V88.7443H164.413V87.1648Z" fill="#571AFF"/>
<path d="M193.018 91.8101H122.274V93.5677H193.018V91.8101Z" fill="#E6E6E6"/>
<path d="M193.018 96.8318H122.274V98.715H193.018V96.8318Z" fill="#E6E6E6"/>
<path d="M145.958 102.057H122.274V103.862H145.958V102.057Z" fill="#E6E6E6"/>
</g>
<defs>
<linearGradient id="paint0_linear" x1="172.743" y1="28.0069" x2="172.743" y2="61.1622" gradientUnits="userSpaceOnUse">
<stop stop-color="#8F00FF"/>
<stop offset="1" stop-color="#571AFF"/>
</linearGradient>
<linearGradient id="paint1_linear" x1="129.302" y1="93.5157" x2="129.302" y2="126.671" gradientUnits="userSpaceOnUse">
<stop stop-color="#8F00FF"/>
<stop offset="1" stop-color="#571AFF"/>
</linearGradient>
<clipPath id="clip0">
<rect width="236.444" height="192" fill="white" transform="translate(22)"/>
</clipPath>
</defs>
</svg>
