<svg width="280" height="192" fill="none" xmlns="http://www.w3.org/2000/svg"><g clip-path="url(#a)"><path d="M25.797 29.134h69.555a3.565 3.565 0 0 1 3.561 3.563v103.198a3.57 3.57 0 0 1-3.56 3.563H25.796a3.564 3.564 0 0 1-3.56-3.563V32.697a3.568 3.568 0 0 1 3.56-3.563Z" fill="#C4C4C4"/><path d="M26.657 31.725h67.829a1.836 1.836 0 0 1 1.834 1.835v101.471a1.839 1.839 0 0 1-1.834 1.835H26.657a1.834 1.834 0 0 1-1.834-1.835V33.561a1.838 1.838 0 0 1 1.834-1.836Z" fill="#EEE"/><path d="M73.794 69.624c0 6.523-6.028 5.537-13.465 5.537-7.436 0-13.464.986-13.464-5.537s2.944-18.086 13.464-18.086c10.883 0 13.465 11.563 13.465 18.086Z" fill="#2F2E41"/><path d="M89.632 124.842a3.968 3.968 0 0 0-2.306-5.625L71.9 86.567l-7.056 4.95 17.382 30.538a3.987 3.987 0 0 0 5.296 4.675 3.984 3.984 0 0 0 2.11-1.888Z" fill="#A0616A"/><path d="m76.212 89.434-.882-1.38-.45-.709-3.463-5.433a4.935 4.935 0 0 0-6.505-2.496 4.936 4.936 0 0 0-2.515 6.5l.793 2.832 1.62 5.787c.098.356.307.672.597.9a1.767 1.767 0 0 0 1.815.255l.026-.01 4.19-1.876.008-.003 3.198-1.432.797-.355c.229-.101.433-.251.598-.439a1.72 1.72 0 0 0 .376-.675 1.757 1.757 0 0 0-.203-1.466Z" fill="#CCC"/><path d="M54.103 135.727a1.774 1.774 0 0 0-1.506-.861 1.773 1.773 0 0 0-1.523.832c-.07.105-.126.219-.166.339l-.21.58h3.94l-.535-.89Z" fill="#2F2E41"/><path d="M60.245 74.787c5.004 0 9.06-4.06 9.06-9.066 0-5.007-4.056-9.066-9.06-9.066-5.004 0-9.06 4.06-9.06 9.066 0 5.007 4.056 9.066 9.06 9.066Z" fill="#A0616A"/><path d="M76.126 92.535a19.9 19.9 0 0 0-.088-.96 20.163 20.163 0 0 0-.709-3.521 19.679 19.679 0 0 0-5.677-9.017 5.374 5.374 0 0 0-3.59-1.373H53.3a5.377 5.377 0 0 0-5.192 3.974 5.385 5.385 0 0 0-.109 2.322c-.004.004-.004.004 0 .008.09.516.256 1.016.49 1.484l.517 1.03 3.46 6.924 4.305 8.615.251.502 16.044 4.414.066-.151c.059-.133.122-.269.177-.402.088-.2.173-.399.258-.595a31.473 31.473 0 0 0 2.568-10.264v-.004a23.67 23.67 0 0 0-.008-2.986Z" fill="#F5E30F"/><path d="M73.567 105.789a1.724 1.724 0 0 0-.254-.524 6.889 6.889 0 0 0-1.465-1.447l-.003-.004c-1.945-1.476-5.803-3.196-13.258-3.24h-.012a1.78 1.78 0 0 0-1.62 1.044l-.184.403-1.187 2.613a1.38 1.38 0 0 1-.461.557c-1.885 1.336-11.016 8.829-5.656 25.28a178.045 178.045 0 0 1 1.874 6.146h16.07l-.344-2.584a1.37 1.37 0 0 1 .026-.506l6.467-26.701.03-.114a1.78 1.78 0 0 0-.023-.923Z" fill="#4D26B9"/><path d="M78.61 75.9h7.01a1.106 1.106 0 0 1 1.106 1.106v1.846a.37.37 0 0 1 .369.37v.737a.37.37 0 0 1-.37.37v.738a.37.37 0 0 1 .37.369v.738a.37.37 0 0 1-.37.37v9.965a1.107 1.107 0 0 1-1.106 1.107H78.61a1.107 1.107 0 0 1-1.107-1.107V77.007a1.108 1.108 0 0 1 1.107-1.108Z" fill="#3F3D56"/><path d="M78.241 92.509V77.007a1.108 1.108 0 0 1 1.107-1.108h-.738a1.106 1.106 0 0 0-1.107 1.108v15.502a1.107 1.107 0 0 0 1.107 1.107h.738a1.107 1.107 0 0 1-1.107-1.107Z" fill="#6C63FF"/><path d="M81.93 82.543a1.476 1.476 0 1 0 0-2.952 1.476 1.476 0 0 0 0 2.952Z" fill="#fff"/><path d="M80.056 86.239c-.12.165-.227.34-.32.522l-18.163 2.183L58.9 85.39l-5.887 3.332 4.117 6.752a2.95 2.95 0 0 0 3.29 1.313l20.091-5.44a3.872 3.872 0 0 0 6.52-3.158 3.876 3.876 0 0 0-2.815-3.386 3.87 3.87 0 0 0-4.161 1.436Z" fill="#A0616A"/><path d="m61.42 86.67-5.091-6.6a4.611 4.611 0 0 0-5.974-1.93 4.612 4.612 0 0 0-2.36 5.82c-.003.004-.003.004 0 .008.076.2.168.396.273.583l.735 1.93 2.231 5.888a1.653 1.653 0 0 0 1.229 1.037c.386.079.788.016 1.132-.178l1.616-.904 5.703-3.189a1.678 1.678 0 0 0 .816-1.118 1.664 1.664 0 0 0-.31-1.347Z" fill="#F5E30F"/><path d="M49.816 67.41H53.4l1.58-5.452.317 5.452h1.712l.923-3.18.184 3.18h12.727c0-6.523-4.294-11.812-9.591-11.812h-1.845c-5.297 0-9.591 5.288-9.591 11.812Z" fill="#2F2E41"/><path d="M185.773 67.546h69.555a3.565 3.565 0 0 1 3.561 3.563v103.198a3.564 3.564 0 0 1-3.561 3.563h-69.555a3.564 3.564 0 0 1-3.561-3.563V71.109a3.566 3.566 0 0 1 3.561-3.563Z" fill="#C4C4C4"/><path d="M186.637 70.138h67.828a1.836 1.836 0 0 1 1.835 1.835v101.471a1.84 1.84 0 0 1-1.835 1.835h-67.828a1.834 1.834 0 0 1-1.835-1.835V71.974a1.84 1.84 0 0 1 1.835-1.836Z" fill="#EEE"/><path d="M189.52 142.929a3.701 3.701 0 0 1 2.675-1.642 3.706 3.706 0 0 1 2.976.998l11.714-6.05-.728 6.816-11.012 4.7a3.727 3.727 0 0 1-4.953.089 3.733 3.733 0 0 1-.672-4.911Z" fill="#FFB8B8"/><path d="M225.991 112.629a5.346 5.346 0 0 0-6.401-.144 5.55 5.55 0 0 0-1.125 1.077l-10.285 19.087-9.491 7.175a1.657 1.657 0 0 0-.62.964c-.064.282-.053.576.033.852l.934 3.012c.099.324.295.61.56.82a1.96 1.96 0 0 0 .377.217 1.64 1.64 0 0 0 1.309-.003l11.126-4.828.122-.056a17.091 17.091 0 0 0 8.532-8.323l5.851-12.354a5.358 5.358 0 0 0-.922-7.496Z" fill="#571AFF"/><path d="M227.172 105.595c5.004 0 9.06-4.058 9.06-9.065s-4.056-9.066-9.06-9.066c-5.004 0-9.061 4.059-9.061 9.066 0 5.007 4.057 9.065 9.061 9.065Z" fill="#FFB8B8"/><path d="m233.306 157.154-.092-.705-.428-3.215-.469-3.51-1.664.284-.642.107-.649.111-.214.037-16.504 2.805-2.055-1.237-.044-.025.018.188.388 4.019 1.848 19.201h22.916l-2.409-18.06Z" fill="#2F2E41"/><path d="M239.649 120.269a12.796 12.796 0 0 0-4.334-8.504 12.06 12.06 0 0 0-8.725-3.012c-3.043.203-5.382 1.454-6.998 3.732a12.796 12.796 0 0 0-1.815 4.001c-1.837 6.614-3.773 16.303-5.245 24.317a717.552 717.552 0 0 0-1.944 11.028c-.008.056-.015.108-.026.163-.17 1.015-.299 1.809-.384 2.336a1.659 1.659 0 0 0 .771 1.683l.015.012a12.2 12.2 0 0 0 6.157 1.731c2.627 0 5.777-.916 9.093-3.872a1.298 1.298 0 0 1 1.664-.07l.361.28 3.571 2.779a1.65 1.65 0 0 0 1.494.281.246.246 0 0 0 .045-.011 1.658 1.658 0 0 0 1.077-1.118c.199-.694.42-1.495.664-2.389l.31-1.17c.468-1.794.988-3.875 1.497-6.142 1.779-7.921 3.468-18.097 2.752-26.055Z" fill="#571AFF"/><path d="M224.731 158.101a3.707 3.707 0 0 1 1.093-2.944 3.712 3.712 0 0 1 2.957-1.052l5.486-11.994 3.631 5.813-5.767 10.498a3.733 3.733 0 0 1-3.842 3.128 3.726 3.726 0 0 1-3.558-3.449Z" fill="#FFB8B8"/><path d="m243.108 130.401-3.018-13.336a5.362 5.362 0 0 0-4.773-5.3 5.338 5.338 0 0 0-4.364 1.554 5.356 5.356 0 0 0-1.557 3.802l3.682 21.367-.011.045-1.952 7.371-1.081 4.093a.681.681 0 0 0-.022.118 1.6 1.6 0 0 0 .129 1.015c.123.265.314.492.554.657l2.091 1.447.498.347c.277.193.607.296.945.295a1.74 1.74 0 0 0 .427-.055 1.657 1.657 0 0 0 1.033-.812l5.777-10.671a17.147 17.147 0 0 0 1.642-11.937Z" fill="#571AFF"/><path opacity=".2" d="m230.128 126.131 3.32 14.026-4.795 11.811 3.32-11.442-1.845-14.395Z" fill="#000"/><path d="M234.507 101.978a6.083 6.083 0 0 0 2.054-1.232c.264-.235.547-.454.81-.689 2.323-2.08 3.021-5.655 1.985-8.596-1.037-2.941-3.615-5.202-6.561-6.221-2.946-1.019-6.211-.88-9.202-.003-3.222.945-6.449 3.072-7.214 6.343-.204.87-.212 1.836.381 2.57.178.223.411.394.676.497 1.044.4 1.626-.417 2.405-.764 1.072-.477 2.39.038 3.136.943.745.906 1.021 2.109 1.136 3.276.023.72.136 1.434.336 2.126a2.113 2.113 0 0 0 1.479 1.435c.841.156 1.649-.423 2.178-1.095.529-.672.903-1.47 1.528-2.054.625-.583 1.644-.891 2.329-.38.23.194.423.427.572.688 1.05 1.613.922 1.543 1.972 3.156Z" fill="#2F2E41"/><path d="m191.114 135.167-6.392 2.877a1.108 1.108 0 0 0-.555 1.465l.757 1.683a.371.371 0 0 0-.186.488l.303.673a.368.368 0 0 0 .488.185l.303.673a.371.371 0 0 0-.185.488l.302.674a.372.372 0 0 0 .488.185l4.087 9.088a1.105 1.105 0 0 0 1.463.556l6.392-2.878a1.107 1.107 0 0 0 .555-1.464l-6.357-14.137a1.103 1.103 0 0 0-1.463-.556Z" fill="#3F3D56"/><path d="m197.751 149.026-.9-2.004-2.361-5.249-2.073-4.61a1.063 1.063 0 0 0-1.402-.535l-3.519 1.583-1.612.728a1.066 1.066 0 0 0-.531 1.402l2.143 4.769.823 1.827 2.368 5.271a1.066 1.066 0 0 0 1.405.531l5.128-2.31a1.06 1.06 0 0 0 .531-1.403Z" fill="#6C63FF"/><path d="M193.84 12.197H85.049v35.732h4.12v9.346l9.341-9.346h95.33V12.196Z" fill="url(#b)"/><path d="M190.812 15.843H88.065v28.586h102.747V15.843Z" fill="#fff"/><path d="M147.759 21.665H96.108v1.582h51.651v-1.582Z" fill="#571AFF"/><path d="M182.822 26.318H96.108v1.76h86.714v-1.76Zm0 5.029H96.108v1.886h86.714v-1.886Zm-57.684 5.233h-29.03v1.808h29.03V36.58Z" fill="#E6E6E6"/><path d="M111.69 77.705h90.82v35.733h-3.44v9.345l-7.798-9.345H111.69V77.705Z" fill="url(#c)"/><path d="M199.536 81.352h-83.824v28.542h83.824V81.352Z" fill="#fff"/><path d="M164.413 87.165h-42.139v1.58h42.139v-1.58Z" fill="#571AFF"/><path d="M193.018 91.81h-70.744v1.758h70.744V91.81Zm0 5.022h-70.744v1.883h70.744v-1.883Zm-47.06 5.225h-23.684v1.805h23.684v-1.805Z" fill="#E6E6E6"/></g><defs><linearGradient id="b" x1="172.743" y1="28.007" x2="172.743" y2="61.162" gradientUnits="userSpaceOnUse"><stop stop-color="#8F00FF"/><stop offset="1" stop-color="#571AFF"/></linearGradient><linearGradient id="c" x1="129.302" y1="93.516" x2="129.302" y2="126.671" gradientUnits="userSpaceOnUse"><stop stop-color="#8F00FF"/><stop offset="1" stop-color="#571AFF"/></linearGradient><clipPath id="a"><path fill="#fff" transform="translate(22)" d="M0 0h236.444v192H0z"/></clipPath></defs></svg>