<svg width="280" height="192" fill="none" xmlns="http://www.w3.org/2000/svg"><path opacity=".1" d="M197.923 10.725c-10.108-.49-20.39-.407-30.15 2.006-9.761 2.414-19.043 7.381-24.598 15-3.18 4.361-5.078 9.469-8.782 13.48-6.425 6.957-16.927 9.347-26.619 11.745-22.76 5.609-45.646 13.712-62.155 28.893-2.37 2.176-4.68 4.66-5.217 7.668-.823 4.627 2.801 8.956 6.822 11.917 4.02 2.962 8.778 5.311 11.754 9.152 3.794 4.899 4.007 11.372 2.93 17.256-1.077 5.884-3.294 11.609-3.878 17.558-.145 1.467-.18 2.996.456 4.353.843 1.798 2.715 3.019 4.551 4.046a74.1 74.1 0 0 0 20.831 7.867c12.577 2.698 25.692 2.191 38.569 3.3 12.876 1.108 26.286 4.21 35.336 12.523 5.55 5.097 10.558 12.532 18.472 12.28 4.434-.141 8.351-2.854 12.775-3.156 4.979-.341 9.48 2.373 14.175 3.919 6.669 2.2 14.391 1.987 20.644-1.046 6.253-3.033 10.793-8.973 11.159-15.358.358-6.255-3.029-12.107-4.986-18.118-6.416-19.695 2.609-40.508 11.584-59.377 8.974-18.87 18.234-39.526 12.264-59.336-6.932-22.976-33.781-25.498-55.937-26.572Z" fill="#6C63FF"/><path d="m138.969 82.892 31.708-60.92h43.943" stroke="url(#a)" stroke-width="2" stroke-linejoin="round" stroke-dasharray="4 4"/><path d="m175.546 116.036 12.371 37.514h41.06" stroke="url(#b)" stroke-width="2" stroke-linejoin="round" stroke-dasharray="4 4"/><path d="M100.517 83.017 65.813 41.446" stroke="url(#c)" stroke-width="2" stroke-dasharray="4 4"/><path d="m116.747 108.359-44.07-9.3H36.416" stroke="url(#d)" stroke-width="2" stroke-linejoin="round" stroke-dasharray="4 4"/><path d="m122.925 116.536-63.23 62.231" stroke="url(#e)" stroke-width="2" stroke-dasharray="4 4"/><path d="M204.509 85.675H93.674v35.793h4.131v9.361l9.365-9.361h97.339V85.675Z" fill="#F4ED0F"/><path d="M200.477 81.519H91.406v35.793h4.131v9.361l9.365-9.361h95.575V81.519Z" fill="url(#f)"/><path d="M197.441 85.297H94.43v28.635h103.01V85.297Z" fill="#fff"/><path d="M159.444 90.713h-42.713v1.512h42.713v-1.512Z" fill="#571AFF"/><path d="M190.691 94.996h-73.96v1.637h73.96v-1.637Zm0 5.037h-73.96v1.638h73.96v-1.638Zm-46.241 4.995h-27.089v1.637h27.089v-1.637Z" fill="#E6E6E6"/><path d="M110.49 107.038a11.464 11.464 0 0 1-6.449-.393 11.437 11.437 0 0 1-5.196-3.832 7.436 7.436 0 0 1 1.782-1.182 7.05 7.05 0 0 1 3.162-.682 6.817 6.817 0 0 1 3.095.815 6.904 6.904 0 0 1 2.392 2.146 7.229 7.229 0 0 1 1.201 3.036l.013.092Z" fill="#F4ED0F"/><path d="M108.163 101.215c1.601 0 2.898-1.326 2.898-2.96 0-1.635-1.297-2.96-2.898-2.96-1.6 0-2.898 1.325-2.898 2.96 0 1.634 1.298 2.96 2.898 2.96Z" fill="#2F2E41"/><path d="M105.389 105.736a7.039 7.039 0 0 1-4.621-1.735 7.122 7.122 0 0 1-1.31-9.196 7.06 7.06 0 0 1 3.951-2.968 7.021 7.021 0 0 1 4.919.358 7.07 7.07 0 0 1 3.484 3.509 7.126 7.126 0 0 1 .347 4.946 7.093 7.093 0 0 1-2.961 3.965 7.02 7.02 0 0 1-3.809 1.121Zm0-14.032c-1.365 0-2.7.407-3.835 1.17a6.93 6.93 0 0 0-2.542 3.113 6.971 6.971 0 0 0-.393 4.008 6.947 6.947 0 0 0 1.889 3.552 6.887 6.887 0 0 0 3.534 1.899 6.868 6.868 0 0 0 3.988-.395 6.906 6.906 0 0 0 3.097-2.555 6.96 6.96 0 0 0-.86-8.758 6.892 6.892 0 0 0-4.878-2.034Z" fill="#3F3D56"/><path d="M187.205 0h54.773c.978.824 1.419 1.389 1.419 3.552h-.054l-.07 30.81a3.219 3.219 0 0 1-3.235 3.214l-25.738-.058-24.463-.053h-1.271a3.23 3.23 0 0 1-2.976-1.997 3.222 3.222 0 0 1-.242-1.233V32.92l.066-29.55h.029c.008-2.159.784-2.546 1.762-3.37Z" fill="#777"/><path opacity=".2" d="m188.328 3.89 51.976.117-.065 28.636a1.745 1.745 0 0 1-.509 1.221 1.726 1.726 0 0 1-1.222.504l-48.328-.11a1.91 1.91 0 0 1-1.9-1.911l.065-28.458h-.017Z" fill="#fff"/><path d="m188.302 3.909-.058 26.248a4.028 4.028 0 0 0 2.486 3.731 4.04 4.04 0 0 0 1.545.31l43.944.1" fill="#F5F5F5"/><path d="m240.249 3.909-.058 26.35a4.05 4.05 0 0 1-2.497 3.734 4.022 4.022 0 0 1-1.544.305l-43.877-.1" fill="#fff"/><path d="M43.734 32.145h33.63c.6.506.871.852.871 2.177h-.033l-.043 18.886a1.968 1.968 0 0 1-.584 1.395 1.98 1.98 0 0 1-1.402.575l-15.803-.035-15.02-.033h-.78a1.986 1.986 0 0 1-1.827-1.224 1.972 1.972 0 0 1-.149-.756v-.806l.04-18.113h.019c.005-1.323.481-1.56 1.081-2.066Z" fill="#777"/><path opacity=".2" d="m44.424 34.53 31.912.072-.04 17.552a1.06 1.06 0 0 1-1.063 1.057l-29.672-.067a1.17 1.17 0 0 1-1.167-1.171l.04-17.444h-.01Z" fill="#fff"/><path d="m44.408 34.541-.035 16.09a2.465 2.465 0 0 0 1.526 2.287c.3.124.623.19.948.19l26.982.06" fill="#F5F5F5"/><path d="m76.302 34.541-.035 16.153a2.485 2.485 0 0 1-1.533 2.288 2.488 2.488 0 0 1-.948.187l-26.94-.061" fill="#fff"/><path d="M57.668 147.932h45.055c.805.677 1.168 1.14 1.168 2.915h-.044l-.058 25.283a2.638 2.638 0 0 1-1.645 2.439 2.657 2.657 0 0 1-1.016.198l-21.172-.047-20.123-.044h-1.045a2.66 2.66 0 0 1-2.448-1.638 2.642 2.642 0 0 1-.2-1.013v-1.078l.055-24.249h.024c.006-1.772.645-2.089 1.45-2.766Z" fill="#777"/><path opacity=".2" d="m58.592 151.124 42.754.097-.053 23.498a1.418 1.418 0 0 1-1.424 1.416l-39.753-.091a1.563 1.563 0 0 1-1.563-1.568l.053-23.352h-.014Z" fill="#fff"/><path d="m58.57 151.14-.047 21.54a3.3 3.3 0 0 0 .968 2.342 3.34 3.34 0 0 0 2.347.974l36.149.081" fill="#F5F5F5"/><path d="m101.301 151.14-.047 21.624a3.32 3.32 0 0 1-3.325 3.313l-36.092-.082" fill="#fff"/><path d="M19.89 90.632h26.268c.469.396.68.667.68 1.705h-.025l-.034 14.791a1.551 1.551 0 0 1-.959 1.427 1.538 1.538 0 0 1-.592.116l-12.343-.028-11.732-.025h-.61a1.543 1.543 0 0 1-1.093-.456 1.547 1.547 0 0 1-.45-1.095v-.631l.032-14.186h.014c.003-1.036.376-1.222.845-1.618Z" fill="#777"/><path opacity=".2" d="m20.43 92.499 24.925.057-.031 13.747a.827.827 0 0 1-.83.828l-23.177-.053a.91.91 0 0 1-.91-.917l.03-13.662h-.008Z" fill="#fff"/><path d="m20.417 92.508-.028 12.602a1.933 1.933 0 0 0 1.192 1.791c.235.097.487.148.741.149l21.075.047" fill="#F5F5F5"/><path d="m45.329 92.508-.028 12.651a1.953 1.953 0 0 1-.569 1.372 1.933 1.933 0 0 1-1.369.566l-21.042-.048" fill="#fff"/><path d="M204.118 141.254h54.773c.978.822 1.42 1.386 1.42 3.545h-.054l-.07 30.76a3.21 3.21 0 0 1-.951 2.272 3.23 3.23 0 0 1-2.284.936l-25.738-.057-24.464-.054h-1.27a3.23 3.23 0 0 1-2.976-1.993 3.214 3.214 0 0 1-.243-1.232v-1.312l.066-29.501h.029c.008-2.155.784-2.542 1.762-3.364Z" fill="#777"/><path opacity=".2" d="m205.242 145.136 51.975.118-.065 28.588a1.728 1.728 0 0 1-1.069 1.592c-.21.087-.435.131-.661.13l-48.328-.109a1.907 1.907 0 0 1-1.9-1.908l.064-28.411h-.016Z" fill="#fff"/><path d="m205.215 145.156-.058 26.205a4.014 4.014 0 0 0 1.177 2.849 4.052 4.052 0 0 0 2.854 1.185l43.945.099" fill="#F5F5F5"/><path d="m257.163 145.156-.058 26.307a4.032 4.032 0 0 1-1.187 2.854 4.042 4.042 0 0 1-2.854 1.177l-43.877-.099" fill="#fff"/><defs><linearGradient id="a" x1="199.95" y1="43.338" x2="199.95" y2="88.146" gradientUnits="userSpaceOnUse"><stop stop-color="#8F00FF"/><stop offset="1" stop-color="#571AFF"/></linearGradient><linearGradient id="b" x1="218.616" y1="129.194" x2="218.616" y2="156.785" gradientUnits="userSpaceOnUse"><stop stop-color="#8F00FF"/><stop offset="1" stop-color="#571AFF"/></linearGradient><linearGradient id="c" x1="93.787" y1="56.026" x2="93.787" y2="86.602" gradientUnits="userSpaceOnUse"><stop stop-color="#8F00FF"/><stop offset="1" stop-color="#571AFF"/></linearGradient><linearGradient id="d" x1="101.17" y1="102.321" x2="101.17" y2="109.161" gradientUnits="userSpaceOnUse"><stop stop-color="#8F00FF"/><stop offset="1" stop-color="#571AFF"/></linearGradient><linearGradient id="e" x1="110.664" y1="138.363" x2="110.664" y2="184.134" gradientUnits="userSpaceOnUse"><stop stop-color="#8F00FF"/><stop offset="1" stop-color="#571AFF"/></linearGradient><linearGradient id="f" x1="179.326" y1="97.356" x2="179.326" y2="130.568" gradientUnits="userSpaceOnUse"><stop stop-color="#8F00FF"/><stop offset="1" stop-color="#571AFF"/></linearGradient></defs></svg>