<svg width="280" height="192" fill="none" xmlns="http://www.w3.org/2000/svg"><path opacity=".4" d="M83.228 64.651c-41.472-31.379-.256-52.62-.256-52.62 21.766-10.164 67.671 9.289 74.02 48.93 8.431 52.645 41.677 49.5 55.321 77.225 4.417 8.974-3.871 23.955-19.278 27.874-15.407 3.918-38.919-13.141-44.408-25.591-5.489-12.449-45.947-3.075-55.197-12.916-9.25-9.842-5.95-26.245-5.458-31.622.728-7.966 8.123-21.543-4.744-31.28Z" fill="#E9E1FF"/><path opacity=".15" d="M148.334 192c32.872 0 59.52-2.364 59.52-5.28 0-2.916-26.648-5.28-59.52-5.28s-59.52 2.364-59.52 5.28c0 2.916 26.648 5.28 59.52 5.28Z" fill="#571AFF"/><path d="M191.534 55.967h-.952v-25.72c0-3.949-1.59-7.735-4.421-10.527a15.205 15.205 0 0 0-10.674-4.36H120.23a15.202 15.202 0 0 0-10.674 4.36 14.783 14.783 0 0 0-4.422 10.526v141.107c0 3.948 1.591 7.735 4.422 10.527a15.204 15.204 0 0 0 10.674 4.36h55.257c4.003 0 7.843-1.569 10.674-4.36a14.783 14.783 0 0 0 4.421-10.527V74.276h.952V55.967Z" fill="#3F3D56"/><g clip-path="url(#a)"><path d="M186.734 30.322v140.956c0 2.95-1.183 5.779-3.289 7.864a11.284 11.284 0 0 1-7.94 3.258h-55.302a11.284 11.284 0 0 1-7.94-3.258 11.065 11.065 0 0 1-3.289-7.864V30.322c0-2.95 1.183-5.779 3.289-7.864a11.284 11.284 0 0 1 7.94-3.258h6.709a5.244 5.244 0 0 0 .514 4.942 5.317 5.317 0 0 0 1.918 1.716 5.38 5.38 0 0 0 2.508.621h31.53a5.38 5.38 0 0 0 2.508-.621 5.325 5.325 0 0 0 1.918-1.716 5.244 5.244 0 0 0 .514-4.942h7.183c2.978 0 5.834 1.172 7.94 3.258a11.068 11.068 0 0 1 3.289 7.864Z" fill="#fff"/><rect x="113.06" y="29.178" width="69.852" height="131.295" rx="2" fill="#F4ED0F"/><path d="m154.29 124.933-13.39-13.217c-7.394-7.3-7.452-19.078-.129-26.306 7.323-7.23 19.255-7.172 26.649.127 7.395 7.3 7.453 19.078.13 26.307l-13.26 13.089Z" fill="#fff"/><path fill-rule="evenodd" clip-rule="evenodd" d="m132.121 102.226 10.567 10.43 10.568-10.43a14.618 14.618 0 0 0 0-20.862c-5.836-5.761-15.299-5.761-21.135 0a14.618 14.618 0 0 0 0 20.862Zm10.567 16.735 13.761-13.583a19.035 19.035 0 0 0 0-27.167c-7.6-7.502-19.921-7.502-27.521 0a19.035 19.035 0 0 0 0 27.167l13.76 13.583Z" fill="#000A2C"/><ellipse cx="146.536" cy="171.503" rx="6.59" ry="6.565" fill="#C4C4C4"/></g><defs><clipPath id="a"><path fill="#fff" transform="translate(108.974 19.2)" d="M0 0h77.76v163.2H0z"/></clipPath></defs></svg>