<svg width="60" height="59" viewBox="0 0 60 59" fill="none" xmlns="http://www.w3.org/2000/svg">
<g filter="url(#filter0_dd)">
<path d="M3.5 29.5C3.5 14.8645 15.3645 3 30 3C44.6355 3 56.5 14.8645 56.5 29.5C56.5 44.1355 44.6355 56 30 56C15.3645 56 3.5 44.1355 3.5 29.5Z" fill="white"/>
</g>
<path d="M21.6786 31.9286C21.6786 23.881 28.2024 17.3571 36.25 17.3571C44.2976 17.3571 50.8214 23.881 50.8214 31.9286C50.8214 39.9762 44.2976 46.5 36.25 46.5C28.2024 46.5 21.6786 39.9762 21.6786 31.9286Z" fill="#F4ED0F"/>
<path fill-rule="evenodd" clip-rule="evenodd" d="M15.1786 29.5C15.1786 37.7843 21.8943 44.5 30.1786 44.5C38.4629 44.5 45.1786 37.7843 45.1786 29.5C45.1786 21.2157 38.4629 14.5 30.1786 14.5C21.8943 14.5 15.1786 21.2157 15.1786 29.5ZM30.1786 12.5C20.7897 12.5 13.1786 20.1112 13.1786 29.5C13.1786 38.8888 20.7897 46.5 30.1786 46.5C39.5674 46.5 47.1786 38.8888 47.1786 29.5C47.1786 20.1112 39.5674 12.5 30.1786 12.5Z" fill="#000A2C"/>
<path fill-rule="evenodd" clip-rule="evenodd" d="M23.9119 34.3668C24.3537 34.0354 24.9805 34.1249 25.3119 34.5668C27.7231 37.7816 32.268 37.8558 35.0809 34.5219C35.4371 34.0998 36.068 34.0463 36.4901 34.4025C36.9122 34.7586 36.9657 35.3895 36.6095 35.8116C33.0475 40.0334 26.9674 40.1075 23.7119 35.7668C23.3805 35.3249 23.4701 34.6981 23.9119 34.3668Z" fill="#000A2C"/>
<path fill-rule="evenodd" clip-rule="evenodd" d="M26.4008 22.361C26.9531 22.361 27.4008 22.8087 27.4008 23.361V28.5554C27.4008 29.1077 26.9531 29.5554 26.4008 29.5554C25.8485 29.5554 25.4008 29.1077 25.4008 28.5554V23.361C25.4008 22.8087 25.8485 22.361 26.4008 22.361Z" fill="#000A2C"/>
<path fill-rule="evenodd" clip-rule="evenodd" d="M33.4841 22.361C34.0364 22.361 34.4841 22.8087 34.4841 23.361V28.5554C34.4841 29.1077 34.0364 29.5554 33.4841 29.5554C32.9318 29.5554 32.4841 29.1077 32.4841 28.5554V23.361C32.4841 22.8087 32.9318 22.361 33.4841 22.361Z" fill="#000A2C"/>
<defs>
<filter id="filter0_dd" x="0.5" y="0" width="59" height="59" filterUnits="userSpaceOnUse" color-interpolation-filters="sRGB">
<feFlood flood-opacity="0" result="BackgroundImageFix"/>
<feColorMatrix in="SourceAlpha" type="matrix" values="0 0 0 0 0 0 0 0 0 0 0 0 0 0 0 0 0 0 127 0"/>
<feOffset dy="2"/>
<feColorMatrix type="matrix" values="0 0 0 0 0 0 0 0 0 0.137255 0 0 0 0 0.172549 0 0 0 0.28 0"/>
<feBlend mode="normal" in2="BackgroundImageFix" result="effect1_dropShadow"/>
<feColorMatrix in="SourceAlpha" type="matrix" values="0 0 0 0 0 0 0 0 0 0 0 0 0 0 0 0 0 0 127 0"/>
<feOffset/>
<feGaussianBlur stdDeviation="1.5"/>
<feColorMatrix type="matrix" values="0 0 0 0 0 0 0 0 0 0.137255 0 0 0 0 0.172549 0 0 0 0.3 0"/>
<feBlend mode="normal" in2="effect1_dropShadow" result="effect2_dropShadow"/>
<feBlend mode="normal" in="SourceGraphic" in2="effect2_dropShadow" result="shape"/>
</filter>
</defs>
</svg>
