<svg width="60" height="59" fill="none" xmlns="http://www.w3.org/2000/svg"><g filter="url(#a)"><path d="M3.5 29.5C3.5 14.864 15.364 3 30 3s26.5 11.864 26.5 26.5S44.636 56 30 56 3.5 44.136 3.5 29.5Z" fill="#fff"/></g><path d="M33.093 18.953a1 1 0 0 1 1.814 0l3.392 7.303a1 1 0 0 0 .786.572l7.994.969a1 1 0 0 1 .56 1.725l-5.897 5.482a1 1 0 0 0-.3.925l1.548 7.902a1 1 0 0 1-1.467 1.066l-7.037-3.914a1 1 0 0 0-.972 0l-7.037 3.914a1 1 0 0 1-1.467-1.066l1.548-7.902a1 1 0 0 0-.3-.925l-5.898-5.482a1 1 0 0 1 .56-1.725l7.995-.97a1 1 0 0 0 .786-.57l3.392-7.304Z" fill="#F4ED0F"/><path d="m30.227 17.269 3.391 7.303a1.75 1.75 0 0 0 1.377 1l7.994.97a.25.25 0 0 1 .14.43l-5.898 5.483a1.75 1.75 0 0 0-.525 1.618l1.548 7.902a.25.25 0 0 1-.366.267l-7.037-3.915a1.75 1.75 0 0 0-1.702 0l-7.037 3.915a.25.25 0 0 1-.366-.267l1.548-7.902a1.75 1.75 0 0 0-.525-1.618l-5.898-5.482a.25.25 0 0 1 .14-.432l7.994-.969a1.75 1.75 0 0 0 1.377-1l3.391-7.303a.25.25 0 0 1 .454 0Z" stroke="#000" stroke-width="1.5"/><defs><filter id="a" x=".5" y="0" width="59" height="59" filterUnits="userSpaceOnUse" color-interpolation-filters="sRGB"><feFlood flood-opacity="0" result="BackgroundImageFix"/><feColorMatrix in="SourceAlpha" values="0 0 0 0 0 0 0 0 0 0 0 0 0 0 0 0 0 0 127 0"/><feOffset dy="2"/><feColorMatrix values="0 0 0 0 0 0 0 0 0 0.137255 0 0 0 0 0.172549 0 0 0 0.28 0"/><feBlend in2="BackgroundImageFix" result="effect1_dropShadow"/><feColorMatrix in="SourceAlpha" values="0 0 0 0 0 0 0 0 0 0 0 0 0 0 0 0 0 0 127 0"/><feOffset/><feGaussianBlur stdDeviation="1.5"/><feColorMatrix values="0 0 0 0 0 0 0 0 0 0.137255 0 0 0 0 0.172549 0 0 0 0.3 0"/><feBlend in2="effect1_dropShadow" result="effect2_dropShadow"/><feBlend in="SourceGraphic" in2="effect2_dropShadow" result="shape"/></filter></defs></svg>