<svg width="37" height="37" viewBox="0 0 37 37" fill="none" xmlns="http://www.w3.org/2000/svg">
<g clip-path="url(#clip0_269_12412)">
<path opacity="0.4" d="M15.5154 12.249C16.4187 11.8154 17.4305 11.5625 18.5 11.5625C19.5695 11.5625 20.5812 11.8154 21.4846 12.249C21.4773 12.2563 21.4918 12.2418 21.4846 12.249L29.8312 3.89512C26.7021 1.46699 22.7781 0 18.5 0C14.2219 0 10.2979 1.46699 7.16875 3.89512L15.5154 12.249C15.5227 12.2563 15.5082 12.2418 15.5154 12.249ZM12.249 21.4846C11.8154 20.5812 11.5625 19.5695 11.5625 18.5C11.5625 17.4305 11.8154 16.4187 12.249 15.5154C12.2418 15.5082 12.2563 15.5227 12.249 15.5154L3.89512 7.16875C1.46699 10.2979 0 14.2219 0 18.5C0 22.7781 1.46699 26.7021 3.89512 29.8312L12.249 21.4846C12.2563 21.4773 12.2418 21.4918 12.249 21.4846ZM33.1049 7.16875L24.751 15.5154C24.7437 15.5227 24.7582 15.5082 24.751 15.5154C25.1846 16.4187 25.4375 17.4305 25.4375 18.5C25.4375 19.5695 25.1846 20.5812 24.751 21.4846C24.7437 21.4773 24.7582 21.4918 24.751 21.4846L33.1049 29.8312C35.533 26.7021 37 22.7781 37 18.5C37 14.2219 35.533 10.2979 33.1049 7.16875ZM21.4846 24.751C20.5812 25.1846 19.5695 25.4375 18.5 25.4375C17.4305 25.4375 16.4187 25.1846 15.5154 24.751C15.5082 24.7582 15.5227 24.7437 15.5154 24.751L7.16875 33.1049C10.2979 35.533 14.2219 37 18.5 37C22.7781 37 26.7021 35.533 29.8312 33.1049L21.4846 24.751C21.4918 24.7582 21.4773 24.7437 21.4846 24.751Z" fill="#E93A55"/>
<path d="M4.65347 4.65347C3.78218 5.52476 3.78218 6.93973 4.65347 7.81102L12.4602 15.6178C13.1224 14.2376 14.2376 13.1224 15.6178 12.4602L7.81102 4.65347C6.93973 3.78218 5.52476 3.78218 4.65347 4.65347ZM12.4602 21.3822L4.65347 29.189C3.78218 30.0603 3.78218 31.4752 4.65347 32.3465C5.52476 33.2178 6.93973 33.2178 7.81102 32.3465L15.6178 24.5398C14.2376 23.8776 13.1224 22.7623 12.4602 21.3822ZM21.3822 24.5398L29.189 32.3465C30.0603 33.2178 31.4752 33.2178 32.3465 32.3465C33.2178 31.4752 33.2178 30.0603 32.3465 29.189L24.5398 21.3822C23.8776 22.7623 22.7623 23.8776 21.3822 24.5398ZM24.5398 15.6178L32.3465 7.81102C33.2178 6.93973 33.2178 5.52476 32.3465 4.65347C31.4752 3.78218 30.0603 3.78218 29.189 4.65347L21.3822 12.4602C22.7623 13.1224 23.8776 14.2376 24.5398 15.6178Z" fill="#E93A55"/>
</g>
<defs>
<clipPath id="clip0_269_12412">
<rect width="37" height="37" fill="white"/>
</clipPath>
</defs>
</svg>
