<svg width="420" height="222" fill="none" xmlns="http://www.w3.org/2000/svg"><path fill="#F4ED0F" d="M0 0h420v222H0z"/><g clip-path="url(#a)"><path d="m219.199 162.004-23.954-23.89c-13.23-13.194-13.334-34.483-.232-47.55 13.102-13.066 34.447-12.962 47.677.232 13.23 13.194 13.333 34.483.232 47.549l-23.723 23.659Z" fill="#fff"/><path fill-rule="evenodd" clip-rule="evenodd" d="m183.333 120.961 18.905 18.854 18.905-18.854c10.441-10.413 10.441-27.296 0-37.709-10.441-10.412-27.369-10.412-37.81 0-10.44 10.413-10.44 27.296 0 37.709Zm18.905 30.25 24.619-24.552c13.596-13.56 13.596-35.545 0-49.105-13.597-13.56-35.641-13.56-49.237 0-13.596 13.56-13.596 35.545 0 49.105l24.618 24.552Z" fill="#000A2C"/></g><defs><clipPath id="a"><path fill="#fff" transform="translate(167 67)" d="M0 0h87v95H0z"/></clipPath></defs></svg>