<svg width="16" height="16" viewBox="0 0 16 16" fill="none" xmlns="http://www.w3.org/2000/svg">
<path fill-rule="evenodd" clip-rule="evenodd" d="M8.33341 15.3333C12.5676 15.3333 16.0001 11.9008 16.0001 7.66667C16.0001 3.43248 12.5676 0 8.33341 0C4.09923 0 0.666748 3.43248 0.666748 7.66667C0.666748 11.9008 4.09923 15.3333 8.33341 15.3333ZM12.0296 6.7179C12.426 6.33343 12.4358 5.70034 12.0513 5.30385C11.6668 4.90737 11.0338 4.89763 10.6373 5.2821L7.20842 8.60705L6.02956 7.46392C5.63308 7.07945 4.99999 7.08919 4.61551 7.48567C4.23104 7.88216 4.24078 8.51525 4.63727 8.89972L6.51227 10.7179C6.90016 11.094 7.51667 11.094 7.90456 10.7179L12.0296 6.7179Z" fill="#571AFF"/>
</svg>
