<svg width="359" height="203" viewBox="0 0 359 203" fill="none" xmlns="http://www.w3.org/2000/svg">
<rect width="359" height="203" fill="#FAFAFA"/>
<path d="M190.09 162.922L160.979 133.789C144.902 117.7 144.776 91.7399 160.698 75.8062V75.8062C176.62 59.8726 202.56 59.9988 218.638 76.0882V76.0882C234.715 92.1776 234.841 118.137 218.919 134.071L190.09 162.922Z" fill="#EEEEEE"/>
<path fill-rule="evenodd" clip-rule="evenodd" d="M147.113 112.871L170.087 135.862L193.061 112.871C205.75 100.173 205.75 79.5861 193.061 66.8883C180.373 54.1906 159.801 54.1906 147.113 66.8883C134.424 79.5861 134.424 100.173 147.113 112.871ZM170.087 149.759L200.005 119.819C216.528 103.284 216.528 76.4751 200.005 59.9398C183.482 43.4045 156.692 43.4045 140.169 59.9398C123.646 76.4751 123.646 103.284 140.169 119.819L170.087 149.759Z" fill="#DFDFDF"/>
</svg>
