<svg width="359" height="203" fill="none" xmlns="http://www.w3.org/2000/svg"><path fill="#FAFAFA" d="M0 0h359v203H0z"/><path d="m190.09 162.922-29.111-29.133c-16.077-16.089-16.203-42.05-.281-57.983 15.922-15.933 41.862-15.807 57.94.282 16.077 16.09 16.203 42.049.281 57.983l-28.829 28.851Z" fill="#EEE"/><path fill-rule="evenodd" clip-rule="evenodd" d="m147.113 112.871 22.974 22.991 22.974-22.991c12.689-12.698 12.689-33.285 0-45.983-12.688-12.697-33.26-12.697-45.948 0-12.689 12.698-12.689 33.285 0 45.983Zm22.974 36.888 29.918-29.94c16.523-16.535 16.523-43.344 0-59.88-16.523-16.535-43.313-16.535-59.836 0-16.523 16.536-16.523 43.345 0 59.88l29.918 29.94Z" fill="#DFDFDF"/></svg>