<svg width="16" height="16" fill="none" xmlns="http://www.w3.org/2000/svg"><g clip-path="url(#a)"><path d="M16 8.184c0-.544-.045-1.09-.141-1.625H8.16v3.08h4.409a3.7 3.7 0 0 1-1.632 2.431v2h2.63C15.113 12.675 16 10.617 16 8.183Z" fill="#4285F4"/><path d="M8.16 16c2.202 0 4.058-.708 5.41-1.931l-2.63-1.999c-.731.488-1.676.764-2.777.764-2.129 0-3.934-1.408-4.582-3.3H.867v2.06C2.252 14.295 5.074 16 8.16 16Z" fill="#34A853"/><path d="M3.578 9.533a4.702 4.702 0 0 1 0-3.063V4.41H.867a7.865 7.865 0 0 0 0 7.184l2.71-2.061Z" fill="#FBBC04"/><path d="M8.16 3.165a4.485 4.485 0 0 1 3.131 1.2l2.33-2.284A7.933 7.933 0 0 0 8.162 0C5.073 0 2.251 1.704.866 4.409l2.71 2.06c.646-1.895 2.454-3.304 4.583-3.304Z" fill="#EA4335"/></g><defs><clipPath id="a"><path fill="#fff" d="M0 0h16v16H0z"/></clipPath></defs></svg>