<svg width="244" height="160" fill="none" xmlns="http://www.w3.org/2000/svg"><g clip-path="url(#a)"><path d="M113.833 85.118a42.56 42.56 0 1 1 42.559-42.559 42.603 42.603 0 0 1-42.559 42.56Zm0-83.976a41.419 41.419 0 1 0 41.418 41.417 41.466 41.466 0 0 0-41.418-41.417Z" fill="#571AFF"/><path d="M119.469 56.266c2.637-.94 4.699-2.327 6.185-4.164 1.521-1.85 2.409-4.029 2.665-6.537l5.697-2.03c-.083 3.993-1.275 7.49-3.576 10.488-2.313 2.964-5.456 5.154-9.43 6.57-4.15 1.477-8.215 1.637-12.195.478-3.979-1.158-7.249-3.441-9.81-6.849l-5.117 1.823-1.203-3.377 4.379-1.559a25.384 25.384 0 0 1-1.136-2.687 22.126 22.126 0 0 1-.762-2.641l-4.379 1.56-1.184-3.324 5.065-1.804c-.14-2.843.288-5.532 1.287-8.068a18.693 18.693 0 0 1 4.504-6.716c2.003-1.942 4.394-3.408 7.172-4.397 3.974-1.416 7.801-1.689 11.479-.82 3.678.87 6.818 2.843 9.42 5.92l-5.698 2.028c-1.796-1.817-3.851-2.968-6.163-3.452-2.313-.484-4.805-.25-7.478.702-2.954 1.052-5.27 2.73-6.947 5.03-1.642 2.29-2.462 4.94-2.46 7.95l12.451-4.434 1.184 3.324-13.294 4.735c.195.881.449 1.762.762 2.641.363 1.02.759 1.91 1.188 2.668l13.241-4.716 1.203 3.376-12.397 4.416c1.947 2.239 4.273 3.709 6.98 4.41 2.729.652 5.518.471 8.367-.544Z" fill="#571AFF"/><path d="M130.735 73.84a3.91 3.91 0 0 1 1.346-1.208 3.807 3.807 0 0 1 3.481-.078 3.904 3.904 0 0 1 1.396 1.147L150 69.163l-1.808 7.09-12.108 3.223a3.83 3.83 0 0 1-4.982-.523 4.062 4.062 0 0 1-.367-5.113Z" fill="#FFB8B8"/><path d="M224.626 159.519a82.38 82.38 0 0 1 6.818-26 82.094 82.094 0 0 1 3.388-6.724c.316-.564-.55-1.07-.867-.506a83.524 83.524 0 0 0-9.293 25.639 83.48 83.48 0 0 0-1.049 7.591c-.06.643.944.639 1.003 0Z" fill="#E6E6E6"/><path d="M237.262 128.404a6.355 6.355 0 1 0 0-12.71 6.355 6.355 0 0 0 0 12.71Zm-11.986 31.284a53.446 53.446 0 0 1 4.423-16.868 53.594 53.594 0 0 1 2.198-4.362.324.324 0 0 0-.122-.435.325.325 0 0 0-.44.107 54.152 54.152 0 0 0-6.71 21.558c-.038.417.613.415.651 0Z" fill="#E6E6E6"/><path d="M233.474 139.502a4.122 4.122 0 1 0-4.123-4.122 4.122 4.122 0 0 0 4.123 4.122Zm-9.019 19.797a53.447 53.447 0 0 1-6.887-16.02 53.032 53.032 0 0 1-.95-4.791.328.328 0 0 0-.365-.269.324.324 0 0 0-.281.355 54.2 54.2 0 0 0 5.477 16.824 54.18 54.18 0 0 0 2.493 4.302c.226.352.737-.051.513-.401Z" fill="#E6E6E6"/><path d="M215.967 139.213a4.123 4.123 0 1 0 0-8.246 4.123 4.123 0 0 0 0 8.246Z" fill="#E6E6E6"/><path d="M204.805 98.995a3.949 3.949 0 0 0-3.498-4.943l-3.508-13.587-4.891 5.409 4.081 12.073a3.972 3.972 0 0 0 7.816 1.048Z" fill="#FFB8B8"/><path d="m185.92 47.947 15.88 41.647-6.823 1.887-16.421-43.779 1.188-1.14a3.795 3.795 0 0 1 6.176 1.385Z" fill="#CCC"/><path d="m143.43 144.736-3.655-1.86 5.433-14.982 5.394 2.745-7.172 14.097Z" fill="#FFB8B8"/><path d="m137.696 140.504 7.049 3.586-2.258 4.438L131 142.684a4.995 4.995 0 0 1 2.896-2.477 4.99 4.99 0 0 1 3.8.297Z" fill="#571AFF"/><path d="m176.061 155.837-4.098-.152-1.364-15.878 6.048.224-.586 15.806Z" fill="#FFB8B8"/><path d="m169.079 154.406 7.903.293-.184 4.976-12.879-.477a4.98 4.98 0 0 1 5.16-4.792Zm-29.036-15.16 5.372 1.982 23.733-37.387 1.622 48.034 6.125 1.239s9.009-60.45 9.867-65.456c.94-5.487-9.781-13.231-9.781-13.231l-.22-.675c-8.431 4.191-32.995 56.846-36.718 65.494Z" fill="#571AFF"/><path d="M176.817 42.36c5.047-1.702 7.759-7.173 6.057-12.22-1.702-5.048-7.174-7.76-12.221-6.058-5.048 1.702-7.76 7.174-6.058 12.221 1.702 5.048 7.174 7.76 12.222 6.058Z" fill="#FFB8B8"/><path d="m190.231 84.17-4.812-35.249a4.141 4.141 0 0 0-4.404-3.57l-5.388.39a8.536 8.536 0 0 0-7.191 5.061c-7.275 17.873-7.592 33.467-5.535 37.73 2.057 4.262 9.605 9.959 27.33-4.362Z" fill="#CCC"/><path opacity=".2" d="M178.87 62.201s-1.021 8.252-4.544 13.965l-12.644 5.298s-.184-6.56-.587-9.98c3.37-3.548 15.965-9.588 17.775-9.283Z" fill="#000"/><path d="M184.279 49.787a6.49 6.49 0 0 0-1.127-.448 4.974 4.974 0 0 0-4.595 1.059l-21.476 15.724L140 71.866l3.086 7.297 25.464-6.217 16.887-15.002a5.067 5.067 0 0 0 1.513-4.376 5.084 5.084 0 0 0-2.671-3.782Z" fill="#CCC"/><path d="M237.689 159.928H130.558a.398.398 0 1 1 0-.797h107.131a.398.398 0 0 1 0 .797Zm-129.777 0H.782a.397.397 0 0 1-.283-.68.397.397 0 0 1 .282-.117h107.131a.398.398 0 0 1 0 .797Z" fill="#3F3D56"/><path d="m69.218 155.576 3.92-1.203-2.774-15.693-5.786 1.776 4.64 15.12Z" fill="#A0616A"/><path d="m81.816 155.693-12.32 3.781-1.461-4.76 7.56-2.32a4.975 4.975 0 0 1 6.22 3.299Z" fill="#571AFF"/><path d="M34.433 155.666h4.101l1.95-15.816h-6.051v15.816Z" fill="#A0616A"/><path d="m46.442 159.473-12.887.001v-4.979l7.908-.001a4.98 4.98 0 0 1 4.98 4.979Z" fill="#571AFF"/><path d="M35.477 103.128a3.072 3.072 0 0 1-1.043-2.374 3.064 3.064 0 0 1 1.15-2.324l3.18-40.035 6.465 1.615-5.177 39.053a3.082 3.082 0 0 1-4.575 4.065Zm15.289-59.926a8.215 8.215 0 1 0 0-16.43 8.215 8.215 0 0 0 0 16.43Z" fill="#A0616A"/><path d="M39.546 59.189c-1.953-2.68-2.013-6.371.09-8.935 1.373-1.673 3.668-3.012 7.501-3.012 10.216 0 14.09 8.102 14.09 8.102s4.228 7.75 1.762 14.796c-2.466 7.045-2.466 7.75-2.466 7.75L44.32 76.48s2.734-6.985-4.773-17.291Z" fill="#F4ED0F"/><path d="m34.549 66.202 3.49-11.42a5.46 5.46 0 0 1 7.726-3.257 5.47 5.47 0 0 1 2.497 7.048L43.824 68.68l-9.275-2.478Z" fill="#F4ED0F"/><path d="m60.171 76.129 13.739 71.158-7.398 2.114-17.965-46.852-8.103 47.909-7.75 1.057s-3.4-63.39 11.625-75.034l15.852-.352Z" fill="#571AFF"/><path d="M78.636 68.743a3.532 3.532 0 0 0-.322.45l-16.568.804-3.19-9.74-5.54 2.633 5.214 14.507 20.49-4.008a3.51 3.51 0 1 0-.084-4.646Z" fill="#A0616A"/><path d="M50.52 56.368a5.461 5.461 0 0 1 5.764-6.088 5.47 5.47 0 0 1 5.12 5.45v11.038l-9.488 1.46-1.396-11.86Z" fill="#F4ED0F"/><path d="M52.573 43.276c-1.233-.005-2.184-1.304-2.129-2.535.055-1.232.883-2.316 1.88-3.042.996-.725 2.165-1.168 3.277-1.701 1.111-.534 2.213-1.2 2.9-2.224a4.923 4.923 0 0 0 .342-4.517 7.247 7.247 0 0 0-3.122-3.42 9.595 9.595 0 0 0-6.83-1.08c-2.303.506-5.737 1.906-7.087 3.84l-1.407 3.832c-1.434 1.725-.324 4.286.558 6.349.881 2.062 2.758 3.614 4.877 4.352 2.149.69 4.45.76 6.636.199" fill="#571AFF"/><path d="M45.066 30.512c-.606-.97-1.654-1.586-2.739-1.948a8.605 8.605 0 0 0-11.316 7.694c-.115 2.112.547 4.177.935 6.256.389 2.08.466 4.376-.68 6.153-.873 1.354-2.33 2.207-3.767 2.934-1.197.607-2.493 1.176-3.83 1.056-1.338-.121-2.682-1.18-2.646-2.523-.448.963-.75 1.986-.897 3.037-.094 1.056.166 2.195.928 2.931 1.109 1.07 2.864.992 4.387.76 3.297-.499 6.636-1.436 9.24-3.518 2.605-2.082 4.333-5.51 3.647-8.774-.286-1.363-.96-2.607-1.504-3.89-.544-1.282-.969-2.684-.719-4.055a4.928 4.928 0 0 1 2.506-3.339 6.556 6.556 0 0 1 4.189-.635c.936.154 2.105.392 2.66-.377a1.507 1.507 0 0 0-.03-1.608 4.432 4.432 0 0 0-1.203-1.19m136.835-2.825c4.021 3.105-6.979 3.8-12.981 3.759l1.876 5.562c1.475-2.975 3.835-.26 4.832 1.468 1.494 2.594 5.331 6.256 8.725.156 3.394-6.101-.22-9.838-2.452-10.944Z" fill="#571AFF"/></g><defs><clipPath id="a"><path fill="#fff" transform="translate(.383)" d="M0 0h243.234v160H0z"/></clipPath></defs></svg>