<svg width="292" height="180" viewBox="0 0 292 180" fill="none" xmlns="http://www.w3.org/2000/svg">
<g clip-path="url(#clip0_3_80195)">
<path d="M176.192 159.366L165.659 162.207L176.268 155.647C176.04 145.188 172.41 134.344 172.41 134.344C172.41 134.344 149.737 140.949 143.787 152.386C137.836 163.824 142.52 171.375 150.861 175.763C159.202 180.151 168.041 179.714 173.992 168.277C175.316 165.731 175.972 162.637 176.192 159.366Z" fill="#FCFBD9"/>
<path d="M163.646 161.601L163.353 162.165C159.91 168.701 156.151 173.236 152.121 175.702C152.063 175.738 152.003 175.771 151.945 175.808L151.781 175.533L151.626 175.267C156.041 172.638 159.747 167.588 162.751 161.888C162.85 161.705 162.95 161.52 163.044 161.331C164.295 158.907 165.421 156.382 166.422 153.88C166.501 153.687 166.579 153.49 166.657 153.293C167.962 149.983 169.049 146.738 169.921 143.879C169.984 143.678 170.043 143.475 170.102 143.274C171.558 138.431 172.365 134.792 172.538 133.984C172.561 133.886 172.572 133.831 172.575 133.818L172.878 133.882L172.882 133.88L173.188 133.945C173.185 133.958 173.149 134.142 173.073 134.478C172.795 135.74 172.006 139.146 170.704 143.502C170.645 143.698 170.585 143.902 170.522 144.103C169.817 146.423 168.975 148.988 167.991 151.627C167.744 152.29 167.494 152.94 167.24 153.578C167.165 153.777 167.087 153.974 167.008 154.167C165.926 156.872 164.805 159.35 163.646 161.601Z" fill="white"/>
<path d="M170.704 143.502C170.505 143.43 170.303 143.355 170.101 143.274C169.553 143.054 169.017 142.807 168.494 142.532C166.264 141.362 164.324 139.705 162.816 137.682C162.622 137.768 162.429 137.855 162.231 137.943C163.806 140.094 165.849 141.854 168.204 143.09C168.762 143.383 169.335 143.647 169.921 143.88C170.12 143.959 170.322 144.033 170.522 144.103C172.172 144.689 173.901 145.02 175.65 145.084C175.611 144.868 175.573 144.656 175.536 144.448C173.888 144.374 172.259 144.055 170.704 143.502Z" fill="white"/>
<path d="M167.24 153.577C167.043 153.488 166.849 153.393 166.657 153.292C166.597 153.264 166.536 153.232 166.478 153.201C164.064 151.931 161.991 150.093 160.435 147.843C158.88 145.593 157.889 142.998 157.547 140.28C157.35 140.387 157.153 140.493 156.958 140.603C157.347 143.376 158.386 146.015 159.991 148.303C161.596 150.591 163.72 152.461 166.187 153.759C166.265 153.8 166.343 153.841 166.422 153.879C166.618 153.979 166.812 154.074 167.008 154.166C170.051 155.573 173.432 156.068 176.747 155.593C176.744 155.382 176.741 155.17 176.735 154.957C173.504 155.436 170.204 154.957 167.24 153.577Z" fill="white"/>
<path d="M163.645 161.601C163.442 161.515 163.242 161.424 163.044 161.33C162.831 161.229 162.62 161.125 162.412 161.016C159.17 159.305 156.566 156.585 154.99 153.261C153.414 149.938 152.951 146.191 153.67 142.581C153.427 142.741 153.186 142.899 152.949 143.062C152.349 146.726 152.913 150.486 154.559 153.809C156.206 157.132 158.852 159.849 162.122 161.574C162.33 161.683 162.539 161.79 162.751 161.887C162.951 161.985 163.151 162.076 163.352 162.164C167.437 163.92 172.033 164.049 176.209 162.526C176.258 162.289 176.297 162.05 176.338 161.808C172.241 163.401 167.689 163.327 163.645 161.601Z" fill="white"/>
<path d="M37.8755 160.358L48.4083 163.199L37.7993 156.639C38.0275 146.18 41.6576 135.336 41.6576 135.336C41.6576 135.336 64.3302 141.941 70.2807 153.378C76.2313 164.816 71.5473 172.367 63.2063 176.755C54.8655 181.143 46.0261 180.707 40.0756 169.269C38.7511 166.723 38.0958 163.629 37.8755 160.358Z" fill="#FCFBD9"/>
<path d="M50.4218 162.593L50.7151 163.156C54.1578 169.692 57.9169 174.227 61.9466 176.693C62.0047 176.73 62.0641 176.762 62.1223 176.799L62.2868 176.524L62.4416 176.258C58.0265 173.629 54.321 168.579 51.3167 162.879C51.2181 162.696 51.118 162.511 51.0235 162.322C49.7729 159.898 48.6466 157.373 47.6454 154.871C47.5662 154.678 47.4883 154.481 47.4105 154.284C46.1059 150.974 45.0183 147.729 44.1464 144.871C44.0839 144.669 44.0242 144.466 43.9659 144.265C42.51 139.422 41.7024 135.783 41.5293 134.975C41.5065 134.877 41.4957 134.822 41.4927 134.81L41.1898 134.873L41.1855 134.872L40.8799 134.936C40.8829 134.949 40.9185 135.133 40.9947 135.47C41.2727 136.731 42.0621 140.137 43.3634 144.493C43.423 144.69 43.4828 144.893 43.5453 145.095C44.2504 147.415 45.093 149.979 46.0771 152.618C46.3232 153.281 46.5732 153.932 46.8273 154.569C46.9024 154.768 46.9802 154.965 47.0594 155.158C48.1413 157.863 49.2621 160.341 50.4218 162.593Z" fill="white"/>
<path d="M38.5315 145.439C38.4946 145.647 38.4565 145.859 38.417 146.075C40.1659 146.011 41.895 145.681 43.5452 145.095C43.7456 145.025 43.9474 144.95 44.1463 144.871C44.7322 144.638 45.3054 144.374 45.8636 144.081C48.2185 142.845 50.2613 141.085 51.8362 138.934C51.6385 138.846 51.4449 138.759 51.2514 138.673C49.7433 140.696 47.8029 142.354 45.5732 143.523C45.0504 143.798 44.5138 144.046 43.9657 144.265C43.7641 144.347 43.5623 144.421 43.3633 144.493C41.8078 145.046 40.1796 145.365 38.5315 145.439Z" fill="white"/>
<path d="M37.3325 155.95C37.3266 156.162 37.3235 156.374 37.3203 156.585C40.6356 157.06 44.0169 156.565 47.0596 155.158C47.2555 155.066 47.4499 154.971 47.6456 154.871C47.7248 154.833 47.8025 154.792 47.8802 154.752C50.3473 153.454 52.4713 151.583 54.0763 149.295C55.6813 147.007 56.7212 144.368 57.1097 141.595C56.9144 141.485 56.7177 141.379 56.521 141.272C56.1785 143.991 55.1875 146.585 53.6324 148.835C52.0772 151.085 50.0041 152.923 47.5898 154.193C47.5315 154.224 47.4705 154.256 47.4107 154.284C47.2192 154.385 47.0248 154.48 46.8275 154.57C43.8635 155.949 40.5636 156.428 37.3325 155.95Z" fill="white"/>
<path d="M37.7295 162.8C37.7703 163.042 37.8097 163.281 37.8589 163.518C42.0349 165.042 46.6306 164.912 50.7154 163.157C50.9169 163.068 51.117 162.977 51.317 162.879C51.5282 162.782 51.7378 162.676 51.946 162.566C55.2156 160.841 57.8617 158.125 59.5083 154.801C61.1549 151.478 61.7182 147.718 61.1183 144.054C60.8813 143.891 60.6403 143.734 60.3977 143.573C61.1168 147.183 60.6537 150.93 59.0777 154.254C57.5018 157.577 54.8978 160.297 51.6556 162.008C51.4474 162.117 51.2363 162.221 51.0238 162.322C50.8252 162.416 50.6251 162.507 50.4221 162.593C46.379 164.319 41.8262 164.394 37.7295 162.8Z" fill="white"/>
<path d="M87.2568 168.366L93.5272 170.057L87.2114 166.152C87.3473 159.926 89.5084 153.47 89.5084 153.47C89.5084 153.47 103.006 157.402 106.548 164.211C110.091 171.02 107.302 175.515 102.337 178.127C97.3713 180.74 92.109 180.48 88.5666 173.671C87.7781 172.155 87.3879 170.313 87.2568 168.366Z" fill="#FCFBD9"/>
<path d="M94.726 169.697L94.9006 170.033C96.9501 173.924 99.188 176.623 101.587 178.091C101.622 178.113 101.657 178.133 101.692 178.155L101.79 177.991L101.882 177.833C99.2532 176.267 97.0472 173.261 95.2587 169.868C95.2 169.759 95.1404 169.649 95.0842 169.536C94.3397 168.093 93.6691 166.59 93.0731 165.1C93.0259 164.986 92.9796 164.868 92.9332 164.751C92.1566 162.781 91.5091 160.848 90.9901 159.147C90.9528 159.027 90.9173 158.906 90.8826 158.787C90.0158 155.903 89.5351 153.737 89.432 153.256C89.4184 153.197 89.412 153.165 89.4102 153.157L89.2299 153.195L89.2274 153.194L89.0454 153.233C89.0472 153.24 89.0684 153.35 89.1138 153.55C89.2793 154.301 89.7492 156.329 90.5239 158.922C90.5594 159.039 90.595 159.16 90.6322 159.28C91.0519 160.661 91.5536 162.188 92.1394 163.759C92.2859 164.154 92.4348 164.541 92.586 164.921C92.6307 165.039 92.6771 165.156 92.7242 165.271C93.3683 166.881 94.0356 168.357 94.726 169.697Z" fill="white"/>
<path d="M87.6473 159.485C87.6253 159.609 87.6026 159.735 87.5791 159.864C88.6203 159.826 89.6497 159.629 90.632 159.28C90.7514 159.238 90.8715 159.194 90.9899 159.147C91.3387 159.008 91.68 158.851 92.0123 158.677C93.4142 157.941 94.6303 156.893 95.5679 155.612C95.4502 155.56 95.335 155.509 95.2198 155.457C94.3219 156.662 93.1668 157.648 91.8394 158.344C91.5281 158.508 91.2087 158.656 90.8824 158.786C90.7624 158.835 90.6422 158.879 90.5237 158.922C89.5977 159.251 88.6284 159.441 87.6473 159.485Z" fill="white"/>
<path d="M86.9335 165.742C86.93 165.868 86.9281 165.994 86.9263 166.12C88.9 166.403 90.9129 166.108 92.7244 165.271C92.841 165.216 92.9567 165.159 93.0732 165.1C93.1203 165.077 93.1666 165.053 93.2129 165.028C94.6816 164.256 95.946 163.142 96.9016 161.78C97.8571 160.418 98.4761 158.847 98.7074 157.196C98.5911 157.13 98.474 157.067 98.3569 157.004C98.1531 158.622 97.5631 160.167 96.6373 161.506C95.7114 162.846 94.4773 163.94 93.04 164.696C93.0053 164.714 92.9689 164.733 92.9334 164.75C92.8194 164.81 92.7036 164.867 92.5862 164.92C90.8216 165.741 88.8571 166.027 86.9335 165.742Z" fill="white"/>
<path d="M87.1694 169.82C87.1937 169.964 87.2172 170.106 87.2465 170.248C89.7325 171.155 92.4685 171.078 94.9003 170.032C95.0203 169.98 95.1394 169.926 95.2584 169.867C95.3841 169.81 95.5089 169.746 95.6329 169.681C97.5794 168.654 99.1547 167.037 100.135 165.058C101.115 163.08 101.451 160.841 101.093 158.661C100.952 158.563 100.809 158.469 100.664 158.374C101.093 160.523 100.817 162.754 99.8786 164.732C98.9404 166.711 97.3901 168.33 95.46 169.349C95.3361 169.414 95.2104 169.476 95.0839 169.536C94.9656 169.592 94.8465 169.646 94.7257 169.697C92.3187 170.725 89.6083 170.769 87.1694 169.82Z" fill="white"/>
<path d="M212.501 111.122L212.474 111.12C207.487 110.292 201.947 110.292 195.537 111.121H195.534C195.374 111.123 195.216 111.093 195.067 111.033C194.919 110.973 194.784 110.884 194.67 110.771C194.556 110.658 194.465 110.524 194.403 110.376C194.341 110.227 194.309 110.068 194.308 109.908V104.07C194.308 103.748 194.436 103.439 194.662 103.212C194.889 102.984 195.196 102.856 195.516 102.856C201.161 102.115 206.877 102.116 212.521 102.857H212.524C212.84 102.862 213.142 102.992 213.364 103.219C213.586 103.446 213.71 103.752 213.709 104.07V109.908C213.709 110.23 213.581 110.538 213.355 110.766C213.128 110.994 212.821 111.122 212.501 111.122Z" fill="white"/>
<path d="M214.224 105.512C214.638 105.262 214.992 104.923 215.262 104.52C215.532 104.116 215.711 103.658 215.786 103.178C215.86 102.698 215.829 102.207 215.695 101.74C215.561 101.273 215.326 100.841 215.008 100.475L220.831 90.2119L214.738 90.6078L210.142 100.293C209.566 100.871 209.221 101.642 209.172 102.459C209.124 103.276 209.375 104.083 209.878 104.726C210.381 105.369 211.101 105.805 211.902 105.95C212.703 106.095 213.529 105.939 214.224 105.512Z" fill="#FFB6B6"/>
<path d="M259.05 175.478H255.019L253.101 159.842L259.051 159.842L259.05 175.478Z" fill="#FFB6B6"/>
<path d="M260.078 179.409L247.079 179.408V179.243C247.079 177.894 247.612 176.6 248.561 175.645C249.51 174.691 250.797 174.155 252.139 174.155H252.139L260.078 174.156L260.078 179.409Z" fill="#2F2E41"/>
<path d="M231.428 175.478H227.397L225.479 159.842L231.429 159.842L231.428 175.478Z" fill="#FFB6B6"/>
<path d="M232.456 179.409L219.458 179.408V179.243C219.458 177.894 219.991 176.6 220.94 175.645C221.888 174.691 223.175 174.155 224.517 174.155H224.517L232.457 174.156L232.456 179.409Z" fill="#2F2E41"/>
<path d="M221.062 90.6523C221.062 90.6523 219.953 106.531 222.137 114.528C224.321 122.526 224.711 170.887 224.711 170.887H232.031L238.376 105.057L253.003 171.119L259.976 170.637L256.152 92.7912L221.062 90.6523Z" fill="#2F2E41"/>
<path d="M253.127 37.1251L247.53 33.0186L238.153 35.0718L235.615 41.137L231.241 43.3177C229.803 44.0347 228.559 45.0922 227.617 46.3992C226.675 47.7062 226.063 49.2237 225.833 50.8213L219.584 94.2128L256.152 92.7913L260.579 41.6894C260.625 41.1556 260.564 40.6179 260.4 40.1081C260.236 39.5983 259.972 39.1267 259.623 38.7214C259.275 38.3161 258.849 37.9852 258.371 37.7483C257.893 37.5114 257.373 37.3733 256.841 37.3422L253.127 37.1251Z" fill="#F4ED0F"/>
<path d="M228.927 46.707L225.55 51.2854L210.839 96.403L217.735 99.1793L228.776 78.1553L228.927 46.707Z" fill="#F4ED0F"/>
<path d="M241.019 30.3653C247.2 30.3653 252.211 25.3263 252.211 19.1104C252.211 12.8945 247.2 7.85547 241.019 7.85547C234.837 7.85547 229.826 12.8945 229.826 19.1104C229.826 25.3263 234.837 30.3653 241.019 30.3653Z" fill="#2F2E41"/>
<path d="M241.17 30.8753C245.681 30.8753 249.337 27.1982 249.337 22.6623C249.337 18.1263 245.681 14.4492 241.17 14.4492C236.659 14.4492 233.002 18.1263 233.002 22.6623C233.002 27.1982 236.659 30.8753 241.17 30.8753Z" fill="#FFB9B9"/>
<path d="M247.371 21.5973C242.171 19.711 240.411 18.5522 234.666 21.5973L232.549 13.0801H249.489L247.371 21.5973Z" fill="#2F2E41"/>
<path d="M240.111 14.2964C243.62 14.2964 246.464 11.4364 246.464 7.90844C246.464 4.38048 243.62 1.52051 240.111 1.52051C236.603 1.52051 233.759 4.38048 233.759 7.90844C233.759 11.4364 236.603 14.2964 240.111 14.2964Z" fill="#2F2E41"/>
<path d="M232.549 6.38794C232.55 4.74743 233.179 3.17021 234.305 1.98361C235.432 0.797019 236.969 0.0921702 238.599 0.0153536C238.498 0.010559 238.398 0 238.296 0C236.612 0 234.996 0.673013 233.804 1.87098C232.613 3.06895 231.944 4.69374 231.944 6.38793C231.944 8.08211 232.613 9.70691 233.804 10.9049C234.996 12.1028 236.612 12.7759 238.296 12.7759C238.398 12.7759 238.498 12.7653 238.599 12.7605C236.969 12.6837 235.432 11.9788 234.305 10.7922C233.179 9.60565 232.55 8.02844 232.549 6.38794Z" fill="#2F2E41"/>
<path opacity="0.1" d="M255.857 49.3057L253.579 72.1497L245.531 88.0993L255.857 49.3057Z" fill="#000A2C"/>
<path d="M14.9617 119.614H12.9888V121.268H14.9617V119.614Z" fill="#DFDFDF"/>
<path d="M201.582 121.268H197.694V119.614H201.582V121.268ZM193.806 121.268H189.918V119.614H193.806V121.268ZM186.03 121.268H182.142V119.614H186.03V121.268ZM178.254 121.268H174.366V119.614H178.254V121.268ZM170.478 121.268H166.591V119.614H170.478V121.268ZM162.702 121.268H158.815V119.614H162.702L162.702 121.268ZM154.927 121.268H151.039V119.614H154.927V121.268ZM147.151 121.268H143.263V119.614H147.151V121.268ZM139.375 121.268H135.487V119.614H139.375V121.268ZM131.599 121.268H127.711V119.614H131.599L131.599 121.268ZM123.823 121.268H119.935V119.614H123.823L123.823 121.268ZM116.048 121.268H112.16V119.614H116.048L116.048 121.268ZM108.272 121.268H104.384V119.614H108.272L108.272 121.268ZM100.496 121.268H96.608V119.614H100.496L100.496 121.268ZM92.72 121.268H88.8322V119.614H92.72L92.72 121.268ZM84.9442 121.268H81.0562V119.614H84.9442L84.9442 121.268ZM77.1683 121.268H73.2804V119.614H77.1684L77.1683 121.268ZM69.3925 121.268H65.5046V119.614H69.3926L69.3925 121.268ZM61.6166 121.268H57.7288V119.614H61.6166L61.6166 121.268ZM53.8407 121.268H49.953V119.614H53.8408L53.8407 121.268ZM46.0649 121.268H42.1772V119.614H46.065L46.0649 121.268ZM38.2891 121.268H34.4012V119.614H38.2892L38.2891 121.268ZM30.5133 121.268H26.6254V119.614H30.5134L30.5133 121.268ZM22.7375 121.268H18.8496V119.614H22.7376L22.7375 121.268Z" fill="#DFDFDF"/>
<path d="M14.9617 77.6191H12.9888V79.2725H14.9617V77.6191Z" fill="#DFDFDF"/>
<path d="M201.582 79.2725H197.694V77.6191H201.582V79.2725ZM193.806 79.2725H189.918V77.6191H193.806V79.2725ZM186.03 79.2725H182.142V77.6191H186.03V79.2725ZM178.254 79.2725H174.366V77.6191H178.254V79.2725ZM170.478 79.2725H166.591V77.6191H170.478V79.2725ZM162.702 79.2725H158.815V77.6191H162.702L162.702 79.2725ZM154.927 79.2725H151.039V77.6191H154.927V79.2725ZM147.151 79.2725H143.263V77.6191H147.151V79.2725ZM139.375 79.2725H135.487V77.6191H139.375V79.2725ZM131.599 79.2725H127.711V77.6191H131.599L131.599 79.2725ZM123.823 79.2725H119.935V77.6191H123.823L123.823 79.2725ZM116.048 79.2725H112.16V77.6191H116.048L116.048 79.2725ZM108.272 79.2725H104.384V77.6191H108.272L108.272 79.2725ZM100.496 79.2725H96.608V77.6191H100.496L100.496 79.2725ZM92.72 79.2725H88.8322V77.6191H92.72L92.72 79.2725ZM84.9442 79.2725H81.0562V77.6191H84.9442L84.9442 79.2725ZM77.1683 79.2725H73.2804V77.6191H77.1684L77.1683 79.2725ZM69.3925 79.2725H65.5046V77.6191H69.3926L69.3925 79.2725ZM61.6166 79.2725H57.7288V77.6191H61.6166L61.6166 79.2725ZM53.8407 79.2725H49.953V77.6191H53.8408L53.8407 79.2725ZM46.0649 79.2725H42.1772V77.6191H46.065L46.0649 79.2725ZM38.2891 79.2725H34.4012V77.6191H38.2892L38.2891 79.2725ZM30.5133 79.2725H26.6254V77.6191H30.5134L30.5133 79.2725ZM22.7375 79.2725H18.8496V77.6191H22.7376L22.7375 79.2725Z" fill="#DFDFDF"/>
<path d="M14.9617 35.625H12.9888V37.2783H14.9617V35.625Z" fill="#DFDFDF"/>
<path d="M201.582 37.2783H197.694V35.625H201.582V37.2783ZM193.806 37.2783H189.918V35.625H193.806V37.2783ZM186.03 37.2783H182.142V35.625H186.03V37.2783ZM178.254 37.2783H174.366V35.625H178.254V37.2783ZM170.478 37.2783H166.591V35.625H170.478V37.2783ZM162.702 37.2783H158.815V35.625H162.702L162.702 37.2783ZM154.927 37.2783H151.039V35.625H154.927V37.2783ZM147.151 37.2783H143.263V35.625H147.151V37.2783ZM139.375 37.2783H135.487V35.625H139.375V37.2783ZM131.599 37.2783H127.711V35.625H131.599L131.599 37.2783ZM123.823 37.2783H119.935V35.625H123.823L123.823 37.2783ZM116.048 37.2783H112.16V35.625H116.048L116.048 37.2783ZM108.272 37.2783H104.384V35.625H108.272L108.272 37.2783ZM100.496 37.2783H96.608V35.625H100.496L100.496 37.2783ZM92.72 37.2783H88.8322V35.625H92.72L92.72 37.2783ZM84.9442 37.2783H81.0562V35.625H84.9442L84.9442 37.2783ZM77.1683 37.2783H73.2804V35.625H77.1684L77.1683 37.2783ZM69.3925 37.2783H65.5046V35.625H69.3926L69.3925 37.2783ZM61.6166 37.2783H57.7288V35.625H61.6166L61.6166 37.2783ZM53.8407 37.2783H49.953V35.625H53.8408L53.8407 37.2783ZM46.0649 37.2783H42.1772V35.625H46.065L46.0649 37.2783ZM38.2891 37.2783H34.4012V35.625H38.2892L38.2891 37.2783ZM30.5133 37.2783H26.6254V35.625H30.5134L30.5133 37.2783ZM22.7375 37.2783H18.8496V35.625H22.7376L22.7375 37.2783Z" fill="#DFDFDF"/>
<path d="M77.2747 120.109H61.1621V179.629H77.2747V120.109Z" fill="#3F3D56"/>
<path d="M80.2342 120.109H64.1216V179.629H80.2342V120.109Z" fill="#571AFF"/>
<path d="M115.419 78.1152H99.3062V179.629H115.419V78.1152Z" fill="#3F3D56"/>
<path d="M118.378 78.1152H102.266V179.629H118.378V78.1152Z" fill="#571AFF"/>
<path d="M153.563 36.1211H137.451V179.63H153.563V36.1211Z" fill="#3F3D56"/>
<path d="M156.523 36.1211H140.41V179.63H156.523V36.1211Z" fill="#571AFF"/>
<path d="M13.153 40.4194C15.3323 40.4194 17.0989 38.6428 17.0989 36.4514C17.0989 34.2599 15.3323 32.4834 13.153 32.4834C10.9737 32.4834 9.20703 34.2599 9.20703 36.4514C9.20703 38.6428 10.9737 40.4194 13.153 40.4194Z" fill="#DFDFDF"/>
<path d="M13.153 82.4135C15.3323 82.4135 17.0989 80.637 17.0989 78.4455C17.0989 76.2541 15.3323 74.4775 13.153 74.4775C10.9737 74.4775 9.20703 76.2541 9.20703 78.4455C9.20703 80.637 10.9737 82.4135 13.153 82.4135Z" fill="#DFDFDF"/>
<path d="M13.153 124.409C15.3323 124.409 17.0989 122.632 17.0989 120.441C17.0989 118.249 15.3323 116.473 13.153 116.473C10.9737 116.473 9.20703 118.249 9.20703 120.441C9.20703 122.632 10.9737 124.409 13.153 124.409Z" fill="#DFDFDF"/>
<path d="M292 179.259H0V180H292V179.259Z" fill="#3F3D56"/>
<path d="M242.674 96.1958C242.64 95.7109 242.712 95.2244 242.885 94.7707C243.059 94.3169 243.329 93.9069 243.677 93.5695C244.025 93.2321 244.442 92.9755 244.9 92.8178C245.357 92.6602 245.843 92.6053 246.324 92.6569L251.334 81.9688L254.512 87.2122L249.267 96.558C249.127 97.3643 248.698 98.0909 248.061 98.6003C247.423 99.1096 246.623 99.3663 245.81 99.3217C244.997 99.277 244.229 98.9341 243.651 98.358C243.073 97.7819 242.725 97.0126 242.674 96.1958Z" fill="#FFB6B6"/>
<path d="M256.296 40.2883L258.36 37.5822C258.36 37.5822 263.388 36.5524 264.242 43.4969L263.704 74.3696L252.686 91.8078L245.531 89.9705L254.886 69.2552L256.296 40.2883Z" fill="#F4ED0F"/>
</g>
<defs>
<clipPath id="clip0_3_80195">
<rect width="292" height="180" fill="white"/>
</clipPath>
</defs>
</svg>
