<svg width="867" height="606" viewBox="0 0 867 606" fill="none" xmlns="http://www.w3.org/2000/svg">
<g clip-path="url(#clip0_7163_130194)">
<path d="M731.469 420.658C730.571 419.667 729.902 418.491 729.509 417.213C729.115 415.935 729.007 414.587 729.191 413.262C729.375 411.938 729.847 410.67 730.574 409.548C731.302 408.426 732.266 407.477 733.399 406.768L726.148 375.086L741.966 381.004L746.428 410.182C747.493 412.165 747.793 414.47 747.272 416.66C746.751 418.85 745.445 420.773 743.601 422.065C741.757 423.356 739.504 423.926 737.268 423.667C735.032 423.408 732.968 422.337 731.469 420.658Z" fill="#FFB8B8"/>
<path d="M730.374 395.516L716.468 368.631L718.349 300.934L719.242 302.816C720.283 305.01 744.682 356.663 742.942 373.955L745.731 389.757L730.374 395.516Z" fill="#000A2C"/>
<path d="M721.307 594.2H732.458L737.762 551.191L721.305 551.192L721.307 594.2Z" fill="#FFB8B8"/>
<path d="M718.463 590.559L740.422 590.559H740.424C744.135 590.559 747.694 592.033 750.318 594.657C752.943 597.282 754.417 600.841 754.417 604.552V605.007L718.463 605.009L718.463 590.559Z" fill="#000A2C"/>
<path d="M611.134 585.726L621.877 588.713L638.511 548.698L622.655 544.289L611.134 585.726Z" fill="#FFB8B8"/>
<path d="M609.369 581.457L630.525 587.34L630.527 587.34C634.102 588.335 637.137 590.709 638.962 593.94C640.787 597.172 641.254 600.996 640.259 604.571L640.138 605.009L605.498 595.378L609.369 581.457Z" fill="#000A2C"/>
<path d="M710.19 577.436L687.686 416.31L639.082 576.525L600.865 563.475L655.639 348.942L656 348.917L713.38 344.926L754.837 564.414L710.19 577.436Z" fill="#4D26B9"/>
<path d="M704.238 273.014C704.238 273.014 683.319 262.1 655.125 266.648C655.125 266.648 640.118 302.853 655.125 317.265L659.217 353.506C659.217 353.506 697.417 376.244 710.15 349.868L708.331 319.854C708.331 319.854 717.426 305.459 710.15 294.921C705.789 288.484 703.708 280.772 704.238 273.014Z" fill="#F4ED0F"/>
<path d="M706.888 437.857L710.56 361.669L700.169 271.036L700.646 270.963C714.277 268.908 718.648 292.391 718.828 293.392L742.554 427.534L706.888 437.857Z" fill="#000A2C"/>
<path d="M660.632 438.651L618.688 433.99L618.699 433.532C618.848 427.322 622.458 281.328 632.574 270.988C642.749 260.587 661.951 265.087 662.763 265.285L663.168 265.382L659.717 327.159L660.632 438.651Z" fill="#000A2C"/>
<path d="M668.357 351.394C667.086 351.811 665.74 351.944 664.413 351.785C663.085 351.625 661.809 351.176 660.673 350.47C659.538 349.763 658.572 348.817 657.842 347.696C657.112 346.576 656.637 345.309 656.45 343.985L624.555 337.736L636.39 325.688L664.864 333.469C667.108 333.302 669.337 333.964 671.126 335.33C672.915 336.696 674.141 338.67 674.572 340.88C675.003 343.089 674.608 345.38 673.462 347.318C672.317 349.256 670.5 350.706 668.357 351.394Z" fill="#FFB8B8"/>
<path d="M651.337 344.08L640.944 341.846C625.602 346.46 598.822 330.216 587.998 323C585.962 321.643 585.301 318.953 586.035 315.007C587.118 309.487 590.161 304.544 594.602 301.092L632.721 270.867L642.343 269.258L645.201 285.453L620.914 311.539L656.666 330.999L651.337 344.08Z" fill="#000A2C"/>
<path d="M647.226 252.938V231.938C647.226 223.053 650.756 214.532 657.038 208.249C663.321 201.967 671.842 198.438 680.726 198.438C689.611 198.438 698.132 201.967 704.414 208.249C710.697 214.532 714.226 223.053 714.226 231.938V252.938C714.225 254.131 713.75 255.274 712.907 256.118C712.063 256.962 710.919 257.436 709.726 257.438H651.726C650.533 257.436 649.389 256.962 648.546 256.118C647.702 255.274 647.228 254.131 647.226 252.938Z" fill="#000A2C"/>
<path d="M679.38 257.231C692.945 257.231 703.941 246.235 703.941 232.67C703.941 219.106 692.945 208.109 679.38 208.109C665.815 208.109 654.819 219.106 654.819 232.67C654.819 246.235 665.815 257.231 679.38 257.231Z" fill="#FFB8B8"/>
<path d="M654.145 232.575C653.91 232.304 653.736 231.986 653.635 231.642C653.534 231.298 653.508 230.936 653.56 230.582L656.469 210.322C656.527 209.91 656.686 209.518 656.933 209.183C657.18 208.848 657.507 208.58 657.883 208.403C672.734 201.453 687.793 201.444 702.644 208.376C703.037 208.563 703.376 208.849 703.627 209.206C703.877 209.563 704.031 209.979 704.072 210.413L706.014 230.699C706.048 231.046 706.008 231.396 705.898 231.726C705.788 232.057 705.61 232.361 705.376 232.619C705.142 232.876 704.856 233.082 704.537 233.223C704.219 233.364 703.874 233.437 703.526 233.437H698.6C698.125 233.436 697.659 233.3 697.258 233.044C696.857 232.789 696.537 232.425 696.335 231.995L694.209 227.44C694.071 227.145 693.842 226.903 693.554 226.75C693.267 226.597 692.938 226.542 692.616 226.592C692.295 226.643 691.999 226.797 691.772 227.03C691.546 227.264 691.402 227.565 691.361 227.888L690.941 231.247C690.865 231.851 690.571 232.407 690.115 232.81C689.658 233.213 689.07 233.436 688.461 233.437H656.034C655.676 233.437 655.322 233.36 654.996 233.211C654.67 233.063 654.379 232.845 654.145 232.575Z" fill="#000A2C"/>
<path d="M551 40.3672H0V383.481H551V40.3672Z" fill="#FCFBD9"/>
<path d="M137.865 106.465H36.949V172.06H137.865V106.465Z" fill="white"/>
<path d="M263.26 106.465H162.344V172.06H263.26V106.465Z" fill="white"/>
<path d="M388.656 106.465H287.74V172.06H388.656V106.465Z" fill="white"/>
<path d="M514.051 106.465H413.135V172.06H514.051V106.465Z" fill="white"/>
<path d="M137.865 199.309H36.949V264.904H137.865V199.309Z" fill="white"/>
<path d="M263.26 199.309H162.344V264.904H263.26V199.309Z" fill="white"/>
<path d="M388.656 199.309H287.74V264.904H388.656V199.309Z" fill="white"/>
<path d="M514.051 199.309H413.135V264.904H514.051V199.309Z" fill="white"/>
<path d="M137.865 292.152H36.949V357.748H137.865V292.152Z" fill="white"/>
<path d="M263.26 292.152H162.344V357.748H263.26V292.152Z" fill="white"/>
<path d="M388.656 292.152H287.74V357.748H388.656V292.152Z" fill="white"/>
<path d="M514.051 292.152H413.135V357.748H514.051V292.152Z" fill="white"/>
<path d="M144.309 80.7318C152.67 80.7318 159.447 73.9545 159.447 65.5944C159.447 57.2343 152.67 50.457 144.309 50.457C135.949 50.457 129.172 57.2343 129.172 65.5944C129.172 73.9545 135.949 80.7318 144.309 80.7318Z" fill="white"/>
<path d="M394.581 80.7317C402.941 80.7317 409.718 73.9545 409.718 65.5944C409.718 57.2342 402.941 50.457 394.581 50.457C386.22 50.457 379.443 57.2342 379.443 65.5944C379.443 73.9545 386.22 80.7317 394.581 80.7317Z" fill="white"/>
<path d="M150.365 0H138.255V69.6319H150.365V0Z" fill="#F4ED0F"/>
<path d="M400.635 0H388.526V69.6319H400.635V0Z" fill="#F4ED0F"/>
<path d="M486.414 139.263C486.409 144.743 484.426 150.037 480.83 154.173C477.234 158.308 472.267 161.007 466.841 161.774C461.414 162.54 455.893 161.323 451.293 158.345C446.692 155.368 443.32 150.83 441.797 145.565C440.274 140.301 440.702 134.664 443.002 129.69C445.302 124.716 449.32 120.738 454.318 118.489C459.315 116.24 464.956 115.87 470.205 117.447C475.453 119.023 479.957 122.441 482.887 127.072C485.195 130.719 486.418 134.947 486.414 139.263Z" fill="#571AFF"/>
<path d="M482.887 127.074L460.423 149.534C459.011 147.348 451.146 137.19 451.146 137.19C452.154 136.171 453.229 135.221 454.365 134.348L460.888 143.044L480.256 123.676C481.239 124.723 482.119 125.861 482.887 127.074Z" fill="white"/>
<path d="M235.623 232.106C235.618 237.587 233.635 242.881 230.039 247.016C226.443 251.152 221.476 253.851 216.05 254.618C210.623 255.384 205.102 254.167 200.502 251.189C195.901 248.211 192.529 243.673 191.006 238.409C189.483 233.145 189.911 227.508 192.211 222.533C194.511 217.559 198.529 213.582 203.527 211.333C208.524 209.084 214.165 208.714 219.414 210.29C224.662 211.867 229.166 215.285 232.096 219.916C234.404 223.563 235.627 227.791 235.623 232.106Z" fill="#571AFF"/>
<path d="M232.096 219.918L209.632 242.377C208.22 240.192 200.355 230.034 200.355 230.034C201.363 229.015 202.438 228.065 203.574 227.191L210.097 235.888L229.466 216.52C230.448 217.567 231.329 218.704 232.096 219.918Z" fill="white"/>
<path d="M110.228 232.106C110.222 237.587 108.24 242.881 104.644 247.017C101.048 251.152 96.0804 253.851 90.654 254.618C85.2277 255.384 79.7069 254.167 75.1062 251.189C70.5054 248.212 67.1338 243.674 65.6107 238.409C64.0877 233.145 64.5155 227.508 66.8157 222.533C69.1158 217.559 73.1338 213.582 78.1312 211.333C83.1287 209.084 88.7699 208.714 94.0185 210.29C99.267 211.867 103.77 215.285 106.701 219.916C109.008 223.563 110.232 227.791 110.228 232.106Z" fill="#571AFF"/>
<path d="M106.701 219.918L84.2368 242.377C82.8249 240.192 74.9591 230.034 74.9591 230.034C75.9672 229.015 77.0429 228.065 78.1789 227.191L84.7015 235.888L104.07 216.52C105.052 217.567 105.933 218.704 106.701 219.918Z" fill="white"/>
<path d="M865.331 605.738H484.331C484.065 605.738 483.811 605.633 483.624 605.445C483.436 605.258 483.331 605.003 483.331 604.738C483.331 604.473 483.436 604.219 483.624 604.031C483.811 603.844 484.065 603.738 484.331 603.738H865.331C865.596 603.738 865.85 603.844 866.038 604.031C866.225 604.219 866.331 604.473 866.331 604.738C866.331 605.003 866.225 605.258 866.038 605.445C865.85 605.633 865.596 605.738 865.331 605.738Z" fill="#777777"/>
</g>
<defs>
<clipPath id="clip0_7163_130194">
<rect width="866.331" height="605.74" fill="white"/>
</clipPath>
</defs>
</svg>
