<svg width="230" height="160" fill="none" xmlns="http://www.w3.org/2000/svg"><g clip-path="url(#a)"><path opacity=".1" d="M3.02 81.79c3.622 14.114 11.29 26.314 23.408 32.228 25.194 12.291 81.979 5.951 124.365-1.324 21.931-3.765 41.194-14.145 55.195-28.772L3.021 81.79Zm222.279-66.435h-23.256c-1.107 0-2.012-.824-2.012-1.832s.903-1.833 2.012-1.833h4.024c-1.107 0-2.012-.825-2.012-1.833s.903-1.831 2.012-1.831h-2.872c-1.106 0-2.012-.825-2.012-1.833s.904-1.833 2.012-1.833h12.139c-2.694-1.143-5.835-1.954-9.469-2.378-33.099-3.877-44.917-1.314-49.092 1.324a48.715 48.715 0 0 1-17.012 6.798c-20.421 3.841-58.613 8.463-93.23-1.48-17.204-4.94-29.99 3.42-37.656 17.365h220.462c-.287-4.056-1.149-7.803-2.73-11.08a2.108 2.108 0 0 1-1.308.446ZM1.047 52.33a85.297 85.297 0 0 0 .903 24.625l204.193 6.808a87.18 87.18 0 0 0 14.187-19.717L1.047 52.33Zm80.755 17.567h-4.024c1.105 0 2.012.825 2.012 1.832 0 1.008-.905 1.831-2.012 1.831H54.531c-1.104 0-2.011-.823-2.011-1.83 0-1.008.905-1.834 2.011-1.834h4.025c-1.105 0-2.012-.824-2.012-1.832s.905-1.833 2.012-1.833H55.68c-1.104 0-2.012-.823-2.012-1.831s.906-1.833 2.012-1.833h23.257c1.106 0 2.012.825 2.012 1.833s-.903 1.83-2.012 1.83h2.865c1.107 0 2.012.826 2.012 1.834s-.9 1.833-2.012 1.833Zm147.545-43.781L6.419 31.059C3.703 37.415 1.906 44.6 1.077 52.05H225.44a80.179 80.179 0 0 0 3.239-13.378c.668-4.379.936-8.612.668-12.555ZM46.341 42.314h-4.024c1.104 0 2.012.825 2.012 1.833s-.906 1.833-2.012 1.833H19.062c-1.105 0-2.012-.825-2.012-1.833s.905-1.833 2.012-1.833h4.024c-1.104 0-2.012-.823-2.012-1.83 0-1.009.905-1.834 2.012-1.834h-2.875c-1.105 0-2.012-.825-2.012-1.832 0-1.008.905-1.833 2.012-1.833h23.257c1.106 0 2.012.825 2.012 1.833s-.904 1.832-2.012 1.832h2.873c1.104 0 2.012.825 2.012 1.833s-.908 1.831-2.012 1.831Zm87.873 111.972c8.36 0 15.137-1.522 15.137-3.399s-6.777-3.398-15.137-3.398c-8.359 0-15.136 1.521-15.136 3.398 0 1.877 6.777 3.399 15.136 3.399Zm35.172 9.635c15.081 0 27.307-1.004 27.307-2.241 0-1.238-12.226-2.242-27.307-2.242-15.081 0-27.307 1.004-27.307 2.242 0 1.237 12.226 2.241 27.307 2.241Zm-109.64-2.241c15.082 0 27.307-1.522 27.307-3.399 0-1.876-12.225-3.398-27.306-3.398-15.082 0-27.307 1.522-27.307 3.398 0 1.877 12.225 3.399 27.306 3.399Zm41.635-17.012c11.347 0 20.546-1.521 20.546-3.398 0-1.877-9.199-3.398-20.546-3.398-11.348 0-20.547 1.521-20.547 3.398 0 1.877 9.2 3.398 20.547 3.398Z" fill="#F4ED0F"/><path d="M116.734 60.426c-.434-2.925-3.092-9.752-3.092-9.752a12.181 12.181 0 0 0-.157-.604c-1.885-6.478-4.495-7.042-4.495-7.042l-9.348-2.012a.728.728 0 0 1 .202.188c-.05.004-.099.011-.147.022a3.661 3.661 0 0 1-.82-1.77 4.92 4.92 0 0 1-.046-.3 6.576 6.576 0 0 0-.835-10.107c.441-.469.455-1.12.125-1.773-.736-1.529-2.338-2.496-3.984-2.97-1.257-.36-2.615-.476-3.867-.082-.71.226-1.358.604-2.024.94-1.241.62-2.615 1.11-3.543 2.13-.217.238-.418.542-.354.856.048.233.233.414.352.621.268.465.201 1.05.018 1.558-.183.507-.45.977-.577 1.497-.127.519-.079 1.13.312 1.503.187.144.382.278.583.402.214.182.401.393.557.626.37.496.74.994 1.107 1.495.519.663.983 1.367 1.386 2.106.276.543.49 1.123.858 1.61.107.142.23.272.368.386l-.109-.042a1.674 1.674 0 0 0 1.23.5h.056a.337.337 0 0 0 .225-.092v.202c.022.718.018 1.482-.032 2.2l-.087-.044a.754.754 0 0 0-.805.085l-8.605 6.905s-1.87 2.56-1.61 6.978l-1.508 6.625s-1.886 5.622-.435 9.635c1.45 4.014 2.292 6.31 2.292 6.31s.58 4.561 1.45 4.934c.872.372 1.248.573 1.248.573l.173 1.09s.058.107.16.286c.635 1.103 2.983 4.994 4.347 4.577.171 1.057.246 2.127.221 3.198l1.35 9.064s.942 2.464.883 3.756c-.058 1.292 1.099 3.133 1.099 3.133a5.984 5.984 0 0 0-.58 4.215c.552 2.414 1.248 13.536 1.248 13.536l1.006 2.696-.028 3.161a3.02 3.02 0 0 1-.624 1.409c-.652.708-.604 1.527-2.175 2.495-1.571.967-2.567 1.333-2.567 2.615a3.36 3.36 0 0 1-.049.533c-.144.942-.426 1.453 2.463 1.727 3.394.322 5.658-1.892 5.658-1.892s.499-.905 2.849-1.271c0 0 .805-.043.847-.753a17.55 17.55 0 0 0 0-1.231c-.038-.984-.133-2.133-.258-2.189-.157-.071-.43-1.06-.525-1.419h.654s.604-4.561 0-7.514c-.604-2.954-.058-5.048-.058-5.048l-.117-7.801s-.805-.861-.173-2.382c.632-1.521 0-9.034 0-9.034s.233-2.696.9-3.328c.665-.632.032-3.95 0-4.122l1.186 3.981s.522 7.916 1.626 9.348l.318 3.585s2.262 3.3 1.827 5.077c-.435 1.776.465 8.203.465 8.203v6.569s-1.016 2.637.402 3.585l.604-.024c-.202.187-.356.469-.592.712-.271.28-.426 1.344-.513 2.26-.072.774-.096 1.44-.096 1.44s.603.966 1.74 1.032c1.137.067 4.883 2.916 4.883 2.916s3.7 0 4.658-.201l.056-.015a1.25 1.25 0 0 0 .722-.589c.192-.327.254-.714.173-1.084-.118-.566-.567-1.186-1.561-1.713-2.473-1.303-2.841-2.525-2.841-2.525l-1.623-2.436h.231s-.143-2.582 1.624-5.479l-.115-12.762s.724-4.388-.521-6.77c0 0-.103-2.523.73-3.298.833-.775-1.108-8.603-1.108-8.603s-.403-4.203-.876-8.038c1.958 1.857 3.988-4.829 4.33-6.018h.05l-.022-.087.022-.084s-.434-1.545-.116-1.231c.318.314 1.102-.861 1.102-.861s-.116-6.397 1.248-9.62c1.364-3.223-.606-11.074-.606-11.074Zm-5.835 4.07.01-.018c.202 3.906-.038 12.24-.038 12.24s-.269 1.068-.557 2.325l-.201-7.917-.202-7.459.988.83Zm-24.97-2.692s.985 12.332 0 14.11c-.28.507-.516 1.409-.71 2.437-.327-.855-1.017-2.863-.77-3.927.32-1.377-.637-4.992-.637-5.077 0-.084-.087-2.012.603-3.484.69-1.473.238-2.111.238-2.111s.58-2.415 1.275-1.948Z" fill="url(#b)"/><path d="M88.331 89.578c-.86 3.776-4.276-1.934-5.054-3.304l-.157-.283.37-1.737 1.958-.805c.31.162.604.354.877.572 1.072.843 2.668 2.632 2.006 5.557Zm26.504-6.178s0 .027-.022.084c0 .024-.016.056-.026.09-.336 1.18-2.328 7.817-4.252 5.974-2.104-2.012-1.082-6.664-1.082-6.664h.014l4.426-.453.877.902.065.066Z" fill="#D38884"/><path d="m112.274 116.064.112 12.675c-1.736 2.877-1.593 5.433-1.593 5.433l-5.722.225c-1.397-.94-.403-3.557-.403-3.557v-6.527s-.883-6.376-.456-8.143c.426-1.766-1.793-5.03-1.793-5.03l-.314-3.559c-1.082-1.422-1.595-9.28-1.595-9.28l-1.161-3.967c.032.171.635 3.483 0 4.093-.636.61-.884 3.301-.884 3.301s.626 7.461 0 8.968c-.625 1.507.17 2.364.17 2.364l.114 7.744s-.541 2.078.056 5.01c.598 2.931 0 7.46 0 7.46h-6.138l.028-3.16-.994-2.676s-.684-11.046-1.225-13.439a6.002 6.002 0 0 1 .567-4.184s-1.137-1.821-1.08-3.103c.056-1.282-.878-3.726-.878-3.726l-1.323-8.996a17.475 17.475 0 0 0-.656-5.124c-.769-2.564-1.908-5.924-1.908-5.924l1.286.115 6.487.578s15.772-1.06 16.478-.18c.149.288.249.6.298.92.708 3.18 1.643 13.146 1.643 13.146s1.908 7.773 1.089 8.541c-.819.769-.718 3.272-.718 3.272 1.227 2.364.513 6.73.513 6.73Z" fill="#4D26B9"/><path d="M98.94 138.081c-.044.706-.83.749-.83.749-2.306.362-2.797 1.259-2.797 1.259s-2.213 2.199-5.551 1.879c-2.837-.273-2.562-.778-2.415-1.714a3.45 3.45 0 0 0 .046-.527c0-1.282.982-1.646 2.52-2.616 1.537-.97 1.494-1.772 2.134-2.477.64-.704.706-2.07.706-2.07.725-1.261 2.562.201 2.562.201.086.447 2.817.385 2.817.385s.362 1.452.549 1.537c.123.056.215 1.195.251 2.173.02.513.024.978.008 1.221Z" fill="#B07473"/><path opacity=".1" d="M98.94 138.081c-.044.706-.83.748-.83.748-2.306.363-2.797 1.26-2.797 1.26s-2.213 2.199-5.551 1.879c-2.837-.273-2.562-.778-2.415-1.714 1.268.314 3.69.752 5.105-.016 1.965-1.066 3.376-1.811 3.376-1.811l3.106-1.563c.018.509.022.974.006 1.217Z" fill="#571AFF"/><path d="M116.318 141.882a1.232 1.232 0 0 1-.709.585l-.054.014c-.94.202-4.571.202-4.571.202s-3.672-2.839-4.783-2.904c-1.11-.064-1.708-1.026-1.708-1.026s.022-.66.093-1.428c.086-.91.237-1.966.505-2.244.491-.513.603-1.207 1.708-.768 0 0 1.577-2.781 3.436-.632l1.924 2.917s.362 1.207 2.798 2.517c.974.523 1.409 1.139 1.532 1.7.077.365.016.745-.171 1.067Z" fill="#B07473"/><path opacity=".1" d="M116.318 141.882c-.218.183-.457.38-.709.585l-.054.014c-.94.201-4.571.201-4.571.201s-3.672-2.839-4.783-2.903c-1.11-.064-1.708-1.026-1.708-1.026s.022-.66.093-1.429c1.13.338 2.843.936 3.301 1.58.705.98 2.843 2.348 2.843 2.348s3.988-.384 5.759-.437c.077.365.016.745-.171 1.067Z" fill="#571AFF"/><path d="m100.799 42.532-5.251 5.55s-6.364-.468-5.253-2.347c.565-.958.654-2.962.603-4.704-.046-1.68-.219-3.11-.219-3.11s8.925-4.443 8.25-.3a6.82 6.82 0 0 0-.025 2.363c.38 2.093 1.895 2.548 1.895 2.548Z" fill="#D38884"/><path opacity=".1" d="M98.92 37.62a6.82 6.82 0 0 0-.024 2.364 6.55 6.55 0 0 1-4.672 1.95c-1.207 0-2.513-.992-3.489-1.565-.046-1.682-.056-2.449-.056-2.449s8.925-4.442 8.241-.3Z" fill="#571AFF"/><path d="M100.799 35.015a6.576 6.576 0 0 1-12.503 2.856 6.577 6.577 0 1 1 12.503-2.856Z" fill="#D38884"/><path opacity=".1" d="M109.747 84.375c-1.638 3.897-12.173 3.978-12.173 3.978v-4.25l-.638-.042c.276 1.217-.386 4.185-.386 4.185-8.326 1.175-10.356-3.57-10.356-3.57l.29-1.623 6.487.577s15.772-1.06 16.478-.179c.149.29.25.602.298.924Z" fill="#571AFF"/><path d="M97.574 87.84v-4.25l-.638-.04c.276 1.207-.386 4.185-.386 4.185-6.266.883-8.966-1.584-9.917-2.86a3.89 3.89 0 0 1-.439-.707l2.543-14.306.604-21.053.911-3.694.212-1.773v-.02h.022l.647.278 3.878 1.676 4.404-3.326.064-.046.22-.167.364.292.905.726 2.903 18.75s5.03 14.436 5.972 20.262c.038.234.068.451.093.654.621 5.32-12.362 5.419-12.362 5.419Z" fill="#F4ED0F"/><path d="M95.482 46.065a.374.374 0 1 0 0-.749.374.374 0 0 0 0 .749Zm.172 3.416a.374.374 0 1 0 0-.748.374.374 0 0 0 0 .748Zm.375 5.531a.374.374 0 1 0 0-.749.374.374 0 0 0 0 .749Zm.617 5.958a.374.374 0 1 0 0-.749.374.374 0 0 0 0 .748Zm.374 5.593a.374.374 0 1 0 0-.748.374.374 0 0 0 0 .748Zm.375 5.957a.374.374 0 1 0 0-.748.374.374 0 0 0 0 .748Zm-.149 5.893a.374.374 0 1 0 0-.748.374.374 0 0 0 0 .748Z" fill="#571AFF"/><path opacity=".1" d="M90.713 71.943s-.418 5.478-1.187 7.072c-.769 1.593-1.11 6.064-1.11 6.064l-1.785-.201a3.895 3.895 0 0 1-.439-.708l2.543-14.306.604-21.053.913-3.696.212-1.773.024-.01a.72.72 0 0 1 .636.01l.084.044c-.025.073-.05.147-.072.224-.697 2.179-.956 6.195-.956 6.195s1.006 7.346 1.11 10.762c.105 3.416-.577 11.376-.577 11.376Z" fill="#571AFF"/><path opacity=".1" d="M86.325 84.027a1.11 1.11 0 0 1-.068.133c-.693 1.169-2.447 1.911-2.98 2.114l-.157-.283.37-1.737 1.958-.805c.31.164.604.358.877.578Z" fill="#571AFF"/><path d="m81.583 56.068-1.624.968-1.479 6.577s-1.85 5.58-.428 9.565a1503.13 1503.13 0 0 0 2.25 6.267s.568 4.527 1.423 4.898c.856.37 1.224.569 1.224.569l.17 1.082s2.319-.786 3.138-2.172c.818-1.387-.604-4.83-.604-4.83s-1.223-2.933-.91-4.299c.314-1.366-.627-4.953-.627-5.03 0-.076-.085-1.994.603-3.46.689-1.467.23-2.093.23-2.093l-.429-4.185-2.937-3.857Z" fill="#571AFF"/><path opacity=".1" d="M109.881 83.144s-4.299 1.621-5.665.2c-1.367-1.42-1.226-8.085-1.226-8.085s-1.308-12.3-2.134-14.32c-.827-2.02-.403-16.599-.403-16.599s-.555-1.885-1.04-2.378a.53.53 0 0 0-.103-.082l.167.036.584.125.905.726 2.903 18.75s5.03 14.436 5.972 20.262l.04 1.365Z" fill="#571AFF"/><path opacity=".1" d="M114.835 83.57h-.048c-.542.07-5.318.648-5.338-.346-.001-.115.005-.23.018-.344l4.426-.453.878.902c.016.058.028.109.04.149l.024.092Z" fill="#571AFF"/><path d="m110.252 49.481 3.138 1.638s2.616 6.772 3.034 9.676c0 0 1.938 7.778.604 10.977-1.334 3.2-1.223 9.549-1.223 9.549s-.769 1.167-1.083.855c-.314-.312.115 1.223.115 1.223s-5.366.713-5.388-.342c-.022-1.054 1.231-6.092 1.231-6.092s.342-11.985-.143-13.865c-.485-1.879-.285-13.619-.285-13.619Z" fill="#571AFF"/><path opacity=".1" d="M100.886 62.247s-1.767 4.326-2.336 4.612c-.57.285.115 1.422.115 1.422s3.217-4.497 2.221-6.034Zm-1.055-15.174c.02-.083-2.106 2.086-2.676 2.414-.569.328 2.079-.02 2.676-2.414ZM93.91 61.905s-3.245 2.099-2.817 2.93c.429.83 2.817-2.93 2.817-2.93Zm5.893 30.633s2.763 1.776 7.06 2.213l-7.06-2.213ZM93.17 96.81s2.561 3.218 3.73 3.301c1.17.082-3.73-3.302-3.73-3.302Zm3.587 12.614c-.115.057-1.453 2.904-2.817 2.99-1.364.087 2.817-2.99 2.817-2.99Zm11.871 6.237s2.539-.569 3.104 1.252c0-.006-.171-.576-3.104-1.252Zm-1.708 10.414s3.076-.627 3.73.228c.654.855-3.73-.228-3.73-.228Zm-8.702 1.457c0 .028-3.13.628-3.018 1.026.112.399 3.34.342 3.454-.285a.604.604 0 0 0-.436-.741Zm7.678 2.7s5.144-.627 4.828.455c-.316 1.082-4.828-.455-4.828-.455ZM78.963 66.858c.028.085 3.388.542 3.843 1.624 0 0-3.302-1.54-3.823-1.54m4.707 8.713s-2.791.883-2.592 2.213c.199 1.33-.284-.616 2.591-2.213Zm-1.3 6.776s1.016-1.394 1.983-1.138c.968.255-1.984 1.138-1.984 1.138Zm15.934-52.555a1.581 1.581 0 0 1-.325.243c-.805.47-1.027 1.191-1.409 2.024-.356.763-.748 1.57-1.467 2.002-.927.56-2.148.354-3.112.841a2.414 2.414 0 0 0-1.288 2.38c.061.37.153.736.274 1.091.219.77.318 1.568.293 2.368a.414.414 0 0 1 0 .07 6.575 6.575 0 1 1 7.042-11.02h-.008Z" fill="#571AFF"/><path d="M98.153 27.896c-.722-1.517-2.293-2.479-3.909-2.947-1.233-.356-2.573-.473-3.796-.08-.699.22-1.332.603-1.986.93-1.22.617-2.56 1.103-3.477 2.115-.215.236-.402.538-.348.85.046.23.227.402.344.615.264.463.201 1.044.018 1.547-.183.503-.442.97-.567 1.487-.125.517-.077 1.123.305 1.491.172.163.39.266.576.402.21.181.393.39.545.62l1.087 1.485c.51.658.965 1.357 1.36 2.09.27.54.479 1.115.84 1.596.363.48.926.867 1.526.815a.296.296 0 0 0 .241-.115.317.317 0 0 0 .03-.15 7.72 7.72 0 0 0-.287-2.36 6.814 6.814 0 0 1-.274-1.091 2.425 2.425 0 0 1 1.288-2.38c.966-.487 2.187-.282 3.112-.84.72-.434 1.113-1.24 1.467-2.011.388-.833.604-1.556 1.408-2.024.805-.47.898-1.246.497-2.045Z" fill="#000A2C"/><path opacity=".1" d="M95.208 135.391s1.006 1.282.745 2.012c-.262.73-.745-2.012-.745-2.012Zm13.611 3.207s.223-1.718 1.119-1.734c.895-.016.939-.093 1.623.171.685.263 1.326.672 1.121.732-.205.06-1.177-.982-2.175-.449a7.17 7.17 0 0 0-1.688 1.28ZM92.206 47.43l2.817-1.973s-4.12-2.435-4.612-2.093c-.49.343-.829 3.42-.829 3.42l2.624.647Z" fill="#571AFF"/><path d="m92.194 47.304 2.817-2.012s-4.12-2.435-4.612-2.093c-.49.343-.829 3.59-.829 3.59l2.624.515Z" fill="#E1E7EF"/><path d="m92.194 47.304 2.817-2.012s-4.12-2.435-4.612-2.093c-.49.343-.829 3.59-.829 3.59l2.624.515Z" fill="#F4ED0F"/><path d="m90.866 43.215-.085-.042a.73.73 0 0 0-.79.083l-8.45 6.855s-1.838 2.54-1.582 6.925l4.984 7.06s.57-2.39 1.251-1.936c0 0 .968 12.243 0 14.008-.968 1.764-1.394 8.37-1.394 8.37l3.273.37s.342-4.47 1.11-6.064c.77-1.594 1.188-7.072 1.188-7.072s.692-7.96.578-11.376c-.115-3.416-1.111-10.762-1.111-10.762s.28-4.306 1.028-6.419Z" fill="#571AFF"/><path opacity=".1" d="m99.284 46.183-3.51-1.3s4.47-4.897 5.029-2.18l-1.519 3.48Z" fill="#571AFF"/><path d="m99.284 46.012-3.51-1.3s4.47-4.897 5.029-2.18l-1.519 3.48Z" fill="#E1E7EF"/><path d="m99.284 46.012-3.51-1.3s4.47-4.897 5.029-2.18l-1.519 3.48Z" fill="#F4ED0F"/><path opacity=".1" d="M99.17 41.846a.2.2 0 0 1 .144.032l-.145-.032Z" fill="#571AFF"/><path d="m99.508 41.505 9.315 2.012s2.563.57 4.414 7.004c1.851 6.434-2.535 14.317-2.535 14.317l-.967-.823.484 18.79s-4.299 1.622-5.665.202c-1.366-1.42-1.224-8.093-1.224-8.093s-1.309-12.297-2.136-14.319c-.827-2.022-.403-16.597-.403-16.597s-.76-2.605-1.283-2.493Z" fill="#571AFF"/><path opacity=".1" d="M108.03 53.479c-.13.12-.283 5.806.286 10.134a55.158 55.158 0 0 0 1.61 7.8l-.845-17.337s-.652-.968-1.051-.597Zm-1.138-4.898c.227.143 1.225 2.505.768 3.473-.457.968-.768-3.473-.768-3.473ZM98.1 27.896a5.142 5.142 0 0 0-2.05-2.145 4.871 4.871 0 0 1 1.536 1.811c.403.805.284 1.61-.499 2.05-.783.441-1.026 1.192-1.408 2.025-.356.762-.749 1.569-1.47 2.011-.925.56-2.146.353-3.112.84a2.43 2.43 0 0 0-1.287 2.382c.062.37.154.734.275 1.088.22.77.319 1.569.294 2.368a.319.319 0 0 1-.032.151.287.287 0 0 1-.24.115 1.386 1.386 0 0 1-.702-.13 1.631 1.631 0 0 0 1.207.472.239.239 0 0 0 .27-.266 7.721 7.721 0 0 0-.292-2.368 6.608 6.608 0 0 1-.275-1.09 2.425 2.425 0 0 1 1.287-2.38c.966-.487 2.187-.282 3.113-.84.72-.434 1.113-1.24 1.467-2.011.388-.833.603-1.556 1.408-2.024.805-.47.911-1.26.51-2.059Z" fill="#571AFF"/><path d="M155.415 53.163c-2.773-.054-5.219-2.012-6.606-4.404a4.435 4.435 0 0 1-.668-1.886 2.22 2.22 0 0 1 .077-.45 4.61 4.61 0 0 0 .201-.69 1.206 1.206 0 0 0 0-.282v-.016c.067-.51-.233-1.006-.603-1.354-.371-.348-.835-.604-1.222-.95-1.191-1.046-1.553-2.724-1.575-4.322v-.084c.014-.684.068-1.37.062-2.054a8.524 8.524 0 0 0-.05-1.163c-.115-.968-.483-1.954-1.243-2.572-1.984-1.61-5.32.067-7.374-1.454-.499-.372-.904-.922-1.509-1.067-.457-.11-.932.039-1.379.188-1.513.498-3.201 1.154-3.792 2.615-.338.84-.244 1.797-.554 2.646-.201.57-.585 1.058-.865 1.597a2.508 2.508 0 0 0-.322 1.334 1.51 1.51 0 0 0 .099.71c.105.272.274.514.493.707a2.36 2.36 0 0 1-.294.47c-.386.473-.98.805-1.382 1.276-.745.863-.716 2.036-.35 3.05.366 1.014 1.028 1.938 1.485 2.926.201.428.354.907.151 1.334-.143.295-.439.52-.668.776a2.437 2.437 0 0 0-.604 1.348c-4.529 1.035-4.533 4.674-4.533 4.674l-2.447 6.153s-.392 1.036-.853 2.404l-2.895-.519 2.012 3.368c-.38 1.372-.65 2.644-.561 3.284 0 0-.9 4.225.7 4.963l3.529 1.588c.153.094.317.167.489.22l.143.064a.376.376 0 0 0 .33 0h.048a.476.476 0 0 0 .201-.03.4.4 0 0 0 .177-.192.068.068 0 0 1 0-.02l1.056-.306.896 1.06c.402.284.805.53 1.185.751l-1.386 13.766s-.224 18.309-.9 22.482c-.249 1.545-.251 2.6-.157 3.316l-.026.044c.167 1.177.604 1.409.604 1.409v-.017a.145.145 0 0 0 .026.017c.204-.535.446-1.054.724-1.554v.302c-.014 1.553-.062 3.728-.223 5.143-.274 2.414.7 10.372.7 10.372l.336 7.243a6.693 6.693 0 0 1-.825 3.529c-.805 1.446-1.833 3.483-1.907 4.386a.902.902 0 0 0 0 .147l-1.726 2.076s-.675 1.042.849 1.463c.818.227 2.231 0 3.366-.268a2.247 2.247 0 0 0 1.744-2.189 7.744 7.744 0 0 1 1.425-2.734l.283 1.668 1.9.471.243-4.572c.098-.256.143-.53.131-.804.374-3.252-.881-2.96-.881-2.96a.178.178 0 0 1 .06.113l-.06-.111c-.771-1.521-.403-4.024-.403-4.024s1.006-7.243 1.35-9.157c.248-1.352.145-5.778.063-8.249 0-.102 0-.201-.011-.299 2.946-.039 6.556-.137 9.089-.383v.298l-.467 17.112a9.391 9.391 0 0 1-.656 3.183c0 .02-.014.038-.022.058a13.903 13.903 0 0 0-.928 4.485l-.217 5.432v.151c-.378.145-.976.566-.992 1.785-.026 1.787 3.123 1.191 3.123 1.191 3.146 0 3.173-3.275 3.173-3.275s.098-3.004.249-5.014c.151-2.01-.475-1.568-.475-1.568l-.048 5.718v.045-5.012l.048-.727v-.175l.397-5.897s2.899-9.826 3.348-11.712c.32-1.34.187-5.376.082-7.607 0-.103 0-.201-.016-.296.899-.08 1.694-.088 2.012-.088h.147s-.149-15.782-.525-21.73c-.377-5.947-.974-11.39-2.473-13.027-.905-.99-2.167-4.047-3.018-6.31a31.555 31.555 0 0 0 5.547 1.81c4.746.995 4.096-3.126 4.096-3.126l-.48-7.792h.032a39.86 39.86 0 0 0-.523-6.093c-.252-1.545-.636-3.142-1.224-4.426a36.2 36.2 0 0 0 1.523-.638c1.29-.57 2.743-1.376 2.928-2.766h-.062c.024-.1.041-.203.048-.306ZM125.993 64.43c.011.805-.02 2.201-.068 3.744l-1.507-2.012 1.511-2.45.064.718Zm20.821 7.13-2.511-.804a11.24 11.24 0 0 1 1.551-1.92l.217-.2-.078.015.12-.11.073-.016-.115.11.137-.028c.151.63.443 1.219.855 1.72.901.984-.247 1.234-.247 1.234h-.002Z" fill="url(#c)"/><path d="m131.561 143.99-.294 5.569-1.873-.468-.395-2.316 2.562-2.785Z" fill="#A27772"/><path opacity=".1" d="m131.561 143.99-.294 5.569-1.873-.468-.395-2.316 2.562-2.785Z" fill="#571AFF"/><path d="m138.436 150.298 2.857.591 2.118-1.871v-5.273l.048-.72v-.175l.395-5.861s2.859-9.757 3.304-11.63c.313-1.328.183-5.336.078-7.551-.042-.907-.078-1.515-.078-1.515l-6.308-1.527-.133 4.849-.461 16.989a9.405 9.405 0 0 1-.645 3.161l-.023.058a13.851 13.851 0 0 0-.915 4.451l-.213 5.402v.149l-.024.473Z" fill="#CC818C"/><path opacity=".1" d="m138.436 150.298 2.857.591 2.118-1.871v-.448a.602.602 0 0 1-.304.482l-.03.019c-.984.52-2.099.74-3.207.633l-1.115-.094a1.036 1.036 0 0 0-.295.072v.149l-.024.467Z" fill="#571AFF"/><path d="m143.077 149.218.03-.017a.601.601 0 0 0 .308-.523l.046-5.675s.616-.441.467 1.555c-.149 1.996-.245 4.977-.245 4.977s-.024 3.252-3.129 3.252c0 0-3.104.591-3.08-1.183.024-1.775 1.281-1.847 1.281-1.847l1.115.096a5.684 5.684 0 0 0 3.207-.635Z" fill="#B07473"/><path d="M123.555 149.091c.072 1.281 3.843.541 3.843.541l2.537-4.926s2.119-1.627 1.058-3.056a2.563 2.563 0 0 1-.155-.243l-.01-.012a1.787 1.787 0 0 1-.062-.115c-.761-1.509-.386-3.984-.386-3.984s.984-7.195 1.33-9.092c.243-1.34.142-5.736.062-8.195a152.636 152.636 0 0 0-.062-1.708l-6.26-1.676v1.867c-.014 1.543-.062 3.702-.221 5.107-.27 2.388.69 10.297.69 10.297l.332 7.197a6.662 6.662 0 0 1-.805 3.503c-.784 1.436-1.811 3.46-1.881 4.356a.92.92 0 0 0-.01.139Z" fill="#CC818C"/><path opacity=".1" d="M123.555 149.091c.072 1.281 3.843.541 3.843.541l2.537-4.926s2.119-1.627 1.058-3.056a2.563 2.563 0 0 1-.155-.243c-.034.746-.853 2.615-.853 2.615s-2.094 4.191-2.76 5.151c-.666.96-3.559-.179-3.668-.219a.893.893 0 0 0-.002.137Z" fill="#571AFF"/><path d="M130.766 141.274s1.239-.288.869 2.939a2.08 2.08 0 0 1-.98 1.845c-.887.558-2.255 1.757-2.947 4.089a2.228 2.228 0 0 1-1.721 2.173c-1.118.261-2.513.491-3.319.265-1.503-.418-.837-1.452-.837-1.452l1.724-2.046s3.006 1.183 3.67.221c.664-.962 2.76-5.149 2.76-5.149s1.149-2.613.781-2.885Z" fill="#B07473"/><path opacity=".1" d="m140.85 115.364-.133 4.849c1.68-.163 2.883-.391 3.089-.711.444-.688 2.058-.977 3.43-1.096-.042-.908-.078-1.515-.078-1.515l-6.308-1.527Zm-15.4 3.717c.161-.328.397-.614.69-.832.664-.369.592 2.366.592 2.366s2.213.02 5.04-.016c-.032-1.023-.062-1.711-.062-1.711l-6.26-1.674s.012.777 0 1.867Z" fill="#571AFF"/><path d="M124.736 119.729s.74-2.012 1.408-2.37c.668-.358.592 2.364.592 2.364s16.261.149 17.074-1.108c.812-1.258 5.543-1.183 5.543-1.183s-.147-15.67-.518-21.58c-.37-5.912-.959-11.31-2.438-12.936-.956-1.052-2.316-4.457-3.157-6.726a85.057 85.057 0 0 1-.76-2.143l-15.521.885-.127 1.258-1.647 16.482s-.222 18.182-.888 22.321c-.666 4.139.439 4.736.439 4.736Z" fill="#4D26B9"/><path opacity=".1" d="M142.546 118.615c.805-1.256 5.543-1.183 5.543-1.183s-.147-15.67-.517-21.58c-.37-5.912-.96-11.31-2.439-12.936-.959-1.056-2.315-4.457-3.156-6.726a81.359 81.359 0 0 1-.737-2.075l1.207-.068s.304.904.763 2.143c.841 2.27 2.199 5.674 3.155 6.726 1.479 1.626 2.07 7.022 2.438 12.935.369 5.913.519 21.581.519 21.581s-4.73-.073-5.545 1.183c-.694 1.072-12.659 1.122-16.132 1.112 4.457-.01 14.273-.142 14.901-1.112Zm-17.665-1.256c.299-.167.448.296.523.857-.269.487-.502.993-.698 1.513 0 0-.429-.231-.604-1.408.246-.421.517-.817.779-.962Z" fill="#571AFF"/><path d="M129.532 36.135c-1.074 1.465.013 3.547-1.14 4.972-.381.47-.966.805-1.362 1.267-.735.858-.707 2.023-.346 3.029.36 1.006 1.005 1.923 1.464 2.905.201.424.35.901.149 1.324-.141.294-.432.517-.66.77-.74.827-.76 1.976-.362 2.95.398.974 1.159 1.81 1.909 2.636.296.324.67.682 1.163.672.26-.02.51-.102.731-.24a7.448 7.448 0 0 0 3.388-9.716c-.624-1.495-1.664-2.927-1.674-4.507 0-1.253.644-2.45.758-3.698.139-1.517-.758-3.925-2.589-4.587.121.974-.883 1.47-1.429 2.223Z" fill="#4D26B9"/><path opacity=".1" d="M129.532 36.135c-1.074 1.465.013 3.547-1.14 4.972-.381.47-.966.805-1.362 1.267-.735.858-.707 2.023-.346 3.029.36 1.006 1.005 1.923 1.464 2.905.201.424.35.901.149 1.324-.141.294-.432.517-.66.77-.74.827-.76 1.976-.362 2.95.398.974 1.159 1.81 1.909 2.636.296.324.67.682 1.163.672.26-.02.51-.102.731-.24a7.448 7.448 0 0 0 3.388-9.716c-.624-1.495-1.664-2.927-1.674-4.507 0-1.253.644-2.45.758-3.698.139-1.517-.758-3.925-2.589-4.587.121.974-.883 1.47-1.429 2.223Zm11.916 53.28c-2.151.113-4.175 1.038-6.059 2.084-1.883 1.047-3.706 2.232-5.732 2.974m10.455.01a8.868 8.868 0 0 0-5.584 2.716c-.523.553-.974 1.173-1.519 1.704a6.742 6.742 0 0 1-2.994 1.696m10.537-2.259a9.764 9.764 0 0 0-4.491 2.708c-.329.356-.629.737-.959 1.093-1.781 1.911-4.296 2.925-6.724 3.885" fill="#571AFF"/><path d="M140.369 44.851c.048 1.719.195 3.433.443 5.135.201 1.207.483 2.294.887 2.774 1.183 1.409-5.764 3.29-5.764 3.29l-4.103-3.179s3.252-2.994 1.737-5.913c-1.515-2.92 6.8-2.107 6.8-2.107Z" fill="#BE707B"/><path opacity=".1" d="M126.828 76.19h16.408c-.457-1.24-.76-2.143-.76-2.143l-15.521.885-.127 1.258Z" fill="#571AFF"/><path d="M125.772 75.894h17.543c-.493-1.764 0-3.396.702-4.651a10.269 10.269 0 0 1 1.837-2.383l.121-.11 6.124-1.356.33-.073s.05-11.136-3.893-12.665c-3.944-1.53-6.308-3.596-6.308-3.596l-5.418 1.674-3.992-2.012c-1.281 1.378-4.682.837-4.682.837-5.567.64-5.567 4.829-5.567 4.829s3.251 7.587 3.499 7.587c.247 0-.296 11.92-.296 11.92Z" fill="#F4ED0F"/><path opacity=".1" d="M131.828 68.814s-3.577-.793-4.794-2.179l4.794 2.179Zm18.038-4.154-4.149 3.4c.03.27.076.539.137.804l.121-.11 6.124-1.357-2.233-2.738Zm-11.233 10.051s.907.511 2.298 1.183h2.384c-.493-1.764 0-3.396.702-4.651l-4.203-1.36c1.43 1.33-1.181 4.828-1.181 4.828Z" fill="#571AFF"/><path d="m125.032 55.052-2.463 1.33-2.414 6.11s-2.513 6.7-2.268 8.475c0 0-.885 4.189.69 4.927l4.105 1.86a.382.382 0 0 0 .493-.528c-.586-1.108-1.23-2.843-.202-3.796l-1.183-2.463 4.276-6.998 1.428-2.414-2.462-6.503Z" fill="#F4ED0F"/><path opacity=".1" d="M130.51 67.416c.214.869.934 2.213 3.318 2.714l2.616 2.143 2.782 1.261 1.135.513.481-3.474-1.093-.604-1.273-.696s-2.873-5.205-7.422-3.018a1.004 1.004 0 0 0-.544 1.16Z" fill="#571AFF"/><path d="M130.659 67.12c.213.871.932 2.213 3.316 2.714l2.616 2.143 2.784 1.261 1.133.513.481-3.474-1.093-.604-1.263-.69s-2.875-5.205-7.425-3.008a1.006 1.006 0 0 0-.549 1.145Z" fill="#BE707B"/><path opacity=".1" d="M135.786 49.358a6.356 6.356 0 1 0 0-12.712 6.356 6.356 0 0 0 0 12.712Z" fill="#571AFF"/><path d="M135.786 49.212a6.356 6.356 0 1 0 0-12.713 6.356 6.356 0 0 0 0 12.712Z" fill="#BE707B"/><path opacity=".1" d="m139.723 56.436-1.911-3.714s2.796-1.13 3-2.44c.203-1.31 2.68 1.535 2.144 2.479-.535.943-3.233 3.675-3.233 3.675Z" fill="#571AFF"/><path d="m139.723 56.14-1.911-3.713s2.796-1.131 3-2.44c.203-1.31 2.68 1.536 2.144 2.478-.535.941-3.233 3.676-3.233 3.676Z" fill="#F4ED0F"/><path d="m124.08 65.736 10.561 14.199s-3.893 2.118-9.255-1.674l-2.316-2.76-6.612-11.145 7.622 1.38Z" fill="#F6F8FB"/><path d="m122.002 73.456.961-.026s5.875-5.702 7.318-2.817c1.443 2.885-3.66 5.581-3.66 5.581l-1.551.837-2.022.604-1.294-1.737.248-2.442Z" fill="#BE707B"/><path opacity=".1" d="M123.42 76.536c.089.328.173.69.024.994a.398.398 0 0 1-.175.191.45.45 0 0 1-.201.028 2.021 2.021 0 0 1-1.326-.655 6.05 6.05 0 0 1-.859-1.244c-.262-.457-.533-.962-.441-1.48.105-.566.604-.958 1.093-1.276.974-.644 1.006.106 1.219.935.213.83.443 1.67.666 2.507Z" fill="#571AFF"/><path d="M123.273 76.536c.087.328.173.69.024.994a.403.403 0 0 1-.175.191.452.452 0 0 1-.201.028 2.013 2.013 0 0 1-1.326-.655 5.991 5.991 0 0 1-.861-1.244c-.262-.457-.533-.962-.439-1.48.103-.566.604-.958 1.091-1.276.976-.644 1.006.106 1.221.935.215.83.441 1.67.666 2.507Z" fill="#F4ED0F"/><path opacity=".1" d="m126.068 63.97.491-.832-.429 1.543-.062-.712Zm13.315 9.269 1.133.513.481-3.475-1.093-.604c.755.865.095 2.465-.521 3.566Zm4.547-4.034s-3.657.223-5.211-.775l5.211.775Z" fill="#571AFF"/><path opacity=".1" d="M143.476 71.538a10.284 10.284 0 0 1 1.837-2.384c.174-.11.354-.207.541-.294l5.702-1.17.33-.073s.05-11.137-3.891-12.666a23.683 23.683 0 0 1-6.149-3.462l.433-.133s2.364 2.068 6.307 3.595c3.944 1.527 3.891 12.666 3.891 12.666h-.591l-5.835 1.117s-.251.243-.328.313a11.303 11.303 0 0 0-1.865 2.467 6.185 6.185 0 0 0-.489 4.676h-.604c-.486-1.764.017-3.396.711-4.652Zm-15.573-19.657c.094-.014.185-.028.284-.038.4.057.803.09 1.207.099-.498.013-.996-.007-1.491-.06Zm8.364 1.149-3.61-1.827c.072-.059.139-.123.201-.191l3.767 1.905-.358.113Z" fill="#571AFF"/><path d="m150.008 64.356 2.415 2.957.493 8.032s.64 4.089-4.04 3.103c-4.68-.986-10.096-4.032-10.096-4.032s2.615-3.5 1.183-4.83l6.702 2.17s1.132-.248.245-1.231c-.887-.984-1.044-2.761-1.044-2.761l4.142-3.408Z" fill="#F4ED0F"/><path opacity=".1" d="m151.099 72.84 1.33 1.527a1.918 1.918 0 0 1-1.33-1.527Zm-2.267-.247 2.07 2.66-1.034.247-1.036-2.907Zm-20.638-32.655c-.227-.557-.052-1.207.222-1.732.273-.525.65-1.022.855-1.588.304-.84.211-1.792.543-2.615.586-1.459 2.25-2.11 3.74-2.616.441-.147.91-.294 1.36-.185.604.143.996.69 1.489 1.058 2.024 1.51 5.316-.152 7.274 1.445.748.604 1.112 1.592 1.225 2.551.113.96 0 1.934-.012 2.902-.032 1.694.286 3.547 1.553 4.67.383.337.833.59 1.207.941.375.35.668.839.604 1.346a4.65 4.65 0 0 1-.201.684c-.252.883.125 1.81.583 2.616 1.368 2.368 3.781 4.32 6.515 4.374-.183 1.38-1.609 2.18-2.887 2.746-1.61.723-3.324 1.43-5.096 1.34-1.773-.09-3.622-1.225-3.932-2.972-.107-.603-.092-1.33-.603-1.643-.314-.191-.721-.143-1.059-.286-.489-.201-.73-.75-.891-1.255a11.278 11.278 0 0 1-.525-3.22c-.022-1.296.149-2.71-.586-3.776-.68-.988-1.887-1.49-2.672-2.396-.724-.841-1.511-1.856-2.698-2.012-1.642-.232-5.038 2-6.008-.377Z" fill="#571AFF"/><path d="M128.194 39.642c-.227-.557-.052-1.207.222-1.732.273-.525.65-1.022.855-1.587.304-.842.211-1.793.543-2.616.586-1.46 2.249-2.113 3.74-2.616.441-.146.91-.293 1.36-.185.604.143.996.69 1.489 1.059 2.024 1.509 5.316-.153 7.274 1.444.748.604 1.112 1.592 1.225 2.553.113.962 0 1.932-.012 2.9-.032 1.694.286 3.547 1.553 4.67.383.338.833.591 1.207.941.375.35.668.84.604 1.346a4.75 4.75 0 0 1-.201.684c-.252.883.125 1.811.583 2.616 1.372 2.36 3.775 4.318 6.509 4.372-.183 1.38-1.61 2.18-2.887 2.748-1.61.72-3.324 1.429-5.097 1.338-1.772-.09-3.621-1.225-3.931-2.971-.107-.604-.092-1.33-.604-1.644-.313-.191-.72-.143-1.058-.286-.489-.201-.73-.75-.891-1.256a11.277 11.277 0 0 1-.525-3.219c-.022-1.295.149-2.71-.586-3.776-.68-.988-1.887-1.489-2.672-2.396-.724-.842-1.511-1.856-2.698-2.012-1.636-.23-5.032 2.005-6.002-.375Z" fill="#4D26B9"/><path opacity=".1" d="m132.705 55.976 3.644-2.958s-2.495-1.352-2.793-2.505c-.297-1.153-2.293.547-2.09 1.581.203 1.035 1.239 3.882 1.239 3.882Z" fill="#571AFF"/><path d="m132.848 55.53 3.644-2.955s-2.495-1.352-2.781-2.505c-.285-1.153-2.293.548-2.09 1.582.203 1.034 1.227 3.879 1.227 3.879Z" fill="#F4ED0F"/><path opacity=".1" d="M136.635 55.34a.29.29 0 1 0 0-.58.29.29 0 0 0 0 .58Zm0 1.61a.29.29 0 1 0 0-.58.29.29 0 0 0 0 .58Zm0 1.607a.29.29 0 1 0 0-.58.29.29 0 0 0 0 .58ZM129.665 35.534c.288-.79.226-1.678.495-2.475a2.716 2.716 0 0 0-.308.568c-.334.83-.239 1.782-.545 2.615l-.02.048c.149-.24.276-.493.378-.756Zm22.987 19.916c-1.609.72-3.323 1.43-5.096 1.339-1.773-.091-3.622-1.226-3.931-2.97-.107-.604-.093-1.332-.604-1.646-.314-.191-.72-.143-1.058-.286-.489-.2-.731-.75-.892-1.255a11.278 11.278 0 0 1-.525-3.22c-.022-1.293.151-2.707-.583-3.776-.682-.988-1.89-1.487-2.674-2.396-.725-.84-1.511-1.855-2.698-2.012-1.628-.221-5.03 2.012-5.992-.366-.154-.45-.132-.94.062-1.375-.07.12-.138.238-.201.359-.273.535-.447 1.177-.219 1.734.968 2.374 4.364.143 5.992.366 1.187.161 1.973 1.177 2.698 2.012.784.91 1.992 1.409 2.672 2.398.736 1.067.563 2.481.585 3.775.018 1.093.195 2.177.525 3.22.161.506.403 1.05.891 1.255.338.142.745.096 1.059.285.519.314.505 1.049.603 1.646.314 1.745 2.161 2.88 3.932 2.97 1.77.09 3.477-.616 5.096-1.338 1.167-.52 2.467-1.237 2.817-2.414-.559.764-1.549 1.291-2.459 1.696Z" fill="#571AFF"/><path d="M188.21 66.806c-4.259-2.45-5.869-3.054-5.877-3.054l-.088-.062a3.545 3.545 0 0 1-1.073-1.356 2.84 2.84 0 0 1 0-.264c.067-1.298.99-2.479 1.865-3.509l2.24-2.634c.254-.26.451-.571.577-.913.045-.184.066-.372.061-.561v-.23c-.013-.654-.031-1.31-.055-1.963-.02-.572-.167-1.292-.738-1.409-.298-.06-.692.046-.849-.201a.483.483 0 0 1-.038-.34.067.067 0 0 0 0 .028v-.032a7.65 7.65 0 0 0 .211-1.346 1.836 1.836 0 0 0-.093-.682c-.33-.948-1.471-1.338-2.479-1.517-1.008-.18-2.138-.332-2.77-1.12a8.176 8.176 0 0 0-.551-.76 2.18 2.18 0 0 0-1.03-.508 5.836 5.836 0 0 0-3.749.326c-.487.217-.976.51-1.511.478-.535-.032-1.03-.418-1.577-.51-.886-.152-1.733.498-2.169 1.269a3.107 3.107 0 0 0-.403 1.497v.088a2.193 2.193 0 0 0 .576 1.53c.382.402.95.667 1.108 1.188.065.212.049.441.107.656a.542.542 0 0 0 .024.079l-.028.038a6.64 6.64 0 0 0-1.408 4.093 6.791 6.791 0 0 0 4.772 6.438v.201c0 .805-.231 1.644-.925 2.254l-6.034 2.41s-3.638-.433-4.95 4.883a9.088 9.088 0 0 0-.225 2.696c.048.805-.063 2.213-1.006 4.038-1.491 2.921-1.151 9.627 1.899 10.291 2.879.628 4.006.367 4.125.336v.117c-.049 1.26-.505 12.112-2.165 13.424-.459.364-.374.604 0 .775 0 0 0 .07-.01.201-.051.805-.306 3.823-1.409 5.537-1.289 1.992-1.155 13.48-1.155 13.48l-.879 6.773s.541 4.183 0 4.913c-.485.65-1.128 16.124-1.263 19.48h-.057a1.638 1.638 0 0 0-1.303.805c-.713 1.157-3.208 3.296-3.208 3.296-.541.768-2.543 1.504-3.601 1.851-.14.045-.274.105-.402.177-.397.215-.715.55-.91.957a1.032 1.032 0 0 0-.096.805c.269.662 5.897 1.129 7.321.463 1.119-.521 5.553-1.207 7.394-1.477a1.52 1.52 0 0 0 1.316-1.316.86.86 0 0 0-.169-.658c-.352-.436-.531-1.629-.603-2.414.149-.061.289-.144.414-.246a17.683 17.683 0 0 1 1.006-7.104c1.356-3.585 1.763-10.225 1.425-14.541 0 0 4.134-17.794 7.39-19.454.05.065 1.629 2.091 1.83 8.366.202 6.374 2.507 10.557 2.507 10.557s-1.018 10.823 0 14.873l-1.329 6.388a2.332 2.332 0 0 1-.161-.147s.04.177.094.461l-.028.137.058.012c.151.805.375 2.191.282 3.018-.052.465-.183 1.102-.272 1.728-.14.984-.179 1.938.338 2.147.849.342 5.835.805 6.68-.29.19-.223.314-.495.358-.785.043-.29.004-.586-.112-.855a1.677 1.677 0 0 0-.246-.418s-1.324-2.163-.949-3.688a1.12 1.12 0 0 0-.159-.875c.058-.749.36-4.213 1.14-7.155.849-3.195 2.638-10.201 1.322-14.806a6.568 6.568 0 0 0-.169-.531 19.892 19.892 0 0 1-.746-7.769 15.814 15.814 0 0 1 0-6.772c.815-3.718 1.384-7.37 1.384-7.37s.449-4.913.056-7.925c0-.065-.018-.129-.026-.201l.213-.049s-1.152-5.112-1.559-8.366a418.86 418.86 0 0 0-.358-2.778 7.119 7.119 0 0 0 1.105-.276c3.659-1.261 4.812-12.675 4.812-12.675V74.83s1.232-5.567-3.04-8.024Zm-27.274 88.174a4.071 4.071 0 0 1-.179-.095l.179.095Z" fill="url(#d)"/><path d="M186.001 132.705c1.587 4.565-.266 11.975-1.127 15.291-.861 3.316-1.124 7.279-1.124 7.279-3.375.53-5.823-.132-5.823-.132l1.39-6.815c-.994-4.036 0-14.822 0-14.822s-2.249-4.169-2.448-10.521c-.202-6.251-1.737-8.273-1.785-8.336-3.175 1.654-7.211 19.388-7.211 19.388.33 4.3-.069 10.917-1.39 14.486a17.894 17.894 0 0 0-.992 7.078c-.463.403-1.107.459-1.811.346-1.889-.305-4.155-1.933-4.155-1.933s.726-19.315 1.258-20.048c.531-.732 0-4.897 0-4.897l.859-6.748s-.133-11.448 1.124-13.432c1.087-1.714 1.336-4.728 1.385-5.519v-.201l1.915-2.294s18.527-1.39 19.919 0c.34.34.551 1.117.676 2.093.382 3.002-.056 7.897-.056 7.897s-.556 3.639-1.351 7.344a16.132 16.132 0 0 0 0 6.75 20.221 20.221 0 0 0 .747 7.746Z" fill="#571AFF"/><path d="M184.842 161.718c-.827 1.092-5.69.629-6.519.289-.505-.201-.467-1.16-.33-2.14.087-.622.214-1.258.266-1.721.131-1.191-.403-3.607-.403-3.607s1.091 1.159 1.355 0c.116-.507.523-.767.945-.897a2.47 2.47 0 0 1 1.718.106c.86.374 2.292 1.169 2.037 2.244-.365 1.519.925 3.675.925 3.675.1.126.181.266.241.415a1.583 1.583 0 0 1-.235 1.636Z" fill="#A27772"/><path opacity=".1" d="M184.842 161.718c-.827 1.092-5.69.629-6.519.289-.505-.201-.466-1.16-.33-2.14.524.245 1.409.448 2.892.312.345-.033.693-.044 1.04-.033 1.053.048 2.108.026 3.159-.064a1.592 1.592 0 0 1-.242 1.636Zm-16.971-27.689c.33 4.299-.068 10.917-1.39 14.486a17.894 17.894 0 0 0-.992 7.078c-.463.403-1.107.459-1.811.346.402-2.79 2.1-14.814 3.189-24.315 1.241-10.818 7.042-18.26 7.042-18.26l1.157 1.273c-3.159 1.658-7.195 19.392-7.195 19.392Z" fill="#571AFF"/><path d="m182.856 64.486-.805 3.97-3.957 6.65-4.879-2.085s-6.64-6.947-2.465-7.94a3.68 3.68 0 0 0 1.384-.615c.819-.618 1.077-1.515 1.081-2.394a7.35 7.35 0 0 0-.672-2.845l8.535-2.68a13.67 13.67 0 0 0-.604 3.457c-.066 2.325.805 3.47 1.507 4.024.259.208.556.363.875.458Z" fill="#FBBEBE"/><path opacity=".1" d="M181.07 56.547a13.67 13.67 0 0 0-.604 3.457 6.75 6.75 0 0 1-7.245 2.068 7.334 7.334 0 0 0-.678-2.845l8.527-2.68Z" fill="#571AFF"/><path d="M182.05 55.455a6.758 6.758 0 0 1-4.166 6.237 6.75 6.75 0 1 1-2.585-12.986 6.717 6.717 0 0 1 6.751 6.749Z" fill="#FBBEBE"/><path opacity=".1" d="m182.856 64.486-.805 3.97-3.957 6.65-4.879-2.085s-6.64-6.947-2.465-7.94a3.68 3.68 0 0 0 1.384-.615c-.752 2.069 2.354 6.372 2.354 6.372.362.533 1.191.201 1.191.201 2.002-.303 5.686-6.06 6.288-7.017.263.212.565.37.889.464Zm3.821 38.486c-1.175.267-7.676 1.706-10.14 1.346-2.712-.403-7.986-.66-7.986-.66s-3.358.181-4.392-.292v-.201l1.915-2.294s18.527-1.39 19.919 0c.348.348.559 1.125.684 2.101Z" fill="#571AFF"/><path d="M174.486 71.037s-3.49-4.828-2.175-6.72l-5.897 2.415s-3.549-.43-4.828 4.867a9.203 9.203 0 0 0-.22 2.688c.049.805-.06 2.213-.972 4.024-1.454 2.911-1.124 9.595 1.854 10.261 2.977.666 4.034.33 4.034.33s-.403 12.108-2.117 13.498c-1.714 1.391 4.386 1.059 4.386 1.059s5.274.265 7.988.662c2.714.396 10.321-1.391 10.321-1.391s-1.125-5.094-1.523-8.335a1296.706 1296.706 0 0 0-1.326-10.147l6.748-9.142s1.191-5.525-2.977-7.974c-4.169-2.448-5.737-3.048-5.737-3.048s-4.188 6.82-6.371 7.15c.004 0-.825.335-1.188-.197Z" fill="#F4ED0F"/><path opacity=".1" d="M166.744 72.955s-.064 2.185.332 3.044c.397.86 1.853 5.634 1.853 5.634h-3.309s1.786-1.92 1.655-2.847c-.13-.928-.531-5.831-.531-5.831Z" fill="#571AFF"/><path d="M176.539 89.431s-7.308-1.787-7.988-3.308c-.68-1.52-2.557-4.927-2.557-4.927l.77-1.038 3.553 2.788s4.226 3.374 6.222 3.706c1.995.332 0 2.779 0 2.779Z" fill="#FBBEBE"/><path opacity=".05" d="M176.539 89.431s-7.308-1.787-7.988-3.308c-.68-1.52-2.557-4.927-2.557-4.927l.77-1.038 3.553 2.788s4.226 3.374 6.222 3.706c1.995.332 0 2.779 0 2.779Z" fill="#571AFF"/><path d="M182.856 80.83v3.963h-.635c-3.149 0-6.246.802-8.998 2.33l-1.195.662-.32.18-2.052-4.628 1.919-1.72h.099c.469.046 2.499.215 3.36-.075.817-.278 1.831-1.157 4.237-.543 1.185.303 2.199 1.631 3.348 1.217l.237-1.386Z" fill="#FBBEBE"/><path opacity=".1" d="m189.242 73.61 1.322 1.49v3.607s-1.124 11.38-4.696 12.638c-3.571 1.257-9.951-.729-9.951-.729s-1.648-4.366-.877-4.627c.77-.262 6.81-1.86 6.81-1.86s-.084-6.675 1.238-8.661c0 0-.859-6.22 2.118-6.352 2.978-.133 4.036 4.495 4.036 4.495Z" fill="#571AFF"/><path d="m189.444 73.61 1.324 1.49v3.607s-1.125 11.38-4.698 12.638c-3.574 1.257-9.952-.729-9.952-.729s-1.648-4.366-.875-4.627c.773-.262 6.811-1.86 6.811-1.86s-.087-6.675 1.237-8.661c0 0-.861-6.22 2.117-6.352 2.977-.133 4.036 4.495 4.036 4.495Z" fill="#F4ED0F"/><path opacity=".1" d="M180.198 58.32a2.66 2.66 0 0 0-.15-1.29c-.188-.403-.624-.706-1.051-.604-.565.133-.805.87-1.364 1.046-.469.15-.98-.183-1.207-.62-.227-.436-.229-.949-.229-1.44v-1.658c0-.603-.021-1.251-.391-1.724-.46-.588-1.545-.845-2.269-.821a1.925 1.925 0 0 0-1.296.521c-.386.33-.835.572-1.362.485a1.172 1.172 0 0 1-.95-.82v-.021a6.757 6.757 0 0 1 4.729-2.66 6.748 6.748 0 0 1 5.303 11.617c.116-.665.196-1.337.237-2.012Z" fill="#571AFF"/><path d="M170.879 52.02a1.18 1.18 0 0 1-.952-.823c-.054-.213-.04-.44-.102-.652-.155-.52-.711-.79-1.083-1.187-.744-.79-.696-2.09-.169-3.042.427-.767 1.252-1.408 2.117-1.264.535.093 1.006.473 1.541.51.535.036 1.006-.26 1.475-.477a5.557 5.557 0 0 1 3.666-.326c.375.075.723.251 1.006.509.192.242.371.494.537.754.615.785 1.72.94 2.704 1.117.984.177 2.096.567 2.414 1.513.216.628 0 1.308-.116 1.96a.587.587 0 0 0 .026.402c.155.254.539.147.829.201.557.119.7.837.722 1.409.023.652.04 1.304.052 1.957a2.49 2.49 0 0 1-.058.725c-.121.34-.312.65-.561.911l-2.185 2.626c-.97 1.163-1.998 2.519-1.811 4.024-.459.2-1.006-.191-1.155-.672-.149-.481-.03-1.006.072-1.491.178-.852.295-1.717.35-2.586a2.652 2.652 0 0 0-.15-1.287c-.188-.403-.624-.706-1.051-.604-.567.133-.805.87-1.364 1.046-.469.15-.98-.183-1.207-.62-.227-.436-.229-.947-.229-1.438v-1.66c0-.603-.021-1.251-.391-1.724-.461-.588-1.545-.845-2.269-.82a1.924 1.924 0 0 0-1.294.52c-.388.332-.837.576-1.364.49Z" fill="#7C5C5C"/><path opacity=".1" d="m172.402 72.79 2.072 8.512s1.634-.01-2.072-8.512Zm7.08-1.423s-2.712 4.443-1.654 9.038l.505.037s-.901-2.127 1.149-9.075Zm1.712 25.144s3.332-1.102 3.574 1.455c.008 0-.62-1.752-3.574-1.455Zm-9.619-14.689s-.662 4.627.529 6.484c0 0-2.414.992-5.822.795l-.403-7.28h5.696Z" fill="#571AFF"/><path opacity=".1" d="m172.028 87.785-.32.18-2.052-4.628 1.919-1.72h.099c-.03.23-.566 4.207.354 6.168Z" fill="#571AFF"/><path d="M171.575 81.624s-.662 4.628.529 6.483c0 0-2.414.994-5.822.795l-2.316-7.278h7.609Z" fill="#F4ED0F"/><path d="M165.853 158.901a1.502 1.502 0 0 1-1.286 1.312c-1.796.267-6.124.951-7.217 1.473-1.39.662-6.881.201-7.146-.463a1.043 1.043 0 0 1 .094-.805c.189-.403.499-.737.888-.954.128-.071.263-.13.402-.177 1.034-.344 2.988-1.076 3.515-1.845 0 0 2.436-2.13 3.131-3.281a1.577 1.577 0 0 1 1.271-.793c.58-.026 1.225.266 1.491 1.535 0 0 3.173 1.811 4.024.224 0 0 .133 2.438.66 3.106a.894.894 0 0 1 .173.668Z" fill="#A27772"/><path opacity=".1" d="M165.853 158.901a1.5 1.5 0 0 1-1.286 1.312c-1.796.268-6.124.952-7.217 1.473-1.39.662-6.881.201-7.146-.463a1.043 1.043 0 0 1 .094-.805c.189-.403.499-.737.888-.954.895.604 2.883 1.175 7.255.493 4.171-.651 6.237-1.289 7.243-1.724a.894.894 0 0 1 .169.668ZM183.907 50.704v-.032c.094-.495.237-1.006.201-1.503-.042.406-.11.81-.201 1.207a.726.726 0 0 0 0 .328Zm-3.861 6.193c.105.239.16.496.162.757a2.29 2.29 0 0 0-.162-1.055c-.186-.402-.622-.706-1.049-.603-.567.133-.805.869-1.366 1.046-.467.149-.978-.183-1.207-.62-.229-.436-.229-.95-.229-1.44v-1.658c0-.604-.021-1.252-.391-1.724-.462-.59-1.545-.846-2.269-.823a1.928 1.928 0 0 0-1.296.523c-.388.33-.835.571-1.364.485a1.177 1.177 0 0 1-.95-.821c-.054-.214-.04-.443-.102-.654-.155-.52-.711-.79-1.083-1.185a2.166 2.166 0 0 1-.557-1.409 2.248 2.248 0 0 0 .557 1.696c.372.403.928.666 1.083 1.185.062.202.048.441.102.654a1.18 1.18 0 0 0 .95.821c.529.087.976-.155 1.364-.485.351-.33.814-.517 1.296-.523.724-.022 1.811.234 2.269.823.37.473.389 1.123.391 1.724v1.658c0 .491 0 1.006.229 1.439.229.433.734.77 1.207.622.555-.177.805-.914 1.366-1.047.427-.092.863.226 1.049.614Zm5.438-1.821c-.121.34-.313.65-.563.91l-2.185 2.625c-.92 1.105-1.892 2.385-1.811 3.795.066-1.294.968-2.47 1.811-3.497l2.185-2.626c.25-.26.442-.57.563-.909.055-.238.074-.483.058-.726a1.88 1.88 0 0 1-.058.428Zm-5.698 6.887a1.523 1.523 0 0 1-.066-.354c-.019.22.004.44.066.652.149.479.694.875 1.155.67a2.81 2.81 0 0 1-.024-.29c-.459.183-.99-.207-1.131-.678ZM157.793 154.766s.692 1.208 3.199.145l-3.199-.145Zm21.188.294s2.161 2.545 4.885.835l-4.885-.835Zm6.29-30.097s-1.527.954-1.576 1.499c-.048.545.789-.402.789-.402l.787-1.097Zm.603 7.316a3.198 3.198 0 0 1-1.881.734c-1.143.05-1.046 1.539-.3 1.092.747-.446 2.181-1.826 2.181-1.826Zm.29.955s-.732 3.6-1.328 2.906l1.328-2.906Z" fill="#571AFF"/><path d="M44.677 160.211s4.597 1.261 6.81-.417c2.214-1.678 3.173-1.138 3.173-1.138s5.278-.292 5.712-1.539c.435-1.248-2.024-5.779-2.024-5.779-.175-.402-.43-.913-.545-.913l.024-1.912.765-7.997c1.764-4.525.032-10.372.032-10.372l-.316-1.451a3.669 3.669 0 0 1 .3-2.414l3.205-6.439a9.67 9.67 0 0 1 .604-1.235 31.424 31.424 0 0 1 1.118-1.859c.389-.604.86-1.288 1.429-2.076 1.418-1.966 2.165-4.427 2.55-6.238l.172.568h.038l.046.01h.077l.082.014h.03l.986 12.547c.06 4.893 1.858 7.601 1.858 7.601l-.248 10.802c.338 2.602-.402 6.071-.742 7.455l-.777 1.752a2.107 2.107 0 0 0-1.145 1.594c-.153 1.293-1.515 4.082-1.515 4.082-.527.668-1.672 2.473-1.672 2.473s-.539 1.742-.205 2.394c.334.652 3.127.586 3.127.586 3.189.706 5.633-1.006 5.478-2.185-.155-1.179.497-1.479.497-1.479 1.268-.403 1.145-1.262 1.145-1.262a7.893 7.893 0 0 0-.96-5.138l-.2.464a7.075 7.075 0 0 1 .381-2.742l-.116.08-.037.023h-.012c.202-1.765 2.055-5.03 2.055-5.03 3.404-5.972 2.167-14.064 2.167-14.064l-.528-2.523-.03-.952a31.76 31.76 0 0 1 .513-6.78c.183-.99.373-2.185.517-3.503.306-2.785 1.292-5.658 1.747-6.875l.135-.024h.016c.185-.033.372-.065.561-.101h.036s.109-.587.201-1.587c.055-.638.099-1.447.099-2.377a26.732 26.732 0 0 0-1.27-8.27l.103-.148s.244-.33.688-.901a103.347 103.347 0 0 1 3.656-4.394c2.807-3.201 1.982-6.439 1.982-6.439s-2.032-7.446-2.938-11.917c-.517-2.547-1.487-4.28-2.229-5.301.167-.705.262-1.425.282-2.15.06-1.323.014-2.703-.582-3.892-.595-1.19-1.863-2.129-3.187-1.97a1.22 1.22 0 0 1-.571 0 .869.869 0 0 1-.376-.328c-.775-1.068-.825-2.505-.584-3.8.242-1.296.736-2.536.958-3.835.221-1.3.12-2.743-.706-3.773-.972-1.207-2.666-1.547-3.93-2.455-.887-.637-1.553-1.553-2.489-2.118-.935-.566-1.81-.35-2.826-.137-1.709.36-3.332.525-4.948 1.26a13.176 13.176 0 0 0-4.312 3.136 4.092 4.092 0 0 0-.961 1.517c-.403 1.33.384 2.747.219 4.123-.117.976-.692 1.825-1.149 2.696-.457.871-.805 1.905-.447 2.817.564 1.424 2.4 1.726 3.737 2.484.178.088.33.22.442.385.33.575-.344 1.173-.768 1.684a2.536 2.536 0 0 0-.503 1.022 3.645 3.645 0 0 0-2.187 2.64c-.453 2.026.243 4.583.857 6.273-.67 3.764.201 5.25.843 5.819a3.23 3.23 0 0 1 1.119 2.2v.071a26.062 26.062 0 0 0 .154 1.644c-.525.972-1.525 3.455-2.088 7.632a22.916 22.916 0 0 1-.51 2.657 14.535 14.535 0 0 0-.426 4.753l.101 1.354a.427.427 0 0 1-.274-.09l.706 1.293v2.183a8.05 8.05 0 0 1-.535 2.879c-.05.133-.104.266-.163.402a2.346 2.346 0 0 0-.237 1.186c-1.52 2.327-5.002 15.373-5.002 15.373-1.89 4.278.155 7.042.155 7.042s.99 11.909 1.175 12.525c.185.615.596 7.875.596 7.875v.577a1.33 1.33 0 0 0-.344-.098c-1.656-.093-2.105 2.523-2.105 2.523l-3.388 3.235s-1.547-.262-3.823 1.447c-2.276 1.708 1.47 3.265 1.47 3.265Zm33.831-68.828-.01-.036-.092.054-.038.022-.018.012-1.562-5.51a9.15 9.15 0 0 1-.114-4.534l1.207-5.287v-1.272l3.837 10.225c.245 1.378-2.035 4.716-3.21 6.326Z" fill="url(#e)"/><path d="M80.192 108.016s-1.549 3.769-1.943 7.384a47.713 47.713 0 0 1-.51 3.461 31.623 31.623 0 0 0-.494 6.694l.03.939.503 2.489s1.207 7.994-2.127 13.883c0 0-1.975 3.527-2.036 5.197l-1.338.517-2.704-.759s1.306-4.682.881-7.963l.244-10.664s-1.757-2.668-1.817-7.496l-1.032-13.251 12.343-.431Zm-12.343-1.887s-.332 5.166-2.888 8.728c-2.555 3.561-3.098 5.106-3.098 5.106l-3.147 6.362a3.643 3.643 0 0 0-.296 2.38l.31 1.433s1.703 5.774-.03 10.243l-.82 8.631h-4.801s-.403-7.172-.578-7.78c-.175-.608-1.155-12.37-1.155-12.37s-2.012-2.736-.153-6.959c0 0 4.195-15.805 5.318-15.531 1.123.274 11.338-.243 11.338-.243Z" fill="#FDC2CC"/><path opacity=".1" d="m58.244 130.148-.308-1.433a3.621 3.621 0 0 1 .294-2.39l3.146-6.368s.546-1.549 3.099-5.106c2.452-3.421 2.857-8.322 2.885-8.698l.489-.024s-.332 5.166-2.887 8.728c-2.556 3.561-3.099 5.106-3.099 5.106l-3.146 6.362a3.643 3.643 0 0 0-.296 2.38l.31 1.433s1.702 5.774-.03 10.243l-.822 8.631h-.486l.82-8.631c1.733-4.469.03-10.233.03-10.233Zm14.892 17.921c.06-1.67 2.037-5.197 2.037-5.197 3.343-5.895 2.126-13.883 2.126-13.883l-.515-2.491-.03-.939a31.616 31.616 0 0 1 .495-6.694c.179-.978.364-2.157.507-3.461.38-3.481 1.83-7.102 1.938-7.368l.498-.02s-1.549 3.769-1.943 7.384a47.653 47.653 0 0 1-.51 3.461 31.63 31.63 0 0 0-.494 6.694l.03.939.503 2.489s1.207 7.994-2.127 13.883c0 0-1.975 3.527-2.036 5.197l-1.338.517-.281-.079 1.14-.432Z" fill="#571AFF"/><path d="M71.587 148.008a2.317 2.317 0 0 0 2.213-.273 7.14 7.14 0 0 0-.18 4.011c.546 2.19-5.107-1.762-5.107-1.762l1.207-2.758s.469.873 1.867.782Z" fill="#D39999"/><path opacity=".1" d="M72.008 148.131a2.262 2.262 0 0 0 1.796-.402 7.138 7.138 0 0 0-.18 4.011c.547 2.19-5.107-1.762-5.107-1.762l1.207-2.759s.35.672 1.378.777c.312.036.61.079.906.135Z" fill="#571AFF"/><path d="M58.76 96.877h2.363V83.475l-1.773-.317-.59 13.72Z" fill="#FDC2CC"/><path opacity=".05" d="M58.76 96.877h2.363V83.475l-1.773-.317-.59 13.72Z" fill="#571AFF"/><path d="M70.25 149.042s1.488-.092 2.156 1.246l.82.637.403-.941a7.847 7.847 0 0 1 .93 5.076s.12.849-1.125 1.245c0 0-.638.304-.487 1.459.151 1.155-2.247 2.857-5.378 2.157 0 0-2.736.062-3.07-.577-.334-.64.213-2.34.213-2.34s1.125-1.783 1.64-2.441c0 0 1.338-2.756 1.49-4.024.154-1.267 1.616-2.197 2.407-1.497Z" fill="#7E5659"/><path d="m57.926 150.167.024-1.889s-2.718.782-4.92-.103c0 0 .186 1.899-.12 2.159-.306.259 1.018 2.704 1.018 2.704l1.479 1.549 2.543-.925.69-2.173s-.533-1.322-.714-1.322Z" fill="#D39999"/><path opacity=".1" d="m57.926 150.167.024-1.889s-2.718.782-4.92-.103c0 0 .186 1.899-.12 2.159-.306.259 1.018 2.704 1.018 2.704l1.479 1.549 2.543-.925.69-2.173s-.533-1.322-.714-1.322Z" fill="#571AFF"/><path d="M52.743 149.483s1.444.167 1.261 2.012c-.183 1.845.077 0 .077 0s1.535.622 2.082 1.489c.547.867 1.535-.775 1.61-1.246.074-.47.69-.666.69-.666s2.414 4.477 1.988 5.708c-.427 1.232-5.61 1.515-5.61 1.515s-.943-.531-3.116 1.125c-2.173 1.656-6.686.403-6.686.403s-3.678-1.536-1.443-3.22c2.236-1.684 3.753-1.428 3.753-1.428l3.327-3.207s.441-2.578 2.067-2.485Z" fill="#7E5659"/><path d="M69.996 43.65c.92.557 1.573 1.463 2.444 2.093 1.24.895 2.904 1.229 3.857 2.424.805 1.018.91 2.44.692 3.724-.217 1.284-.704 2.51-.94 3.789-.235 1.28-.186 2.698.574 3.752a.85.85 0 0 0 .368.324c.185.044.377.044.562 0 1.3-.157 2.547.773 3.13 1.946.584 1.173.63 2.537.57 3.844-.05 1.073-.171 2.167-.642 3.133-.805 1.642-2.479 2.656-4.13 3.433a32.1 32.1 0 0 1-3.298 1.332c-.773.261-1.588.496-2.39.36-1.375-.238-2.349-1.487-3.652-1.976-1.069-.403-2.254-.258-3.39-.157-.97.084-2.079.082-2.747-.626-.857-.91-.47-2.376-.032-3.547a2.525 2.525 0 0 1-1.787-4.129c.415-.505 1.077-1.094.753-1.663a1.102 1.102 0 0 0-.435-.379c-1.31-.748-3.114-1.048-3.666-2.452-.354-.904-.012-1.926.437-2.785.448-.859 1.006-1.7 1.129-2.662.16-1.36-.604-2.758-.216-4.07a4.08 4.08 0 0 1 .944-1.5 12.949 12.949 0 0 1 4.225-3.097c1.588-.727 3.18-.89 4.857-1.244 1.006-.213 1.839-.438 2.783.133Z" fill="#865A61"/><path d="M61.12 63.905s-3.848-.202-4.576 3.08c-.729 3.282 1.579 7.982 1.579 7.982l2.998-11.062Z" fill="#FDC2CC"/><path opacity=".05" d="M61.12 63.905s-3.848-.202-4.576 3.08c-.729 3.282 1.579 7.982 1.579 7.982l2.998-11.062Z" fill="#571AFF"/><path d="m58.664 73.671 1.459 1.155 6.806.304 4.25-2.918 4.321-7.416c-2.641-.674-3.71-2.499-4.108-4.205a9.209 9.209 0 0 1-.085-3.513s-6.929-3.587-6.078 2.012c.117.688.139 1.387.065 2.08-.403 3.28-3.586 2.663-3.586 2.663l-1.221 1.883-1.398 4.627-.425 3.328Z" fill="#FDC2CC"/><path opacity=".1" d="M65.235 59.082a7.59 7.59 0 0 1 .065 2.08 6.142 6.142 0 0 0 6.098-.57 9.208 9.208 0 0 1-.084-3.514s-6.93-3.587-6.079 2.004Z" fill="#571AFF"/><path d="M67.853 61.474a6.139 6.139 0 1 0 0-12.277 6.139 6.139 0 0 0 0 12.277Z" fill="#FDC2CC"/><path d="M63.511 72.5c.149 0 .296.022.443.037.804.08 4.166.261 6.082-2.027 2.143-2.559 4.996-5.72 5.112-5.848l2.904.877s-2.298-.817-3.823 3.456a4.427 4.427 0 0 0 1.495 5.093 4.6 4.6 0 0 0 1.9.805.01.01 0 0 1 0 .005.01.01 0 0 1 0 .005v1.875l-1.188 5.231a9.068 9.068 0 0 0 .113 4.477l1.81 6.4c-.273.189-11.508 7.83-19.013 2.553.028-.23.956-7.74.312-11.416a25.386 25.386 0 0 1-.336-2.84v-.071a3.203 3.203 0 0 0-1.1-2.173c-.677-.604-1.592-2.213-.687-6.467.23-1.053.566-2.08 1.006-3.064l2.517-5.688 2.32.046v.016c-.201.25-2.891 3.61-3.183 5.775-.285 2.058-.638 2.69 3.316 2.943Z" fill="#F4ED0F"/><path d="M80.005 66.539s2.27 1.945 3.161 6.362c.892 4.416 2.877 11.752 2.877 11.752s.805 3.2-1.945 6.361c-2.75 3.161-4.58 5.634-4.58 5.634l-1.81 2.668a2.276 2.276 0 0 1-1.304.922c-.825.217-2.093.374-3.191-.228a1.858 1.858 0 0 1-.805-2.348l.403-.931s-3.729 2.35-4.053 1.052c-.324-1.298 4.336-2.594 4.336-2.594s3.85-.647 4.628-2.47c0 0 4.132-5.31 3.809-7.133l-3.992-10.698s-4.992-.66-3.29-6.267 5.756-2.082 5.756-2.082Z" fill="#FDC2CC"/><path d="M56.137 106.899s9.118 1.823 11.267 1.58l.232.77s3.46.775 11.285-.467c.51-.08 1.041-.171 1.591-.271l.183-.032s.107-.58.192-1.568c.187-2.243.253-6.587-1.326-11.033l-1.316-4.053s-8.133 4.876-13.517 4.427c-.48-.04-.957-.079-1.438-.095-1.105-.042-2.817 0-3.93-.891l-2.334.402v6.64c0 .971-.18 1.934-.527 2.841-.05.133-.102.263-.16.402a2.113 2.113 0 0 0-.202 1.348Z" fill="#571AFF"/><path opacity=".1" d="M67.633 107.183v2.066s3.984.891 13.06-.771c0 0 .107-.579.192-1.567-2.785.447-10.465 1.521-13.252.272Z" fill="#571AFF"/><path opacity=".1" d="M56.137 106.899s9.118 1.823 11.267 1.58l.232.77v-2.066c-1.038.43-8.45-1.356-11.137-2.026-.05.133-.102.263-.16.402a2.113 2.113 0 0 0-.202 1.34Z" fill="#571AFF"/><path d="m78.243 104.596.676 4.193a66.003 66.003 0 0 0 1.591-.272c-.211-1.225-.672-4.024-.545-4.489l-.851-.728-.871 1.296Z" fill="#571AFF"/><path opacity=".1" d="m78.337 104.505.676 4.195a77.515 77.515 0 0 0 1.592-.272c-.211-1.225-.672-4.024-.545-4.488l-.851-.731-.872 1.296Z" fill="#571AFF"/><path opacity=".05" d="M64.24 96.25c-.48-.04-.958-.079-1.44-.095-1.073-.04-2.713 0-3.832-.823l.39-.068c1.119.887 2.817.849 3.93.891.48.016.958.054 1.438.094.157.015.318.023.481.027-.323.008-.646 0-.968-.026Zm14.192 12.532c.511-.08 1.041-.17 1.591-.269l.186-.034s.106-.58.189-1.568c.189-2.243.255-6.587-1.326-11.034l-1.24-3.822c.264-.15.403-.236.403-.236l1.316 4.052c1.579 4.447 1.513 8.791 1.325 11.034-.084.988-.19 1.568-.19 1.568l-.184.034c-.548.099-1.079.189-1.591.269-3.656.58-6.356.721-8.2.705a51.75 51.75 0 0 0 7.72-.699Zm-11.519-.303v.022h-.261c.1-.007.186-.014.261-.022Z" fill="#571AFF"/><path d="M79.376 105.378c.19 0 .344-.317.344-.708 0-.391-.154-.708-.344-.708-.19 0-.345.317-.345.708 0 .391.154.708.344.708Z" fill="#D39999"/><path d="M57.417 90.328c.555-4.124 1.535-6.575 2.052-7.535.02.131.072.556.096.686.105.604.013 1.365.045 2.131l-.515 9.328.69 2.917c.648 2.31-1.753.485-1.753.485-.497 1.095-1.408.974-1.408.974l-.125-1.674a14.462 14.462 0 0 1 .419-4.694 22.36 22.36 0 0 0 .499-2.618Z" fill="#FDC2CC"/><path opacity=".05" d="M57.417 90.328c.555-4.124 1.535-6.575 2.052-7.535.02.131.072.556.096.686.105.604.013 1.365.045 2.131l-.515 9.328.69 2.917c.648 2.31-1.753.485-1.753.485-.497 1.095-1.408.974-1.408.974l-.125-1.674a14.462 14.462 0 0 1 .419-4.694 22.36 22.36 0 0 0 .499-2.618Z" fill="#571AFF"/><path d="M80.51 95.36c-.436.566-.676.89-.676.89l-1.81 2.666a2.261 2.261 0 0 1-1.304.921c-.825.217-2.093.376-3.191-.227a1.856 1.856 0 0 1-.805-2.346l.402-.934s-3.728 2.35-4.052 1.055c-.324-1.296 4.336-2.594 4.336-2.594s3.849-.648 4.628-2.473c0 0 .336-.43.805-1.09" fill="#FDC2CC"/><path d="M78.243 99.829s-4.408-.429-5.805-2.95l-.64 2.083s4.628 3.195 5.684 2.78l.76-1.913Z" fill="#571AFF"/><path opacity=".1" d="M78.086 99.809s-4.406-.428-5.805-2.952l-.637 2.077s4.627 3.195 5.681 2.78l.761-1.905Z" fill="#571AFF"/><path d="M58.177 98.652s-1.543.547-1.847.243l.694 1.278 1.312-1.006-.159-.515Z" fill="#571AFF"/><path opacity=".1" d="M58.177 98.652s-1.543.547-1.847.243l.694 1.278 1.312-1.006-.159-.515Zm9.456 8.531v-2.666l-.633 2.73.633-.064Zm6.252-55.089c-.373.523-1.018.79-1.654.872-.636.082-1.28.012-1.922 0-1.006-.017-2.076.138-2.899.73-.525.376-.92.905-1.33 1.408-1.243 1.52-2.97 2.942-4.93 2.783a1.278 1.278 0 0 1-.915-.386 1.47 1.47 0 0 1-.233-.833 19.039 19.039 0 0 1 .119-3.755c.078-.77.27-1.524.567-2.24.35-.715.81-1.373 1.364-1.947a8.344 8.344 0 0 1 2.38-1.907 4.27 4.27 0 0 1 2.978-.384c1.173.32 2.087 1.237 3.205 1.71 1.278.537 4.67 1.972 3.27 3.95Z" fill="#571AFF"/><path d="M73.885 51.85c-.373.524-1.018.79-1.654.872-.636.082-1.28.012-1.922 0-1.006-.018-2.076.137-2.899.728-.525.377-.92.906-1.33 1.409-1.243 1.519-2.97 2.941-4.93 2.782a1.269 1.269 0 0 1-.915-.386 1.463 1.463 0 0 1-.233-.833 19.039 19.039 0 0 1 .119-3.754c.078-.77.27-1.525.567-2.24.35-.716.81-1.372 1.364-1.945a8.315 8.315 0 0 1 2.38-1.91 4.269 4.269 0 0 1 2.978-.384c1.173.32 2.087 1.237 3.205 1.71 1.278.54 4.67 1.97 3.27 3.952Z" fill="#865A61"/><path d="m59.36 95.262-.016.734-.165-.702.181-.032Z" fill="#FDC2CC"/><path opacity=".05" d="m59.36 95.262-.016.734-.165-.702.181-.032Zm15.517-27.025c-1.704 5.607 3.263 6.265 3.263 6.265L82.132 85.2c.324 1.823-3.81 7.132-3.81 7.132-.288.68-1.007 1.198-1.791 1.58.458-.28.827-.684 1.062-1.167 0 0 4.132-5.308 3.809-7.13l-3.992-10.7s-4.966-.658-3.264-6.266c.57-1.873 1.409-2.726 2.258-3.032-.586.471-1.123 1.286-1.527 2.62Z" fill="#571AFF"/><g opacity=".1" fill="#571AFF"><path opacity=".1" d="M74.961 73.331c.234.289.504.545.805.763a4.57 4.57 0 0 0 1.9.804v.212a4.56 4.56 0 0 1-1.723-.763 4.175 4.175 0 0 1-.982-1.016Zm-15.436 8.022v.07c.063.956.178 1.908.346 2.851.604 3.469-.187 10.356-.3 11.308l-.2-.13c.03-.228.957-7.74.313-11.413a25.48 25.48 0 0 1-.336-2.841v-.07a3.105 3.105 0 0 0-.541-1.54c.417.5.668 1.116.718 1.765Zm3.705-17.36-1.968-.038a.01.01 0 0 0-.01 0l-2.515 5.686c-.44.984-.777 2.011-1.007 3.064-.732 3.44-.271 5.155.288 6.002-.63-.742-1.28-2.434-.469-6.237.225-1.054.559-2.082.996-3.066l2.533-5.686 2.32.046v.014c-.018.024-.08.1-.169.215Zm14.828 1.544.034.01-.034-.01Z"/><path opacity=".1" d="m77.335 65.504-1.971-.593h-.01c-.117.129-2.968 3.29-5.11 5.849-1.916 2.287-5.274 2.108-6.083 2.028a10.83 10.83 0 0 0-.443-.038c-2.199-.141-3.064-.403-3.354-.958.413.402 1.32.604 3.171.716.149 0 .296.022.443.037.805.08 4.167.259 6.082-2.027 2.143-2.56 4.996-5.722 5.112-5.85l2.87.869a1.792 1.792 0 0 0-.707-.033Z"/></g><path opacity=".1" d="M53.99 152.406s-2.776.759-3.314-.432l3.314.432Zm17.627-.569s-3.219.831-3.963-.455l3.963.455Z" fill="#571AFF"/><path opacity=".1" d="M39.3 144.986c2.993 0 5.419-.41 5.419-.915 0-.506-2.426-.916-5.418-.916-2.993 0-5.419.41-5.419.916 0 .505 2.426.915 5.419.915ZM17.955 157.97c2.993 0 5.419-.41 5.419-.916 0-.505-2.426-.915-5.419-.915-2.992 0-5.418.41-5.418.915 0 .506 2.426.916 5.418.916Z" fill="#F4ED0F"/><path d="M12.314 146.807c4.468 0 8.09-.612 8.09-1.368 0-.756-3.622-1.368-8.09-1.368s-8.09.612-8.09 1.368c0 .756 3.622 1.368 8.09 1.368Z" fill="#F4ED0F"/><path d="M8.968 143.201c-.37-.3-.64-.705-.773-1.163-.098-.462.099-1.016.54-1.185.494-.189 1.024.153 1.424.499.4.346.861.743 1.386.67a2.106 2.106 0 0 1-.652-1.975.806.806 0 0 1 .181-.403c.274-.294.773-.167 1.103.065 1.044.736 1.338 2.156 1.342 3.436.107-.463.018-.942.02-1.408.002-.467.133-1.006.531-1.252.246-.136.524-.205.805-.201.47-.016.994.03 1.316.374.402.427.296 1.145-.052 1.61-.348.465-.876.764-1.36 1.09a3 3 0 0 0-.974.928.94.94 0 0 0-.073.165h-2.94a8.143 8.143 0 0 1-1.824-1.25Z" fill="#F4ED0F"/><path opacity=".1" d="M207.751 152.644c2.992 0 5.418-.41 5.418-.916 0-.505-2.426-.915-5.418-.915-2.993 0-5.418.41-5.418.915 0 .506 2.425.916 5.418.916Z" fill="#F4ED0F"/><path d="M204.113 147.473s3.09-.095 4.024-.759c.934-.664 4.752-1.454 4.984-.39.231 1.064 4.645 5.29 1.155 5.318-3.491.028-8.107-.543-9.036-1.111-.93-.567-1.127-3.058-1.127-3.058Z" fill="#A8A8A8"/><path opacity=".2" d="M214.336 151.274c-3.489.028-8.106-.544-9.036-1.111-.708-.431-.99-1.978-1.084-2.692h-.103s.201 2.493 1.125 3.058c.923.566 5.547 1.139 9.036 1.111 1.006 0 1.356-.366 1.336-.898-.139.33-.524.532-1.274.532Z" fill="#571AFF"/></g><defs><linearGradient id="b" x1="97.453" y1="142.914" x2="97.453" y2="23.987" gradientUnits="userSpaceOnUse"><stop stop-color="gray" stop-opacity=".25"/><stop offset=".54" stop-color="gray" stop-opacity=".12"/><stop offset="1" stop-color="gray" stop-opacity=".1"/></linearGradient><linearGradient id="c" x1="27712.9" y1="96124.4" x2="27712.9" y2="21059.9" gradientUnits="userSpaceOnUse"><stop stop-color="gray" stop-opacity=".25"/><stop offset=".54" stop-color="gray" stop-opacity=".12"/><stop offset="1" stop-color="gray" stop-opacity=".1"/></linearGradient><linearGradient id="d" x1="36738.8" y1="97855.8" x2="36738.8" y2="28388.3" gradientUnits="userSpaceOnUse"><stop stop-color="gray" stop-opacity=".25"/><stop offset=".54" stop-color="gray" stop-opacity=".12"/><stop offset="1" stop-color="gray" stop-opacity=".1"/></linearGradient><linearGradient id="e" x1="-21041.6" y1="97025.8" x2="-21041.6" y2="27274.6" gradientUnits="userSpaceOnUse"><stop stop-color="gray" stop-opacity=".25"/><stop offset=".54" stop-color="gray" stop-opacity=".12"/><stop offset="1" stop-color="gray" stop-opacity=".1"/></linearGradient><clipPath id="a"><path fill="#fff" transform="translate(.405)" d="M0 0h229.189v160H0z"/></clipPath></defs></svg>