<svg width="230" height="160" viewBox="0 0 230 160" fill="none" xmlns="http://www.w3.org/2000/svg">
<g clip-path="url(#clip0)">
<path opacity="0.1" d="M3.02051 81.7896C6.64209 95.9037 14.3098 108.104 26.428 114.018C51.6222 126.309 108.407 119.969 150.793 112.694C172.724 108.929 191.987 98.5494 205.988 83.9223L3.02051 81.7896Z" fill="#F4ED0F"/>
<path opacity="0.1" d="M225.299 15.3555H202.043C200.936 15.3555 200.031 14.5306 200.031 13.5226C200.031 12.5145 200.934 11.6896 202.043 11.6896H206.067C204.96 11.6896 204.055 10.8647 204.055 9.8567C204.055 8.84869 204.958 8.02579 206.067 8.02579H203.195C202.089 8.02579 201.183 7.20087 201.183 6.19286C201.183 5.18486 202.087 4.35994 203.195 4.35994H215.334C212.64 3.21713 209.499 2.4063 205.865 1.98177C172.766 -1.89534 160.948 0.667934 156.773 3.30566C151.583 6.6273 145.811 8.93426 139.761 10.1042C119.34 13.9451 81.148 18.5666 46.5317 8.62335C29.3271 3.68391 16.5409 12.0437 8.87524 25.9889H229.337C229.05 21.9327 228.188 18.1863 226.607 14.9088C226.234 15.2004 225.773 15.3577 225.299 15.3555Z" fill="#F4ED0F"/>
<path opacity="0.1" d="M1.04669 52.3298C0.154335 60.5385 0.458638 68.8333 1.95007 76.9546L206.143 83.7632C211.769 77.8852 216.544 71.2482 220.33 64.0457L1.04669 52.3298ZM81.802 69.8965H77.778C78.8826 69.8965 79.79 70.7215 79.79 71.7295C79.79 72.7375 78.8846 73.5604 77.778 73.5604H54.5315C53.4269 73.5604 52.5195 72.7375 52.5195 71.7295C52.5195 70.7215 53.4249 69.8965 54.5315 69.8965H58.5555C57.4509 69.8965 56.5435 69.0716 56.5435 68.0636C56.5435 67.0556 57.4489 66.2307 58.5555 66.2307H55.6803C54.5757 66.2307 53.6683 65.4078 53.6683 64.3998C53.6683 63.3918 54.5737 62.5668 55.6803 62.5668H78.9369C80.0435 62.5668 80.9489 63.3918 80.9489 64.3998C80.9489 65.4078 80.0456 66.2307 78.9369 66.2307H81.802C82.9086 66.2307 83.814 67.0556 83.814 68.0636C83.814 69.0716 82.9146 69.8965 81.802 69.8965Z" fill="#F4ED0F"/>
<path opacity="0.1" d="M229.347 26.1157L6.41874 31.0592C3.70255 37.4151 1.90585 44.5999 1.0769 52.0483H225.44C226.901 47.69 227.985 43.2143 228.679 38.6706C229.347 34.2925 229.615 30.0592 229.347 26.1157ZM46.3407 42.3143H42.3167C43.4213 42.3143 44.3287 43.1392 44.3287 44.1472C44.3287 45.1552 43.4233 45.9801 42.3167 45.9801H19.0621C17.9575 45.9801 17.0501 45.1552 17.0501 44.1472C17.0501 43.1392 17.9555 42.3143 19.0621 42.3143H23.0861C21.9815 42.3143 21.0741 41.4914 21.0741 40.4834C21.0741 39.4754 21.9795 38.6504 23.0861 38.6504H20.211C19.1064 38.6504 18.199 37.8255 18.199 36.8175C18.199 35.8095 19.1044 34.9846 20.211 34.9846H43.4676C44.5742 34.9846 45.4796 35.8095 45.4796 36.8175C45.4796 37.8255 44.5762 38.6504 43.4676 38.6504H46.3407C47.4453 38.6504 48.3527 39.4754 48.3527 40.4834C48.3527 41.4914 47.4453 42.3143 46.3407 42.3143Z" fill="#F4ED0F"/>
<path opacity="0.1" d="M134.214 154.286C142.574 154.286 149.351 152.764 149.351 150.887C149.351 149.01 142.574 147.489 134.214 147.489C125.855 147.489 119.078 149.01 119.078 150.887C119.078 152.764 125.855 154.286 134.214 154.286Z" fill="#F4ED0F"/>
<path opacity="0.1" d="M169.386 163.921C184.467 163.921 196.693 162.917 196.693 161.68C196.693 160.442 184.467 159.438 169.386 159.438C154.305 159.438 142.079 160.442 142.079 161.68C142.079 162.917 154.305 163.921 169.386 163.921Z" fill="#F4ED0F"/>
<path opacity="0.1" d="M59.7465 161.68C74.8276 161.68 87.0532 160.158 87.0532 158.281C87.0532 156.405 74.8276 154.883 59.7465 154.883C44.6654 154.883 32.4397 156.405 32.4397 158.281C32.4397 160.158 44.6654 161.68 59.7465 161.68Z" fill="#F4ED0F"/>
<path opacity="0.1" d="M101.381 144.668C112.728 144.668 121.927 143.147 121.927 141.27C121.927 139.393 112.728 137.872 101.381 137.872C90.0332 137.872 80.8342 139.393 80.8342 141.27C80.8342 143.147 90.0332 144.668 101.381 144.668Z" fill="#F4ED0F"/>
<path d="M116.734 60.4261C116.3 57.5007 113.642 50.674 113.642 50.674C113.595 50.4728 113.543 50.2716 113.485 50.0704C111.6 43.5918 108.99 43.0284 108.99 43.0284L99.6423 41.0164C99.7206 41.0654 99.7889 41.1289 99.8435 41.2035C99.7941 41.2081 99.7451 41.2155 99.6966 41.2257C99.2685 40.7204 98.9855 40.1085 98.8777 39.4551C98.8596 39.3585 98.8435 39.2539 98.8314 39.1553C99.5028 38.5009 100.026 37.7105 100.367 36.8371C100.708 35.9637 100.858 35.0276 100.808 34.0914C100.757 33.1552 100.507 32.2407 100.073 31.4092C99.6403 30.5777 99.0343 29.8485 98.2962 29.2704C98.1976 29.194 98.095 29.1195 97.9964 29.0491C98.4371 28.5803 98.4512 27.9284 98.1212 27.2765C97.3848 25.7474 95.7833 24.7796 94.1374 24.3068C92.8799 23.9467 91.5218 23.83 90.2704 24.2243C89.5602 24.4497 88.9123 24.8279 88.2463 25.1639C87.0049 25.7836 85.6307 26.2746 84.7032 27.2946C84.4859 27.532 84.2847 27.8359 84.3491 28.1497C84.3974 28.3831 84.5825 28.5642 84.7012 28.7714C84.9688 29.2362 84.9024 29.8217 84.7193 30.3287C84.5362 30.8357 84.2686 31.3065 84.1419 31.8256C84.0151 32.3447 84.0634 32.9564 84.4537 33.3286C84.6409 33.473 84.8357 33.6074 85.0372 33.731C85.2508 33.913 85.4383 34.1236 85.5945 34.3567C85.9647 34.853 86.3336 35.3513 86.7011 35.8516C87.22 36.5147 87.6837 37.2193 88.0874 37.9582C88.363 38.5014 88.5763 39.0809 88.9445 39.5678C89.0524 39.7099 89.1759 39.8395 89.3127 39.9541L89.204 39.9118C89.364 40.0747 89.5556 40.2031 89.767 40.2892C89.9784 40.3754 90.2051 40.4174 90.4334 40.4128C90.4535 40.4128 90.4716 40.4128 90.4897 40.4128C90.5737 40.4111 90.654 40.3781 90.715 40.3203C90.715 40.3887 90.715 40.4571 90.715 40.5215C90.7372 41.2397 90.7332 42.0043 90.6829 42.7226L90.5963 42.6783C90.468 42.6145 90.3242 42.5886 90.1816 42.6036C90.0391 42.6185 89.9038 42.6738 89.7915 42.7628L81.1862 49.668C81.1862 49.668 79.3151 52.2272 79.5766 56.6456L78.0676 63.2711C78.0676 63.2711 76.1824 68.8926 77.6331 72.9065C79.0837 76.9204 79.9247 79.2161 79.9247 79.2161C79.9247 79.2161 80.5042 83.7773 81.3754 84.1495C82.2466 84.5217 82.6228 84.7229 82.6228 84.7229L82.7958 85.8134C82.7958 85.8134 82.8542 85.9201 82.9568 86.0991C83.5906 87.2017 85.9386 91.0929 87.3027 90.6764C87.4744 91.7331 87.5485 92.8033 87.524 93.8735L88.8741 102.938C88.8741 102.938 89.8157 105.402 89.7573 106.694C89.699 107.986 90.8559 109.827 90.8559 109.827C90.153 111.113 89.9468 112.613 90.2764 114.042C90.8277 116.456 91.5239 127.578 91.5239 127.578L92.5299 130.274L92.5017 133.435C92.4191 133.951 92.2042 134.436 91.878 134.844C91.2261 135.552 91.2744 136.371 89.703 137.339C88.1316 138.306 87.1357 138.672 87.1357 139.954C87.1338 140.133 87.1176 140.311 87.0874 140.487C86.9426 141.429 86.6609 141.94 89.5501 142.214C92.9443 142.536 95.2078 140.322 95.2078 140.322C95.2078 140.322 95.7068 139.417 98.0568 139.051C98.0568 139.051 98.8616 139.008 98.9039 138.298C98.92 138.053 98.9159 137.584 98.9039 137.067C98.8656 136.083 98.7711 134.934 98.6463 134.878C98.4894 134.807 98.2158 133.818 98.1212 133.459H98.7751C98.7751 133.459 99.3787 128.898 98.7751 125.945C98.1715 122.991 98.7167 120.897 98.7167 120.897L98.6 113.096C98.6 113.096 97.7952 112.235 98.427 110.714C99.0588 109.193 98.427 101.68 98.427 101.68C98.427 101.68 98.6604 98.9839 99.3264 98.3522C99.9923 97.7204 99.3586 94.4026 99.3264 94.2296L100.513 98.2113C100.513 98.2113 101.035 106.127 102.139 107.559L102.457 111.144C102.457 111.144 104.719 114.444 104.284 116.221C103.849 117.997 104.749 124.424 104.749 124.424V130.993C104.749 130.993 103.733 133.63 105.151 134.578L105.755 134.554C105.553 134.741 105.399 135.023 105.163 135.266C104.892 135.546 104.737 136.61 104.65 137.526C104.578 138.3 104.554 138.966 104.554 138.966C104.554 138.966 105.157 139.932 106.294 139.998C107.431 140.065 111.177 142.914 111.177 142.914C111.177 142.914 114.877 142.914 115.835 142.713L115.891 142.698C116.199 142.602 116.457 142.391 116.613 142.109C116.805 141.782 116.867 141.395 116.786 141.025C116.668 140.459 116.219 139.839 115.225 139.312C112.752 138.009 112.384 136.787 112.384 136.787L110.761 134.351H110.992C110.992 134.351 110.849 131.769 112.616 128.872L112.501 116.11C112.501 116.11 113.225 111.722 111.98 109.34C111.98 109.34 111.877 106.817 112.71 106.042C113.543 105.267 111.602 97.4387 111.602 97.4387C111.602 97.4387 111.199 93.2357 110.726 89.4008C112.684 91.2579 114.714 84.572 115.056 83.3829H115.106L115.084 83.2964C115.098 83.2401 115.106 83.2119 115.106 83.2119C115.106 83.2119 114.672 81.6667 114.99 81.9806C115.308 82.2945 116.092 81.1195 116.092 81.1195C116.092 81.1195 115.976 74.7233 117.34 71.5001C118.704 68.2769 116.734 60.4261 116.734 60.4261ZM110.899 64.4964L110.909 64.4783C111.111 68.3835 110.871 76.7172 110.871 76.7172C110.871 76.7172 110.602 77.7856 110.314 79.0431L110.113 71.1259L109.911 63.6674L110.899 64.4964ZM85.9285 61.8043C85.9285 61.8043 86.9144 74.1358 85.9285 75.9144C85.6488 76.4215 85.4134 77.3228 85.2183 78.3509C84.8923 77.4959 84.2022 75.4879 84.4497 74.4235C84.7696 73.0473 83.8119 69.4318 83.8119 69.3473C83.8119 69.2628 83.7254 67.3353 84.4155 65.8625C85.1056 64.3897 84.6529 63.7519 84.6529 63.7519C84.6529 63.7519 85.2324 61.3375 85.9285 61.8043Z" fill="url(#paint0_linear)"/>
<path d="M88.331 89.578C87.4718 93.3545 84.0555 87.6445 83.2768 86.2743C83.1762 86.0952 83.1199 85.9906 83.1199 85.9906L83.4901 84.2543L85.4478 83.4495C85.7578 83.6114 86.0515 83.8028 86.325 84.0209C87.3974 84.8639 88.9929 86.6526 88.331 89.578Z" fill="#D38884"/>
<path d="M114.835 83.3992C114.835 83.3992 114.835 83.4273 114.813 83.4837C114.813 83.5078 114.797 83.54 114.787 83.5742C114.451 84.7532 112.459 91.3908 110.535 89.5478C108.431 87.5358 109.453 82.8841 109.453 82.8841H109.467L113.893 82.4314L114.77 83.3328L114.835 83.3992Z" fill="#D38884"/>
<path d="M112.274 116.064L112.386 128.739C110.65 131.616 110.793 134.172 110.793 134.172L105.071 134.397C103.674 133.457 104.668 130.84 104.668 130.84V124.313C104.668 124.313 103.785 117.937 104.212 116.17C104.638 114.404 102.419 111.14 102.419 111.14L102.105 107.581C101.023 106.159 100.51 98.3019 100.51 98.3019L99.3486 94.3343C99.3808 94.5053 99.9844 97.817 99.3486 98.4267C98.7128 99.0363 98.4653 101.728 98.4653 101.728C98.4653 101.728 99.0911 109.189 98.4653 110.696C97.8396 112.203 98.6343 113.06 98.6343 113.06L98.749 120.804C98.749 120.804 98.2078 122.882 98.8054 125.814C99.4029 128.745 98.8054 133.274 98.8054 133.274H92.6668L92.6949 130.114L91.701 127.438C91.701 127.438 91.0169 116.392 90.4757 113.999C90.1518 112.582 90.3534 111.095 91.0431 109.815C91.0431 109.815 89.9063 107.994 89.9626 106.712C90.019 105.43 89.0854 102.986 89.0854 102.986L87.7615 93.9902C87.798 92.259 87.5769 90.5319 87.1056 88.8657C86.337 86.3024 85.1982 82.9424 85.1982 82.9424L86.4839 83.0571L92.9706 83.6345C92.9706 83.6345 108.743 82.5742 109.449 83.4554C109.598 83.7435 109.698 84.0542 109.747 84.3749C110.455 87.5559 111.39 97.5213 111.39 97.5213C111.39 97.5213 113.298 105.294 112.479 106.062C111.66 106.831 111.761 109.334 111.761 109.334C112.988 111.698 112.274 116.064 112.274 116.064Z" fill="#4D26B9"/>
<path d="M98.9403 138.081C98.896 138.787 98.1093 138.83 98.1093 138.83C95.8036 139.192 95.3127 140.089 95.3127 140.089C95.3127 140.089 93.0995 142.288 89.7616 141.968C86.9246 141.695 87.2003 141.19 87.3472 140.254C87.3757 140.08 87.3912 139.903 87.3934 139.727C87.3934 138.445 88.3753 138.081 89.9125 137.111C91.4496 136.141 91.4074 135.339 92.0472 134.634C92.687 133.93 92.7534 132.564 92.7534 132.564C93.4777 131.303 95.3147 132.765 95.3147 132.765C95.4012 133.212 98.1315 133.15 98.1315 133.15C98.1315 133.15 98.4936 134.602 98.6807 134.687C98.8035 134.743 98.896 135.882 98.9322 136.86C98.9524 137.373 98.9564 137.838 98.9403 138.081Z" fill="#B07473"/>
<path opacity="0.1" d="M98.9403 138.081C98.896 138.787 98.1093 138.829 98.1093 138.829C95.8036 139.192 95.3126 140.089 95.3126 140.089C95.3126 140.089 93.0995 142.288 89.7616 141.968C86.9246 141.695 87.2003 141.19 87.3472 140.254C88.6147 140.568 91.0372 141.006 92.4516 140.238C94.4173 139.172 95.8277 138.427 95.8277 138.427L98.9342 136.864C98.9523 137.373 98.9564 137.838 98.9403 138.081Z" fill="#571AFF"/>
<path d="M116.318 141.882C116.166 142.161 115.912 142.371 115.609 142.467L115.555 142.481C114.615 142.683 110.984 142.683 110.984 142.683C110.984 142.683 107.312 139.844 106.201 139.779C105.091 139.715 104.493 138.753 104.493 138.753C104.493 138.753 104.515 138.093 104.586 137.325C104.672 136.415 104.823 135.359 105.091 135.081C105.582 134.568 105.694 133.874 106.799 134.313C106.799 134.313 108.376 131.532 110.235 133.681L112.159 136.598C112.159 136.598 112.521 137.805 114.957 139.115C115.931 139.638 116.366 140.254 116.489 140.815C116.566 141.18 116.505 141.56 116.318 141.882Z" fill="#B07473"/>
<path opacity="0.1" d="M116.318 141.882C116.1 142.065 115.861 142.262 115.609 142.467L115.555 142.481C114.615 142.682 110.984 142.682 110.984 142.682C110.984 142.682 107.312 139.843 106.201 139.779C105.091 139.715 104.493 138.753 104.493 138.753C104.493 138.753 104.515 138.093 104.586 137.324C105.716 137.662 107.429 138.26 107.887 138.904C108.592 139.884 110.73 141.252 110.73 141.252C110.73 141.252 114.718 140.868 116.489 140.815C116.566 141.18 116.505 141.56 116.318 141.882Z" fill="#571AFF"/>
<path d="M100.799 42.5316L95.548 48.0827C95.548 48.0827 89.1841 47.6139 90.2947 45.7347C90.86 44.777 90.9486 42.773 90.8983 41.0306C90.852 39.3506 90.679 37.9201 90.679 37.9201C90.679 37.9201 99.6042 33.4776 98.9281 37.6203C98.7825 38.4009 98.7743 39.201 98.904 39.9844C99.2843 42.0769 100.799 42.5316 100.799 42.5316Z" fill="#D38884"/>
<path opacity="0.1" d="M98.9201 37.6203C98.7744 38.4009 98.7663 39.201 98.8959 39.9844C98.2855 40.603 97.558 41.094 96.7559 41.4287C95.9539 41.7635 95.0932 41.9352 94.2241 41.934C93.0169 41.934 91.7111 40.9421 90.7353 40.3687C90.689 38.6867 90.679 37.9201 90.679 37.9201C90.679 37.9201 99.6042 33.4776 98.9201 37.6203Z" fill="#571AFF"/>
<path d="M100.799 35.0148C100.8 36.505 100.294 37.9512 99.3654 39.1166C98.4366 40.2819 97.1395 41.0973 95.6868 41.4292C94.234 41.761 92.7116 41.5897 91.3689 40.9433C90.0262 40.2968 88.9428 39.2136 88.2962 37.871C87.6496 36.5284 87.4781 35.006 87.8098 33.5532C88.1415 32.1003 88.9567 30.8032 90.1219 29.8743C91.2872 28.9453 92.7333 28.4396 94.2235 28.4399C95.7137 28.4403 97.1596 28.9467 98.3244 29.8762C99.0962 30.492 99.7194 31.2737 100.148 32.1633C100.576 33.0529 100.799 34.0275 100.799 35.0148Z" fill="#D38884"/>
<path opacity="0.1" d="M109.747 84.3749C108.109 88.2721 97.5739 88.3526 97.5739 88.3526V84.1032L96.9361 84.061C97.2118 85.2782 96.5498 88.2459 96.5498 88.2459C88.2242 89.4209 86.1941 84.6767 86.1941 84.6767L86.4838 83.053L92.9705 83.6304C92.9705 83.6304 108.743 82.5701 109.449 83.4514C109.598 83.7407 109.699 84.0527 109.747 84.3749Z" fill="#571AFF"/>
<path d="M97.5739 87.8396V83.5903L96.9361 83.55C97.2118 84.7572 96.5498 87.735 96.5498 87.735C90.2845 88.6182 87.5844 86.1515 86.6327 84.8759C86.4616 84.6562 86.3145 84.4188 86.1941 84.1677L88.7373 69.8624L89.3409 48.809L90.2523 45.1149L90.4635 43.3424V43.3223H90.4857L91.1335 43.5999L95.0107 45.2759L99.4149 41.9501L99.4793 41.9038L99.6986 41.7368L100.063 42.0286L100.968 42.7549L103.871 61.5046C103.871 61.5046 108.901 75.9407 109.843 81.7674C109.881 82.0008 109.911 82.2181 109.936 82.4213C110.557 87.741 97.5739 87.8396 97.5739 87.8396Z" fill="#F4ED0F"/>
<path d="M95.4817 46.0646C95.6883 46.0646 95.8559 45.8971 95.8559 45.6904C95.8559 45.4837 95.6883 45.3162 95.4817 45.3162C95.275 45.3162 95.1074 45.4837 95.1074 45.6904C95.1074 45.8971 95.275 46.0646 95.4817 46.0646Z" fill="#571AFF"/>
<path d="M95.6545 49.4812C95.8612 49.4812 96.0287 49.3136 96.0287 49.1069C96.0287 48.9002 95.8612 48.7327 95.6545 48.7327C95.4478 48.7327 95.2803 48.9002 95.2803 49.1069C95.2803 49.3136 95.4478 49.4812 95.6545 49.4812Z" fill="#571AFF"/>
<path d="M96.0288 55.0119C96.2354 55.0119 96.403 54.8443 96.403 54.6377C96.403 54.431 96.2354 54.2634 96.0288 54.2634C95.8221 54.2634 95.6545 54.431 95.6545 54.6377C95.6545 54.8443 95.8221 55.0119 96.0288 55.0119Z" fill="#571AFF"/>
<path d="M96.6464 60.9694C96.8531 60.9694 97.0206 60.8019 97.0206 60.5952C97.0206 60.3885 96.8531 60.2209 96.6464 60.2209C96.4398 60.2209 96.2722 60.3885 96.2722 60.5952C96.2722 60.8019 96.4398 60.9694 96.6464 60.9694Z" fill="#571AFF"/>
<path d="M97.0207 66.5629C97.2274 66.5629 97.3949 66.3954 97.3949 66.1887C97.3949 65.982 97.2274 65.8145 97.0207 65.8145C96.814 65.8145 96.6465 65.982 96.6465 66.1887C96.6465 66.3954 96.814 66.5629 97.0207 66.5629Z" fill="#571AFF"/>
<path d="M97.395 72.5202C97.6017 72.5202 97.7692 72.3526 97.7692 72.146C97.7692 71.9393 97.6017 71.7717 97.395 71.7717C97.1883 71.7717 97.0208 71.9393 97.0208 72.146C97.0208 72.3526 97.1883 72.5202 97.395 72.5202Z" fill="#571AFF"/>
<path d="M97.2461 78.4135C97.4527 78.4135 97.6203 78.2459 97.6203 78.0393C97.6203 77.8326 97.4527 77.665 97.2461 77.665C97.0394 77.665 96.8718 77.8326 96.8718 78.0393C96.8718 78.2459 97.0394 78.4135 97.2461 78.4135Z" fill="#571AFF"/>
<path opacity="0.1" d="M90.7131 71.9427C90.7131 71.9427 90.2946 77.4214 89.526 79.0149C88.7574 80.6084 88.4154 85.079 88.4154 85.079L86.6307 84.8778C86.4596 84.6581 86.3126 84.4207 86.1921 84.1696L88.7353 69.8644L89.3389 48.8109L90.2523 45.1148L90.4636 43.3423L90.4877 43.3322C90.5874 43.2851 90.6966 43.2615 90.8068 43.2633C90.917 43.265 91.0254 43.292 91.1235 43.3423L91.208 43.3865C91.1825 43.459 91.1584 43.5334 91.1356 43.6099C90.4394 45.7888 90.1799 49.8048 90.1799 49.8048C90.1799 49.8048 91.1859 57.1506 91.2905 60.5669C91.3951 63.9833 90.7131 71.9427 90.7131 71.9427Z" fill="#571AFF"/>
<path opacity="0.1" d="M86.325 84.0269C86.3054 84.0728 86.2826 84.1171 86.2566 84.1597C85.5645 85.3287 83.81 86.0711 83.2768 86.2743C83.1762 86.0952 83.1199 85.9906 83.1199 85.9906L83.4901 84.2543L85.4478 83.4495C85.758 83.6134 86.0518 83.8067 86.325 84.0269Z" fill="#571AFF"/>
<path d="M81.5827 56.0681L79.959 57.0359L78.4802 63.6131C78.4802 63.6131 76.6292 69.1923 78.0516 73.1781C79.4741 77.1638 80.3011 79.4454 80.3011 79.4454C80.3011 79.4454 80.8704 83.9724 81.7255 84.3426C82.5806 84.7128 82.9488 84.912 82.9488 84.912L83.1199 85.9945C83.1199 85.9945 85.4377 85.2078 86.2566 83.8215C87.0754 82.4353 85.653 78.9927 85.653 78.9927C85.653 78.9927 84.4297 76.0593 84.7435 74.6931C85.0574 73.327 84.1158 69.7396 84.1158 69.6631C84.1158 69.5867 84.0313 67.6693 84.7194 66.2025C85.4075 64.7358 84.9488 64.11 84.9488 64.11L84.5202 59.9251L81.5827 56.0681Z" fill="#571AFF"/>
<path opacity="0.1" d="M109.881 83.1436C109.881 83.1436 105.582 84.7653 104.216 83.3448C102.849 81.9243 102.99 75.2586 102.99 75.2586C102.99 75.2586 101.682 62.9593 100.856 60.9392C100.029 58.9192 100.453 44.3403 100.453 44.3403C100.453 44.3403 99.8978 42.4551 99.4129 41.9621C99.3823 41.9305 99.3478 41.9027 99.3103 41.8796L99.4773 41.9159L100.061 42.0406L100.966 42.7669L103.869 61.5167C103.869 61.5167 108.899 75.9527 109.841 81.7795L109.881 83.1436Z" fill="#571AFF"/>
<path opacity="0.1" d="M114.835 83.5703H114.787C114.245 83.6407 109.469 84.2182 109.449 83.2242C109.448 83.1093 109.454 82.9944 109.467 82.8802L113.893 82.4275L114.771 83.3289C114.787 83.3872 114.799 83.4375 114.811 83.4777L114.835 83.5703Z" fill="#571AFF"/>
<path d="M110.252 49.4812L113.39 51.119C113.39 51.119 116.006 57.8913 116.424 60.7946C116.424 60.7946 118.362 68.573 117.028 71.7721C115.694 74.9711 115.805 81.321 115.805 81.321C115.805 81.321 115.036 82.4879 114.722 82.1761C114.408 81.8642 114.837 83.3994 114.837 83.3994C114.837 83.3994 109.471 84.1116 109.449 83.0573C109.427 82.003 110.68 76.965 110.68 76.965C110.68 76.965 111.022 64.9796 110.537 63.1004C110.052 61.2212 110.252 49.4812 110.252 49.4812Z" fill="#571AFF"/>
<path opacity="0.1" d="M100.886 62.2471C100.886 62.2471 99.1193 66.5729 98.5499 66.8586C97.9805 67.1443 98.6646 68.281 98.6646 68.281C98.6646 68.281 101.882 63.7842 100.886 62.2471Z" fill="#571AFF"/>
<path opacity="0.1" d="M99.8313 47.0726C99.8515 46.9901 97.7248 49.159 97.1554 49.487C96.586 49.8149 99.2338 49.4669 99.8313 47.0726Z" fill="#571AFF"/>
<path opacity="0.1" d="M93.9102 61.905C93.9102 61.905 90.6649 64.0035 91.0934 64.8345C91.522 65.6654 93.9102 61.905 93.9102 61.905Z" fill="#571AFF"/>
<path opacity="0.1" d="M99.8032 92.5376C99.8032 92.5376 102.566 94.3142 106.863 94.7508L99.8032 92.5376Z" fill="#571AFF"/>
<path opacity="0.1" d="M93.1699 96.8091C93.1699 96.8091 95.7312 100.028 96.9002 100.111C98.0692 100.193 93.1699 96.8091 93.1699 96.8091Z" fill="#571AFF"/>
<path opacity="0.1" d="M96.7571 109.424C96.6424 109.481 95.3045 112.328 93.9403 112.414C92.5762 112.501 96.7571 109.424 96.7571 109.424Z" fill="#571AFF"/>
<path opacity="0.1" d="M108.628 115.661C108.628 115.661 111.167 115.092 111.732 116.913C111.732 116.907 111.561 116.337 108.628 115.661Z" fill="#571AFF"/>
<path opacity="0.1" d="M106.92 126.075C106.92 126.075 109.996 125.448 110.65 126.303C111.304 127.158 106.92 126.075 106.92 126.075Z" fill="#571AFF"/>
<path opacity="0.1" d="M98.2177 127.532C98.2177 127.56 95.0871 128.16 95.1997 128.558C95.3124 128.957 98.5396 128.9 98.6543 128.273C98.6748 128.195 98.6798 128.115 98.6689 128.036C98.658 127.956 98.6315 127.88 98.5909 127.811C98.5503 127.742 98.4963 127.682 98.4323 127.634C98.3682 127.586 98.2953 127.552 98.2177 127.532Z" fill="#571AFF"/>
<path opacity="0.1" d="M105.896 130.232C105.896 130.232 111.04 129.605 110.724 130.687C110.408 131.769 105.896 130.232 105.896 130.232Z" fill="#571AFF"/>
<path opacity="0.1" d="M78.9631 66.8584C78.9913 66.9429 82.3513 67.3996 82.806 68.4821C82.806 68.4821 79.5044 66.9429 78.9832 66.9429" fill="#571AFF"/>
<path opacity="0.1" d="M83.6893 75.6548C83.6893 75.6548 80.8986 76.5381 81.0978 77.868C81.297 79.1979 80.8141 77.2523 83.6893 75.6548Z" fill="#571AFF"/>
<path opacity="0.1" d="M82.3894 82.4313C82.3894 82.4313 83.4055 81.037 84.3732 81.2925C85.341 81.548 82.3894 82.4313 82.3894 82.4313Z" fill="#571AFF"/>
<path opacity="0.1" d="M98.3244 29.8759C98.2267 29.9707 98.1171 30.0526 97.9985 30.1193C97.1937 30.5881 96.9723 31.3104 96.5901 32.1434C96.2339 32.906 95.8416 33.7128 95.1233 34.1453C94.1958 34.7047 92.9745 34.4995 92.0108 34.9864C91.5829 35.2091 91.2316 35.5549 91.0021 35.9791C90.7726 36.4033 90.6754 36.8866 90.7231 37.3665C90.7843 37.7369 90.8759 38.1016 90.9967 38.457C91.2159 39.2266 91.315 40.0254 91.2905 40.8252C91.2925 40.8486 91.2925 40.8722 91.2905 40.8956C90.4659 40.4836 89.7372 39.9029 89.1516 39.1911C88.566 38.4792 88.1366 37.6522 87.8912 36.7637C87.6459 35.8752 87.5901 34.9451 87.7275 34.0336C87.8649 33.1222 88.1924 32.2498 88.6887 31.4731C89.1851 30.6964 89.8392 30.0327 90.6086 29.5251C91.378 29.0176 92.2455 28.6774 93.1549 28.5268C94.0643 28.3762 94.9951 28.4185 95.8871 28.6509C96.7791 28.8833 97.6122 29.3007 98.3324 29.8759H98.3244Z" fill="#571AFF"/>
<path d="M98.1535 27.8963C97.4312 26.3793 95.8598 25.4175 94.2442 24.9488C93.0108 24.5926 91.6709 24.4759 90.4476 24.8683C89.7494 25.0896 89.1156 25.4719 88.4617 25.7998C87.2425 26.4155 85.9025 26.9024 84.985 27.9144C84.7697 28.1498 84.5826 28.4516 84.6369 28.7635C84.6832 28.9949 84.8643 29.1659 84.981 29.3792C85.2445 29.8419 85.1822 30.4234 84.9991 30.9264C84.816 31.4294 84.5565 31.8962 84.4317 32.4133C84.307 32.9303 84.3552 33.5359 84.7375 33.9041C84.9085 34.0671 85.1279 34.1697 85.313 34.3065C85.5221 34.4872 85.7056 34.6957 85.8582 34.9262L86.9447 36.4111C87.4551 37.0691 87.91 37.7683 88.3048 38.5015C88.5744 39.0408 88.7836 39.6162 89.1458 40.0971C89.508 40.5779 90.0713 40.9642 90.6709 40.9119C90.7173 40.9131 90.7634 40.9033 90.8053 40.8834C90.8473 40.8635 90.8839 40.834 90.9123 40.7972C90.9346 40.7502 90.945 40.6983 90.9425 40.6463C90.969 39.8495 90.872 39.0534 90.6548 38.2863C90.5337 37.9309 90.4422 37.5662 90.3812 37.1958C90.3349 36.716 90.4327 36.2332 90.662 35.8093C90.8914 35.3853 91.2419 35.0394 91.6689 34.8156C92.6346 34.3287 93.8559 34.5339 94.7814 33.9766C95.5017 33.542 95.894 32.7352 96.2481 31.9646C96.6365 31.1316 96.8517 30.4093 97.6565 29.9405C98.4613 29.4717 98.5539 28.6951 98.1535 27.8963Z" fill="#000A2C"/>
<path opacity="0.1" d="M95.208 135.391C95.208 135.391 96.214 136.673 95.9525 137.403C95.6909 138.133 95.208 135.391 95.208 135.391Z" fill="#571AFF"/>
<path opacity="0.1" d="M108.819 138.598C108.819 138.598 109.042 136.88 109.938 136.864C110.833 136.848 110.877 136.771 111.561 137.035C112.246 137.298 112.887 137.707 112.682 137.767C112.477 137.827 111.505 136.785 110.507 137.318C109.884 137.659 109.315 138.09 108.819 138.598Z" fill="#571AFF"/>
<path opacity="0.1" d="M92.2059 47.4307L95.0227 45.457C95.0227 45.457 90.9021 43.0224 90.4112 43.3645C89.9203 43.7065 89.5823 46.7849 89.5823 46.7849L92.2059 47.4307Z" fill="#571AFF"/>
<path d="M92.194 47.3039L95.0107 45.2919C95.0107 45.2919 90.8902 42.8574 90.3993 43.1994C89.9083 43.5415 89.5703 46.7888 89.5703 46.7888L92.194 47.3039Z" fill="#E1E7EF"/>
<path d="M92.194 47.3039L95.0107 45.2919C95.0107 45.2919 90.8902 42.8574 90.3993 43.1994C89.9083 43.5415 89.5703 46.7888 89.5703 46.7888L92.194 47.3039Z" fill="#F4ED0F"/>
<path d="M90.866 43.2155L90.7815 43.1732C90.6558 43.1091 90.5142 43.0828 90.3739 43.0974C90.2336 43.1121 90.1005 43.1671 89.9908 43.2557L81.5404 50.1106C81.5404 50.1106 79.7034 52.6517 79.959 57.0358L84.9427 64.0959C84.9427 64.0959 85.5121 61.7057 86.1941 62.1604C86.1941 62.1604 87.1619 74.4034 86.1941 76.1679C85.2264 77.9324 84.7998 84.5378 84.7998 84.5378L88.0733 84.908C88.0733 84.908 88.4154 80.4373 89.1839 78.8438C89.9525 77.2503 90.371 71.7717 90.371 71.7717C90.371 71.7717 91.0631 63.8122 90.9485 60.3959C90.8338 56.9795 89.8378 49.6337 89.8378 49.6337C89.8378 49.6337 90.1175 45.3281 90.866 43.2155Z" fill="#571AFF"/>
<path opacity="0.1" d="M99.2841 46.1834L95.7732 44.8836C95.7732 44.8836 100.244 39.9865 100.803 42.7026L99.2841 46.1834Z" fill="#571AFF"/>
<path d="M99.2841 46.0122L95.7732 44.7125C95.7732 44.7125 100.244 39.8153 100.803 42.5315L99.2841 46.0122Z" fill="#E1E7EF"/>
<path d="M99.2841 46.0122L95.7732 44.7125C95.7732 44.7125 100.244 39.8153 100.803 42.5315L99.2841 46.0122Z" fill="#F4ED0F"/>
<path opacity="0.1" d="M99.1694 41.8456C99.2201 41.8374 99.2719 41.849 99.3143 41.8778L99.1694 41.8456Z" fill="#571AFF"/>
<path d="M99.5076 41.5053L108.823 43.5173C108.823 43.5173 111.386 44.0866 113.237 50.521C115.088 56.9553 110.702 64.8383 110.702 64.8383L109.735 64.0154L110.219 82.8054C110.219 82.8054 105.92 84.4271 104.554 83.0066C103.188 81.5862 103.33 74.9144 103.33 74.9144C103.33 74.9144 102.021 62.6171 101.194 60.595C100.367 58.573 100.791 43.9981 100.791 43.9981C100.791 43.9981 100.031 41.3926 99.5076 41.5053Z" fill="#571AFF"/>
<path opacity="0.1" d="M108.03 53.4787C107.9 53.5994 107.747 59.2853 108.316 63.6131C108.664 66.2486 109.202 68.8555 109.926 71.4136L109.081 54.0762C109.081 54.0762 108.429 53.1085 108.03 53.4787Z" fill="#571AFF"/>
<path opacity="0.1" d="M106.892 48.5815C107.119 48.7244 108.117 51.0865 107.66 52.0542C107.203 53.022 106.892 48.5815 106.892 48.5815Z" fill="#571AFF"/>
<path opacity="0.1" d="M98.0991 27.8962C97.6418 26.9957 96.9295 26.2497 96.0509 25.7515C96.7041 26.2192 97.2315 26.8413 97.5861 27.5623C97.9885 28.3671 97.8698 29.1719 97.0871 29.6125C96.3044 30.0531 96.061 30.8036 95.6787 31.6365C95.3226 32.3991 94.9302 33.2059 94.2099 33.6485C93.2844 34.2079 92.0631 34.0006 91.0974 34.4875C90.6706 34.7121 90.3203 35.0585 90.091 35.4827C89.8617 35.9069 89.7638 36.3897 89.8097 36.8697C89.8716 37.2395 89.9638 37.6036 90.0853 37.9582C90.3044 38.7278 90.4035 39.5266 90.3791 40.3263C90.3809 40.3785 90.3698 40.4303 90.3469 40.4772C90.3191 40.5142 90.2829 40.5439 90.2412 40.5638C90.1995 40.5838 90.1536 40.5934 90.1075 40.5919C89.866 40.6104 89.6239 40.5653 89.4053 40.4611C89.5636 40.6182 89.7523 40.7411 89.96 40.8224C90.1676 40.9037 90.3896 40.9417 90.6125 40.934C90.6488 40.9392 90.6858 40.936 90.7206 40.9246C90.7554 40.9132 90.7871 40.8939 90.8133 40.8682C90.8394 40.8424 90.8592 40.811 90.8711 40.7763C90.8831 40.7417 90.8868 40.7047 90.8821 40.6684C90.9081 39.8687 90.8097 39.0697 90.5903 38.3003C90.4676 37.9453 90.3754 37.5804 90.3147 37.2098C90.2684 36.73 90.3662 36.2473 90.5955 35.8233C90.8249 35.3993 91.1754 35.0534 91.6024 34.8296C92.5681 34.3427 93.7894 34.5479 94.7149 33.9906C95.4352 33.556 95.8276 32.7492 96.1817 31.9786C96.57 31.1456 96.7853 30.4233 97.5901 29.9545C98.3949 29.4857 98.5015 28.695 98.0991 27.8962Z" fill="#571AFF"/>
<path d="M155.415 53.163C152.642 53.1086 150.196 51.151 148.809 48.7587C148.446 48.1895 148.217 47.5446 148.141 46.8735C148.151 46.721 148.177 46.5699 148.218 46.4228C148.303 46.1982 148.37 45.9675 148.419 45.7327C148.43 45.6391 148.43 45.5446 148.419 45.451C148.419 45.451 148.419 45.451 148.419 45.4349C148.486 44.9259 148.186 44.4289 147.816 44.0808C147.445 43.7327 146.981 43.4772 146.594 43.1312C145.403 42.0849 145.041 40.4069 145.019 38.8094V38.7249C145.033 38.0408 145.087 37.3547 145.081 36.6707C145.091 36.2823 145.074 35.8938 145.031 35.5077C144.916 34.54 144.548 33.5541 143.788 32.9364C141.804 31.3268 138.468 33.0028 136.414 31.4817C135.915 31.1095 135.51 30.5602 134.905 30.4154C134.448 30.3047 133.973 30.4536 133.526 30.6025C132.013 31.1015 130.325 31.7574 129.734 33.2181C129.396 34.0571 129.49 35.0148 129.18 35.8638C128.979 36.4332 128.595 36.9222 128.315 37.4614C128.086 37.8673 127.974 38.3294 127.993 38.7953C127.969 39.0365 128.002 39.2802 128.092 39.5056C128.197 39.7772 128.366 40.0194 128.585 40.2118C128.506 40.3798 128.407 40.5378 128.291 40.6826C127.905 41.1554 127.311 41.4874 126.909 41.9582C126.164 42.8213 126.193 43.9943 126.559 45.0083C126.925 46.0224 127.587 46.9459 128.044 47.9338C128.245 48.3623 128.398 48.8412 128.195 49.2677C128.052 49.5635 127.756 49.7888 127.527 50.0444C127.191 50.4206 126.98 50.8915 126.923 51.3924C122.394 52.4266 122.39 56.0663 122.39 56.0663L119.943 62.2189C119.943 62.2189 119.551 63.2551 119.09 64.6233L116.195 64.1042L118.207 67.4722C117.827 68.8444 117.557 70.116 117.646 70.7558C117.646 70.7558 116.746 74.981 118.346 75.7194L121.875 77.3069C122.028 77.4006 122.192 77.4743 122.364 77.5262L122.507 77.5905C122.558 77.6155 122.615 77.6284 122.672 77.6284C122.729 77.6284 122.785 77.6155 122.837 77.5905H122.847H122.885C122.953 77.5951 123.022 77.5848 123.086 77.5604C123.165 77.5181 123.227 77.4508 123.263 77.3692C123.262 77.3626 123.262 77.3558 123.263 77.3491L124.319 77.0433L125.215 78.1036C125.617 78.3873 126.02 78.6328 126.4 78.8541L125.014 92.6201C125.014 92.6201 124.79 110.929 124.114 115.102C123.865 116.647 123.863 117.702 123.957 118.418L123.931 118.462C124.098 119.639 124.535 119.871 124.535 119.871V119.854C124.543 119.861 124.552 119.866 124.561 119.871C124.765 119.336 125.007 118.817 125.285 118.317C125.285 118.416 125.285 118.518 125.285 118.619C125.271 120.172 125.223 122.347 125.062 123.762C124.788 126.176 125.762 134.134 125.762 134.134L126.098 141.377C126.153 142.607 125.867 143.828 125.273 144.906C124.468 146.352 123.44 148.389 123.366 149.292C123.362 149.341 123.362 149.39 123.366 149.439L121.64 151.515C121.64 151.515 120.965 152.557 122.489 152.978C123.307 153.205 124.72 152.978 125.855 152.71C126.35 152.596 126.792 152.318 127.109 151.92C127.426 151.523 127.598 151.03 127.599 150.521C127.886 149.524 128.37 148.594 129.024 147.787L129.307 149.455L131.207 149.926L131.45 145.354C131.548 145.098 131.593 144.824 131.581 144.55C131.955 141.298 130.7 141.59 130.7 141.59C130.733 141.619 130.755 141.659 130.76 141.703L130.7 141.592C129.929 140.071 130.297 137.568 130.297 137.568C130.297 137.568 131.303 130.325 131.647 128.411C131.895 127.059 131.792 122.633 131.71 120.162C131.71 120.06 131.71 119.961 131.699 119.863C134.645 119.824 138.255 119.726 140.788 119.48V119.778L140.321 136.89C140.289 137.981 140.067 139.058 139.665 140.073C139.665 140.093 139.651 140.111 139.643 140.131C139.088 141.565 138.774 143.08 138.715 144.616L138.498 150.048V150.199C138.12 150.344 137.522 150.765 137.506 151.984C137.48 153.771 140.629 153.175 140.629 153.175C143.775 153.175 143.802 149.9 143.802 149.9C143.802 149.9 143.9 146.896 144.051 144.886C144.202 142.876 143.576 143.318 143.576 143.318L143.528 149.036C143.528 149.05 143.528 149.065 143.528 149.081V144.069L143.576 143.342V143.322V143.167L143.973 137.27C143.973 137.27 146.872 127.444 147.321 125.558C147.641 124.218 147.508 120.182 147.403 117.951C147.403 117.848 147.403 117.75 147.387 117.655C148.286 117.575 149.081 117.567 149.399 117.567H149.546C149.546 117.567 149.397 101.785 149.021 95.8373C148.644 89.8899 148.047 84.4474 146.548 82.8097C145.643 81.8198 144.381 78.7635 143.53 76.5C145.319 77.2736 147.176 77.8798 149.077 78.3108C153.823 79.3048 153.173 75.1842 153.173 75.1842L152.693 67.3918H152.725C152.707 65.3506 152.532 63.3138 152.202 61.2994C151.95 59.7542 151.566 58.1567 150.978 56.8731C151.493 56.6719 152.003 56.4566 152.501 56.2353C153.791 55.6659 155.244 54.8591 155.429 53.4688H155.367C155.391 53.3684 155.408 53.2661 155.415 53.163ZM125.993 64.4301C126.004 65.2349 125.973 66.6312 125.925 68.1744L124.418 66.1624L125.929 63.7118L125.993 64.4301ZM146.814 71.5606L144.303 70.7558C144.748 70.0611 145.268 69.4174 145.854 68.8364L146.071 68.6352L145.993 68.6513L146.113 68.5406L146.186 68.5245L146.071 68.6352L146.208 68.607C146.359 69.2378 146.651 69.826 147.063 70.3273C147.964 71.3111 146.816 71.5606 146.816 71.5606H146.814Z" fill="url(#paint1_linear)"/>
<path d="M131.561 143.99L131.267 149.559L129.394 149.091L128.999 146.775L131.561 143.99Z" fill="#A27772"/>
<path opacity="0.1" d="M131.561 143.99L131.267 149.559L129.394 149.091L128.999 146.775L131.561 143.99Z" fill="#571AFF"/>
<path d="M138.436 150.298L141.293 150.889L143.411 149.018V143.745L143.459 143.025V143.002V142.85L143.854 136.989C143.854 136.989 146.713 127.232 147.158 125.359C147.471 124.031 147.341 120.023 147.236 117.808C147.194 116.901 147.158 116.293 147.158 116.293L140.85 114.766L140.717 119.615L140.256 136.604C140.225 137.687 140.006 138.757 139.611 139.765L139.588 139.823C139.04 141.246 138.731 142.75 138.673 144.274L138.46 149.676V149.825L138.436 150.298Z" fill="#CC818C"/>
<path opacity="0.1" d="M138.436 150.298L141.293 150.889L143.411 149.018V148.57C143.404 148.669 143.373 148.765 143.32 148.849C143.267 148.933 143.194 149.003 143.107 149.052L143.077 149.071C142.093 149.591 140.978 149.811 139.87 149.704L138.755 149.61C138.654 149.619 138.554 149.644 138.46 149.682V149.831L138.436 150.298Z" fill="#571AFF"/>
<path d="M143.077 149.218L143.107 149.201C143.2 149.149 143.278 149.073 143.332 148.981C143.386 148.89 143.415 148.785 143.415 148.678L143.461 143.003C143.461 143.003 144.077 142.562 143.928 144.558C143.779 146.554 143.683 149.535 143.683 149.535C143.683 149.535 143.659 152.787 140.554 152.787C140.554 152.787 137.45 153.378 137.474 151.604C137.498 149.829 138.755 149.757 138.755 149.757L139.87 149.853C140.978 149.96 142.094 149.739 143.077 149.218Z" fill="#B07473"/>
<path d="M123.555 149.091C123.627 150.372 127.398 149.632 127.398 149.632L129.935 144.706C129.935 144.706 132.054 143.079 130.993 141.65C130.937 141.572 130.885 141.491 130.838 141.407C130.838 141.407 130.838 141.407 130.828 141.395C130.806 141.358 130.786 141.32 130.766 141.28C130.005 139.771 130.38 137.296 130.38 137.296C130.38 137.296 131.364 130.101 131.71 128.204C131.953 126.864 131.852 122.468 131.772 120.009C131.74 118.987 131.71 118.301 131.71 118.301L125.45 116.625C125.45 116.625 125.45 117.406 125.45 118.492C125.436 120.035 125.388 122.194 125.229 123.599C124.959 125.987 125.919 133.896 125.919 133.896L126.251 141.093C126.309 142.312 126.03 143.524 125.446 144.596C124.662 146.032 123.635 148.056 123.565 148.952C123.558 148.998 123.555 149.044 123.555 149.091Z" fill="#CC818C"/>
<path opacity="0.1" d="M123.555 149.091C123.627 150.372 127.398 149.632 127.398 149.632L129.935 144.706C129.935 144.706 132.054 143.079 130.993 141.65C130.937 141.572 130.885 141.491 130.838 141.407C130.804 142.153 129.985 144.022 129.985 144.022C129.985 144.022 127.891 148.213 127.225 149.173C126.559 150.133 123.666 148.994 123.557 148.954C123.553 148.999 123.552 149.045 123.555 149.091Z" fill="#571AFF"/>
<path d="M130.766 141.274C130.766 141.274 132.005 140.986 131.635 144.213C131.649 144.58 131.566 144.944 131.394 145.268C131.222 145.592 130.967 145.865 130.655 146.058C129.768 146.616 128.4 147.815 127.708 150.147C127.708 150.65 127.539 151.139 127.226 151.533C126.914 151.928 126.477 152.205 125.987 152.32C124.869 152.581 123.474 152.811 122.668 152.585C121.165 152.167 121.831 151.133 121.831 151.133L123.555 149.087C123.555 149.087 126.561 150.27 127.225 149.308C127.889 148.346 129.985 144.159 129.985 144.159C129.985 144.159 131.134 141.546 130.766 141.274Z" fill="#B07473"/>
<path opacity="0.1" d="M140.85 115.364L140.717 120.213C142.397 120.05 143.6 119.822 143.806 119.502C144.25 118.814 145.864 118.525 147.236 118.406C147.194 117.498 147.158 116.891 147.158 116.891L140.85 115.364Z" fill="#571AFF"/>
<path opacity="0.1" d="M125.45 119.081C125.611 118.753 125.847 118.467 126.14 118.249C126.804 117.88 126.732 120.615 126.732 120.615C126.732 120.615 128.945 120.635 131.772 120.599C131.74 119.576 131.71 118.888 131.71 118.888L125.45 117.214C125.45 117.214 125.462 117.991 125.45 119.081Z" fill="#571AFF"/>
<path d="M124.736 119.729C124.736 119.729 125.476 117.717 126.144 117.359C126.812 117.001 126.736 119.723 126.736 119.723C126.736 119.723 142.997 119.872 143.81 118.615C144.622 117.357 149.353 117.432 149.353 117.432C149.353 117.432 149.206 101.762 148.835 95.8511C148.465 89.9398 147.876 84.5417 146.397 82.916C145.441 81.8637 144.081 78.4594 143.24 76.1899C142.783 74.9505 142.48 74.0471 142.48 74.0471L126.959 74.9324L126.832 76.1899L125.185 92.6721C125.185 92.6721 124.963 110.854 124.297 114.993C123.631 119.132 124.736 119.729 124.736 119.729Z" fill="#4D26B9"/>
<g opacity="0.1">
<path opacity="0.1" d="M142.546 118.615C143.351 117.359 148.089 117.432 148.089 117.432C148.089 117.432 147.942 101.762 147.572 95.8511C147.202 89.9398 146.612 84.5417 145.133 82.916C144.174 81.8597 142.818 78.4594 141.977 76.1899C141.592 75.1477 141.317 74.3449 141.24 74.1155L142.447 74.0471C142.447 74.0471 142.751 74.9505 143.21 76.1899C144.051 78.4594 145.409 81.8637 146.365 82.916C147.844 84.5417 148.435 89.9378 148.803 95.8511C149.172 101.764 149.322 117.432 149.322 117.432C149.322 117.432 144.592 117.359 143.777 118.615C143.083 119.687 131.118 119.737 127.645 119.727C132.102 119.717 141.918 119.585 142.546 118.615Z" fill="#571AFF"/>
<path opacity="0.1" d="M124.881 117.359C125.18 117.192 125.329 117.655 125.404 118.216C125.135 118.703 124.902 119.209 124.706 119.729C124.706 119.729 124.277 119.498 124.102 118.321C124.348 117.9 124.619 117.504 124.881 117.359Z" fill="#571AFF"/>
</g>
<path d="M129.532 36.1354C128.458 37.6001 129.545 39.6825 128.392 41.107C128.011 41.5778 127.426 41.9118 127.03 42.3745C126.295 43.2317 126.323 44.3966 126.684 45.4026C127.044 46.4086 127.689 47.3261 128.148 48.3079C128.349 48.7324 128.498 49.2093 128.297 49.6318C128.156 49.9255 127.865 50.1489 127.637 50.4024C126.897 51.2293 126.877 52.3782 127.275 53.352C127.673 54.3258 128.434 55.1628 129.184 55.9877C129.48 56.3116 129.854 56.6697 130.347 56.6597C130.607 56.64 130.857 56.5579 131.078 56.4203C132.785 55.5484 134.089 54.0517 134.721 52.2419C135.352 50.4321 135.261 48.4486 134.466 46.7044C133.842 45.2094 132.802 43.7769 132.792 42.1975C132.792 40.944 133.436 39.7469 133.55 38.4995C133.689 36.9824 132.792 34.5741 130.961 33.9121C131.082 34.8859 130.078 35.3829 129.532 36.1354Z" fill="#4D26B9"/>
<path opacity="0.1" d="M129.532 36.1354C128.458 37.6001 129.545 39.6825 128.392 41.107C128.011 41.5778 127.426 41.9118 127.03 42.3745C126.295 43.2317 126.323 44.3966 126.684 45.4026C127.044 46.4086 127.689 47.3261 128.148 48.3079C128.349 48.7324 128.498 49.2093 128.297 49.6318C128.156 49.9255 127.865 50.1489 127.637 50.4024C126.897 51.2293 126.877 52.3782 127.275 53.352C127.673 54.3258 128.434 55.1628 129.184 55.9877C129.48 56.3116 129.854 56.6697 130.347 56.6597C130.607 56.64 130.857 56.5579 131.078 56.4203C132.785 55.5484 134.089 54.0517 134.721 52.2419C135.352 50.4321 135.261 48.4486 134.466 46.7044C133.842 45.2094 132.802 43.7769 132.792 42.1975C132.792 40.944 133.436 39.7469 133.55 38.4995C133.689 36.9824 132.792 34.5741 130.961 33.9121C131.082 34.8859 130.078 35.3829 129.532 36.1354Z" fill="#571AFF"/>
<path opacity="0.1" d="M141.448 89.415C139.297 89.5277 137.273 90.4532 135.389 91.4994C133.506 92.5457 131.683 93.7307 129.657 94.4731" fill="#571AFF"/>
<path opacity="0.1" d="M140.112 94.4829C137.984 94.6858 136.001 95.6504 134.528 97.1991C134.005 97.7524 133.554 98.3721 133.009 98.9033C132.175 99.7178 131.143 100.302 130.015 100.599" fill="#571AFF"/>
<path opacity="0.1" d="M140.552 98.3401C138.836 98.8163 137.283 99.7528 136.061 101.048C135.732 101.404 135.432 101.785 135.102 102.141C133.321 104.052 130.806 105.066 128.378 106.026" fill="#571AFF"/>
<path d="M140.369 44.8513C140.417 46.57 140.564 48.2844 140.812 49.9859C141.013 51.1931 141.295 52.2796 141.699 52.7604C142.882 54.1688 135.935 56.05 135.935 56.05L131.832 52.8711C131.832 52.8711 135.084 49.8773 133.569 46.9579C132.054 44.0385 140.369 44.8513 140.369 44.8513Z" fill="#BE707B"/>
<path opacity="0.1" d="M126.828 76.1899H143.236C142.779 74.9505 142.476 74.0471 142.476 74.0471L126.955 74.9324L126.828 76.1899Z" fill="#571AFF"/>
<path d="M125.772 75.8942H143.315C142.822 74.1297 143.315 72.498 144.017 71.2425C144.509 70.3626 145.128 69.56 145.854 68.8603L145.975 68.7496L152.099 67.3935L152.429 67.3211C152.429 67.3211 152.479 56.1847 148.536 54.6556C144.592 53.1265 142.228 51.0602 142.228 51.0602L136.81 52.7342L132.818 50.7222C131.537 52.1004 128.136 51.5592 128.136 51.5592C122.569 52.199 122.569 56.3879 122.569 56.3879C122.569 56.3879 125.82 63.9752 126.068 63.9752C126.315 63.9752 125.772 75.8942 125.772 75.8942Z" fill="#F4ED0F"/>
<path opacity="0.1" d="M131.828 68.814C131.828 68.814 128.251 68.0213 127.034 66.635L131.828 68.814Z" fill="#571AFF"/>
<path opacity="0.1" d="M149.866 64.6592L145.717 68.0594C145.747 68.3301 145.793 68.5988 145.854 68.8642L145.975 68.7536L152.099 67.3975L149.866 64.6592Z" fill="#571AFF"/>
<path opacity="0.1" d="M138.633 74.7113C138.633 74.7113 139.54 75.2224 140.931 75.8944H143.315C142.822 74.1299 143.315 72.4982 144.017 71.2427L139.814 69.8826C141.244 71.2125 138.633 74.7113 138.633 74.7113Z" fill="#571AFF"/>
<path d="M125.032 55.052L122.569 56.3819L120.155 62.4923C120.155 62.4923 117.642 69.1923 117.887 70.9669C117.887 70.9669 117.002 75.1558 118.577 75.8942L122.682 77.7533C122.754 77.7853 122.835 77.794 122.913 77.7781C122.99 77.7622 123.061 77.7226 123.115 77.6647C123.169 77.6067 123.204 77.5334 123.215 77.4549C123.225 77.3763 123.211 77.2964 123.175 77.2262C122.589 76.1176 121.945 74.3832 122.973 73.4295L121.79 70.9669L126.066 63.9691L127.494 61.5548L125.032 55.052Z" fill="#F4ED0F"/>
<path opacity="0.1" d="M130.51 67.4158C130.724 68.285 131.444 69.629 133.828 70.13L136.444 72.2727L139.226 73.5342L140.361 74.0473L140.842 70.5726L139.749 69.969L138.476 69.2728C138.476 69.2728 135.603 64.0678 131.054 66.2549C130.842 66.355 130.672 66.5257 130.573 66.7376C130.474 66.9495 130.452 67.1893 130.51 67.4158Z" fill="#571AFF"/>
<path d="M130.659 67.1199C130.872 67.9911 131.591 69.3331 133.975 69.8341L136.591 71.9768L139.375 73.2383L140.508 73.7514L140.989 70.2767L139.896 69.6731L138.633 68.983C138.633 68.983 135.758 63.778 131.208 65.9751C130.999 66.0737 130.83 66.2413 130.73 66.4499C130.63 66.6584 130.605 66.895 130.659 67.1199Z" fill="#BE707B"/>
<path opacity="0.1" d="M135.786 49.3583C139.296 49.3583 142.142 46.5126 142.142 43.0024C142.142 39.4921 139.296 36.6465 135.786 36.6465C132.276 36.6465 129.43 39.4921 129.43 43.0024C129.43 46.5126 132.276 49.3583 135.786 49.3583Z" fill="#571AFF"/>
<path d="M135.786 49.2115C139.296 49.2115 142.142 46.3659 142.142 42.8556C142.142 39.3454 139.296 36.4998 135.786 36.4998C132.276 36.4998 129.43 39.3454 129.43 42.8556C129.43 46.3659 132.276 49.2115 135.786 49.2115Z" fill="#BE707B"/>
<path opacity="0.1" d="M139.723 56.4364L137.812 52.7222C137.812 52.7222 140.608 51.5915 140.812 50.2817C141.015 48.9719 143.492 51.8168 142.956 52.7605C142.421 53.7041 139.723 56.4364 139.723 56.4364Z" fill="#571AFF"/>
<path d="M139.723 56.1408L137.812 52.4266C137.812 52.4266 140.608 51.2959 140.812 49.9861C141.015 48.6763 143.492 51.5233 142.956 52.4649C142.421 53.4065 139.723 56.1408 139.723 56.1408Z" fill="#F4ED0F"/>
<path d="M124.08 65.7359L134.641 79.9346C134.641 79.9346 130.748 82.0532 125.386 78.2606L123.07 75.5002L116.458 64.3557L124.08 65.7359Z" fill="#F6F8FB"/>
<path d="M122.002 73.4558L122.963 73.4297C122.963 73.4297 128.838 67.7277 130.281 70.6129C131.724 73.4981 126.621 76.1941 126.621 76.1941L125.07 77.0311L123.048 77.6347L121.754 75.8984L122.002 73.4558Z" fill="#BE707B"/>
<path opacity="0.1" d="M123.42 76.5362C123.509 76.8641 123.593 77.2263 123.444 77.5301C123.409 77.6114 123.347 77.6786 123.269 77.7213C123.205 77.7459 123.136 77.7555 123.068 77.7494C122.559 77.7061 122.085 77.4718 121.742 77.0935C121.405 76.7165 121.116 76.2988 120.883 75.8501C120.621 75.3934 120.35 74.8884 120.442 74.3693C120.547 73.8039 121.046 73.4116 121.535 73.0937C122.509 72.4498 122.541 73.2003 122.754 74.0292C122.967 74.8582 123.197 75.6992 123.42 76.5362Z" fill="#571AFF"/>
<path d="M123.273 76.5362C123.36 76.8642 123.446 77.2263 123.297 77.5301C123.261 77.6114 123.2 77.6786 123.122 77.7213C123.058 77.7458 122.989 77.7554 122.921 77.7494C122.412 77.7071 121.938 77.4726 121.595 77.0935C121.257 76.7171 120.967 76.2993 120.734 75.8501C120.472 75.3934 120.201 74.8884 120.295 74.3693C120.398 73.8039 120.899 73.4116 121.386 73.0937C122.362 72.4498 122.392 73.2003 122.607 74.0292C122.822 74.8582 123.048 75.6992 123.273 76.5362Z" fill="#F4ED0F"/>
<path opacity="0.1" d="M126.068 63.9691L126.559 63.1382L126.13 64.6814L126.068 63.9691Z" fill="#571AFF"/>
<path opacity="0.1" d="M139.383 73.2386L140.516 73.7516L140.997 70.2769L139.904 69.6733C140.659 70.5385 139.999 72.138 139.383 73.2386Z" fill="#571AFF"/>
<path opacity="0.1" d="M143.93 69.2046C143.93 69.2046 140.273 69.4279 138.719 68.4299L143.93 69.2046Z" fill="#571AFF"/>
<g opacity="0.1">
<path opacity="0.1" d="M143.476 71.5383C143.968 70.6578 144.587 69.8545 145.313 69.154C145.487 69.0449 145.667 68.9468 145.854 68.8603L151.556 67.6893L151.886 67.6169C151.886 67.6169 151.936 56.4805 147.995 54.9514C145.784 54.1107 143.711 52.9435 141.846 51.4887L142.279 51.356C142.279 51.356 144.643 53.4243 148.586 54.9514C152.53 56.4785 152.477 67.6169 152.477 67.6169H151.886L146.051 68.7335C146.051 68.7335 145.8 68.977 145.723 69.0474C144.991 69.7803 144.364 70.6103 143.858 71.5141C143.086 72.9476 142.91 74.6278 143.369 76.19H142.765C142.279 74.4255 142.782 72.7937 143.476 71.5383Z" fill="#571AFF"/>
<path opacity="0.1" d="M127.903 51.8812C127.997 51.8672 128.088 51.8531 128.187 51.843C128.587 51.8997 128.99 51.9327 129.394 51.9416C128.896 51.9553 128.398 51.9352 127.903 51.8812Z" fill="#571AFF"/>
<path opacity="0.1" d="M136.267 53.03L132.657 51.2031C132.729 51.1444 132.796 51.0805 132.858 51.012L136.625 52.9173L136.267 53.03Z" fill="#571AFF"/>
</g>
<path d="M150.008 64.3557L152.423 67.3133L152.916 75.3452C152.916 75.3452 153.556 79.4336 148.876 78.4477C144.196 77.4618 138.78 74.4157 138.78 74.4157C138.78 74.4157 141.395 70.9168 139.963 69.5869L146.665 71.7558C146.665 71.7558 147.797 71.5084 146.91 70.5245C146.023 69.5406 145.866 67.764 145.866 67.764L150.008 64.3557Z" fill="#F4ED0F"/>
<path opacity="0.1" d="M151.099 72.8403L152.429 74.3674C152.087 74.2624 151.781 74.0636 151.546 73.7938C151.311 73.5239 151.156 73.1936 151.099 72.8403Z" fill="#571AFF"/>
<path opacity="0.1" d="M148.832 72.5925L150.902 75.2524L149.868 75.4999L148.832 72.5925Z" fill="#571AFF"/>
<path opacity="0.1" d="M128.194 39.9382C127.967 39.3809 128.142 38.731 128.416 38.2059C128.689 37.6808 129.066 37.1838 129.271 36.6184C129.575 35.7774 129.482 34.8258 129.814 34.0029C130.4 32.5442 132.064 31.8923 133.554 31.3873C133.995 31.2404 134.464 31.0935 134.914 31.2022C135.518 31.345 135.91 31.8923 136.403 32.2605C138.427 33.7695 141.719 32.1076 143.677 33.7051C144.425 34.3087 144.789 35.2966 144.902 36.2563C145.015 37.216 144.902 38.1898 144.89 39.1576C144.858 40.8517 145.176 42.7047 146.443 43.8274C146.826 44.1654 147.276 44.4189 147.65 44.769C148.025 45.1191 148.318 45.608 148.254 46.1151C148.205 46.3479 148.137 46.5766 148.053 46.7991C147.801 47.6824 148.178 48.6099 148.636 49.4147C150.004 51.7828 152.417 53.7345 155.151 53.7888C154.968 55.169 153.542 55.9698 152.264 56.5352C150.654 57.2575 148.94 57.9657 147.168 57.8752C145.395 57.7846 143.546 56.6498 143.236 54.9034C143.129 54.2998 143.144 53.5735 142.633 53.2596C142.319 53.0685 141.912 53.1168 141.574 52.9739C141.085 52.7727 140.844 52.2235 140.683 51.7185C140.353 50.6764 140.176 49.5921 140.158 48.4993C140.136 47.2035 140.307 45.7891 139.572 44.7228C138.892 43.7349 137.685 43.2339 136.9 42.3265C136.176 41.4855 135.389 40.4714 134.202 40.3145C132.56 40.0831 129.164 42.3144 128.194 39.9382Z" fill="#571AFF"/>
<path d="M128.194 39.6423C127.967 39.085 128.142 38.4351 128.416 37.91C128.689 37.3849 129.066 36.8879 129.271 36.3225C129.575 35.4815 129.482 34.5299 129.814 33.7069C130.4 32.2462 132.063 31.5944 133.554 31.0914C133.995 30.9445 134.464 30.7976 134.914 30.9063C135.518 31.0491 135.91 31.5964 136.403 31.9646C138.427 33.4736 141.719 31.8117 143.677 33.4092C144.425 34.0128 144.789 35.0007 144.902 35.9624C145.015 36.9241 144.902 37.8939 144.89 38.8617C144.858 40.5558 145.176 42.4088 146.443 43.5315C146.826 43.8695 147.276 44.123 147.65 44.4731C148.025 44.8232 148.318 45.3121 148.254 45.8191C148.204 46.052 148.137 46.2807 148.053 46.5032C147.801 47.3865 148.178 48.314 148.636 49.1188C150.008 51.4789 152.411 53.4365 155.145 53.4909C154.962 54.8711 153.535 55.6719 152.258 56.2392C150.648 56.9595 148.934 57.6677 147.161 57.5772C145.389 57.4867 143.54 56.3519 143.23 54.6055C143.123 54.0019 143.138 53.2756 142.626 52.9617C142.313 52.7706 141.906 52.8189 141.568 52.676C141.079 52.4748 140.838 51.9255 140.677 51.4205C140.347 50.3785 140.17 49.2942 140.152 48.2013C140.13 46.9056 140.301 45.4912 139.566 44.4248C138.886 43.4369 137.679 42.936 136.894 42.0285C136.17 41.1875 135.383 40.1735 134.196 40.0166C132.56 39.7872 129.164 42.0225 128.194 39.6423Z" fill="#4D26B9"/>
<path opacity="0.1" d="M132.705 55.9756L136.349 53.0179C136.349 53.0179 133.854 51.6659 133.556 50.513C133.259 49.3601 131.263 51.0602 131.466 52.0944C131.669 53.1286 132.705 55.9756 132.705 55.9756Z" fill="#571AFF"/>
<path d="M132.848 55.5309L136.492 52.5753C136.492 52.5753 133.997 51.2232 133.711 50.0704C133.426 48.9175 131.418 50.6176 131.621 51.6518C131.824 52.6859 132.848 55.5309 132.848 55.5309Z" fill="#F4ED0F"/>
<path opacity="0.1" d="M136.635 55.3397C136.795 55.3397 136.925 55.21 136.925 55.05C136.925 54.89 136.795 54.7603 136.635 54.7603C136.475 54.7603 136.345 54.89 136.345 55.05C136.345 55.21 136.475 55.3397 136.635 55.3397Z" fill="#571AFF"/>
<path opacity="0.1" d="M136.635 56.9496C136.795 56.9496 136.925 56.8199 136.925 56.6598C136.925 56.4998 136.795 56.3701 136.635 56.3701C136.475 56.3701 136.345 56.4998 136.345 56.6598C136.345 56.8199 136.475 56.9496 136.635 56.9496Z" fill="#571AFF"/>
<path opacity="0.1" d="M136.635 58.5572C136.795 58.5572 136.925 58.4275 136.925 58.2675C136.925 58.1075 136.795 57.9778 136.635 57.9778C136.475 57.9778 136.345 58.1075 136.345 58.2675C136.345 58.4275 136.475 58.5572 136.635 58.5572Z" fill="#571AFF"/>
<g opacity="0.1">
<path opacity="0.1" d="M129.665 35.5338C129.953 34.7431 129.891 33.8558 130.16 33.0591C130.035 33.2352 129.932 33.4257 129.852 33.6265C129.518 34.4574 129.613 35.4091 129.307 36.2421L129.287 36.2903C129.436 36.0503 129.563 35.7971 129.665 35.5338Z" fill="#571AFF"/>
<path opacity="0.1" d="M152.652 55.4506C151.043 56.1709 149.329 56.8791 147.556 56.7886C145.783 56.698 143.934 55.5633 143.625 53.8189C143.518 53.2153 143.532 52.4869 143.021 52.1731C142.707 51.9819 142.301 52.0302 141.963 51.8874C141.474 51.6862 141.232 51.1369 141.071 50.6319C140.741 49.5899 140.564 48.5055 140.546 47.4127C140.524 46.119 140.697 44.7046 139.963 43.6362C139.281 42.6483 138.073 42.1493 137.289 41.2399C136.564 40.4009 135.778 39.3849 134.591 39.2279C132.963 39.0066 129.561 41.2399 128.599 38.8617C128.445 38.4124 128.467 37.9211 128.661 37.4875C128.591 37.6063 128.523 37.725 128.46 37.8457C128.187 38.3809 128.013 39.0227 128.241 39.58C129.209 41.9542 132.605 39.7229 134.233 39.9462C135.42 40.1072 136.206 41.1232 136.931 41.9582C137.715 42.8676 138.923 43.3666 139.603 44.3565C140.339 45.4228 140.166 46.8373 140.188 48.131C140.206 49.2238 140.383 50.3082 140.713 51.3502C140.874 51.8572 141.116 52.4004 141.604 52.6056C141.942 52.7485 142.349 52.7022 142.663 52.8913C143.182 53.2052 143.168 53.9396 143.266 54.5372C143.58 56.2815 145.427 57.4163 147.198 57.5068C148.968 57.5974 150.675 56.8912 152.294 56.1689C153.461 55.6498 154.761 54.9315 155.111 53.7545C154.552 54.519 153.562 55.0462 152.652 55.4506Z" fill="#571AFF"/>
</g>
<path d="M188.21 66.8062C183.951 64.3556 182.341 63.752 182.333 63.752L182.245 63.6897C181.781 63.3331 181.412 62.8672 181.172 62.3336C181.167 62.2364 181.167 62.139 181.172 62.0418C181.171 62.0512 181.171 62.0606 181.172 62.07C181.239 60.7723 182.162 59.5912 183.037 58.5611L185.277 55.9274C185.531 55.6668 185.728 55.3556 185.854 55.0139C185.899 54.8304 185.92 54.6416 185.915 54.4526C185.915 54.3761 185.915 54.2997 185.915 54.2232C185.902 53.5693 185.884 52.9134 185.86 52.2595C185.84 51.6881 185.693 50.9678 185.122 50.8511C184.824 50.7908 184.43 50.8974 184.273 50.6499C184.219 50.5449 184.206 50.4242 184.235 50.3099C184.233 50.3193 184.233 50.3287 184.235 50.3381V50.3059C184.345 49.8645 184.416 49.414 184.446 48.9599C184.458 48.7287 184.427 48.4973 184.353 48.2778C184.023 47.3301 182.882 46.9398 181.874 46.7608C180.866 46.5817 179.736 46.4288 179.104 45.6401C178.935 45.3769 178.751 45.1237 178.553 44.8816C178.261 44.6226 177.905 44.4468 177.523 44.3725C176.271 44.0643 174.953 44.1789 173.774 44.6985C173.287 44.9158 172.798 45.2095 172.263 45.1773C171.728 45.1451 171.233 44.7588 170.686 44.6663C169.8 44.5154 168.953 45.1652 168.517 45.9358C168.258 46.3928 168.12 46.9078 168.114 47.4328V47.5213C168.102 48.0861 168.308 48.6341 168.69 49.0504C169.072 49.4528 169.64 49.7184 169.798 50.2395C169.863 50.4507 169.847 50.6801 169.905 50.8954C169.911 50.9221 169.919 50.9483 169.929 50.9739L169.901 51.0121C168.988 52.1806 168.492 53.6213 168.493 55.1045C168.503 56.5451 168.97 57.9452 169.828 59.1025C170.686 60.2599 171.89 61.1145 173.265 61.5429C173.265 61.6093 173.265 61.6756 173.265 61.7441C173.265 62.5489 173.034 63.3879 172.34 63.9975L166.306 66.4079C166.306 66.4079 162.668 65.9753 161.356 71.291C161.147 72.1733 161.071 73.0821 161.131 73.987C161.179 74.7918 161.068 76.2002 160.125 78.0251C158.634 80.9465 158.974 87.6525 162.024 88.3164C164.903 88.9442 166.03 88.6826 166.149 88.6524V88.7691C166.1 90.0286 165.644 100.881 163.984 102.193C163.525 102.557 163.61 102.797 163.984 102.968C163.984 102.968 163.984 103.038 163.974 103.169C163.923 103.974 163.668 106.992 162.565 108.706C161.276 110.698 161.41 122.186 161.41 122.186L160.531 128.959C160.531 128.959 161.072 133.142 160.531 133.872C160.046 134.522 159.403 149.996 159.268 153.352H159.211C158.945 153.369 158.687 153.452 158.459 153.592C158.232 153.732 158.043 153.926 157.908 154.157C157.195 155.314 154.7 157.453 154.7 157.453C154.159 158.221 152.157 158.957 151.099 159.304C150.959 159.349 150.825 159.409 150.697 159.481C150.3 159.696 149.982 160.031 149.787 160.438C149.717 160.559 149.673 160.692 149.656 160.831C149.64 160.969 149.651 161.109 149.691 161.243C149.96 161.905 155.588 162.372 157.012 161.706C158.131 161.185 162.565 160.499 164.406 160.229C164.741 160.187 165.051 160.035 165.29 159.797C165.528 159.558 165.68 159.248 165.722 158.913C165.74 158.798 165.734 158.68 165.705 158.567C165.676 158.454 165.624 158.348 165.553 158.255C165.201 157.819 165.022 156.626 164.95 155.841C165.099 155.78 165.239 155.697 165.364 155.595C165.21 153.183 165.553 150.766 166.37 148.491C167.726 144.906 168.133 138.266 167.795 133.95C167.795 133.95 171.929 116.156 175.185 114.496C175.235 114.561 176.814 116.587 177.015 122.862C177.217 129.236 179.522 133.419 179.522 133.419C179.522 133.419 178.504 144.242 179.522 148.292L178.193 154.68C178.094 154.597 178.032 154.533 178.032 154.533C178.032 154.533 178.072 154.71 178.126 154.994L178.098 155.131L178.156 155.143C178.307 155.948 178.531 157.334 178.438 158.161C178.386 158.626 178.255 159.263 178.166 159.889C178.026 160.873 177.987 161.827 178.504 162.036C179.353 162.378 184.339 162.841 185.184 161.746C185.374 161.523 185.498 161.251 185.542 160.961C185.585 160.671 185.546 160.375 185.43 160.106C185.369 159.956 185.286 159.815 185.184 159.688C185.184 159.688 183.86 157.525 184.235 156C184.269 155.851 184.273 155.696 184.245 155.546C184.218 155.395 184.16 155.252 184.076 155.125C184.134 154.376 184.436 150.912 185.216 147.97C186.065 144.775 187.854 137.769 186.538 133.164C186.489 132.983 186.432 132.806 186.369 132.633C185.61 130.118 185.356 127.478 185.623 124.864C185.134 122.633 185.134 120.323 185.623 118.092C186.438 114.374 187.007 110.722 187.007 110.722C187.007 110.722 187.456 105.809 187.063 102.797C187.063 102.732 187.045 102.668 187.037 102.596L187.25 102.547C187.25 102.547 186.098 97.4348 185.691 94.1814C185.595 93.4128 185.47 92.441 185.333 91.4028C185.708 91.3407 186.077 91.2485 186.438 91.1272C190.097 89.8657 191.25 78.4516 191.25 78.4516V74.8301C191.25 74.8301 192.482 69.2629 188.21 66.8062ZM160.936 154.98C160.823 154.923 160.757 154.885 160.757 154.885L160.936 154.98Z" fill="url(#paint2_linear)"/>
<path d="M186.001 132.705C187.588 137.27 185.735 144.68 184.874 147.996C184.013 151.312 183.75 155.275 183.75 155.275C180.375 155.805 177.927 155.143 177.927 155.143L179.317 148.328C178.323 144.292 179.317 133.506 179.317 133.506C179.317 133.506 177.068 129.337 176.869 122.985C176.667 116.734 175.132 114.712 175.084 114.649C171.909 116.303 167.873 134.037 167.873 134.037C168.203 138.337 167.804 144.954 166.483 148.523C165.68 150.792 165.342 153.199 165.491 155.601C165.028 156.004 164.384 156.06 163.68 155.947C161.791 155.642 159.525 154.014 159.525 154.014C159.525 154.014 160.251 134.699 160.783 133.966C161.314 133.234 160.783 129.069 160.783 129.069L161.642 122.321C161.642 122.321 161.509 110.873 162.766 108.889C163.853 107.175 164.102 104.161 164.151 103.37C164.151 103.245 164.151 103.169 164.151 103.169L166.066 100.875C166.066 100.875 184.593 99.4849 185.985 100.875C186.325 101.215 186.536 101.992 186.661 102.968C187.043 105.97 186.605 110.865 186.605 110.865C186.605 110.865 186.049 114.504 185.254 118.209C184.778 120.433 184.778 122.734 185.254 124.959C184.999 127.565 185.253 130.196 186.001 132.705Z" fill="#571AFF"/>
<path d="M184.842 161.718C184.015 162.81 179.152 162.347 178.323 162.007C177.818 161.806 177.856 160.847 177.993 159.867C178.08 159.245 178.207 158.609 178.259 158.146C178.39 156.955 177.856 154.539 177.856 154.539C177.856 154.539 178.947 155.698 179.211 154.539C179.327 154.032 179.734 153.772 180.156 153.642C180.723 153.47 181.333 153.508 181.874 153.748C182.734 154.122 184.166 154.917 183.911 155.992C183.546 157.511 184.836 159.667 184.836 159.667C184.936 159.793 185.017 159.933 185.077 160.082C185.192 160.35 185.231 160.644 185.189 160.933C185.148 161.221 185.028 161.493 184.842 161.718Z" fill="#A27772"/>
<path opacity="0.1" d="M184.842 161.718C184.015 162.81 179.152 162.347 178.323 162.007C177.818 161.806 177.857 160.847 177.993 159.867C178.517 160.112 179.402 160.315 180.885 160.179C181.23 160.146 181.578 160.135 181.925 160.146C182.978 160.194 184.033 160.172 185.084 160.082C185.198 160.35 185.235 160.645 185.193 160.934C185.15 161.222 185.029 161.494 184.842 161.718Z" fill="#571AFF"/>
<path opacity="0.1" d="M167.871 134.029C168.201 138.328 167.803 144.946 166.481 148.515C165.678 150.784 165.34 153.191 165.489 155.593C165.026 155.996 164.382 156.052 163.678 155.939C164.08 153.149 165.778 141.125 166.867 131.624C168.108 120.806 173.909 113.364 173.909 113.364L175.066 114.637C171.907 116.295 167.871 134.029 167.871 134.029Z" fill="#571AFF"/>
<path d="M182.856 64.4862L182.051 68.4558L178.094 75.1055L173.215 73.0211C173.215 73.0211 166.575 66.0736 170.75 65.0817C171.249 64.9744 171.72 64.7647 172.134 64.4661C172.953 63.8484 173.211 62.951 173.215 62.0718C173.184 61.088 172.955 60.1205 172.543 59.2268L181.078 56.5469C180.729 57.6684 180.526 58.8302 180.474 60.0035C180.408 62.3293 181.279 63.4742 181.981 64.0275C182.24 64.2357 182.537 64.3915 182.856 64.4862Z" fill="#FBBEBE"/>
<path opacity="0.1" d="M181.07 56.5469C180.721 57.6684 180.518 58.8302 180.466 60.0035C180.311 60.189 180.145 60.3656 179.969 60.5326C179.088 61.3742 177.995 61.9617 176.807 62.2326C175.619 62.5036 174.38 62.448 173.221 62.0718C173.188 61.0876 172.958 60.1201 172.543 59.2269L181.07 56.5469Z" fill="#571AFF"/>
<path d="M182.05 55.4546C182.05 56.7898 181.654 58.095 180.913 59.2054C180.171 60.3157 179.117 61.1812 177.884 61.6924C176.651 62.2036 175.293 62.3376 173.984 62.0774C172.674 61.8172 171.471 61.1744 170.527 60.2305C169.583 59.2865 168.94 58.0837 168.679 56.7743C168.418 55.4648 168.552 54.1074 169.063 52.8739C169.574 51.6403 170.439 50.5859 171.549 49.8441C172.659 49.1023 173.964 48.7064 175.299 48.7064C176.187 48.7021 177.066 48.8737 177.887 49.2113C178.708 49.5489 179.454 50.0458 180.081 50.6733C180.709 51.3007 181.206 52.0463 181.544 52.867C181.882 53.6876 182.054 54.5671 182.05 55.4546Z" fill="#FBBEBE"/>
<path opacity="0.1" d="M182.856 64.4863L182.051 68.4559L178.094 75.1055L173.215 73.0211C173.215 73.0211 166.575 66.0737 170.75 65.0818C171.249 64.9744 171.72 64.7648 172.134 64.4661C171.382 66.5345 174.488 70.8381 174.488 70.8381C174.85 71.3713 175.679 71.0393 175.679 71.0393C177.681 70.7355 181.365 64.9792 181.967 64.0215C182.23 64.2335 182.532 64.3914 182.856 64.4863Z" fill="#571AFF"/>
<path opacity="0.1" d="M186.677 102.972C185.502 103.239 179.001 104.678 176.537 104.318C173.825 103.915 168.551 103.658 168.551 103.658C168.551 103.658 165.193 103.839 164.159 103.366C164.159 103.241 164.159 103.165 164.159 103.165L166.074 100.871C166.074 100.871 184.601 99.481 185.993 100.871C186.341 101.219 186.552 101.996 186.677 102.972Z" fill="#571AFF"/>
<path d="M174.486 71.0374C174.486 71.0374 170.996 66.2087 172.311 64.3174L166.414 66.7318C166.414 66.7318 162.865 66.3012 161.586 71.5988C161.381 72.4792 161.307 73.3849 161.366 74.2868C161.415 75.0916 161.306 76.5 160.394 78.3108C158.94 81.2221 159.27 87.906 162.248 88.572C165.225 89.2379 166.282 88.9019 166.282 88.9019C166.282 88.9019 165.879 101.01 164.165 102.4C162.451 103.791 168.551 103.459 168.551 103.459C168.551 103.459 173.825 103.724 176.539 104.121C179.253 104.517 186.86 102.73 186.86 102.73C186.86 102.73 185.735 97.636 185.337 94.3947C184.939 91.1534 184.011 84.2482 184.011 84.2482L190.759 75.1057C190.759 75.1057 191.95 69.5808 187.782 67.1322C183.613 64.6836 182.045 64.084 182.045 64.084C182.045 64.084 177.857 70.9046 175.674 71.2346C175.678 71.2346 174.849 71.5686 174.486 71.0374Z" fill="#F4ED0F"/>
<path opacity="0.1" d="M166.744 72.9548C166.744 72.9548 166.68 75.1399 167.076 75.999C167.473 76.8581 168.929 81.6326 168.929 81.6326H165.62C165.62 81.6326 167.406 79.7131 167.275 78.7856C167.145 77.8581 166.744 72.9548 166.744 72.9548Z" fill="#571AFF"/>
<path d="M176.539 89.431C176.539 89.431 169.231 87.6444 168.551 86.1233C167.871 84.6022 165.994 81.1959 165.994 81.1959L166.764 80.1577L170.317 82.9463C170.317 82.9463 174.543 86.3205 176.539 86.6524C178.534 86.9844 176.539 89.431 176.539 89.431Z" fill="#FBBEBE"/>
<path opacity="0.05" d="M176.539 89.431C176.539 89.431 169.231 87.6444 168.551 86.1233C167.871 84.6022 165.994 81.1959 165.994 81.1959L166.764 80.1577L170.317 82.9463C170.317 82.9463 174.543 86.3205 176.539 86.6524C178.534 86.9844 176.539 89.431 176.539 89.431Z" fill="#571AFF"/>
<path d="M182.856 80.8297V84.7933H182.221C179.072 84.7927 175.975 85.5946 173.223 87.1232L172.028 87.7852L171.708 87.9642L169.656 83.3366L171.575 81.6164H171.674C172.143 81.6627 174.173 81.8317 175.034 81.5419C175.851 81.2643 176.865 80.385 179.271 80.9987C180.456 81.3025 181.47 82.6304 182.619 82.216L182.856 80.8297Z" fill="#FBBEBE"/>
<path opacity="0.1" d="M189.242 73.6109L190.564 75.0998V78.7073C190.564 78.7073 189.44 90.0871 185.868 91.3446C182.297 92.6021 175.917 90.6162 175.917 90.6162C175.917 90.6162 174.269 86.2502 175.04 85.9887C175.81 85.7271 181.85 84.1296 181.85 84.1296C181.85 84.1296 181.766 77.4538 183.088 75.4679C183.088 75.4679 182.229 69.2489 185.206 69.1161C188.184 68.9833 189.242 73.6109 189.242 73.6109Z" fill="#571AFF"/>
<path d="M189.444 73.6109L190.768 75.0998V78.7073C190.768 78.7073 189.643 90.0871 186.07 91.3446C182.496 92.6021 176.118 90.6162 176.118 90.6162C176.118 90.6162 174.47 86.2502 175.243 85.9887C176.016 85.7271 182.054 84.1296 182.054 84.1296C182.054 84.1296 181.967 77.4538 183.291 75.4679C183.291 75.4679 182.43 69.2489 185.408 69.1161C188.385 68.9833 189.444 73.6109 189.444 73.6109Z" fill="#F4ED0F"/>
<path opacity="0.1" d="M180.198 58.3194C180.255 57.8836 180.204 57.4405 180.048 57.0297C179.86 56.6273 179.424 56.3235 178.997 56.4261C178.432 56.5589 178.192 57.2953 177.633 57.4723C177.164 57.6212 176.653 57.2892 176.426 56.8526C176.199 56.416 176.197 55.903 176.197 55.4121C176.197 54.8608 176.197 54.3075 176.197 53.7542C176.197 53.1506 176.176 52.5027 175.806 52.0299C175.346 51.4424 174.261 51.1849 173.537 51.209C173.055 51.2144 172.592 51.4004 172.241 51.7301C171.855 52.0601 171.406 52.3015 170.879 52.215C170.659 52.1822 170.453 52.0876 170.285 51.9423C170.117 51.7969 169.993 51.6068 169.929 51.3941V51.374C170.491 50.6276 171.201 50.0059 172.015 49.5482C172.829 49.0905 173.729 48.8067 174.658 48.7149C175.588 48.623 176.526 48.725 177.414 49.0145C178.302 49.304 179.12 49.7747 179.817 50.3967C180.513 51.0187 181.073 51.7786 181.461 52.6281C181.849 53.4777 182.056 54.3986 182.07 55.3324C182.083 56.2662 181.903 57.1926 181.54 58.0531C181.177 58.9136 180.639 59.6894 179.961 60.3314C180.077 59.6656 180.157 58.9939 180.198 58.3194Z" fill="#571AFF"/>
<path d="M170.879 52.0201C170.659 51.9863 170.453 51.8912 170.285 51.7456C170.116 51.6001 169.992 51.41 169.927 51.1972C169.873 50.9839 169.887 50.7565 169.825 50.5453C169.67 50.0242 169.114 49.7546 168.742 49.3582C167.998 48.5675 168.046 47.2678 168.573 46.3161C169 45.5495 169.825 44.9077 170.69 45.0525C171.225 45.1451 171.696 45.5254 172.231 45.5616C172.766 45.5978 173.237 45.302 173.706 45.0847C174.855 44.5629 176.148 44.4479 177.372 44.7588C177.747 44.8342 178.095 45.0102 178.378 45.2678C178.57 45.5097 178.749 45.7616 178.915 46.0223C179.53 46.807 180.635 46.9619 181.619 47.139C182.603 47.316 183.715 47.7064 184.033 48.652C184.249 49.2797 184.033 49.9598 183.917 50.6117C183.878 50.7447 183.887 50.8872 183.943 51.0141C184.098 51.2676 184.482 51.161 184.772 51.2153C185.329 51.334 185.472 52.0523 185.494 52.6237C185.517 53.2756 185.534 53.9281 185.546 54.5814C185.562 54.8243 185.543 55.0684 185.488 55.3057C185.367 55.6457 185.176 55.9563 184.927 56.2171L182.742 58.8428C181.772 60.0057 180.744 61.3618 180.931 62.8667C180.472 63.0679 179.925 62.6756 179.776 62.1947C179.627 61.7139 179.746 61.1887 179.848 60.7039C180.026 59.8515 180.143 58.9875 180.198 58.1184C180.255 57.6833 180.204 57.2409 180.048 56.8308C179.86 56.4284 179.424 56.1246 178.997 56.2272C178.43 56.36 178.192 57.0963 177.633 57.2734C177.164 57.4223 176.653 57.0903 176.426 56.6537C176.199 56.2171 176.197 55.7061 176.197 55.2151V53.5552C176.197 52.9516 176.176 52.3038 175.806 51.831C175.345 51.2435 174.261 50.9859 173.537 51.0101C173.055 51.016 172.594 51.2019 172.243 51.5312C171.855 51.8632 171.406 52.1066 170.879 52.0201Z" fill="#7C5C5C"/>
<path opacity="0.1" d="M172.402 72.7898L174.474 81.3025C174.474 81.3025 176.108 81.2925 172.402 72.7898Z" fill="#571AFF"/>
<path opacity="0.1" d="M179.482 71.3674C179.482 71.3674 176.77 75.8099 177.828 80.4053L178.333 80.4415C178.333 80.4415 177.432 78.3148 179.482 71.3674Z" fill="#571AFF"/>
<path opacity="0.1" d="M181.194 96.5113C181.194 96.5113 184.526 95.4087 184.768 97.966C184.776 97.966 184.148 96.2135 181.194 96.5113Z" fill="#571AFF"/>
<path opacity="0.1" d="M171.575 81.8218C171.575 81.8218 170.913 86.4494 172.104 88.3065C172.104 88.3065 169.69 89.2984 166.282 89.1012L165.879 81.8218H171.575Z" fill="#571AFF"/>
<path opacity="0.1" d="M172.028 87.7855L171.708 87.9645L169.656 83.337L171.575 81.6167H171.674C171.644 81.8461 171.108 85.8238 172.028 87.7855Z" fill="#571AFF"/>
<path d="M171.575 81.6245C171.575 81.6245 170.913 86.2521 172.104 88.1072C172.104 88.1072 169.69 89.1011 166.282 88.9019L163.966 81.6245H171.575Z" fill="#F4ED0F"/>
<path d="M165.853 158.901C165.814 159.231 165.667 159.539 165.435 159.777C165.202 160.014 164.897 160.168 164.567 160.213C162.771 160.48 158.443 161.164 157.35 161.686C155.96 162.348 150.469 161.887 150.204 161.223C150.165 161.089 150.154 160.949 150.17 160.811C150.186 160.673 150.23 160.539 150.298 160.418C150.487 160.015 150.797 159.681 151.186 159.464C151.314 159.393 151.449 159.334 151.588 159.287C152.622 158.943 154.576 158.211 155.103 157.442C155.103 157.442 157.539 155.312 158.234 154.161C158.364 153.934 158.548 153.743 158.77 153.605C158.992 153.467 159.244 153.385 159.505 153.368C160.085 153.342 160.73 153.634 160.996 154.903C160.996 154.903 164.169 156.714 165.02 155.127C165.02 155.127 165.153 157.565 165.68 158.233C165.752 158.327 165.804 158.435 165.834 158.549C165.864 158.664 165.87 158.784 165.853 158.901Z" fill="#A27772"/>
<path opacity="0.1" d="M165.853 158.901C165.815 159.231 165.667 159.54 165.435 159.777C165.202 160.015 164.897 160.168 164.567 160.213C162.771 160.481 158.443 161.165 157.35 161.686C155.96 162.348 150.469 161.887 150.204 161.223C150.165 161.089 150.154 160.949 150.17 160.811C150.186 160.673 150.23 160.539 150.298 160.418C150.487 160.015 150.797 159.681 151.186 159.464C152.081 160.068 154.069 160.639 158.441 159.957C162.612 159.306 164.678 158.668 165.684 158.233C165.755 158.328 165.807 158.435 165.836 158.55C165.865 158.665 165.871 158.784 165.853 158.901Z" fill="#571AFF"/>
<g opacity="0.1">
<path opacity="0.1" d="M183.907 50.7041V50.6719C184.001 50.177 184.144 49.6659 184.108 49.1689C184.066 49.5751 183.998 49.9783 183.907 50.3762C183.882 50.4841 183.882 50.5962 183.907 50.7041Z" fill="#571AFF"/>
<path opacity="0.1" d="M180.046 56.897C180.151 57.1355 180.206 57.3929 180.208 57.6536C180.238 57.2942 180.182 56.9329 180.046 56.5993C179.86 56.1969 179.424 55.8931 178.997 55.9957C178.43 56.1285 178.192 56.8649 177.631 57.0419C177.164 57.1908 176.653 56.8588 176.424 56.4222C176.195 55.9856 176.195 55.4726 176.195 54.9816C176.195 54.4283 176.195 53.877 176.195 53.3237C176.195 52.7201 176.174 52.0723 175.804 51.5995C175.342 51.0099 174.259 50.7544 173.535 50.7766C173.053 50.7827 172.59 50.9694 172.239 51.2997C171.851 51.6296 171.404 51.8711 170.875 51.7846C170.655 51.7511 170.45 51.6562 170.282 51.511C170.114 51.3658 169.99 51.1761 169.925 50.9637C169.871 50.7504 169.885 50.521 169.823 50.3098C169.668 49.7907 169.112 49.5191 168.74 49.1247C168.391 48.7376 168.193 48.2375 168.183 47.7163C168.155 48.0221 168.191 48.3302 168.287 48.6219C168.382 48.9135 168.537 49.1825 168.74 49.4124C169.112 49.8148 169.668 50.0784 169.823 50.5975C169.885 50.7987 169.871 51.0381 169.925 51.2514C169.99 51.4638 170.114 51.6535 170.282 51.7987C170.45 51.944 170.655 52.0388 170.875 52.0723C171.404 52.1588 171.851 51.9174 172.239 51.5874C172.59 51.2571 173.053 51.0704 173.535 51.0643C174.259 51.0421 175.346 51.2977 175.804 51.8872C176.174 52.36 176.193 53.0099 176.195 53.6115C176.195 54.1648 176.195 54.716 176.195 55.2693C176.195 55.7603 176.195 56.2753 176.424 56.7079C176.653 57.1405 177.158 57.4785 177.631 57.3296C178.186 57.1526 178.436 56.4162 178.997 56.2834C179.424 56.1908 179.86 56.5087 180.046 56.897Z" fill="#571AFF"/>
<path opacity="0.1" d="M185.484 55.0763C185.363 55.4159 185.171 55.7259 184.921 55.9857L182.736 58.6113C181.816 59.7159 180.844 60.9955 180.925 62.406C180.991 61.1122 181.893 59.9352 182.736 58.9091L184.921 56.2835C185.171 56.0237 185.363 55.7137 185.484 55.374C185.539 55.136 185.558 54.8914 185.542 54.6477C185.539 54.7923 185.52 54.9361 185.484 55.0763Z" fill="#571AFF"/>
<path opacity="0.1" d="M179.786 61.9632C179.75 61.8482 179.728 61.7294 179.72 61.6091C179.701 61.8287 179.724 62.0497 179.786 62.261C179.935 62.7399 180.48 63.1363 180.941 62.931C180.928 62.8349 180.92 62.7382 180.917 62.6413C180.458 62.8244 179.927 62.4341 179.786 61.9632Z" fill="#571AFF"/>
</g>
<path opacity="0.1" d="M157.793 154.766C157.793 154.766 158.485 155.974 160.992 154.911L157.793 154.766Z" fill="#571AFF"/>
<path opacity="0.1" d="M178.981 155.06C178.981 155.06 181.142 157.605 183.866 155.895L178.981 155.06Z" fill="#571AFF"/>
<path opacity="0.1" d="M185.271 124.963C185.271 124.963 183.744 125.917 183.695 126.462C183.647 127.007 184.484 126.06 184.484 126.06L185.271 124.963Z" fill="#571AFF"/>
<path opacity="0.1" d="M185.874 132.279C185.343 132.72 184.683 132.978 183.993 133.013C182.85 133.063 182.947 134.552 183.693 134.105C184.44 133.659 185.874 132.279 185.874 132.279Z" fill="#571AFF"/>
<path opacity="0.1" d="M186.164 133.234C186.164 133.234 185.432 136.834 184.836 136.14L186.164 133.234Z" fill="#571AFF"/>
<path d="M44.6768 160.211C44.6768 160.211 49.2742 161.472 51.4874 159.794C53.7006 158.116 54.6603 158.656 54.6603 158.656C54.6603 158.656 59.9378 158.364 60.3724 157.117C60.807 155.869 58.3483 151.338 58.3483 151.338C58.1733 150.936 57.9177 150.425 57.8031 150.425L57.8272 148.513L58.5918 140.516C60.3563 135.991 58.624 130.144 58.624 130.144L58.3081 128.693C58.1306 127.878 58.2363 127.026 58.6079 126.279L61.813 119.84C61.9845 119.415 62.1862 119.002 62.4166 118.605C62.6178 118.237 62.8854 117.782 63.2214 117.237C63.3199 117.08 63.4226 116.917 63.5352 116.746C63.9235 116.142 64.3943 115.458 64.9637 114.67C66.3822 112.704 67.1286 110.243 67.5149 108.432L67.686 109H67.696H67.7242L67.7705 109.01H67.8349H67.8469L67.9294 109.024H67.9596L68.9455 121.571C69.0058 126.464 70.8025 129.172 70.8025 129.172L70.5551 139.974C70.8931 142.576 70.1527 146.045 69.8126 147.429L69.036 149.181C68.7302 149.334 68.4662 149.559 68.2667 149.837C68.0673 150.114 67.9384 150.436 67.8912 150.775C67.7383 152.068 66.3762 154.857 66.3762 154.857C65.849 155.525 64.7042 157.33 64.7042 157.33C64.7042 157.33 64.165 159.072 64.499 159.724C64.833 160.376 67.6256 160.31 67.6256 160.31C70.8146 161.016 73.2592 159.304 73.1043 158.125C72.9493 156.946 73.6012 156.646 73.6012 156.646C74.8688 156.243 74.746 155.384 74.746 155.384C75.0189 153.612 74.6805 151.8 73.7863 150.246L73.5851 150.71C73.5307 149.78 73.6606 148.848 73.9674 147.968L73.8507 148.048L73.8145 148.071H73.8024C74.0036 146.306 75.8567 143.041 75.8567 143.041C79.261 137.069 78.0236 128.977 78.0236 128.977L77.4964 126.454L77.4663 125.502C77.3942 123.23 77.5662 120.957 77.9793 118.722C78.1624 117.732 78.3515 116.537 78.4964 115.219C78.8022 112.434 79.7881 109.561 80.2428 108.344L80.3776 108.32H80.3937C80.5788 108.287 80.7659 108.255 80.955 108.219H80.9913C80.9913 108.219 81.0999 107.632 81.1925 106.632C81.2468 105.994 81.291 105.185 81.291 104.255C81.3047 101.449 80.8762 98.6575 80.0215 95.9842L80.1241 95.8373C80.1241 95.8373 80.3675 95.5073 80.8122 94.9359C81.6291 93.8977 82.9006 92.3203 84.468 90.5417C87.2747 87.3406 86.4498 84.1034 86.4498 84.1034C86.4498 84.1034 84.4177 76.657 83.5123 72.1863C82.9952 69.6391 82.0254 67.9068 81.283 66.8847C81.4504 66.18 81.5448 65.46 81.5647 64.7359C81.625 63.412 81.5788 62.0318 80.9832 60.8427C80.3877 59.6536 79.1201 58.714 77.7962 58.873C77.6084 58.9182 77.4126 58.9182 77.2248 58.873C77.07 58.8028 76.9392 58.6888 76.8486 58.545C76.074 57.4766 76.0237 56.0401 76.2651 54.7444C76.5065 53.4486 77.0015 52.2093 77.2228 50.9095C77.4441 49.6098 77.3435 48.1672 76.5166 47.137C75.5448 45.9298 73.8507 45.5898 72.5872 44.6824C71.6999 44.0446 71.0339 43.1291 70.0983 42.5638C69.1628 41.9984 68.2876 42.2137 67.2715 42.4269C65.5633 42.7871 63.9396 42.9521 62.324 43.6865C60.688 44.4273 59.2208 45.4947 58.0123 46.8232C57.5833 47.2514 57.2549 47.7695 57.0506 48.3402C56.6482 49.6701 57.4349 51.0866 57.2699 52.4628C57.1532 53.4386 56.5778 54.2876 56.121 55.1588C55.6643 56.03 55.3162 57.0642 55.6744 57.9756C56.2377 59.4001 58.0747 59.7019 59.4106 60.4604C59.5891 60.5478 59.7417 60.6803 59.8533 60.8447C60.1833 61.4202 59.5092 62.0177 59.0847 62.5288C58.8417 62.8269 58.6697 63.1764 58.5817 63.5509C58.0287 63.7778 57.54 64.1373 57.1586 64.5976C56.7772 65.058 56.5149 65.605 56.3947 66.1906C55.942 68.2167 56.6381 70.7739 57.2518 72.464C56.5818 76.2284 57.453 77.7133 58.0948 78.2827C58.7445 78.8392 59.1469 79.6309 59.2135 80.4838V80.5542C59.2557 81.2383 59.3282 81.9203 59.4247 82.6004C59.4026 82.4414 59.3805 82.2724 59.3684 82.198C58.8433 83.1698 57.8433 85.6526 57.2799 89.8295C57.1627 90.7247 56.9928 91.6122 56.7709 92.4873C56.3679 94.0371 56.2238 95.6429 56.3444 97.2397L56.445 98.5937C56.346 98.5962 56.2493 98.5642 56.1713 98.5032L56.8775 99.7969V101.98C56.8767 102.964 56.6953 103.94 56.3424 104.859C56.2921 104.992 56.2377 105.125 56.1794 105.261C55.9979 105.629 55.9161 106.038 55.942 106.447C54.4229 108.774 50.9402 121.82 50.9402 121.82C49.0509 126.098 51.0951 128.862 51.0951 128.862C51.0951 128.862 52.085 140.771 52.2701 141.387C52.4552 142.002 52.8656 149.262 52.8656 149.262C52.8656 149.453 52.8656 149.652 52.8656 149.839C52.7558 149.791 52.6401 149.758 52.5216 149.741C50.8657 149.648 50.417 152.264 50.417 152.264L47.0289 155.499C47.0289 155.499 45.4816 155.237 43.2061 156.946C40.9305 158.654 44.6768 160.211 44.6768 160.211ZM78.5085 91.3827L78.4984 91.3465L78.4059 91.4008L78.3676 91.423L78.3495 91.4351L76.7882 85.9242C76.3703 84.4468 76.3308 82.8879 76.6735 81.3912L77.8807 76.1037V74.8321L81.7176 85.057C81.9631 86.4353 79.6835 89.7731 78.5085 91.3827Z" fill="url(#paint3_linear)"/>
<path d="M80.1925 108.016C80.1925 108.016 78.6432 111.785 78.2489 115.4C78.106 116.704 77.9209 117.883 77.7399 118.861C77.3379 121.068 77.172 123.312 77.2449 125.555L77.2751 126.494L77.7781 128.983C77.7781 128.983 78.9853 136.977 75.6514 142.866C75.6514 142.866 73.6756 146.393 73.6153 148.063L72.2773 148.58L69.5732 147.821C69.5732 147.821 70.8789 143.139 70.4544 139.858L70.6979 129.194C70.6979 129.194 68.9414 126.526 68.881 121.698L67.8489 108.447L80.1925 108.016Z" fill="#FDC2CC"/>
<path d="M67.8487 106.129C67.8487 106.129 67.5167 111.295 64.9615 114.857C62.4063 118.418 61.863 119.963 61.863 119.963L58.7163 126.325C58.3519 127.062 58.2477 127.901 58.4205 128.705L58.7304 130.138C58.7304 130.138 60.4325 135.912 58.7002 140.381L57.8793 149.012H53.0787C53.0787 149.012 52.6763 141.84 52.5012 141.232C52.3262 140.624 51.3463 128.862 51.3463 128.862C51.3463 128.862 49.3343 126.126 51.1934 121.903C51.1934 121.903 55.3884 106.098 56.5111 106.372C57.6338 106.646 67.8487 106.129 67.8487 106.129Z" fill="#FDC2CC"/>
<g opacity="0.1">
<path opacity="0.1" d="M58.2437 130.148L57.9358 128.715C57.7582 127.908 57.8619 127.065 58.2296 126.325L61.3763 119.957C61.3763 119.957 61.9216 118.408 64.4748 114.851C66.9274 111.43 67.3318 106.529 67.36 106.153L67.8489 106.129C67.8489 106.129 67.5169 111.295 64.9617 114.857C62.4065 118.418 61.8632 119.963 61.8632 119.963L58.7165 126.325C58.3521 127.062 58.2479 127.901 58.4207 128.705L58.7306 130.138C58.7306 130.138 60.4327 135.912 58.7004 140.381L57.8795 149.012H57.3926L58.2135 140.381C59.9458 135.912 58.2437 130.148 58.2437 130.148Z" fill="#571AFF"/>
</g>
<path opacity="0.1" d="M73.1364 148.069C73.1968 146.399 75.1725 142.872 75.1725 142.872C78.5165 136.977 77.2992 128.989 77.2992 128.989L76.7841 126.498L76.754 125.559C76.681 123.316 76.8469 121.072 77.2489 118.865C77.428 117.887 77.6131 116.708 77.7559 115.404C78.1362 111.923 79.5869 108.302 79.6935 108.036L80.1925 108.016C80.1925 108.016 78.6432 111.785 78.2489 115.4C78.106 116.704 77.9209 117.883 77.7398 118.861C77.3379 121.068 77.172 123.312 77.2449 125.555L77.2751 126.494L77.7781 128.983C77.7781 128.983 78.9853 136.977 75.6514 142.866C75.6514 142.866 73.6756 146.393 73.6153 148.063L72.2773 148.58L71.9956 148.501L73.1364 148.069Z" fill="#571AFF"/>
<path d="M71.587 148.008C71.9493 148.152 72.3418 148.202 72.7286 148.154C73.1153 148.106 73.4838 147.962 73.8002 147.735C73.3574 149.027 73.2946 150.419 73.6191 151.746C74.1664 153.936 68.5127 149.984 68.5127 149.984L69.7199 147.226C69.7199 147.226 70.1887 148.099 71.587 148.008Z" fill="#D39999"/>
<path opacity="0.1" d="M72.0076 148.131C72.3186 148.194 72.6393 148.19 72.9488 148.121C73.2584 148.052 73.5499 147.918 73.8044 147.729C73.3615 149.021 73.2987 150.413 73.6233 151.74C74.1705 153.93 68.5168 149.978 68.5168 149.978L69.724 147.219C69.724 147.219 70.0741 147.891 71.1023 147.996C71.4141 148.032 71.7119 148.075 72.0076 148.131Z" fill="#571AFF"/>
<path d="M58.7607 96.8772H61.1228V83.4754L59.3503 83.1575L58.7607 96.8772Z" fill="#FDC2CC"/>
<path opacity="0.05" d="M58.7607 96.8772H61.1228V83.4754L59.3503 83.1575L58.7607 96.8772Z" fill="#571AFF"/>
<path d="M70.2491 149.042C70.2491 149.042 71.738 148.95 72.406 150.288L73.2269 150.925L73.6293 149.984C74.5026 151.523 74.8302 153.312 74.5588 155.06C74.5588 155.06 74.6796 155.909 73.4341 156.305C73.4341 156.305 72.7963 156.609 72.9472 157.764C73.0981 158.919 70.6998 160.621 67.5692 159.921C67.5692 159.921 64.8329 159.983 64.4989 159.344C64.1649 158.704 64.7121 157.004 64.7121 157.004C64.7121 157.004 65.8368 155.221 66.3519 154.563C66.3519 154.563 67.6899 151.807 67.8428 150.539C67.9957 149.272 69.4584 148.342 70.2491 149.042Z" fill="#7E5659"/>
<path d="M57.9258 150.167L57.9499 148.278C57.9499 148.278 55.2317 149.06 53.0306 148.175C53.0306 148.175 53.2157 150.074 52.9099 150.334C52.604 150.593 53.9279 153.038 53.9279 153.038L55.4068 154.587L57.9499 153.662L58.6401 151.489C58.6401 151.489 58.1069 150.167 57.9258 150.167Z" fill="#D39999"/>
<path opacity="0.1" d="M57.9258 150.167L57.9499 148.278C57.9499 148.278 55.2317 149.06 53.0306 148.175C53.0306 148.175 53.2157 150.074 52.9099 150.334C52.604 150.593 53.9279 153.038 53.9279 153.038L55.4068 154.587L57.9499 153.662L58.6401 151.489C58.6401 151.489 58.1069 150.167 57.9258 150.167Z" fill="#571AFF"/>
<path d="M52.7428 149.483C52.7428 149.483 54.1874 149.65 54.0043 151.495C53.8212 153.34 54.0807 151.495 54.0807 151.495C54.0807 151.495 55.6159 152.117 56.1631 152.984C56.7104 153.851 57.6983 152.209 57.7727 151.738C57.8472 151.268 58.4629 151.072 58.4629 151.072C58.4629 151.072 60.8772 155.549 60.4507 156.78C60.0242 158.012 54.8413 158.295 54.8413 158.295C54.8413 158.295 53.8976 157.764 51.7247 159.42C49.5517 161.076 45.0388 159.823 45.0388 159.823C45.0388 159.823 41.3609 158.287 43.5962 156.603C45.8316 154.919 47.3486 155.175 47.3486 155.175L50.6764 151.968C50.6764 151.968 51.1171 149.39 52.7428 149.483Z" fill="#7E5659"/>
<path d="M69.9956 43.65C70.9151 44.2073 71.569 45.1127 72.4402 45.7425C73.6796 46.6378 75.3435 46.9718 76.2972 48.1669C77.102 49.185 77.2066 50.6075 76.9893 51.8911C76.772 53.1748 76.2851 54.4001 76.0497 55.6797C75.8143 56.9593 75.8626 58.3778 76.6232 59.4321C76.7114 59.5738 76.8395 59.6865 76.9913 59.756C77.1759 59.8001 77.3682 59.8001 77.5527 59.756C78.8524 59.5991 80.0999 60.5286 80.6834 61.7016C81.2668 62.8746 81.3131 64.2387 81.2527 65.5465C81.2024 66.6189 81.0817 67.7134 80.6109 68.6792C79.8061 70.321 78.1321 71.335 76.4803 72.1116C75.4066 72.6164 74.3057 73.0611 73.1826 73.4436C72.41 73.7051 71.5952 73.9405 70.7924 73.8037C69.4182 73.5663 68.4444 72.3169 67.1406 71.8279C66.0723 71.4255 64.8872 71.5704 63.7504 71.671C62.7806 71.7555 61.672 71.7535 61.004 71.0453C60.1469 70.1359 60.5332 68.6691 60.9719 67.4981C60.5073 67.4687 60.0599 67.3114 59.6792 67.0437C59.2984 66.7759 58.999 66.4082 58.8142 65.981C58.6293 65.5538 58.5661 65.0838 58.6316 64.623C58.6971 64.1621 58.8887 63.7283 59.1852 63.3695C59.5997 62.8645 60.2616 62.275 59.9377 61.7056C59.8289 61.5432 59.6789 61.4127 59.5031 61.3274C58.1933 60.5789 56.3885 60.2791 55.8372 58.8747C55.4831 57.9714 55.8252 56.9493 56.2738 56.0901C56.7225 55.231 57.2798 54.39 57.4026 53.4283C57.5635 52.0682 56.799 50.6698 57.1873 49.358C57.388 48.7946 57.7102 48.2822 58.1309 47.8571C59.3137 46.5478 60.7515 45.4941 62.3561 44.7606C63.9436 44.0343 65.5351 43.8713 67.2131 43.5172C68.2191 43.3039 69.052 43.0786 69.9956 43.65Z" fill="#865A61"/>
<path d="M61.1208 63.9047C61.1208 63.9047 57.2718 63.7035 56.5435 66.9851C55.8152 70.2667 58.1229 74.9667 58.1229 74.9667L61.1208 63.9047Z" fill="#FDC2CC"/>
<path opacity="0.05" d="M61.1208 63.9047C61.1208 63.9047 57.2718 63.7035 56.5435 66.9851C55.8152 70.2667 58.1229 74.9667 58.1229 74.9667L61.1208 63.9047Z" fill="#571AFF"/>
<path d="M58.6641 73.6711L60.1228 74.826L66.9293 75.1298L71.1787 72.2124L75.5004 64.7962C72.8587 64.1222 71.7903 62.2973 71.3919 60.5912C71.1385 59.4365 71.1098 58.2438 71.3074 57.0782C71.3074 57.0782 64.3781 53.4908 65.2292 59.0902C65.3459 59.7775 65.3676 60.4775 65.2936 61.1706C64.8912 64.4502 61.7082 63.8325 61.7082 63.8325L60.4869 65.7157L59.0886 70.3433L58.6641 73.6711Z" fill="#FDC2CC"/>
<path opacity="0.1" d="M65.2353 59.0821C65.352 59.7694 65.3736 60.4694 65.2997 61.1625C66.2773 61.6092 67.355 61.7914 68.4251 61.6912C69.4953 61.5909 70.5203 61.2116 71.398 60.5911C71.1446 59.4364 71.1159 58.2437 71.3135 57.0782C71.3135 57.0782 64.3842 53.4908 65.2353 59.0821Z" fill="#571AFF"/>
<path d="M67.8529 61.4742C71.2432 61.4742 73.9915 58.7259 73.9915 55.3356C73.9915 51.9454 71.2432 49.197 67.8529 49.197C64.4627 49.197 61.7144 51.9454 61.7144 55.3356C61.7144 58.7259 64.4627 61.4742 67.8529 61.4742Z" fill="#FDC2CC"/>
<path d="M63.511 72.5003C63.6599 72.5003 63.8067 72.5224 63.9536 72.5365C64.7584 72.617 68.1204 72.7981 70.0359 70.5104C72.1786 67.9512 75.0316 64.7903 75.1483 64.6616L78.0516 65.5388C78.0516 65.5388 75.7539 64.7219 74.2288 68.9954C73.8942 69.8918 73.859 70.8724 74.1285 71.7905C74.398 72.7085 74.9577 73.5146 75.7238 74.0878C76.2878 74.4964 76.9372 74.7716 77.6231 74.8926C77.624 74.8941 77.6244 74.8958 77.6244 74.8976C77.6244 74.8994 77.624 74.9011 77.6231 74.9026V76.7778L76.436 82.009C76.0987 83.4872 76.1375 85.0263 76.5487 86.4857L78.3595 92.8858C78.0858 93.0749 66.8509 100.716 59.3461 95.439C59.3743 95.2097 60.3018 87.6989 59.658 84.023C59.4927 83.0831 59.3805 82.1346 59.322 81.1821C59.322 81.1579 59.322 81.1358 59.322 81.1116C59.2556 80.2707 58.8601 79.4898 58.2214 78.9387C57.5454 78.3351 56.63 76.7255 57.5354 72.4721C57.7641 71.4188 58.1012 70.3919 58.5413 69.4079L61.0583 63.72L63.3782 63.7662V63.7823C63.177 64.0318 60.4869 67.3919 60.1952 69.5568C59.9095 71.615 59.5574 72.2468 63.511 72.5003Z" fill="#F4ED0F"/>
<path d="M80.0054 66.5386C80.0054 66.5386 82.2749 68.4842 83.1662 72.9006C84.0575 77.3169 86.0434 84.6526 86.0434 84.6526C86.0434 84.6526 86.8482 87.8537 84.0978 91.0145C81.3474 94.1754 79.5185 96.6481 79.5185 96.6481L77.7077 99.316C77.3989 99.7708 76.9357 100.098 76.4039 100.238C75.579 100.455 74.3114 100.612 73.2129 100.01C72.813 99.7867 72.5098 99.4235 72.3612 98.9902C72.2127 98.5568 72.2294 98.0839 72.4081 97.6622L72.8105 96.7306C72.8105 96.7306 69.0823 99.0806 68.7583 97.7829C68.4344 96.4852 73.0942 95.1894 73.0942 95.1894C73.0942 95.1894 76.9431 94.5416 77.7218 92.7187C77.7218 92.7187 81.8544 87.409 81.5305 85.5862L77.5387 74.8884C77.5387 74.8884 72.5469 74.2285 74.2491 68.6211C75.9512 63.0136 80.0054 66.5386 80.0054 66.5386Z" fill="#FDC2CC"/>
<path d="M56.137 106.899C56.137 106.899 65.2554 108.722 67.4042 108.479L67.6356 109.249C67.6356 109.249 71.0962 110.024 78.9208 108.782C79.4319 108.702 79.9624 108.611 80.5123 108.511L80.6954 108.479C80.6954 108.479 80.802 107.899 80.8865 106.911C81.0737 104.668 81.1401 100.324 79.5606 95.8776L78.2448 91.8254C78.2448 91.8254 70.1123 96.7005 64.7282 96.2518C64.2474 96.2116 63.7705 96.1733 63.2897 96.1573C62.1851 96.115 60.4729 96.1573 59.3602 95.2659L57.0263 95.6683V102.308C57.0255 103.279 56.8468 104.242 56.4992 105.149C56.4489 105.282 56.3966 105.412 56.3382 105.551C56.1241 105.966 56.0533 106.44 56.137 106.899Z" fill="#571AFF"/>
<path opacity="0.1" d="M67.6335 107.183V109.249C67.6335 109.249 71.6173 110.14 80.6934 108.478C80.6934 108.478 80.8 107.899 80.8845 106.911C78.0999 107.358 70.4202 108.432 67.6335 107.183Z" fill="#571AFF"/>
<path opacity="0.1" d="M56.1372 106.899C56.1372 106.899 65.2555 108.722 67.4043 108.479L67.6357 109.249V107.183C66.5975 107.613 59.1853 105.827 56.4993 105.157C56.449 105.29 56.3967 105.42 56.3384 105.559C56.126 105.972 56.0553 106.442 56.1372 106.899Z" fill="#571AFF"/>
<path d="M78.2427 104.596L78.9187 108.789C79.4298 108.708 79.9602 108.618 80.5102 108.517C80.2989 107.292 79.8382 104.493 79.9649 104.028L79.1139 103.3L78.2427 104.596Z" fill="#571AFF"/>
<path opacity="0.1" d="M78.3374 104.505L79.0134 108.7C79.5245 108.618 80.055 108.528 80.6049 108.428C80.3936 107.203 79.9329 104.404 80.0597 103.94L79.2086 103.209L78.3374 104.505Z" fill="#571AFF"/>
<g opacity="0.05">
<path opacity="0.05" d="M64.2394 96.2495C63.7606 96.2093 63.2817 96.1711 62.8009 96.155C61.7265 96.1147 60.0867 96.155 58.968 95.3321L59.3583 95.2637C60.477 96.1509 62.1751 96.1127 63.2878 96.155C63.7686 96.1711 64.2455 96.2093 64.7263 96.2495C64.8833 96.2636 65.0442 96.2717 65.2072 96.2757C64.8844 96.2843 64.5613 96.2755 64.2394 96.2495Z" fill="#571AFF"/>
<path opacity="0.05" d="M78.4319 108.782C78.943 108.702 79.4735 108.612 80.0234 108.513L80.2085 108.479C80.2085 108.479 80.3151 107.899 80.3976 106.911C80.5868 104.668 80.6532 100.324 79.0717 95.8775L77.8324 92.0547C78.0959 91.9059 78.2347 91.8193 78.2347 91.8193L79.5506 95.8715C81.13 100.318 81.0636 104.662 80.8765 106.905C80.792 107.893 80.6854 108.473 80.6854 108.473L80.5023 108.507C79.9537 108.606 79.4232 108.696 78.9108 108.776C75.255 109.356 72.5549 109.497 70.7119 109.481C73.2991 109.441 75.8797 109.208 78.4319 108.782Z" fill="#571AFF"/>
<path opacity="0.05" d="M66.9134 108.479V108.501H66.6519C66.7511 108.494 66.8383 108.487 66.9134 108.479Z" fill="#571AFF"/>
</g>
<path d="M79.3755 105.378C79.5656 105.378 79.7196 105.061 79.7196 104.67C79.7196 104.279 79.5656 103.962 79.3755 103.962C79.1855 103.962 79.0315 104.279 79.0315 104.67C79.0315 105.061 79.1855 105.378 79.3755 105.378Z" fill="#D39999"/>
<path d="M57.4166 90.3284C57.9719 86.2038 58.9518 83.7532 59.4688 82.7935C59.489 82.9242 59.5413 83.3488 59.5654 83.4795C59.67 84.0831 59.5775 84.8437 59.6097 85.6102L59.0946 94.9378L59.7847 97.8552C60.4326 100.165 58.0323 98.3401 58.0323 98.3401C57.5353 99.4347 56.6239 99.3139 56.6239 99.3139L56.4991 97.64C56.381 96.0629 56.5224 94.4772 56.9176 92.946C57.1358 92.0841 57.3025 91.21 57.4166 90.3284Z" fill="#FDC2CC"/>
<path opacity="0.05" d="M57.4166 90.3284C57.9719 86.2038 58.9518 83.7532 59.4688 82.7935C59.489 82.9242 59.5413 83.3488 59.5654 83.4795C59.67 84.0831 59.5775 84.8437 59.6097 85.6102L59.0946 94.9378L59.7847 97.8552C60.4326 100.165 58.0323 98.3401 58.0323 98.3401C57.5353 99.4347 56.6239 99.3139 56.6239 99.3139L56.4991 97.64C56.381 96.0629 56.5224 94.4772 56.9176 92.946C57.1358 92.0841 57.3025 91.21 57.4166 90.3284Z" fill="#571AFF"/>
<path d="M80.5104 95.3604C80.0738 95.9258 79.8344 96.2497 79.8344 96.2497L78.0236 98.9156C77.7155 99.3711 77.252 99.6987 76.7198 99.8371C75.8949 100.054 74.6274 100.213 73.5288 99.6098C73.1288 99.387 72.8253 99.0241 72.6767 98.5911C72.5281 98.158 72.545 97.6852 72.724 97.2638L73.1264 96.3302C73.1264 96.3302 69.3982 98.6802 69.0742 97.3845C68.7503 96.0888 73.4101 94.791 73.4101 94.791C73.4101 94.791 77.259 94.1432 78.0377 92.3183C78.0377 92.3183 78.3737 91.8877 78.8425 91.2278" fill="#FDC2CC"/>
<path d="M78.2428 99.829C78.2428 99.829 73.8345 99.4004 72.4382 96.8794L71.7983 98.9618C71.7983 98.9618 76.4259 102.157 77.4822 101.742L78.2428 99.829Z" fill="#571AFF"/>
<path opacity="0.1" d="M78.086 99.809C78.086 99.809 73.6797 99.3805 72.2814 96.8574L71.6436 98.9338C71.6436 98.9338 76.2711 102.129 77.3254 101.714L78.086 99.809Z" fill="#571AFF"/>
<path d="M58.1771 98.6519C58.1771 98.6519 56.6339 99.1991 56.3301 98.8953L57.0242 100.173L58.336 99.1669L58.1771 98.6519Z" fill="#571AFF"/>
<path opacity="0.1" d="M58.1771 98.6519C58.1771 98.6519 56.6339 99.1991 56.3301 98.8953L57.0242 100.173L58.336 99.1669L58.1771 98.6519Z" fill="#571AFF"/>
<path opacity="0.1" d="M67.6335 107.183V104.517L66.9998 107.247L67.6335 107.183Z" fill="#571AFF"/>
<path opacity="0.1" d="M73.8847 52.0944C73.5125 52.6175 72.8666 52.8831 72.2308 52.9656C71.595 53.0481 70.9512 52.9777 70.3094 52.9656C69.3034 52.9495 68.233 53.1044 67.4101 53.6959C66.885 54.0722 66.4906 54.6013 66.0802 55.1043C64.8368 56.6234 63.1105 58.0458 61.1508 57.8869C60.9801 57.8869 60.8112 57.8527 60.654 57.7864C60.4967 57.72 60.3544 57.6229 60.2353 57.5006C60.0757 57.2527 59.9944 56.9624 60.0019 56.6676C59.9177 55.4153 59.9574 54.1578 60.1207 52.9133C60.1992 52.1431 60.3904 51.3886 60.688 50.6739C61.0384 49.9575 61.4987 49.3004 62.0522 48.7263C62.7216 47.9497 63.5285 47.3031 64.4324 46.8189C65.3457 46.3346 66.4037 46.198 67.4101 46.4347C68.5831 46.7546 69.4965 47.672 70.6152 48.1448C71.8928 48.682 75.285 50.1166 73.8847 52.0944Z" fill="#571AFF"/>
<path d="M73.8847 51.8508C73.5125 52.3739 72.8666 52.6395 72.2308 52.722C71.595 52.8045 70.9512 52.7341 70.3094 52.722C69.3034 52.7039 68.233 52.8588 67.4101 53.4503C66.885 53.8266 66.4906 54.3557 66.0802 54.8587C64.8368 56.3778 63.1105 57.8002 61.1508 57.6413C60.9801 57.6418 60.811 57.6078 60.6537 57.5414C60.4964 57.475 60.3541 57.3776 60.2353 57.255C60.0753 57.0072 59.994 56.7169 60.0019 56.422C59.9177 55.1697 59.9574 53.9121 60.1207 52.6677C60.1992 51.8975 60.3904 51.143 60.688 50.4283C61.0378 49.7122 61.4982 49.0556 62.0522 48.4827C62.721 47.7049 63.528 47.0575 64.4324 46.5733C65.3457 46.0889 66.4037 45.9524 67.4101 46.1891C68.5831 46.509 69.4965 47.4264 70.6152 47.8992C71.8928 48.4385 75.285 49.869 73.8847 51.8508Z" fill="#865A61"/>
<path d="M59.3603 95.2617L59.3442 95.9961L59.1792 95.2939L59.3603 95.2617Z" fill="#FDC2CC"/>
<path opacity="0.05" d="M59.3603 95.2617L59.3442 95.9961L59.1792 95.2939L59.3603 95.2617Z" fill="#571AFF"/>
<g opacity="0.05">
<path opacity="0.05" d="M74.8767 68.2368C73.1726 73.8442 78.1402 74.5021 78.1402 74.5021L82.132 85.1999C82.4559 87.0228 78.3213 92.3324 78.3213 92.3324C78.0335 93.0125 77.3153 93.5295 76.5306 93.9118C76.9891 93.6325 77.3578 93.2275 77.5929 92.7449C77.5929 92.7449 81.7255 87.4372 81.4016 85.6144L77.4098 74.9146C77.4098 74.9146 72.4442 74.2567 74.1464 68.6493C74.7158 66.7761 75.5548 65.923 76.4038 65.6172C75.8183 66.088 75.2811 66.9029 74.8767 68.2368Z" fill="#571AFF"/>
</g>
<g opacity="0.1">
<path opacity="0.1" d="M74.9612 73.3311C75.1945 73.6197 75.4651 73.8762 75.766 74.0936C76.3295 74.503 76.9792 74.7783 77.6653 74.8984C77.6653 74.8984 77.6653 74.8984 77.6653 74.9085V75.1097C77.0444 74.9781 76.4578 74.7184 75.943 74.3471C75.5604 74.0667 75.2284 73.7231 74.9612 73.3311Z" fill="#571AFF"/>
<path opacity="0.1" d="M59.5252 81.3529C59.5252 81.375 59.5252 81.3992 59.5252 81.4233C59.5879 82.3793 59.7034 83.3311 59.8712 84.2743C60.4748 87.743 59.6841 94.63 59.5714 95.5817C59.507 95.5395 59.4427 95.4992 59.3702 95.4529C59.4004 95.2236 60.3279 87.7128 59.6841 84.0389C59.519 83.099 59.4068 82.1505 59.3481 81.198C59.3481 81.1738 59.3481 81.1497 59.3481 81.1276C59.3081 80.5754 59.1213 80.044 58.8069 79.5884C59.2239 80.0876 59.475 80.7044 59.5252 81.3529Z" fill="#571AFF"/>
<path opacity="0.1" d="M63.2293 63.9934L61.2616 63.9552C61.26 63.9543 61.2583 63.9538 61.2565 63.9538C61.2548 63.9538 61.253 63.9543 61.2515 63.9552L58.7365 69.6411C58.2967 70.6252 57.9596 71.6521 57.7305 72.7053C56.9981 76.1458 57.4589 77.8601 58.0182 78.7071C57.3885 77.9647 56.7386 76.2726 57.5494 72.4699C57.774 71.416 58.1078 70.3884 58.5454 69.4037L61.0785 63.7178L63.3983 63.7641V63.7781C63.3802 63.8023 63.3178 63.8787 63.2293 63.9934Z" fill="#571AFF"/>
<path opacity="0.1" d="M78.0576 65.5366L78.0918 65.5467L78.0576 65.5366Z" fill="#571AFF"/>
<path opacity="0.1" d="M77.3354 65.5045L75.3637 64.9109H75.3536C75.2369 65.0397 72.3859 68.2005 70.2431 70.7598C68.3277 73.0474 64.9697 72.8684 64.1609 72.7879C64.014 72.7718 63.8651 72.7597 63.7182 72.7497C61.5191 72.6088 60.654 72.3473 60.3643 71.792C60.7767 72.1944 61.6841 72.3956 63.5352 72.5082C63.684 72.5082 63.8309 72.5304 63.9778 72.5445C64.7826 72.6249 68.1446 72.804 70.0601 70.5184C72.2028 67.9571 75.0558 64.7962 75.1725 64.6675L78.0416 65.5367C77.8107 65.4792 77.5706 65.4682 77.3354 65.5045Z" fill="#571AFF"/>
</g>
<path opacity="0.1" d="M53.9903 152.406C53.9903 152.406 51.2137 153.165 50.6765 151.974L53.9903 152.406Z" fill="#571AFF"/>
<path opacity="0.1" d="M71.6171 151.837C71.6171 151.837 68.398 152.668 67.6536 151.382L71.6171 151.837Z" fill="#571AFF"/>
<path opacity="0.1" d="M39.3006 144.986C42.2931 144.986 44.7189 144.576 44.7189 144.071C44.7189 143.565 42.2931 143.155 39.3006 143.155C36.3082 143.155 33.8823 143.565 33.8823 144.071C33.8823 144.576 36.3082 144.986 39.3006 144.986Z" fill="#F4ED0F"/>
<path opacity="0.1" d="M17.9554 157.97C20.9478 157.97 23.3737 157.56 23.3737 157.054C23.3737 156.549 20.9478 156.139 17.9554 156.139C14.963 156.139 12.5371 156.549 12.5371 157.054C12.5371 157.56 14.963 157.97 17.9554 157.97Z" fill="#F4ED0F"/>
<path d="M12.3139 146.807C16.782 146.807 20.4041 146.195 20.4041 145.439C20.4041 144.683 16.782 144.071 12.3139 144.071C7.84575 144.071 4.22363 144.683 4.22363 145.439C4.22363 146.195 7.84575 146.807 12.3139 146.807Z" fill="#F4ED0F"/>
<path d="M8.96791 143.201C8.59803 142.901 8.3285 142.496 8.1953 142.038C8.09672 141.576 8.29389 141.022 8.73452 140.853C9.22947 140.664 9.75862 141.006 10.159 141.352C10.5594 141.698 11.0201 142.095 11.5453 142.022C11.2752 141.777 11.0732 141.467 10.959 141.12C10.8447 140.774 10.8221 140.404 10.8934 140.047C10.9151 139.898 10.9778 139.759 11.0745 139.644C11.3481 139.35 11.8471 139.477 12.177 139.709C13.2213 140.445 13.515 141.865 13.519 143.145C13.6257 142.682 13.5371 142.203 13.5392 141.737C13.5412 141.27 13.6719 140.731 14.0703 140.485C14.3164 140.349 14.5939 140.28 14.8751 140.284C15.3459 140.268 15.869 140.314 16.191 140.658C16.5934 141.085 16.4867 141.803 16.1386 142.268C15.7906 142.733 15.2634 143.032 14.7785 143.358C14.388 143.59 14.055 143.907 13.8047 144.286C13.7754 144.338 13.7512 144.394 13.7323 144.451H10.7928C10.1305 144.119 9.5165 143.699 8.96791 143.201Z" fill="#F4ED0F"/>
<path opacity="0.1" d="M207.751 152.644C210.743 152.644 213.169 152.234 213.169 151.728C213.169 151.223 210.743 150.813 207.751 150.813C204.758 150.813 202.333 151.223 202.333 151.728C202.333 152.234 204.758 152.644 207.751 152.644Z" fill="#F4ED0F"/>
<path d="M204.113 147.473C204.113 147.473 207.203 147.378 208.137 146.714C209.071 146.05 212.889 145.26 213.121 146.324C213.352 147.388 217.766 151.614 214.276 151.642C210.785 151.67 206.169 151.099 205.24 150.531C204.31 149.964 204.113 147.473 204.113 147.473Z" fill="#A8A8A8"/>
<path opacity="0.2" d="M214.336 151.274C210.847 151.302 206.23 150.73 205.3 150.163C204.592 149.732 204.31 148.185 204.216 147.471H204.113C204.113 147.471 204.314 149.964 205.238 150.529C206.161 151.095 210.785 151.668 214.274 151.64C215.28 151.64 215.63 151.274 215.61 150.742C215.471 151.072 215.086 151.274 214.336 151.274Z" fill="#571AFF"/>
</g>
<defs>
<linearGradient id="paint0_linear" x1="97.4532" y1="142.914" x2="97.4532" y2="23.9869" gradientUnits="userSpaceOnUse">
<stop stop-color="#808080" stop-opacity="0.25"/>
<stop offset="0.54" stop-color="#808080" stop-opacity="0.12"/>
<stop offset="1" stop-color="#808080" stop-opacity="0.1"/>
</linearGradient>
<linearGradient id="paint1_linear" x1="27712.9" y1="96124.4" x2="27712.9" y2="21059.9" gradientUnits="userSpaceOnUse">
<stop stop-color="#808080" stop-opacity="0.25"/>
<stop offset="0.54" stop-color="#808080" stop-opacity="0.12"/>
<stop offset="1" stop-color="#808080" stop-opacity="0.1"/>
</linearGradient>
<linearGradient id="paint2_linear" x1="36738.8" y1="97855.8" x2="36738.8" y2="28388.3" gradientUnits="userSpaceOnUse">
<stop stop-color="#808080" stop-opacity="0.25"/>
<stop offset="0.54" stop-color="#808080" stop-opacity="0.12"/>
<stop offset="1" stop-color="#808080" stop-opacity="0.1"/>
</linearGradient>
<linearGradient id="paint3_linear" x1="-21041.6" y1="97025.8" x2="-21041.6" y2="27274.6" gradientUnits="userSpaceOnUse">
<stop stop-color="#808080" stop-opacity="0.25"/>
<stop offset="0.54" stop-color="#808080" stop-opacity="0.12"/>
<stop offset="1" stop-color="#808080" stop-opacity="0.1"/>
</linearGradient>
<clipPath id="clip0">
<rect width="229.189" height="160" fill="white" transform="translate(0.405273)"/>
</clipPath>
</defs>
</svg>
