<svg width="186" height="160" fill="none" xmlns="http://www.w3.org/2000/svg"><g clip-path="url(#a)"><path d="M185.067 77.733c0 35.596-31.307 65.603-74.026 74.815a129.916 129.916 0 0 1-22.11 2.801c-1.845.077-3.704.115-5.576.116-3.256 0-6.473-.116-9.652-.347a129.548 129.548 0 0 1-5.245-.481c-16.863-1.892-32.38-6.945-45.487-14.349a102.097 102.097 0 0 1-4.798-2.882 95.603 95.603 0 0 1-8.265-5.904c-17.508-13.959-2.91-43.757 6.214-62.516C40.748 18.356 27.181 0 83.355 0s101.712 34.801 101.712 77.733Z" fill="#F2F2F2"/><path d="M144.81 32.046c-17.459-.313-17.456-26.27.001-26.58 17.458.312 17.455 26.27-.001 26.58Zm-33.018 38.682c-17.459-.314-17.456-26.27.001-26.581 17.458.313 17.456 26.27-.001 26.58Zm34.442 39.278c-17.459-.313-17.456-26.27 0-26.58 17.459.313 17.456 26.27 0 26.58Z" fill="#fff"/><path d="M144.81 32.046c-17.459-.313-17.456-26.27.001-26.58 17.458.312 17.455 26.27-.001 26.58Zm0-25.775c-16.401.294-16.398 24.677.001 24.97 16.4-.295 16.397-24.679-.001-24.97Z" fill="#E6E6E6"/><path d="M68.396 154.453a2.068 2.068 0 0 1-.08-.385l-5.072-28.925a2.609 2.609 0 0 0-2.219-2.286l-28.915.126a2.595 2.595 0 0 0-2.719 1.436c-.47.981-.93 1.975-1.381 2.984a145.048 145.048 0 0 0-5.04 12.885c13.108 7.404 28.625 12.457 45.488 14.349l-.062-.184Z" fill="#571AFF"/><path d="M96.622 77.05c-.071.313-.118.63-.139.95L71.596 92.364l-6.05-3.484-6.448 8.446 10.11 7.209a4.632 4.632 0 0 0 5.56-.136l25.663-20.254a6.08 6.08 0 0 0 8.155-5.028 6.086 6.086 0 0 0-3.271-6.093 6.08 6.08 0 0 0-8.693 4.026Z" fill="#FFB8B8"/><path d="M71.255 90.929a2.614 2.614 0 0 0-1.283-1.754l-11.42-6.389a7.238 7.238 0 0 0-10.143 1.294 7.246 7.246 0 0 0 1.265 10.15l9.105 9.459a2.605 2.605 0 0 0 3.091.5c.332-.174.622-.418.851-.715l1.774-2.301.605-.783 5.665-7.345c.207-.268.358-.574.445-.902.111-.395.127-.811.045-1.214Z" fill="#F4ED0F"/><path d="M54.72 71.448c5.557-5.559 5.557-14.572 0-20.131-5.557-5.56-14.566-5.56-20.123 0-5.557 5.559-5.557 14.572 0 20.131 5.557 5.56 14.566 5.56 20.123 0Z" fill="#FFB8B8"/><path d="M62.65 115.264c.572-.855 4.204-6.626 2.83-13.389-.1-.501-.227-.997-.38-1.485a16.596 16.596 0 0 0-3.046-5.571c.018-.453.013-.9-.014-1.343v-.002a12.81 12.81 0 0 0-11.822-11.94l-15.914-1.21a12.677 12.677 0 0 0-10.856 4.623c-.3.362-.58.74-.84 1.133h-.001v.001l-.001.001a12.672 12.672 0 0 0-1.64 10.405l.135.596 1.697 7.443 2.837 12.455 2.374 10.422.251 1.098a2.613 2.613 0 0 0 2.966 1.994l30.794-5.051a2.589 2.589 0 0 0 1.729-1.101 2.584 2.584 0 0 0 .399-2.013l-1.498-7.066Z" fill="#F4ED0F"/><path d="M2.046 157.301a6.224 6.224 0 0 1 .332-7.581 6.215 6.215 0 0 1 2.142-1.64l17.533-53.93 10.16 4.824-19.184 52.51a6.264 6.264 0 0 1-2.909 7.789 6.253 6.253 0 0 1-8.074-1.972Z" fill="#FFB8B8"/><path d="M32.095 81.411a7.757 7.757 0 0 0-9.486 4.67h-.002v.001a6.922 6.922 0 0 0-.176.51l-1.485 3.152-4.487 9.522a2.791 2.791 0 0 0 1.717 3.864l.874.263 3.748 1.133 6.652 2.011 2.217.67a2.786 2.786 0 0 0 3.149-1.153c.217-.337.36-.717.42-1.114l2.048-13.905a7.754 7.754 0 0 0-5.189-9.624Z" fill="#F4ED0F"/><path d="M57.724 56.206c-5.07 4.437-12.854 5.467-18.903 2.502 2.717 3.225 7.878 19.146 7.878 19.146s-14.572-1.532-16.63-1.973c-12.16-2.601-7.74-34.107 5.216-33.948 2.195.027 4.114.293 5.574 1.931.97-2.718 4.052-4.32 6.93-4.112 2.878.207 5.48 1.936 7.332 4.15a15.887 15.887 0 0 1 3.358 13.02l-.755-.716Z" fill="#571AFF"/><path d="M111.792 70.728c-17.459-.314-17.456-26.27.001-26.581 17.458.313 17.456 26.27-.001 26.58Zm0-25.776c-16.4.294-16.398 24.678.001 24.97 16.4-.294 16.398-24.678-.001-24.97Zm34.442 65.054c-17.459-.313-17.456-26.27 0-26.58 17.459.313 17.456 26.27 0 26.58Zm0-25.775c-16.401.294-16.399 24.678 0 24.97 16.401-.294 16.398-24.678 0-24.97Z" fill="#E6E6E6"/><path d="M147.648 11.943c-3.276.094-9.645-1.077-9.648 3.974.094 3.277-1.077 9.648 3.973 9.652 3.275-.094 9.644 1.077 9.647-3.975-.094-3.276 1.077-9.648-3.972-9.651Z" fill="#571AFF"/><path d="M148.499 15.917c-1.103.014-1.099-1.718.003-1.7 1.102-.013 1.099 1.719-.003 1.7Zm-3.689.568c2.946-.044 2.946 4.585 0 4.542-2.945.043-2.945-4.586 0-4.543Zm0-1.136c-4.417-.065-4.418 6.878.001 6.813 4.418.065 4.417-6.878-.001-6.813Z" fill="#fff"/><path d="M122.252 98.957a.404.404 0 0 1-.379-.238.4.4 0 0 1 .075-.44l1.341-1.417a.233.233 0 0 0-.009-.326l-1.424-1.349a.405.405 0 0 1-.102-.447.413.413 0 0 1 .667-.154l1.916 1.79a.407.407 0 0 1 .124.275.392.392 0 0 1-.109.281l-1.821 1.901a.402.402 0 0 1-.279.124Zm-1.464-2.062a.247.247 0 0 1-.16.065l-4.466.123a.246.246 0 0 1-.232-.146.235.235 0 0 1-.022-.093.244.244 0 0 1 .068-.176.248.248 0 0 1 .172-.077l4.466-.124a.248.248 0 0 1 .235.154.245.245 0 0 1-.061.274ZM87.773 59.678A.402.402 0 0 1 87.47 59l1.34-1.417a.23.23 0 0 0-.009-.326l-1.424-1.348a.414.414 0 0 1 .566-.602l1.915 1.79a.39.39 0 0 1 .016.556l-1.822 1.902a.401.401 0 0 1-.279.123Zm-1.463-2.062a.245.245 0 0 1-.16.065l-4.467.123a.246.246 0 1 1-.014-.492l4.467-.124a.247.247 0 0 1 .173.428Zm34.464-36.62a.399.399 0 0 1-.378-.237.401.401 0 0 1 .075-.441l1.34-1.417a.23.23 0 0 0-.009-.326l-1.424-1.348a.417.417 0 0 1-.102-.448.413.413 0 0 1 .668-.154l1.915 1.791a.387.387 0 0 1 .098.426.409.409 0 0 1-.082.13l-1.822 1.9a.4.4 0 0 1-.279.124Zm-1.464-2.062a.245.245 0 0 1-.16.065l-4.466.124a.249.249 0 0 1-.232-.146.253.253 0 0 1-.005-.189.241.241 0 0 1 .13-.137.242.242 0 0 1 .093-.02l4.467-.124a.244.244 0 0 1 .235.153.247.247 0 0 1-.062.274Z" fill="#CCC"/><path d="M116.2 146.566c-1.155 2.4-3.036 4.341-5.159 5.982a129.938 129.938 0 0 1-22.111 2.802c-1.845.076-3.703.115-5.576.115-3.255 0-6.473-.115-9.651-.347a7.826 7.826 0 0 1-.05-2.212c.353-2.881 2.537-5.527 5.372-6.138 2.834-.611 6.066 1.082 6.925 3.851.475-5.341 1.02-10.905 3.86-15.453 2.568-4.117 7.018-7.063 11.843-7.591a14.899 14.899 0 0 1 8.242 1.511 13.74 13.74 0 0 1 4.667 3.762c3.01 3.809 3.746 9.347 1.638 13.718Z" fill="#fff"/><path d="M110.591 129.455a.371.371 0 0 1-.153.338 78.055 78.055 0 0 0-20.47 25.51c-.345.017-.69.034-1.037.047.438-.89.893-1.77 1.364-2.642a79.387 79.387 0 0 1 8.597-12.73 78.26 78.26 0 0 1 10.901-10.828.423.423 0 0 1 .103-.064.504.504 0 0 1 .695.369Z" fill="#F2F2F2"/><path d="M153.447 93.363s-1.128 1.264-1.345 1.345c-.596 6.487-4.645 7.961-7.896 7.961-2.337 0-4.263-.762-4.199-.971 3.468.081 3.763-1.343 3.763-1.343-2.014-.298-2.418-1.614-2.418-1.614a.83.83 0 0 0 1.074-.268c-2.175-.567-1.879-2.69-1.879-2.69.387.28.84.456 1.315.512-.242-.296-2.276-2.735-1.052-3.999.072.192 2.19 3.077 5.729 2.868a2.845 2.845 0 0 1 2.768-3.415c1.881 0 2.285 1.077 2.285 1.077l1.345-.808c-.027 0-.163 1.345-.835 1.613l1.345-.268Z" fill="#571AFF"/><path fill-rule="evenodd" clip-rule="evenodd" d="M119.112 57.48a7.384 7.384 0 0 1-6.225 7.295v-5.159h1.719l.327-2.136h-2.046c-.069-1.779-.138-2.776 2.132-2.537v-1.816c-3.401-.75-4.819.975-4.438 4.353h-1.874v2.136h1.874v5.157c-8.821-1.357-7.784-14.709 1.151-14.674a7.38 7.38 0 0 1 7.38 7.381Z" fill="#571AFF"/></g><defs><clipPath id="a"><path fill="#fff" transform="translate(.933)" d="M0 0h184.134v160H0z"/></clipPath></defs></svg>