<svg width="217" height="227" fill="none" xmlns="http://www.w3.org/2000/svg"><g clip-path="url(#a)"><path opacity=".7" d="M195.8 86.406v-3.305h-16.537V98.39a3.223 3.223 0 0 0 3.225 3.223h10.087a3.226 3.226 0 0 0 3.225-3.223V95a4.3 4.3 0 0 0 4.299-4.297 4.297 4.297 0 0 0-4.299-4.297Zm0 6.942v-5.289a2.646 2.646 0 0 1 1.871 4.514 2.646 2.646 0 0 1-1.871.775Z" fill="url(#b)"/><path d="M195.268 86.924a3.925 3.925 0 1 0-.002 7.849 3.925 3.925 0 0 0 .002-7.85Zm0 6.338a2.415 2.415 0 1 1 0-4.83 2.415 2.415 0 0 1 0 4.83Z" fill="#571AFF"/><path opacity=".1" d="M195.268 86.924a3.925 3.925 0 1 0-.002 7.849 3.925 3.925 0 0 0 .002-7.85Zm0 6.338a2.415 2.415 0 1 1 0-4.83 2.415 2.415 0 0 1 0 4.83Z" fill="#000"/><path d="M180.169 83.906h15.099v13.943a2.958 2.958 0 0 1-2.96 2.958h-9.179a2.961 2.961 0 0 1-2.96-2.958V83.906Z" fill="#571AFF"/><path opacity=".1" d="M192.55 83.906v13.958a2.944 2.944 0 0 1-2.945 2.943h1.51a2.944 2.944 0 0 0 2.945-2.943V83.906h-1.51Z" fill="#000"/><path d="M183.148 72.656a.88.88 0 0 0-.667.338c-.198.359.161.763.489 1.01.605.456 1.243.903 1.654 1.539.411.636.54 1.523.091 2.132-.587.796-1.988.967-2.123 1.946-.087.629.456 1.165 1.007 1.48 1.36.78 3.114.987 4.099 2.206.407-.838 1.319-1.322 2.228-1.529.908-.207 1.852-.191 2.773-.331a.954.954 0 0 0 .766-.406c.257-.522-.477-1.149-.223-1.673.192-.4.759-.368 1.172-.528.674-.26.951-1.127.76-1.822-.191-.696-.731-1.24-1.298-1.686-1.531-1.202-3.37-1.908-5.231-2.416-.866-.237-1.882-.608-2.78-.643-.868-.035-1.858.236-2.717.383Z" fill="#EEE"/><path d="m77.174 104.371-31.57 98.298" stroke="#E0E0E0" stroke-width="8" stroke-miterlimit="10"/><path opacity=".7" d="M101.636 213.739c-3.884.225-7.343 3.477-7.343 3.477l-1.673-4.148-.137.045c.817-3.576 17.445-77.279.8-83.633-12.79-4.883-26.357-10.925-36.986-10.698v-17.411H71.2v-.62h11.797c2.261-1.615-1.025-2.725-4.697-3.419.15-.171.281-.357.393-.555l18.895-33.88s4.346-7.136 1.552-10.549c-2.794-3.413-6.83 8.688-6.83 8.688l-15.522 22.34S61.12 67.055 51.154 58.94a17.448 17.448 0 0 0-3.71-2.802c-1.82-1.23-3.196-1.868-3.875-1.618l-.02.01c-1.51-.418-3.07-.63-4.637-.63H37.67v-2.546a19.918 19.918 0 0 0 12.302-11.65 22.35 22.35 0 0 0 1.773-19.468c.186-.022.364-.084.523-.181.562-.362.618-1.153.564-1.82a13.815 13.815 0 0 0-7.02-10.806c-1.572-.86-3.374-1.452-4.534-2.818-.996-1.174-1.415-2.815-2.621-3.773-1.433-1.138-3.503-.943-5.26-.435a19.147 19.147 0 0 0-5.492 2.59c-1.901 1.302-3.618 2.974-5.807 3.694-1.556.512-3.243.502-4.808.983a8.077 8.077 0 0 0-5.196 5.065 10.537 10.537 0 0 0-.445 3.959 22.207 22.207 0 0 0-2.23 5.07c-.117.063-.235.125-.35.19l.34-.153a22.322 22.322 0 0 0 6.296 22.781 19.9 19.9 0 0 0 9.547 6.772v3.08a23.481 23.481 0 0 0-7.62 3.119l-.003-.005s-.198.123-.537.35l-.102.07c-2.297 1.558-9.995 7.252-9.735 13.404-.01.237-.009.474.004.712a23.644 23.644 0 0 0-.634 5.426v44.649a21.92 21.92 0 0 0 4.709 13.6C4.855 137.21.727 139.405.727 141.861a2.02 2.02 0 0 1 0 .621c0 4.369 13.065 7.912 29.182 7.912 1.949 0 3.852-.052 5.694-.151l18.21 14.733-29.182 46.851s-9.624 7.447-2.173 9.929c7.45 2.482 22.663 4.344 22.663 4.344s2.483-4.344-.931-6.206c-3.415-1.861-8.072-.931-8.072-.931l.62-3.723s50.604-43.438 40.049-58.331c-2.02-2.849-4.039-5.789-6.076-8.683l7.966.726 1.813 68.189.227-.074c-.455 1.339-3.674 11.45 3.46 9.739 7.637-1.832 21.533-8.292 21.533-8.292s-.191-5-4.074-4.775ZM71.199 96.407l-14.902-4.324V79.342l16.196 17.183c-.796-.08-1.294-.118-1.294-.118Z" fill="url(#c)"/><path d="M31.337 51.884c12.07 0 21.856-9.78 21.856-21.844 0-12.064-9.785-21.844-21.856-21.844-12.071 0-21.857 9.78-21.857 21.844 0 12.064 9.786 21.844 21.857 21.844Z" fill="#000"/><path d="m56.229 80.1 16.68 17.696a3.258 3.258 0 0 0 5.218-.648L96.603 64.02l-5.16-1.82-15.179 21.844S47.769 54.36 43.783 55.829c-3.987 1.467 12.446 24.27 12.446 24.27Z" fill="#571AFF"/><path d="M24.354 141.384-.235 205.095m36.732-63.711 24.589 63.711" stroke="#BDBDBD" stroke-width="5" stroke-miterlimit="10"/><path d="M30.426 149.575c15.76 0 28.535-3.463 28.535-7.736s-12.776-7.736-28.535-7.736c-15.76 0-28.535 3.463-28.535 7.736s12.775 7.736 28.535 7.736Z" fill="#B84733"/><path d="M30.426 148.968c15.76 0 28.535-3.463 28.535-7.736s-12.776-7.736-28.535-7.736c-15.76 0-28.535 3.463-28.535 7.736s12.775 7.736 28.535 7.736Z" fill="#F55F44"/><path d="m18.419 155.382 26.923 8.291m-2.909-8.291-26.924 8.291" stroke="#BDBDBD" stroke-width="5" stroke-miterlimit="10"/><path d="M30.758 55.222h8.47c4.51 0 8.833 1.79 12.021 4.976a16.985 16.985 0 0 1 4.98 12.013v44.902H7.658V78.308a23.08 23.08 0 0 1 6.765-16.325 23.106 23.106 0 0 1 16.334-6.761Z" fill="#571AFF"/><path d="M7.658 117.113h48.57v26.395H29.211a21.562 21.562 0 0 1-15.24-6.309 21.536 21.536 0 0 1-6.313-15.232v-4.854Z" fill="#000A2C"/><path opacity=".05" d="m8.315 73.437 29.7 28.203H70.8v-4.248l-28.232-8.191-24.15-29.805S7.454 66.167 8.316 73.436Z" fill="#000"/><path d="m8.315 72.83 29.7 28.203H70.8v-4.247l-28.232-8.192-24.15-29.804S7.454 65.56 8.316 72.83Z" fill="#571AFF"/><path d="M70.8 96.786s15.785 1.213 11.535 4.247H70.8v-4.247ZM91.442 62.2s3.947-11.833 6.679-8.495c2.732 3.337-1.518 10.315-1.518 10.315l-5.16-1.82Z" fill="#FDA57D"/><path opacity=".05" d="M7.658 117.113v1.416l48.57.101v-1.517H7.658Z" fill="#000"/><path d="m45.44 145.19 32.672 2.975 1.772 66.677 11.697-3.806s17.493-75.543.813-81.911c-16.681-6.368-34.713-14.752-45.478-7.919-10.766 6.833-1.476 23.984-1.476 23.984Z" fill="#000A2C"/><path opacity=".1" d="M47.425 124.698s17.91 9.101 20.339 19.417l-20.34-19.417Z" fill="#000"/><path d="m28.3 143.204 25.5 20.631-28.535 45.812 11.839 3.337s49.48-42.475 39.16-57.037c-10.322-14.563-20.643-31.553-33.392-31.856-12.75-.303-14.571 19.113-14.571 19.113Z" fill="#000A2C"/><path opacity=".05" d="m68.371 76.155 6.375 10.922 1.518-3.034-7.893-7.888Z" fill="#000"/><path d="M25.266 209.646s-9.41 7.282-2.125 9.709c7.285 2.427 22.16 4.247 22.16 4.247s2.428-4.247-.91-6.067c-3.34-1.821-7.893-.911-7.893-.911l.607-3.64-11.84-3.338Zm54.891 4.98s-4.134 11.458 3.334 9.667c7.467-1.791 21.055-8.109 21.055-8.109s-.187-4.888-3.984-4.668c-3.797.22-7.18 3.399-7.18 3.399l-1.636-4.055-11.59 3.766Z" fill="#333"/><path d="M31.944 44.603a6.07 6.07 0 0 0-6.072 6.068v6.068a6.07 6.07 0 0 0 6.072 6.067 6.07 6.07 0 0 0 6.07-6.067V50.67a6.07 6.07 0 0 0-6.07-6.068Z" fill="#FDA57D"/><path opacity=".05" d="M31.944 45.21a6.073 6.073 0 0 0-6.072 6.068v2.061a19.442 19.442 0 0 0 12.143 0v-2.061a6.066 6.066 0 0 0-6.072-6.068Z" fill="#000"/><path d="M31.943 53.705c10.73 0 19.428-8.693 19.428-19.417 0-10.724-8.698-19.417-19.428-19.417s-19.428 8.693-19.428 19.417c0 10.724 8.698 19.417 19.428 19.417Z" fill="#FDA57D"/><path opacity=".05" d="M12.515 33.407s4.857 1.25 7.59-4.266c2.732-5.518 4.857-8.527 16.088-5.267 11.232 3.26 13.492 3.658 14.032.575.369-2.106-3.625-7.223-6.192-10.253-1.252-1.477-3.295-2.36-5.478-2.36H25.872l-7.589 3.512-5.768 5.015-1.214 6.771 1.214 6.273Z" fill="#000"/><path d="M12.515 32.8s4.857 1.251 7.59-4.266c2.732-5.517 4.857-8.526 16.088-5.266 11.232 3.26 13.492 3.658 14.032.575.369-2.107-3.625-7.224-6.192-10.253-1.252-1.478-3.295-2.36-5.478-2.36H25.872l-7.589 3.511-5.768 5.016-1.214 6.77 1.214 6.273Z" fill="#000"/><path d="M14.488 36.715c1.09 0 1.974-1.766 1.974-3.944s-.884-3.944-1.974-3.944c-1.09 0-1.973 1.765-1.973 3.944 0 2.178.884 3.944 1.973 3.944Z" fill="#FDA57D"/><path d="M13.078 22.622c-.45-2.54-.893-5.207-.073-7.652a7.893 7.893 0 0 1 5.081-4.953c1.53-.47 3.18-.46 4.702-.96 2.14-.705 3.819-2.34 5.678-3.614a18.722 18.722 0 0 1 5.37-2.532c1.718-.496 3.742-.687 5.143.425 1.18.937 1.59 2.542 2.564 3.69 1.134 1.336 2.895 1.915 4.433 2.756a13.518 13.518 0 0 1 6.864 10.566c.053.652-.002 1.425-.551 1.779a1.97 1.97 0 0 1-1.107.202c-7.765-.11-15.54-.222-23.272-.935-2.404-.221-4.813-.5-7.225-.41a23.644 23.644 0 0 0-10.638 3" fill="#000"/><path d="M117.447 124.749a.46.46 0 0 0 .44-.456.455.455 0 0 0-.44-.455.455.455 0 0 0 0 .911Z" fill="url(#d)"/><path d="m184.26 104.371 31.571 112.281" stroke="#E0E0E0" stroke-width="8" stroke-miterlimit="10"/><path d="M215.959 101.083H45.476v6.639h170.483v-6.639Z" fill="#E0E0E0"/><path d="M113.45 99.516H89.469a1.973 1.973 0 1 0 0 3.944h23.981a1.972 1.972 0 1 0 0-3.944Z" fill="#535461"/><path opacity=".7" d="M165.342 55.544h-52.28c-4.731 0-8.566 3.833-8.566 8.56v30.844c0 4.729 3.835 8.562 8.566 8.562h52.28c4.731 0 8.566-3.834 8.566-8.562V64.105c0-4.728-3.835-8.562-8.566-8.562Z" fill="url(#e)"/><path d="M163.341 56.428h-49.463a8.144 8.144 0 0 0-8.146 8.142v30.798a8.143 8.143 0 0 0 8.146 8.141h49.463a8.143 8.143 0 0 0 8.146-8.141V64.57a8.144 8.144 0 0 0-8.146-8.142Z" fill="#3E3F49"/><path d="M164.252 56.428h-49.463a8.144 8.144 0 0 0-8.146 8.142v30.798a8.143 8.143 0 0 0 8.146 8.141h49.463a8.143 8.143 0 0 0 8.146-8.141V64.57a8.144 8.144 0 0 0-8.146-8.142Z" fill="#535461"/><path d="M142.592 81.768a2.124 2.124 0 1 0 .002-4.248 2.124 2.124 0 0 0-.002 4.248Z" fill="#E0E0E0"/></g><defs><linearGradient id="b" x1="189.681" y1="101.612" x2="189.681" y2="83.101" gradientUnits="userSpaceOnUse"><stop stop-color="gray" stop-opacity=".25"/><stop offset=".535" stop-color="gray" stop-opacity=".12"/><stop offset="1" stop-color="gray" stop-opacity=".1"/></linearGradient><linearGradient id="c" x1="53972" y1="187072" x2="53972" y2="17227.6" gradientUnits="userSpaceOnUse"><stop stop-color="gray" stop-opacity=".25"/><stop offset=".535" stop-color="gray" stop-opacity=".12"/><stop offset="1" stop-color="gray" stop-opacity=".1"/></linearGradient><linearGradient id="d" x1="755.387" y1="567.145" x2="755.387" y2="564.415" gradientUnits="userSpaceOnUse"><stop stop-color="gray" stop-opacity=".25"/><stop offset=".535" stop-color="gray" stop-opacity=".12"/><stop offset="1" stop-color="gray" stop-opacity=".1"/></linearGradient><linearGradient id="e" x1="45051.9" y1="16420.5" x2="45051.9" y2="8837.03" gradientUnits="userSpaceOnUse"><stop stop-color="gray" stop-opacity=".25"/><stop offset=".535" stop-color="gray" stop-opacity=".12"/><stop offset="1" stop-color="gray" stop-opacity=".1"/></linearGradient><clipPath id="a"><path fill="#fff" d="M0 0h217v227H0z"/></clipPath></defs></svg>