<svg width="217" height="227" viewBox="0 0 217 227" fill="none" xmlns="http://www.w3.org/2000/svg">
<g clip-path="url(#clip0)">
<g opacity="0.7">
<path opacity="0.7" d="M195.8 86.4065V83.1011H179.263V98.3888C179.263 99.2435 179.603 100.063 180.208 100.668C180.812 101.272 181.633 101.612 182.488 101.612H192.575C193.43 101.612 194.251 101.272 194.855 100.668C195.46 100.063 195.8 99.2435 195.8 98.3888V95.0007C196.94 95.0007 198.034 94.548 198.84 93.7421C199.646 92.9363 200.099 91.8433 200.099 90.7036C200.099 89.564 199.646 88.471 198.84 87.6651C198.034 86.8593 196.94 86.4065 195.8 86.4065ZM195.8 93.348V88.0593C196.502 88.0593 197.175 88.3379 197.671 88.8338C198.167 89.3297 198.446 90.0023 198.446 90.7036C198.446 91.4049 198.167 92.0775 197.671 92.5735C197.175 93.0694 196.502 93.348 195.8 93.348Z" fill="url(#paint0_linear)"/>
</g>
<path d="M195.268 86.9238C194.491 86.9238 193.732 87.1539 193.087 87.585C192.441 88.0162 191.938 88.6289 191.641 89.3458C191.344 90.0627 191.266 90.8516 191.418 91.6127C191.569 92.3738 191.943 93.0728 192.492 93.6215C193.041 94.1702 193.74 94.5439 194.502 94.6953C195.264 94.8467 196.053 94.769 196.77 94.472C197.488 94.1751 198.101 93.6722 198.532 93.027C198.963 92.3818 199.194 91.6232 199.194 90.8473C199.194 89.8067 198.78 88.8088 198.044 88.073C197.308 87.3372 196.309 86.9238 195.268 86.9238ZM195.268 93.2617C194.79 93.2617 194.323 93.1201 193.926 92.8548C193.528 92.5895 193.219 92.2124 193.036 91.7712C192.853 91.33 192.805 90.8446 192.898 90.3762C192.992 89.9079 193.222 89.4777 193.56 89.14C193.897 88.8023 194.328 88.5724 194.797 88.4792C195.265 88.3861 195.751 88.4339 196.192 88.6166C196.634 88.7994 197.011 89.1088 197.277 89.5059C197.542 89.9029 197.684 90.3697 197.684 90.8473C197.684 91.4876 197.429 92.1017 196.976 92.5545C196.523 93.0073 195.909 93.2617 195.268 93.2617Z" fill="#571AFF"/>
<path opacity="0.1" d="M195.268 86.9238C194.491 86.9238 193.732 87.1539 193.087 87.585C192.441 88.0162 191.938 88.6289 191.641 89.3458C191.344 90.0627 191.266 90.8516 191.418 91.6127C191.569 92.3738 191.943 93.0728 192.492 93.6215C193.041 94.1702 193.74 94.5439 194.502 94.6953C195.264 94.8467 196.053 94.769 196.77 94.472C197.488 94.1751 198.101 93.6722 198.532 93.027C198.963 92.3818 199.194 91.6232 199.194 90.8473C199.194 89.8067 198.78 88.8088 198.044 88.073C197.308 87.3372 196.309 86.9238 195.268 86.9238ZM195.268 93.2617C194.79 93.2617 194.323 93.1201 193.926 92.8548C193.528 92.5895 193.219 92.2124 193.036 91.7712C192.853 91.33 192.805 90.8446 192.898 90.3762C192.992 89.9079 193.222 89.4777 193.56 89.14C193.897 88.8023 194.328 88.5724 194.797 88.4792C195.265 88.3861 195.751 88.4339 196.192 88.6166C196.634 88.7994 197.011 89.1088 197.277 89.5059C197.542 89.9029 197.684 90.3697 197.684 90.8473C197.684 91.4876 197.429 92.1017 196.976 92.5545C196.523 93.0073 195.909 93.2617 195.268 93.2617Z" fill="black"/>
<path d="M180.169 83.9058H195.268V97.8486C195.268 98.6332 194.956 99.3855 194.401 99.9403C193.846 100.495 193.093 100.807 192.308 100.807H183.129C182.344 100.807 181.591 100.495 181.036 99.9403C180.481 99.3855 180.169 98.6332 180.169 97.8486V83.9058Z" fill="#571AFF"/>
<path opacity="0.1" d="M192.55 83.9058V97.8641C192.55 98.6445 192.24 99.393 191.687 99.9448C191.135 100.497 190.386 100.807 189.605 100.807H191.115C191.896 100.807 192.645 100.497 193.197 99.9448C193.749 99.393 194.06 98.6445 194.06 97.8641V83.9058H192.55Z" fill="black"/>
<path d="M183.148 72.6558C183.019 72.6599 182.892 72.6923 182.777 72.7508C182.662 72.8093 182.561 72.8923 182.481 72.9941C182.283 73.353 182.642 73.7575 182.97 74.0041C183.575 74.4596 184.213 74.9071 184.624 75.5429C185.035 76.1787 185.164 77.066 184.715 77.6753C184.128 78.4709 182.727 78.6421 182.592 79.6213C182.505 80.25 183.048 80.7864 183.599 81.1019C184.959 81.8805 186.713 82.0882 187.698 83.3066C188.105 82.4691 189.017 81.985 189.926 81.7782C190.834 81.5715 191.778 81.5869 192.699 81.4467C192.85 81.4438 192.998 81.4056 193.13 81.3351C193.263 81.2646 193.378 81.1638 193.465 81.0409C193.722 80.5186 192.988 79.8922 193.242 79.3678C193.434 78.9687 194.001 78.9997 194.414 78.8399C195.088 78.5797 195.365 77.7135 195.174 77.0176C194.983 76.3217 194.443 75.7779 193.876 75.332C192.345 74.1304 190.506 73.4238 188.645 72.9155C187.779 72.6791 186.763 72.3084 185.865 72.2726C184.997 72.2379 184.007 72.5089 183.148 72.6558Z" fill="#EEEEEE"/>
<path d="M77.1744 104.371L45.6038 202.669" stroke="#E0E0E0" stroke-width="8" stroke-miterlimit="10"/>
<g opacity="0.7">
<path opacity="0.7" d="M101.636 213.739C97.7522 213.964 94.2925 217.216 94.2925 217.216L92.6197 213.068L92.4831 213.113C93.3003 209.537 109.928 135.834 93.2828 129.48C80.4926 124.597 66.9262 118.555 56.2971 118.782V101.371H71.1987V100.751H82.9957C85.2572 99.1361 81.9712 98.026 78.2986 97.3322C78.4483 97.161 78.5802 96.975 78.6922 96.7772L97.5869 62.8976C97.5869 62.8976 101.933 55.7614 99.1391 52.3484C96.3451 48.9354 92.3092 61.036 92.3092 61.036L76.7868 83.3754C76.7868 83.3754 61.1202 67.056 51.1541 58.9402C50.0481 57.8448 48.8003 56.9023 47.4441 56.1378C45.6248 54.9077 44.2478 54.2703 43.5687 54.5203C43.5617 54.5229 43.5562 54.5271 43.5493 54.5298C42.039 54.1119 40.4791 53.9 38.9119 53.8997H37.6701V51.354C40.4519 50.4358 42.9967 48.9157 45.1232 46.9018C47.2497 44.888 48.9054 42.4302 49.9725 39.7035C51.7238 36.8046 52.7934 33.5459 53.1005 30.1735C53.4076 26.801 52.9442 23.4029 51.7453 20.2356C51.9306 20.2138 52.109 20.152 52.2681 20.0547C52.8304 19.693 52.886 18.9017 52.8317 18.2356C52.6278 16.0001 51.8821 13.8479 50.6591 11.9651C49.4361 10.0822 47.7726 8.52542 45.8125 7.4293C44.2396 6.5697 42.4381 5.97743 41.2783 4.61127C40.2816 3.43736 39.8628 1.79552 38.6568 0.837695C37.224 -0.300216 35.1543 -0.104595 33.3962 0.403157C31.4397 0.968916 29.5861 1.84311 27.9053 2.99275C26.0036 4.2945 24.2873 5.96691 22.0979 6.68744C20.5422 7.19941 18.8551 7.1892 17.2896 7.67017C16.0881 8.05065 14.9924 8.70687 14.0902 9.58633C13.1879 10.4658 12.5042 11.5441 12.0936 12.735C11.695 14.0143 11.5442 15.3579 11.649 16.6937C10.697 18.2841 9.94785 19.9874 9.41907 21.7638C9.30195 21.8271 9.18413 21.8889 9.06809 21.9541L9.40846 21.8012C8.22103 25.8069 8.18159 30.0653 9.29463 34.0923C10.4077 38.1194 12.6286 41.7537 15.705 44.5823C18.136 47.7452 21.4624 50.1046 25.2522 51.354V54.4338C22.5484 55.0166 19.9689 56.0724 17.6328 57.5525L17.6295 57.5484C17.6295 57.5484 17.4313 57.671 17.0921 57.8989C17.0581 57.9218 17.0242 57.9447 16.9903 57.9677C14.6931 59.5259 6.99528 65.2196 7.25526 71.3722C7.24514 71.6087 7.24649 71.846 7.25929 72.084C6.83903 73.862 6.62625 75.6827 6.62523 77.5096V122.159C6.61926 127.093 8.27822 131.884 11.3339 135.759C4.85543 137.21 0.726685 139.405 0.726685 141.861C0.759198 142.067 0.759198 142.276 0.726685 142.482C0.726685 146.851 13.792 150.394 29.9089 150.394C31.8576 150.394 33.761 150.342 35.6028 150.243L53.8135 164.976L24.6313 211.827C24.6313 211.827 15.0073 219.274 22.4581 221.756C29.9089 224.238 45.1209 226.1 45.1209 226.1C45.1209 226.1 47.6045 221.756 44.1896 219.894C40.7746 218.033 36.1179 218.963 36.1179 218.963L36.7388 215.24C36.7388 215.24 87.3421 171.802 76.7868 156.909C74.7674 154.06 72.748 151.12 70.7112 148.226L78.6772 148.952L80.4899 217.141L80.7167 217.067C80.2617 218.406 77.0432 228.517 84.1771 226.806C91.8141 224.974 105.71 218.514 105.71 218.514C105.71 218.514 105.519 213.514 101.636 213.739ZM71.1987 96.4067L56.2971 92.083V79.3419L72.4934 96.5249C71.6971 96.4451 71.1987 96.4067 71.1987 96.4067Z" fill="url(#paint1_linear)"/>
</g>
<path d="M31.3367 51.8843C43.4078 51.8843 53.1933 42.1044 53.1933 30.0403C53.1933 17.9762 43.4078 8.19629 31.3367 8.19629C19.2656 8.19629 9.4801 17.9762 9.4801 30.0403C9.4801 42.1044 19.2656 51.8843 31.3367 51.8843Z" fill="black"/>
<path d="M56.2288 80.0996L72.9087 97.7958C73.26 98.1685 73.6941 98.4531 74.176 98.6266C74.6579 98.8002 75.174 98.8577 75.6823 98.7947C76.1906 98.7316 76.6769 98.5496 77.1017 98.2636C77.5265 97.9775 77.8778 97.5954 78.1272 97.1483L96.6028 64.02L91.4422 62.1997L76.264 84.0437C76.264 84.0437 47.7693 54.3611 43.7826 55.8285C39.796 57.296 56.2288 80.0996 56.2288 80.0996Z" fill="#571AFF"/>
<path d="M24.3541 141.384L-0.234619 205.095" stroke="#BDBDBD" stroke-width="5" stroke-miterlimit="10"/>
<path d="M36.4971 141.384L61.0857 205.095" stroke="#BDBDBD" stroke-width="5" stroke-miterlimit="10"/>
<path d="M30.426 149.575C46.1855 149.575 58.961 146.112 58.961 141.839C58.961 137.566 46.1855 134.103 30.426 134.103C14.6665 134.103 1.89099 137.566 1.89099 141.839C1.89099 146.112 14.6665 149.575 30.426 149.575Z" fill="#B84733"/>
<path d="M30.426 148.968C46.1855 148.968 58.961 145.505 58.961 141.232C58.961 136.959 46.1855 133.496 30.426 133.496C14.6665 133.496 1.89099 136.959 1.89099 141.232C1.89099 145.505 14.6665 148.968 30.426 148.968Z" fill="#F55F44"/>
<path d="M18.4187 155.382L45.3418 163.673" stroke="#BDBDBD" stroke-width="5" stroke-miterlimit="10"/>
<path d="M42.4327 155.382L15.5095 163.673" stroke="#BDBDBD" stroke-width="5" stroke-miterlimit="10"/>
<path d="M30.7577 55.2217H39.2287C43.7373 55.2217 48.0612 57.0117 51.2493 60.1979C54.4373 63.3841 56.2283 67.7055 56.2283 72.2114V117.113H7.65808V78.3079C7.65808 72.1851 10.0918 66.313 14.4238 61.9835C18.7558 57.654 24.6313 55.2217 30.7577 55.2217Z" fill="#571AFF"/>
<path d="M7.65808 117.113H56.2283V143.508H29.2111C23.4949 143.508 18.0128 141.238 13.9708 137.199C9.92884 133.159 7.65808 127.68 7.65808 121.967V117.113Z" fill="#000A2C"/>
<path opacity="0.05" d="M8.3145 73.4367L38.0149 101.64H70.7998V97.3925L42.5684 89.201L18.4187 59.396C18.4187 59.396 7.45266 66.1673 8.3145 73.4367Z" fill="black"/>
<path d="M8.3145 72.8302L38.0149 101.033H70.7998V96.786L42.5684 88.5945L18.4187 58.7896C18.4187 58.7896 7.45266 65.5608 8.3145 72.8302Z" fill="#571AFF"/>
<path d="M70.7996 96.7856C70.7996 96.7856 86.5849 97.9992 82.335 101.033H70.7996V96.7856Z" fill="#FDA57D"/>
<path d="M91.4421 62.1994C91.4421 62.1994 95.3885 50.3673 98.1206 53.7045C100.853 57.0418 96.6027 64.0198 96.6027 64.0198L91.4421 62.1994Z" fill="#FDA57D"/>
<path opacity="0.05" d="M7.65808 117.113V118.529L56.2283 118.63V117.113H7.65808Z" fill="black"/>
<path d="M45.4401 145.19L78.1119 148.165L79.8844 214.842L91.5811 211.036C91.5811 211.036 109.074 135.493 92.3935 129.125C75.7127 122.757 57.6815 114.373 46.9159 121.206C36.1504 128.039 45.4401 145.19 45.4401 145.19Z" fill="#000A2C"/>
<path opacity="0.1" d="M47.4249 124.698C47.4249 124.698 65.3352 133.799 67.7637 144.115L47.4249 124.698Z" fill="black"/>
<path d="M28.3008 143.204L53.7999 163.835L25.2649 209.647L37.1039 212.984C37.1039 212.984 86.5848 170.509 76.2636 155.947C65.9424 141.384 55.6213 124.394 42.8716 124.091C30.1219 123.788 28.3008 143.204 28.3008 143.204Z" fill="#000A2C"/>
<path opacity="0.05" d="M68.3711 76.1553L74.7459 87.0773L76.2638 84.0434L68.3711 76.1553Z" fill="black"/>
<path d="M25.2656 209.646C25.2656 209.646 15.8552 216.928 23.1407 219.355C30.4262 221.782 45.3009 223.602 45.3009 223.602C45.3009 223.602 47.7294 219.355 44.3902 217.535C41.051 215.714 36.4975 216.624 36.4975 216.624L37.1046 212.984L25.2656 209.646Z" fill="#333333"/>
<path d="M80.1566 214.626C80.1566 214.626 76.023 226.084 83.4906 224.293C90.9582 222.502 104.546 216.184 104.546 216.184C104.546 216.184 104.359 211.296 100.562 211.516C96.7646 211.736 93.3817 214.915 93.3817 214.915L91.7459 210.86L80.1566 214.626Z" fill="#333333"/>
<path d="M31.9435 44.603H31.9435C28.5904 44.603 25.8722 47.3197 25.8722 50.6708V56.7386C25.8722 60.0897 28.5904 62.8063 31.9435 62.8063H31.9435C35.2966 62.8063 38.0148 60.0897 38.0148 56.7386V50.6708C38.0148 47.3197 35.2966 44.603 31.9435 44.603Z" fill="#FDA57D"/>
<path opacity="0.05" d="M31.9435 45.21C30.3333 45.21 28.789 45.8492 27.6504 46.9872C26.5119 48.1251 25.8722 49.6684 25.8722 51.2777V53.3393C29.8158 54.6357 34.0712 54.6357 38.0148 53.3393V51.2777C38.0147 49.6684 37.3751 48.1251 36.2365 46.9872C35.0979 45.8492 33.5537 45.21 31.9435 45.21Z" fill="black"/>
<path d="M31.9432 53.7048C42.6731 53.7048 51.3713 45.0116 51.3713 34.288C51.3713 23.5643 42.6731 14.8711 31.9432 14.8711C21.2134 14.8711 12.5151 23.5643 12.5151 34.288C12.5151 45.0116 21.2134 53.7048 31.9432 53.7048Z" fill="#FDA57D"/>
<path opacity="0.05" d="M12.5155 33.4066C12.5155 33.4066 17.3725 34.6575 20.1046 29.1405C22.8367 23.6234 24.9616 20.6141 36.1935 23.8742C47.4254 27.1343 49.6848 27.532 50.2247 24.4492C50.5936 22.3426 46.5997 17.2258 44.0333 14.1964C42.7813 12.7185 40.7382 11.8369 38.5547 11.8369H25.8723L18.2832 15.3478L12.5155 20.3633L11.3013 27.1343L12.5155 33.4066Z" fill="black"/>
<path d="M12.5155 32.8001C12.5155 32.8001 17.3725 34.0511 20.1046 28.534C22.8367 23.0169 24.9616 20.0076 36.1935 23.2677C47.4254 26.5278 49.6848 26.9256 50.2247 23.8428C50.5936 21.7362 46.5997 16.6193 44.0333 13.5899C42.7813 12.1121 40.7382 11.2305 38.5547 11.2305H25.8723L18.2832 14.7413L12.5155 19.7569L11.3013 26.5278L12.5155 32.8001Z" fill="black"/>
<path d="M14.4883 36.7148C15.578 36.7148 16.4615 34.949 16.4615 32.7707C16.4615 30.5925 15.578 28.8267 14.4883 28.8267C13.3986 28.8267 12.5151 30.5925 12.5151 32.7707C12.5151 34.949 13.3986 36.7148 14.4883 36.7148Z" fill="#FDA57D"/>
<path d="M13.0781 22.6221C12.6279 20.0823 12.1855 17.4154 13.0053 14.9696C13.4068 13.8052 14.0754 12.7508 14.9576 11.8908C15.8398 11.0309 16.9112 10.3892 18.086 10.0172C19.6168 9.54685 21.2665 9.55684 22.7877 9.05622C24.9285 8.35166 26.6067 6.71637 28.4663 5.44347C30.1098 4.31932 31.9223 3.46452 33.8354 2.91131C35.5545 2.41481 37.5783 2.22353 38.9793 3.33622C40.1586 4.27279 40.5681 5.87821 41.5427 7.02609C42.6768 8.36195 44.4383 8.94108 45.9763 9.78163C47.893 10.8534 49.5195 12.3757 50.7154 14.2168C51.9113 16.0578 52.6405 18.1623 52.8399 20.3483C52.8929 20.9996 52.8385 21.7733 52.2888 22.127C51.9473 22.3006 51.5625 22.3708 51.1816 22.329C43.4169 22.2181 35.6428 22.1067 27.91 21.3943C25.5061 21.1729 23.0975 20.8931 20.6851 20.9844C16.9516 21.1299 13.3058 22.158 10.0469 23.9843" fill="black"/>
<path d="M117.447 124.749C117.565 124.744 117.677 124.695 117.759 124.61C117.841 124.525 117.887 124.411 117.887 124.293C117.887 124.175 117.841 124.062 117.759 123.977C117.677 123.892 117.565 123.842 117.447 123.838C117.329 123.842 117.217 123.892 117.135 123.977C117.053 124.062 117.007 124.175 117.007 124.293C117.007 124.411 117.053 124.525 117.135 124.61C117.217 124.695 117.329 124.744 117.447 124.749Z" fill="url(#paint2_linear)"/>
<path d="M184.26 104.371L215.831 216.652" stroke="#E0E0E0" stroke-width="8" stroke-miterlimit="10"/>
<path d="M215.959 101.083H45.4755V107.722H215.959V101.083Z" fill="#E0E0E0"/>
<path d="M113.45 99.5161H89.4685C88.3788 99.5161 87.4954 100.399 87.4954 101.488V101.488C87.4954 102.577 88.3788 103.46 89.4685 103.46H113.45C114.54 103.46 115.423 102.577 115.423 101.488C115.423 100.399 114.54 99.5161 113.45 99.5161Z" fill="#535461"/>
<g opacity="0.7">
<path opacity="0.7" d="M165.342 55.5435H113.062C108.331 55.5435 104.496 59.3766 104.496 64.1049V94.9481C104.496 99.6765 108.331 103.51 113.062 103.51H165.342C170.073 103.51 173.908 99.6765 173.908 94.9481V64.1049C173.908 59.3766 170.073 55.5435 165.342 55.5435Z" fill="url(#paint3_linear)"/>
</g>
<path d="M163.341 56.4282H113.878C109.379 56.4282 105.732 60.0733 105.732 64.5697V95.3679C105.732 99.8643 109.379 103.509 113.878 103.509H163.341C167.84 103.509 171.487 99.8643 171.487 95.3679V64.5697C171.487 60.0733 167.84 56.4282 163.341 56.4282Z" fill="#3E3F49"/>
<path d="M164.252 56.4282H114.789C110.29 56.4282 106.643 60.0733 106.643 64.5697V95.3679C106.643 99.8643 110.29 103.509 114.789 103.509H164.252C168.751 103.509 172.398 99.8643 172.398 95.3679V64.5697C172.398 60.0733 168.751 56.4282 164.252 56.4282Z" fill="#535461"/>
<path d="M142.592 81.768C143.766 81.768 144.717 80.8171 144.717 79.6442C144.717 78.4713 143.766 77.5205 142.592 77.5205C141.419 77.5205 140.467 78.4713 140.467 79.6442C140.467 80.8171 141.419 81.768 142.592 81.768Z" fill="#E0E0E0"/>
</g>
<defs>
<linearGradient id="paint0_linear" x1="189.681" y1="101.612" x2="189.681" y2="83.1011" gradientUnits="userSpaceOnUse">
<stop stop-color="#808080" stop-opacity="0.25"/>
<stop offset="0.53514" stop-color="#808080" stop-opacity="0.12"/>
<stop offset="1" stop-color="#808080" stop-opacity="0.1"/>
</linearGradient>
<linearGradient id="paint1_linear" x1="53972" y1="187072" x2="53972" y2="17227.6" gradientUnits="userSpaceOnUse">
<stop stop-color="#808080" stop-opacity="0.25"/>
<stop offset="0.53514" stop-color="#808080" stop-opacity="0.12"/>
<stop offset="1" stop-color="#808080" stop-opacity="0.1"/>
</linearGradient>
<linearGradient id="paint2_linear" x1="755.387" y1="567.145" x2="755.387" y2="564.415" gradientUnits="userSpaceOnUse">
<stop stop-color="#808080" stop-opacity="0.25"/>
<stop offset="0.53514" stop-color="#808080" stop-opacity="0.12"/>
<stop offset="1" stop-color="#808080" stop-opacity="0.1"/>
</linearGradient>
<linearGradient id="paint3_linear" x1="45051.9" y1="16420.5" x2="45051.9" y2="8837.03" gradientUnits="userSpaceOnUse">
<stop stop-color="#808080" stop-opacity="0.25"/>
<stop offset="0.53514" stop-color="#808080" stop-opacity="0.12"/>
<stop offset="1" stop-color="#808080" stop-opacity="0.1"/>
</linearGradient>
<clipPath id="clip0">
<rect width="217" height="227" fill="white"/>
</clipPath>
</defs>
</svg>
