<svg width="1382" height="754" fill="none" xmlns="http://www.w3.org/2000/svg"><g clip-path="url(#a)"><path opacity=".25" fill="#571AFF" d="m712.027 743.041 265.766-91.51 51.657 150.021-265.766 91.51z"/><path fill="#571AFF" d="m649 713.511 265.766-91.51 51.657 150.021-265.766 91.51z"/><path fill="#F4ED0F" d="m236 84.652 265.766-91.51 51.657 150.021-265.767 91.51zM603.15 728 302 831.694l58.534 169.996 301.151-103.694L603.15 728Z"/><path opacity=".25" fill="#E93A55" d="m1151.51 472.328 265.766-91.51 51.657 150.021-265.766 91.51z"/><path fill="#E93A55" d="m1088.48 442.798 265.766-91.51 51.657 150.021-265.766 91.51zM-233 22.513l265.766-91.51 51.657 150.02-265.766 91.512z"/><path opacity=".25" fill="#E93A55" d="m665.836-20.959 265.766-91.51 51.658 150.02-265.766 91.51z"/><path fill="#E93A55" d="m602.808-50.489 265.766-91.51L920.231 8.02 654.465 99.534z"/><path opacity=".25" fill="#571AFF" d="m-80.973 502.041 265.766-91.51 51.657 150.021-265.766 91.51z"/><path fill="#571AFF" d="m-144 472.511 265.766-91.51 51.657 150.021-265.766 91.51z"/><path d="M1639.15 502 1338 605.694l58.53 169.996 301.15-103.694L1639.15 502Z" fill="#F4ED0F"/></g><defs><clipPath id="a"><path fill="#fff" transform="translate(-257 -264)" d="M0 0h1896v1282H0z"/></clipPath></defs></svg>