<svg width="1382" height="754" viewBox="0 0 1382 754" fill="none" xmlns="http://www.w3.org/2000/svg">
<g clip-path="url(#clip0)">
<rect opacity="0.25" x="712.027" y="743.041" width="281.08" height="158.666" transform="rotate(-19 712.027 743.041)" fill="#571AFF"/>
<rect x="649" y="713.511" width="281.08" height="158.666" transform="rotate(-19 649 713.511)" fill="#571AFF"/>
<rect x="236" y="84.6523" width="281.08" height="158.666" transform="rotate(-19 236 84.6523)" fill="#F4ED0F"/>
<path d="M603.15 728L302 831.694L360.534 1001.69L661.685 897.996L603.15 728Z" fill="#F4ED0F"/>
<rect opacity="0.25" x="1151.51" y="472.328" width="281.08" height="158.666" transform="rotate(-19 1151.51 472.328)" fill="#E93A55"/>
<rect x="1088.48" y="442.798" width="281.08" height="158.666" transform="rotate(-19 1088.48 442.798)" fill="#E93A55"/>
<rect x="-233" y="22.5127" width="281.08" height="158.666" transform="rotate(-19 -233 22.5127)" fill="#E93A55"/>
<rect opacity="0.25" x="665.836" y="-20.959" width="281.08" height="158.666" transform="rotate(-19 665.836 -20.959)" fill="#E93A55"/>
<rect x="602.808" y="-50.4893" width="281.08" height="158.666" transform="rotate(-19 602.808 -50.4893)" fill="#E93A55"/>
<rect opacity="0.25" x="-80.9729" y="502.041" width="281.08" height="158.666" transform="rotate(-19 -80.9729 502.041)" fill="#571AFF"/>
<rect x="-144" y="472.511" width="281.08" height="158.666" transform="rotate(-19 -144 472.511)" fill="#571AFF"/>
<path d="M1639.15 502L1338 605.694L1396.53 775.69L1697.68 671.996L1639.15 502Z" fill="#F4ED0F"/>
</g>
<defs>
<clipPath id="clip0">
<rect width="1896" height="1282" fill="white" transform="translate(-257 -264)"/>
</clipPath>
</defs>
</svg>
