<svg width="524" height="685" fill="none" xmlns="http://www.w3.org/2000/svg"><g clip-path="url(#a)"><path fill="#571AFF" d="M404.084 120.319 99.444 38.691 50.884 219.92l304.64 81.628z"/><path fill="#E93A55" d="m727.201 207.652-304.64-81.628-48.56 181.228 304.64 81.628zm-472.406 85.74-304.64-81.628-48.56 181.228 304.64 81.628z"/><path fill="#F4ED0F" d="m100.666 464.688-304.64-81.628-48.56 181.228 304.64 81.628zM83.113 34.313l-304.64-81.627-48.559 181.228 304.64 81.627zm665.619 604.999-304.64-81.628-48.56 181.228 304.64 81.628zM273.657 724.61l-304.64-81.628-48.56 181.228 304.64 81.628zm303.394-344.377-304.64-81.628-48.56 181.228 304.64 81.628z"/><path fill="#571AFF" d="m428.213 553.429-304.64-81.628-48.56 181.228 304.64 81.628z"/></g><defs><clipPath id="a"><path fill="#fff" d="M0 0h524v685H0z"/></clipPath></defs></svg>