<svg width="524" height="685" viewBox="0 0 524 685" fill="none" xmlns="http://www.w3.org/2000/svg">
<g clip-path="url(#clip0)">
<rect width="315.386" height="187.621" transform="matrix(-0.965926 -0.258819 -0.258819 0.965926 404.084 120.319)" fill="#571AFF"/>
<rect width="315.386" height="187.621" transform="matrix(-0.965926 -0.258819 -0.258819 0.965926 727.201 207.652)" fill="#E93A55"/>
<rect width="315.386" height="187.621" transform="matrix(-0.965926 -0.258819 -0.258819 0.965926 254.795 293.392)" fill="#E93A55"/>
<rect width="315.386" height="187.621" transform="matrix(-0.965926 -0.258819 -0.258819 0.965926 100.666 464.688)" fill="#F4ED0F"/>
<rect width="315.386" height="187.621" transform="matrix(-0.965926 -0.258819 -0.258819 0.965926 83.1134 34.3134)" fill="#F4ED0F"/>
<rect width="315.386" height="187.621" transform="matrix(-0.965926 -0.258819 -0.258819 0.965926 748.732 639.312)" fill="#F4ED0F"/>
<rect width="315.386" height="187.621" transform="matrix(-0.965926 -0.258819 -0.258819 0.965926 273.657 724.61)" fill="#F4ED0F"/>
<rect width="315.386" height="187.621" transform="matrix(-0.965926 -0.258819 -0.258819 0.965926 577.051 380.233)" fill="#F4ED0F"/>
<rect width="315.386" height="187.621" transform="matrix(-0.965926 -0.258819 -0.258819 0.965926 428.213 553.429)" fill="#571AFF"/>
</g>
<defs>
<clipPath id="clip0">
<rect width="524" height="685" fill="white"/>
</clipPath>
</defs>
</svg>
