<svg width="62" height="59" fill="none" xmlns="http://www.w3.org/2000/svg"><path d="M8.333 8.334h33.334a4.179 4.179 0 0 1 4.166 4.166v25a4.179 4.179 0 0 1-4.166 4.167H8.333A4.179 4.179 0 0 1 4.167 37.5v-25a4.179 4.179 0 0 1 4.166-4.166Z" stroke="#000" stroke-width="4.167" stroke-linecap="round" stroke-linejoin="round"/><path d="M45.833 12.5 25 27.083 4.167 12.5" stroke="#000" stroke-width="4.167" stroke-linecap="round" stroke-linejoin="round"/><path fill-rule="evenodd" clip-rule="evenodd" d="M46.667 57.667C55.135 57.667 62 50.802 62 42.333 62 33.865 55.135 27 46.667 27c-8.469 0-15.334 6.865-15.334 15.333 0 8.469 6.865 15.334 15.334 15.334Zm6.696-17.95a1 1 0 1 0-1.393-1.435l-7.553 7.325-3.054-2.961a1 1 0 0 0-1.393 1.435l3.75 3.637a1 1 0 0 0 1.393 0l8.25-8Z" fill="#571AFF"/></svg>