<svg width="262" height="162" viewBox="0 0 262 162" fill="none" xmlns="http://www.w3.org/2000/svg">
<path opacity="0.1" d="M110.311 149.741C125.716 141.307 150.097 144.581 167.294 148.196C193.505 142.997 215.505 161.796 221.438 122.253C231.569 54.7187 189.112 36.8939 189.112 36.8939C189.112 36.8939 160.878 34.5546 144.182 25.6482C120.467 12.9924 93.3599 11.3808 69.5249 22.0887C54.2824 28.9307 41.7303 38.4581 39.5857 51.539C33.5894 88.1219 43.4372 108.278 25.0148 120.22C11.7794 128.8 27.3612 149.331 41.4843 148.196C55.6075 147.061 82.4967 133.773 94.9329 148.196C99.3501 153.312 104.939 152.683 110.311 149.741Z" fill="#571AFF"/>
<path opacity="0.1" d="M183 45H120V49H183V45Z" fill="#571AFF"/>
<path opacity="0.1" d="M183 63H120V68H183V63Z" fill="#571AFF"/>
<path opacity="0.1" d="M183 83H120V88H183V83Z" fill="#571AFF"/>
<path opacity="0.1" d="M130 33H126V45H130V33Z" fill="#571AFF"/>
<path opacity="0.1" d="M130 35H126V36H130V35Z" fill="#571AFF"/>
<path opacity="0.1" d="M130 41H126V42H130V41Z" fill="#571AFF"/>
<path opacity="0.1" d="M135 33H132V45H135V33Z" fill="#571AFF"/>
<path opacity="0.1" d="M135 35H132V36H135V35Z" fill="#571AFF"/>
<path opacity="0.1" d="M135 41H132V42H135V41Z" fill="#571AFF"/>
<path opacity="0.1" d="M141 33H137V45H141V33Z" fill="#571AFF"/>
<path opacity="0.1" d="M141 35H137V36H141V35Z" fill="#571AFF"/>
<path opacity="0.1" d="M141 41H137V42H141V41Z" fill="#571AFF"/>
<path opacity="0.1" d="M147 33H143V45H147V33Z" fill="#571AFF"/>
<path opacity="0.1" d="M147 35H143V36H147V35Z" fill="#571AFF"/>
<path opacity="0.1" d="M147 41H143V42H147V41Z" fill="#571AFF"/>
<path opacity="0.1" d="M153 33H149V45H153V33Z" fill="#571AFF"/>
<path opacity="0.1" d="M153 35H149V36H153V35Z" fill="#571AFF"/>
<path opacity="0.1" d="M153 41H149V42H153V41Z" fill="#571AFF"/>
<path opacity="0.1" d="M159 33H155V45H159V33Z" fill="#571AFF"/>
<path opacity="0.1" d="M159 35H155V36H159V35Z" fill="#571AFF"/>
<path opacity="0.1" d="M159 41H155V42H159V41Z" fill="#571AFF"/>
<path opacity="0.1" d="M165 33H161V45H165V33Z" fill="#571AFF"/>
<path opacity="0.1" d="M165 35H161V36H165V35Z" fill="#571AFF"/>
<path opacity="0.1" d="M165 41H161V42H165V41Z" fill="#571AFF"/>
<path opacity="0.1" d="M163.025 71.5057L159.463 73.2871L164.554 83.4129L168.116 81.6314L163.025 71.5057Z" fill="#571AFF"/>
<path opacity="0.1" d="M163.83 73.1055L160.268 74.887L160.625 75.5976L164.187 73.8161L163.83 73.1055Z" fill="#571AFF"/>
<path opacity="0.1" d="M166.597 78.6133L163.035 80.3948L163.392 81.1054L166.954 79.3239L166.597 78.6133Z" fill="#571AFF"/>
<path opacity="0.1" d="M130 52H126V64H130V52Z" fill="#571AFF"/>
<path opacity="0.1" d="M130 54H126V55H130V54Z" fill="#571AFF"/>
<path opacity="0.1" d="M130 60H126V61H130V60Z" fill="#571AFF"/>
<path opacity="0.1" d="M135 52H132V64H135V52Z" fill="#571AFF"/>
<path opacity="0.1" d="M135 54H132V55H135V54Z" fill="#571AFF"/>
<path opacity="0.1" d="M135 60H132V61H135V60Z" fill="#571AFF"/>
<path opacity="0.1" d="M141 52H137V64H141V52Z" fill="#571AFF"/>
<path opacity="0.1" d="M141 54H137V55H141V54Z" fill="#571AFF"/>
<path opacity="0.1" d="M141 60H137V61H141V60Z" fill="#571AFF"/>
<path opacity="0.1" d="M166 52H162V64H166V52Z" fill="#571AFF"/>
<path opacity="0.1" d="M166 54H162V55H166V54Z" fill="#571AFF"/>
<path opacity="0.1" d="M166 60H162V61H166V60Z" fill="#571AFF"/>
<path opacity="0.1" d="M172 52H168V64H172V52Z" fill="#571AFF"/>
<path opacity="0.1" d="M172 54H168V55H172V54Z" fill="#571AFF"/>
<path opacity="0.1" d="M172 60H168V61H172V60Z" fill="#571AFF"/>
<path opacity="0.1" d="M178 52H174V64H178V52Z" fill="#571AFF"/>
<path opacity="0.1" d="M178 54H174V55H178V54Z" fill="#571AFF"/>
<path opacity="0.1" d="M178 60H174V61H178V60Z" fill="#571AFF"/>
<path opacity="0.1" d="M130 72H126V83H130V72Z" fill="#571AFF"/>
<path opacity="0.1" d="M130 80H126V81H130V80Z" fill="#571AFF"/>
<path opacity="0.1" d="M135 72H132V83H135V72Z" fill="#571AFF"/>
<path opacity="0.1" d="M135 80H132V81H135V80Z" fill="#571AFF"/>
<path opacity="0.1" d="M141 72H137V83H141V72Z" fill="#571AFF"/>
<path opacity="0.1" d="M141 80H137V81H141V80Z" fill="#571AFF"/>
<path opacity="0.1" d="M147 72H143V83H147V72Z" fill="#571AFF"/>
<path opacity="0.1" d="M147 80H143V81H147V80Z" fill="#571AFF"/>
<path opacity="0.1" d="M153 72H149V83H153V72Z" fill="#571AFF"/>
<path opacity="0.1" d="M153 80H149V81H153V80Z" fill="#571AFF"/>
<path opacity="0.1" d="M159 72H155V83H159V72Z" fill="#571AFF"/>
<path opacity="0.1" d="M159 80H155V81H159V80Z" fill="#571AFF"/>
<path opacity="0.1" d="M171 34.752V45H167V34C168.339 34.2329 169.672 34.4836 171 34.752Z" fill="#571AFF"/>
<path opacity="0.1" d="M171 35H167V36H171V35Z" fill="#571AFF"/>
<path opacity="0.1" d="M171 41H167V42H171V41Z" fill="#571AFF"/>
<path opacity="0.1" d="M177 35.9639V45H173V35C173.52 35.1145 174.038 35.2349 174.556 35.3574C175.375 35.5502 176.189 35.7523 177 35.9639Z" fill="#571AFF"/>
<path opacity="0.1" d="M177 35.75V36H173V35H174.556C175.375 35.2367 176.189 35.4867 177 35.75Z" fill="#571AFF"/>
<path opacity="0.1" d="M177 41H173V42H177V41Z" fill="#571AFF"/>
<g opacity="0.1">
<path opacity="0.1" d="M149.523 59.5384C149.523 59.5384 148.316 59.129 147.73 60.1922C147.577 60.48 147.499 60.8017 147.503 61.1275C147.508 61.4533 147.595 61.7728 147.756 62.0562C148.138 62.7438 148.925 63.646 150.416 63.5586C151.681 63.491 152.101 62.5292 152.209 61.6329C152.25 61.2977 152.205 60.9575 152.078 60.6445C151.951 60.3314 151.745 60.0559 151.482 59.8439C151.218 59.6319 150.905 59.4904 150.571 59.4327C150.237 59.3751 149.895 59.4033 149.575 59.5145L149.523 59.5384Z" fill="#571AFF"/>
<path opacity="0.1" d="M148.019 62.1537C147.858 61.8702 147.771 61.5508 147.766 61.225C147.762 60.8991 147.84 60.5774 147.993 60.2896C148.575 59.2284 149.786 59.6358 149.786 59.6358L149.848 59.614C150.309 59.4476 150.815 59.4589 151.268 59.6457C151.018 59.4972 150.738 59.4059 150.448 59.3784C150.159 59.3509 149.866 59.3879 149.593 59.4868L149.531 59.5086C149.531 59.5086 148.324 59.0993 147.738 60.1624C147.585 60.4502 147.507 60.7719 147.511 61.0978C147.516 61.4236 147.603 61.743 147.764 62.0265C148.063 62.5958 148.544 63.0496 149.131 63.3162C148.66 63.0375 148.276 62.6354 148.019 62.1537Z" fill="#571AFF"/>
<path opacity="0.2" d="M148.9 60.049C148.9 60.049 149.348 60.4008 150.436 60.049H148.9Z" fill="#571AFF"/>
<path opacity="0.1" d="M148.802 57.4955C148.802 57.4955 149.569 59.5702 149.505 60.1127L150.113 60.0491C150.113 60.0491 149.089 58.2308 149.346 57.4955H148.802Z" fill="#571AFF"/>
<path opacity="0.2" d="M148.802 57.4955C148.802 57.4955 149.569 59.5702 149.505 60.1127L150.113 60.0491C150.113 60.0491 149.089 58.2308 149.346 57.4955H148.802Z" fill="#571AFF"/>
<path opacity="0.1" d="M151.938 57.6704C151.938 57.6704 150.728 57.0543 150.188 57.563C149.648 58.0718 149.565 59.3734 149.565 59.3734C149.565 59.3734 151.535 59.6397 151.938 57.6704Z" fill="#571AFF"/>
<path opacity="0.1" d="M151.938 57.6704C151.938 57.6704 150.728 57.0543 150.188 57.563C149.648 58.0718 149.565 59.3734 149.565 59.3734C149.565 59.3734 151.535 59.6397 151.938 57.6704Z" fill="#571AFF"/>
<path opacity="0.1" d="M149.563 59.3735C149.563 59.3735 149.88 57.8632 151.936 57.6684L149.563 59.3735Z" fill="#571AFF"/>
</g>
<g opacity="0.1">
<path opacity="0.1" d="M175.025 79.2121C175.025 79.2121 173.818 78.8027 173.232 79.8659C173.079 80.1537 173.001 80.4754 173.006 80.8013C173.01 81.1271 173.097 81.4465 173.258 81.73C173.641 82.4176 174.428 83.3198 175.918 83.2323C177.183 83.1648 177.603 82.2029 177.711 81.3067C177.752 80.9714 177.707 80.6312 177.58 80.3182C177.453 80.0052 177.248 79.7296 176.984 79.5176C176.72 79.3056 176.407 79.1641 176.073 79.1065C175.74 79.0488 175.397 79.077 175.077 79.1883L175.025 79.2121Z" fill="#571AFF"/>
<path opacity="0.1" d="M173.521 81.8274C173.36 81.5439 173.273 81.2245 173.269 80.8987C173.264 80.5729 173.342 80.2512 173.495 79.9634C174.077 78.9022 175.288 79.3096 175.288 79.3096L175.35 79.2877C175.811 79.1213 176.318 79.1327 176.771 79.3195C176.52 79.1709 176.24 79.0796 175.951 79.0521C175.661 79.0247 175.369 79.0617 175.095 79.1605L175.033 79.1824C175.033 79.1824 173.826 78.773 173.24 79.8362C173.087 80.124 173.009 80.4457 173.013 80.7715C173.018 81.0973 173.105 81.4167 173.266 81.7002C173.565 82.2696 174.046 82.7233 174.633 82.9899C174.162 82.7112 173.778 82.3091 173.521 81.8274Z" fill="#571AFF"/>
<path opacity="0.2" d="M174.402 79.7228C174.402 79.7228 174.85 80.0745 175.938 79.7228H174.402Z" fill="#571AFF"/>
<path opacity="0.1" d="M174.304 77.1692C174.304 77.1692 175.071 79.2439 175.007 79.7864L175.615 79.7228C175.615 79.7228 174.591 77.9045 174.848 77.1692H174.304Z" fill="#571AFF"/>
<path opacity="0.2" d="M174.304 77.1692C174.304 77.1692 175.071 79.2439 175.007 79.7864L175.615 79.7228C175.615 79.7228 174.591 77.9045 174.848 77.1692H174.304Z" fill="#571AFF"/>
<path opacity="0.1" d="M177.44 77.3441C177.44 77.3441 176.231 76.728 175.691 77.2368C175.151 77.7455 175.067 79.0472 175.067 79.0472C175.067 79.0472 177.037 79.3135 177.44 77.3441Z" fill="#571AFF"/>
<path opacity="0.1" d="M177.44 77.3441C177.44 77.3441 176.231 76.728 175.691 77.2368C175.151 77.7455 175.067 79.0472 175.067 79.0472C175.067 79.0472 177.037 79.3135 177.44 77.3441Z" fill="#571AFF"/>
<path opacity="0.1" d="M175.065 79.0473C175.065 79.0473 175.382 77.5369 177.438 77.3422L175.065 79.0473Z" fill="#571AFF"/>
</g>
<path opacity="0.1" d="M215.5 140C221.299 140 226 138.209 226 136C226 133.791 221.299 132 215.5 132C209.701 132 205 133.791 205 136C205 138.209 209.701 140 215.5 140Z" fill="#000A2C"/>
<path opacity="0.1" d="M188.5 129C194.299 129 199 127.209 199 125C199 122.791 194.299 121 188.5 121C182.701 121 178 122.791 178 125C178 127.209 182.701 129 188.5 129Z" fill="#000A2C"/>
<path d="M243.623 145.074L181.874 112.472H168.925L172.275 84.7153C172.349 84.1077 172.299 83.4917 172.131 82.9032C171.962 82.3148 171.677 81.7658 171.292 81.2884C170.908 80.8109 170.431 80.4147 169.891 80.1228C169.35 79.8308 168.757 79.6491 168.145 79.5883L167.798 79.6022H167.764L120.658 80.3148C119.453 80.2299 118.256 80.5755 117.283 81.2896C116.31 82.0037 115.625 83.0395 115.35 84.2111L113.156 100.162L112.839 99.6793L112.685 99.4471C113.844 98.6968 111.559 94.2367 109.622 90.9121L109.447 90.6104C110.675 90.1003 112.039 89.6179 112.039 89.6179L109.018 87.7402C109.018 87.7402 106.238 83.7347 103.279 80.4855C105.273 68.0561 101.061 53.6895 101.011 53.4911L100.9 53.5208C101.484 52.5785 101.792 51.4922 101.789 50.3847C101.789 49.5411 101.61 48.7071 101.262 47.9378C100.914 47.1686 100.406 46.4817 99.7708 45.9227C99.6532 44.8588 99.4836 43.7631 99.2403 42.6099C99.1965 42.4114 99.1506 42.1911 99.1007 41.9807C98.8734 40.9883 98.6441 39.9958 98.3429 39.0232C98.1342 38.3298 97.8749 37.6525 97.5672 36.9967C95.9937 33.6879 92.7571 31.3219 89.2113 30.4882C87.3866 30.0595 85.516 30.7244 83.8129 30.4069C82.9554 30.2501 82.1876 29.4303 81.352 29.0988C80.2931 28.678 79.1464 28.4815 78.0257 28.3049C76.6297 28.0726 75.1799 27.8424 73.7899 28.1441C71.4965 28.6403 69.7476 30.4902 68.4613 32.4433C67.175 34.3965 66.1759 36.56 64.5865 38.2789C63.5236 39.4301 62.2153 40.3551 61.2681 41.6016C59.8721 43.4356 59.3875 45.7699 58.9388 48.0366C58.3844 50.8254 57.83 53.6538 57.842 56.4862C57.842 57.1432 57.852 57.8022 57.9098 58.4612C58.0554 60.1523 58.4422 61.8196 58.534 63.5127C58.534 63.6953 58.5479 63.878 58.5519 64.0606C58.532 67.159 57.6126 70.2137 56.6993 73.191C56.4081 74.1378 56.113 75.0925 55.768 76.0254C53.9333 76.1803 52.1783 76.5455 50.8402 77.264C45.9503 79.8682 42.1872 85.6759 42.1872 85.6759L35.0339 92.2261C35.0339 92.2261 37.8577 93.5381 39.1759 95.7869C39.2231 95.8662 39.2772 95.9413 39.3375 96.0112L39.2338 96.2494L35.0339 105.904C35.0339 105.904 37.6703 107.778 41.6149 107.402C42.256 107.323 42.9066 107.37 43.5293 107.541C43.5293 107.661 43.5174 107.782 43.5134 107.909C43.2721 113.433 43.1445 125.536 46.0162 133.712L39.5269 141.255L26.5644 145.076L26 155H244L243.623 145.074ZM56.6654 108.065C57.2213 108.178 57.7635 108.35 58.2827 108.578V115.477C57.9397 113.04 57.4631 110.543 56.799 108.466C56.7571 108.331 56.7192 108.198 56.6654 108.065ZM94.0952 121.342C94.0952 121.318 94.0952 121.295 94.0952 121.271C94.1031 121.03 94.1359 120.791 94.1929 120.556C94.2739 120.193 94.454 119.859 94.7134 119.592C95.194 119.113 95.6906 118.599 96.1872 118.041C96.4929 118.827 96.9343 119.553 97.4914 120.187C98.1296 120.896 99.5554 121.533 101.558 122.108C99.0849 121.727 96.5942 121.471 94.0952 121.342ZM110.37 120.39L103.853 122.309C100.772 121.622 98.5803 120.836 97.7686 119.927C97.2008 119.275 96.7598 118.524 96.4684 117.712C98.7936 115.028 101.055 111.418 101.574 106.487C101.588 106.358 101.598 106.225 101.609 106.09C102.316 105.691 102.984 105.225 103.604 104.701L103.721 104.975C105.474 108.941 107.952 112.547 111.03 115.61L110.37 120.39ZM100.71 53.8106C101.223 55.6506 104.699 68.6774 102.956 80.1322C101.871 78.969 100.776 77.9289 99.7947 77.2442C99.5624 77.0841 99.3192 76.9402 99.0668 76.8134C98.8495 74.7134 98.7498 72.536 98.7338 70.3784C98.7537 67.7068 98.9133 65.057 99.1327 62.5362C99.37 59.8645 99.6492 57.3159 99.8227 54.809C100.155 54.5101 100.452 54.1752 100.71 53.8106Z" fill="url(#paint0_linear)"/>
<path d="M97.8045 57H96V45H97.8045C99.1824 45 100.504 45.5263 101.478 46.4631C102.453 47.3999 103 48.6704 103 49.9953V51.9925C103.002 52.6496 102.869 53.3004 102.608 53.9079C102.348 54.5154 101.965 55.0675 101.483 55.5326C101 55.9978 100.427 56.3668 99.7956 56.6186C99.1645 56.8704 98.4878 57 97.8045 57Z" fill="#DFE6F5"/>
<path d="M96.2493 57H96.7507C97.4407 57 98 56.4504 98 55.7725V46.2275C98 45.5496 97.4407 45 96.7507 45H96.2493C95.5593 45 95 45.5496 95 46.2275V55.7725C95 56.4504 95.5593 57 96.2493 57Z" fill="#37384D"/>
<g opacity="0.1">
<path opacity="0.1" d="M97.9388 56.9012H96.2393V45.1764H97.9388C99.2366 45.1764 100.481 45.6907 101.399 46.606C102.316 47.5213 102.832 48.7627 102.832 50.0571V52.0086C102.834 52.6506 102.708 53.2865 102.463 53.88C102.218 54.4736 101.858 55.013 101.403 55.4675C100.949 55.922 100.409 56.2826 99.8141 56.5286C99.2197 56.7746 98.5824 56.9012 97.9388 56.9012Z" fill="#000A2C"/>
<path opacity="0.1" d="M95.9982 56.9012H96.4804C97.1439 56.9012 97.6818 56.3647 97.6818 55.7029V46.3847C97.6818 45.7229 97.1439 45.1864 96.4804 45.1864H95.9982C95.3347 45.1864 94.7968 45.7229 94.7968 46.3847V55.7029C94.7968 56.3647 95.3347 56.9012 95.9982 56.9012Z" fill="#000A2C"/>
</g>
<path d="M99 51H69V82H99V51Z" fill="#865A61"/>
<path opacity="0.1" d="M99 47H69V78H99V47Z" fill="#000A2C"/>
<path d="M98 77.0572L96.1848 90.1007L95.3297 96.2316L95.0151 98.4833L92.3791 103.565L87.5387 112.891L78.2007 114L61.7756 91.094C61.7756 91.094 53.1759 74.8414 66.251 76.3173C73.5822 77.1469 75.3267 70.6571 75.4578 64.7954C75.4908 61.8442 75.2205 58.8972 74.6511 56L87.7242 62.2805C87.4204 63.6805 87.1918 64.967 87.0385 66.1397C86.4012 70.9383 86.9296 73.9299 88.0348 75.7429C90.9774 80.5714 98 77.0572 98 77.0572Z" fill="#FDC2CC"/>
<path opacity="0.1" d="M88 62.4472C87.6979 63.8849 87.4707 65.2059 87.3183 66.4102C85.9697 66.8022 84.5743 67.0007 83.1721 67C80.5903 67.0043 78.0514 66.3263 75.802 65.0318C75.8347 62.0012 75.566 58.9751 75 56L88 62.4472Z" fill="#000A2C"/>
<path d="M83 66C91.2843 66 98 59.2843 98 51C98 42.7157 91.2843 36 83 36C74.7157 36 68 42.7157 68 51C68 59.2843 74.7157 66 83 66Z" fill="#FDC2CC"/>
<path d="M102.995 136.199L41 141L51.0518 129.378C61.8374 122.848 61.7449 113.871 60.3115 108.303C59.8667 106.519 59.1945 104.797 58.3112 103.181L79.7396 103.281H79.9205L81.6816 107.247L81.762 107.426L83.0728 110.377L87.5398 102.444L89.0938 99.9619L89.9623 98.5674C89.9623 98.5674 102.808 95.6151 102.993 103.179C103.016 104.048 102.981 104.917 102.891 105.781C102.252 111.869 98.8903 115.917 96.1059 118.676C92.9416 121.81 102.995 136.199 102.995 136.199Z" fill="#E93A55"/>
<path d="M95.6215 119.762C95.1692 121.566 96.3101 124.667 97.8233 127.712C90.5674 128.494 82.611 128.087 82.611 128.087L74.4465 130.316L51.464 137C50.4632 135.703 49.6625 134.073 49 132.237L51.2778 129.575C58.4456 125.188 60.7875 119.706 61.1298 114.878C61.266 112.687 61.0524 110.489 60.4973 108.365C60.0547 106.571 59.3861 104.84 58.5077 103.215L79.8428 103.315H80.023L81.7764 107.307L81.8564 107.487L83.1615 110.456L87.6091 102.473L89.1523 99.9754L90.017 98.5721C90.017 98.5721 102.807 95.5972 102.993 103.215C103.016 104.089 102.982 104.963 102.891 105.833C102.255 111.959 98.9082 116.033 96.1359 118.809C95.8805 119.074 95.7025 119.403 95.6215 119.762Z" fill="#E93A55"/>
<path d="M242 144H29L50.3233 137.719L103.631 122.015L137.624 112H181.407L242 144Z" fill="#CBCDDA"/>
<path d="M29.5522 144L29 154H242L241.633 144H29.5522Z" fill="#CBCDDA"/>
<path opacity="0.1" d="M29.5522 144L29 154H242L241.633 144H29.5522Z" fill="#000A2C"/>
<path d="M145 102.777C143.258 112.751 129.899 124.485 129.899 124.485C129.899 124.485 129.292 127.244 118.033 119.993C112.317 116.312 107.81 111.01 105.078 104.753C104.648 103.786 104.287 102.789 104 101.769L111.757 96L114.019 99.4841L121.539 111.061L127.576 115.098C127.576 115.098 140.934 96 145 102.777Z" fill="#FDC2CC"/>
<path opacity="0.1" d="M114 99.5839C113.855 99.7902 113.602 99.8831 113.216 99.8253C109.529 99.2517 105.29 104.794 105.29 104.794C105.29 104.794 105.214 104.868 105.077 105C104.647 104.006 104.287 102.982 104 101.934L111.741 96L114 99.5839Z" fill="#000A2C"/>
<path opacity="0.1" d="M102.887 106.004C101.073 106.999 98.5753 107.712 96.6277 105.799C93.2636 102.488 87.3666 102.929 87 102.949C87.602 102.867 88.1352 101.649 88.5893 100.017L89.4892 98.5818C89.4892 98.5818 102.8 95.5473 102.993 103.339C103.016 104.228 102.98 105.119 102.887 106.004Z" fill="#000A2C"/>
<path opacity="0.1" d="M96 90L94.8052 98.0913L92.1128 103C90.4443 102.6 88.7189 102.449 87 102.551C88.8972 102.306 90.1229 91.2195 90.1229 91.2195L90.2321 91.1964L96 90Z" fill="#000A2C"/>
<path d="M113.032 99.4116C109.257 98.8471 104.915 104.302 104.915 104.302C104.915 104.302 99.8194 109.191 96.4214 105.806C93.1294 102.527 87.3588 102.963 87 102.984C88.8774 102.724 90.0902 91.037 90.0902 91.037L90.1982 91.0126L108.313 87C108.313 87 109.394 88.6489 110.613 90.7487C112.812 94.5318 115.462 99.7751 113.032 99.4116Z" fill="#E93A55"/>
<path opacity="0.1" d="M108.005 91.6357C108.184 91.9918 105.152 93.7745 103.727 93.2393C102.303 92.7041 98.7351 95.5495 98.3789 95.9133C98.0227 96.2771 90 95.3781 90 95.3781C90.3329 93.8696 90.5727 92.342 90.7181 90.804L107.828 87C107.828 87 108.849 88.5632 110 90.5538C108.935 90.9908 107.919 91.4605 108.005 91.6357Z" fill="#000A2C"/>
<path opacity="0.1" d="M98 77.2775L96.2322 90.0136L95.3993 96C92.9597 95.8189 90.0016 95.4937 90.0016 95.4937C90.0016 95.4937 93.0933 82.6894 88 76.0195C88 76.0195 88.108 76.0195 88.3025 76C91.1605 80.7089 98 77.2775 98 77.2775Z" fill="#000A2C"/>
<path d="M88 75.099C88 75.099 97.3748 74.3499 101.051 76.9736C104.727 79.5974 110.058 87.4727 110.058 87.4727L113 89.3474C113 89.3474 108.405 91.0338 108.59 91.4104C108.774 91.7869 105.648 93.6596 104.179 93.0968C102.71 92.534 99.0322 95.5262 98.6649 95.9088C98.2977 96.2915 90.0266 95.346 90.0266 95.346C90.0266 95.346 93.1469 82.0349 88 75.099Z" fill="#E93A55"/>
<path opacity="0.1" d="M98 127.765C90.7179 128.543 82.7327 128.138 82.7327 128.138L74.5386 130.353L51.4729 137C50.4685 135.71 49.6649 134.089 49 132.263L51.2861 129.615C58.4798 125.253 60.8301 119.801 61.1737 115C61.7884 119.775 61.8908 124.075 61.8908 124.075L71.1918 123.152L84.7054 119.962C85.636 119.742 86.5894 119.632 87.5459 119.633C89.3057 119.633 92.4375 119.671 95.7822 119.851C95.3363 121.647 96.4813 124.733 98 127.765Z" fill="#000A2C"/>
<path opacity="0.1" d="M107.544 125.392C103.283 130.326 81.4201 129.23 81.4201 129.23L73.267 131.423L50.2921 138C50.1921 137.872 50.092 137.741 50 137.605L103.467 122C106.88 122.679 108.975 123.737 107.544 125.392Z" fill="#000A2C"/>
<path d="M107.55 125.394C103.344 130.327 81.7625 129.232 81.7625 129.232L73.7143 131.422L51.0351 138C45.7026 131.094 45.8211 114.637 46.1114 107.98C46.1904 106.193 46.2793 105.112 46.2793 105.112C46.2793 105.112 53.9601 100.361 57.4362 105.112C58.0563 105.958 58.5758 107.142 59.0162 108.515C61.0327 114.847 61.2796 125.209 61.2796 125.209L70.4239 124.295L83.7099 121.139C84.6254 120.921 85.5634 120.812 86.5045 120.813C92.0109 120.829 111.161 121.16 107.55 125.394Z" fill="#FDC2CC"/>
<path opacity="0.1" d="M59 108.187C57.8238 107.949 56.3968 108.001 54.4623 108.766C50.5914 110.311 47.6439 109.968 47.6439 109.968C47.6439 109.968 47.8807 108.215 46 107.682C46.0796 106.002 46.1692 104.985 46.1692 104.985C46.1692 104.985 53.9091 100.519 57.4118 104.985C58.0308 105.781 58.5582 106.894 59 108.187Z" fill="#000A2C"/>
<path opacity="0.1" d="M82 108.159C81.8724 108.184 80.1583 108.491 76.8555 107.795C73.4252 107.073 72.0917 108.518 70.1862 109.243C68.2807 109.968 63.3358 110.329 61.4221 109.606C60.9714 109.434 60.5187 109.215 60.0393 109.02C59.5864 107.271 58.9011 105.585 58 104L79.934 104.098L81.9218 107.987L82 108.159Z" fill="#000A2C"/>
<path d="M82 107.7C82 107.7 80.3135 108.077 76.9386 107.323C73.5636 106.569 72.2517 108.077 70.377 108.833C68.5022 109.589 63.6271 109.966 61.7523 109.21C59.8776 108.454 58.0028 106.946 54.059 108.644C50.1151 110.341 47.1228 109.964 47.1228 109.964C47.1228 109.964 47.4974 106.944 43.5616 107.315C39.6259 107.686 37 105.805 37 105.805L41.1828 96.0789L42.438 93.1583L73.8066 91H73.9564L82 107.7Z" fill="#E93A55"/>
<path opacity="0.1" d="M77 98.9735C74.9798 95.429 64.3315 98.5802 64.3315 98.5802C64.3315 98.5802 59.1907 100.156 58.0884 97.2024C56.9861 94.249 49.1035 96.2094 49.1035 96.2094C49.1035 96.2094 43.3838 98.51 42 96.3029L43.2292 93.256L73.933 91L77 98.9735Z" fill="#000A2C"/>
<path d="M67.9825 76.7519C67.9825 76.7519 57.655 74.7384 52.7741 77.3012C47.8932 79.864 44.1378 85.5349 44.1378 85.5349L37 91.9389C37 91.9389 39.8166 93.2193 41.1306 95.4146C42.4446 97.6099 48.4549 95.4146 48.4549 95.4146C48.4549 95.4146 56.5296 93.5849 57.657 96.3295C58.7844 99.074 64.0425 97.6099 64.0425 97.6099C64.0425 97.6099 74.9337 94.6815 77 97.9754L67.9825 76.7519Z" fill="#E93A55"/>
<path opacity="0.1" d="M79.4368 29.3047C78.0573 29.0711 76.6378 28.8435 75.2703 29.1436C73.0152 29.637 71.2958 31.4799 70.0303 33.4214C68.7648 35.3629 67.7812 37.5179 66.2198 39.2278C65.1742 40.3738 63.8886 41.2942 62.957 42.5349C61.5855 44.3616 61.1077 46.6918 60.6659 48.9395C60.0181 52.2384 59.3684 55.5858 59.6543 58.9431C59.7982 60.6269 60.1781 62.2844 60.268 63.9782C60.45 67.3799 59.4523 70.7192 58.4687 73.9779C57.787 76.2295 57.0832 78.5235 55.7357 80.4469C54.8421 81.7218 53.6965 82.7892 52.6049 83.8949C52.3414 84.1204 52.1432 84.4133 52.0311 84.7428C51.7952 85.7055 52.9488 86.3541 53.8305 86.7891C56.5274 88.1445 58.2968 90.7889 60.394 92.9681C62.4912 95.1473 65.492 97.0183 68.3769 96.1442C69.2326 95.8844 70.0443 95.391 70.936 95.4071C71.5357 95.4172 72.1115 95.6629 72.6813 95.8643C74.0988 96.3657 75.5913 96.6178 77.0936 96.6095C77.4255 96.638 77.7584 96.568 78.0513 96.4081C78.4971 96.104 78.5831 95.4917 78.6271 94.9519C78.909 91.5643 79.1888 88.1647 78.9989 84.771C78.5691 77.0855 71.5198 68.1956 74.2007 60.9834C75.3663 57.8374 77.4975 55.1306 78.677 51.9907C79.9206 48.6817 84.3049 45.995 85.1746 42.5651C85.2725 42.1784 85.4065 41.7595 85.7424 41.5581C86.2042 41.2721 86.806 41.5218 87.2518 41.832C89.7748 43.5842 90.5965 46.8791 91.5142 49.8236C92.2537 52.1952 93.17 54.5072 94.2551 56.7398C94.8549 57.9482 96.1424 59.348 97.27 58.6149C96.7022 63.7063 93.4235 68.1533 92.6817 73.2206C91.958 78.159 93.7113 83.2061 93.0316 88.1486C92.5841 91.3307 91.1537 94.2901 88.9432 96.6075C91.4377 97.1067 94.0032 97.1299 96.5063 96.6759C99.0433 96.2147 101.758 95.0043 102.674 92.5754C103.674 89.9028 102.128 87.0348 101.342 84.2877C99.4572 77.6837 99.6031 69.8733 100.201 63.0276C100.817 55.9886 101.74 49.8256 100.175 42.9377C99.791 41.2479 99.4012 39.544 98.6655 37.9771C97.1181 34.6842 93.9353 32.3278 90.4466 31.498C88.6473 31.071 86.812 31.7336 85.1366 31.4195C84.2929 31.2603 83.5372 30.4467 82.7175 30.1164C81.6659 29.6834 80.5383 29.49 79.4368 29.3047Z" fill="#000A2C"/>
<path d="M102.671 91.6402C101.755 94.0339 99.0398 95.2268 96.5007 95.6814C93.9973 96.1278 91.4319 96.1049 88.9371 95.6139C91.1471 93.3297 92.5775 90.4133 93.0258 87.2775C93.7076 82.4047 91.9541 77.4306 92.6759 72.5657C93.4177 67.5699 96.6966 63.1873 97.2644 58.1696C96.1368 58.8921 94.8392 57.5185 94.2474 56.3217C93.1625 54.1213 92.2462 51.8428 91.5063 49.5057C90.5886 46.6038 89.7669 43.3526 87.2437 41.6298C86.7978 41.3241 86.196 41.078 85.7342 41.3618C85.3963 41.5603 85.2643 41.9791 85.1663 42.3543C84.2986 45.7285 79.9121 48.3803 78.6705 51.6414C77.4889 54.7358 75.3575 57.3975 74.1919 60.5038C71.5208 67.6096 78.5705 76.3707 78.9904 83.9449C79.1783 87.2894 78.8984 90.6418 78.6185 93.9784C78.5725 94.5123 78.4865 95.1157 78.0407 95.4154C77.7485 95.5728 77.4162 95.6418 77.085 95.6139C75.5868 95.6228 74.0982 95.3758 72.6844 94.8835C72.1146 94.685 71.5428 94.4428 70.939 94.4329C70.0473 94.419 69.2355 94.9053 68.3798 95.1594C65.4948 96.0208 62.4917 94.1768 60.3964 92.0292C58.3011 89.8816 56.5257 87.2795 53.8306 85.9516C52.9488 85.5149 51.7952 84.8838 52.0311 83.933C52.1441 83.6093 52.3422 83.3215 52.605 83.0994C53.6966 82.0097 54.8442 80.9557 55.7379 79.7013C57.0855 77.8058 57.7873 75.545 58.471 73.3259C59.4587 70.1144 60.4564 66.8236 60.2705 63.4711C60.1825 61.8098 59.8026 60.1763 59.6567 58.509C59.3688 55.2062 60.0205 51.9034 60.6683 48.6522C61.1082 46.4371 61.586 44.1406 62.9596 42.3404C63.8933 41.1177 65.1769 40.2106 66.2245 39.0812C67.788 37.3961 68.7677 35.2723 70.0353 33.3569C71.3029 31.4415 73.0223 29.6274 75.2776 29.1411C76.6431 28.8453 78.0647 29.0716 79.4442 29.2999C80.5459 29.4844 81.6735 29.675 82.7152 30.0938C83.5369 30.4193 84.2926 31.2232 85.1344 31.376C86.8098 31.6876 88.6512 31.0346 90.4446 31.4554C93.9335 32.2712 97.1165 34.5935 98.664 37.8387C98.9667 38.481 99.222 39.1444 99.4277 39.8236C99.7236 40.7763 99.9495 41.7509 100.173 42.7234C100.221 42.9219 100.267 43.1363 100.311 43.3407C101.681 49.8034 100.797 54.5095 100.199 61.2322C99.6016 67.9549 99.4557 76.9622 101.339 83.4626C102.125 86.1779 103.678 89.0063 102.671 91.6402Z" fill="#865A61"/>
<path opacity="0.05" d="M81 103C81 103 82.6841 105.946 82.6841 108C82.6841 108 83.9477 103 85 103" fill="#000A2C"/>
<path d="M76.5928 137H61.4072C60.63 137 60 137.56 60 138.251V138.749C60 139.44 60.63 140 61.4072 140H76.5928C77.37 140 78 139.44 78 138.749V138.251C78 137.56 77.37 137 76.5928 137Z" fill="#54576B"/>
<path opacity="0.1" d="M69.5 118C69.7761 118 70 117.776 70 117.5C70 117.224 69.7761 117 69.5 117C69.2239 117 69 117.224 69 117.5C69 117.776 69.2239 118 69.5 118Z" fill="#000A2C"/>
<path d="M153.818 34C153.071 34.0008 152.355 34.2935 151.826 34.8138C151.298 35.3341 151.001 36.0395 151 36.7754V56.9491C151.001 57.6849 151.298 58.3904 151.826 58.9107C152.355 59.431 153.071 59.7236 153.818 59.7245H155.905C156.365 59.725 156.805 59.9051 157.13 60.2252C157.456 60.5454 157.638 60.9795 157.639 61.4322V71.4662C157.639 71.5737 157.672 71.6788 157.734 71.7676C157.795 71.8563 157.883 71.9247 157.985 71.9637C158.086 72.0027 158.198 72.0105 158.304 71.9861C158.41 71.9617 158.507 71.9062 158.581 71.8269L169.331 60.2782C169.493 60.1039 169.691 59.9647 169.911 59.8694C170.131 59.7741 170.369 59.7247 170.609 59.7245L242.182 59.7246C242.929 59.7238 243.645 59.4311 244.174 58.9108C244.702 58.3905 244.999 57.6851 245 56.9492V36.7755C244.999 36.0397 244.702 35.3342 244.174 34.8139C243.645 34.2936 242.929 34.001 242.182 34.0001L153.818 34Z" fill="#571AFF"/>
<rect x="179" y="41" width="59" height="3" fill="white"/>
<rect x="179" y="48" width="40" height="3" fill="white"/>
<g clip-path="url(#clip0)">
<path d="M171.5 43.4726C171.5 41.9152 170.921 40.4216 169.889 39.3203C168.858 38.2191 167.459 37.6004 166 37.6004C164.541 37.6004 163.142 38.2191 162.111 39.3203C161.079 40.4216 160.5 41.9152 160.5 43.4726C160.5 50.3236 157.75 52.281 157.75 52.281H174.25C174.25 52.281 171.5 50.3236 171.5 43.4726Z" fill="white"/>
<path d="M168.2 54.4341C167.976 54.9104 167.656 55.3057 167.269 55.5806C166.883 55.8554 166.446 56 166 56C165.554 56 165.117 55.8554 164.731 55.5806C164.345 55.3057 164.024 54.9104 163.8 54.4341" fill="white"/>
</g>
<path d="M146.407 97.7501L141.744 101.406L144.202 103.735C144.523 103.444 146.789 100.416 147.434 99.272C148.079 98.1277 147.018 97.7806 146.407 97.7501Z" fill="#FDC2CC"/>
<path opacity="0.3" d="M132.5 109L134.5 106.5L140.5 107.5L132.5 109Z" fill="#525252"/>
<defs>
<linearGradient id="paint0_linear" x1="134.999" y1="155.006" x2="134.999" y2="27.9893" gradientUnits="userSpaceOnUse">
<stop stop-color="#808080" stop-opacity="0.25"/>
<stop offset="0.54" stop-color="#808080" stop-opacity="0.12"/>
<stop offset="1" stop-color="#808080" stop-opacity="0.1"/>
</linearGradient>
<clipPath id="clip0">
<rect width="22" height="19" fill="white" transform="translate(155 37)"/>
</clipPath>
</defs>
</svg>
