<svg width="262" height="162" fill="none" xmlns="http://www.w3.org/2000/svg"><path opacity=".1" d="M110.311 149.741c15.405-8.434 39.786-5.16 56.983-1.545 26.211-5.199 48.211 13.6 54.144-25.943 10.131-67.534-32.326-85.36-32.326-85.36s-28.234-2.338-44.93-11.245c-23.715-12.656-50.822-14.267-74.657-3.56-15.243 6.843-27.795 16.37-29.94 29.451-5.996 36.583 3.852 56.739-14.57 68.681-13.236 8.58 2.346 29.111 16.47 27.976 14.123-1.135 41.012-14.423 53.448 0 4.417 5.116 10.006 4.487 15.378 1.545Z" fill="#571AFF"/><path opacity=".1" d="M183 45h-63v4h63v-4Zm0 18h-63v5h63v-5Zm0 20h-63v5h63v-5Zm-53-50h-4v12h4V33Z" fill="#571AFF"/><path opacity=".1" d="M130 35h-4v1h4v-1Zm0 6h-4v1h4v-1Zm5-8h-3v12h3V33Z" fill="#571AFF"/><path opacity=".1" d="M135 35h-3v1h3v-1Zm0 6h-3v1h3v-1Zm6-8h-4v12h4V33Z" fill="#571AFF"/><path opacity=".1" d="M141 35h-4v1h4v-1Zm0 6h-4v1h4v-1Zm6-8h-4v12h4V33Z" fill="#571AFF"/><path opacity=".1" d="M147 35h-4v1h4v-1Zm0 6h-4v1h4v-1Zm6-8h-4v12h4V33Z" fill="#571AFF"/><path opacity=".1" d="M153 35h-4v1h4v-1Zm0 6h-4v1h4v-1Zm6-8h-4v12h4V33Z" fill="#571AFF"/><path opacity=".1" d="M159 35h-4v1h4v-1Zm0 6h-4v1h4v-1Zm6-8h-4v12h4V33Z" fill="#571AFF"/><path opacity=".1" d="M165 35h-4v1h4v-1Zm0 6h-4v1h4v-1Zm-1.975 30.506-3.562 1.781 5.091 10.126 3.562-1.782-5.091-10.125Z" fill="#571AFF"/><path opacity=".1" d="m163.83 73.106-3.562 1.781.357.71 3.562-1.78-.357-.711Zm2.767 5.507-3.562 1.782.357.71 3.562-1.781-.357-.71ZM130 52h-4v12h4V52Z" fill="#571AFF"/><path opacity=".1" d="M130 54h-4v1h4v-1Zm0 6h-4v1h4v-1Zm5-8h-3v12h3V52Z" fill="#571AFF"/><path opacity=".1" d="M135 54h-3v1h3v-1Zm0 6h-3v1h3v-1Zm6-8h-4v12h4V52Z" fill="#571AFF"/><path opacity=".1" d="M141 54h-4v1h4v-1Zm0 6h-4v1h4v-1Zm25-8h-4v12h4V52Z" fill="#571AFF"/><path opacity=".1" d="M166 54h-4v1h4v-1Zm0 6h-4v1h4v-1Zm6-8h-4v12h4V52Z" fill="#571AFF"/><path opacity=".1" d="M172 54h-4v1h4v-1Zm0 6h-4v1h4v-1Zm6-8h-4v12h4V52Z" fill="#571AFF"/><path opacity=".1" d="M178 54h-4v1h4v-1Zm0 6h-4v1h4v-1Zm-48 12h-4v11h4V72Z" fill="#571AFF"/><path opacity=".1" d="M130 80h-4v1h4v-1Zm5-8h-3v11h3V72Z" fill="#571AFF"/><path opacity=".1" d="M135 80h-3v1h3v-1Zm6-8h-4v11h4V72Z" fill="#571AFF"/><path opacity=".1" d="M141 80h-4v1h4v-1Zm6-8h-4v11h4V72Z" fill="#571AFF"/><path opacity=".1" d="M147 80h-4v1h4v-1Zm6-8h-4v11h4V72Z" fill="#571AFF"/><path opacity=".1" d="M153 80h-4v1h4v-1Zm6-8h-4v11h4V72Z" fill="#571AFF"/><path opacity=".1" d="M159 80h-4v1h4v-1Zm12-45.248V45h-4V34c1.339.233 2.672.484 4 .752Z" fill="#571AFF"/><path opacity=".1" d="M171 35h-4v1h4v-1Zm0 6h-4v1h4v-1Zm6-5.036V45h-4V35c.52.114 1.038.235 1.556.357.819.193 1.633.395 2.444.607Z" fill="#571AFF"/><path opacity=".1" d="M177 35.75V36h-4v-1h1.556a80.09 80.09 0 0 1 2.444.75Zm0 5.25h-4v1h4v-1Z" fill="#571AFF"/><g opacity=".1" fill="#571AFF"><path opacity=".1" d="M149.523 59.538s-1.207-.409-1.793.654c-.153.288-.231.61-.227.935.005.326.092.646.253.93.382.687 1.169 1.589 2.66 1.502 1.265-.068 1.685-1.03 1.793-1.926a1.987 1.987 0 0 0-1.638-2.2 1.997 1.997 0 0 0-.996.081l-.052.024Z"/><path opacity=".1" d="M148.019 62.154a1.941 1.941 0 0 1-.253-.929 1.942 1.942 0 0 1 .227-.935c.582-1.062 1.793-.654 1.793-.654l.062-.022a1.97 1.97 0 0 1 1.42.032 1.97 1.97 0 0 0-1.675-.16l-.062.023s-1.207-.41-1.793.653a1.941 1.941 0 0 0 .026 1.864 2.89 2.89 0 0 0 1.367 1.29 2.98 2.98 0 0 1-1.112-1.162Z"/><path opacity=".2" d="M148.9 60.049s.448.352 1.536 0H148.9Z"/><path opacity=".1" d="M148.802 57.495s.767 2.075.703 2.618l.608-.064s-1.024-1.818-.767-2.553h-.544Z"/><path opacity=".2" d="M148.802 57.495s.767 2.075.703 2.618l.608-.064s-1.024-1.818-.767-2.553h-.544Z"/><path opacity=".1" d="M151.938 57.67s-1.21-.616-1.75-.107-.623 1.81-.623 1.81 1.97.267 2.373-1.703Z"/><path opacity=".1" d="M151.938 57.67s-1.21-.616-1.75-.107-.623 1.81-.623 1.81 1.97.267 2.373-1.703Z"/><path opacity=".1" d="M149.563 59.373s.317-1.51 2.373-1.705l-2.373 1.706Z"/></g><g opacity=".1" fill="#571AFF"><path opacity=".1" d="M175.025 79.212s-1.207-.41-1.793.654a1.93 1.93 0 0 0 .026 1.864c.383.688 1.17 1.59 2.66 1.502 1.265-.067 1.685-1.03 1.793-1.925a1.987 1.987 0 0 0-1.638-2.2 1.996 1.996 0 0 0-.996.081l-.052.024Z"/><path opacity=".1" d="M173.521 81.827a1.929 1.929 0 0 1-.026-1.864c.582-1.06 1.793-.653 1.793-.653l.062-.022a1.972 1.972 0 0 1 1.421.032 1.978 1.978 0 0 0-1.676-.16l-.062.022s-1.207-.409-1.793.654a1.941 1.941 0 0 0 .026 1.864c.299.57.78 1.023 1.367 1.29a2.98 2.98 0 0 1-1.112-1.163Z"/><path opacity=".2" d="M174.402 79.723s.448.352 1.536 0h-1.536Z"/><path opacity=".1" d="M174.304 77.17s.767 2.074.703 2.616l.608-.063s-1.024-1.819-.767-2.554h-.544Z"/><path opacity=".2" d="M174.304 77.17s.767 2.074.703 2.616l.608-.063s-1.024-1.819-.767-2.554h-.544Z"/><path opacity=".1" d="M177.44 77.344s-1.209-.616-1.749-.107-.624 1.81-.624 1.81 1.97.267 2.373-1.703Z"/><path opacity=".1" d="M177.44 77.344s-1.209-.616-1.749-.107-.624 1.81-.624 1.81 1.97.267 2.373-1.703Z"/><path opacity=".1" d="M175.065 79.047s.317-1.51 2.373-1.705l-2.373 1.705Z"/></g><path opacity=".1" d="M215.5 140c5.799 0 10.5-1.791 10.5-4s-4.701-4-10.5-4-10.5 1.791-10.5 4 4.701 4 10.5 4Zm-27-11c5.799 0 10.5-1.791 10.5-4s-4.701-4-10.5-4-10.5 1.791-10.5 4 4.701 4 10.5 4Z" fill="#000A2C"/><path d="m243.623 145.074-61.749-32.602h-12.949l3.35-27.757a4.583 4.583 0 0 0-.983-3.427 4.612 4.612 0 0 0-3.147-1.7l-.347.014h-.034l-47.106.713a5.1 5.1 0 0 0-3.375.975 5.058 5.058 0 0 0-1.933 2.921l-2.194 15.951-.317-.483-.154-.232c1.159-.75-1.126-5.21-3.063-8.535l-.175-.302a60.05 60.05 0 0 1 2.592-.992l-3.021-1.878s-2.78-4.005-5.739-7.254c1.994-12.43-2.218-26.797-2.268-26.995l-.111.03a5.922 5.922 0 0 0 .889-3.136 5.935 5.935 0 0 0-2.018-4.462 34.11 34.11 0 0 0-.53-3.313c-.044-.199-.09-.419-.14-.63-.228-.992-.457-1.984-.758-2.957a14.84 14.84 0 0 0-.776-2.026c-1.573-3.31-4.81-5.675-8.356-6.509-1.824-.428-3.695.236-5.398-.081-.858-.157-1.625-.977-2.461-1.308-1.059-.421-2.206-.617-3.326-.794-1.396-.232-2.846-.463-4.236-.16-2.294.495-4.042 2.345-5.329 4.298-1.286 1.954-2.285 4.117-3.874 5.836-1.063 1.151-2.372 2.076-3.319 3.323-1.396 1.834-1.88 4.168-2.33 6.435-.554 2.788-1.108 5.617-1.096 8.45 0 .656.01 1.315.068 1.974.145 1.691.532 3.359.624 5.052 0 .182.014.365.018.548-.02 3.098-.94 6.153-1.853 9.13a53.518 53.518 0 0 1-.931 2.834c-1.835.155-3.59.52-4.928 1.239-4.89 2.604-8.653 8.412-8.653 8.412l-7.153 6.55s2.824 1.312 4.142 3.56c.047.08.101.155.161.225l-.103.238-4.2 9.655s2.636 1.874 6.58 1.498a4.946 4.946 0 0 1 1.915.139c0 .12-.012.241-.016.368-.24 5.524-.368 17.627 2.503 25.803l-6.49 7.543-12.962 3.821L26 155h218l-.377-9.926ZM56.665 108.065a7.972 7.972 0 0 1 1.618.513v6.899c-.343-2.437-.82-4.934-1.484-7.011-.042-.135-.08-.268-.134-.401Zm37.43 13.277v-.071c.008-.241.04-.48.098-.715.08-.363.261-.697.52-.964.481-.479.978-.993 1.474-1.551a7.21 7.21 0 0 0 1.304 2.146c.639.709 2.064 1.346 4.067 1.921a74.102 74.102 0 0 0-7.463-.766Zm16.275-.952-6.517 1.919c-3.081-.687-5.273-1.473-6.084-2.382a6.945 6.945 0 0 1-1.3-2.215c2.325-2.684 4.586-6.294 5.105-11.225.014-.129.024-.262.035-.397a12.962 12.962 0 0 0 1.995-1.389l.117.274a34.919 34.919 0 0 0 7.309 10.635l-.66 4.78Zm-9.66-66.58c.513 1.84 3.989 14.867 2.246 26.322-1.085-1.163-2.18-2.203-3.161-2.888a6.139 6.139 0 0 0-.728-.43 67.877 67.877 0 0 1-.333-6.436c.02-2.671.18-5.321.399-7.842.237-2.672.516-5.22.69-7.727.332-.299.629-.634.887-.998Z" fill="url(#a)"/><path d="M97.805 57H96V45h1.805c1.377 0 2.699.526 3.673 1.463A4.897 4.897 0 0 1 103 49.995v1.998a4.811 4.811 0 0 1-.392 1.915 4.988 4.988 0 0 1-1.125 1.625 5.216 5.216 0 0 1-1.687 1.086 5.376 5.376 0 0 1-1.992.381Z" fill="#DFE6F5"/><path d="M96.25 57h.5c.69 0 1.25-.55 1.25-1.227v-9.546A1.24 1.24 0 0 0 96.75 45h-.5c-.69 0-1.25.55-1.25 1.227v9.546c0 .677.56 1.227 1.25 1.227Z" fill="#37384D"/><g opacity=".1" fill="#000A2C"><path opacity=".1" d="M97.939 56.901h-1.7V45.176h1.7a4.9 4.9 0 0 1 3.46 1.43 4.877 4.877 0 0 1 1.433 3.451v1.952a4.865 4.865 0 0 1-1.429 3.459 4.883 4.883 0 0 1-3.464 1.433Z"/><path opacity=".1" d="M95.998 56.901h.482a1.2 1.2 0 0 0 1.202-1.198v-9.318a1.2 1.2 0 0 0-1.202-1.199h-.482a1.2 1.2 0 0 0-1.201 1.199v9.318a1.2 1.2 0 0 0 1.201 1.198Z"/></g><path d="M99 51H69v31h30V51Z" fill="#865A61"/><path opacity=".1" d="M99 47H69v31h30V47Z" fill="#000A2C"/><path d="m98 77.057-1.815 13.044-.855 6.13-.315 2.252-2.636 5.082-4.84 9.326L78.2 114 61.776 91.094s-8.6-16.253 4.475-14.777c7.331.83 9.076-5.66 9.207-11.522A43.107 43.107 0 0 0 74.65 56l13.073 6.28a47.15 47.15 0 0 0-.686 3.86c-.637 4.798-.108 7.79.997 9.603C90.977 80.57 98 77.057 98 77.057Z" fill="#FDC2CC"/><path opacity=".1" d="M88 62.447a49.83 49.83 0 0 0-.682 3.963c-1.348.392-2.744.59-4.146.59a14.72 14.72 0 0 1-7.37-1.968A45.693 45.693 0 0 0 75 56l13 6.447Z" fill="#000A2C"/><path d="M83 66c8.284 0 15-6.716 15-15 0-8.284-6.716-15-15-15-8.284 0-15 6.716-15 15 0 8.284 6.716 15 15 15Z" fill="#FDC2CC"/><path d="M102.995 136.199 41 141l10.052-11.622c10.785-6.53 10.693-15.507 9.26-21.075a21.552 21.552 0 0 0-2-5.122l21.428.1h.18l1.762 3.966.08.179 1.31 2.951 4.468-7.933 1.554-2.482.868-1.395s12.846-2.952 13.031 4.612c.023.869-.012 1.738-.102 2.602-.639 6.088-4 10.136-6.785 12.895-3.164 3.134 6.889 17.523 6.889 17.523Z" fill="#E93A55"/><path d="M95.621 119.762c-.452 1.804.69 4.905 2.202 7.95-7.256.782-15.212.375-15.212.375l-8.165 2.229L51.465 137c-1-1.297-1.801-2.927-2.464-4.763l2.278-2.662c7.168-4.387 9.51-9.869 9.852-14.697a20.68 20.68 0 0 0-.633-6.513 21.825 21.825 0 0 0-1.99-5.15l21.336.1h.18l1.753 3.992.08.18 1.306 2.969 4.447-7.983 1.543-2.498.865-1.403s12.79-2.975 12.976 4.643a20.08 20.08 0 0 1-.102 2.618c-.636 6.126-3.983 10.2-6.755 12.976a2.01 2.01 0 0 0-.514.953Z" fill="#E93A55"/><path d="M242 144H29l21.323-6.281 53.308-15.704L137.624 112h43.783L242 144Zm-212.448 0L29 154h213l-.367-10H29.553Z" fill="#CBCDDA"/><path opacity=".1" d="M29.552 144 29 154h213l-.367-10H29.553Z" fill="#000A2C"/><path d="M145 102.777c-1.742 9.974-15.101 21.708-15.101 21.708s-.607 2.759-11.866-4.492a34.57 34.57 0 0 1-12.955-15.24 22.031 22.031 0 0 1-1.078-2.984L111.757 96l2.262 3.484 7.52 11.577 6.037 4.037S140.934 96 145 102.777Z" fill="#FDC2CC"/><path opacity=".1" d="M114 99.584c-.145.206-.398.3-.784.241-3.687-.573-7.926 4.969-7.926 4.969l-.213.206c-.43-.994-.79-2.018-1.077-3.066L111.741 96 114 99.584Zm-11.113 6.42c-1.814.995-4.312 1.708-6.26-.205-3.363-3.311-9.26-2.87-9.627-2.85.602-.082 1.135-1.3 1.59-2.932l.9-1.435s13.31-3.035 13.503 4.757a20.45 20.45 0 0 1-.106 2.665Z" fill="#000A2C"/><path opacity=".1" d="m96 90-1.195 8.091L92.113 103a17.5 17.5 0 0 0-5.113-.449c1.897-.245 3.123-11.332 3.123-11.332l.11-.023L96 90Z" fill="#000A2C"/><path d="M113.032 99.412c-3.775-.565-8.117 4.89-8.117 4.89s-5.096 4.889-8.494 1.504c-3.292-3.279-9.062-2.843-9.421-2.822 1.877-.26 3.09-11.947 3.09-11.947l.108-.024L108.313 87s1.081 1.649 2.3 3.749c2.199 3.783 4.849 9.026 2.419 8.663Z" fill="#E93A55"/><path opacity=".1" d="M108.005 91.636c.179.356-2.853 2.139-4.278 1.603-1.424-.535-4.992 2.31-5.348 2.674-.356.364-8.379-.535-8.379-.535a37.57 37.57 0 0 0 .718-4.574L107.828 87s1.021 1.563 2.172 3.554c-1.065.437-2.081.906-1.995 1.082Z" fill="#000A2C"/><path opacity=".1" d="m98 77.278-1.768 12.736L95.4 96c-2.44-.181-5.397-.506-5.397-.506S93.093 82.689 88 76.019c0 0 .108 0 .302-.019C91.16 80.709 98 77.278 98 77.278Z" fill="#000A2C"/><path d="M88 75.099s9.375-.75 13.051 1.875c3.676 2.623 9.007 10.499 9.007 10.499L113 89.347s-4.595 1.687-4.41 2.063c.184.377-2.942 2.25-4.411 1.687-1.469-.563-5.147 2.43-5.514 2.812-.367.382-8.638-.563-8.638-.563S93.147 82.035 88 75.099Z" fill="#E93A55"/><path opacity=".1" d="M98 127.765c-7.282.778-15.267.373-15.267.373l-8.194 2.215L51.473 137c-1.005-1.29-1.808-2.911-2.473-4.737l2.286-2.648c7.194-4.362 9.544-9.814 9.888-14.615.614 4.775.717 9.075.717 9.075l9.3-.923 13.514-3.19c.931-.22 1.884-.33 2.84-.329 1.76 0 4.892.038 8.237.218-.446 1.796.7 4.882 2.218 7.914Z" fill="#000A2C"/><path opacity=".1" d="M107.544 125.392c-4.261 4.934-26.124 3.838-26.124 3.838l-8.153 2.193L50.292 138a7.19 7.19 0 0 1-.292-.395L103.467 122c3.413.679 5.508 1.737 4.077 3.392Z" fill="#000A2C"/><path d="M107.55 125.394c-4.206 4.933-25.787 3.838-25.787 3.838l-8.049 2.19L51.035 138c-5.332-6.906-5.214-23.363-4.924-30.02.08-1.787.168-2.868.168-2.868s7.681-4.751 11.157 0c.62.846 1.14 2.03 1.58 3.403 2.017 6.332 2.264 16.694 2.264 16.694l9.144-.914 13.286-3.156a12.009 12.009 0 0 1 2.794-.326c5.507.016 24.657.347 21.046 4.581Z" fill="#FDC2CC"/><path opacity=".1" d="M59 108.187c-1.176-.238-2.603-.186-4.538.579-3.87 1.545-6.818 1.202-6.818 1.202s.237-1.753-1.644-2.286c.08-1.68.17-2.697.17-2.697s7.74-4.466 11.242 0c.619.796 1.146 1.909 1.588 3.202Zm23-.028c-.128.025-1.842.332-5.144-.364-3.43-.722-4.764.723-6.67 1.448-1.905.725-6.85 1.086-8.764.363-.45-.172-.903-.391-1.383-.586A20.607 20.607 0 0 0 58 104l21.934.098 1.988 3.889.078.172Z" fill="#000A2C"/><path d="M82 107.7s-1.686.377-5.061-.377-4.687.754-6.562 1.51-6.75 1.133-8.625.377c-1.874-.756-3.75-2.264-7.693-.566-3.944 1.697-6.936 1.32-6.936 1.32s.374-3.02-3.561-2.649c-3.936.371-6.562-1.51-6.562-1.51l4.183-9.726 1.255-2.92L73.807 91h.15L82 107.7Z" fill="#E93A55"/><path opacity=".1" d="M77 98.974c-2.02-3.545-12.668-.394-12.668-.394s-5.141 1.576-6.244-1.378c-1.102-2.953-8.985-.993-8.985-.993s-5.72 2.301-7.103.094l1.23-3.047L73.932 91 77 98.974Z" fill="#000A2C"/><path d="M67.983 76.752s-10.328-2.014-15.209.55c-4.88 2.562-8.636 8.233-8.636 8.233L37 91.939s2.817 1.28 4.13 3.476c1.315 2.195 7.325 0 7.325 0s8.075-1.83 9.202.914c1.127 2.745 6.386 1.28 6.386 1.28s10.89-2.927 12.957.366l-9.017-21.223Z" fill="#E93A55"/><path opacity=".1" d="M79.437 29.305c-1.38-.234-2.8-.462-4.167-.161-2.255.493-3.974 2.336-5.24 4.277-1.265 1.942-2.249 4.097-3.81 5.807-1.046 1.146-2.331 2.066-3.263 3.307-1.371 1.827-1.85 4.157-2.291 6.405-.648 3.298-1.298 6.646-1.012 10.003.144 1.684.524 3.341.614 5.035.182 3.402-.816 6.741-1.8 10-.681 2.252-1.385 4.546-2.732 6.469-.894 1.275-2.04 2.342-3.131 3.448a1.937 1.937 0 0 0-.574.848c-.236.963.918 1.611 1.8 2.046 2.696 1.355 4.466 4 6.563 6.18 2.097 2.178 5.098 4.05 7.983 3.175.856-.26 1.667-.753 2.559-.737.6.01 1.175.256 1.745.457 1.418.502 2.91.754 4.413.745.332.029.664-.041.957-.2.446-.305.532-.917.576-1.457.282-3.388.562-6.787.372-10.181-.43-7.686-7.48-16.575-4.798-23.788 1.165-3.146 3.297-5.852 4.476-8.992 1.244-3.31 5.628-5.996 6.498-9.426.097-.387.231-.805.567-1.007.462-.286 1.064-.036 1.51.274 2.523 1.752 3.345 5.047 4.262 7.992a49.597 49.597 0 0 0 2.741 6.916c.6 1.208 1.887 2.608 3.015 1.875-.568 5.091-3.846 9.538-4.588 14.606-.724 4.938 1.03 9.985.35 14.928a15.352 15.352 0 0 1-4.089 8.459c2.495.499 5.06.522 7.563.068 2.537-.461 5.252-1.672 6.168-4.1 1-2.673-.546-5.541-1.332-8.288-1.885-6.604-1.739-14.415-1.141-21.26.616-7.04 1.539-13.202-.026-20.09-.384-1.69-.774-3.394-1.51-4.96-1.547-3.294-4.73-5.65-8.218-6.48-1.8-.427-3.635.236-5.31-.079-.844-.159-1.6-.972-2.42-1.303-1.051-.433-2.179-.626-3.28-.811Z" fill="#000A2C"/><path d="M102.671 91.64c-.916 2.394-3.631 3.587-6.17 4.041a20.52 20.52 0 0 1-7.564-.067c2.21-2.284 3.64-5.2 4.089-8.337.682-4.872-1.072-9.846-.35-14.711.742-4.996 4.02-9.379 4.588-14.396-1.127.722-2.425-.651-3.017-1.848a48.55 48.55 0 0 1-2.74-6.816c-.918-2.902-1.74-6.153-4.263-7.876-.446-.306-1.048-.552-1.51-.268-.338.198-.47.617-.568.992-.867 3.374-5.254 6.026-6.495 9.287-1.182 3.095-3.314 5.757-4.48 8.863-2.67 7.106 4.38 15.867 4.8 23.44.187 3.345-.093 6.698-.373 10.034-.045.534-.131 1.138-.577 1.437a1.713 1.713 0 0 1-.956.199 13.146 13.146 0 0 1-4.4-.73c-.57-.199-1.142-.441-1.746-.451-.892-.014-1.703.472-2.56.726-2.884.862-5.887-.982-7.983-3.13-2.095-2.147-3.87-4.75-6.565-6.077-.882-.437-2.036-1.068-1.8-2.019a1.92 1.92 0 0 1 .574-.834c1.092-1.09 2.24-2.143 3.133-3.398 1.348-1.895 2.05-4.156 2.733-6.375.988-3.212 1.985-6.502 1.8-9.855-.089-1.661-.468-3.295-.614-4.962-.288-3.303.364-6.606 1.011-9.857.44-2.215.918-4.511 2.292-6.312.933-1.222 2.217-2.13 3.265-3.259 1.563-1.685 2.543-3.809 3.81-5.724 1.268-1.915 2.987-3.73 5.243-4.216 1.365-.296 2.787-.07 4.166.159 1.102.184 2.23.375 3.271.794.822.325 1.578 1.13 2.42 1.282 1.675.312 3.516-.341 5.31.08 3.489.815 6.672 3.137 8.219 6.383.303.642.558 1.305.764 1.985.296.952.522 1.927.745 2.9.048.198.094.412.138.617 1.37 6.462.486 11.169-.112 17.891-.597 6.723-.743 15.73 1.14 22.23.786 2.716 2.339 5.544 1.332 8.178Z" fill="#865A61"/><path opacity=".05" d="M81 103s1.684 2.946 1.684 5c0 0 1.264-5 2.316-5" fill="#000A2C"/><path d="M76.593 137H61.407c-.777 0-1.407.56-1.407 1.251v.498c0 .691.63 1.251 1.407 1.251h15.186c.777 0 1.407-.56 1.407-1.251v-.498c0-.691-.63-1.251-1.407-1.251Z" fill="#54576B"/><path opacity=".1" d="M69.5 118a.5.5 0 1 0 0-1 .5.5 0 0 0 0 1Z" fill="#000A2C"/><path d="M153.818 34c-.747 0-1.463.294-1.992.814a2.759 2.759 0 0 0-.826 1.961V56.95a2.76 2.76 0 0 0 .826 1.962c.529.52 1.245.813 1.992.813h2.087c.46.001.9.181 1.225.501.326.32.508.755.509 1.207v10.034a.537.537 0 0 0 .346.498.548.548 0 0 0 .596-.137l10.75-11.549a1.761 1.761 0 0 1 1.278-.554h71.573c.747 0 1.463-.293 1.992-.813A2.76 2.76 0 0 0 245 56.95V36.776a2.76 2.76 0 0 0-.826-1.962 2.846 2.846 0 0 0-1.992-.814h-88.364Z" fill="#571AFF"/><path fill="#fff" d="M179 41h59v3h-59zm0 7h40v3h-40z"/><g clip-path="url(#b)" fill="#fff"><path d="M171.5 43.473c0-1.558-.579-3.051-1.611-4.153-1.031-1.1-2.43-1.72-3.889-1.72-1.459 0-2.858.62-3.889 1.72-1.032 1.102-1.611 2.595-1.611 4.153 0 6.85-2.75 8.808-2.75 8.808h16.5s-2.75-1.957-2.75-8.808Zm-3.3 10.961a2.914 2.914 0 0 1-.931 1.147A2.18 2.18 0 0 1 166 56a2.18 2.18 0 0 1-1.269-.42 2.922 2.922 0 0 1-.931-1.146"/></g><path d="m146.407 97.75-4.663 3.656 2.458 2.329c.321-.291 2.587-3.319 3.232-4.463.645-1.144-.416-1.491-1.027-1.522Z" fill="#FDC2CC"/><path opacity=".3" d="m132.5 109 2-2.5 6 1-8 1.5Z" fill="#525252"/><defs><linearGradient id="a" x1="134.999" y1="155.006" x2="134.999" y2="27.989" gradientUnits="userSpaceOnUse"><stop stop-color="gray" stop-opacity=".25"/><stop offset=".54" stop-color="gray" stop-opacity=".12"/><stop offset="1" stop-color="gray" stop-opacity=".1"/></linearGradient><clipPath id="b"><path fill="#fff" transform="translate(155 37)" d="M0 0h22v19H0z"/></clipPath></defs></svg>