<svg width="306" height="160" fill="none" xmlns="http://www.w3.org/2000/svg"><g clip-path="url(#a)"><g opacity=".1"><path opacity=".1" d="M133.91 104.957c1.75 0 3.168-1.857 3.168-4.148 0-2.29-1.418-4.147-3.168-4.147-1.75 0-3.168 1.857-3.168 4.147 0 2.291 1.418 4.148 3.168 4.148Z" fill="#571AFF"/><path opacity=".1" d="M136.418 83.062a5.01 5.01 0 0 0 .662-2.536c0-2.29-1.419-4.148-3.17-4.148s-3.179 1.863-3.179 4.154a5.01 5.01 0 0 0 .662 2.536 5.184 5.184 0 0 0 0 5.07 5.184 5.184 0 0 0 0 5.069 5 5 0 0 0-.662 2.536c0 2.288 1.419 4.148 3.168 4.148 1.748 0 3.17-1.86 3.17-4.148a5 5 0 0 0-.662-2.536 5.184 5.184 0 0 0 0-5.07 5.184 5.184 0 0 0 0-5.07l.011-.005Z" fill="#571AFF"/><path opacity=".1" d="M133.91 79.61c1.75 0 3.168-1.857 3.168-4.148 0-2.29-1.418-4.148-3.168-4.148-1.75 0-3.168 1.858-3.168 4.148 0 2.291 1.418 4.148 3.168 4.148Z" fill="#571AFF"/><path opacity=".1" d="M133.91 74.54c1.75 0 3.168-1.856 3.168-4.147 0-2.29-1.418-4.148-3.168-4.148-1.75 0-3.168 1.857-3.168 4.148 0 2.29 1.418 4.148 3.168 4.148Z" fill="#571AFF"/><path opacity=".1" d="M122.051 35.698a14.75 14.75 0 0 1-1.18-1.738l8.323-1.367-9.002.067a15.207 15.207 0 0 1-.278-12.026l12.078 6.267-11.135-8.19a15.176 15.176 0 0 1 15.962-7.42 15.182 15.182 0 0 1 9.091 24.401 15.178 15.178 0 0 1 1.732 2.767l-10.809 5.63 11.521-3.868a15.182 15.182 0 0 1-2.447 14.254 15.18 15.18 0 0 1 1.724 16.015 15.175 15.175 0 0 1-27.303 0 15.17 15.17 0 0 1 1.723-16.015 15.181 15.181 0 0 1 0-18.77v-.007Z" fill="#F4ED0F"/><path opacity=".1" d="M149.156 45.082a15.108 15.108 0 0 1-3.249 9.384 15.18 15.18 0 0 1 1.724 16.015 15.17 15.17 0 0 1-13.652 8.547 15.175 15.175 0 0 1-15.089-16.802 15.18 15.18 0 0 1 3.161-7.76c-2.035-2.583 27.105-11.088 27.105-9.384Z" fill="#571AFF"/></g><g opacity=".1"><path opacity=".1" d="M170.893 95.038c1.309 0 2.369-1.387 2.369-3.098 0-1.711-1.06-3.098-2.369-3.098-1.308 0-2.369 1.387-2.369 3.098 0 1.711 1.061 3.099 2.369 3.099Z" fill="#571AFF"/><path opacity=".1" d="M172.764 78.68a3.75 3.75 0 0 0 .493-1.893c0-1.712-1.061-3.1-2.366-3.1-1.306 0-2.369 1.391-2.369 3.1a3.718 3.718 0 0 0 .495 1.893 3.867 3.867 0 0 0 0 3.79 3.867 3.867 0 0 0 0 3.788 3.717 3.717 0 0 0-.495 1.893c0 1.712 1.06 3.101 2.369 3.101 1.308 0 2.366-1.391 2.366-3.1a3.749 3.749 0 0 0-.493-1.894 3.9 3.9 0 0 0 0-3.789 3.9 3.9 0 0 0 0-3.788Z" fill="#571AFF"/><path opacity=".1" d="M170.893 76.097c1.309 0 2.369-1.387 2.369-3.098 0-1.712-1.06-3.099-2.369-3.099-1.308 0-2.369 1.387-2.369 3.099 0 1.71 1.061 3.098 2.369 3.098Z" fill="#571AFF"/><path opacity=".1" d="M170.893 72.308c1.309 0 2.369-1.387 2.369-3.098 0-1.711-1.06-3.099-2.369-3.099-1.308 0-2.369 1.388-2.369 3.099 0 1.711 1.061 3.098 2.369 3.098Z" fill="#571AFF"/><path opacity=".1" d="M162.03 43.284c-.325-.411-.62-.844-.883-1.298l6.222-1.021-6.728.05a11.354 11.354 0 0 1-.217-8.99l9.027 4.686-8.326-6.125a11.34 11.34 0 0 1 11.911-5.485 11.348 11.348 0 0 1 7.501 5.084 11.336 11.336 0 0 1 1.385 8.954 11.331 11.331 0 0 1-2.066 4.142 11.48 11.48 0 0 1 1.295 2.068l-8.073 4.196 8.61-2.89a11.349 11.349 0 0 1-1.829 10.65 11.339 11.339 0 0 1 1.296 11.971 11.35 11.35 0 0 1-10.204 6.39 11.337 11.337 0 0 1-10.203-6.39 11.346 11.346 0 0 1 1.296-11.97 11.34 11.34 0 0 1 0-14.025l-.014.003Z" fill="#F4ED0F"/><path opacity=".1" d="M182.284 50.296a11.292 11.292 0 0 1-2.427 7.013 11.347 11.347 0 0 1 1.295 11.97 11.34 11.34 0 0 1-21.478-6.171 11.347 11.347 0 0 1 2.367-5.8c-1.525-1.928 20.243-8.284 20.243-7.012Z" fill="#571AFF"/></g><g opacity=".1"><path opacity=".1" d="M289.561 93.822c1.75 0 3.168-1.857 3.168-4.148 0-2.29-1.418-4.148-3.168-4.148-1.749 0-3.167 1.857-3.167 4.148 0 2.29 1.418 4.148 3.167 4.148Z" fill="#571AFF"/><path opacity=".1" d="M287.053 71.927a5.01 5.01 0 0 1-.662-2.536c0-2.291 1.42-4.148 3.17-4.148 1.751 0 3.168 1.857 3.168 4.148a5.01 5.01 0 0 1-.662 2.536 5.184 5.184 0 0 1 0 5.07 5.184 5.184 0 0 1 0 5.069 5 5 0 0 1 .662 2.536c0 2.288-1.419 4.148-3.168 4.148-1.748 0-3.17-1.86-3.17-4.148a5 5 0 0 1 .662-2.536 5.184 5.184 0 0 1 0-5.07 5.184 5.184 0 0 1 0-5.07Z" fill="#571AFF"/><path opacity=".1" d="M289.561 68.475c1.75 0 3.168-1.857 3.168-4.148 0-2.291-1.418-4.148-3.168-4.148-1.749 0-3.167 1.857-3.167 4.148 0 2.29 1.418 4.148 3.167 4.148Z" fill="#571AFF"/><path opacity=".1" d="M289.561 63.405c1.75 0 3.168-1.857 3.168-4.148 0-2.29-1.418-4.148-3.168-4.148-1.749 0-3.167 1.858-3.167 4.148 0 2.291 1.418 4.148 3.167 4.148Z" fill="#571AFF"/><path opacity=".1" d="M301.419 24.562c.435-.55.829-1.13 1.181-1.737l-8.323-1.367 9.002.067a15.207 15.207 0 0 0 .278-12.026l-12.078 6.266 11.135-8.19a15.189 15.189 0 0 0-9.749-7.279 15.179 15.179 0 0 0-15.304 24.26 15.178 15.178 0 0 0-1.732 2.768l10.809 5.629-11.521-3.867a15.179 15.179 0 0 0 2.446 14.253 15.18 15.18 0 0 0 11.928 24.562 15.173 15.173 0 0 0 13.652-8.547 15.18 15.18 0 0 0-1.724-16.015 15.176 15.176 0 0 0 0-18.769v-.008Z" fill="#F4ED0F"/><path opacity=".1" d="M274.314 33.947a15.114 15.114 0 0 0 3.249 9.384 15.179 15.179 0 0 0 3.875 22.249 15.175 15.175 0 0 0 23.142-14.49 15.17 15.17 0 0 0-3.161-7.76c2.035-2.583-27.105-11.087-27.105-9.383Z" fill="#571AFF"/></g><g opacity=".1"><path opacity=".1" d="M258.98 93.368c1.309 0 2.369-1.387 2.369-3.098 0-1.712-1.06-3.099-2.369-3.099-1.308 0-2.369 1.387-2.369 3.099 0 1.71 1.061 3.098 2.369 3.098Z" fill="#571AFF"/><path opacity=".1" d="M257.109 77.01a3.749 3.749 0 0 1-.493-1.893c0-1.712 1.061-3.101 2.367-3.101 1.305 0 2.368 1.392 2.368 3.101a3.708 3.708 0 0 1-.495 1.893 3.868 3.868 0 0 1 0 3.789 3.867 3.867 0 0 1 0 3.789c.331.575.503 1.229.495 1.893 0 1.712-1.06 3.101-2.368 3.101-1.309 0-2.367-1.392-2.367-3.101a3.75 3.75 0 0 1 .493-1.893 3.9 3.9 0 0 1 0-3.789 3.9 3.9 0 0 1 0-3.789Z" fill="#571AFF"/><path opacity=".1" d="M258.98 74.427c1.309 0 2.369-1.388 2.369-3.099 0-1.71-1.06-3.098-2.369-3.098-1.308 0-2.369 1.387-2.369 3.098 0 1.712 1.061 3.099 2.369 3.099Z" fill="#571AFF"/><path opacity=".1" d="M258.98 70.638c1.309 0 2.369-1.387 2.369-3.099 0-1.71-1.06-3.098-2.369-3.098-1.308 0-2.369 1.387-2.369 3.098 0 1.712 1.061 3.099 2.369 3.099Z" fill="#571AFF"/><path opacity=".1" d="M267.843 41.613c.325-.41.62-.844.882-1.297l-6.221-1.022 6.728.05a11.354 11.354 0 0 0 .217-8.989l-9.027 4.686 8.326-6.125a11.354 11.354 0 0 0-7.284-5.39 11.346 11.346 0 0 0-12.128 4.988 11.335 11.335 0 0 0-1.385 8.955 11.331 11.331 0 0 0 2.066 4.142 11.476 11.476 0 0 0-1.295 2.068l8.073 4.195-8.593-2.887a11.347 11.347 0 0 0 1.828 10.651 11.347 11.347 0 0 0-1.295 11.97A11.335 11.335 0 0 0 258.938 74a11.344 11.344 0 0 0 10.203-6.39 11.337 11.337 0 0 0-1.295-11.97 11.345 11.345 0 0 0 0-14.026h-.003Z" fill="#F4ED0F"/><path opacity=".1" d="M247.59 48.626a11.292 11.292 0 0 0 2.427 7.012 11.338 11.338 0 0 0-1.295 11.97 11.34 11.34 0 1 0 19.11-11.97c1.526-1.929-20.242-8.284-20.242-7.012Z" fill="#571AFF"/></g><g opacity=".1"><path opacity=".1" d="M17.6 93.822c1.75 0 3.168-1.857 3.168-4.148 0-2.29-1.418-4.148-3.168-4.148-1.75 0-3.167 1.857-3.167 4.148 0 2.29 1.418 4.148 3.167 4.148Z" fill="#571AFF"/><path opacity=".1" d="M20.105 71.927c.442-.772.67-1.647.663-2.536 0-2.291-1.42-4.148-3.168-4.148-1.748 0-3.168 1.857-3.168 4.148a5.01 5.01 0 0 0 .66 2.536 5.197 5.197 0 0 0 0 5.07 5.197 5.197 0 0 0 0 5.069 4.992 4.992 0 0 0-.66 2.536c0 2.288 1.417 4.148 3.168 4.148 1.75 0 3.176-1.854 3.176-4.143a4.994 4.994 0 0 0-.663-2.536 5.18 5.18 0 0 0 0-5.07 5.18 5.18 0 0 0 0-5.069l-.008-.005Z" fill="#571AFF"/><path opacity=".1" d="M17.6 68.475c1.75 0 3.168-1.857 3.168-4.148 0-2.291-1.418-4.148-3.168-4.148-1.75 0-3.167 1.857-3.167 4.148 0 2.29 1.418 4.148 3.167 4.148Z" fill="#571AFF"/><path opacity=".1" d="M17.6 63.405c1.75 0 3.168-1.857 3.168-4.148 0-2.29-1.418-4.148-3.168-4.148-1.75 0-3.167 1.858-3.167 4.148 0 2.291 1.418 4.148 3.167 4.148Z" fill="#571AFF"/><path opacity=".1" d="M5.745 24.562a15.125 15.125 0 0 1-1.18-1.737l8.325-1.367-9.01.08A15.206 15.206 0 0 1 3.6 9.513l12.081 6.267L4.547 7.59A15.177 15.177 0 1 1 29.6 24.57a15.19 15.19 0 0 1 1.732 2.768L20.52 32.953l11.525-3.867a15.199 15.199 0 0 1-2.45 14.253A15.178 15.178 0 0 1 9.614 65.59a15.177 15.177 0 0 1-3.875-22.25 15.178 15.178 0 0 1 0-18.769l.006-.008Z" fill="#F4ED0F"/><path opacity=".1" d="M32.843 33.947a15.109 15.109 0 0 1-3.248 9.384 15.179 15.179 0 0 1-11.928 24.562A15.175 15.175 0 0 1 2.577 51.09a15.178 15.178 0 0 1 3.162-7.76c-2.035-2.584 27.104-11.088 27.104-9.385Z" fill="#571AFF"/></g><g opacity=".1"><path opacity=".1" d="M48.178 93.368c1.309 0 2.37-1.387 2.37-3.098 0-1.712-1.061-3.099-2.37-3.099-1.308 0-2.368 1.387-2.368 3.099 0 1.71 1.06 3.098 2.368 3.098Z" fill="#571AFF"/><path opacity=".1" d="M50.051 77.01c.33-.576.5-1.23.493-1.893 0-1.712-1.058-3.101-2.366-3.101-1.309 0-2.37 1.392-2.37 3.101a3.74 3.74 0 0 0 .496 1.893 3.87 3.87 0 0 0 0 3.789 3.87 3.87 0 0 0 0 3.789 3.74 3.74 0 0 0-.495 1.893c0 1.712 1.06 3.101 2.369 3.101 1.308 0 2.366-1.392 2.366-3.101a3.739 3.739 0 0 0-.493-1.893 3.897 3.897 0 0 0 0-3.789 3.897 3.897 0 0 0 0-3.789Z" fill="#571AFF"/><path opacity=".1" d="M48.178 74.427c1.309 0 2.37-1.388 2.37-3.099 0-1.71-1.061-3.098-2.37-3.098-1.308 0-2.368 1.387-2.368 3.098 0 1.712 1.06 3.099 2.368 3.099Z" fill="#571AFF"/><path opacity=".1" d="M48.178 70.638c1.309 0 2.37-1.387 2.37-3.099 0-1.71-1.061-3.098-2.37-3.098-1.308 0-2.368 1.387-2.368 3.098 0 1.712 1.06 3.099 2.368 3.099Z" fill="#571AFF"/><path opacity=".1" d="M39.315 41.613a11.212 11.212 0 0 1-.883-1.297l6.222-1.022-6.728.05a11.37 11.37 0 0 1-.217-8.989l9.027 4.686-8.326-6.125a11.344 11.344 0 1 1 18.732 12.695c.505.64.94 1.333 1.294 2.068l-8.073 4.195 8.61-2.89a11.347 11.347 0 0 1-1.829 10.652 11.342 11.342 0 1 1-17.815 0 11.342 11.342 0 0 1 0-14.026l-.014.003Z" fill="#F4ED0F"/><path opacity=".1" d="M59.57 48.626a11.294 11.294 0 0 1-2.428 7.012 11.342 11.342 0 1 1-17.816 0c-1.53-1.929 20.243-8.284 20.243-7.012Z" fill="#571AFF"/></g><path opacity=".1" d="M153 139.747c84.248 0 152.545-1.104 152.545-2.466s-68.297-2.467-152.545-2.467c-84.248 0-152.545 1.105-152.545 2.467s68.297 2.466 152.545 2.466ZM153 160c84.248 0 152.545-1.104 152.545-2.466 0-1.363-68.297-2.467-152.545-2.467-84.248 0-152.545 1.104-152.545 2.467C.455 158.896 68.752 160 153 160Zm0-62.52c84.248 0 152.545-1.104 152.545-2.467 0-1.362-68.297-2.466-152.545-2.466C68.752 92.547.455 93.65.455 95.013c0 1.363 68.297 2.467 152.545 2.467Zm0 21.132c84.248 0 152.545-1.104 152.545-2.466s-68.297-2.467-152.545-2.467c-84.248 0-152.545 1.105-152.545 2.467s68.297 2.466 152.545 2.466Zm72.595-87.886a5.095 5.095 0 0 0-2.951.323 4.355 4.355 0 0 1-3.546 0 4.979 4.979 0 0 0-4.176.08 2.57 2.57 0 0 1-1.199.3c-1.693 0-3.099-1.703-3.391-3.95a3.31 3.31 0 0 0 .835-.91c.991-1.598 2.525-2.625 4.251-2.625 1.726 0 3.24 1.013 4.231 2.595a3.251 3.251 0 0 0 2.809 1.542h.044c1.361-.014 2.528 1.066 3.093 2.645Z" fill="#F4ED0F"/><path opacity=".1" d="m230.748 23.669-2.733 1.731 1.67-3.018a2.704 2.704 0 0 0-1.654-.587h-.044a3.155 3.155 0 0 1-.557-.042l-.941.588.398-.724a3.282 3.282 0 0 1-1.623-1.23l-1.67 1.052 1.047-1.905c-.969-1.163-2.277-1.876-3.714-1.876-1.726 0-3.259 1.025-4.253 2.622a3.178 3.178 0 0 1-2.809 1.515h-.092c-1.904 0-3.446 2.157-3.446 4.819 0 2.661 1.542 4.822 3.446 4.822.419-.003.83-.106 1.2-.301a4.973 4.973 0 0 1 4.176-.084 4.326 4.326 0 0 0 3.546 0 4.986 4.986 0 0 1 4.136.081c.367.192.773.293 1.186.295 1.904 0 3.447-2.16 3.447-4.822a6.11 6.11 0 0 0-.716-2.936ZM109.369 29.22a3.576 3.576 0 0 0-2.069.225 3.036 3.036 0 0 1-2.48 0 3.473 3.473 0 0 0-2.92.058 1.84 1.84 0 0 1-.835.21c-1.183 0-2.169-1.192-2.375-2.765.237-.173.438-.39.593-.638.694-1.113 1.768-1.837 2.976-1.837s2.269.71 2.962 1.815a2.28 2.28 0 0 0 1.968 1.08h.031c.935-.005 1.75.752 2.149 1.852Z" fill="#F4ED0F"/><path opacity=".1" d="m112.973 24.284-1.912 1.213 1.161-2.113a1.881 1.881 0 0 0-1.156-.412h-.033a2.076 2.076 0 0 1-.395-.03l-.649.412.278-.507a2.31 2.31 0 0 1-1.135-.86l-1.161.735.735-1.33a3.402 3.402 0 0 0-2.6-1.318c-1.208 0-2.283.719-2.976 1.838a2.228 2.228 0 0 1-1.968 1.06h-.064c-1.333 0-2.413 1.51-2.413 3.374 0 1.866 1.08 3.375 2.413 3.375a1.81 1.81 0 0 0 .835-.212 3.478 3.478 0 0 1 2.917-.056c.393.18.819.274 1.25.279a3.06 3.06 0 0 0 1.233-.262 3.496 3.496 0 0 1 2.895.056c.258.135.545.205.836.206 1.33 0 2.41-1.512 2.41-3.374a4.27 4.27 0 0 0-.501-2.074ZM75.5 51.048a3.568 3.568 0 0 1 2.066.225 3.045 3.045 0 0 0 2.483 0 3.484 3.484 0 0 1 2.92.056 1.8 1.8 0 0 0 .835.212c1.183 0 2.168-1.195 2.371-2.768a2.268 2.268 0 0 1-.59-.637c-.696-1.114-1.77-1.835-2.975-1.835-1.206 0-2.27.707-2.965 1.815a2.28 2.28 0 0 1-1.965 1.08h-.031c-.938.006-1.757.76-2.149 1.852Z" fill="#F4ED0F"/><path opacity=".1" d="m71.892 46.12 1.915 1.214-1.164-2.11a1.89 1.89 0 0 1 1.158-.415h.031a2.31 2.31 0 0 0 .398-.028l.649.41-.279-.504c.46-.16.856-.462 1.133-.86l1.161.734-.724-1.333a3.397 3.397 0 0 1 2.6-1.314c1.206 0 2.283.718 2.976 1.837a2.227 2.227 0 0 0 1.965 1.06h.067c1.33 0 2.41 1.513 2.41 3.375s-1.08 3.374-2.41 3.374a1.806 1.806 0 0 1-.835-.209 3.474 3.474 0 0 0-2.92-.058c-.391.18-.816.275-1.247.278a3.06 3.06 0 0 1-1.236-.261 3.485 3.485 0 0 0-2.892.055 1.804 1.804 0 0 1-.835.206c-1.334 0-2.414-1.509-2.414-3.374a4.3 4.3 0 0 1 .493-2.077Z" fill="#F4ED0F"/><path d="M185.377 136.482c.726-1.348-.098-2.996-1.044-4.195-.947-1.2-2.105-2.45-2.08-3.979.037-2.196 2.369-3.496 4.231-4.66a20.669 20.669 0 0 0 3.8-3.062 5.6 5.6 0 0 0 1.167-1.565c.386-.857.375-1.837.35-2.783a194.218 194.218 0 0 0-.465-9.399" stroke="#571AFF" stroke-width="4" stroke-miterlimit="10"/><path d="M194.88 106.683a3.43 3.43 0 0 0-1.712-2.809l-.768 1.518.025-1.838a3.43 3.43 0 0 0-3.804 1.364 3.43 3.43 0 0 0 .14 4.039 3.426 3.426 0 0 0 6.119-2.274Zm-6.113 23.196a3.424 3.424 0 0 1-5.657.653 3.426 3.426 0 0 1-.812-2.045c-.026-.475.05-.949.223-1.392a3.429 3.429 0 0 1 6.402.036l-2.141 1.743 2.355-.557a3.407 3.407 0 0 1-.37 1.562Zm-1.693-6.654a3.424 3.424 0 0 1-3.544-2.877 3.426 3.426 0 0 1 2.459-3.846l-.02 1.411.777-1.536a3.43 3.43 0 0 1 2.694 5.732 3.426 3.426 0 0 1-2.374 1.116h.008Zm8.322-5.537a3.428 3.428 0 1 1 1.514-6.403l-.604 1.67 1.233-1.219a3.422 3.422 0 0 1 .906 3.693 3.427 3.427 0 0 1-3.061 2.256l.012.003Z" fill="#F4ED0F"/><path opacity=".1" d="M194.418 107.596c-.79.087-1.558.332-2.355.382-.796.05-1.67-.142-2.165-.757a11.14 11.14 0 0 1-.635-1.114 2.437 2.437 0 0 0-.863-.813 3.429 3.429 0 0 0 1.904 4.787 3.41 3.41 0 0 0 1.434.186c.486-.04.958-.184 1.383-.422a3.438 3.438 0 0 0 1.682-2.274 5.04 5.04 0 0 0-.385.025Zm.977 10.092a3.421 3.421 0 0 1-3.013-1.522 3.426 3.426 0 0 1-.246-3.366c.271.183.505.418.687.69.205.39.432.768.68 1.133.534.626 1.447.835 2.274.793.827-.041 1.625-.278 2.449-.348.115 0 .229-.016.346-.019a3.43 3.43 0 0 1-3.177 2.639Zm-8.321 5.537a3.425 3.425 0 0 1-3.573-3.12 3.417 3.417 0 0 1 .286-1.704c.282.186.529.421.726.696.225.399.473.785.744 1.155.576.643 1.55.871 2.424.835.874-.036 1.67-.225 2.505-.278a3.431 3.431 0 0 1-3.112 2.416Zm1.693 6.654a3.424 3.424 0 0 1-5.657.653 3.426 3.426 0 0 1-.812-2.045c-.026-.475.05-.949.223-1.392.282.185.535.411.751.671.326.395.54.835.919 1.216.698.688 1.831.972 2.836.997.582.002 1.163-.032 1.74-.1Z" fill="#571AFF"/><path d="M15.573 116.438c.726-1.347-.098-2.995-1.044-4.195-.946-1.2-2.104-2.456-2.08-3.978.037-2.197 2.37-3.497 4.232-4.661a20.68 20.68 0 0 0 3.8-3.062 5.6 5.6 0 0 0 1.166-1.564c.387-.858.376-1.838.35-2.784a201.35 201.35 0 0 0-.464-9.399" stroke="#571AFF" stroke-width="4" stroke-miterlimit="10"/><path d="M25.076 86.64a3.427 3.427 0 0 0-1.712-2.81l-.768 1.518.025-1.838a3.427 3.427 0 1 0 2.455 3.13Zm-6.113 23.195a3.426 3.426 0 0 1-6.246-2.784 3.434 3.434 0 0 1 3.213-2.182 3.43 3.43 0 0 1 3.19 2.218l-2.141 1.743 2.355-.557a3.409 3.409 0 0 1-.37 1.562Zm-1.692-6.654a3.422 3.422 0 0 1-3.544-2.877 3.427 3.427 0 0 1 2.459-3.846l-.02 1.412.777-1.537a3.427 3.427 0 1 1 .32 6.848h.008Zm8.321-5.537a3.425 3.425 0 0 1-3.512-4.211 3.427 3.427 0 0 1 5.026-2.192l-.604 1.67 1.233-1.219a3.427 3.427 0 0 1-2.154 5.95l.01.002Z" fill="#F4ED0F"/><path opacity=".1" d="M24.615 87.553c-.79.086-1.56.33-2.355.381-.797.05-1.67-.142-2.166-.757-.233-.359-.445-.73-.635-1.114a2.438 2.438 0 0 0-.863-.813A3.427 3.427 0 1 0 25 87.528a4.537 4.537 0 0 0-.384.025Zm.977 10.091a3.426 3.426 0 0 1-3.26-4.888c.272.183.505.418.688.69.204.39.431.769.679 1.133.534.627 1.447.835 2.274.794.827-.042 1.626-.279 2.45-.349.114 0 .228-.016.345-.019a3.427 3.427 0 0 1-3.176 2.64Zm-8.32 5.537a3.42 3.42 0 0 1-3.574-3.12 3.428 3.428 0 0 1 .286-1.704c.283.186.529.422.727.696.224.4.472.785.743 1.155.576.643 1.55.871 2.424.835.875-.036 1.67-.225 2.506-.278a3.434 3.434 0 0 1-3.112 2.416Zm1.691 6.654a3.43 3.43 0 0 1-3.768 1.782 3.423 3.423 0 0 1-2.478-4.566c.282.185.535.411.751.671.326.395.54.835.919 1.216.699.688 1.832.972 2.837.997.581.002 1.162-.032 1.74-.1Z" fill="#571AFF"/><path d="M128.649 93.507c-.727-1.344.097-2.992 1.046-4.192.949-1.2 2.102-2.45 2.077-3.978-.034-2.2-2.366-3.497-4.231-4.66a20.584 20.584 0 0 1-3.797-3.063 5.485 5.485 0 0 1-1.169-1.562c-.385-.86-.373-1.837-.351-2.783.083-3.135.238-6.268.465-9.399" stroke="#571AFF" stroke-width="4" stroke-miterlimit="10"/><path d="M119.148 63.712a3.43 3.43 0 0 1 1.709-2.81l.769 1.518-.023-1.837a3.424 3.424 0 0 1 4.192 2.124 3.434 3.434 0 0 1-.916 3.695 3.42 3.42 0 0 1-3.764.57 3.43 3.43 0 0 1-1.967-3.26Zm6.11 23.195a3.427 3.427 0 1 0-.165-2.76l2.141 1.744-2.355-.557a3.402 3.402 0 0 0 .379 1.573Zm1.692-6.654a3.426 3.426 0 0 0 1.089-6.723l.016 1.412-.776-1.537a3.429 3.429 0 0 0-3.591 3.254c-.02.396.03.791.147 1.17a3.426 3.426 0 0 0 3.115 2.424Zm-8.317-5.543a3.425 3.425 0 0 0 3.508-4.212 3.42 3.42 0 0 0-1.965-2.351 3.427 3.427 0 0 0-3.06.16l.606 1.671-1.247-1.194a3.407 3.407 0 0 0-1.027 3.31 3.424 3.424 0 0 0 3.185 2.617Z" fill="#F4ED0F"/><path opacity=".1" d="M119.61 64.625c.79.086 1.559.33 2.352.381.793.05 1.67-.142 2.168-.757.233-.359.444-.73.632-1.114.218-.338.515-.617.866-.813a3.43 3.43 0 0 1-1.904 4.79 3.427 3.427 0 0 1-4.498-2.515c.125.003.253.014.384.028Zm-.977 10.085a3.43 3.43 0 0 0 3.26-4.888 2.531 2.531 0 0 0-.69.69c-.205.39-.432.77-.68 1.134-.531.626-1.444.835-2.271.793-.827-.042-1.626-.278-2.45-.348-.114 0-.231-.017-.345-.02a3.42 3.42 0 0 0 3.176 2.64Zm8.317 5.543a3.427 3.427 0 0 0 3.576-3.12 3.43 3.43 0 0 0-.288-1.704 2.72 2.72 0 0 0-.724.696c-.225.4-.473.785-.743 1.155-.579.643-1.551.871-2.428.835-.877-.036-1.67-.225-2.505-.278a3.427 3.427 0 0 0 3.112 2.416Zm-1.692 6.654a3.424 3.424 0 0 0 4.436 1.552 3.427 3.427 0 0 0 1.813-4.336c-.283.184-.537.41-.751.67-.326.396-.557.836-.919 1.217-.702.688-1.832.972-2.839.997-.582 0-1.163-.033-1.74-.1Z" fill="#571AFF"/><path d="M217.506 94.134c15.368 0 27.826-12.46 27.826-27.828 0-15.369-12.458-27.827-27.826-27.827-15.367 0-27.825 12.458-27.825 27.827 0 15.369 12.458 27.828 27.825 27.828Z" fill="#571AFF"/><path d="M229.45 73.483c-.968-.969-3.298-2.43-4.454-2.976-1.333-.64-1.823-.63-2.767.053-.785.557-1.294 1.094-2.196.896-.902-.197-2.689-1.545-4.418-3.268-1.728-1.723-3.07-3.5-3.262-4.415-.192-.916.337-1.414.899-2.2.679-.943.699-1.433.053-2.767-.557-1.155-2.001-3.48-2.979-4.454-.977-.974-1.188-.76-1.723-.557-.55.231-1.078.51-1.578.836-.969.648-1.511 1.188-1.893 2.001-.381.813-.813 2.322 1.406 6.272a34.985 34.985 0 0 0 6.152 8.204 35.042 35.042 0 0 0 8.231 6.164c3.947 2.227 5.459 1.784 6.272 1.406.813-.379 1.353-.916 1.998-1.893.326-.5.606-1.028.835-1.579.184-.534.401-.752-.576-1.723Z" fill="#F4ED0F"/><path opacity=".1" d="M217.506 38.481a27.836 27.836 0 0 0-27.317 33.267 27.84 27.84 0 0 0 37.962 20.29 27.84 27.84 0 0 0-10.645-53.557Zm0 51.953a24.126 24.126 0 0 1-17.06-41.189 24.125 24.125 0 0 1 39.349 26.294 24.123 24.123 0 0 1-22.289 14.895Z" fill="#571AFF"/><path d="M153.578 136.401c15.368 0 27.826-12.459 27.826-27.827 0-15.37-12.458-27.828-27.826-27.828-15.367 0-27.825 12.459-27.825 27.828 0 15.368 12.458 27.827 27.825 27.827Z" fill="#571AFF"/><path d="m169.404 100.166-8.331 8.477a.143.143 0 0 0-.034.05.152.152 0 0 0 .034.167l5.846 6.217c.139.141.234.32.273.514.038.195.018.397-.057.581a1.007 1.007 0 0 1-1.639.327l-5.815-6.194a.16.16 0 0 0-.223 0l-1.417 1.431a6.223 6.223 0 0 1-6.913 1.367 6.365 6.365 0 0 1-2.072-1.42l-1.361-1.392a.16.16 0 0 0-.223 0l-5.801 6.18a1.005 1.005 0 1 1-1.423-1.422l5.824-6.203a.169.169 0 0 0 0-.217l-8.332-8.477a.15.15 0 0 0-.167-.033.153.153 0 0 0-.094.142v16.962a2.482 2.482 0 0 0 2.474 2.475h27.244a2.482 2.482 0 0 0 2.475-2.475v-16.948a.147.147 0 0 0-.025-.089.149.149 0 0 0-.163-.067.156.156 0 0 0-.08.047Z" fill="#F4ED0F"/><path d="M153.579 111.597a4.226 4.226 0 0 0 3.04-1.253l12.134-12.352a2.423 2.423 0 0 0-1.531-.557h-27.263a2.404 2.404 0 0 0-1.531.557l12.137 12.352a4.197 4.197 0 0 0 3.014 1.253Z" fill="#F4ED0F"/><path opacity=".1" d="M153.228 80.749a27.836 27.836 0 0 0-27.316 33.266 27.838 27.838 0 1 0 27.316-33.266Zm0 51.952a24.124 24.124 0 0 1-23.662-28.835 24.13 24.13 0 0 1 18.956-18.957 24.123 24.123 0 0 1 28.832 23.665 24.127 24.127 0 0 1-24.126 24.127Z" fill="#571AFF"/><path d="M87.542 115.62c15.368 0 27.826-12.459 27.826-27.828S102.91 59.964 87.542 59.964c-15.367 0-27.825 12.46-27.825 27.828 0 15.369 12.458 27.828 27.825 27.828Z" fill="#571AFF"/><path opacity=".1" d="M87.542 59.956a27.836 27.836 0 0 0-27.317 33.261 27.84 27.84 0 0 0 21.867 21.881 27.843 27.843 0 0 0 28.58-11.835 27.838 27.838 0 0 0-23.13-43.307Zm0 51.953a24.124 24.124 0 0 1-22.29-14.898 24.13 24.13 0 0 1 17.592-32.896 24.125 24.125 0 0 1 28.824 23.68 24.128 24.128 0 0 1-24.126 24.125v-.011Z" fill="#571AFF"/><path d="M220.067 122.838a101.45 101.45 0 0 0-.777-1.843 5.466 5.466 0 0 0-.949-1.639 1.73 1.73 0 0 0-.557-.418 2.373 2.373 0 0 0-.726-.145 5.736 5.736 0 0 0-1.142-.03 5.704 5.704 0 0 1-.478-.17 3.98 3.98 0 0 0 2.961-3.689v-.17a3.955 3.955 0 0 0-1.15-2.81 3.97 3.97 0 0 0-2.8-1.173 3.886 3.886 0 0 0-2.073.593 3.722 3.722 0 0 0-4.176 2.012 4.617 4.617 0 0 0-1.42 3.424v.176c.073 2.163 1.47 3.897 3.235 4.073-.189.084-.362.2-.512.342-.54.521-.629 1.347-.688 2.099l-.042.557-.935.334a.172.172 0 0 0-.1.231.17.17 0 0 0 .058.072l.894.638v.159c0 .052 0 .119.017.181a1.281 1.281 0 0 0-.346.492 2.272 2.272 0 0 0-.08.902l.033.777a6.09 6.09 0 0 0 .237 1.729c.117.345.623 1.177.988 1.183-.337 1.531-.426 4.76-.426 4.76-.042.042.075.081.278.114.201 1.537.855 5.847 2.016 7.742.183.618.328 1.247.437 1.882 0 0 .331 4.095.768 5.312.373 1.035.668 3.591.749 4.332a.419.419 0 0 0-.309.317c-.22.662-1.645 1.67-1.645 1.67-.437.219-.85.483-1.231.788-.448.404-.431.768 1.559.54 3.842-.442 4.499-1.67 4.499-1.67s-.062-.206-.153-.473a5.17 5.17 0 0 0-.504-1.189c-.056-.053-.112.036-.178.175a23.824 23.824 0 0 1-.262-5.375s.108-1.882-.44-3.21a6.082 6.082 0 0 1 0-2.102c.22-.885-.877-5.203-.877-5.203l-.629-3.179a.912.912 0 0 1 .176.37l.016.064.017.092a.177.177 0 0 0 .044.086c.429 1.782 1.604 6.718 1.604 7.441 0 .886 1.097 3.099 1.097 3.099s.437 3.652 1.205 5.089c.585 1.094.598 2.697.571 3.405 0 0-.131.91-.351 1.13a2.67 2.67 0 0 0-.415.721l-.025.053s-.328.665-.109.776a5.393 5.393 0 0 0 2.634.332s.44-.557.44-.774a3.512 3.512 0 0 0-.05-.396 53.762 53.762 0 0 0-.234-1.355c.092-.357-.279-1.348-.279-1.348l-.111-3.098a14.314 14.314 0 0 0-.768-6.2s-.557-1.99-.437-2.544c.119-.554-.22-6.42-.22-6.42l-.034-.083a6.397 6.397 0 0 1 .034-1.245c.108-1.328-.329-4.095-.44-4.203a3.662 3.662 0 0 1-.156-.916c.025-.231.1-.908.203-1.749a31.553 31.553 0 0 0 3.235-.278c.104 0 .203-.04.278-.111a.386.386 0 0 0 .064-.226c.128-1.667-.481-3.288-1.113-4.83Zm-2.208 3.511c.114-.794.237-1.562.359-2.133l.017.05c.211.574.388 1.16.529 1.754a5.93 5.93 0 0 1-.905.329Z" fill="url(#b)"/><path d="M209.333 135.31s.657 5.91 2.079 8.207c.183.61.329 1.231.437 1.859 0 0 .329 4.048.766 5.251.437 1.202.765 4.487.765 4.487s1.531 1.749 2.08.329a23.04 23.04 0 0 1-.329-5.69s.109-1.86-.437-3.174a5.94 5.94 0 0 1 0-2.077c.217-.877-.877-5.142-.877-5.142l-.874-4.267-3.61.217Z" fill="#BE6F72"/><path d="M216.225 156.537s-.657 1.202-4.485 1.64c-1.987.225-2.001-.134-1.553-.535a6.9 6.9 0 0 1 1.225-.779s1.422-.983 1.639-1.64c.218-.657.986-.109.986-.109 1.094 1.64 1.314-.44 1.531-.22.218.368.387.762.504 1.172.092.265.153.471.153.471Z" fill="#FF6F61"/><path opacity=".1" d="M216.225 156.537s-.657 1.202-4.485 1.64c-1.987.225-2.001-.134-1.553-.535.312.198.941.278 2.207-.231a47.38 47.38 0 0 1 3.678-1.345c.092.265.153.471.153.471Zm-1.093-6.784s.108-1.86-.437-3.174a5.94 5.94 0 0 1 0-2.077c.217-.877-.877-5.142-.877-5.142l-.874-4.267-.757.044.865 4.223s1.094 4.265.877 5.142a5.94 5.94 0 0 0 0 2.077c.557 1.314.437 3.174.437 3.174a23.04 23.04 0 0 0 .329 5.69.963.963 0 0 1-.318.451c.407.184.835.175 1.083-.451a23.04 23.04 0 0 1-.328-5.69Z" fill="#571AFF"/><path d="M214.419 111.296a3.898 3.898 0 0 0-2.066.588 3.719 3.719 0 0 0-4.175 1.99 4.52 4.52 0 0 0-1.417 3.385c0 2.328 1.567 4.212 3.499 4.212 1.392 0 2.611-.991 3.17-2.424.322.085.653.128.986.128a3.94 3.94 0 0 0 0-7.879h.003Z" fill="#571AFF"/><path d="m217.647 135.858.329.874s.328 5.799.217 6.348c-.111.548.44 2.505.44 2.505.707 1.959.969 4.052.765 6.125l.109 3.062s.437 1.203.22 1.422c-.217.22-1.868-.194-1.868-.194s.22-2.297-.557-3.72c-.776-1.422-1.202-5.033-1.202-5.033s-1.094-2.188-1.094-3.062c0-.874-1.751-7.987-1.751-7.987l4.392-.34Z" fill="#BE6F72"/><path d="M209.113 135.75s.111-3.939.557-5.142c.226-.562.39-1.147.487-1.746 0 0 6.622 1.198 7.17.76 0 0 .109 1.532.22 1.64.112.109.557 2.845.437 4.159-.119 1.314 0 1.311 0 1.311s-4.487.657-4.595 0c-.109-.657-.437-.654-.437-.654s-4.056-.122-3.839-.328Z" fill="#571AFF"/><path opacity=".1" d="M212.724 135.75s-2.767-.075-3.602-.226v.226c-.217.217 3.83.328 3.83.328a.284.284 0 0 1 .15.061c-.147-.389-.378-.389-.378-.389Zm4.816-4.488c-.111-.108-.22-1.64-.22-1.64a.462.462 0 0 1-.187.067c.039.462.115 1.172.187 1.245.072.072.557 2.845.437 4.159-.12 1.314 0 1.311 0 1.311s-3.549.521-4.409.173c0 .047.025.1.033.155.109.657 4.596 0 4.596 0s-.111 0 0-1.311-.329-4.048-.437-4.159Z" fill="#571AFF"/><path d="M213.934 118.189c.094.211.237.396.418.54.116.086.25.144.392.17-.245.142-.512.248-.757.39-.385.259-.757.537-1.114.835a2.26 2.26 0 0 1-1.277.495 1.567 1.567 0 0 0 .178-1.556 1.45 1.45 0 0 1-.195-.54c0-.314.278-.557.537-.724.209-.142.423-.278.641-.414.169-.106.425-.329.64-.321.214.009.239.198.278.393.055.254.142.5.259.732Z" fill="#BE6F72"/><path opacity=".1" d="M213.934 118.189c.094.211.237.396.418.54.116.086.25.144.392.17-.245.142-.512.248-.757.39-.385.259-.757.537-1.114.835a2.26 2.26 0 0 1-1.277.495 1.567 1.567 0 0 0 .178-1.556 1.45 1.45 0 0 1-.195-.54c0-.314.278-.557.537-.724.209-.142.423-.278.641-.414.169-.106.425-.329.64-.321.214.009.239.198.278.393.055.254.142.5.259.732Z" fill="#571AFF"/><path d="M216.498 124.645a2.516 2.516 0 1 0 0-5.033 2.516 2.516 0 0 0 0 5.033Z" fill="#BE6F72"/><path d="M220.053 157.848c0 .22-.437.766-.437.766a5.415 5.415 0 0 1-2.625-.329c-.22-.108.108-.765.108-.765l.025-.053c.101-.258.241-.498.415-.713.217-.217.348-1.114.348-1.114.679-1.113 1.885.482 1.885.482s.153.835.234 1.342c.027.181.047.328.047.384Z" fill="#FF6F61"/><path opacity=".1" d="M220.053 157.848c0 .22-.437.766-.437.766a5.415 5.415 0 0 1-2.625-.329c-.22-.108.108-.765.108-.765l.025-.053a5.297 5.297 0 0 0 2.383.49l.499-.499c.027.187.047.334.047.39Z" fill="#571AFF"/><path d="M211.466 119.336a2.46 2.46 0 1 0 0-4.92 2.46 2.46 0 0 0 0 4.92Zm-1.985 2.461c-.54.515-.629 1.331-.685 2.074l-.084 1.088c-.03.294-.036.589-.019.883 0 .181.044.365.061.557.017.192.022.434.025.654v1.609c-.026.332.035.665.178.966a.665.665 0 0 0 .359.313.662.662 0 0 0 .476-.012.958.958 0 0 0 .346-.535 8.32 8.32 0 0 0 .556-2.038c.023-.242.025-.484.048-.726.022-.242.064-.496.1-.741.156-1.024.225-2.06.295-3.093.019-.306.295-1.511-.106-1.645-.195-.064-.598.137-.785.203a2.208 2.208 0 0 0-.765.443Z" fill="#BE6F72"/><path opacity=".1" d="M209.481 121.797c-.54.515-.629 1.331-.685 2.074l-.084 1.088c-.03.294-.036.589-.019.883 0 .181.044.365.061.557.017.192.022.434.025.654v1.609c-.026.332.035.665.178.966a.665.665 0 0 0 .359.313.662.662 0 0 0 .476-.012.958.958 0 0 0 .346-.535 8.32 8.32 0 0 0 .556-2.038c.023-.242.025-.484.048-.726.022-.242.064-.496.1-.741.156-1.024.225-2.06.295-3.093.019-.306.295-1.511-.106-1.645-.195-.064-.598.137-.785.203a2.208 2.208 0 0 0-.765.443Z" fill="#571AFF"/><path d="M214.582 118.462s-1.859 1.423-2.953 1.751c0 0-.649.741-.76.919-.111.178-.334 2.143-.557 2.583-.222.44-.765 1.423 0 2.405 0 0 .217.986.109 1.314-.109.329-.507 1.531-.145 1.587.362.056 1.459.819 2.441.601.983-.217 4.652.836 4.652.836s.607-5.638 1.046-6.634l-.985-.329s-2.733-1.64-1.094-4.156c-.003 0-1.539-.329-1.754-.877Z" fill="#FF6F61"/><path d="m207.794 125.051 2.26 1.601a.167.167 0 0 0 .198 0l.612-.459a.179.179 0 0 0 .06-.131.161.161 0 0 0-.016-.072.16.16 0 0 0-.044-.059l-1.74-1.545a.152.152 0 0 0-.08-.04.163.163 0 0 0-.09.007l-1.116.4a.188.188 0 0 0-.075.052.164.164 0 0 0-.037.084.167.167 0 0 0 .068.162Z" fill="#571AFF"/><path d="M208.553 129.873a6.078 6.078 0 0 1-.236-1.706l-.034-.772a2.232 2.232 0 0 1 .081-.89 1.463 1.463 0 0 1 .938-.822c.416-.115.85-.146 1.278-.092a.337.337 0 0 1 .164.045.3.3 0 0 1 .089.15.99.99 0 0 1 .109.397.993.993 0 0 1-.059.408.827.827 0 0 1-.256.264c-.303.217-.657.362-.943.599a.338.338 0 0 0-.128.161.374.374 0 0 0 0 .176c.035.153.084.303.144.448a.441.441 0 0 0 .126.189c.052.045.122.061.178.103.119.098.37.226.356.379-.042.557-.376 1.18-.507 1.731-.25 1.078-1.138-.298-1.3-.768Z" fill="#BE6F72"/><path opacity=".1" d="M212.069 129.622h-.061c.236.046.479.046.715 0h.07a2.51 2.51 0 0 0-.724 0Zm5.743-5.963c-.393.883-.972 5.663-1.075 6.612.384.1.638.173.638.173s.601-5.624 1.041-6.62l-.604-.165Z" fill="#571AFF"/><path d="M216.585 122.206a.836.836 0 0 0 .359.543 4.8 4.8 0 0 1 .637.646c.275.387.489.814.632 1.267.209.566.385 1.144.526 1.731-1.392.646-2.973.615-4.454 1.041a3.56 3.56 0 0 0-1.67.989 2.309 2.309 0 0 0-.615 1.812.229.229 0 0 0 .034.108.23.23 0 0 0 .194.078c.37 0 .73-.123 1.022-.35.289-.226.551-.484.782-.769.144-.186.336-.329.557-.412.804-.245 1.67-.231 2.505-.245a31.506 31.506 0 0 0 3.733-.295.29.29 0 0 0 .248-.086.303.303 0 0 0 .086-.248c.123-1.642-.487-3.246-1.113-4.769a88.103 88.103 0 0 0-.774-1.823 5.396 5.396 0 0 0-.947-1.62 1.66 1.66 0 0 0-.556-.412 2.323 2.323 0 0 0-.746-.139 5.26 5.26 0 0 0-1.222-.023 2.572 2.572 0 0 0-.117.632c.022.752.35 1.456.673 2.135.042.103.162.109.226.209Z" fill="#BE6F72"/><path opacity=".1" d="M212.127 123.615c-.188.322-.284.69-.278 1.063.001.148.024.294.07.435a1.415 1.415 0 0 0 .887.835" stroke="#571AFF" stroke-miterlimit="10"/><path d="M213.544 114.47a1.254 1.254 0 0 0-.403.064c-.365-.557-1.222-.941-2.227-.941-1.331 0-2.408.688-2.408 1.534 0 .846 1.077 1.531 2.408 1.531.498.005.991-.099 1.444-.306a1.311 1.311 0 1 0 1.181-1.882h.005Z" fill="#571AFF"/><path opacity=".1" d="M213.654 116.767a1.307 1.307 0 0 1-1.181-.744 3.377 3.377 0 0 1-1.444.306c-1.328 0-2.406-.684-2.406-1.531a.977.977 0 0 1 0-.153 1.038 1.038 0 0 0-.122.482c0 .835 1.077 1.531 2.408 1.531a3.4 3.4 0 0 0 1.445-.306 1.308 1.308 0 0 0 1.352.73 1.314 1.314 0 0 0 1.117-1.056 1.304 1.304 0 0 1-1.169.741Z" fill="#571AFF"/><path opacity=".1" d="M208.181 114.52a3.711 3.711 0 0 1 4.175-1.991 3.946 3.946 0 0 1 1.899-.583 3.94 3.94 0 0 1 4.092 3.607v-.329a3.936 3.936 0 0 0-6.005-3.34 3.719 3.719 0 0 0-4.175 1.99 4.534 4.534 0 0 0-1.417 3.385v.329a4.456 4.456 0 0 1 1.431-3.068Z" fill="#571AFF"/><path d="M233.278 115.355c.727-1.344-.097-2.995-1.047-4.195-.949-1.2-2.101-2.447-2.076-3.978.033-2.197 2.366-3.494 4.231-4.66a20.624 20.624 0 0 0 3.797-3.063 5.54 5.54 0 0 0 1.169-1.562c.384-.86.373-1.837.351-2.783-.082-3.137-.237-6.27-.465-9.399" stroke="#571AFF" stroke-width="4" stroke-miterlimit="10"/><path d="M242.778 85.548a3.422 3.422 0 0 0-1.709-2.806l-.768 1.517.022-1.837a3.426 3.426 0 1 0 2.455 3.126Zm-6.109 23.198a3.43 3.43 0 0 1-3.953 1.739 3.43 3.43 0 0 1-2.516-3.509 3.428 3.428 0 0 1 6.633-.991l-2.141 1.742 2.355-.556a3.409 3.409 0 0 1-.378 1.575Zm-1.693-6.656a3.425 3.425 0 0 1-3.547-2.875 3.428 3.428 0 0 1 2.459-3.848l-.017 1.411.777-1.534a3.43 3.43 0 0 1 1.618 6.528 3.44 3.44 0 0 1-1.298.321l.008-.003Zm8.317-5.534a3.425 3.425 0 0 1-3.508-4.213 3.42 3.42 0 0 1 1.965-2.351 3.427 3.427 0 0 1 3.06.16l-.606 1.671 1.247-1.197a3.408 3.408 0 0 1 1.113 2.366c.017.317-.012.635-.086.944a3.432 3.432 0 0 1-3.185 2.62Z" fill="#F4ED0F"/><path opacity=".1" d="M242.32 86.461c-.791.09-1.562.334-2.355.385-.794.05-1.67-.142-2.169-.76-.233-.359-.444-.73-.632-1.114a2.458 2.458 0 0 0-.863-.813 3.428 3.428 0 0 0 5.809 3.594c.29-.392.492-.842.594-1.32a5.97 5.97 0 0 0-.384.028Zm.973 10.095a3.434 3.434 0 0 1-3.011-1.524 3.434 3.434 0 0 1-.249-3.365c.273.183.507.416.691.688.203.39.43.77.679 1.133.532.629 1.445.835 2.271.796.827-.039 1.626-.278 2.45-.348.114 0 .231-.02.345-.022a3.428 3.428 0 0 1-3.176 2.642Zm-8.317 5.534a3.425 3.425 0 0 1-3.288-4.83c.281.187.526.423.724.696.279.376.432.81.743 1.155.58.646 1.551.872 2.428.852.877-.02 1.67-.228 2.505-.292a3.425 3.425 0 0 1-3.112 2.419Zm1.693 6.656a3.43 3.43 0 0 1-6.249-2.784c.282.185.536.411.751.671.329.398.543.835.919 1.22.701.687 1.831.968 2.839.996.581 0 1.162-.035 1.74-.103Z" fill="#571AFF"/><path d="M277.539 157.67c.726-1.345-.098-2.996-1.047-4.195-.949-1.2-2.102-2.447-2.077-3.979.034-2.196 2.367-3.493 4.232-4.66a20.527 20.527 0 0 0 3.796-3.062 5.549 5.549 0 0 0 1.17-1.562c.384-.86.373-1.837.35-2.784a195.267 195.267 0 0 0-.464-9.398" stroke="#571AFF" stroke-width="4" stroke-miterlimit="10"/><path d="M287.039 127.863a3.425 3.425 0 0 0-1.709-2.806l-.769 1.517.023-1.837a3.36 3.36 0 0 0-1.114-.137 3.43 3.43 0 0 0-3.166 4.248 3.425 3.425 0 0 0 6.261.944c.35-.581.52-1.252.488-1.929h-.014Zm-6.111 23.198a3.426 3.426 0 1 1 .165-2.762l-2.141 1.743 2.355-.557a3.414 3.414 0 0 1-.379 1.576Zm-1.692-6.656a3.43 3.43 0 0 1-3.547-2.875 3.425 3.425 0 0 1 2.458-3.848l-.016 1.411.776-1.534a3.428 3.428 0 0 1 3.583 3.266 3.42 3.42 0 0 1-1.965 3.261 3.414 3.414 0 0 1-1.298.322l.009-.003Zm8.318-5.535a3.417 3.417 0 0 1-2.807-1.229 3.418 3.418 0 0 1-.702-2.983 3.432 3.432 0 0 1 1.966-2.352 3.433 3.433 0 0 1 3.06.162l-.607 1.67 1.247-1.197a3.416 3.416 0 0 1 1.028 3.31 3.425 3.425 0 0 1-3.185 2.619Z" fill="#F4ED0F"/><path opacity=".1" d="M286.579 128.776c-.79.089-1.561.334-2.354.384-.794.05-1.671-.142-2.169-.76-.233-.358-.444-.73-.632-1.113a2.463 2.463 0 0 0-.863-.813 3.426 3.426 0 1 0 6.403 2.274 6.284 6.284 0 0 0-.385.028Zm.975 10.094a3.42 3.42 0 0 1-3.011-1.523 3.434 3.434 0 0 1-.249-3.365c.273.182.507.416.691.688.203.391.43.769.679 1.133.531.629 1.444.835 2.271.796.827-.039 1.626-.279 2.45-.348.114 0 .231-.02.345-.022a3.431 3.431 0 0 1-3.176 2.641Zm-8.318 5.535a3.429 3.429 0 0 1-3.288-4.83c.281.187.526.422.724.696.278.376.431.81.743 1.155.579.646 1.551.871 2.428.852.876-.02 1.67-.228 2.505-.292a3.426 3.426 0 0 1-3.112 2.419Zm1.693 6.656a3.428 3.428 0 0 1-4.42 1.516 3.432 3.432 0 0 1-1.83-4.3c.283.185.536.411.752.671.328.398.557.835.918 1.219.702.688 1.832.969 2.84.997a15.114 15.114 0 0 0 1.74-.103Z" fill="#571AFF"/><path d="M133.514 118.392a2.727 2.727 0 0 0-1.088-2.204 3.205 3.205 0 0 0-2.675-3.141 3.197 3.197 0 0 0-2.13-2.38 2.796 2.796 0 0 0-.395-.092h-.47a3.134 3.134 0 0 0-3.029 2.678c-.977-.225-1.87.067-2.035.685a.84.84 0 0 0 .028.496c.167.479.71.938 1.436 1.163l.095.028.142.036h.031c-.155.33-.235.691-.234 1.055a2.43 2.43 0 0 0 1.311 2.172l-.064.039a.862.862 0 0 0-.212.295 4.465 4.465 0 0 0-.409.985c-.069.296-.081.602-.167.894-.161.537-.573.991-.621 1.551-.022.25.02.556-.158.718a.867.867 0 0 1-.142.1 1.13 1.13 0 0 0-.309.326 1.107 1.107 0 0 1-.217.312c-.162.119-.426.108-.504.295-.078.186.125.406.078.609-.048.204-.22.243-.345.357a1.226 1.226 0 0 0-.298.556 1.823 1.823 0 0 1-1.503-.384c.071.18.123.367.155.557a2.421 2.421 0 0 0-.81-.406 2.58 2.58 0 0 1-.863-.641l.463-.064-2.041-3.115-.604-.125.54 1.038a.34.34 0 0 0-.117.089.34.34 0 0 0-.067.131.96.96 0 0 0-.019.354c.028.281.074.56.139.835l.156.729c.014.067.031.137.05.204a1.923 1.923 0 0 0-.604.066 5.312 5.312 0 0 0-1.255-.298.727.727 0 0 0-.279 0 .725.725 0 0 0-.264.215 8.52 8.52 0 0 0-.933 1.314c-1.113 1.91-2.564 3.577-3.936 5.303-.946.384-1.901.749-2.856 1.114l-2.054.785a3.133 3.133 0 0 1-1.275.278c-.195 0-.437-.042-.557.125a1.146 1.146 0 0 0-.125.279l-.212.022a2.436 2.436 0 0 0-.492-.908.313.313 0 0 0-.231.179c-.051.091-.081.192-.14.278-.108.161-.3.239-.437.376-.136.136-.222.348-.373.487a1.46 1.46 0 0 1-.698.278 4.4 4.4 0 0 0-1.094.415 1.766 1.766 0 0 1-.404.187 1.52 1.52 0 0 1-.476.016l-1.086-.08a.845.845 0 0 0-.292.014.554.554 0 0 0-.345.556.878.878 0 0 0 .345.599c.188.139.397.247.618.32.94.366 1.908.653 2.895.857v.22c.691.349 1.454.53 2.227.529a.343.343 0 0 0 .167-.03.366.366 0 0 0 .139-.217 8.932 8.932 0 0 0 .434-2.133c.136-.009.269-.043.393-.1.373-.103.746.153 1.133.195.476.053.916-.226 1.367-.396l.195-.064a2.148 2.148 0 0 1-.451.432c-.187.134-.396.234-.577.373a4.002 4.002 0 0 1-.49.379 3.15 3.15 0 0 1-.375.144c-.19.071-.371.164-.538.279-.148.088-.273.21-.364.356a.528.528 0 0 0-.031.501.533.533 0 0 0 .359.251c.147.022.296.022.443 0 .59-.045 1.177-.098 1.765-.151a4.69 4.69 0 0 0 .737-.105c.128-.031.256-.073.384-.109.22-.055.445-.089.671-.1a.556.556 0 0 1 .195.019c.137.045.234.184.373.212a.566.566 0 0 0 .279-.036 6.222 6.222 0 0 1 1.305-.14c.192 0 .418-.047.507-.225.089-.178-.073-.465-.145-.702a2.113 2.113 0 0 1-.061-.462 2.916 2.916 0 0 0-.323-1.097 2.788 2.788 0 0 1-.242-.501 12.584 12.584 0 0 0 2.402-1.219 4.29 4.29 0 0 1 1.37-.66c.581-.069 1.17 0 1.72.201 1.338.388 2.655.847 3.944 1.375.615.253 1.228.521 1.863.713.185.248.408.465.662.643.438.246.931.381 1.434.392.671.061 1.344.087 2.018.075a3.389 3.389 0 0 0 1.503-.278 1.54 1.54 0 0 0 .315-.209 1.241 1.241 0 0 0 .991-.364c.365-.313.627-.728.754-1.192.164-.635.039-1.392.429-1.899.103-.139.239-.25.342-.389.125-.191.187-.416.178-.643a.11.11 0 0 1 .017-.025c.085-.205.142-.421.167-.641.048-.173.108-.342.181-.506.198-.491.37-.992.518-1.501.1-.338.18-.682.239-1.03.042-.278.067-.557.089-.835.029-.439.115-.872.253-1.289.349-.993.546-2.033.585-3.085v-.061a2.066 2.066 0 0 0 1.832-2.104 2.2 2.2 0 0 0-.193-.9c.247-.426.375-.91.373-1.403Zm-9.959 12.102c.03.108.066.214.103.32-.165-.159-.323-.323-.488-.484.064.022.131.041.192.066.065.027.126.059.184.098h.009Zm-.788-.535c-.963-.835-2.077-1.484-3.062-2.294.537.265 1.06.574 1.578.869.614.351 1.237.688 1.868 1.011a1.534 1.534 0 0 1-.393.414h.009Zm.409-2.104.047-.048v.332l-.259-.089a2.35 2.35 0 0 0 .204-.195h.008Zm-8.471 2.255a8.022 8.022 0 0 0 1.025-1.462c.381.665 1.002 1.147 1.528 1.707a33.75 33.75 0 0 0-2.553-.245Z" fill="url(#c)"/><path d="m116.074 122.003.607.123 2.068 3.059-.91.122-1.765-3.304Z" fill="#571AFF"/><path d="M101.36 134.413c.165.54.368 1.068.607 1.579.686-.145 1.36-.337 2.018-.576a6.293 6.293 0 0 0-.42-.557 2.048 2.048 0 0 0-.571-.437 1.559 1.559 0 0 0-.693 0c-.312-.009-.626-.003-.941-.009Z" fill="#FBBEBE"/><path d="M102.997 135.229a1.26 1.26 0 0 1-.69-.785 2.531 2.531 0 0 0-.526-.938.308.308 0 0 0-.14.057.308.308 0 0 0-.094.118c-.05.089-.081.19-.137.279-.111.158-.306.236-.445.37s-.223.342-.373.479a1.481 1.481 0 0 1-.704.278 4.601 4.601 0 0 0-1.114.409 1.921 1.921 0 0 1-.409.184c-.159.024-.32.024-.479 0l-1.096-.078a.867.867 0 0 0-.279 0 .534.534 0 0 0-.348.557.832.832 0 0 0 .348.59c.19.137.4.244.624.317.955.36 1.938.64 2.939.836v.217c.698.342 1.464.52 2.241.52a.382.382 0 0 0 .167-.027.369.369 0 0 0 .139-.218 8.688 8.688 0 0 0 .46-2.383 1.929 1.929 0 0 0-.048-.615c-.061-.197.145-.114-.044-.192" fill="#571AFF"/><path d="M124.03 131.095c-3.251.195-6.464-.757-9.721-.857a4.707 4.707 0 0 0-1.208.075 6.07 6.07 0 0 0-1.197.465c-1.745.813-3.552 1.486-5.356 2.157l-2.073.771a3.143 3.143 0 0 1-1.284.279c-.197 0-.439-.042-.556.122-.337.501-.179 1.234.044 1.796.073.181.195.378.39.398.137-.009.271-.043.395-.1.376-.101.752.153 1.141.195.479.05.925-.223 1.378-.39.752-.279 1.57-.279 2.361-.401 1.322-.22 2.55-.835 3.697-1.534a4.297 4.297 0 0 1 1.378-.651 3.815 3.815 0 0 1 1.734.197c1.349.381 2.676.833 3.978 1.353.676.295 1.37.548 2.076.76a7.515 7.515 0 0 0 4.657-.278c.521-.206 1.086-.557 1.114-1.13.019-.321-.231-.602-.396-.877a11.686 11.686 0 0 0-.328-.521c-.557-.807-1.236-1.887-2.224-1.829Z" fill="#571AFF"/><path opacity=".1" d="M124.03 131.095c-3.251.195-6.464-.757-9.721-.857a4.707 4.707 0 0 0-1.208.075 6.07 6.07 0 0 0-1.197.465c-1.745.813-3.552 1.486-5.356 2.157l-2.073.771a3.143 3.143 0 0 1-1.284.279c-.197 0-.439-.042-.556.122-.337.501-.179 1.234.044 1.796.073.181.195.378.39.398.137-.009.271-.043.395-.1.376-.101.752.153 1.141.195.479.05.925-.223 1.378-.39.752-.279 1.57-.279 2.361-.401 1.322-.22 2.55-.835 3.697-1.534a4.297 4.297 0 0 1 1.378-.651 3.815 3.815 0 0 1 1.734.197c1.349.381 2.676.833 3.978 1.353.676.295 1.37.548 2.076.76a7.515 7.515 0 0 0 4.657-.278c.521-.206 1.086-.557 1.114-1.13.019-.321-.231-.602-.396-.877a11.686 11.686 0 0 0-.328-.521c-.557-.807-1.236-1.887-2.224-1.829Z" fill="#571AFF"/><path d="M107.604 134.564c.508.172 1.021.332 1.539.479.278-.476.835-.808.955-1.353a.13.13 0 0 0 0-.073.138.138 0 0 0-.059-.053 2.911 2.911 0 0 0-1.208-.353c-.334-.02-.487.328-.637.573-.059.109-.454.833-.59.78Z" fill="#FBBEBE"/><path d="M108.317 134.224a1.116 1.116 0 0 1-.749-.493c-.07-.125-.148-.295-.292-.278-.145.017-.192.167-.223.298a8.356 8.356 0 0 1-.42 1.445c-.184.47-.495.88-.899 1.183-.19.131-.399.228-.585.367a3.89 3.89 0 0 1-.493.373 3.008 3.008 0 0 1-.378.14c-.19.071-.372.165-.54.278-.15.086-.278.207-.371.354a.508.508 0 0 0-.027.492.53.53 0 0 0 .359.245c.148.022.299.022.448 0a96.89 96.89 0 0 0 1.779-.147c.25-.016.498-.051.743-.103l.387-.106c.221-.059.448-.092.676-.1a.529.529 0 0 1 .198.019c.136.045.234.181.376.209a.627.627 0 0 0 .278-.036 6.136 6.136 0 0 1 1.317-.137c.195 0 .423-.05.512-.222.111-.217-.072-.46-.148-.694a2.225 2.225 0 0 1-.061-.453 2.75 2.75 0 0 0-.326-1.08c-.15-.279-.356-.585-.25-.88a.82.82 0 0 0 .1-.304c-.042-.478-1.138-.309-1.411-.37Z" fill="#571AFF"/><path d="M119.156 125.878a2.538 2.538 0 0 1-1.297-1.286c-.053-.123-.097-.253-.15-.376a2.852 2.852 0 0 0-.774-1.077.39.39 0 0 0-.279-.12.318.318 0 0 0-.135.084.307.307 0 0 0-.073.142.869.869 0 0 0-.023.348c.029.273.075.545.14.812l.158.719c.021.11.054.217.098.32.068.12.157.227.264.314.145.134.292.262.44.39.085.074.179.139.278.192.156.074.322.123.493.145a4.183 4.183 0 0 1 1.848.713v-.535a.706.706 0 0 0-.139-.387 2.476 2.476 0 0 0-.849-.398Z" fill="#FBBEBE"/><path opacity=".1" d="M119.156 125.878a2.538 2.538 0 0 1-1.297-1.286c-.053-.123-.097-.253-.15-.376a2.852 2.852 0 0 0-.774-1.077.39.39 0 0 0-.279-.12.318.318 0 0 0-.135.084.307.307 0 0 0-.073.142.869.869 0 0 0-.023.348c.029.273.075.545.14.812l.158.719c.021.11.054.217.098.32.068.12.157.227.264.314.145.134.292.262.44.39.085.074.179.139.278.192.156.074.322.123.493.145a4.183 4.183 0 0 1 1.848.713v-.535a.706.706 0 0 0-.139-.387 2.476 2.476 0 0 0-.849-.398Z" fill="#571AFF"/><path d="M125.776 120.383c.437 0 .79-.357.79-.796a.793.793 0 0 0-.79-.797.794.794 0 0 0-.791.797c0 .439.354.796.791.796Z" fill="#571AFF"/><path d="M125.285 119.108a.853.853 0 0 0-.623.089.872.872 0 0 0-.215.292c-.177.305-.315.63-.412.969-.069.278-.08.593-.169.88-.162.529-.577.977-.624 1.528-.022.248.02.537-.161.704a1.005 1.005 0 0 1-.142.103 1.07 1.07 0 0 0-.312.32 1.052 1.052 0 0 1-.22.304c-.161.12-.429.108-.507.278-.078.17.126.401.078.602-.047.2-.222.239-.348.35a1.218 1.218 0 0 0-.3.557 1.857 1.857 0 0 1-1.515-.376c.184.558.264 1.145.237 1.732a.7.7 0 0 1-.139.534c.628.047 1.25.155 1.857.323.262.088.547.088.81 0 .14-.075.267-.175.373-.295.334-.339.684-.71.765-1.18.02-.266.025-.533.014-.799.032-.33.1-.656.203-.972.176-.654.295-1.323.354-1.998.036-.418.398-.752.587-1.114.356-.704.724-1.437.749-2.227.011-.256-.078-.576-.34-.604Z" fill="#571AFF"/><path opacity=".1" d="M125.285 119.108a.853.853 0 0 0-.623.089.872.872 0 0 0-.215.292c-.177.305-.315.63-.412.969-.069.278-.08.593-.169.88-.162.529-.577.977-.624 1.528-.022.248.02.537-.161.704a1.005 1.005 0 0 1-.142.103 1.07 1.07 0 0 0-.312.32 1.052 1.052 0 0 1-.22.304c-.161.12-.429.108-.507.278-.078.17.126.401.078.602-.047.2-.222.239-.348.35a1.218 1.218 0 0 0-.3.557 1.857 1.857 0 0 1-1.515-.376c.184.558.264 1.145.237 1.732a.7.7 0 0 1-.139.534c.628.047 1.25.155 1.857.323.262.088.547.088.81 0 .14-.075.267-.175.373-.295.334-.339.684-.71.765-1.18.02-.266.025-.533.014-.799.032-.33.1-.656.203-.972.176-.654.295-1.323.354-1.998.036-.418.398-.752.587-1.114.356-.704.724-1.437.749-2.227.011-.256-.078-.576-.34-.604Z" fill="#571AFF"/><path d="M124.545 131.78c-.676-.323-1.172-.922-1.72-1.437-1.044-.982-2.322-1.67-3.421-2.597-.73-.61-1.392-1.319-2.18-1.832a5.452 5.452 0 0 0-2.335-.815.626.626 0 0 0-.279 0 .633.633 0 0 0-.264.208 8.444 8.444 0 0 0-.944 1.295c-1.392 2.366-3.371 4.354-5.01 6.553a.409.409 0 0 0-.081.156.383.383 0 0 0 .061.242l.334.652c.187.367.487.793.888.721a.977.977 0 0 0 .465-.298l1.498-1.434 1.57-1.5c.918-.877 1.853-1.776 2.455-2.901.467.813 1.3 1.344 1.868 2.088.217.278.395.593.59.893.309.479.662.93 1.013 1.392l1.801 2.297c.228.324.511.607.835.835.444.242.939.375 1.445.387.676.06 1.356.085 2.035.072a3.51 3.51 0 0 0 1.517-.278 1.38 1.38 0 0 0 .821-1.222 1.788 1.788 0 0 0-.259-.76c-.651-1.161-1.492-2.141-2.703-2.717Z" fill="#571AFF"/><path d="M126.263 120.75a.612.612 0 0 0 0-1.225.612.612 0 0 0 0 1.225Z" fill="#E8E8F0"/><path d="M126.129 119.679c.136.273.16.588.067.879a3.527 3.527 0 0 1-.393.81c-.141.26-.312.503-.509.724.941.045 1.851-.323 2.678-.768.668-.359 1.333-.802 1.69-1.473a.791.791 0 0 1-.624-.117 2.22 2.22 0 0 1-.476-.442l-.47-.529a2.125 2.125 0 0 1-.279-.382 1.052 1.052 0 0 1-.125-.615 3.601 3.601 0 0 1-.624.518c-.336.22-.707.378-1.046.596-.117.077-.384.2-.315.356.07.156.331.275.426.443Z" fill="#FBBEBE"/><path opacity=".1" d="M126.129 119.679c.136.273.16.588.067.879a3.527 3.527 0 0 1-.393.81c-.141.26-.312.503-.509.724.941.045 1.851-.323 2.678-.768.668-.359 1.333-.802 1.69-1.473a.791.791 0 0 1-.624-.117 2.22 2.22 0 0 1-.476-.442l-.47-.529a2.125 2.125 0 0 1-.279-.382 1.052 1.052 0 0 1-.125-.615 3.601 3.601 0 0 1-.624.518c-.336.22-.707.378-1.046.596-.117.077-.384.2-.315.356.07.156.331.275.426.443Z" fill="#571AFF"/><path d="M126.141 119.77a.792.792 0 0 0 0 .919c.027.033.128.242.169.245a.168.168 0 0 0 .059-.017.16.16 0 0 0 .047-.039c.214-.223.413-.46.596-.71.186-.248.454-.424.757-.495.375-.014.744.101 1.044.326.14.063.262.159.359.278a.98.98 0 0 1 .117.398c.091.84.126 1.686.106 2.531.016.61-.024 1.22-.12 1.823-.061.309-.15.613-.192.927a5.823 5.823 0 0 0-.039.835v1.164a3.09 3.09 0 0 0 .044.637c.056.254.176.49.257.738.083.285.14.576.169.871l.159 1.203c.05.379.089.794-.142 1.114-.103.136-.239.247-.345.384-.393.512-.278 1.244-.432 1.871a2.332 2.332 0 0 1-.762 1.169 1.254 1.254 0 0 1-1.005.359c-.49-.092-.782-.601-.916-1.083s-.181-1.005-.47-1.411a3.751 3.751 0 0 0-.93-.777 1.612 1.612 0 0 1-.727-.944c-.03-.175 0-.356-.03-.534a1.26 1.26 0 0 0-.777-1.022c-.251-.097-.557-.134-.701-.362.358-.224.619-.575.732-.983.11-.404.17-.822.178-1.241l.083-1.392c.039-.627.056-1.245.332-1.807.122-.25.278-.487.403-.735.17-.348.314-.708.432-1.077.2-.574.401-1.147.579-1.726.069-.281.176-.552.317-.805.15-.261.367-.576.649-.632Z" fill="#E8E8F0"/><path d="M123.037 128.857h.37l.078-.557a1.15 1.15 0 0 1 .078-.326 1.95 1.95 0 0 1 .214-.311c.362-.515.337-1.197.426-1.824a9.311 9.311 0 0 1 .813-2.383l.718-1.601c.066-.13.118-.268.156-.409.03-.156.045-.314.045-.473 0-.248.078-1.15.086-1.392 0-.092-.203-.042-.245-.122-.089-.179-.212.303-.381.409a.935.935 0 0 0-.332.484c-.156.401-.25.835-.395 1.233a2.52 2.52 0 0 1-.671 1.092c-.147.128-.317.231-.456.37-.446.44-.49 1.139-.504 1.768-.011.384-.084 4.042 0 4.042Zm5.327-9.752a1.257 1.257 0 0 0-.66.905 4.55 4.55 0 0 1-.334 1.113c-.451.785-1.6 1.014-1.92 1.863-.081.285-.124.58-.129.877-.055.609-.256 1.197-.317 1.804a8.07 8.07 0 0 0 .034 1.416l.403 4.794a6.403 6.403 0 0 1-.12 2.111c.414.059.836-.011 1.209-.201.375-.173.721-.409 1.085-.61.624-.345 1.314-.587 1.862-1.046a1.15 1.15 0 0 0 .251-.279c.084-.201.14-.413.167-.629a3.33 3.33 0 0 1 .181-.495c.201-.484.376-.979.523-1.481.101-.333.181-.671.24-1.014.044-.278.069-.557.092-.835.029-.432.115-.858.256-1.267.349-.977.547-2.002.587-3.04a1.547 1.547 0 0 0-.031-.445 2.34 2.34 0 0 0-.245-.509c-.167-.315-.278-.66-.423-.98a4.809 4.809 0 0 0-1.645-1.729c-.323-.22-.701-.454-1.066-.323Z" fill="#571AFF"/><path d="M119.955 126.928a2.898 2.898 0 0 1-.765-.582c-.101-.117-.184-.248-.279-.365a1.89 1.89 0 0 0-.963-.557 4.729 4.729 0 0 0-1.113-.108 2.014 2.014 0 0 0-.744.089.753.753 0 0 0-.492.529.877.877 0 0 0 .375.779c.218.179.474.303.749.362.224.04.45.067.677.081 1.33.139 2.519.863 3.685 1.523a45.8 45.8 0 0 0 3.135 1.625c.041-.318.059-.639.053-.96 0-.239-.02-.607-.245-.749a4.952 4.952 0 0 0-.997-.298 15.577 15.577 0 0 1-2.007-.813 9.949 9.949 0 0 1-1.069-.556Zm5.821-7.522a2.379 2.379 0 0 0 2.372-2.386 2.379 2.379 0 0 0-2.372-2.386 2.379 2.379 0 0 0-2.372 2.386 2.379 2.379 0 0 0 2.372 2.386Z" fill="#FBBEBE"/><path d="M129.041 121.808a3.803 3.803 0 0 0-.459.86c-.279.602-.752 1.114-.983 1.751-.231.638-.234 1.456-.71 1.977a.688.688 0 0 0-.208.301c-.002.072-.01.145-.023.217-.069.189-.378.197-.437.392-.017.056 0 .117-.028.173-.047.125-.214.145-.323.22-.231.156-.183.518-.347.743a.625.625 0 0 1-.593.209 2.095 2.095 0 0 1-.616-.231.577.577 0 0 0-.222-.07.46.46 0 0 0-.256.089 1.574 1.574 0 0 0-.641 1.35c.032.522.157 1.034.368 1.512.023.083.064.16.119.226a.536.536 0 0 0 .591.044 2.76 2.76 0 0 1 .576-.259c.367-.067.726.187 1.099.165.272-.041.528-.153.741-.326.374-.224.711-.506.996-.835.162-.215.279-.457.424-.685a8.79 8.79 0 0 1 .598-.799l1.37-1.67c.136-.159.258-.329.367-.507.122-.244.215-.501.278-.766.147-.441.24-.898.279-1.361a5.26 5.26 0 0 0-.1-1.141 4.059 4.059 0 0 0-.279-1.089c-.298-.629-1.021-1.141-1.581-.49Z" fill="#571AFF"/><path d="M133.806 118.696a2.671 2.671 0 0 0-1.097-2.172 3.173 3.173 0 0 0-2.697-3.092 3.084 3.084 0 0 0-3.105-2.475 3.078 3.078 0 0 0-2.966 2.639c-.986-.223-1.888.067-2.052.673-.164.607.532 1.392 1.57 1.671.328.091.669.125 1.008.1a3.088 3.088 0 0 0 2.121 1.322 3.164 3.164 0 0 0 2.316 2.389c.159.38.404.719.715.988v.231a2 2 0 0 0 .588 1.419 2.013 2.013 0 0 0 1.419.588 2.007 2.007 0 0 0 2.007-2.007 2.128 2.128 0 0 0-.192-.888c.245-.42.371-.9.365-1.386Z" fill="#F86D70"/><path opacity=".1" d="M122.558 114.397c.164-.606 1.066-.896 2.052-.673a3.134 3.134 0 0 1 3.062-2.639h.203a2.976 2.976 0 0 0-.874-.131 3.133 3.133 0 0 0-3.062 2.639c-.986-.223-1.887.067-2.052.674-.164.606.532 1.392 1.57 1.67.195.054.394.088.596.103-.994-.298-1.659-1.022-1.495-1.643Zm7.719 6.69a1.735 1.735 0 0 1 0-.228 2.602 2.602 0 0 1-.716-.988 3.16 3.16 0 0 1-2.316-2.392 3.08 3.08 0 0 1-2.124-1.319 2.676 2.676 0 0 1-.593-.017 3.089 3.089 0 0 0 2.046 1.217 3.167 3.167 0 0 0 2.316 2.388c.159.381.404.719.716.988v.231a2.043 2.043 0 0 0 1.996 2.077 2.075 2.075 0 0 1-1.325-1.957Z" fill="#571AFF"/><path d="M126.863 117.896c.16-.122.159-.395-.004-.609-.163-.214-.425-.289-.585-.167-.161.122-.159.394.004.608.163.215.425.289.585.168Z" fill="#FBBEBE"/><path d="M99.666 100.959v-2.954a5.908 5.908 0 0 0-5.908-5.908H81.94a5.908 5.908 0 0 0-5.908 5.908v2.954" fill="#F4ED0F"/><path d="M87.85 86.19a5.908 5.908 0 1 0 0-11.816 5.908 5.908 0 0 0 0 11.816Z" fill="#F4ED0F" stroke="#F4ED0F" stroke-width="3.083" stroke-linecap="round" stroke-linejoin="round"/></g><defs><linearGradient id="b" x1="213.982" y1="158.667" x2="213.982" y2="110.751" gradientUnits="userSpaceOnUse"><stop stop-color="gray" stop-opacity=".25"/><stop offset=".54" stop-color="gray" stop-opacity=".12"/><stop offset="1" stop-color="gray" stop-opacity=".1"/></linearGradient><linearGradient id="c" x1="17373" y1="18661.7" x2="17373" y2="15826" gradientUnits="userSpaceOnUse"><stop stop-color="gray" stop-opacity=".25"/><stop offset=".54" stop-color="gray" stop-opacity=".12"/><stop offset="1" stop-color="gray" stop-opacity=".1"/></linearGradient><clipPath id="a"><path fill="#fff" transform="translate(.455)" d="M0 0h305.09v160H0z"/></clipPath></defs></svg>