<svg width="163" height="175" fill="none" xmlns="http://www.w3.org/2000/svg"><path d="M60 0c20.99 0 38 13.716 38 30.643 0 7.307-3.177 13.995-8.46 19.255 1.854 7.425 8.06 14.04 8.133 14.113.327.339.416.84.223 1.282a1.163 1.163 0 0 1-1.084.707c-9.84 0-17.218-4.685-20.87-7.572A45.576 45.576 0 0 1 60 61.286c-20.99 0-38-13.716-38-30.643S39.01 0 60 0Z" fill="#C4C4C4"/><g clip-path="url(#a)" fill-rule="evenodd" clip-rule="evenodd" fill="#fff"><path d="M46.342 17.34a1.17 1.17 0 0 1 1.65 0l25.666 25.565c.456.454.456 1.19 0 1.643a1.17 1.17 0 0 1-1.65 0L46.342 18.984a1.159 1.159 0 0 1 0-1.644Zm18.116 12.002a1.169 1.169 0 0 1 1.56-.534 13.935 13.935 0 0 1 2.903 1.89c.492.415.552 1.148.135 1.637a1.17 1.17 0 0 1-1.644.134 11.6 11.6 0 0 0-2.417-1.573 1.16 1.16 0 0 1-.537-1.554Z"/><path d="M59.015 28.61a1.163 1.163 0 0 1-.953 1.341 11.616 11.616 0 0 0-5.48 2.524 1.17 1.17 0 0 1-1.644-.146 1.159 1.159 0 0 1 .147-1.637 13.955 13.955 0 0 1 6.583-3.031 1.166 1.166 0 0 1 1.347.949Zm6.505-3.748a17.567 17.567 0 0 0-6.931-.836 1.165 1.165 0 0 1-1.257-1.064c-.052-.64.427-1.2 1.07-1.252a19.908 19.908 0 0 1 7.855.947 19.853 19.853 0 0 1 6.858 3.93c.483.424.53 1.159.103 1.64a1.17 1.17 0 0 1-1.647.102 17.516 17.516 0 0 0-6.051-3.467Zm-11.295-1.177a1.16 1.16 0 0 1-.657 1.508 17.41 17.41 0 0 0-5.139 3.136 1.17 1.17 0 0 1-1.647-.101 1.159 1.159 0 0 1 .102-1.64 19.741 19.741 0 0 1 5.828-3.557c.6-.236 1.277.057 1.513.654Zm5.781 11.909a5.85 5.85 0 0 0-3.379 1.073 1.17 1.17 0 0 1-1.626-.274 1.159 1.159 0 0 1 .275-1.62 8.189 8.189 0 0 1 9.46 0c.525.371.648 1.097.275 1.62a1.17 1.17 0 0 1-1.627.274 5.85 5.85 0 0 0-3.378-1.073Zm-1.173 4.646c0-.641.523-1.162 1.167-1.162h.012c.644 0 1.166.52 1.166 1.162 0 .642-.522 1.162-1.166 1.162H60c-.644 0-1.167-.52-1.167-1.162Z"/></g><path d="M113.67 76.958a4.937 4.937 0 0 0-1.547-3.617 4.917 4.917 0 0 0-3.701-1.33 4.922 4.922 0 0 0-4.552 5.594L89.724 96.13a6.858 6.858 0 0 0 .927 7.53l1.11 1.295 5.091-1.018 5.771-5.092-.679-5.77 7.128-11.202-.009-.008a4.922 4.922 0 0 0 4.607-4.907Z" fill="#FFB9B9"/><path d="m15.17 167.114-2.31-8.576 31.98-12.987 3.407 12.657-33.078 8.906Z" fill="#FFB8B8"/><path d="M7.445 171.539 0 143.887l.35-.094a11.144 11.144 0 0 1 13.66 7.865l4.548 16.889-11.113 2.992Z" fill="#777"/><path d="m59.22 165.743-7.183-5.223 16.73-30.19 10.6 7.709-20.148 27.704Z" fill="#FFB8B8"/><path d="m55.988 174.038-23.16-16.843.213-.292a11.145 11.145 0 0 1 15.57-2.46v.001l14.146 10.287-6.769 9.307Zm64.286-50.483L102.2 105.997a9.128 9.128 0 0 0-11.951-.668L56.12 143.242l3.055 4.752 32.586-22.063 22.063 28.852 21.045-10.522-14.596-20.706Z" fill="#777"/><path d="m112.468 127.289-13.239-1.018-9.586-2.325a4.926 4.926 0 0 0-9.02 1.946 4.925 4.925 0 0 0 8.085 4.445l-.001.007 5.77 2.376 24.779 8.486 3.055-2.376-9.843-11.541Z" fill="#FFB9B9"/><path d="m144.374 163.948-7.467 4.752h-8.826L87.01 153.426l-60.08 10.862-1.697-12.899 54.988-24.1 48.2 15.953 15.953 20.706Z" fill="#777"/><path d="M128.421 81.465c7.311 0 13.238-5.927 13.238-13.238s-5.927-13.238-13.238-13.238-13.238 5.927-13.238 13.238 5.927 13.238 13.238 13.238Z" fill="#FFB9B9"/><path d="M162.673 121.081a76.068 76.068 0 0 1-3.73 23.526l-.991 3.048-4.752 21.724-5.092 1.358-3.734-4.752-7.467-5.431-5.431-8.826-4.657-7.759-1.453-2.424-5.091-25.457-19.348-10.862-6.45-1.019 1.358-3.733 5.771-7.808 5.77-.678 1.697-1.358 1.358.679 7.484 2.883 24.267-10.252 3.55.58 12.22 10.183a75.993 75.993 0 0 1 4.721 26.378Z" fill="#CCC"/><path opacity=".1" d="m158.97 118.124-12.898 8.486-19.253 17.358-1.453-2.423-4.073-20.366h1.018l10.523-19.347 26.136 16.292Z" fill="#000"/><path d="m132.834 99.795-10.523 19.347-6.11 6.789-5.43 1.358 14.595 15.953 20.706-18.669 12.898-8.486-26.136-16.292Z" fill="#CCC"/><path d="m118.125 58.384-1.435.552a1.985 1.985 0 0 1-.843-1.28 1.996 1.996 0 0 1 .308-1.501l.023-.034-2.65-.124a20.009 20.009 0 0 1 14.397-7.932 20.017 20.017 0 0 1 15.482 5.524c.121-.416 1.436.393 1.974 1.213.18-.676 1.413 2.593 1.85 4.904.202-.77.978.473.298 1.665.431-.063.626 1.04.292 1.654.472-.222.392 1.095-.119 1.975.673-.06-.058 13.8-10.157 12.79-.703-3.23-.505-3.029-1.332-7.183-.386-.409-.808-.781-1.229-1.153l-2.279-2.012c-2.649-2.338-5.06-5.225-8.589-6.1-2.426-.6-3.96-.736-2.638-3.469-1.194.498-2.31 1.24-3.515 1.703.017-.382.185-.81.162-1.192Z" fill="#777"/><path d="M135.04 72.13a2.376 2.376 0 1 0 0-4.752 2.376 2.376 0 0 0 0 4.753Z" fill="#FFB9B9"/><defs><clipPath id="a"><path fill="#fff" transform="translate(46 17)" d="M0 0h28v27.888H0z"/></clipPath></defs></svg>