<svg width="80" height="80" viewBox="0 0 80 80" fill="none" xmlns="http://www.w3.org/2000/svg">
    <g clip-path="url(#clip0_7227_102805)">
        <g clip-path="url(#clip1_7227_102805)">
            <path d="M59.6274 16.44L72.7564 39.5L79.5032 35.56L66.3451 12.5L59.6274 16.44Z" fill="white" />
            <path
                d="M38.7312 19.5538C36.2195 19.3026 33.634 19.9381 31.4292 21.3156L29.7587 22.3531C28.0586 23.4646 26.0486 24.7504 23.8763 26.0983C22.0877 27.2393 21.1137 29.341 21.4237 31.4279L22.1763 36.6689C22.2058 36.6689 22.2058 36.6393 22.2353 36.6393C23.9649 35.9151 25.8568 35.8264 27.6454 36.2994L27.306 32.7611C27.2765 32.5394 27.365 32.3472 27.4978 32.1699C27.6602 32.0073 27.8372 31.9186 28.0586 31.9186L42.9105 31.3866C42.9696 31.3866 43.0433 31.4457 43.1024 31.4752C43.1909 31.5048 43.2942 31.5048 43.3828 31.5639C43.4418 31.623 43.4713 31.6969 43.5451 31.756C43.6041 31.8152 43.6779 31.8447 43.7074 31.9482C43.7074 31.9777 43.6779 32.0073 43.7074 32.0812C43.7074 32.1108 43.7369 32.1108 43.7369 32.1699C43.7369 32.229 43.6779 32.3029 43.6779 32.362C43.6484 32.4507 43.6189 32.5542 43.5894 32.6133C43.5303 32.702 43.427 32.7463 43.3385 32.8054C43.309 32.835 43.2795 32.9384 43.1762 32.9384C34.3984 35.6757 28.5751 38.2976 27.7458 39.1548C27.3621 39.4948 26.577 40.2958 26.5179 41.36C26.5179 41.5521 26.4884 42.5601 27.1082 43.0626C27.6985 43.5947 28.9706 43.5651 29.8413 43.373C39.0027 41.5373 45.6702 40.6062 49.6753 40.4732C52.7331 40.4141 54.7135 40.7836 56.4726 41.1678C58.7335 41.6112 60.345 41.9216 63.0781 41.0053C65.4422 40.2515 67.6145 38.8888 69.5655 37.0088L60.7877 21.7501L38.7224 19.5597L38.7312 19.5538Z"
                fill="white" />
            <path fill-rule="evenodd" clip-rule="evenodd"
                d="M7.70451 37.6752C11.1692 37.7344 15.1003 38.501 16.8488 43.2724H16.8517C16.8987 43.1421 16.9485 43.0178 17.0013 42.8935C18.345 39.6909 21.5397 37.693 24.9868 37.6722C25.8493 37.6663 26.6355 37.7344 27.2281 37.8676C27.1326 37.9104 27.0218 37.9919 26.9345 38.0562C26.9011 38.0808 26.8711 38.1028 26.8468 38.1192L26.838 38.128C26.364 38.6092 25.2883 39.7013 25.1716 41.381C25.1423 41.8398 25.1716 43.4263 26.304 44.4031C27.0521 44.995 28.0232 45.1874 28.9033 45.1874C29.476 45.1874 30.0321 45.0897 30.3727 45.0298L30.4024 45.0246C31.3265 44.8322 32.2388 44.6546 33.1483 44.4918C33.5619 47.0107 33.2099 51.4299 28.0525 56.4824L16.6376 68.0438L5.25196 56.4824C-1.38695 50.0209 -0.166541 44.5806 0.684225 42.5649C1.9017 39.6021 4.66522 37.6752 7.5725 37.6752H7.70451ZM10.9504 53.4189C10.6042 53.4189 10.3255 53.7001 10.3255 54.0494C10.3255 54.3986 10.6042 54.6798 10.9504 54.6798H11.9419C12.8602 57.0714 15.1602 58.7763 17.8504 58.7763C18.7598 58.7763 19.6399 58.5839 20.4672 58.2051C20.7811 58.06 20.9219 57.6871 20.7782 57.3704C20.6344 57.0537 20.2648 56.9146 19.9509 57.0566C19.2879 57.3615 18.5808 57.5154 17.8504 57.5154C15.8643 57.5154 14.1451 56.3581 13.3061 54.6798H17.9912C18.3374 54.6798 18.6161 54.3986 18.6161 54.0494C18.6161 53.7001 18.3374 53.4189 17.9912 53.4189H12.866C12.7956 53.0815 12.7604 52.7352 12.7604 52.377C12.7604 52.0189 12.7986 51.6726 12.866 51.3351H17.9912C18.3374 51.3351 18.6161 51.054 18.6161 50.7047C18.6161 50.3554 18.3374 50.0742 17.9912 50.0742H13.3061C14.1451 48.396 15.8643 47.2386 17.8504 47.2386C18.5808 47.2386 19.2879 47.3926 19.9509 47.6974C20.2648 47.8425 20.6344 47.7004 20.7782 47.3837C20.919 47.067 20.7811 46.694 20.4672 46.549C19.6399 46.1701 18.7598 45.9777 17.8504 45.9777C15.1602 45.9777 12.8602 47.6826 11.9419 50.0742H10.9504C10.6042 50.0742 10.3255 50.3554 10.3255 50.7047C10.3255 51.054 10.6042 51.3351 10.9504 51.3351H11.6016C11.5459 51.6755 11.5107 52.0218 11.5107 52.377C11.5107 52.7322 11.5459 53.0785 11.6016 53.4189H10.9504Z"
                fill="#F53B3B" />
        </g>
    </g>
    <defs>
        <clipPath id="clip0_7227_102805">
            <rect width="80" height="80" fill="white" />
        </clipPath>
        <clipPath id="clip1_7227_102805">
            <rect width="79.5031" height="80" fill="white" transform="translate(0.00488281)" />
        </clipPath>
    </defs>
</svg>