<svg width="246" height="145" viewBox="0 0 246 145" fill="none" xmlns="http://www.w3.org/2000/svg">
<ellipse cx="123" cy="72" rx="123" ry="64" fill="#EEEEEE"/>
<path d="M28.5 92H104.5L116.5 23H53.5C32.3 23 27 40.3333 27 49V91L28.5 92Z" fill="white"/>
<path d="M82.5903 65.228C87.6092 65.228 91.6779 61.15 91.6779 56.1196C91.6779 51.0891 87.6092 47.0112 82.5903 47.0112C77.5713 47.0112 73.5027 51.0891 73.5027 56.1196C73.5027 61.15 77.5713 65.228 82.5903 65.228Z" fill="#F2F2F2"/>
<path d="M54.5707 24.7213H117.182V28.1547H62.5636C59.3523 28.1547 56.1724 28.7886 53.2055 30.0204C50.2386 31.2521 47.5428 33.0575 45.272 35.3335C43.0012 37.6094 41.1999 40.3114 39.971 43.2851C38.7421 46.2588 38.1096 49.446 38.1096 52.6646V91.6717H31.2585C30.9557 91.6717 30.6653 91.5512 30.4511 91.3365C30.237 91.1219 30.1167 90.8308 30.1167 90.5273V49.2313C30.1167 46.0126 30.7492 42.8254 31.9782 39.8517C33.2071 36.878 35.0084 34.1761 37.2791 31.9001C39.5499 29.6241 42.2457 27.8187 45.2126 26.587C48.1795 25.3553 51.3594 24.7213 54.5707 24.7213Z" fill="#F2F2F2"/>
<path d="M66.6138 143.678V91.5248H81.8575V143.678C81.8571 144.028 81.718 144.364 81.4707 144.612C81.2234 144.86 80.8881 145 80.5383 145H67.9329C67.5832 145 67.2479 144.86 67.0006 144.612C66.7533 144.364 66.6142 144.028 66.6138 143.678Z" fill="#3F3D56"/>
<path d="M26.8921 90.4965V48.0882C26.8997 41.3371 29.5788 34.8646 34.3417 30.0908C39.1045 25.3171 45.5622 22.6318 52.2979 22.6241H116.889V91.9656H28.3578C27.9692 91.9651 27.5967 91.8102 27.3219 91.5348C27.0471 91.2594 26.8925 90.886 26.8921 90.4965ZM116.302 23.2118H52.2979C45.7176 23.2193 39.409 25.8426 34.7561 30.5062C30.1031 35.1698 27.4858 41.4929 27.4784 48.0882V90.4965C27.4786 90.7302 27.5714 90.9542 27.7363 91.1195C27.9011 91.2847 28.1247 91.3777 28.3578 91.3779H116.302V23.2118Z" fill="#3F3D56"/>
<path d="M82.5903 60.8207C81.1913 60.8191 79.8501 60.2614 78.8608 59.2699C77.8716 58.2784 77.3152 56.9341 77.3136 55.5319V17.6292C77.3133 17.3955 77.2206 17.1714 77.0557 17.0062C76.8909 16.8409 76.6673 16.748 76.4341 16.7477H55.9137C55.5251 16.7473 55.1526 16.5923 54.8778 16.3169C54.603 16.0415 54.4484 15.6681 54.448 15.2786V1.4691C54.4484 1.07961 54.603 0.706197 54.8778 0.430785C55.1526 0.155374 55.5251 0.000451025 55.9137 0H86.4012C86.7898 0.000445593 87.1624 0.155368 87.4371 0.430781C87.7119 0.706194 87.8665 1.07961 87.867 1.4691V55.5319C87.8654 56.9341 87.3089 58.2784 86.3197 59.2699C85.3305 60.2614 83.9893 60.8191 82.5903 60.8207Z" fill="#571AFF"/>
<path d="M119.234 22.0365C123.656 22.0272 127.901 23.7791 131.035 26.9067C134.168 30.0344 135.934 34.2816 135.943 38.7141V86.9915H168.776C170.095 86.9887 171.361 87.5112 172.296 88.444C173.23 89.3769 173.757 90.6436 173.76 91.9655H102.524V38.7141C102.534 34.2816 104.299 30.0344 107.433 26.9067C110.567 23.7791 114.812 22.0272 119.234 22.0365Z" fill="#3F3D56"/>
<path d="M149.423 54.8171L151.989 55.3065C152.139 55.335 152.293 55.331 152.442 55.295C152.59 55.2589 152.73 55.1916 152.85 55.0974L154.909 53.486L149.423 54.8171Z" fill="white"/>
<path d="M152.03 43.3579L155.49 57.6833L223.173 41.2613L219.713 26.9358C219.671 26.7607 219.586 26.5989 219.465 26.4656C219.344 26.3323 219.192 26.2318 219.022 26.1733C218.896 26.1291 218.763 26.1091 218.63 26.1143L179.507 5.81084C179.278 5.69351 179.014 5.66217 178.764 5.72247C178.514 5.78277 178.293 5.93075 178.142 6.1397L159.287 32.4935L152.179 42.4313C152.166 42.4487 152.157 42.4687 152.152 42.4899C152.148 42.5111 152.148 42.533 152.152 42.5542C152.008 42.7955 151.964 43.0843 152.03 43.3579Z" fill="white"/>
<path d="M152.153 42.5542C152.156 42.5728 152.163 42.5906 152.173 42.6065C152.183 42.6224 152.197 42.6362 152.212 42.647C152.23 42.6596 152.251 42.6683 152.273 42.6726C152.295 42.677 152.317 42.6768 152.339 42.6721C152.375 42.6627 152.406 42.6411 152.427 42.6112L152.451 42.5773L152.821 42.0586L159.543 32.6668L178.393 6.31908C178.5 6.16978 178.657 6.06407 178.836 6.02114C179.015 5.97822 179.203 6.00092 179.366 6.08513L218.187 26.2314L218.535 26.4126C218.549 26.4185 218.564 26.4236 218.578 26.4278C218.604 26.423 218.631 26.4204 218.658 26.4201C218.694 26.4079 218.725 26.3822 218.743 26.3482C218.752 26.3303 218.758 26.3107 218.76 26.2906C218.762 26.2704 218.76 26.2501 218.754 26.2308C218.748 26.2114 218.738 26.1935 218.725 26.1779C218.712 26.1623 218.696 26.1494 218.679 26.14L218.631 26.1143L179.507 5.81084C179.278 5.69351 179.014 5.66217 178.764 5.72247C178.514 5.78277 178.293 5.93075 178.142 6.1397L159.287 32.4935L152.179 42.4313C152.166 42.4487 152.157 42.4687 152.152 42.4899C152.148 42.5111 152.148 42.533 152.153 42.5542Z" fill="#3F3D56"/>
<path d="M172.48 44.0149L173.986 44.1825L185.168 45.4239L192.58 46.2464L193.018 46.2952L202.267 39.0541L202.622 38.7767L204.806 37.0667L212.579 30.9827L212.626 30.5554L215.39 5.5472C215.428 5.20284 215.328 4.85756 215.112 4.58704C214.896 4.31652 214.582 4.14285 214.238 4.1041L177.344 0.00774293C177 -0.0298619 176.656 0.0705162 176.386 0.286898C176.116 0.503279 175.943 0.818028 175.904 1.16222L173.954 18.8024L172.873 28.5825L171.906 37.332L171.457 41.3952L171.326 42.5722C171.289 42.9167 171.389 43.262 171.606 43.5324C171.822 43.8028 172.136 43.9763 172.48 44.0149Z" fill="#E6E6E6"/>
<path d="M182.618 22.0942L198.6 23.8683L204.267 24.4972C204.518 24.525 204.771 24.5031 205.013 24.4328C205.254 24.3625 205.48 24.2451 205.677 24.0874C205.873 23.9297 206.037 23.7348 206.158 23.5137C206.279 23.2926 206.356 23.0498 206.384 22.799C206.412 22.5482 206.39 22.2943 206.32 22.052C206.249 21.8097 206.132 21.5835 205.975 21.3866C205.818 21.1896 205.623 21.0256 205.403 20.9039C205.182 20.7823 204.94 20.7054 204.689 20.6776L197.64 19.8951L183.042 18.2727C182.536 18.2167 182.029 18.3642 181.632 18.6828C181.235 19.0013 180.981 19.4648 180.925 19.9714C180.868 20.478 181.015 20.9862 181.333 21.3843C181.651 21.7823 182.113 22.0377 182.618 22.0942Z" fill="white"/>
<path d="M181.708 29.18C181.75 29.1873 181.791 29.1947 181.833 29.1988L200.385 31.2587L203.482 31.6034C203.988 31.6594 204.495 31.5119 204.892 31.1932C205.289 30.8745 205.543 30.4108 205.599 29.9041C205.655 29.3974 205.508 28.8892 205.19 28.4913C204.872 28.0933 204.41 27.8383 203.904 27.7822L199.425 27.2856L184.729 25.6535L182.256 25.3788C181.762 25.3235 181.265 25.4631 180.871 25.7682C180.478 26.0733 180.218 26.5198 180.147 27.0135C180.075 27.5071 180.199 28.0092 180.49 28.4135C180.782 28.8178 181.218 29.0926 181.708 29.1799V29.18Z" fill="white"/>
<path d="M179.609 35.4629C179.761 35.7159 179.969 35.9304 180.217 36.0896C180.465 36.2489 180.747 36.3487 181.039 36.3812L188.643 37.2253L202.186 38.7291L202.189 38.7284L202.622 38.7767L204.807 37.0667C204.82 36.9368 204.82 36.8058 204.807 36.6759C204.761 36.2397 204.568 35.8323 204.259 35.5211C203.951 35.21 203.546 35.0137 203.111 34.9647L201.229 34.7552L193.767 33.9275L188.397 33.3306L181.461 32.5601C181.106 32.5207 180.746 32.5817 180.424 32.7362C180.101 32.8908 179.828 33.1327 179.635 33.4347C179.442 33.7367 179.338 34.0866 179.333 34.445C179.329 34.8035 179.424 35.156 179.609 35.4629L179.609 35.4629Z" fill="white"/>
<path d="M190.289 13.4329L194.265 13.8743L196.022 14.0698L198.675 14.3641C199.18 14.4201 199.687 14.2726 200.084 13.9539C200.481 13.6353 200.736 13.1716 200.792 12.6649C200.848 12.1582 200.7 11.6499 200.382 11.252C200.064 10.8541 199.602 10.599 199.096 10.543L190.712 9.6129C190.207 9.5566 189.7 9.70383 189.303 10.0222C188.906 10.3406 188.651 10.804 188.595 11.3106C188.539 11.8172 188.686 12.3254 189.003 12.7234C189.321 13.1214 189.783 13.3766 190.289 13.4329V13.4329Z" fill="white"/>
<path d="M157.774 24.0728L162.622 44.1448L170.713 45.6868L178.198 47.115L186.228 48.6465L188.794 49.1359C188.945 49.1644 189.099 49.1605 189.248 49.1244C189.396 49.0884 189.536 49.021 189.656 48.9268L191.715 47.3154L193.018 46.2952L202.267 39.0541L196.386 14.7042C196.328 14.462 196.202 14.2417 196.022 14.0698C195.864 13.9178 195.67 13.808 195.459 13.7507C195.248 13.6933 195.025 13.6902 194.812 13.7416L158.735 22.4953C158.399 22.577 158.109 22.7891 157.929 23.0848C157.749 23.3806 157.693 23.736 157.774 24.0728Z" fill="#571AFF"/>
<path d="M168.891 40.0408C169.011 40.5359 169.322 40.9631 169.756 41.2285C170.19 41.4939 170.711 41.5759 171.205 41.4564L192.375 36.3199C192.869 36.1994 193.295 35.8875 193.559 35.4526C193.824 35.0177 193.906 34.4953 193.787 34C193.782 33.9754 193.775 33.9512 193.767 33.9275C193.631 33.45 193.317 33.0434 192.889 32.793C192.462 32.5426 191.954 32.4679 191.473 32.5844L170.303 37.7208C169.809 37.8411 169.383 38.153 169.118 38.588C168.853 39.0229 168.771 39.5454 168.891 40.0408Z" fill="white"/>
<path d="M170.713 45.6868L178.198 47.115L194.053 43.2681C194.547 43.1482 194.974 42.8364 195.238 42.4013C195.503 41.9662 195.585 41.4435 195.465 40.9482C195.346 40.4528 195.035 40.0254 194.6 39.7599C194.166 39.4944 193.645 39.4126 193.151 39.5325L171.981 44.669C171.539 44.7755 171.149 45.0373 170.883 45.4069C170.818 45.4952 170.762 45.5889 170.713 45.6868Z" fill="white"/>
<path d="M173.156 29.2777C173.276 29.7729 173.587 30.2 174.021 30.4654C174.455 30.7308 174.977 30.8128 175.471 30.6933L183.67 28.7039C184.164 28.5833 184.59 28.2714 184.855 27.8365C185.12 27.4016 185.202 26.8793 185.083 26.3839C185.019 26.1178 184.898 25.8686 184.729 25.6534C184.503 25.3626 184.197 25.1433 183.849 25.0219C183.501 24.9004 183.126 24.8818 182.768 24.9683L174.568 26.9578C174.074 27.0778 173.648 27.3896 173.383 27.8246C173.118 28.2597 173.036 28.7823 173.156 29.2777V29.2777Z" fill="white"/>
<path d="M178.198 47.1149L186.229 48.6467L188.794 49.1364C188.945 49.1645 189.099 49.1604 189.247 49.1244C189.396 49.0884 189.535 49.0212 189.656 48.9274L191.716 47.3155L190.993 47.4909L189.467 48.6841C189.381 48.7512 189.281 48.7991 189.175 48.8249C189.069 48.8506 188.959 48.8535 188.851 48.8334L186.952 48.4713L178.92 46.9395L178.198 47.1149ZM202.188 38.7296L202.266 39.0533L202.623 38.7757L202.188 38.7296ZM178.198 47.1149L186.229 48.6467L188.794 49.1364C188.945 49.1645 189.099 49.1604 189.247 49.1244C189.396 49.0884 189.535 49.0212 189.656 48.9274L191.716 47.3155L190.993 47.4909L189.467 48.6841C189.381 48.7512 189.281 48.7991 189.175 48.8249C189.069 48.8506 188.959 48.8535 188.851 48.8334L186.952 48.4713L178.92 46.9395L178.198 47.1149ZM178.198 47.1149L186.229 48.6467L188.794 49.1364C188.945 49.1645 189.099 49.1604 189.247 49.1244C189.396 49.0884 189.535 49.0212 189.656 48.9274L191.716 47.3155L190.993 47.4909L189.467 48.6841C189.381 48.7512 189.281 48.7991 189.175 48.8249C189.069 48.8506 188.959 48.8535 188.851 48.8334L186.952 48.4713L178.92 46.9395L178.198 47.1149ZM152.03 43.3579L161.093 80.8816C161.16 81.1589 161.335 81.3981 161.578 81.5468C161.821 81.6954 162.113 81.7413 162.389 81.6744L227.985 65.7589C228.261 65.6915 228.5 65.5168 228.648 65.2732C228.797 65.0296 228.842 64.737 228.776 64.4596L219.713 26.9358C219.671 26.7607 219.586 26.5989 219.465 26.4656C219.344 26.3323 219.192 26.2318 219.022 26.1733C218.896 26.1291 218.763 26.1091 218.63 26.1143C218.476 26.1188 218.324 26.1589 218.187 26.2314C218.123 26.2615 218.064 26.2987 218.009 26.3422L212.625 30.5555L204.807 36.6768L202.188 38.7273L202.188 38.7296L202.186 38.7301L192.581 46.2454L190.993 47.4909L189.467 48.6841C189.381 48.7512 189.281 48.7991 189.175 48.8248C189.069 48.8506 188.959 48.8535 188.851 48.8334L186.952 48.4713L178.92 46.9395L170.882 45.407L153.275 42.0488C153.125 42.0189 152.97 42.0223 152.821 42.0586C152.621 42.1076 152.439 42.2132 152.297 42.3629C152.243 42.4217 152.194 42.4858 152.152 42.5542C152.008 42.7955 151.964 43.0843 152.03 43.3579ZM178.198 47.1149L186.229 48.6467L188.794 49.1364C188.945 49.1645 189.099 49.1604 189.247 49.1244C189.396 49.0884 189.535 49.0212 189.656 48.9274L191.716 47.3155L190.993 47.4909L189.467 48.6841C189.381 48.7512 189.281 48.7991 189.175 48.8249C189.069 48.8506 188.959 48.8535 188.851 48.8334L186.952 48.4713L178.92 46.9395L178.198 47.1149ZM178.198 47.1149L186.229 48.6467L188.794 49.1364C188.945 49.1645 189.099 49.1604 189.247 49.1244C189.396 49.0884 189.535 49.0212 189.656 48.9274L191.716 47.3155L190.993 47.4909L189.467 48.6841C189.381 48.7512 189.281 48.7991 189.175 48.8249C189.069 48.8506 188.959 48.8535 188.851 48.8334L186.952 48.4713L178.92 46.9395L178.198 47.1149ZM178.198 47.1149L186.229 48.6467L188.794 49.1364C188.945 49.1645 189.099 49.1604 189.247 49.1244C189.396 49.0884 189.535 49.0212 189.656 48.9274L191.716 47.3155L190.993 47.4909L189.467 48.6841C189.381 48.7512 189.281 48.7991 189.175 48.8249C189.069 48.8506 188.959 48.8535 188.851 48.8334L186.952 48.4713L178.92 46.9395L178.198 47.1149Z" fill="white"/>
<path d="M178.198 47.1148L186.229 48.6467L188.794 49.1363C188.945 49.1644 189.099 49.1603 189.247 49.1243C189.396 49.0883 189.535 49.0211 189.656 48.9273L191.716 47.3155L190.993 47.4909L189.467 48.6841C189.381 48.7511 189.281 48.799 189.175 48.8248C189.069 48.8505 188.959 48.8534 188.851 48.8334L186.952 48.4713L178.92 46.9394L178.198 47.1148ZM202.188 38.7295L202.266 39.0532L202.623 38.7756L202.188 38.7295ZM178.198 47.1148L186.229 48.6467L188.794 49.1363C188.945 49.1644 189.099 49.1603 189.247 49.1243C189.396 49.0883 189.535 49.0211 189.656 48.9273L191.716 47.3155L190.993 47.4909L189.467 48.6841C189.381 48.7511 189.281 48.799 189.175 48.8248C189.069 48.8505 188.959 48.8534 188.851 48.8334L186.952 48.4713L178.92 46.9394L178.198 47.1148ZM178.198 47.1148L186.229 48.6467L188.794 49.1363C188.945 49.1644 189.099 49.1603 189.247 49.1243C189.396 49.0883 189.535 49.0211 189.656 48.9273L191.716 47.3155L190.993 47.4909L189.467 48.6841C189.381 48.7511 189.281 48.799 189.175 48.8248C189.069 48.8505 188.959 48.8534 188.851 48.8334L186.952 48.4713L178.92 46.9394L178.198 47.1148ZM152.451 42.5773L152.491 42.6072C152.498 42.5963 152.509 42.5865 152.518 42.575C152.607 42.4824 152.717 42.4132 152.839 42.3739C152.961 42.3345 153.091 42.3261 153.217 42.3494L170.714 45.6854L178.198 47.1148L186.229 48.6467L188.794 49.1363C188.945 49.1644 189.099 49.1603 189.247 49.1243C189.396 49.0883 189.535 49.0211 189.656 48.9273L191.716 47.3155L190.993 47.4909L189.467 48.6841C189.381 48.7511 189.281 48.799 189.175 48.8248C189.069 48.8505 188.959 48.8534 188.851 48.8333L186.952 48.4713L178.92 46.9394L170.882 45.407L153.275 42.0487C153.125 42.0189 152.97 42.0222 152.821 42.0585L152.451 42.5773ZM152.03 43.3578L161.093 80.8815C161.16 81.1588 161.335 81.398 161.578 81.5467C161.821 81.6953 162.113 81.7413 162.389 81.6744L227.985 65.7588C228.261 65.6914 228.5 65.5167 228.648 65.2731C228.797 65.0295 228.842 64.7369 228.776 64.4595L219.713 26.9358C219.671 26.7606 219.586 26.5989 219.465 26.4656C219.344 26.3323 219.192 26.2317 219.022 26.1733C218.896 26.1291 218.763 26.109 218.63 26.1143C218.476 26.1188 218.324 26.1588 218.187 26.2313C218.123 26.2614 218.064 26.2986 218.009 26.3421L212.625 30.5554L204.807 36.6767L202.188 38.7273L202.188 38.7295L202.186 38.73L192.581 46.2454L190.993 47.4909L189.467 48.6841C189.381 48.7511 189.281 48.799 189.175 48.8248C189.069 48.8505 188.959 48.8534 188.851 48.8334L186.952 48.4713L178.92 46.9394L170.882 45.407L153.275 42.0487C153.125 42.0189 152.97 42.0222 152.821 42.0585C152.621 42.1075 152.439 42.2132 152.297 42.3629C152.243 42.4217 152.194 42.4857 152.152 42.5541C152.008 42.7955 151.964 43.0842 152.03 43.3578ZM152.329 43.2853C152.302 43.1747 152.301 43.0595 152.324 42.9481C152.347 42.8367 152.395 42.732 152.464 42.6417C152.471 42.6284 152.48 42.6166 152.491 42.6072C152.498 42.5963 152.509 42.5865 152.518 42.575C152.607 42.4824 152.717 42.4132 152.839 42.3739C152.961 42.3345 153.091 42.3261 153.217 42.3494L170.714 45.6854L178.198 47.1148L186.229 48.6467L188.794 49.1363C188.945 49.1644 189.099 49.1603 189.247 49.1243C189.396 49.0883 189.535 49.0211 189.656 48.9273L191.716 47.3155L193.018 46.2953L202.266 39.0532L202.623 38.7756L204.806 37.0663L212.579 30.9815L218.199 26.5826C218.285 26.5158 218.383 26.468 218.489 26.4424C218.518 26.4352 218.548 26.4303 218.578 26.4277C218.604 26.4229 218.631 26.4204 218.658 26.4201C218.748 26.4192 218.837 26.4338 218.922 26.4632C219.043 26.5055 219.152 26.5775 219.238 26.6726C219.324 26.7677 219.385 26.8829 219.416 27.0077L228.479 64.5315C228.503 64.6298 228.507 64.7319 228.492 64.8319C228.476 64.9319 228.441 65.0278 228.388 65.1142C228.336 65.2005 228.267 65.2757 228.185 65.3353C228.104 65.3949 228.011 65.4378 227.913 65.4615L162.318 81.3771C162.12 81.4248 161.911 81.3917 161.738 81.2852C161.564 81.1786 161.44 81.0074 161.392 80.809L152.329 43.2853ZM178.198 47.1148L186.229 48.6467L188.794 49.1363C188.945 49.1644 189.099 49.1603 189.247 49.1243C189.396 49.0883 189.535 49.0211 189.656 48.9273L191.716 47.3155L190.993 47.4909L189.467 48.6841C189.381 48.7511 189.281 48.7991 189.175 48.8248C189.069 48.8505 188.959 48.8534 188.851 48.8334L186.952 48.4713L178.92 46.9394L178.198 47.1148ZM178.198 47.1148L186.229 48.6467L188.794 49.1363C188.945 49.1644 189.099 49.1603 189.247 49.1243C189.396 49.0883 189.535 49.0211 189.656 48.9273L191.716 47.3155L190.993 47.4909L189.467 48.6841C189.381 48.7511 189.281 48.7991 189.175 48.8248C189.069 48.8505 188.959 48.8534 188.851 48.8334L186.952 48.4713L178.92 46.9394L178.198 47.1148ZM178.198 47.1148L186.229 48.6467L188.794 49.1363C188.945 49.1644 189.099 49.1603 189.247 49.1243C189.396 49.0883 189.535 49.0211 189.656 48.9273L191.716 47.3155L190.993 47.4909L189.467 48.6841C189.381 48.7511 189.281 48.7991 189.175 48.8248C189.069 48.8505 188.959 48.8534 188.851 48.8334L186.952 48.4713L178.92 46.9394L178.198 47.1148Z" fill="#3F3D56"/>
<path d="M210.889 58.3867C210.741 57.7718 210.842 57.1233 211.171 56.5834C211.5 56.0435 212.029 55.6564 212.642 55.5069L220.921 53.4981C221.533 53.3518 222.179 53.4547 222.716 53.7845C223.253 54.1142 223.638 54.6438 223.786 55.2574C223.934 55.8709 223.834 56.5182 223.507 57.0576C223.179 57.5971 222.652 57.9845 222.041 58.1352L213.762 60.144C213.148 60.2921 212.501 60.1902 211.963 59.8608C211.424 59.5314 211.038 59.0012 210.889 58.3867Z" fill="#571AFF"/>
<path d="M82.5904 57.5886C83.7237 57.5886 84.6424 56.6678 84.6424 55.5319C84.6424 54.396 83.7237 53.4752 82.5904 53.4752C81.4571 53.4752 80.5383 54.396 80.5383 55.5319C80.5383 56.6678 81.4571 57.5886 82.5904 57.5886Z" fill="white"/>
</svg>
