<svg width="246" height="145" fill="none" xmlns="http://www.w3.org/2000/svg"><ellipse cx="123" cy="72" rx="123" ry="64" fill="#EEE"/><path d="M28.5 92h76l12-69h-63C32.3 23 27 40.333 27 49v42l1.5 1Z" fill="#fff"/><path d="M82.59 65.228c5.02 0 9.088-4.078 9.088-9.108s-4.069-9.109-9.088-9.109c-5.019 0-9.087 4.078-9.087 9.109 0 5.03 4.068 9.108 9.087 9.108Z" fill="#F2F2F2"/><path d="M54.57 24.721h62.612v3.434H62.564c-3.212 0-6.392.634-9.358 1.865a24.45 24.45 0 0 0-7.934 5.314 24.512 24.512 0 0 0-5.301 7.951 24.56 24.56 0 0 0-1.861 9.38v39.007h-6.851a1.14 1.14 0 0 1-1.142-1.145V49.231c0-3.218.632-6.406 1.861-9.38a24.514 24.514 0 0 1 5.301-7.95 24.45 24.45 0 0 1 7.934-5.314 24.406 24.406 0 0 1 9.358-1.866Z" fill="#F2F2F2"/><path d="M66.614 143.678V91.525h15.243v52.153A1.325 1.325 0 0 1 80.538 145H67.933a1.325 1.325 0 0 1-1.32-1.322Z" fill="#3F3D56"/><path d="M26.892 90.496V48.088a25.522 25.522 0 0 1 7.45-17.997 25.406 25.406 0 0 1 17.956-7.467h64.591v69.342H28.358a1.466 1.466 0 0 1-1.466-1.47Zm89.41-67.284H52.298a24.819 24.819 0 0 0-17.542 7.294 24.933 24.933 0 0 0-7.278 17.582v42.408a.883.883 0 0 0 .88.882h87.944V23.212Z" fill="#3F3D56"/><path d="M82.59 60.82a5.277 5.277 0 0 1-3.73-1.55 5.301 5.301 0 0 1-1.546-3.738V17.629a.883.883 0 0 0-.88-.881h-20.52a1.466 1.466 0 0 1-1.466-1.47V1.47A1.472 1.472 0 0 1 55.914 0H86.4a1.465 1.465 0 0 1 1.466 1.47v54.062a5.301 5.301 0 0 1-1.547 3.738 5.276 5.276 0 0 1-3.73 1.55Z" fill="#571AFF"/><path d="M119.234 22.037a16.657 16.657 0 0 1 11.801 4.87 16.733 16.733 0 0 1 4.908 11.807v48.278h32.833a4.969 4.969 0 0 1 3.52 1.452 4.994 4.994 0 0 1 1.464 3.522h-71.236V38.714a16.734 16.734 0 0 1 4.909-11.807 16.657 16.657 0 0 1 11.801-4.87Z" fill="#3F3D56"/><path d="m149.423 54.817 2.566.49a1.073 1.073 0 0 0 .861-.21l2.059-1.611-5.486 1.331Z" fill="#fff"/><path d="m152.03 43.358 3.46 14.325 67.683-16.422-3.46-14.325a1.07 1.07 0 0 0-1.083-.822L179.507 5.811a1.077 1.077 0 0 0-1.365.329l-18.855 26.353-7.108 9.938a.158.158 0 0 0-.027.059.174.174 0 0 0 0 .064c-.144.241-.188.53-.122.804Z" fill="#fff"/><path d="M152.153 42.554a.14.14 0 0 0 .059.093.16.16 0 0 0 .127.025.155.155 0 0 0 .088-.06l.024-.035.37-.518 6.722-9.392 18.85-26.348a.764.764 0 0 1 .973-.234l38.821 20.146.348.182a.433.433 0 0 0 .043.015.471.471 0 0 1 .08-.008.151.151 0 0 0 .067-.242.163.163 0 0 0-.046-.038l-.048-.026-39.124-20.303a1.077 1.077 0 0 0-1.365.329l-18.855 26.353-7.108 9.938a.158.158 0 0 0-.027.059.155.155 0 0 0 .001.064Z" fill="#3F3D56"/><path d="m172.48 44.015 1.506.167 11.182 1.242 7.412.822.438.05 9.249-7.242.355-.277 2.184-1.71 7.773-6.084.047-.428 2.764-25.008a1.309 1.309 0 0 0-1.152-1.443L177.344.008a1.304 1.304 0 0 0-1.44 1.154l-1.95 17.64-1.081 9.78-.967 8.75-.449 4.063-.131 1.177a1.31 1.31 0 0 0 1.154 1.443Z" fill="#E6E6E6"/><path d="m182.618 22.094 15.982 1.774 5.667.63a1.916 1.916 0 0 0 2.117-1.699 1.923 1.923 0 0 0-1.695-2.121l-7.049-.783-14.598-1.622a1.915 1.915 0 0 0-2.117 1.698 1.92 1.92 0 0 0 1.693 2.123Zm-.91 7.086c.042.007.083.015.125.019l18.552 2.06 3.097.344a1.915 1.915 0 0 0 2.117-1.699 1.924 1.924 0 0 0-1.695-2.122l-4.479-.496-14.696-1.633-2.473-.274a1.915 1.915 0 0 0-2.109 1.634 1.923 1.923 0 0 0 1.561 2.167Zm-2.099 6.283a1.919 1.919 0 0 0 1.43.918l7.604.844 13.543 1.504h.003l.433.048 2.185-1.71a1.925 1.925 0 0 0-1.696-2.102l-1.882-.21-7.462-.828-5.37-.596-6.936-.77a1.912 1.912 0 0 0-1.826.874 1.925 1.925 0 0 0-.026 2.028Zm10.68-22.03 3.976.441 1.757.196 2.653.294a1.914 1.914 0 0 0 1.409-.41 1.924 1.924 0 0 0-.988-3.411l-8.384-.93a1.923 1.923 0 0 0-.423 3.82Z" fill="#fff"/><path d="m157.774 24.073 4.848 20.072 8.091 1.542 7.485 1.428 8.03 1.532 2.566.489a1.076 1.076 0 0 0 .862-.21l2.059-1.61 1.303-1.02 9.249-7.242-5.881-24.35a1.307 1.307 0 0 0-1.574-.963l-36.077 8.754a1.305 1.305 0 0 0-.961 1.578Z" fill="#571AFF"/><path d="M168.891 40.04a1.914 1.914 0 0 0 2.314 1.416l21.17-5.136a1.927 1.927 0 0 0 1.392-2.392 1.924 1.924 0 0 0-.878-1.135 1.91 1.91 0 0 0-1.416-.209l-21.17 5.137a1.92 1.92 0 0 0-1.412 2.32Zm1.822 5.647 7.485 1.428 15.855-3.847a1.923 1.923 0 0 0 .547-3.508 1.912 1.912 0 0 0-1.449-.228l-21.17 5.137a1.902 1.902 0 0 0-1.098.738 1.92 1.92 0 0 0-.17.28Zm2.443-16.409a1.922 1.922 0 0 0 2.315 1.415l8.199-1.99a1.921 1.921 0 0 0-.902-3.735l-8.2 1.99a1.923 1.923 0 0 0-1.412 2.32Z" fill="#fff"/><path d="m178.198 47.115 8.031 1.532 2.565.49a1.079 1.079 0 0 0 .862-.21l2.06-1.611-.723.175-1.526 1.193a.772.772 0 0 1-.616.15l-1.899-.363-8.032-1.531-.722.175Zm23.99-8.385.078.323.357-.277-.435-.046Zm-23.99 8.385 8.031 1.532 2.565.49a1.079 1.079 0 0 0 .862-.21l2.06-1.611-.723.175-1.526 1.193a.772.772 0 0 1-.616.15l-1.899-.363-8.032-1.531-.722.175Zm0 0 8.031 1.532 2.565.49a1.079 1.079 0 0 0 .862-.21l2.06-1.611-.723.175-1.526 1.193a.772.772 0 0 1-.616.15l-1.899-.363-8.032-1.531-.722.175Zm-26.168-3.757 9.063 37.524a1.077 1.077 0 0 0 1.296.792l65.596-15.915a1.075 1.075 0 0 0 .791-1.3l-9.063-37.523a1.07 1.07 0 0 0-1.704-.594l-5.384 4.213-7.818 6.122-2.619 2.05v.003h-.002l-9.605 7.515-1.588 1.246-1.526 1.193a.77.77 0 0 1-.616.15l-1.899-.363-8.032-1.531-8.038-1.533-17.607-3.358a1.05 1.05 0 0 0-.454.01 1.075 1.075 0 0 0-.669.495c-.144.241-.188.53-.122.804Zm26.168 3.757 8.031 1.532 2.565.49a1.079 1.079 0 0 0 .862-.21l2.06-1.611-.723.175-1.526 1.193a.772.772 0 0 1-.616.15l-1.899-.363-8.032-1.531-.722.175Zm0 0 8.031 1.532 2.565.49a1.079 1.079 0 0 0 .862-.21l2.06-1.611-.723.175-1.526 1.193a.772.772 0 0 1-.616.15l-1.899-.363-8.032-1.531-.722.175Zm0 0 8.031 1.532 2.565.49a1.079 1.079 0 0 0 .862-.21l2.06-1.611-.723.175-1.526 1.193a.772.772 0 0 1-.616.15l-1.899-.363-8.032-1.531-.722.175Z" fill="#fff"/><path d="m178.198 47.115 8.031 1.532 2.565.49a1.079 1.079 0 0 0 .862-.21l2.06-1.611-.723.175-1.526 1.193a.773.773 0 0 1-.616.15l-1.899-.363-8.032-1.532-.722.176Zm23.99-8.386.078.324.357-.277-.435-.047Zm-23.99 8.386 8.031 1.532 2.565.49a1.079 1.079 0 0 0 .862-.21l2.06-1.611-.723.175-1.526 1.193a.773.773 0 0 1-.616.15l-1.899-.363-8.032-1.532-.722.176Zm0 0 8.031 1.532 2.565.49a1.079 1.079 0 0 0 .862-.21l2.06-1.611-.723.175-1.526 1.193a.773.773 0 0 1-.616.15l-1.899-.363-8.032-1.532-.722.176Zm-25.747-4.538.04.03c.007-.01.018-.02.027-.032a.775.775 0 0 1 .699-.226l17.497 3.336 7.484 1.43 8.031 1.532 2.565.49a1.079 1.079 0 0 0 .862-.21l2.06-1.611-.723.175-1.526 1.193a.773.773 0 0 1-.616.15l-1.899-.363-8.032-1.532-8.038-1.532-17.607-3.358a1.052 1.052 0 0 0-.454.01l-.37.518Zm-.421.78 9.063 37.525a1.077 1.077 0 0 0 1.296.792l65.596-15.915a1.075 1.075 0 0 0 .791-1.3l-9.063-37.523a1.07 1.07 0 0 0-1.704-.594l-5.384 4.213-7.818 6.122-2.619 2.05v.003h-.002l-9.605 7.515-1.588 1.246-1.526 1.193a.773.773 0 0 1-.616.15l-1.899-.363-8.032-1.532-8.038-1.532-17.607-3.358a1.052 1.052 0 0 0-.454.01 1.075 1.075 0 0 0-.669.495c-.144.241-.188.53-.122.804Zm.299-.072a.767.767 0 0 1 .162-.678c.007-.01.018-.02.027-.032a.775.775 0 0 1 .699-.226l17.497 3.336 7.484 1.43 8.031 1.532 2.565.49a1.079 1.079 0 0 0 .862-.21l2.06-1.611 1.302-1.02 9.248-7.243.357-.277 2.183-1.71 7.773-6.085 5.62-4.398a.764.764 0 0 1 1.039.09.78.78 0 0 1 .178.335l9.063 37.523a.78.78 0 0 1-.091.583.755.755 0 0 1-.475.347l-65.595 15.916a.765.765 0 0 1-.926-.568l-9.063-37.524Zm25.869 3.83 8.031 1.532 2.565.49a1.079 1.079 0 0 0 .862-.21l2.06-1.611-.723.175-1.526 1.193a.772.772 0 0 1-.616.15l-1.899-.363-8.032-1.532-.722.176Zm0 0 8.031 1.532 2.565.49a1.079 1.079 0 0 0 .862-.21l2.06-1.611-.723.175-1.526 1.193a.772.772 0 0 1-.616.15l-1.899-.363-8.032-1.532-.722.176Zm0 0 8.031 1.532 2.565.49a1.079 1.079 0 0 0 .862-.21l2.06-1.611-.723.175-1.526 1.193a.772.772 0 0 1-.616.15l-1.899-.363-8.032-1.532-.722.176Z" fill="#3F3D56"/><path d="M210.889 58.387a2.39 2.39 0 0 1 1.753-2.88l8.279-2.009a2.375 2.375 0 0 1 1.795.287 2.391 2.391 0 0 1 .791 3.273c-.328.54-.855.926-1.466 1.077l-8.279 2.009a2.386 2.386 0 0 1-2.873-1.757Z" fill="#571AFF"/><path d="M82.59 57.589a2.054 2.054 0 0 0 2.052-2.057 2.054 2.054 0 0 0-2.052-2.057c-1.133 0-2.052.921-2.052 2.057s.92 2.057 2.052 2.057Z" fill="#fff"/></svg>