<svg width="16" height="16" viewBox="0 0 16 16" fill="none" xmlns="http://www.w3.org/2000/svg">
<g opacity="0.4">
<path d="M16 8C16 12.4183 12.4183 16 8 16C3.58172 16 -3.13124e-07 12.4183 -6.99382e-07 8C-1.08564e-06 3.58172 3.58172 1.08564e-06 8 6.99382e-07C12.4183 3.13124e-07 16 3.58172 16 8Z" fill="white"/>
<path d="M1.33335 8.00002C1.33335 4.31731 4.31838 1.33335 8.00002 1.33335C11.6817 1.33335 14.6667 4.3173 14.6667 8.00002C14.6667 11.6806 11.6817 14.6667 8.00002 14.6667C4.31838 14.6667 1.33335 11.6806 1.33335 8.00002ZM8.00002 6.65593C8.68295 6.65593 9.23658 6.10231 9.23658 5.41938C9.23658 4.73645 8.68295 4.18282 8.00002 4.18282C7.31709 4.18282 6.76346 4.73645 6.76346 5.41938C6.76346 6.10231 7.31709 6.65593 8.00002 6.65593ZM9.00006 11.1007L8.97462 8.00002C8.96529 7.82895 8.82384 7.69502 8.65252 7.69502L7.34752 7.69502C7.1762 7.69502 7.03475 7.82895 7.02542 8.00002L7.00006 11.1007C6.98998 11.2855 7.1371 11.4409 7.32216 11.4409L8.67799 11.4409C8.86305 11.4409 9.01014 11.2855 9.00006 11.1007Z" fill="#000A2C"/>
</g>
</svg>
