<svg width="40" height="44" fill="none" xmlns="http://www.w3.org/2000/svg"><ellipse opacity=".3" cx="20" cy="38" rx="14" ry="5" fill="#000"/><path d="m19.413 36.53.345.361.345-.361 9.783-10.242c5.597-5.86 5.548-15.4-.095-21.307-5.644-5.909-14.756-5.96-20.353-.1-5.597 5.859-5.548 15.399.096 21.307l9.879 10.342Z" fill="#FFF" stroke="#FFF" stroke-width="2"/><path d="m19.413 36.53.345.361.345-.361 9.783-10.242c5.597-5.86 5.548-15.4-.095-21.307-5.644-5.909-14.756-5.96-20.353-.1-5.597 5.859-5.548 15.399.096 21.307l9.879 10.342Z" fill="transparent" stroke="#FFF" stroke-width="2"/></svg>