<svg width="40" height="44" viewBox="0 0 40 44" fill="none" xmlns="http://www.w3.org/2000/svg">
  <ellipse opacity="0.3" cx="20" cy="38" rx="14" ry="5" fill="black"/>
  <path
    d="M19.4125 36.53L19.7578 36.8915L20.1032 36.53L29.8864 26.2879C35.4834 20.4284 35.4342 10.8888 29.7907 4.98059C24.1473 -0.927579 15.035 -0.979031 9.43801 4.88049C3.84101 10.74 3.89016 20.2796 9.53364 26.1878L19.4125 36.53Z"
    fill="#FFFFFF"
    stroke="#FFFFFF"
    stroke-width="2px"
  />
  <path
    d="M19.4125 36.53L19.7578 36.8915L20.1032 36.53L29.8864 26.2879C35.4834 20.4284 35.4342 10.8888 29.7907 4.98059C24.1473 -0.927579 15.035 -0.979031 9.43801 4.88049C3.84101 10.74 3.89016 20.2796 9.53364 26.1878L19.4125 36.53Z"
    fill="transparent"
    stroke="#FFFFFF"
    stroke-width="2px"
  />
</svg>
