<svg width="123" height="123" fill="none" xmlns="http://www.w3.org/2000/svg"><g filter="url(#a)"><rect x="11" y="8" width="101" height="101" rx="20.2" fill="#F4ED0F"/><g clip-path="url(#b)"><path d="M68.14 90.45 52.5 74.862c-8.637-8.607-8.705-22.496-.15-31.02 8.553-8.525 22.49-8.457 31.128.15 8.637 8.608 8.705 22.497.15 31.021L68.14 90.45Z" fill="#fff"/><path fill-rule="evenodd" clip-rule="evenodd" d="m44.717 63.672 12.343 12.3 12.343-12.3c6.817-6.793 6.817-17.807 0-24.6-6.817-6.793-17.87-6.793-24.686 0-6.817 6.793-6.817 17.807 0 24.6ZM57.06 83.408 73.133 67.39c8.877-8.846 8.877-23.19 0-32.035-8.877-8.847-23.27-8.847-32.146 0-8.877 8.846-8.877 23.189 0 32.035L57.06 83.407Z" fill="#000A2C"/></g></g><defs><clipPath id="b"><path fill="#fff" transform="translate(34.189 28.612)" d="M0 0h56.168v61.837H0z"/></clipPath><filter id="a" x="0" y="0" width="123" height="123" filterUnits="userSpaceOnUse" color-interpolation-filters="sRGB"><feFlood flood-opacity="0" result="BackgroundImageFix"/><feColorMatrix in="SourceAlpha" values="0 0 0 0 0 0 0 0 0 0 0 0 0 0 0 0 0 0 127 0"/><feMorphology radius="3" operator="dilate" in="SourceAlpha" result="effect1_dropShadow"/><feOffset dy="3"/><feGaussianBlur stdDeviation="4"/><feColorMatrix values="0 0 0 0 0 0 0 0 0 0 0 0 0 0 0 0 0 0 0.15 0"/><feBlend in2="BackgroundImageFix" result="effect1_dropShadow"/><feColorMatrix in="SourceAlpha" values="0 0 0 0 0 0 0 0 0 0 0 0 0 0 0 0 0 0 127 0"/><feOffset/><feGaussianBlur stdDeviation="1.5"/><feColorMatrix values="0 0 0 0 0 0 0 0 0 0 0 0 0 0 0 0 0 0 0.6 0"/><feBlend in2="effect1_dropShadow" result="effect2_dropShadow"/><feBlend in="SourceGraphic" in2="effect2_dropShadow" result="shape"/></filter></defs></svg>